<svg width="179" height="44" viewBox="0 0 179 44" fill="none" xmlns="http://www.w3.org/2000/svg">
<path fill-rule="evenodd" clip-rule="evenodd" d="M47.0108 13.1489C47.0108 7.80059 44.4848 3.04201 40.5601 0L59.7791 0C67.0446 0 72.9344 5.88695 72.9344 13.1489H60.1661V43.5073C52.9006 43.5073 47.0108 37.6203 47.0108 30.3584V13.1489ZM30.4699 13.1489H13.1553C5.88982 13.1489 0 7.26192 0 0H30.3729C30.4053 0 30.4376 0.000116177 30.4699 0.000348139C37.7354 0 43.6252 5.88695 43.6252 13.1489V43.5073C36.3598 43.5073 30.4699 37.6203 30.4699 30.3584V13.1489ZM13.1553 16.6294V43.5073C5.88982 43.5073 0 37.6203 0 30.3584L0 10.1819C3.04349 14.1047 7.80439 16.6294 13.1553 16.6294Z" fill="#399EFD"/>
<path d="M113.668 33.2198C112.466 33.2198 111.35 33.0517 110.32 32.7155C109.291 32.3793 108.394 31.875 107.629 31.2026C106.865 30.5302 106.263 29.6846 105.825 28.6658C105.387 27.647 105.168 26.455 105.168 25.0898C105.168 23.745 105.387 22.5887 105.825 21.6209C106.263 20.653 106.839 19.8584 107.553 19.2369C108.266 18.6154 109.082 18.157 109.999 17.8615C110.916 17.5661 111.854 17.4184 112.812 17.4184C113.893 17.4184 114.876 17.5814 115.763 17.9074C116.65 18.2334 117.414 18.6817 118.056 19.2522C118.699 19.8227 119.198 20.5053 119.555 21.2999C119.912 22.0946 120.09 22.9606 120.09 23.8979C120.09 24.5906 119.896 25.1204 119.509 25.4872C119.122 25.8539 118.581 26.0882 117.888 26.1901L110.335 27.321C110.56 27.9934 111.018 28.4977 111.711 28.8339C112.405 29.1701 113.2 29.3382 114.097 29.3382C114.932 29.3382 115.722 29.2312 116.466 29.0173C117.21 28.8033 117.817 28.5537 118.286 28.2685C118.612 28.4722 118.887 28.7575 119.111 29.1242C119.336 29.491 119.448 29.8781 119.448 30.2857C119.448 31.2026 119.02 31.8852 118.163 32.3334C117.511 32.6798 116.777 32.9141 115.962 33.0364C115.146 33.1586 114.382 33.2198 113.668 33.2198ZM112.812 21.2083C112.323 21.2083 111.9 21.2898 111.543 21.4528C111.186 21.6158 110.896 21.8246 110.672 22.0793C110.447 22.334 110.279 22.6193 110.167 22.9351C110.055 23.2509 109.989 23.5718 109.968 23.8979L115.197 23.0421C115.136 22.6346 114.912 22.227 114.525 21.8195C114.137 21.412 113.567 21.2083 112.812 21.2083ZM139.79 13.7507C139.79 12.9764 140.05 12.3244 140.57 11.7947C141.09 11.2649 141.778 11 142.634 11C143.49 11 144.178 11.2649 144.698 11.7947C145.218 12.3244 145.478 12.9764 145.478 13.7507C145.478 14.525 145.218 15.177 144.698 15.7068C144.178 16.2366 143.49 16.5015 142.634 16.5015C141.778 16.5015 141.09 16.2366 140.57 15.7068C140.05 15.177 139.79 14.525 139.79 13.7507ZM145.233 32.7002C145.009 32.7409 144.678 32.797 144.24 32.8683C143.801 32.9396 143.358 32.9753 142.909 32.9753C142.461 32.9753 142.058 32.9447 141.702 32.8836C141.345 32.8224 141.044 32.7002 140.799 32.5168C140.555 32.3334 140.366 32.0838 140.234 31.768C140.101 31.4522 140.035 31.0396 140.035 30.5302V18.0908C140.259 18.05 140.591 17.994 141.029 17.9227C141.467 17.8513 141.911 17.8157 142.359 17.8157C142.807 17.8157 143.21 17.8463 143.567 17.9074C143.924 17.9685 144.224 18.0908 144.469 18.2741C144.714 18.4575 144.902 18.7071 145.035 19.023C145.167 19.3388 145.233 19.7514 145.233 20.2608V32.7002ZM163.799 25.3038C163.799 26.5671 163.605 27.6928 163.218 28.6811C162.83 29.6693 162.285 30.4996 161.582 31.172C160.878 31.8444 160.037 32.3538 159.059 32.7002C158.08 33.0466 156.99 33.2198 155.787 33.2198C154.584 33.2198 153.494 33.0364 152.515 32.6696C151.537 32.3029 150.696 31.7782 149.992 31.0956C149.289 30.413 148.744 29.5827 148.356 28.6047C147.969 27.6266 147.775 26.5263 147.775 25.3038C147.775 24.1016 147.969 23.0115 148.356 22.0335C148.744 21.0554 149.289 20.2251 149.992 19.5425C150.696 18.8599 151.537 18.3353 152.515 17.9685C153.494 17.6017 154.584 17.4184 155.787 17.4184C156.99 17.4184 158.08 17.6068 159.059 17.9838C160.037 18.3607 160.878 18.8905 161.582 19.5731C162.285 20.2557 162.83 21.086 163.218 22.064C163.605 23.0421 163.799 24.122 163.799 25.3038ZM153.096 25.3038C153.096 26.5467 153.336 27.4993 153.815 28.1615C154.294 28.8237 154.961 29.1548 155.818 29.1548C156.674 29.1548 157.331 28.8186 157.79 28.1462C158.249 27.4738 158.478 26.5263 158.478 25.3038C158.478 24.0812 158.243 23.1389 157.775 22.4766C157.306 21.8144 156.643 21.4833 155.787 21.4833C154.931 21.4833 154.268 21.8144 153.799 22.4766C153.33 23.1389 153.096 24.0812 153.096 25.3038ZM179 28.299C179 29.8476 178.419 31.0599 177.257 31.9361C176.095 32.8123 174.383 33.2503 172.12 33.2503C171.264 33.2503 170.469 33.1892 169.735 33.0669C169.001 32.9447 168.374 32.7562 167.854 32.5015C167.334 32.2468 166.927 31.9259 166.631 31.5388C166.335 31.1516 166.188 30.6932 166.188 30.1634C166.188 29.6744 166.29 29.2618 166.493 28.9256C166.697 28.5894 166.942 28.3092 167.227 28.0851C167.818 28.4111 168.496 28.7014 169.261 28.9561C170.025 29.2108 170.907 29.3382 171.906 29.3382C172.538 29.3382 173.022 29.2465 173.358 29.0631C173.695 28.8797 173.863 28.6352 173.863 28.3296C173.863 28.0443 173.74 27.8202 173.496 27.6572C173.251 27.4942 172.844 27.3617 172.273 27.2599L171.355 27.0765C169.582 26.7301 168.262 26.185 167.395 25.4413C166.529 24.6976 166.096 23.633 166.096 22.2474C166.096 21.4935 166.259 20.8109 166.585 20.1997C166.911 19.5884 167.37 19.079 167.961 18.6715C168.552 18.264 169.261 17.9481 170.086 17.724C170.912 17.4999 171.824 17.3878 172.823 17.3878C173.577 17.3878 174.286 17.4438 174.948 17.5559C175.611 17.668 176.187 17.8361 176.676 18.0602C177.165 18.2843 177.553 18.5747 177.838 18.9313C178.123 19.2878 178.266 19.7106 178.266 20.1997C178.266 20.6683 178.179 21.0707 178.006 21.4069C177.833 21.7431 177.614 22.0233 177.349 22.2474C177.186 22.1455 176.941 22.0386 176.615 21.9265C176.289 21.8144 175.932 21.7126 175.545 21.6209C175.157 21.5292 174.765 21.4528 174.367 21.3916C173.97 21.3305 173.608 21.2999 173.282 21.2999C172.609 21.2999 172.089 21.3764 171.722 21.5292C171.355 21.682 171.172 21.9214 171.172 22.2474C171.172 22.4716 171.274 22.6549 171.478 22.7976C171.682 22.9402 172.069 23.0726 172.64 23.1949L173.588 23.4088C175.545 23.8571 176.936 24.4735 177.762 25.2579C178.587 26.0424 179 27.0561 179 28.299ZM100.816 18.2875C102.04 19.1506 102.84 20.5751 102.84 22.1863V33.3115C100.205 33.3115 98.0694 31.1768 98.0694 28.5435V22.1252H91.7703C89.1357 22.1252 87 19.9905 87 17.3572H97.9732C99.0365 17.3572 100.02 17.7026 100.816 18.2875ZM91.8314 23.47V33.3115C89.1969 33.3115 87.0612 31.1768 87.0612 28.5435V21.1536C88.1607 22.5642 89.8666 23.47 91.782 23.47H91.8314ZM130.95 21.2267L132.199 19.5884C132.648 18.9975 133.055 18.539 133.422 18.213C133.789 17.887 134.309 17.724 134.982 17.724C135.695 17.724 136.291 17.9685 136.771 18.4575C137.25 18.9465 137.571 19.5782 137.734 20.3525L133.934 24.8021L131.523 21.8627L131.511 21.85C131.48 21.8178 131.45 21.7846 131.421 21.7504L131.413 21.7409L130.95 21.2267ZM134.013 25.5885L136.083 27.9934C136.653 28.6454 137.056 29.1599 137.29 29.5368C137.525 29.9138 137.642 30.3468 137.642 30.8358C137.642 31.4675 137.372 31.9972 136.832 32.4251C136.291 32.853 135.502 33.0669 134.462 33.0669C134.38 33.0669 134.278 33.0619 134.156 33.0517C134.034 33.0415 133.922 33.0364 133.82 33.0364L131.408 29.5625C131.382 29.5123 131.354 29.463 131.324 29.4146C131.28 29.3438 131.23 29.2682 131.174 29.1878L131.208 29.1357C131.339 28.9365 131.482 28.7476 131.646 28.5599L131.661 28.5424L134.013 25.5885ZM129.948 22.0679C129.983 22.1082 130.018 22.1477 130.055 22.1863L132.562 25.2427L130.177 28.2379C129.983 28.4594 129.828 28.6703 129.698 28.867L129.688 28.8492L126.289 33.2503C126.188 33.2503 126.075 33.2554 125.953 33.2656C125.831 33.2758 125.729 33.2809 125.647 33.2809C124.608 33.2809 123.818 33.0669 123.278 32.6391C122.737 32.2112 122.467 31.6814 122.467 31.0497C122.467 30.5607 122.584 30.1277 122.819 29.7508C123.053 29.3738 123.456 28.8594 124.027 28.2073L126.473 25.3649L122.375 20.5664C122.539 19.7921 122.86 19.1605 123.339 18.6715C123.818 18.1825 124.414 17.9379 125.128 17.9379C125.8 17.9379 126.32 18.101 126.687 18.427C127.054 18.753 127.462 19.2114 127.91 19.8023L129.948 22.0679Z" fill="#399EFD"/>
<path opacity="0.3" d="M89.319 39.0356V43.6421H88.6438V39.0356H87.176V38.3901H90.7867V39.0356H89.319ZM97.9837 38.3901V39.0356H95.5912V40.7007H97.7489V41.3315H95.5912V42.9966H97.9837V43.6421H94.9161V38.3901H97.9837ZM104.645 43.7595C103.867 43.7595 103.216 43.4979 102.693 42.9746C102.174 42.4514 101.915 41.7985 101.915 41.0161C101.915 40.2337 102.174 39.5833 102.693 39.0649C103.211 38.5368 103.862 38.2727 104.645 38.2727C105.438 38.2727 106.081 38.5588 106.575 39.1309L106.091 39.6004C105.714 39.1456 105.232 38.9182 104.645 38.9182C104.063 38.9182 103.576 39.1138 103.185 39.505C102.798 39.8914 102.605 40.395 102.605 41.0161C102.605 41.6372 102.798 42.1408 103.185 42.5272C103.576 42.9184 104.063 43.114 104.645 43.114C105.257 43.114 105.787 42.8573 106.237 42.3438L106.729 42.8206C106.48 43.1189 106.174 43.3499 105.812 43.5138C105.45 43.6776 105.061 43.7595 104.645 43.7595ZM111.622 43.6421H110.947V38.3901H111.622V40.642H114.249V38.3901H114.924V43.6421H114.249V41.2728H111.622V43.6421ZM120.081 43.6421H119.406V38.3901H120.228L122.782 42.4758H122.811L122.782 41.4635V38.3901H123.457V43.6421H122.752L120.081 39.3583H120.052L120.081 40.3706V43.6421ZM133.01 41.0161C133.01 41.7936 132.75 42.444 132.232 42.9673C131.708 43.4954 131.067 43.7595 130.309 43.7595C129.546 43.7595 128.905 43.4954 128.386 42.9673C127.868 42.444 127.608 41.7936 127.608 41.0161C127.608 40.2386 127.868 39.5882 128.386 39.0649C128.905 38.5368 129.546 38.2727 130.309 38.2727C131.072 38.2727 131.713 38.5392 132.232 39.0722C132.75 39.5955 133.01 40.2434 133.01 41.0161ZM128.298 41.0161C128.298 41.6225 128.489 42.1237 128.87 42.5198C129.257 42.9159 129.736 43.114 130.309 43.114C130.881 43.114 131.358 42.9159 131.74 42.5198C132.126 42.1286 132.32 41.6274 132.32 41.0161C132.32 40.4048 132.126 39.9036 131.74 39.5124C131.358 39.1163 130.881 38.9182 130.309 38.9182C129.736 38.9182 129.257 39.1163 128.87 39.5124C128.489 39.9085 128.298 40.4097 128.298 41.0161ZM140.185 43.6421H137.234V38.3901H137.91V42.9966H140.185V43.6421ZM149.348 41.0161C149.348 41.7936 149.089 42.444 148.57 42.9673C148.047 43.4954 147.406 43.7595 146.648 43.7595C145.884 43.7595 145.243 43.4954 144.725 42.9673C144.206 42.444 143.947 41.7936 143.947 41.0161C143.947 40.2386 144.206 39.5882 144.725 39.0649C145.243 38.5368 145.884 38.2727 146.648 38.2727C147.411 38.2727 148.052 38.5392 148.57 39.0722C149.089 39.5955 149.348 40.2434 149.348 41.0161ZM144.637 41.0161C144.637 41.6225 144.828 42.1237 145.209 42.5198C145.596 42.9159 146.075 43.114 146.648 43.114C147.22 43.114 147.697 42.9159 148.079 42.5198C148.465 42.1286 148.658 41.6274 148.658 41.0161C148.658 40.4048 148.465 39.9036 148.079 39.5124C147.697 39.1163 147.22 38.9182 146.648 38.9182C146.075 38.9182 145.596 39.1163 145.209 39.5124C144.828 39.9085 144.637 40.4097 144.637 41.0161ZM158.556 41.2288C158.556 41.9624 158.338 42.5467 157.903 42.982C157.414 43.5003 156.77 43.7595 155.973 43.7595C155.21 43.7595 154.564 43.4954 154.035 42.9673C153.507 42.4391 153.243 41.7888 153.243 41.0161C153.243 40.2434 153.507 39.5931 154.035 39.0649C154.564 38.5368 155.21 38.2727 155.973 38.2727C156.359 38.2727 156.724 38.3412 157.066 38.4781C157.409 38.615 157.69 38.8082 157.91 39.0576L157.426 39.5417C157.265 39.3461 157.055 39.1933 156.798 39.0833C156.542 38.9732 156.266 38.9182 155.973 38.9182C155.4 38.9182 154.916 39.1163 154.52 39.5124C154.128 39.9134 153.933 40.4146 153.933 41.0161C153.933 41.6176 154.128 42.1188 154.52 42.5198C154.916 42.9159 155.4 43.114 155.973 43.114C156.496 43.114 156.932 42.9673 157.279 42.6739C157.627 42.3805 157.827 41.977 157.881 41.4635H155.973V40.8327H158.519C158.544 40.9696 158.556 41.1017 158.556 41.2288ZM163.478 43.6421H162.803V38.3901H163.478V43.6421ZM171.027 38.3901V39.0356H168.635V40.7007H170.792V41.3315H168.635V42.9966H171.027V43.6421H167.96V38.3901H171.027ZM178.606 42.2411C178.606 42.7008 178.437 43.07 178.1 43.3487C177.757 43.6226 177.341 43.7595 176.852 43.7595C176.416 43.7595 176.032 43.6323 175.7 43.3781C175.367 43.1238 175.137 42.7766 175.01 42.3364L175.656 42.0724C175.7 42.2289 175.761 42.3707 175.839 42.4978C175.917 42.625 176.009 42.7338 176.114 42.8242C176.22 42.9147 176.336 42.9856 176.463 43.037C176.59 43.0883 176.725 43.114 176.867 43.114C177.175 43.114 177.427 43.0345 177.622 42.8756C177.818 42.7167 177.916 42.5052 177.916 42.2411C177.916 42.021 177.835 41.8328 177.674 41.6763C177.522 41.5247 177.238 41.378 176.823 41.2362C176.402 41.0846 176.14 40.9819 176.037 40.9281C175.48 40.6444 175.201 40.2263 175.201 39.6737C175.201 39.2874 175.355 38.9573 175.663 38.6835C175.976 38.4096 176.36 38.2727 176.815 38.2727C177.216 38.2727 177.564 38.3754 177.857 38.5808C178.151 38.7813 178.347 39.0331 178.444 39.3363L177.813 39.6004C177.755 39.4048 177.638 39.2422 177.465 39.1126C177.291 38.983 177.079 38.9182 176.83 38.9182C176.566 38.9182 176.343 38.9916 176.162 39.1383C175.981 39.2752 175.891 39.4537 175.891 39.6737C175.891 39.8547 175.961 40.0112 176.103 40.1432C176.26 40.2752 176.6 40.4317 177.123 40.6127C177.657 40.7936 178.037 41.0149 178.265 41.2765C178.492 41.5381 178.606 41.8597 178.606 42.2411Z" fill="white"/>
</svg>
