<svg width="44" height="43" viewBox="0 0 44 43" fill="none" xmlns="http://www.w3.org/2000/svg">
<path d="M23.2291 1.79175C17.8807 1.79175 17.2082 1.81638 15.1068 1.91C13.0054 2.00854 11.5741 2.33865 10.3201 2.82644C9.00483 3.32116 7.81345 4.0972 6.82929 5.10028C5.82681 6.08495 5.05088 7.27618 4.55544 8.59112C4.06766 9.8426 3.73508 11.2764 3.639 13.3704C3.54539 15.4767 3.52075 16.1468 3.52075 21.5025C3.52075 26.8534 3.54539 27.5234 3.639 29.6248C3.73754 31.7238 4.06766 33.1551 4.55544 34.409C5.06047 35.7049 5.73301 36.8036 6.82929 37.8999C7.9231 38.9962 9.02184 39.6712 10.3177 40.1737C11.5741 40.6615 13.0029 40.9941 15.1019 41.0902C17.2057 41.1838 17.8758 41.2084 23.2291 41.2084C28.5824 41.2084 29.25 41.1838 31.3538 41.0902C33.4503 40.9916 34.8866 40.6615 36.1405 40.1737C37.455 39.6788 38.6455 38.9027 39.6289 37.8999C40.7252 36.8036 41.3977 35.7049 41.9027 34.409C42.3881 33.1551 42.7206 31.7238 42.8192 29.6248C42.9128 27.5234 42.9374 26.8534 42.9374 21.5001C42.9374 16.1468 42.9128 15.4767 42.8192 13.3729C42.7206 11.2764 42.3881 9.8426 41.9027 8.59112C41.4074 7.27615 40.6314 6.0849 39.6289 5.10028C38.645 4.09682 37.4536 3.32073 36.138 2.82644C34.8816 2.33865 33.4479 2.00608 31.3514 1.91C29.2475 1.81638 28.5799 1.79175 23.2242 1.79175H23.2316H23.2291ZM21.4627 5.34418H23.2316C28.4937 5.34418 29.117 5.36142 31.1937 5.4575C33.1153 5.54372 34.1598 5.86645 34.8545 6.13497C35.7734 6.49219 36.4312 6.92084 37.121 7.61063C37.8108 8.30043 38.237 8.95573 38.5942 9.87709C38.8652 10.5693 39.1854 11.6139 39.2717 13.5355C39.3677 15.6122 39.3875 16.2355 39.3875 21.4952C39.3875 26.7548 39.3677 27.3806 39.2717 29.4573C39.1854 31.3789 38.8627 32.421 38.5942 33.1157C38.2782 33.9714 37.7739 34.7452 37.1185 35.3797C36.4287 36.0695 35.7734 36.4957 34.8521 36.8529C34.1623 37.1239 33.1177 37.4441 31.1937 37.5328C29.117 37.6264 28.4937 37.6486 23.2316 37.6486C17.9694 37.6486 17.3437 37.6264 15.2669 37.5328C13.3454 37.4441 12.3033 37.1239 11.6086 36.8529C10.7525 36.5373 9.97801 36.0339 9.3421 35.3797C8.68618 34.7442 8.18109 33.9697 7.86398 33.1132C7.59545 32.421 7.27273 31.3764 7.1865 29.4549C7.09289 27.3781 7.07318 26.7548 7.07318 21.4902C7.07318 16.2281 7.09289 15.6073 7.1865 13.5305C7.27519 11.609 7.59545 10.5644 7.86644 9.8697C8.22365 8.9508 8.65231 8.29303 9.3421 7.60324C10.0319 6.91345 10.6872 6.48726 11.6086 6.13004C12.3033 5.85906 13.3454 5.53879 15.2669 5.45011C17.085 5.36635 17.7896 5.34171 21.4627 5.33925V5.34418ZM33.7509 8.61576C33.4403 8.61576 33.1328 8.67693 32.8458 8.79578C32.5589 8.91464 32.2982 9.08884 32.0786 9.30845C31.859 9.52806 31.6847 9.78878 31.5659 10.0757C31.447 10.3626 31.3859 10.6702 31.3859 10.9808C31.3859 11.2913 31.447 11.5989 31.5659 11.8858C31.6847 12.1727 31.859 12.4335 32.0786 12.6531C32.2982 12.8727 32.5589 13.0469 32.8458 13.1657C33.1328 13.2846 33.4403 13.3458 33.7509 13.3458C34.3781 13.3458 34.9797 13.0966 35.4232 12.6531C35.8667 12.2095 36.1159 11.608 36.1159 10.9808C36.1159 10.3535 35.8667 9.75197 35.4232 9.30845C34.9797 8.86493 34.3781 8.61576 33.7509 8.61576ZM23.2316 11.3799C21.8891 11.3589 20.5559 11.6052 19.3095 12.1045C18.0632 12.6037 16.9286 13.3459 15.9719 14.2879C15.0151 15.2298 14.2553 16.3527 13.7367 17.5911C13.218 18.8295 12.9509 20.1587 12.9509 21.5013C12.9509 22.8439 13.218 24.1731 13.7367 25.4115C14.2553 26.65 15.0151 27.7728 15.9719 28.7148C16.9286 29.6567 18.0632 30.3989 19.3095 30.8981C20.5559 31.3974 21.8891 31.6437 23.2316 31.6228C25.8886 31.5813 28.4228 30.4967 30.2871 28.6031C32.1514 26.7095 33.1963 24.1587 33.1963 21.5013C33.1963 18.844 32.1514 16.2932 30.2871 14.3995C28.4228 12.5059 25.8886 11.4213 23.2316 11.3799ZM23.2316 14.9298C24.9741 14.9298 26.6453 15.622 27.8774 16.8542C29.1096 18.0864 29.8018 19.7575 29.8018 21.5001C29.8018 23.2426 29.1096 24.9138 27.8774 26.146C26.6453 27.3781 24.9741 28.0703 23.2316 28.0703C21.489 28.0703 19.8178 27.3781 18.5857 26.146C17.3535 24.9138 16.6613 23.2426 16.6613 21.5001C16.6613 19.7575 17.3535 18.0864 18.5857 16.8542C19.8178 15.622 21.489 14.9298 23.2316 14.9298Z" fill="#399EFD"/>
</svg>
