<svg width="11" height="19" viewBox="0 0 11 19" fill="none" xmlns="http://www.w3.org/2000/svg">
<path d="M5.50007 0C2.4673 0 0 2.4673 0 5.50007C0 6.32715 0.179151 7.12203 0.532334 7.86316C0.539443 7.87901 0.546908 7.89458 0.55487 7.91015L4.71046 15.9562C4.86302 16.2515 5.16765 16.4371 5.5 16.4371C5.83242 16.4371 6.13705 16.2516 6.28954 15.9562L10.444 7.91235C10.4512 7.89849 10.4579 7.88448 10.4643 7.87034C10.8198 7.12707 11 6.32978 11 5.50007C11.0001 2.4673 8.53284 0 5.50007 0ZM5.50007 8.37892C3.91267 8.37892 2.62122 7.08747 2.62122 5.50007C2.62122 3.91274 3.91267 2.62129 5.50007 2.62129C7.08747 2.62129 8.37892 3.91274 8.37892 5.50007C8.37892 7.08747 7.08747 8.37892 5.50007 8.37892Z" fill="#399EFD"/>
<path d="M7.61878 17.7031H3.38158C3.08704 17.7031 2.84839 17.9418 2.84839 18.2363C2.84839 18.5308 3.08704 18.7695 3.38158 18.7695H7.61878C7.91331 18.7695 8.15196 18.5308 8.15196 18.2363C8.15196 17.9418 7.91324 17.7031 7.61878 17.7031Z" fill="#399EFD"/>
</svg>
