<svg width="95" height="70" viewBox="0 0 95 70" fill="none" xmlns="http://www.w3.org/2000/svg">
<path fill-rule="evenodd" clip-rule="evenodd" d="M58.8571 8.5844C58.8571 5.09271 57.2079 1.98601 54.6457 0L67.1931 0C71.9364 0 75.7816 3.84336 75.7816 8.5844H67.4457V28.4043C62.7023 28.4043 58.8571 24.5609 58.8571 19.8199V8.5844ZM48.0582 8.5844H36.7541C32.0108 8.5844 28.1655 4.74103 28.1655 0H47.9948C48.016 0 48.0371 7.58478e-05 48.0582 0.000227287C52.8015 0 56.6468 3.84336 56.6468 8.5844V28.4043C51.9034 28.4043 48.0582 24.5609 48.0582 19.8199V8.5844ZM36.7541 10.8567V28.4043C32.0108 28.4043 28.1655 24.5609 28.1655 19.8199L28.1655 6.64741C30.1525 9.20839 33.2607 10.8567 36.7541 10.8567Z" fill="#399EFD"/>
<path d="M27.5381 58.6706C26.2961 58.6706 25.1436 58.4971 24.0805 58.1499C23.0175 57.8027 22.0913 57.282 21.3019 56.5877C20.5125 55.8933 19.8915 55.0202 19.4389 53.9682C18.9863 52.9161 18.76 51.6853 18.76 50.2756C18.76 48.8869 18.9863 47.6929 19.4389 46.6935C19.8915 45.6941 20.4862 44.8735 21.2229 44.2318C21.9597 43.5901 22.8017 43.1167 23.749 42.8116C24.6963 42.5065 25.6646 42.354 26.6539 42.354C27.7696 42.354 28.7853 42.5223 29.701 42.8589C30.6167 43.1956 31.4061 43.6585 32.0692 44.2476C32.7323 44.8367 33.248 45.5416 33.6164 46.3621C33.9848 47.1827 34.169 48.0769 34.169 49.0448C34.169 49.7601 33.969 50.3072 33.569 50.6859C33.1691 51.0646 32.6112 51.3066 31.8955 51.4118L24.0963 52.5795C24.3279 53.2738 24.8015 53.7946 25.5172 54.1417C26.2329 54.4889 27.0539 54.6625 27.9801 54.6625C28.8432 54.6625 29.6589 54.552 30.4272 54.3311C31.1956 54.1102 31.8218 53.8524 32.306 53.5579C32.6428 53.7683 32.927 54.0628 33.1585 54.4416C33.3901 54.8203 33.5059 55.22 33.5059 55.6409C33.5059 56.5877 33.0638 57.2925 32.1797 57.7554C31.5061 58.1131 30.7483 58.355 29.9062 58.4813C29.0642 58.6075 28.2748 58.6706 27.5381 58.6706ZM26.6539 46.2675C26.1487 46.2675 25.7119 46.3516 25.3436 46.5199C24.9752 46.6883 24.6752 46.9039 24.4436 47.1669C24.2121 47.4299 24.0384 47.7245 23.9226 48.0506C23.8069 48.3767 23.7385 48.7081 23.7174 49.0448L29.1168 48.1611C29.0537 47.7403 28.8221 47.3195 28.4222 46.8987C28.0222 46.4779 27.4328 46.2675 26.6539 46.2675ZM54.5118 38.5667C54.5118 37.7672 54.7802 37.0939 55.317 36.5469C55.8538 35.9998 56.5642 35.7263 57.4484 35.7263C58.3325 35.7263 59.0429 35.9998 59.5797 36.5469C60.1165 37.0939 60.3849 37.7672 60.3849 38.5667C60.3849 39.3663 60.1165 40.0396 59.5797 40.5866C59.0429 41.1336 58.3325 41.4072 57.4484 41.4072C56.5642 41.4072 55.8538 41.1336 55.317 40.5866C54.7802 40.0396 54.5118 39.3663 54.5118 38.5667ZM60.1323 58.1341C59.9007 58.1762 59.5587 58.2341 59.1061 58.3077C58.6535 58.3813 58.1957 58.4182 57.7326 58.4182C57.2694 58.4182 56.8537 58.3866 56.4853 58.3235C56.1169 58.2604 55.8064 58.1341 55.5538 57.9448C55.3012 57.7554 55.1065 57.4977 54.9697 57.1715C54.8329 56.8454 54.7644 56.4193 54.7644 55.8933V43.0483C54.996 43.0062 55.3381 42.9484 55.7906 42.8747C56.2432 42.8011 56.7011 42.7643 57.1642 42.7643C57.6273 42.7643 58.043 42.7958 58.4114 42.8589C58.7798 42.9221 59.0903 43.0483 59.3429 43.2377C59.5955 43.427 59.7902 43.6848 59.9271 44.0109C60.0639 44.337 60.1323 44.7631 60.1323 45.2891V58.1341ZM79.3028 50.4965C79.3028 51.801 79.1028 52.9635 78.7029 53.9839C78.3029 55.0044 77.7398 55.8618 77.0136 56.5561C76.2873 57.2504 75.419 57.7764 74.4086 58.1341C73.3982 58.4918 72.272 58.6706 71.03 58.6706C69.788 58.6706 68.6618 58.4813 67.6514 58.1026C66.641 57.7238 65.7726 57.1821 65.0464 56.4772C64.3202 55.7724 63.7571 54.915 63.3571 53.905C62.9571 52.8951 62.7572 51.7589 62.7572 50.4965C62.7572 49.2552 62.9571 48.1295 63.3571 47.1196C63.7571 46.1096 64.3202 45.2523 65.0464 44.5474C65.7726 43.8426 66.641 43.3008 67.6514 42.9221C68.6618 42.5433 69.788 42.354 71.03 42.354C72.272 42.354 73.3982 42.5486 74.4086 42.9378C75.419 43.3271 76.2873 43.8741 77.0136 44.579C77.7398 45.2838 78.3029 46.1412 78.7029 47.1511C79.1028 48.1611 79.3028 49.2762 79.3028 50.4965ZM68.2513 50.4965C68.2513 51.78 68.4987 52.7636 68.9934 53.4474C69.488 54.1312 70.1774 54.4731 71.0616 54.4731C71.9457 54.4731 72.6245 54.126 73.0982 53.4316C73.5718 52.7373 73.8086 51.7589 73.8086 50.4965C73.8086 49.2341 73.5666 48.261 73.0824 47.5772C72.5982 46.8934 71.9141 46.5515 71.03 46.5515C70.1459 46.5515 69.4617 46.8934 68.9776 47.5772C68.4934 48.261 68.2513 49.2341 68.2513 50.4965ZM95 53.5894C95 55.1885 94.4001 56.4404 93.2002 57.3451C92.0003 58.2498 90.2321 58.7022 87.8955 58.7022C87.0113 58.7022 86.1904 58.6391 85.4326 58.5128C84.6748 58.3866 84.0275 58.192 83.4907 57.929C82.9539 57.666 82.5329 57.3346 82.2276 56.9348C81.9224 56.5351 81.7698 56.0617 81.7698 55.5146C81.7698 55.0096 81.875 54.5836 82.0855 54.2364C82.2961 53.8893 82.5487 53.6 82.8434 53.3685C83.4538 53.7052 84.1537 54.005 84.9431 54.268C85.7325 54.531 86.643 54.6625 87.6744 54.6625C88.327 54.6625 88.827 54.5678 89.1743 54.3784C89.5216 54.1891 89.6953 53.9366 89.6953 53.621C89.6953 53.3264 89.569 53.095 89.3164 52.9267C89.0638 52.7583 88.6428 52.6216 88.0534 52.5164L87.1061 52.327C85.2747 51.9693 83.9117 51.4065 83.017 50.6386C82.1224 49.8706 81.6751 48.7712 81.6751 47.3405C81.6751 46.562 81.8435 45.8572 82.1803 45.226C82.5171 44.5948 82.9907 44.0688 83.6012 43.6479C84.2116 43.2271 84.9431 42.901 85.7957 42.6696C86.6482 42.4381 87.5902 42.3224 88.6217 42.3224C89.4006 42.3224 90.1321 42.3803 90.8162 42.496C91.5004 42.6117 92.095 42.7853 92.6002 43.0167C93.1055 43.2482 93.5054 43.548 93.8001 43.9162C94.0948 44.2844 94.2422 44.721 94.2422 45.226C94.2422 45.7099 94.1527 46.1254 93.9738 46.4726C93.7949 46.8198 93.5686 47.1091 93.2949 47.3405C93.1265 47.2353 92.8739 47.1248 92.5371 47.0091C92.2003 46.8934 91.8319 46.7882 91.4319 46.6935C91.032 46.5988 90.6268 46.5199 90.2163 46.4568C89.8058 46.3937 89.4322 46.3621 89.0953 46.3621C88.4007 46.3621 87.8639 46.441 87.485 46.5988C87.1061 46.7566 86.9166 47.0039 86.9166 47.3405C86.9166 47.5719 87.0219 47.7613 87.2324 47.9086C87.4429 48.0559 87.8428 48.1926 88.4323 48.3189L89.4111 48.5398C91.432 49.0027 92.8686 49.6391 93.7212 50.4492C94.5737 51.2592 95 52.306 95 53.5894ZM14.2665 43.2514C15.5306 44.1427 16.3562 45.6136 16.3562 47.2774V58.7653C13.6358 58.7653 11.4304 56.561 11.4304 53.8419V47.2143H4.92581C2.20536 47.2143 0 45.01 0 42.2909H11.331C12.429 42.2909 13.4442 42.6474 14.2665 43.2514ZM4.98896 48.6029V58.7653C2.26851 58.7653 0.0631513 56.561 0.0631513 53.8419V46.211C1.19857 47.6676 2.96011 48.6029 4.9379 48.6029H4.98896ZM45.3833 46.2865L46.6729 44.5948C47.136 43.9846 47.557 43.5112 47.9359 43.1745C48.3149 42.8379 48.8516 42.6696 49.5463 42.6696C50.2831 42.6696 50.8988 42.9221 51.3935 43.427C51.8882 43.932 52.2197 44.5842 52.3881 45.3838L48.4646 49.9785L45.9745 46.9432L45.962 46.9301C45.9305 46.8969 45.8997 46.8626 45.8695 46.8273L45.861 46.8175L45.3833 46.2865ZM48.5458 50.7905L50.683 53.2738C51.2724 53.9471 51.6882 54.4784 51.9303 54.8676C52.1723 55.2569 52.2934 55.704 52.2934 56.2089C52.2934 56.8612 52.0145 57.4082 51.4566 57.8501C50.8988 58.2919 50.0831 58.5128 49.0095 58.5128C48.9253 58.5128 48.8201 58.5076 48.6938 58.4971C48.5675 58.4865 48.4517 58.4813 48.3464 58.4813L45.8562 54.8941C45.8291 54.8423 45.8 54.7913 45.7689 54.7414C45.7235 54.6683 45.6719 54.5903 45.6143 54.5072L45.6496 54.4534C45.785 54.2477 45.9321 54.0527 46.1018 53.8588L46.1169 53.8408L48.5458 50.7905ZM44.3486 47.1551C44.3841 47.1968 44.4208 47.2375 44.4585 47.2774L47.0478 50.4334L44.5849 53.5263C44.3846 53.755 44.2245 53.9728 44.0908 54.176L44.0796 54.1575L40.5707 58.7022C40.4654 58.7022 40.3496 58.7075 40.2233 58.718C40.097 58.7285 39.9918 58.7338 39.9076 58.7338C38.834 58.7338 38.0183 58.5128 37.4605 58.071C36.9026 57.6292 36.6237 57.0821 36.6237 56.4299C36.6237 55.9249 36.7447 55.4778 36.9868 55.0886C37.2289 54.6993 37.6446 54.168 38.2341 53.4948L40.7601 50.5596L36.529 45.6047C36.6974 44.8052 37.0289 44.1529 37.5236 43.6479C38.0183 43.143 38.634 42.8905 39.3708 42.8905C40.0655 42.8905 40.6022 43.0588 40.9811 43.3955C41.3601 43.7321 41.7811 44.2055 42.2442 44.8157L44.3486 47.1551Z" fill="#399EFD"/>
<path opacity="0.3" d="M2.39471 64.6757V69.4324H1.69752V64.6757H0.181885V64.0091H3.91034V64.6757H2.39471ZM11.342 64.0091V64.6757H8.87151V66.3951H11.0995V67.0465H8.87151V68.7659H11.342V69.4324H8.17432V64.0091H11.342ZM18.2204 69.5536C17.4171 69.5536 16.7452 69.2835 16.2046 68.7432C15.6691 68.2029 15.4014 67.5287 15.4014 66.7208C15.4014 65.9128 15.6691 65.2412 16.2046 64.706C16.7402 64.1606 17.4121 63.8879 18.2204 63.8879C19.0389 63.8879 19.7032 64.1833 20.2135 64.7742L19.7133 65.2589C19.3243 64.7893 18.8267 64.5545 18.2204 64.5545C17.6192 64.5545 17.1166 64.7565 16.7124 65.1605C16.3133 65.5594 16.1137 66.0795 16.1137 66.7208C16.1137 67.3621 16.3133 67.8822 16.7124 68.2811C17.1166 68.6851 17.6192 68.8871 18.2204 68.8871C18.852 68.8871 19.4001 68.622 19.8649 68.0918L20.3726 68.5841C20.115 68.8921 19.7992 69.1307 19.4254 69.2999C19.0515 69.4691 18.6499 69.5536 18.2204 69.5536ZM25.4247 69.4324H24.7276V64.0091H25.4247V66.3345H28.1377V64.0091H28.8349V69.4324H28.1377V66.9859H25.4247V69.4324ZM34.1598 69.4324H33.4626V64.0091H34.3114L36.9486 68.2281H36.9789L36.9486 67.1828V64.0091H37.6458V69.4324H36.9183L34.1598 65.009H34.1295L34.1598 66.0542V69.4324ZM47.51 66.7208C47.51 67.5237 47.2423 68.1953 46.7067 68.7356C46.1662 69.281 45.5043 69.5536 44.7213 69.5536C43.9331 69.5536 43.2713 69.281 42.7358 68.7356C42.2003 68.1953 41.9325 67.5237 41.9325 66.7208C41.9325 65.9179 42.2003 65.2463 42.7358 64.706C43.2713 64.1606 43.9331 63.8879 44.7213 63.8879C45.5094 63.8879 46.1712 64.1631 46.7067 64.7136C47.2423 65.2539 47.51 65.9229 47.51 66.7208ZM42.6449 66.7208C42.6449 67.3469 42.8419 67.8645 43.236 68.2736C43.6351 68.6826 44.1302 68.8871 44.7213 68.8871C45.3124 68.8871 45.8049 68.6826 46.199 68.2736C46.5981 67.8696 46.7977 67.352 46.7977 66.7208C46.7977 66.0896 46.5981 65.572 46.199 65.168C45.8049 64.759 45.3124 64.5545 44.7213 64.5545C44.1302 64.5545 43.6351 64.759 43.236 65.168C42.8419 65.577 42.6449 66.0946 42.6449 66.7208ZM54.919 69.4324H51.8725V64.0091H52.5697V68.7659H54.919V69.4324ZM64.3815 66.7208C64.3815 67.5237 64.1138 68.1953 63.5783 68.7356C63.0377 69.281 62.3759 69.5536 61.5928 69.5536C60.8047 69.5536 60.1428 69.281 59.6073 68.7356C59.0718 68.1953 58.804 67.5237 58.804 66.7208C58.804 65.9179 59.0718 65.2463 59.6073 64.706C60.1428 64.1606 60.8047 63.8879 61.5928 63.8879C62.3809 63.8879 63.0427 64.1631 63.5783 64.7136C64.1138 65.2539 64.3815 65.9229 64.3815 66.7208ZM59.5164 66.7208C59.5164 67.3469 59.7134 67.8645 60.1075 68.2736C60.5066 68.6826 61.0017 68.8871 61.5928 68.8871C62.1839 68.8871 62.6765 68.6826 63.0705 68.2736C63.4696 67.8696 63.6692 67.352 63.6692 66.7208C63.6692 66.0896 63.4696 65.572 63.0705 65.168C62.6765 64.759 62.1839 64.5545 61.5928 64.5545C61.0017 64.5545 60.5066 64.759 60.1075 65.168C59.7134 65.577 59.5164 66.0946 59.5164 66.7208ZM73.8896 66.9404C73.8896 67.6979 73.6648 68.3013 73.2152 68.7507C72.7099 69.286 72.0456 69.5536 71.2221 69.5536C70.434 69.5536 69.7671 69.281 69.2215 68.7356C68.6758 68.1902 68.403 67.5186 68.403 66.7208C68.403 65.9229 68.6758 65.2513 69.2215 64.706C69.7671 64.1606 70.434 63.8879 71.2221 63.8879C71.6212 63.8879 71.9976 63.9586 72.3512 64.1C72.7049 64.2414 72.9954 64.4409 73.2227 64.6984L72.7226 65.1983C72.5559 64.9963 72.3399 64.8385 72.0746 64.7249C71.8094 64.6113 71.5252 64.5545 71.2221 64.5545C70.631 64.5545 70.1309 64.759 69.7216 65.168C69.3175 65.5821 69.1154 66.0997 69.1154 66.7208C69.1154 67.3419 69.3175 67.8595 69.7216 68.2736C70.1309 68.6826 70.631 68.8871 71.2221 68.8871C71.7627 68.8871 72.2123 68.7356 72.571 68.4326C72.9297 68.1296 73.1368 67.713 73.1924 67.1828H71.2221V66.5314H73.8517C73.877 66.6728 73.8896 66.8092 73.8896 66.9404ZM78.972 69.4324H78.2748V64.0091H78.972V69.4324ZM86.7674 64.0091V64.6757H84.297V66.3951H86.5249V67.0465H84.297V68.7659H86.7674V69.4324H83.5998V64.0091H86.7674ZM94.5932 67.9857C94.5932 68.4604 94.4189 68.8416 94.0703 69.1295C93.7166 69.4123 93.2872 69.5536 92.782 69.5536C92.3323 69.5536 91.9357 69.4224 91.5922 69.1598C91.2487 68.8972 91.0112 68.5387 90.8799 68.0842L91.5467 67.8115C91.5922 67.9731 91.6554 68.1195 91.7362 68.2508C91.817 68.3821 91.9118 68.4945 92.0204 68.5879C92.129 68.6813 92.249 68.7545 92.3803 68.8076C92.5117 68.8606 92.6506 68.8871 92.7971 68.8871C93.1154 68.8871 93.3756 68.805 93.5777 68.6409C93.7798 68.4768 93.8808 68.2584 93.8808 67.9857C93.8808 67.7585 93.7974 67.5641 93.6307 67.4025C93.4741 67.246 93.1811 67.0945 92.7517 66.948C92.3172 66.7915 92.0469 66.6854 91.9408 66.6299C91.3649 66.337 91.0769 65.9053 91.0769 65.3347C91.0769 64.9357 91.236 64.5949 91.5543 64.3121C91.8776 64.0293 92.2742 63.8879 92.7441 63.8879C93.1584 63.8879 93.5171 63.994 93.8202 64.2061C94.1233 64.4131 94.3254 64.6732 94.4264 64.9862L93.7747 65.2589C93.7141 65.0569 93.5941 64.889 93.4147 64.7552C93.2354 64.6214 93.0169 64.5545 92.7592 64.5545C92.4864 64.5545 92.2566 64.6302 92.0696 64.7817C91.8827 64.9231 91.7892 65.1074 91.7892 65.3347C91.7892 65.5215 91.8625 65.6831 92.009 65.8194C92.1707 65.9558 92.5218 66.1174 93.0624 66.3042C93.6131 66.491 94.0059 66.7195 94.2408 66.9897C94.4757 67.2598 94.5932 67.5919 94.5932 67.9857Z" fill="black"/>
</svg>
