<svg width="17" height="17" viewBox="0 0 17 17" fill="none" xmlns="http://www.w3.org/2000/svg">
<path d="M16.3574 12.4606L14.6028 11.0429C14.0085 10.5609 13.1595 10.5323 12.5369 10.9862L10.8672 12.2054C10.6408 12.3756 10.3298 12.3472 10.1314 12.1487L7.38628 9.65356L4.86759 6.87483C4.66949 6.67635 4.64119 6.36446 4.81099 6.13762L6.02788 4.46472C6.48068 3.84092 6.45238 2.99029 5.97128 2.39485L4.55629 0.636884C3.93369 -0.157036 2.74509 -0.213745 2.03759 0.495113L0.509399 2.02625C0.1698 2.3665 0 2.84852 0 3.30219C0.198099 6.90319 1.8395 10.3341 4.24499 12.7442C6.65048 15.1543 10.0465 16.7988 13.6689 16.9973C14.15 17.0257 14.6028 16.8269 14.9424 16.4867L16.4706 14.9558C17.2347 14.2753 17.1498 13.0844 16.3574 12.4606Z" fill="#399EFD"/>
</svg>
