<svg width="697" height="610" viewBox="0 0 697 610" fill="none" xmlns="http://www.w3.org/2000/svg">
<path d="M92.7364 555.388H21.6384V556.419H92.7364V555.388Z" fill="#ECECEC"/>
<path d="M118.497 555.388H107.162V556.419H118.497V555.388Z" fill="#ECECEC"/>
<path d="M307.061 562.601H152.5V563.632H307.061V562.601Z" fill="#ECECEC"/>
<path opacity="0.3" d="M328.898 467.848H9.36188C4.18821 467.848 0 463.659 0 458.486V9.36188C0 4.18821 4.18821 0 9.36188 0H328.898C334.071 0 338.259 4.18821 338.259 9.36188V458.486C338.259 463.659 334.071 467.848 328.898 467.848ZM9.36188 0.492731C4.43457 0.492731 0.246365 4.43458 0.246365 9.60825V458.732C0.246365 463.659 4.18821 467.848 9.36188 467.848H328.898C333.825 467.848 338.013 463.906 338.013 458.732V9.36188C338.013 4.43457 334.071 0.246365 328.898 0.246365H9.36188V0.492731Z" fill="#407BFF"/>
<path opacity="0.3" d="M686.866 467.848H367.331C362.157 467.848 357.969 463.659 357.969 458.486V9.36188C357.969 4.18821 362.157 0 367.331 0H686.866C692.04 0 696.228 4.18821 696.228 9.36188V458.486C696.228 463.659 692.04 467.848 686.866 467.848ZM367.331 0.492731C362.403 0.492731 358.215 4.43458 358.215 9.60825V458.732C358.215 463.659 362.157 467.848 367.331 467.848H686.866C691.794 467.848 695.982 463.906 695.982 458.732V9.36188C695.982 4.43457 692.04 0.246365 686.866 0.246365H367.331V0.492731Z" fill="#407BFF"/>
<path d="M603.595 155.703H559.003C544.96 155.703 533.381 144.37 533.381 130.081V85.4889C533.381 71.4461 544.713 59.8669 559.003 59.8669H603.595C617.638 59.8669 629.217 71.1997 629.217 85.4889V130.081C629.217 144.37 617.638 155.703 603.595 155.703Z" fill="#F0F0F0"/>
<path d="M593.247 94.3581C593.247 102.488 589.059 109.14 580.929 109.14C572.799 109.14 568.611 102.488 568.611 94.3581C568.611 86.228 572.799 79.5762 580.929 79.5762C589.059 79.8225 593.247 86.228 593.247 94.3581Z" fill="url(#paint0_linear_601_8635)"/>
<path d="M580.929 136.24H603.595V122.69C603.595 115.299 593.494 109.14 580.929 109.14C568.365 109.14 558.264 115.299 558.264 122.69V136.24H580.929Z" fill="url(#paint1_linear_601_8635)"/>
<path d="M185.02 158.906H153.978C144.123 158.906 136.24 151.022 136.24 141.168V110.126C136.24 100.271 144.123 92.3872 153.978 92.3872H185.02C194.875 92.3872 202.758 100.271 202.758 110.126V141.168C203.005 151.022 194.875 158.906 185.02 158.906Z" fill="#E6E6E6"/>
<path d="M168.267 129.096C169.006 127.864 170.238 126.632 171.716 125.4C172.948 124.415 173.687 123.429 174.18 122.937C174.673 122.198 174.919 121.459 174.919 120.473C174.919 119.241 174.426 118.256 173.441 117.517C172.455 116.778 171.224 116.531 169.499 116.531C168.021 116.531 166.543 116.778 165.311 117.517C164.079 118.256 163.094 118.995 162.108 120.227L155.949 116.531C157.427 114.314 159.152 112.589 161.615 111.604C164.079 110.372 166.789 109.879 170.238 109.879C174.18 109.879 177.136 110.618 179.6 112.343C181.817 114.068 183.049 116.285 183.049 119.241C183.049 120.719 182.803 121.951 182.31 122.937C181.817 123.922 181.325 124.908 180.586 125.647C179.846 126.386 179.107 127.125 178.122 128.11C176.89 129.342 175.905 130.081 175.412 130.82C174.919 131.56 174.673 132.545 174.673 133.53H167.035C167.035 131.806 167.528 130.328 168.267 129.096ZM167.528 144.863C166.543 143.878 166.05 142.892 166.05 141.661C166.05 140.429 166.543 139.197 167.528 138.458C168.514 137.719 169.499 137.226 170.977 137.226C172.455 137.226 173.441 137.719 174.426 138.458C175.412 139.197 175.905 140.429 175.905 141.661C175.905 142.892 175.412 144.124 174.426 144.863C173.441 145.849 172.455 146.095 170.977 146.095C169.499 146.095 168.267 145.849 167.528 144.863Z" fill="url(#paint2_linear_601_8635)"/>
<path d="M623.057 372.258H598.914C591.276 372.258 585.117 366.099 585.117 358.462V334.318C585.117 326.681 591.276 320.521 598.914 320.521H623.057C630.695 320.521 636.854 326.681 636.854 334.318V358.462C636.854 366.099 630.695 372.258 623.057 372.258Z" fill="#ECECEC"/>
<path d="M610 349.346C610.493 348.361 611.478 347.375 612.71 346.39C613.449 345.651 614.188 344.912 614.681 344.419C615.174 343.926 615.174 343.187 615.174 342.694C615.174 341.709 614.681 340.97 613.942 340.477C613.203 339.984 612.217 339.738 610.986 339.738C609.754 339.738 608.768 339.984 607.783 340.477C606.797 340.97 606.058 341.709 605.319 342.694L600.638 339.984C601.624 338.26 603.102 337.028 605.073 336.042C607.044 335.057 609.261 334.564 611.725 334.564C614.681 334.564 617.145 335.303 618.869 336.535C620.594 337.767 621.579 339.492 621.579 341.955C621.579 342.941 621.333 343.926 621.087 344.665C620.84 345.404 620.347 346.143 619.855 346.636C619.362 347.129 618.623 347.868 617.884 348.607C616.898 349.346 616.159 350.085 615.666 350.824C615.174 351.317 614.927 352.056 614.927 353.042H609.015C609.015 351.317 609.261 350.085 610 349.346ZM609.261 361.418C608.522 360.679 608.275 359.94 608.275 358.954C608.275 357.969 608.522 357.23 609.261 356.491C610 355.752 610.986 355.505 611.971 355.505C612.956 355.505 613.942 355.752 614.681 356.491C615.42 357.23 615.666 357.969 615.666 358.954C615.666 359.94 615.42 360.679 614.681 361.418C613.942 362.157 612.956 362.403 611.971 362.403C610.986 362.403 610 362.157 609.261 361.418Z" fill="url(#paint3_linear_601_8635)"/>
<path d="M128.356 259.177H97.0676C87.213 259.177 79.3293 251.293 79.3293 241.438V210.15C79.3293 200.295 87.213 192.412 97.0676 192.412H128.11C137.964 192.412 145.848 200.295 145.848 210.15V241.192C146.094 251.047 138.211 259.177 128.356 259.177Z" fill="#ECECEC"/>
<path d="M112.835 206.947C104.458 206.947 97.8066 213.599 97.8066 221.975C97.8066 230.351 104.458 250.307 112.835 250.307C121.211 250.307 127.863 230.351 127.863 221.975C127.863 213.599 120.965 206.947 112.835 206.947ZM112.835 226.41C110.371 226.41 108.4 224.439 108.4 221.975C108.4 219.511 110.371 217.54 112.835 217.54C115.299 217.54 117.269 219.511 117.269 221.975C117.269 224.439 115.299 226.41 112.835 226.41Z" fill="url(#paint4_linear_601_8635)"/>
<path d="M119.487 316.826C119.733 315.348 119.733 313.87 119.733 312.145C119.733 310.667 119.487 308.942 119.487 307.464L114.806 306.971C114.56 305.247 113.821 303.522 113.082 302.044L116.531 298.841C115.052 296.131 113.328 293.421 111.111 291.45L106.922 293.668C105.691 292.436 104.212 291.45 102.734 290.711L103.72 286.03C101.01 284.552 98.0532 283.567 94.8505 283.074L92.8796 287.262C92.1405 287.262 91.155 287.016 90.1695 287.016C89.1841 287.016 88.445 287.016 87.4595 287.262L85.4886 283.074C82.2859 283.567 79.3295 284.552 76.6195 286.03L77.6049 290.711C76.1267 291.697 74.6485 292.682 73.4167 293.668L69.2285 291.45C67.0112 293.668 65.2867 296.131 63.8085 298.841L67.2576 302.044C66.5185 303.522 66.0257 305.247 65.533 306.971L60.8521 307.464C60.6057 308.942 60.6057 310.421 60.6057 312.145C60.6057 313.623 60.8521 315.348 60.8521 316.826L65.533 317.319C65.7794 319.043 66.5185 320.768 67.2576 322.246L63.8085 325.449C65.2867 328.159 67.0112 330.869 69.2285 332.84L73.4167 330.622C74.6485 331.854 76.1267 332.84 77.6049 333.579L76.6195 338.26C79.3295 339.738 82.2859 340.723 85.4886 341.216L87.4595 337.028C88.1986 337.028 89.1841 337.274 90.1695 337.274C91.155 337.274 91.8941 337.274 92.8796 337.028L94.8505 341.216C98.0532 340.723 101.01 339.738 103.72 338.26L102.734 333.579C104.212 332.593 105.691 331.608 106.922 330.622L111.111 332.84C113.328 330.622 115.052 328.159 116.531 325.449L113.082 322.246C113.821 320.768 114.313 319.043 114.806 317.319L119.487 316.826ZM90.1695 322.492C84.5031 322.492 79.8222 317.811 79.8222 312.145C79.8222 306.479 84.5031 301.798 90.1695 301.798C95.8359 301.798 100.517 306.479 100.517 312.145C100.517 317.811 95.8359 322.492 90.1695 322.492Z" fill="#ECECEC"/>
<path d="M134.269 350.085C134.269 349.346 134.515 348.607 134.515 347.868C134.515 347.129 134.515 346.39 134.269 345.651L132.052 345.404C131.805 344.665 131.559 343.68 131.313 342.941L133.037 341.216C132.298 339.738 131.313 338.506 130.327 337.521L128.356 338.753C127.617 338.26 127.124 337.767 126.385 337.274L126.878 335.057C125.4 334.318 123.922 333.825 122.443 333.579L121.458 335.796C120.965 335.796 120.719 335.796 120.226 335.796C119.733 335.796 119.241 335.796 118.994 335.796L118.009 333.579C116.531 333.825 115.053 334.318 113.574 335.057L114.067 337.274C113.328 337.767 112.589 338.26 112.096 338.753L110.125 337.521C109.14 338.506 108.154 339.984 107.415 341.216L109.14 342.941C108.893 343.68 108.401 344.665 108.401 345.404L106.183 345.651C106.183 346.39 105.937 347.129 105.937 347.868C105.937 348.607 105.937 349.346 106.183 350.085L108.401 350.332C108.647 351.071 108.893 352.056 109.14 352.795L107.415 354.52C108.154 355.998 109.14 357.23 110.125 358.215L112.096 356.984C112.835 357.476 113.328 357.969 114.067 358.462L113.574 360.679C115.053 361.418 116.531 361.911 118.009 362.157L118.994 359.94C119.487 359.94 119.733 359.94 120.226 359.94C120.719 359.94 121.212 359.94 121.458 359.94L122.443 362.157C123.922 361.911 125.4 361.418 126.878 360.679L126.385 358.462C127.124 357.969 127.864 357.476 128.356 356.984L130.327 358.215C131.313 357.23 132.298 355.752 133.037 354.52L131.313 352.795C131.559 352.056 132.052 351.071 132.052 350.332L134.269 350.085ZM119.733 353.042C116.777 353.042 114.56 350.824 114.56 347.868C114.56 344.912 116.777 342.694 119.733 342.694C122.69 342.694 124.907 344.912 124.907 347.868C124.907 350.578 122.69 353.042 119.733 353.042Z" fill="#E1E1E1"/>
<path d="M645.477 316.826C646.216 316.333 646.708 315.841 647.201 315.348C647.694 314.855 648.187 314.116 648.679 313.623L647.201 311.652C647.694 310.913 648.187 310.174 648.433 309.435H650.897C651.389 307.957 651.636 306.479 651.636 304.754L649.418 304.015C649.418 303.276 649.172 302.29 648.926 301.551L650.897 300.32C650.404 298.841 649.665 297.363 648.679 296.131L646.462 296.87C646.216 296.624 645.969 296.131 645.477 295.885C644.984 295.639 644.737 295.392 644.491 294.899L645.23 292.682C643.998 291.697 642.52 290.958 641.042 290.465L639.81 292.436C639.071 292.189 638.086 292.189 637.347 291.943L636.607 289.726C635.129 289.726 633.405 289.972 631.926 290.465V292.929C631.187 293.175 630.448 293.668 629.709 294.16L627.738 292.682C626.999 293.175 626.506 293.668 626.014 294.16C625.521 294.653 625.028 295.392 624.535 295.885L626.014 297.856C625.521 298.595 625.028 299.334 624.782 300.073H622.318C621.825 301.551 621.579 303.03 621.579 304.754L623.796 305.493C623.796 306.232 624.043 307.218 624.289 307.957L622.318 309.189C622.811 310.667 623.55 312.145 624.535 313.377L626.753 312.638C626.999 312.884 627.246 313.377 627.738 313.623C627.985 313.87 628.477 314.116 628.724 314.609L627.985 316.826C629.216 317.811 630.695 318.551 632.173 319.043L633.405 317.072C634.144 317.319 635.129 317.319 635.868 317.565L636.607 319.782C638.086 319.782 639.81 319.536 641.288 319.043V316.58C642.027 316.333 642.767 315.841 643.506 315.348L645.477 316.826ZM633.158 308.45C631.187 306.479 631.187 303.276 633.158 301.059C635.129 299.088 638.332 299.088 640.549 301.059C642.52 303.03 642.52 306.232 640.549 308.45C638.332 310.421 635.129 310.421 633.158 308.45Z" fill="#F0F0F0"/>
<path d="M348.277 610C525.26 610 668.733 601.696 668.733 591.453C668.733 581.209 525.26 572.905 348.277 572.905C171.294 572.905 27.821 581.209 27.821 591.453C27.821 601.696 171.294 610 348.277 610Z" fill="url(#paint5_linear_601_8635)" fill-opacity="0.36"/>
<path d="M406.995 97.3143V71.446L419.56 69.7214V95.5898L406.995 97.3143Z" fill="#1A2E35"/>
<path d="M364.867 111.604L355.258 96.5754L363.388 90.6626L372.997 105.937L364.867 111.604Z" fill="#1A2E35"/>
<path d="M453.558 94.6045L463.166 76.6199L471.296 80.3153L461.688 98.0536L453.558 94.6045Z" fill="#1A2E35"/>
<g opacity="0.5">
<path d="M406.995 97.3143V71.446L419.56 69.7214V95.5898L406.995 97.3143Z" fill="white"/>
<path d="M364.867 111.604L355.258 96.5754L363.388 90.6626L372.997 105.937L364.867 111.604Z" fill="white"/>
<path d="M453.558 94.6045L463.166 76.6199L471.296 80.3153L461.688 98.0536L453.558 94.6045Z" fill="white"/>
</g>
<path d="M421.531 73.9097L405.271 76.1269C402.561 76.3733 400.59 74.6488 400.59 71.9387C400.59 69.2287 402.807 67.0114 405.271 66.5187L421.531 64.3014C424.241 64.0551 426.212 65.7796 426.212 68.4896C426.212 71.1996 423.995 73.4169 421.531 73.9097Z" fill="#1A2E35"/>
<path d="M366.099 90.4159L354.027 99.0387C352.795 100.024 351.317 99.7778 350.578 98.546C349.839 97.3141 350.331 95.8359 351.563 94.8505L363.635 86.2277C364.867 85.2422 366.345 85.4886 367.084 86.7204C367.577 87.9523 367.331 89.4305 366.099 90.4159Z" fill="#1A2E35"/>
<path d="M472.528 82.2861L460.456 77.1124C459.224 76.6196 458.732 75.1415 459.471 73.9096C460.21 72.6778 461.688 71.9387 462.92 72.4314L474.992 77.6051C476.224 78.0978 476.716 79.576 475.977 80.8079C475.238 82.286 473.76 82.7788 472.528 82.2861Z" fill="#1A2E35"/>
<path opacity="0.7" d="M421.531 73.9097L405.271 76.1269C402.561 76.3733 400.59 74.6488 400.59 71.9387C400.59 69.2287 402.807 67.0114 405.271 66.5187L421.531 64.3014C424.241 64.0551 426.212 65.7796 426.212 68.4896C426.212 71.1996 423.995 73.4169 421.531 73.9097Z" fill="white"/>
<path opacity="0.7" d="M366.099 90.4159L354.027 99.0387C352.795 100.024 351.317 99.7778 350.578 98.546C349.839 97.3141 350.331 95.8359 351.563 94.8505L363.635 86.2277C364.867 85.2422 366.345 85.4886 367.084 86.7204C367.577 87.9523 367.331 89.4305 366.099 90.4159Z" fill="white"/>
<path opacity="0.7" d="M472.528 82.2861L460.456 77.1124C459.224 76.6196 458.732 75.1415 459.471 73.9096C460.21 72.6778 461.688 71.9387 462.92 72.4314L474.992 77.6051C476.224 78.0978 476.716 79.576 475.977 80.8079C475.238 82.286 473.76 82.7788 472.528 82.2861Z" fill="white"/>
<path d="M413.155 258.683C369.055 264.843 333.332 234.293 333.332 190.194C333.332 146.094 369.055 105.444 413.155 99.2851C457.254 93.126 492.977 123.675 492.977 167.775L503.817 166.296C503.817 116.284 463.167 81.3004 413.155 88.445C363.142 95.5896 322.492 141.66 322.492 191.918C322.492 242.177 363.142 276.914 413.155 269.77V258.683Z" fill="#407BFF"/>
<path d="M381.482 235.407L375.564 246.49L377.954 247.766L383.872 236.683L381.482 235.407Z" fill="#1A2E35"/>
<path d="M448.495 109.972L442.577 121.055L444.968 122.332L450.886 111.248L448.495 109.972Z" fill="#1A2E35"/>
<path d="M350.609 149.919L349.525 152.402L359.91 156.939L360.995 154.455L350.609 149.919Z" fill="#1A2E35"/>
<path d="M377.921 120.137L375.626 121.579L381.524 130.965L383.819 129.524L377.921 120.137Z" fill="#1A2E35"/>
<path d="M359.735 215.795L349.326 223.263L350.906 225.465L361.315 217.997L359.735 215.795Z" fill="#1A2E35"/>
<path d="M475.774 132.48L465.365 139.949L466.945 142.151L477.354 134.682L475.774 132.48Z" fill="#1A2E35"/>
<path d="M355.796 184.187L339.938 186.417L340.658 191.54L356.517 189.311L355.796 184.187Z" fill="#1A2E35"/>
<path d="M415.865 105.937H410.691V121.704H415.865V105.937Z" fill="#1A2E35"/>
<path d="M415.865 236.018H410.691V251.785H415.865V236.018Z" fill="#1A2E35"/>
<path d="M392.706 161.616C391.475 163.094 391.475 165.065 392.706 166.297L410.445 181.571L415.126 176.151L397.387 160.877C396.155 159.891 393.938 160.138 392.706 161.616Z" fill="#407BFF"/>
<path opacity="0.4" d="M392.706 161.616C391.475 163.094 391.475 165.065 392.706 166.297L410.445 181.571L415.126 176.151L397.387 160.877C396.155 159.891 393.938 160.138 392.706 161.616Z" fill="white"/>
<path d="M511.701 163.833L498.397 181.571L485.093 167.528L511.701 163.833Z" fill="#407BFF"/>
<path d="M447.892 243.655L468.587 240.699L466.862 250.307L429.661 255.481L431.139 247.843L453.559 227.149C456.269 224.685 458.24 222.468 459.225 220.743C460.21 219.019 460.703 217.541 460.703 215.816C460.703 214.091 459.964 212.86 458.732 212.121C457.5 211.381 455.776 211.135 453.312 211.381C451.341 211.628 449.37 212.367 447.646 213.599C445.921 214.831 444.197 216.309 442.965 218.033L435.328 213.599C437.298 210.642 440.009 207.932 443.704 205.961C447.153 203.744 451.095 202.512 455.283 202.02C458.732 201.527 461.689 201.773 464.399 202.512C467.109 203.251 469.08 204.483 470.558 206.454C472.036 208.179 472.775 210.396 472.775 212.86C472.775 215.816 472.036 218.772 470.311 221.729C468.587 224.685 465.63 227.888 461.442 231.83L447.892 243.655Z" fill="#1A2E35"/>
<path d="M517.86 232.815L509.73 234.047L507.759 244.64L496.672 246.119L498.89 235.525L472.282 239.22L473.76 231.337L502.585 196.106L515.15 194.382L488.05 227.888L501.107 226.163L502.832 216.801L513.425 215.323L511.701 224.685L519.831 223.453L517.86 232.815Z" fill="#1A2E35"/>
<path d="M550.38 179.354L560.727 177.875L524.512 249.321L514.411 250.8L550.38 179.354Z" fill="#1A2E35"/>
<path d="M597.189 182.803L595.711 190.44L569.35 236.018L556.785 237.742L581.915 194.136L565.901 196.353L564.176 204.483L554.075 205.961L557.525 188.223L597.189 182.803Z" fill="#1A2E35"/>
<path d="M435.081 304.507C433.11 304.261 431.632 303.768 430.647 303.029L433.11 298.102C434.342 298.841 435.574 299.334 437.052 299.58C438.53 299.826 440.009 299.826 441.487 299.58C443.211 299.334 444.443 298.841 445.429 298.348C446.414 297.609 446.907 296.87 446.907 295.885C446.907 295.145 446.414 294.653 445.675 294.406C444.936 294.16 443.704 293.914 441.98 293.667C440.255 293.421 439.023 293.175 437.791 292.928C436.806 292.682 435.82 292.189 435.081 291.204C434.342 290.465 433.849 289.233 433.849 287.755C433.849 286.03 434.342 284.305 435.328 283.074C436.313 281.595 437.545 280.364 439.516 279.378C441.24 278.393 443.458 277.654 445.675 277.407C447.4 277.161 449.124 277.161 450.602 277.407C452.08 277.654 453.559 277.9 454.544 278.393L452.327 283.32C451.341 282.827 450.356 282.334 449.124 282.334C447.892 282.088 446.66 282.088 445.429 282.334C443.704 282.581 442.472 283.074 441.487 283.813C440.501 284.552 440.009 285.291 440.009 286.276C440.009 286.769 440.255 287.262 440.748 287.508C441.24 287.755 441.733 288.001 442.226 288.247C442.965 288.494 443.704 288.494 444.936 288.74C446.66 288.986 447.892 289.233 448.878 289.479C449.863 289.725 450.849 290.218 451.588 291.204C452.327 291.943 452.82 293.175 452.82 294.406C452.82 296.131 452.327 297.856 451.341 299.334C450.356 300.812 448.878 302.044 447.153 303.029C445.429 304.015 443.211 304.754 440.994 305C438.777 304.754 437.052 304.754 435.081 304.507Z" fill="#1A2E35"/>
<path d="M465.384 279.871L464.399 285.538L476.224 283.813L475.239 288.494L463.167 290.218L461.935 296.378L475.978 294.407L474.992 299.334L455.037 302.044L460.211 275.683L479.673 272.973L478.688 277.9L465.384 279.871Z" fill="#1A2E35"/>
<path d="M503.817 283.812C502.585 285.783 500.614 287.262 498.397 288.247L502.832 295.638L496.673 296.623L492.731 289.972L487.557 290.711L486.079 298.102L480.166 298.841L485.34 272.48L495.687 271.001C498.89 270.509 501.353 271.001 503.078 271.987C504.803 273.219 505.788 274.943 505.788 277.407C505.542 279.624 505.049 281.841 503.817 283.812ZM497.904 282.827C498.89 281.841 499.629 280.363 499.629 278.639C499.629 277.407 499.136 276.668 498.397 276.175C497.658 275.682 496.426 275.436 494.948 275.682L490.267 276.421L488.542 285.537L493.716 284.798C495.441 284.551 496.919 283.812 497.904 282.827Z" fill="#1A2E35"/>
<path d="M536.83 264.843L520.57 292.928L514.657 293.667L508.744 268.784L514.903 268.045L519.091 285.784L530.671 265.828L536.83 264.843Z" fill="#1A2E35"/>
<path d="M539.047 264.596L544.96 263.857L539.787 290.218L533.874 290.957L539.047 264.596Z" fill="#1A2E35"/>
<path d="M552.597 287.508C550.626 286.769 549.148 285.783 548.163 284.305C547.177 282.827 546.685 280.856 546.685 278.639C546.685 275.683 547.424 272.972 548.655 270.509C549.887 268.045 551.858 265.828 554.322 264.103C556.786 262.379 559.496 261.393 562.698 260.901C564.916 260.654 567.133 260.654 568.857 261.147C570.582 261.64 572.06 262.625 572.799 263.857L568.611 268.045C567.133 266.321 565.162 265.582 562.452 265.828C560.481 266.074 559.003 266.813 557.525 267.799C556.046 268.784 555.061 270.262 554.076 271.987C553.336 273.712 552.844 275.436 552.844 277.161C552.844 279.132 553.583 280.61 554.815 281.595C556.046 282.581 557.771 282.827 560.235 282.581C562.945 282.088 565.162 280.856 567.133 278.639L570.582 281.842C568.118 285.044 564.423 287.262 559.742 287.754C556.786 288.247 554.568 288.247 552.597 287.508Z" fill="#1A2E35"/>
<path d="M582.9 263.364L581.915 269.03L593.74 267.306L592.755 271.987L580.683 273.711L579.451 279.871L593.494 277.9L592.509 282.827L572.553 285.537L577.727 259.176L597.19 256.466L596.204 261.393L582.9 263.364Z" fill="#1A2E35"/>
<path d="M443.458 143.878C442.226 142.892 440.009 143.139 438.777 144.617L414.633 171.963C412.169 171.471 409.706 172.456 407.735 174.673C405.025 177.876 405.025 182.311 407.735 184.528C410.445 186.992 414.879 186.252 417.589 183.05C419.56 180.832 420.053 178.122 419.314 175.905L443.458 148.559C444.689 147.08 444.689 145.109 443.458 143.878Z" fill="#407BFF"/>
<path d="M259.669 148.066C241.931 148.066 227.642 158.413 227.642 171.47C227.642 180.832 235.279 188.962 246.119 192.658C244.887 198.078 242.916 203.251 240.206 207.932C248.336 206.701 255.481 201.773 259.423 194.875H259.669C277.407 194.875 291.697 184.528 291.697 171.47C291.45 158.659 277.161 148.066 259.669 148.066Z" fill="#407BFF"/>
<path opacity="0.7" d="M259.669 148.066C241.931 148.066 227.642 158.413 227.642 171.47C227.642 180.832 235.279 188.962 246.119 192.658C244.887 198.078 242.916 203.251 240.206 207.932C248.336 206.701 255.481 201.773 259.423 194.875H259.669C277.407 194.875 291.697 184.528 291.697 171.47C291.45 158.659 277.161 148.066 259.669 148.066Z" fill="white"/>
<path d="M245.38 175.905C247.149 175.905 248.583 174.471 248.583 172.702C248.583 170.933 247.149 169.499 245.38 169.499C243.611 169.499 242.177 170.933 242.177 172.702C242.177 174.471 243.611 175.905 245.38 175.905Z" fill="#1A2E35"/>
<path d="M262.625 172.702C262.625 174.427 261.147 175.905 259.422 175.905C257.698 175.905 256.22 174.427 256.22 172.702C256.22 170.977 257.698 169.499 259.422 169.499C261.147 169.499 262.625 170.731 262.625 172.702Z" fill="#1A2E35"/>
<path d="M273.219 175.905C274.988 175.905 276.422 174.471 276.422 172.702C276.422 170.933 274.988 169.499 273.219 169.499C271.451 169.499 270.017 170.933 270.017 172.702C270.017 174.471 271.451 175.905 273.219 175.905Z" fill="#1A2E35"/>
<path d="M212.12 434.588H201.28V506.034H212.12V434.588Z" fill="#1A2E35"/>
<path opacity="0.5" d="M212.12 434.588H201.28V506.034H212.12V434.588Z" fill="white"/>
<path d="M239.713 559.495L214.338 554.814V503.816C214.338 502.338 213.106 500.86 211.381 500.86H202.019C200.541 500.86 199.063 502.091 199.063 503.816V554.814L173.687 559.495C169.992 560.234 167.282 563.436 167.282 567.132L206.7 563.683L246.119 567.132C246.119 563.436 243.409 560.234 239.713 559.495Z" fill="#1A2E35"/>
<path d="M175.658 574.77C175.658 579.45 171.963 583.146 167.282 583.146C162.601 583.146 158.906 579.45 158.906 574.77C158.906 570.089 162.601 566.393 167.282 566.393C171.963 566.639 175.658 570.335 175.658 574.77Z" fill="#407BFF"/>
<path d="M254.495 574.77C254.495 579.45 250.8 583.146 246.119 583.146C241.438 583.146 237.742 579.45 237.742 574.77C237.742 570.089 241.438 566.393 246.119 566.393C250.8 566.393 254.495 570.335 254.495 574.77Z" fill="#407BFF"/>
<path d="M213.352 574.77C213.352 579.45 211.381 583.146 206.947 583.146C202.266 583.146 200.541 579.45 200.541 574.77C200.541 570.089 202.512 566.393 206.947 566.393C211.381 566.639 213.352 570.335 213.352 574.77Z" fill="#407BFF"/>
<g opacity="0.5">
<path d="M214.584 555.06V564.422L217.787 564.668V555.553L214.584 555.06Z" fill="black"/>
<path d="M195.86 555.553V564.668L199.063 564.176V555.06L195.86 555.553Z" fill="black"/>
</g>
<path d="M135.747 369.548C132.791 369.548 130.574 372.258 131.066 374.968L141.167 429.415C142.153 434.588 146.587 438.284 151.761 438.284H201.28H261.394H310.913C314.855 438.284 318.058 435.081 318.058 431.139C318.058 425.473 313.623 421.038 307.957 421.038H258.437H217.294C212.367 421.038 207.932 417.589 206.947 412.908L198.817 380.142C197.339 373.982 191.672 369.794 185.513 369.794H135.747V369.548Z" fill="#1A2E35"/>
<path d="M157.181 412.662L149.051 379.895C147.573 373.736 141.906 369.548 135.747 369.548C132.791 369.548 130.574 372.258 131.066 374.968L141.167 429.415C142.153 434.588 146.587 438.284 151.761 438.284H261.394C265.335 438.284 268.538 435.081 268.538 431.139C268.538 425.473 264.104 421.038 258.437 421.038H167.775C162.847 421.038 158.413 417.589 157.181 412.662Z" fill="#1A2E35"/>
<path opacity="0.2" d="M157.181 412.662L149.051 379.895C147.573 373.736 141.906 369.548 135.747 369.548C132.791 369.548 130.574 372.258 131.066 374.968L141.167 429.415C142.153 434.588 146.587 438.284 151.761 438.284H261.394C265.335 438.284 268.538 435.081 268.538 431.139C268.538 425.473 264.104 421.038 258.437 421.038H167.775C162.847 421.038 158.413 417.589 157.181 412.662Z" fill="white"/>
<path d="M549.887 504.803C549.887 504.803 550.133 482.63 542.003 485.586C534.119 488.542 549.887 504.803 549.887 504.803Z" fill="#407BFF"/>
<path d="M558.51 484.355C558.51 484.355 569.103 466.616 559.495 464.153C549.887 461.689 558.51 484.355 558.51 484.355Z" fill="#407BFF"/>
<path d="M600.638 471.79C600.638 471.79 622.811 470.558 617.637 462.428C612.71 454.052 600.638 471.79 600.638 471.79Z" fill="#407BFF"/>
<path d="M565.654 477.703C565.654 477.703 588.813 472.529 584.378 485.586C580.19 498.397 565.654 477.703 565.654 477.703Z" fill="#407BFF"/>
<path d="M548.901 524.758C548.901 524.758 540.032 504.803 535.105 511.947C529.931 518.846 548.901 524.758 548.901 524.758Z" fill="#407BFF"/>
<path d="M574.031 473.514C574.031 473.514 597.682 467.355 590.291 458.732C582.9 449.863 574.031 473.514 574.031 473.514Z" fill="#407BFF"/>
<path d="M592.015 471.051C592.015 471.051 610.739 480.166 602.116 486.079C593.494 492.238 592.015 471.051 592.015 471.051Z" fill="#407BFF"/>
<path d="M552.351 495.933C552.351 495.933 565.162 480.412 569.35 491.745C573.292 502.831 552.351 495.933 552.351 495.933Z" fill="#407BFF"/>
<g opacity="0.4">
<path d="M548.901 524.758C548.901 524.758 540.032 504.803 535.105 511.947C529.931 518.846 548.901 524.758 548.901 524.758Z" fill="white"/>
<path d="M574.031 473.514C574.031 473.514 597.682 467.355 590.291 458.732C582.9 449.863 574.031 473.514 574.031 473.514Z" fill="white"/>
<path d="M592.015 471.051C592.015 471.051 610.739 480.166 602.116 486.079C593.494 492.238 592.015 471.051 592.015 471.051Z" fill="white"/>
<path d="M552.351 495.933C552.351 495.933 565.162 480.412 569.35 491.745C573.292 502.831 552.351 495.933 552.351 495.933Z" fill="white"/>
</g>
<path d="M548.655 516.135C548.655 516.135 558.017 496.179 565.408 506.28C573.045 516.135 548.655 516.135 548.655 516.135Z" fill="#407BFF"/>
<path d="M548.901 536.83C546.191 524.265 546.438 509.976 550.133 497.658C557.771 472.775 580.929 467.109 604.334 470.804C606.305 471.051 605.319 474.007 603.595 473.514C591.03 471.543 576.987 471.297 566.147 478.934C558.263 484.354 554.075 492.977 551.858 502.093C549.394 512.933 549.394 525.005 551.611 536.091C552.104 538.062 549.394 538.801 548.901 536.83Z" fill="#407BFF"/>
<g opacity="0.3">
<path d="M548.901 536.83C546.191 524.265 546.438 509.976 550.133 497.658C557.771 472.775 580.929 467.109 604.334 470.804C606.305 471.051 605.319 474.007 603.595 473.514C591.03 471.543 576.987 471.297 566.147 478.934C558.263 484.354 554.075 492.977 551.858 502.093C549.394 512.933 549.394 525.005 551.611 536.091C552.104 538.062 549.394 538.801 548.901 536.83Z" fill="black"/>
</g>
<path d="M530.424 498.15C530.424 498.15 518.845 471.05 511.208 478.195C503.817 485.093 530.424 498.15 530.424 498.15Z" fill="#407BFF"/>
<path d="M529.439 469.326C529.439 469.326 532.149 443.211 519.831 444.197C507.512 445.428 529.439 469.326 529.439 469.326Z" fill="#407BFF"/>
<path d="M570.828 435.82C570.828 435.82 595.465 424.734 585.364 416.85C575.263 408.966 570.828 435.82 570.828 435.82Z" fill="#407BFF"/>
<path d="M534.12 458.239C534.12 458.239 557.771 441.733 559.742 459.471C561.466 477.209 534.12 458.239 534.12 458.239Z" fill="#407BFF"/>
<path d="M539.786 522.787C539.786 522.787 518.845 502.338 517.12 513.178C515.395 524.019 539.786 522.787 539.786 522.787Z" fill="#407BFF"/>
<path d="M541.51 449.37C541.51 449.37 565.161 431.631 552.104 424.24C539.046 416.85 541.51 449.37 541.51 449.37Z" fill="#407BFF"/>
<path d="M560.48 438.776C560.48 438.776 586.595 441.732 579.943 452.819C573.291 463.905 560.48 438.776 560.48 438.776Z" fill="#407BFF"/>
<path d="M528.453 486.078C528.453 486.078 534.858 461.442 545.452 473.513C556.046 485.585 528.453 486.078 528.453 486.078Z" fill="#407BFF"/>
<g opacity="0.4">
<path d="M539.786 522.787C539.786 522.787 518.845 502.338 517.12 513.178C515.395 524.019 539.786 522.787 539.786 522.787Z" fill="white"/>
<path d="M541.51 449.37C541.51 449.37 565.161 431.631 552.104 424.24C539.046 416.85 541.51 449.37 541.51 449.37Z" fill="white"/>
<path d="M560.48 438.776C560.48 438.776 586.595 441.732 579.943 452.819C573.291 463.905 560.48 438.776 560.48 438.776Z" fill="white"/>
<path d="M528.453 486.078C528.453 486.078 534.858 461.442 545.452 473.513C556.046 485.585 528.453 486.078 528.453 486.078Z" fill="white"/>
</g>
<path d="M535.105 512.193C535.105 512.193 535.105 483.861 548.901 492.977C562.698 502.092 535.105 512.193 535.105 512.193Z" fill="#407BFF"/>
<path d="M546.438 537.569C536.83 523.28 529.192 506.034 526.975 489.528C522.541 456.022 545.699 438.776 574.524 433.11C576.741 432.617 577.234 436.559 575.016 436.805C559.742 439.762 543.728 445.675 535.352 459.717C529.439 469.818 528.946 482.137 531.41 494.209C534.366 508.498 540.772 523.28 549.148 535.598C550.626 537.569 547.916 539.786 546.438 537.569Z" fill="#407BFF"/>
<g opacity="0.3">
<path d="M546.438 537.569C536.83 523.28 529.192 506.034 526.975 489.528C522.541 456.022 545.699 438.776 574.524 433.11C576.741 432.617 577.234 436.559 575.016 436.805C559.742 439.762 543.728 445.675 535.352 459.717C529.439 469.818 528.946 482.137 531.41 494.209C534.366 508.498 540.772 523.28 549.148 535.598C550.626 537.569 547.916 539.786 546.438 537.569Z" fill="black"/>
</g>
<path d="M527.714 505.049C527.714 505.049 533.134 486.818 539.047 491.253C544.96 495.687 527.714 505.049 527.714 505.049Z" fill="#407BFF"/>
<path d="M525.743 486.079C525.743 486.079 521.555 468.833 530.178 469.08C538.801 469.572 525.743 486.079 525.743 486.079Z" fill="#407BFF"/>
<path d="M494.209 464.891C494.209 464.891 476.224 458.24 482.383 452.82C488.789 447.153 494.209 464.891 494.209 464.891Z" fill="#407BFF"/>
<path d="M521.555 478.688C521.555 478.688 503.817 468.34 504.063 480.166C504.309 492.238 521.555 478.688 521.555 478.688Z" fill="#407BFF"/>
<path d="M523.526 522.048C523.526 522.048 536.091 507.759 538.308 514.904C540.525 522.048 523.526 522.048 523.526 522.048Z" fill="#407BFF"/>
<path d="M515.642 473.021C515.642 473.021 497.658 461.935 506.034 456.515C514.411 451.341 515.642 473.021 515.642 473.021Z" fill="#407BFF"/>
<path d="M501.6 466.616C501.6 466.616 483.861 469.326 489.281 476.471C494.948 483.615 501.6 466.616 501.6 466.616Z" fill="#407BFF"/>
<path d="M527.961 497.165C527.961 497.165 521.309 480.905 515.15 489.282C508.991 497.658 527.961 497.165 527.961 497.165Z" fill="#407BFF"/>
<g opacity="0.4">
<path d="M523.526 522.048C523.526 522.048 536.091 507.759 538.308 514.904C540.525 522.048 523.526 522.048 523.526 522.048Z" fill="white"/>
<path d="M515.642 473.021C515.642 473.021 497.658 461.935 506.034 456.515C514.411 451.341 515.642 473.021 515.642 473.021Z" fill="white"/>
<path d="M501.6 466.616C501.6 466.616 483.861 469.326 489.281 476.471C494.948 483.615 501.6 466.616 501.6 466.616Z" fill="white"/>
<path d="M527.961 497.165C527.961 497.165 521.309 480.905 515.15 489.282C508.991 497.658 527.961 497.165 527.961 497.165Z" fill="white"/>
</g>
<path d="M525.743 514.904C525.743 514.904 523.28 496.18 514.411 502.339C505.788 508.744 525.743 514.904 525.743 514.904Z" fill="#407BFF"/>
<path d="M520.323 531.903C525.744 522.294 529.439 510.469 529.439 499.382C529.439 476.963 511.947 466.123 491.499 463.167C489.774 462.92 489.774 465.384 491.499 465.63C502.339 467.109 513.918 470.558 521.063 479.673C525.99 486.079 527.468 494.455 526.975 502.585C526.236 512.193 523.033 522.294 518.353 530.671C517.367 532.149 519.584 533.381 520.323 531.903Z" fill="#407BFF"/>
<g opacity="0.3">
<path d="M520.323 531.903C525.744 522.294 529.439 510.469 529.439 499.382C529.439 476.963 511.947 466.123 491.499 463.167C489.774 462.92 489.774 465.384 491.499 465.63C502.339 467.109 513.918 470.558 521.063 479.673C525.99 486.079 527.468 494.455 526.975 502.585C526.236 512.193 523.033 522.294 518.353 530.671C517.367 532.149 519.584 533.381 520.323 531.903Z" fill="black"/>
</g>
<path d="M571.814 527.468L565.408 575.756C564.669 581.915 559.249 586.596 553.09 586.596H513.179C507.019 586.596 501.599 581.915 500.86 575.756L494.455 527.468H571.814Z" fill="#407BFF"/>
<path opacity="0.3" d="M571.814 527.468L565.408 575.756C564.669 581.915 559.249 586.596 553.09 586.596H513.179C507.019 586.596 501.599 581.915 500.86 575.756L494.455 527.468H571.814Z" fill="white"/>
<path d="M224.438 213.845C224.438 213.845 242.423 219.265 234.047 232.569L226.163 221.236L224.438 213.845Z" fill="#1A2E35"/>
<path d="M289.725 282.827L297.609 271.248L305.493 273.712L306.725 276.914L297.116 290.957L289.725 282.827Z" fill="#E9B276"/>
<path d="M301.305 286.03C293.421 298.349 280.856 316.58 276.175 315.594C262.132 312.391 242.916 299.334 233.061 284.552C229.859 280.117 230.844 273.712 235.032 270.263C239.467 266.567 246.119 267.306 249.814 271.741C250.061 271.987 250.061 272.234 250.307 272.48C259.176 285.045 270.262 296.87 271.987 297.856C274.204 299.088 279.624 293.914 291.45 279.132L301.305 286.03Z" fill="#407BFF"/>
<path d="M301.305 286.03C293.421 298.349 280.856 316.58 276.175 315.594C262.132 312.391 242.916 299.334 233.061 284.552C229.859 280.117 230.844 273.712 235.032 270.263C239.467 266.567 246.119 267.306 249.814 271.741C250.061 271.987 250.061 272.234 250.307 272.48C259.176 285.045 270.262 296.87 271.987 297.856C274.204 299.088 279.624 293.914 291.45 279.132L301.305 286.03Z" fill="#399EFD"/>
<path d="M301.551 275.929L317.072 278.886L309.681 265.828C309.681 265.828 300.319 265.828 297.363 271.248L301.551 275.929Z" fill="#E9B276"/>
<path opacity="0.2" d="M256.22 306.232C244.887 298.595 243.409 280.364 243.409 280.364L237.003 277.407L234.047 285.537C239.713 293.421 247.843 300.812 256.22 306.232Z" fill="black"/>
<path d="M328.159 273.466L321.507 262.625L309.927 265.828L317.318 278.886L328.159 273.466Z" fill="#E9B276"/>
<path d="M241.438 346.143L186.005 349.838C186.005 349.838 185.513 335.056 183.788 321.26C183.295 316.579 182.31 311.652 180.832 307.217C179.354 302.536 177.629 297.116 175.412 290.957C175.165 290.218 174.919 289.479 174.426 288.74C173.687 286.769 172.948 284.798 172.209 282.827C170.731 278.639 172.702 273.958 176.89 272.233C177.383 271.987 177.629 271.987 178.122 271.987C181.571 271.248 185.266 270.509 188.715 270.016L191.918 269.523C200.295 268.291 208.671 267.552 217.047 267.306C221.482 267.306 225.917 267.552 230.105 267.552L233.308 267.799C237.496 268.045 240.452 268.291 240.452 268.291C240.452 268.291 242.177 268.538 243.409 278.392C243.409 278.885 243.409 279.378 243.655 279.871C243.901 281.841 243.901 284.551 243.901 287.508C243.901 299.58 243.162 320.521 241.438 346.143Z" fill="#407BFF"/>
<path d="M241.438 346.143L186.005 349.838C186.005 349.838 185.513 335.056 183.788 321.26C183.295 316.579 182.31 311.652 180.832 307.217C179.354 302.536 177.629 297.116 175.412 290.957C175.165 290.218 174.919 289.479 174.426 288.74C173.687 286.769 172.948 284.798 172.209 282.827C170.731 278.639 172.702 273.958 176.89 272.233C177.383 271.987 177.629 271.987 178.122 271.987C181.571 271.248 185.266 270.509 188.715 270.016L191.918 269.523C200.295 268.291 208.671 267.552 217.047 267.306C221.482 267.306 225.917 267.552 230.105 267.552L233.308 267.799C237.496 268.045 240.452 268.291 240.452 268.291C240.452 268.291 242.177 268.538 243.409 278.392C243.409 278.885 243.409 279.378 243.655 279.871C243.901 281.841 243.901 284.551 243.901 287.508C243.901 299.58 243.162 320.521 241.438 346.143Z" fill="#399EFD"/>
<path d="M193.889 268.785L207.686 287.262L217.54 278.886L230.351 285.045L223.453 267.06C221.236 267.06 219.018 267.06 217.047 267.06C209.164 267.06 201.526 267.553 193.889 268.785Z" fill="#407BFF"/>
<path opacity="0.9" d="M193.889 268.785L207.686 287.262L217.54 278.886L230.351 285.045L223.453 267.06C221.236 267.06 219.018 267.06 217.047 267.06C209.164 267.06 201.526 267.553 193.889 268.785Z" fill="white"/>
<path d="M316.333 568.611H304.507L309.927 479.427H331.854L316.333 568.611Z" fill="#E9B276"/>
<path d="M303.029 567.379C302.783 566.148 317.072 565.162 317.072 565.162C317.072 565.162 326.926 572.799 335.549 573.539C344.172 574.278 340.23 579.944 330.868 581.176L307.71 584.379C301.058 585.364 304.507 579.205 303.029 567.379Z" fill="#1A2E35"/>
<path d="M324.217 567.872C322.492 567.872 320.768 567.379 319.043 566.887H318.797V566.64C318.797 566.394 319.536 562.945 321.26 561.959C321.753 561.713 322.492 561.467 322.985 561.713C323.97 561.959 324.217 562.452 324.217 562.945C324.217 563.684 323.478 564.423 322.492 565.162C323.478 564.916 324.463 564.916 325.449 565.162C325.941 565.408 326.188 565.655 326.434 566.147C326.68 566.64 326.68 567.379 326.188 567.872C325.695 567.872 324.956 567.872 324.217 567.872ZM320.275 566.394C322.492 566.887 324.956 567.379 325.449 566.64C325.695 566.394 325.449 566.394 325.449 565.901C325.449 565.655 325.202 565.655 324.956 565.408C323.478 565.408 321.753 565.655 320.275 566.394ZM322.246 562.206C321.999 562.206 321.753 562.206 321.507 562.452C320.521 563.191 319.782 564.423 319.536 565.655C321.26 564.669 323.231 563.191 323.231 562.698C323.231 562.698 322.985 562.452 322.738 562.452C322.738 562.206 322.492 562.206 322.246 562.206Z" fill="#407BFF"/>
<path opacity="0.2" d="M308.942 494.948L329.144 495.687L331.854 479.427H309.927L308.942 494.948Z" fill="black"/>
<path d="M259.669 570.089L248.336 568.611L266.321 469.819L288.493 476.224L259.669 570.089Z" fill="#E9B276"/>
<path d="M246.858 566.887C246.858 565.655 260.901 566.887 260.901 566.887C260.901 566.887 269.523 575.756 277.9 577.727C286.276 579.698 281.595 584.871 272.233 584.625L249.075 584.378C242.177 584.378 246.365 578.712 246.858 566.887Z" fill="#1A2E35"/>
<path d="M268.292 570.582C266.321 570.335 264.35 569.596 262.379 568.857H262.133C262.133 568.857 262.133 568.857 262.133 568.611V568.364C262.133 568.118 263.364 564.915 265.335 564.176C265.828 563.93 266.567 563.93 267.06 564.176C267.799 564.669 268.045 565.162 268.045 565.408C268.045 566.147 267.06 566.886 266.074 567.379C267.06 567.379 268.045 567.379 269.031 567.872C269.524 568.118 269.77 568.364 269.77 568.857C270.016 569.35 269.77 570.089 269.277 570.335C269.277 570.582 268.784 570.582 268.292 570.582ZM263.857 568.611C265.828 569.35 268.292 570.335 268.784 569.596C269.031 569.596 269.031 569.35 268.784 568.857C268.784 568.611 268.538 568.611 268.538 568.364C267.06 568.118 265.582 568.118 263.857 568.611ZM266.321 564.669C266.074 564.669 266.074 564.669 265.828 564.669C264.843 565.408 263.857 566.394 263.364 567.379C265.335 566.64 267.306 565.654 267.306 564.915C267.306 564.915 267.06 564.669 266.814 564.423C266.814 564.669 266.567 564.669 266.321 564.669Z" fill="#407BFF"/>
<path opacity="0.2" d="M288.493 476.224L266.32 469.819L262.625 489.281L283.32 492.977L288.493 476.224Z" fill="black"/>
<path d="M304.015 487.064L332.347 488.542C339.491 455.037 346.882 418.328 345.404 410.198C342.694 394.677 321.506 378.91 239.96 365.606L201.773 422.763C201.773 422.763 257.451 420.053 308.203 420.053C308.203 420.053 305.246 451.834 304.015 487.064Z" fill="#407BFF"/>
<path d="M304.015 487.064L332.347 488.542C339.491 455.037 346.882 418.328 345.404 410.198C342.694 394.677 321.506 378.91 239.96 365.606L201.773 422.763C201.773 422.763 257.451 420.053 308.203 420.053C308.203 420.053 305.246 451.834 304.015 487.064Z" fill="url(#paint6_linear_601_8635)"/>
<path d="M302.044 482.63L303.029 490.021L334.071 491.252L335.549 484.354L302.044 482.63Z" fill="#407BFF"/>
<path d="M221.728 266.813C220.004 266.813 218.526 266.813 217.047 266.813C210.149 267.06 203.251 267.553 196.353 268.538C199.309 271.987 208.671 277.654 214.83 277.654C223.453 277.407 221.728 271.002 221.728 266.813Z" fill="#E9B276"/>
<path d="M259.915 481.397L288.986 486.078C300.812 453.065 312.638 418.081 312.391 410.198C311.898 394.43 308.449 386.3 251.539 373.489C251.539 373.489 248.583 369.055 241.438 346.143L186.006 349.838C186.006 349.838 160.63 396.401 180.339 416.357C184.774 420.791 193.15 422.762 202.02 422.762C202.02 422.762 221.975 422.762 271.495 420.545C271.248 420.545 265.335 448.631 259.915 481.397Z" fill="url(#paint7_linear_601_8635)"/>
<path d="M258.683 476.224L292.435 481.89L289.233 489.035L258.683 484.108V476.224Z" fill="#407BFF"/>
<path opacity="0.1" d="M302.044 482.63L303.029 490.021L334.071 491.252L335.549 484.354L302.044 482.63Z" fill="black"/>
<path d="M217.541 262.133C216.801 266.321 217.048 270.263 218.033 274.451L202.759 272.234C201.28 271.987 200.541 270.509 201.034 269.277C203.005 264.596 203.99 254.988 204.483 250.553C204.73 247.843 204.976 245.38 204.976 243.902C204.976 242.177 204.976 241.684 204.976 241.684L211.874 244.887L222.961 250.061C220.497 253.263 218.526 257.452 217.541 262.133Z" fill="#E9B276"/>
<path opacity="0.2" d="M222.96 249.568C220.497 253.263 218.526 257.698 217.54 262.132C211.874 259.915 207.439 255.727 204.729 250.553C204.976 247.843 205.222 245.38 205.222 243.901C207.686 244.148 209.903 244.394 212.12 244.64L222.96 249.568Z" fill="black"/>
<path d="M223.7 238.728C223.207 243.902 225.917 247.844 229.612 247.844C233.308 247.844 236.51 243.656 237.003 238.728C237.496 233.555 234.786 229.613 231.09 229.613C227.641 229.613 224.192 233.555 223.7 238.728Z" fill="#407BFF"/>
<path opacity="0.5" d="M223.207 238.728C222.714 243.902 225.424 247.844 229.12 247.844C232.815 247.844 236.018 243.656 236.511 238.728C237.003 233.555 234.293 229.613 230.598 229.613C226.902 229.613 223.453 233.555 223.207 238.728Z" fill="black"/>
<path d="M197.585 229.859C200.295 242.423 201.28 249.814 208.671 255.481C219.758 264.103 234.293 256.466 235.525 243.655C236.511 232.076 231.83 213.599 218.772 210.149C205.961 206.454 194.875 217.294 197.585 229.859Z" fill="#E9B276"/>
<path d="M194.875 242.67C197.092 245.38 200.048 246.858 202.759 247.351C206.7 248.09 207.686 244.394 205.469 240.945C203.744 237.742 199.556 233.554 195.86 234.54C192.658 235.525 192.165 239.713 194.875 242.67Z" fill="#E9B276"/>
<path d="M217.294 231.09C217.54 232.076 218.033 232.815 218.772 232.815C219.511 232.815 219.757 231.829 219.757 230.844C219.511 229.858 219.018 229.119 218.279 229.119C217.54 229.119 217.047 229.858 217.294 231.09Z" fill="#1A2E35"/>
<path d="M228.873 229.613C229.12 230.598 229.612 231.337 230.351 231.337C231.09 231.337 231.337 230.352 231.337 229.366C231.09 228.381 230.598 227.642 229.859 227.642C229.12 227.642 228.627 228.627 228.873 229.613Z" fill="#1A2E35"/>
<path d="M225.177 230.598C225.177 230.598 228.38 236.264 231.337 238.728C229.858 240.699 226.656 240.206 226.656 240.206L225.177 230.598Z" fill="#D28546"/>
<path d="M213.106 227.642H212.859C212.613 227.395 212.366 227.149 212.613 226.903C214.337 223.946 217.047 223.946 217.047 223.946C217.294 223.946 217.786 224.193 217.786 224.439C217.786 224.685 217.54 225.178 217.294 225.178C217.294 225.178 215.076 225.424 213.845 227.642C213.598 227.642 213.352 227.642 213.106 227.642Z" fill="#1A2E35"/>
<path d="M233.307 224.932C233.061 224.932 232.815 224.932 232.815 224.685C231.337 222.468 229.119 222.468 228.873 222.468C228.627 222.468 228.38 222.222 228.38 221.975C228.38 221.729 228.627 221.482 228.873 221.482C228.873 221.482 231.829 221.482 233.8 224.439C234.047 224.685 233.8 225.178 233.554 225.178C233.554 224.932 233.307 224.932 233.307 224.932Z" fill="#1A2E35"/>
<path d="M200.048 246.119C200.048 246.119 207.932 237.989 203.99 218.28C203.99 218.28 210.396 223.7 225.178 219.758C225.178 219.758 216.555 220.497 212.367 216.555C212.367 216.555 220.497 220.251 233.801 216.555C233.801 216.555 231.337 203.251 217.294 202.512C217.294 202.512 221.975 198.57 226.163 199.309C226.163 199.309 221.729 195.368 210.149 203.005L205.715 204.73C205.715 204.73 192.904 200.049 185.759 210.889C180.339 219.511 183.049 246.365 200.048 246.119Z" fill="#1A2E35"/>
<path d="M229.12 242.423C229.12 242.423 225.178 241.438 213.845 241.192C215.077 244.641 217.54 247.351 223.207 247.597C229.12 247.597 229.12 242.423 229.12 242.423Z" fill="#1A2E35"/>
<path d="M220.743 244.887C223.453 244.887 225.424 245.626 226.902 246.612C226.163 247.104 224.932 247.597 223.207 247.597C220.497 247.597 218.526 246.858 217.048 245.872C217.787 245.133 219.019 244.887 220.743 244.887Z" fill="#BA221F"/>
<path d="M228.627 242.424C228.381 243.163 227.888 243.902 226.902 244.148C224.439 244.148 218.526 243.409 217.048 243.163C216.062 242.917 215.077 242.67 214.584 241.438C222.961 241.438 227.149 242.178 228.627 242.424Z" fill="white"/>
<path d="M193.889 234.047V220.743C193.889 212.367 199.309 205.469 206.947 203.252L211.381 202.512C203.498 204.73 197.831 212.121 197.831 220.497V234.047H193.889Z" fill="#407BFF"/>
<path d="M204.237 240.453C204.73 245.626 202.02 249.568 198.324 249.568C194.629 249.568 191.426 245.38 190.933 240.453C190.44 235.279 193.15 231.337 196.846 231.337C200.541 231.337 203.991 235.525 204.237 240.453Z" fill="#407BFF"/>
<path opacity="0.5" d="M204.237 240.453C204.73 245.626 202.02 249.568 198.324 249.568C194.629 249.568 191.426 245.38 190.933 240.453C190.44 235.279 193.15 231.337 196.846 231.337C200.541 231.337 203.991 235.525 204.237 240.453Z" fill="black"/>
<path d="M202.02 240.453C202.512 245.626 199.802 249.568 196.107 249.568C192.411 249.568 189.209 245.38 188.716 240.453C188.223 235.279 190.933 231.337 194.629 231.337C198.324 231.337 201.773 235.525 202.02 240.453Z" fill="#407BFF"/>
<path opacity="0.3" d="M197.585 241.931L197.338 239.221H197.831C197.092 236.511 195.368 234.54 193.397 234.54C191.426 234.54 189.948 236.511 189.701 239.221L189.948 241.931H189.701C190.44 244.641 192.165 246.612 194.136 246.612C196.107 246.612 197.585 244.641 197.831 241.931H197.585Z" fill="white"/>
<path d="M173.688 241.685L180.832 227.396L186.745 241.192C186.745 241.192 180.832 248.583 174.919 247.597L173.688 241.685Z" fill="#E9B276"/>
<path d="M192.165 222.222L196.599 234.047L186.745 241.192L181.078 227.395L192.165 222.222Z" fill="#E9B276"/>
<path d="M175.658 256.959L182.557 245.134L181.818 240.453L175.658 238.236L167.036 251.786L175.658 256.959Z" fill="#E9B276"/>
<path d="M180.586 249.568L167.775 277.407C167.775 277.407 173.934 271.987 177.383 271.002C182.803 269.77 199.063 274.697 182.557 292.682C182.557 292.682 149.79 313.13 142.892 305.247C137.718 299.088 159.891 261.394 169.992 244.887L180.586 249.568Z" fill="#407BFF"/>
<path d="M180.586 249.568L167.775 277.407C167.775 277.407 173.934 271.987 177.383 271.002C182.803 269.77 199.063 274.697 182.557 292.682C182.557 292.682 149.79 313.13 142.892 305.247C137.718 299.088 159.891 261.394 169.992 244.887L180.586 249.568Z" fill="#399EFD"/>
<path opacity="0.2" d="M168.021 277.654L164.325 288.494L174.673 272.48C171.47 274.451 168.021 277.654 168.021 277.654Z" fill="black"/>
<path d="M215.569 252.771C213.845 252.771 212.367 252.771 211.381 252.524C208.671 252.032 201.526 248.09 201.034 247.843L201.773 246.612C201.773 246.612 209.164 250.553 211.627 251.046C214.091 251.539 222.221 251.046 222.221 251.046V252.524C222.221 252.524 218.772 252.771 215.569 252.771Z" fill="#407BFF"/>
<path d="M217.048 253.017L223.699 252.525C223.699 252.525 223.453 250.554 220.497 250.554C217.294 250.8 217.048 253.017 217.048 253.017Z" fill="#407BFF"/>
<g opacity="0.5">
<path d="M215.569 252.771C213.845 252.771 212.367 252.771 211.381 252.524C208.671 252.032 201.526 248.09 201.034 247.843L201.773 246.612C201.773 246.612 209.164 250.553 211.627 251.046C214.091 251.539 222.221 251.046 222.221 251.046V252.524C222.221 252.524 218.772 252.771 215.569 252.771Z" fill="black"/>
<path d="M217.048 253.017L223.699 252.525C223.699 252.525 223.453 250.554 220.497 250.554C217.294 250.8 217.048 253.017 217.048 253.017Z" fill="black"/>
</g>
<path d="M480.658 585.117C479.18 585.364 477.948 584.132 477.948 582.407L461.442 390.735C461.195 387.04 458.485 384.33 455.283 384.33H376.938C373.736 384.33 371.026 387.04 370.779 390.735L354.273 582.407C354.027 584.132 352.795 585.117 351.563 585.117C350.085 584.871 349.099 583.639 349.346 581.915L365.852 390.242C366.345 383.591 371.272 378.417 376.938 378.417H455.036C460.703 378.417 465.63 383.591 466.123 390.242L482.629 581.915C482.876 583.393 481.89 584.871 480.658 585.117Z" fill="#407BFF"/>
<g opacity="0.4">
<path d="M480.658 585.117C479.18 585.364 477.948 584.132 477.948 582.407L461.442 390.735C461.195 387.04 458.485 384.33 455.283 384.33H376.938C373.736 384.33 371.026 387.04 370.779 390.735L354.273 582.407C354.027 584.132 352.795 585.117 351.563 585.117C350.085 584.871 349.099 583.639 349.346 581.915L365.852 390.242C366.345 383.591 371.272 378.417 376.938 378.417H455.036C460.703 378.417 465.63 383.591 466.123 390.242L482.629 581.915C482.876 583.393 481.89 584.871 480.658 585.117Z" fill="black"/>
</g>
<path d="M478.934 387.779H267.552C265.335 387.779 263.611 386.055 263.611 383.837V373.983C263.611 371.765 265.335 370.041 267.552 370.041H478.934C481.151 370.041 482.876 371.765 482.876 373.983V383.837C482.876 386.055 481.151 387.779 478.934 387.779Z" fill="#1A2E35"/>
<path opacity="0.2" d="M478.934 387.779H386.793V370.287H478.934C481.151 370.287 482.876 372.012 482.876 374.229V384.084C482.876 386.055 481.151 387.779 478.934 387.779Z" fill="white"/>
<path d="M394.924 585.117C393.445 585.364 392.214 584.132 392.214 582.407L375.707 390.735C375.461 387.04 372.751 384.33 369.548 384.33H291.45C288.247 384.33 285.537 387.04 285.291 390.735L268.785 582.407C268.538 584.132 267.306 585.117 266.075 585.117C264.596 584.871 263.611 583.639 263.857 581.915L280.364 390.242C280.857 383.591 285.784 378.417 291.45 378.417H369.548C375.214 378.417 380.142 383.591 380.634 390.242L397.141 581.915C397.387 583.393 396.402 584.871 394.924 585.117Z" fill="#407BFF"/>
<g opacity="0.4">
<path d="M394.924 585.117C393.445 585.364 392.214 584.132 392.214 582.407L375.707 390.735C375.461 387.04 372.751 384.33 369.548 384.33H291.45C288.247 384.33 285.537 387.04 285.291 390.735L268.785 582.407C268.538 584.132 267.306 585.117 266.075 585.117C264.596 584.871 263.611 583.639 263.857 581.915L280.364 390.242C280.857 383.591 285.784 378.417 291.45 378.417H369.548C375.214 378.417 380.142 383.591 380.634 390.242L397.141 581.915C397.387 583.393 396.402 584.871 394.924 585.117Z" fill="black"/>
</g>
<path d="M391.228 370.287H337.52C335.303 370.287 333.579 368.563 333.579 366.345V361.665H394.924V366.345C395.17 368.563 393.445 370.287 391.228 370.287Z" fill="#1A2E35"/>
<path opacity="0.2" d="M391.228 370.287H337.52C335.303 370.287 333.579 368.563 333.579 366.345V361.665H394.924V366.345C395.17 368.563 393.445 370.287 391.228 370.287Z" fill="white"/>
<path d="M347.868 370.287H294.16C291.943 370.287 290.218 368.563 290.218 366.345V361.665H351.563V366.345C351.81 368.563 350.085 370.287 347.868 370.287Z" fill="#1A2E35"/>
<path d="M347.868 370.287H294.16C291.943 370.287 290.218 368.563 290.218 366.345V361.665H351.563V366.345C351.81 368.563 350.085 370.287 347.868 370.287Z" fill="url(#paint8_linear_601_8635)"/>
<path d="M344.665 364.867H338.999V366.838H344.665V364.867Z" fill="#1A2E35"/>
<path d="M335.55 364.867H329.883V366.838H335.55V364.867Z" fill="#1A2E35"/>
<path d="M399.358 370.287H402.314C404.039 370.287 405.517 369.056 405.764 367.331L415.618 306.232C415.865 304.261 414.386 302.291 412.169 302.291H364.621L351.81 370.287H354.766H399.358Z" fill="#1A2E35"/>
<path d="M399.358 370.287H402.314C404.039 370.287 405.517 369.056 405.764 367.331L415.618 306.232C415.865 304.261 414.386 302.291 412.169 302.291H364.621L351.81 370.287H354.766H399.358Z" fill="url(#paint9_linear_601_8635)"/>
<path opacity="0.2" d="M352.549 365.853L351.81 370.287H354.766H399.358H402.314C404.039 370.287 405.517 369.056 405.764 367.331L406.01 365.853H352.549Z" fill="black"/>
<path d="M351.81 370.287H354.766C356.491 370.287 357.969 369.056 358.215 367.331L368.07 306.232C368.316 304.261 366.838 302.291 364.621 302.291L351.81 370.287Z" fill="#1A2E35"/>
<path opacity="0.3" d="M351.81 370.287H354.766C356.491 370.287 357.969 369.056 358.215 367.331L368.07 306.232C368.316 304.261 366.838 302.291 364.621 302.291L351.81 370.287Z" fill="white"/>
<defs>
<linearGradient id="paint0_linear_601_8635" x1="568.659" y1="94.4611" x2="593.218" y2="94.4611" gradientUnits="userSpaceOnUse">
<stop stop-color="#3D5475"/>
<stop offset="0.2549" stop-color="#364F6F"/>
<stop offset="0.6276" stop-color="#22425F"/>
<stop offset="1" stop-color="#083149"/>
</linearGradient>
<linearGradient id="paint1_linear_601_8635" x1="558.222" y1="122.703" x2="603.655" y2="122.703" gradientUnits="userSpaceOnUse">
<stop stop-color="#3D5475"/>
<stop offset="0.2549" stop-color="#364F6F"/>
<stop offset="0.6276" stop-color="#22425F"/>
<stop offset="1" stop-color="#083149"/>
</linearGradient>
<linearGradient id="paint2_linear_601_8635" x1="156.04" y1="128.042" x2="183.153" y2="128.042" gradientUnits="userSpaceOnUse">
<stop stop-color="#3D5475"/>
<stop offset="0.2549" stop-color="#364F6F"/>
<stop offset="0.6276" stop-color="#22425F"/>
<stop offset="1" stop-color="#083149"/>
</linearGradient>
<linearGradient id="paint3_linear_601_8635" x1="600.512" y1="348.417" x2="621.492" y2="348.417" gradientUnits="userSpaceOnUse">
<stop stop-color="#3D5475"/>
<stop offset="0.2549" stop-color="#364F6F"/>
<stop offset="0.6276" stop-color="#22425F"/>
<stop offset="1" stop-color="#083149"/>
</linearGradient>
<linearGradient id="paint4_linear_601_8635" x1="97.6226" y1="228.535" x2="127.807" y2="228.535" gradientUnits="userSpaceOnUse">
<stop stop-color="#3D5475"/>
<stop offset="0.2549" stop-color="#364F6F"/>
<stop offset="0.6276" stop-color="#22425F"/>
<stop offset="1" stop-color="#083149"/>
</linearGradient>
<linearGradient id="paint5_linear_601_8635" x1="27.8006" y1="591.543" x2="668.741" y2="591.543" gradientUnits="userSpaceOnUse">
<stop stop-color="#3D5475"/>
<stop offset="0.2549" stop-color="#364F6F"/>
<stop offset="0.6276" stop-color="#22425F"/>
<stop offset="1" stop-color="#083149"/>
</linearGradient>
<linearGradient id="paint6_linear_601_8635" x1="201.806" y1="427.066" x2="345.615" y2="427.066" gradientUnits="userSpaceOnUse">
<stop stop-color="#3D5475"/>
<stop offset="0.2549" stop-color="#364F6F"/>
<stop offset="0.6276" stop-color="#22425F"/>
<stop offset="1" stop-color="#083149"/>
</linearGradient>
<linearGradient id="paint7_linear_601_8635" x1="172.783" y1="416.105" x2="312.241" y2="416.105" gradientUnits="userSpaceOnUse">
<stop stop-color="#3D5475"/>
<stop offset="0.2549" stop-color="#364F6F"/>
<stop offset="0.6276" stop-color="#22425F"/>
<stop offset="1" stop-color="#083149"/>
</linearGradient>
<linearGradient id="paint8_linear_601_8635" x1="290.395" y1="365.91" x2="351.703" y2="365.91" gradientUnits="userSpaceOnUse">
<stop stop-color="#3D5475"/>
<stop offset="0.2549" stop-color="#364F6F"/>
<stop offset="0.6276" stop-color="#22425F"/>
<stop offset="1" stop-color="#083149"/>
</linearGradient>
<linearGradient id="paint9_linear_601_8635" x1="351.703" y1="336.272" x2="415.619" y2="336.272" gradientUnits="userSpaceOnUse">
<stop stop-color="#3D5475"/>
<stop offset="0.2549" stop-color="#364F6F"/>
<stop offset="0.6276" stop-color="#22425F"/>
<stop offset="1" stop-color="#083149"/>
</linearGradient>
</defs>
</svg>
