<svg width="40" height="33" viewBox="0 0 40 33" fill="none" xmlns="http://www.w3.org/2000/svg">
<path d="M12.736 32.6248C27.6109 32.6248 35.748 20.2141 35.748 9.47049C35.748 9.1232 35.748 8.77095 35.7332 8.42366C37.3174 7.26889 38.6846 5.83921 39.7709 4.20162C38.2911 4.85862 36.7229 5.29162 35.1173 5.48659C36.8086 4.46863 38.0753 2.86696 38.682 0.97927C37.093 1.92718 35.3538 2.59261 33.5406 2.94641C32.3216 1.63918 30.7085 0.773173 28.9513 0.482541C27.194 0.191909 25.3905 0.49287 23.8203 1.33881C22.2501 2.18474 21.0007 3.52844 20.2657 5.16177C19.5307 6.7951 19.3511 8.62691 19.7546 10.3734C16.5391 10.2111 13.3933 9.36994 10.5214 7.90457C7.64946 6.4392 5.1155 4.38232 3.08385 1.86734C2.05247 3.66104 1.73771 5.78278 2.2035 7.80168C2.66928 9.82059 3.8807 11.5853 5.59174 12.7375C4.30956 12.6936 3.05557 12.3469 1.93091 11.7254V11.837C1.93313 13.7161 2.57958 15.5367 3.76102 16.9912C4.94245 18.4457 6.58639 19.4448 8.41496 19.8197C7.72089 20.0122 7.00391 20.1082 6.28399 20.105C5.77646 20.1065 5.26995 20.0592 4.77138 19.9636C5.2882 21.5811 6.29452 22.9953 7.6494 24.0082C9.00429 25.0211 10.6399 25.5819 12.3271 25.612C9.46087 27.8788 5.92038 29.1082 2.27581 29.1022C1.63362 29.105 0.99187 29.0677 0.354248 28.9906C4.05329 31.3652 8.34917 32.6261 12.736 32.6248Z" fill="#399EFD"/>
</svg>
