<svg width="686" height="512" viewBox="0 0 686 512" fill="none" xmlns="http://www.w3.org/2000/svg">
<path d="M473.623 144.585C429.179 104.127 379.555 91.8746 360.826 88.5331C371.666 59.4235 383.44 29.5313 387.445 21.8851C388.709 21.7647 390.546 21.6443 392.925 21.6443C403.434 21.6443 425.957 23.8418 458.748 38.5923C501.988 58.0388 516.111 79.7732 519.905 87.2688L473.623 144.585Z" fill="white"/>
<path d="M392.895 27.725C402.922 27.725 424.481 29.8623 456.249 44.1613C492.533 60.4771 507.258 78.1777 512.617 86.757L472.87 135.945C433.424 102.019 390.937 88.9244 368.926 84.0778C377.779 60.5072 386.902 37.2978 391.299 27.7551C391.78 27.725 392.322 27.725 392.895 27.725ZM392.895 15.6838C387.053 15.6838 384.042 16.316 384.042 16.316C380.609 17.4599 352.605 93.4399 352.605 93.4399C352.605 93.4399 419.122 100.213 474.225 153.435L526.83 88.3224C526.83 88.3224 518.037 58.7612 461.187 33.1737C427.884 18.1824 404.668 15.6838 392.895 15.6838Z" fill="#A0C6F4"/>
<path d="M362.361 99.3096C362.361 99.3096 427.763 105.902 468.052 142.899" stroke="#2A1E17" stroke-miterlimit="10" stroke-linecap="round" stroke-linejoin="round"/>
<path d="M418.85 96.1193L443.24 48.707L468.323 98.1663L418.85 96.1193Z" fill="#A0C6F4"/>
<path d="M423.578 95.457L447.968 48.0146L473.051 97.4739L423.578 95.457Z" stroke="#2A1E17" stroke-miterlimit="10" stroke-linecap="round" stroke-linejoin="round"/>
<path d="M400.664 12.7937C400.664 12.7937 473.985 19.3863 519.574 73.5415" stroke="#2A1E17" stroke-miterlimit="10" stroke-linecap="round" stroke-linejoin="round"/>
<path d="M437.54 221.974C433.639 219.126 431.078 217.208 431.078 217.208C432.155 215.784 449.211 197.619 459.078 183C459.107 183 439.111 223.166 437.54 221.974Z" fill="#2A1E17"/>
<path d="M188.078 86C190.038 89.2134 190.912 87.9163 196.61 87.5035C202.307 87.0613 210.387 91.1297 213.22 97.9693C216.054 104.809 215.18 105.87 213.673 106.725C212.135 107.58 201.222 108.877 200.77 111" stroke="#2A1E17" stroke-miterlimit="10" stroke-linecap="round" stroke-linejoin="round"/>
<path d="M335.199 441.31L330.11 432.7L312.073 462.773L316.801 466.416L335.199 441.31Z" fill="#F9865F"/>
<path d="M215.357 366.715C215.357 366.715 205.992 351.513 210.027 344.077L239.867 347.268L215.357 366.715Z" fill="#F9865F"/>
<path d="M215.356 366.715L217.133 370.809L211.622 392.302C210.93 395.011 211.833 397.871 213.941 399.707L241.222 359.369C243.811 355.546 243.239 350.399 239.837 347.238L233.754 341.579L215.356 366.715Z" fill="black"/>
<path d="M200.752 111.532C209.304 111.321 220.114 110.779 217.946 104.307C215.778 97.8046 207.648 81.5791 189.25 86.4558C189.25 86.4558 182.746 91.8743 190.876 101.598C199.006 111.321 200.752 111.532 200.752 111.532Z" fill="#2A1E33"/>
<path d="M243.992 347.629C243.992 347.629 229.418 304.582 241.734 285.677C251.912 270.084 285.185 295.461 289.762 298.862L313.61 255.875C313.61 255.875 308.1 248.169 294.61 240.613C281.12 233.057 225.353 210.48 199.157 251.812C189.461 267.074 189.34 332.638 207.889 357.744L243.992 347.629Z" fill="url(#paint0_linear_601_8923)"/>
<path d="M243.993 347.629C243.993 347.629 229.419 304.582 241.735 285.677C251.912 270.084 285.186 295.461 289.762 298.862" stroke="#2A1E17" stroke-miterlimit="10" stroke-linecap="round" stroke-linejoin="round"/>
<path d="M313.609 255.876C302.769 267.285 270.67 322.795 263.443 349.315C253.778 384.807 257.421 414.248 310.508 471.865L336.162 434.507C336.162 434.507 318.126 407.113 321.498 381.315C326.376 343.957 352.965 307.743 366.394 284.805L313.609 255.876Z" fill="url(#paint1_linear_601_8923)"/>
<path d="M317.676 260.692L360.344 294.197L373.111 274.81L317.676 260.692Z" fill="#2A1E17"/>
<path d="M562.812 225.502C569.466 226.917 574.525 229.475 578.018 233.118C581.511 236.76 579.915 238.657 578.65 239.771C577.385 240.884 572.477 239.62 568.201 235.797C563.926 231.974 562.812 225.502 562.812 225.502Z" fill="#FF8A66"/>
<path d="M431.466 218.036C432.58 216.561 450.225 197.747 460.433 182.605C460.433 182.605 491.327 217.193 494.67 218.307C495.904 218.728 503.492 218.608 512.887 218.518C528.786 218.367 549.894 218.186 554.561 220.535C561.999 224.267 566.455 226.104 568.322 231.311C570.189 236.519 570.912 239.921 566.455 240.252C561.246 240.613 557.904 233.93 557.904 233.93C557.904 233.93 553.658 236.489 542.637 240.613C542.637 240.613 503.071 255.966 476.603 248.53C469.436 246.543 431.466 218.036 431.466 218.036Z" fill="#FCC1BB"/>
<path d="M191.598 79.8634C188.196 81.1578 186.148 82.693 188.105 85.9743C190.063 89.2555 190.936 87.931 196.627 87.5095C202.318 87.058 210.388 91.2122 213.218 98.1961C216.049 105.18 215.176 106.264 213.67 107.137C212.134 108.01 201.234 109.334 200.782 111.502C200.331 113.699 205.209 120.141 215.266 119.69L217.675 119.238C217.675 119.238 238.813 139.859 241.854 142.929C244.926 146 267.389 161.202 279.765 164.302C289.159 166.65 308.22 163.61 319.692 161.382C325.263 160.299 329.027 159.395 329.027 159.395C329.027 159.395 320.445 143.923 318.699 120.111C318.699 120.111 298.132 123.422 284.462 126.403C284.462 126.403 252.574 108.642 237.067 100.785C237.067 100.785 223.516 84.1982 217.193 82.0007C210.809 79.8634 196.175 78.1174 191.598 79.8634Z" fill="#FCC1BB"/>
<path d="M319.631 161.413C325.202 160.329 328.966 159.426 328.966 159.426C328.966 159.426 318.577 146.331 316.831 122.52C316.831 122.52 312.134 127.577 313.579 141.063C315.416 158.011 319.631 161.413 319.631 161.413Z" fill="#2A1E17"/>
<path d="M316.32 119.87C316.32 119.87 316.622 148.95 324.39 161.081L327.191 159.967C327.191 159.967 290.455 202.924 278.591 230.98C276.634 235.586 354.833 285.497 366.396 284.804C366.396 284.804 404.487 226.675 417.525 209.457L431.527 220.294C431.527 220.294 458.988 192.478 460.464 182.605C460.464 182.605 433.935 150.334 412.225 140.882C390.515 131.43 371.123 115.234 347.817 115.686C327.642 116.077 316.32 119.87 316.32 119.87Z" fill="#399EFD"/>
<path d="M431.525 220.294L417.523 209.427L419.752 203.376L431.525 220.294Z" fill="#2A1E17"/>
<path d="M452.814 105.3C450.375 112.916 443.268 134.982 435.379 137.691C427.49 140.4 419.27 136.999 419.27 136.999L410.869 141.304C409.935 144.133 403.28 146.541 394.729 146.873C388.375 147.113 384.521 138.955 386.388 133.055C387.261 130.346 390.483 116.98 390.483 116.98C390.483 116.98 397.288 91.9346 403.551 86.7569C409.815 81.5792 415.716 76.4617 432.428 83.2047C457.993 93.5903 452.814 105.3 452.814 105.3Z" fill="#FCC1BB"/>
<path d="M402.078 106.384C400.964 111.08 396.086 120.442 392.894 118.756C389.702 117.071 388.588 112.766 390.846 104.518C393.105 96.2694 394.972 77.5453 401.325 74.1738C407.679 70.8023 410.509 74.7458 410.509 74.7458C410.509 74.7458 407.709 61.079 415.929 59.2126C415.929 59.2126 418.73 57.8881 417.615 67.2501C417.615 67.2501 420.807 58.6407 431.105 59.7545C441.403 60.8683 444.957 75.2876 444.957 75.2876C444.957 75.2876 445.709 71.3441 450.377 71.3441C455.044 71.3441 462.18 78.2678 460.494 85.9441C460.494 85.9441 472.478 82.1812 478.862 91.754C485.216 101.297 484.493 111.803 469.136 115.897C453.087 120.201 453.207 101.477 450.768 99.0389C448.329 96.6005 445.709 93.801 436.706 97.1725C427.703 100.544 418.338 90.61 418.338 90.61C418.338 90.61 416.833 102.591 415.327 103.705C413.821 104.819 410.84 106.324 411.593 100.695C412.346 95.0653 413.279 95.6372 412.707 94.1321C412.135 92.6269 409.606 87.9008 404.276 92.0851C398.314 96.8414 402.078 106.384 402.078 106.384Z" fill="#2A1E33"/>
<path d="M404.606 108.491C401.023 105.481 398.554 100.213 401.715 94.9146C404.847 89.6164 409.996 88.9241 411.562 90.9109C413.127 92.8977 413.73 96.2692 412.254 100.273" stroke="#2A1E33" stroke-miterlimit="10" stroke-linecap="round" stroke-linejoin="round"/>
<path d="M316.801 466.416L318.578 470.51L313.067 492.003C312.375 494.713 313.278 497.572 315.386 499.409L342.667 459.071C345.257 455.248 344.684 450.1 341.282 446.939L335.199 441.28L316.801 466.416Z" fill="black"/>
<path d="M410.479 74.7459C410.479 74.7459 408.401 67.9426 402.138 66.1665" stroke="#2A1E33" stroke-miterlimit="10" stroke-linecap="round" stroke-linejoin="round"/>
<path d="M277.747 228.933L353.327 123.362" stroke="#2A1E17" stroke-miterlimit="10" stroke-linecap="round" stroke-linejoin="round"/>
<path d="M384.492 130.737C381.782 134.289 380.517 149.522 393.043 150.515C405.57 151.508 413.579 146 413.579 146" stroke="#2A1E17" stroke-miterlimit="10" stroke-linecap="round" stroke-linejoin="round"/>
<path d="M217.133 82.0608C217.133 82.0608 225.775 93.4999 227.13 97.5638" stroke="#2A1E17" stroke-miterlimit="10" stroke-linecap="round" stroke-linejoin="round"/>
<path d="M540.68 235.345C540.68 235.345 546.461 240.101 557.964 233.96C562.119 231.733 559.168 226.465 553.899 227.759C548.629 229.084 542.366 227.097 542.366 227.097" stroke="#2A1E17" stroke-miterlimit="10" stroke-linecap="round" stroke-linejoin="round"/>
<path d="M564.799 226.134C564.799 226.134 570.339 232.606 570.189 236.429" stroke="#2A1E17" stroke-miterlimit="10" stroke-linecap="round" stroke-linejoin="round"/>
<path d="M483.288 225.441C483.288 225.441 488.287 218.758 494.7 218.307" stroke="#2A1E17" stroke-miterlimit="10" stroke-linecap="round" stroke-linejoin="round"/>
<path d="M272.116 137.24C272.116 137.24 275.037 128.149 284.402 126.463" stroke="#2A1E17" stroke-miterlimit="10" stroke-linecap="round" stroke-linejoin="round"/>
<path d="M297.5 275.412L286.328 296.785C286.328 296.785 249.472 359.129 261.998 399.406" stroke="#2A1E17" stroke-miterlimit="10" stroke-linecap="round" stroke-linejoin="round"/>
<path d="M330.142 346.937L366.396 284.804C366.396 284.804 413.912 215.899 418.79 206.175L435.562 175.169" stroke="#2A1E17" stroke-miterlimit="10" stroke-linecap="round" stroke-linejoin="round"/>
<path d="M282.806 235.556C282.806 235.556 347.274 282.547 366.395 284.804" stroke="#2A1E17" stroke-miterlimit="10" stroke-linecap="round" stroke-linejoin="round"/>
<path d="M316.32 119.87C316.32 119.87 316.26 149.371 324.209 161.443" stroke="#2A1E17" stroke-miterlimit="10" stroke-linecap="round" stroke-linejoin="round"/>
<path d="M458.385 177.939C456.368 190.101 429.448 215.628 429.448 215.628" stroke="#2A1E17" stroke-miterlimit="10" stroke-linecap="round" stroke-linejoin="round"/>
<path d="M257.578 329C259.511 329 261.078 327.433 261.078 325.5C261.078 323.567 259.511 322 257.578 322C255.645 322 254.078 323.567 254.078 325.5C254.078 327.433 255.645 329 257.578 329Z" fill="#2A1E17"/>
<path d="M616.741 407.715L614.633 393.085L627.129 401.393L620.595 402.808L616.741 407.715Z" stroke="#9ED0FF" stroke-miterlimit="10"/>
<path d="M202.529 157.83C178.861 136.938 139.747 189.017 282.866 354.704C365.432 450.281 430.291 458.86 439.084 425.596C454.862 365.932 397.922 350.85 419.09 374.21C449.894 408.197 537.518 415.361 602.8 383.663C667.208 352.386 627.611 303.799 623.637 300.94" stroke="#9ED0FF" stroke-miterlimit="10"/>
<path d="M603.824 387.215C605.936 387.215 607.648 385.503 607.648 383.392C607.648 381.28 605.936 379.569 603.824 379.569C601.712 379.569 600 381.28 600 383.392C600 385.503 601.712 387.215 603.824 387.215Z" stroke="#9ED0FF" stroke-miterlimit="10"/>
<path d="M548.117 414.639L661.607 350.67" stroke="#9ED0FF" stroke-miterlimit="10"/>
<path d="M204.908 164.754C207.02 164.754 208.732 163.042 208.732 160.931C208.732 158.819 207.02 157.107 204.908 157.107C202.796 157.107 201.084 158.819 201.084 160.931C201.084 163.042 202.796 164.754 204.908 164.754Z" stroke="#9ED0FF" stroke-miterlimit="10"/>
<path d="M303.078 89C308.049 89 312.078 85.4183 312.078 81C312.078 76.5817 308.049 73 303.078 73C298.108 73 294.078 76.5817 294.078 81C294.078 85.4183 298.108 89 303.078 89Z" fill="#399EFD"/>
<path d="M153.478 19.2656C151.491 19.2656 149.865 20.8912 149.865 22.878C149.865 24.8648 151.491 26.4903 153.478 26.4903C155.465 26.4903 157.091 24.8648 157.091 22.878C157.091 20.8912 155.465 19.2656 153.478 19.2656Z" fill="#A0C6F4"/>
<path d="M636.578 467C638.511 467 640.078 465.433 640.078 463.5C640.078 461.567 638.511 460 636.578 460C634.645 460 633.078 461.567 633.078 463.5C633.078 465.433 634.645 467 636.578 467Z" fill="#FAD8B0"/>
<path d="M572.748 300.97L533.934 282.757C530.803 281.282 530.863 276.827 534.025 275.412L606.232 243.654C607.256 243.202 608.43 243.202 609.454 243.654L659.047 264.906L572.748 300.97Z" fill="#2A1E33"/>
<path d="M570.338 241.125C570.429 257.17 572.747 300.97 572.747 300.97L659.046 264.906L657.119 203.978C656.999 200.245 653.114 197.837 649.712 199.372L575.397 233.208C572.295 234.653 570.308 237.723 570.338 241.125Z" fill="#C6CBCB"/>
<path d="M572.748 300.97L659.047 264.906L657.12 203.978C657.12 203.978 656.548 197.325 649.713 199.372" stroke="#2A1E17" stroke-miterlimit="10" stroke-linecap="round" stroke-linejoin="round"/>
<path d="M614.513 257.17L620.354 243.382" stroke="#2A1E17" stroke-miterlimit="10" stroke-linecap="round" stroke-linejoin="round"/>
<path d="M620.354 257.17L626.166 243.382" stroke="#2A1E17" stroke-miterlimit="10" stroke-linecap="round" stroke-linejoin="round"/>
<path d="M169.578 408C171.511 408 173.078 406.433 173.078 404.5C173.078 402.567 171.511 401 169.578 401C167.645 401 166.078 402.567 166.078 404.5C166.078 406.433 167.645 408 169.578 408Z" fill="#399EFD"/>
<path d="M473.078 426C475.84 426 478.078 423.985 478.078 421.5C478.078 419.015 475.84 417 473.078 417C470.317 417 468.078 419.015 468.078 421.5C468.078 423.985 470.317 426 473.078 426Z" fill="#FF6D66"/>
<path d="M206.443 457.264C212.315 460.094 229.418 467.198 252.032 467.048C253.267 467.048 254.23 468.132 254.08 469.366L250.918 494.351C250.797 495.254 250.135 495.947 249.262 496.127C242.878 497.331 217.103 500.854 197.862 484.538C197.259 484.026 197.018 483.213 197.229 482.461L203.583 458.619C203.914 457.325 205.299 456.692 206.443 457.264Z" fill="#9ED0FF"/>
<path d="M208.731 464.609C208.731 464.609 219.873 480.233 223.817 482.491C227.792 484.718 249.201 471.955 249.201 471.955" fill="#9ED0FF"/>
<path d="M208.731 464.609C208.731 464.609 219.873 480.233 223.817 482.491C227.792 484.718 249.201 471.955 249.201 471.955" stroke="#2A1E17" stroke-miterlimit="10" stroke-linecap="round" stroke-linejoin="round"/>
<path d="M234.326 480.293L246.009 492.304" stroke="#2A1E17" stroke-miterlimit="10" stroke-linecap="round" stroke-linejoin="round"/>
<path d="M218.066 477.975L204.396 481.708" stroke="#2A1E17" stroke-miterlimit="10" stroke-linecap="round" stroke-linejoin="round"/>
<path d="M564.078 161H552.078V174H564.078V161Z" fill="#FFE1C0"/>
<path d="M553.175 337.726L557.059 344.439L560.944 351.182H553.175H545.406L549.291 344.439L553.175 337.726Z" fill="#A0C6F4"/>
<path d="M239.234 39.8865L240.258 9.3621C240.137 6.50232 241.312 5.59923 243.058 5.20789C251.339 3.37161 276.572 -2.25765 303.973 5.87016C307.527 6.92376 307.406 8.79015 307.346 10.4759L306.352 39.5855C306.292 41.7228 304.034 43.2581 301.565 42.8968C293.555 41.7228 282.685 41.3616 271.604 41.4519C260.191 41.5422 249.984 42.3851 242.877 43.7698C240.167 44.3117 239.144 42.2647 239.234 39.8865Z" stroke="#9ED0FF" stroke-miterlimit="10"/>
<path d="M248.449 35.4309L264.408 16.7671L282.084 34.1967C276.001 32.2099 248.449 35.4309 248.449 35.4309Z" stroke="#9ED0FF" stroke-miterlimit="10"/>
<path d="M274.193 25.4069L287.111 15.0815L297.981 22.818L298.373 34.9495L282.083 34.1668" stroke="#9ED0FF" stroke-miterlimit="10"/>
<path d="M255.396 15.393C255.543 13.9375 254.268 12.6165 252.547 12.4425C250.826 12.2686 249.312 13.3076 249.165 14.7631C249.018 16.2187 250.293 17.5397 252.014 17.7136C253.735 17.8876 255.249 16.8486 255.396 15.393Z" stroke="#9ED0FF" stroke-miterlimit="10"/>
<path d="M547.847 436.403L558.566 456.181C559.68 457.957 559.289 458.95 558.325 459.853C553.748 464.098 539.807 477.042 519.391 482.069C516.742 482.731 516.139 481.497 515.537 480.383L505.329 461.539C504.577 460.154 505.42 458.348 507.136 457.656C512.646 455.428 519.723 451.605 526.708 447.451C533.935 443.146 540.078 438.811 544.083 435.289C545.588 433.965 547.004 434.868 547.847 436.403Z" stroke="#9ED0FF" stroke-miterlimit="10"/>
<path d="M543.632 442.695L540.44 460.485L522.734 455.97C527.341 454.977 543.632 442.695 543.632 442.695Z" stroke="#9ED0FF" stroke-miterlimit="10"/>
<path d="M531.014 458.619L526.648 469.968L516.862 469.095L512.104 461.539L522.734 455.97" stroke="#9ED0FF" stroke-miterlimit="10"/>
<path d="M549.595 458.842C550.76 458.31 551.34 457.082 550.891 456.099C550.441 455.116 549.133 454.751 547.968 455.283C546.804 455.815 546.224 457.043 546.673 458.026C547.122 459.009 548.431 459.374 549.595 458.842Z" stroke="#9ED0FF" stroke-miterlimit="10"/>
<path d="M495.722 99.0394L539.233 132.333C540.196 133.056 541.551 132.875 542.274 131.912L548.838 123.001C549.531 122.068 549.35 120.774 548.447 120.051L505.568 85.7639C504.605 85.0114 503.22 85.192 502.497 86.1854L495.33 96.1194C494.608 96.9924 494.788 98.3169 495.722 99.0394Z" fill="white" stroke="#2A1E17" stroke-miterlimit="10" stroke-linecap="round" stroke-linejoin="round"/>
<path d="M498.944 97.5341L509.483 104.939L515.716 97.5039L505.147 88.7139L498.944 97.5341Z" fill="#FF6D66"/>
<path d="M513.457 107.829L524.026 116.198L529.687 109.244L519.058 100.605L513.457 107.829Z" fill="#FAD8B0"/>
<path d="M527.579 119.419L538.118 126.825L543.147 120.383L533.15 112.014L527.579 119.419Z" fill="#A0C6F4"/>
<path d="M582.504 52.4999L592.411 135.765C592.621 137.601 594.308 138.895 596.114 138.625L612.886 136.337C614.633 136.096 615.897 134.531 615.717 132.754L607.587 49.0681C607.406 47.2017 605.69 45.8471 603.823 46.118L585.274 48.8273C583.528 49.0982 582.293 50.7238 582.504 52.4999Z" fill="white" stroke="#2A1E17" stroke-miterlimit="10" stroke-linecap="round" stroke-linejoin="round"/>
<path d="M587.562 54.4566L590.724 73.9332L605.509 72.8194L603.913 51.8376L587.562 54.4566Z" fill="#FF6D66"/>
<path d="M591.778 81.3683L593.886 101.899L607.557 100.664L605.69 79.803L591.778 81.3683Z" fill="#91BA83"/>
<path d="M594.127 109.244L597.289 128.721L609.725 127.336L608.219 107.438L594.127 109.244Z" fill="#FAD8B0"/>
<path d="M560.884 70.2301L588.346 150.876C588.827 152.261 590.333 152.983 591.718 152.502L608.912 146.3C610.237 145.819 610.959 144.404 610.508 143.049L584.732 61.5906C584.281 60.1757 582.745 59.3931 581.33 59.9349L562.45 66.9188C561.125 67.4306 560.402 68.8755 560.884 70.2301Z" fill="white" stroke="#2A1E17" stroke-miterlimit="10" stroke-linecap="round" stroke-linejoin="round"/>
<path d="M566.455 71.7054L573.561 90.0984L587.804 85.9442L581.872 65.7751L566.455 71.7054Z" fill="#A0C6F4"/>
<path d="M576.18 97.1422L582.473 116.799L595.602 112.766L589.429 92.717L576.18 97.1422Z" fill="#F9865F"/>
<path d="M584.251 123.934L591.387 142.327L603.281 138.384L597.681 119.238L584.251 123.934Z" fill="#FAD8B0"/>
<path d="M345.497 206.837H223.907C214.784 206.837 207.406 199.432 207.406 190.341V188.595C207.406 179.474 214.814 172.099 223.907 172.099H345.497C354.621 172.099 361.998 179.504 361.998 188.595V190.341C362.028 199.462 354.621 206.837 345.497 206.837Z" fill="url(#paint2_linear_601_8923)"/>
<path d="M302.077 187.632H226.528C225.052 187.632 223.878 186.458 223.878 184.983C223.878 183.508 225.052 182.333 226.528 182.333H302.077C303.553 182.333 304.727 183.508 304.727 184.983C304.727 186.428 303.553 187.632 302.077 187.632Z" fill="white"/>
<path d="M224.631 194.465H353.086" stroke="#2A1E17" stroke-miterlimit="10" stroke-linecap="round" stroke-linejoin="round"/>
<path d="M159.47 107.347L158.928 106.745L151.701 113.368L152.243 113.97C154.08 115.956 157.181 116.107 159.169 114.271C161.156 112.434 161.307 109.334 159.47 107.347Z" fill="#91BA83"/>
<path d="M149.503 94.764L157.753 103.795C158.837 104.999 158.777 106.865 157.573 107.949L152.695 112.404C151.49 113.488 149.623 113.428 148.539 112.224L140.289 103.193C139.205 101.989 139.265 100.122 140.469 99.0386L145.347 94.5834C146.552 93.4696 148.419 93.5599 149.503 94.764Z" stroke="#2A1E17" stroke-miterlimit="10" stroke-linecap="round" stroke-linejoin="round"/>
<path d="M128.485 153.344H115.537V165.175H128.485V153.344Z" fill="#399EFD"/>
<path d="M115.538 145.729V153.345H107.769" stroke="#2A1E17" stroke-miterlimit="10" stroke-linecap="round" stroke-linejoin="round"/>
<path d="M555.102 19.8376H542.154V31.6681H555.102V19.8376Z" fill="#FAD8B0"/>
<path d="M542.155 12.2217V19.8377H534.416" stroke="#2A1E17" stroke-miterlimit="10" stroke-linecap="round" stroke-linejoin="round"/>
<path d="M191.658 92.8977C57.3917 37.2674 -45.9506 144.404 207.136 308.495C227.069 321.41 257.632 325.955 257.632 325.955" stroke="#9ED0FF" stroke-miterlimit="10"/>
<path d="M68.2021 100.484C70.3141 100.484 72.0262 98.7722 72.0262 96.6607C72.0262 94.5493 70.3141 92.8376 68.2021 92.8376C66.0901 92.8376 64.3779 94.5493 64.3779 96.6607C64.3779 98.7722 66.0901 100.484 68.2021 100.484Z" stroke="#9ED0FF" stroke-miterlimit="10"/>
<path d="M43.8423 75.6488L48.0278 71.615L57.6634 77.1238L62.4812 92.0549L47.7267 85.8838L43.8423 75.6488Z" stroke="#9ED0FF" stroke-miterlimit="10"/>
<path d="M48.0273 71.6152L43.8419 75.649L41.4932 72.7892L45.498 68.936L48.0273 71.6152Z" stroke="#9ED0FF" stroke-miterlimit="10"/>
<path d="M62.4805 92.0551L52.875 81.519" stroke="#9ED0FF" stroke-miterlimit="10"/>
<path d="M85.7567 360.002L96.2054 413.765C96.4463 414.939 97.5905 415.692 98.7649 415.451L109.575 413.163C110.689 412.923 111.442 411.839 111.231 410.695L101.927 356.57C101.716 355.366 100.541 354.583 99.337 354.824L87.3828 357.473C86.2686 357.744 85.546 358.858 85.7567 360.002Z" fill="white" stroke="#2A1E17" stroke-miterlimit="10" stroke-linecap="round" stroke-linejoin="round"/>
<path d="M89.1592 361.025L92.1402 373.548L101.716 372.133L99.668 358.556L89.1592 361.025Z" fill="#FF6D66"/>
<path d="M93.1943 378.334L95.543 391.61L104.396 390.165L102.168 376.649L93.1943 378.334Z" fill="#FAD8B0"/>
<path d="M96.0557 396.396L99.0367 408.919L107.076 407.414L105.149 394.53L96.0557 396.396Z" fill="#A0C6F4"/>
<path d="M384.582 494.713L428.665 482.912L430.351 487.699L385.756 499.258L384.582 494.713Z" stroke="#9ED0FF" stroke-miterlimit="10"/>
<path d="M378.438 488.542L379.732 492.545" stroke="#2A1E17" stroke-miterlimit="10" stroke-linecap="round" stroke-linejoin="round"/>
<path d="M377.204 491.161L380.938 489.896" stroke="#9ED0FF" stroke-miterlimit="10"/>
<path d="M376.301 503.833L378.71 511.389" stroke="#9ED0FF" stroke-miterlimit="10"/>
<path d="M374.284 508.62L380.909 506.512" stroke="#9ED0FF" stroke-miterlimit="10"/>
<path d="M366.244 491.371L369.376 501.366" stroke="#9ED0FF" stroke-miterlimit="10"/>
<path d="M363.113 497.603L372.418 494.653" stroke="#9ED0FF" stroke-miterlimit="10"/>
<path d="M63.0231 15.8041L35.1099 3.19092L36.2842 0L64.348 12.9142L63.0231 15.8041Z" fill="white"/>
<path d="M36.2842 0L35.1099 3.19092L63.0231 15.8041L64.348 12.9142L36.2842 0Z" fill="#A0C6F4"/>
<path d="M63.5957 21.5838L64.6195 18.9648" stroke="#A0C6F4" stroke-width="4" stroke-miterlimit="10"/>
<path d="M65.3422 20.7711L62.873 19.8379" stroke="#A0C6F4" stroke-width="4" stroke-miterlimit="10"/>
<path d="M71.1841 14.5697L73.1413 9.63281" stroke="#A0C6F4" stroke-width="4" stroke-miterlimit="10"/>
<path d="M74.2853 12.9444L69.9492 11.2285" stroke="#A0C6F4" stroke-width="4" stroke-miterlimit="10"/>
<path d="M71.1216 25.3165L73.7413 18.7842" stroke="#A0C6F4" stroke-width="4" stroke-miterlimit="10"/>
<path d="M75.3979 23.3899L69.3154 20.9817" stroke="#A0C6F4" stroke-width="4" stroke-miterlimit="10"/>
<path d="M167.329 251.39C147.666 237.242 128.335 215.236 136.796 192.629C136.796 192.629 150.346 183.598 171.846 194.887C193.315 206.175 193.315 206.175 193.315 206.175L167.329 251.39Z" fill="#AEDAFF"/>
<path d="M136.798 192.629C128.306 215.236 147.638 237.242 167.331 251.39C179.134 259.879 187.385 263.672 200.122 268.338L159.411 348.593C159.411 348.593 110.812 328.243 102.892 288.688C94.973 249.132 136.798 192.629 136.798 192.629Z" fill="#AEDAFF"/>
<path d="M125.806 225.471C125.806 225.471 128.245 248.169 150.949 260.331" stroke="#2A1E17" stroke-miterlimit="10" stroke-linecap="round" stroke-linejoin="round"/>
<path d="M163.084 268.428L185.788 280.59" stroke="#2A1E17" stroke-miterlimit="10" stroke-linecap="round" stroke-linejoin="round"/>
<path d="M129.028 257.892C129.028 257.892 136.315 274.118 159.832 284.654" stroke="#2A1E17" stroke-miterlimit="10" stroke-linecap="round" stroke-linejoin="round"/>
<path d="M110.389 260.331C110.389 260.331 111.202 277.339 122.554 283.028" stroke="#2A1E17" stroke-miterlimit="10" stroke-linecap="round" stroke-linejoin="round"/>
<path d="M136.345 201.148C136.345 201.148 134.237 223.002 167.33 251.39" stroke="#2A1E17" stroke-miterlimit="10" stroke-linecap="round" stroke-linejoin="round"/>
<path d="M148.509 205.212C148.509 205.212 159.048 204.399 174.465 215.748" stroke="#2A1E17" stroke-miterlimit="10" stroke-linecap="round" stroke-linejoin="round"/>
<path d="M98.9169 275.021C98.2243 285.858 99.6094 325.173 156.52 350.218" stroke="#2A1E17" stroke-miterlimit="10" stroke-linecap="round" stroke-linejoin="round"/>
<path d="M462.48 253.136L438.331 301.511C438.331 301.511 454.712 307.532 441.914 326.316C441.914 326.316 472.176 338.869 491.99 306.268C511.803 273.666 462.48 253.136 462.48 253.136Z" fill="#D2E8F7"/>
<path d="M441.914 326.316C441.914 326.316 472.176 338.869 491.99 306.268L448.298 380.983C448.298 380.983 418.036 426.89 365.943 386.733L413.278 308.315L441.914 326.316Z" fill="white"/>
<path d="M438.331 301.541C438.331 301.541 456.338 307.893 441.914 326.346" stroke="#2A1E17" stroke-miterlimit="10" stroke-linecap="round" stroke-linejoin="round"/>
<path d="M412.736 306.629C412.736 306.629 437.277 329.085 450.857 328.935C464.438 328.784 480.366 325.563 489.761 309.368" stroke="#2A1E17" stroke-miterlimit="10" stroke-linecap="round" stroke-linejoin="round"/>
<path d="M415.747 335.708C415.747 335.708 432.579 350.669 451.429 345.853" stroke="#2A1E17" stroke-miterlimit="10" stroke-linecap="round" stroke-linejoin="round"/>
<path d="M433.423 358.045C433.423 358.045 442.245 364.668 454.621 358.406" stroke="#2A1E17" stroke-miterlimit="10" stroke-linecap="round" stroke-linejoin="round"/>
<path d="M392.802 367.256C392.802 367.256 413.187 387.516 445.286 374.15" stroke="#2A1E17" stroke-miterlimit="10" stroke-linecap="round" stroke-linejoin="round"/>
<path d="M403.884 347.479C403.884 347.479 412.195 353.439 417.404 355.335" stroke="#2A1E17" stroke-miterlimit="10" stroke-linecap="round" stroke-linejoin="round"/>
<path d="M466.636 267.194C466.636 267.194 485.245 273.275 487.473 297.839" stroke="#2A1E17" stroke-miterlimit="10" stroke-linecap="round" stroke-linejoin="round"/>
<path d="M475.971 297.538C475.971 297.538 484.553 310.783 470.069 324.058" stroke="#2A1E17" stroke-miterlimit="10" stroke-linecap="round" stroke-linejoin="round"/>
<path d="M367.689 390.436C367.689 390.436 414.422 430.443 448.358 383.663" stroke="#2A1E17" stroke-miterlimit="10" stroke-linecap="round" stroke-linejoin="round"/>
<path d="M30.0776 238H41.0776" stroke="url(#paint3_linear_601_8923)" stroke-miterlimit="10"/>
<path d="M637.078 107H647.078" stroke="url(#paint4_linear_601_8923)" stroke-miterlimit="10"/>
<path d="M345.078 33H356.078" stroke="#FAD8B0" stroke-miterlimit="10"/>
<path d="M659.078 164L668.078 166" stroke="#FAD8B0" stroke-miterlimit="10"/>
<path d="M230.078 435H241.078" stroke="#A0C6F4" stroke-miterlimit="10" stroke-linecap="round" stroke-linejoin="round"/>
<path d="M681.578 302C683.511 302 685.078 300.657 685.078 299C685.078 297.343 683.511 296 681.578 296C679.645 296 678.078 297.343 678.078 299C678.078 300.657 679.645 302 681.578 302Z" fill="#399EFD"/>
<path d="M3.61337 122.79C1.62602 122.79 0 124.416 0 126.403C0 128.389 1.62602 130.015 3.61337 130.015C5.60072 130.015 7.22673 128.389 7.22673 126.403C7.22673 124.416 5.60072 122.79 3.61337 122.79Z" fill="#A0C6F4"/>
<defs>
<linearGradient id="paint0_linear_601_8923" x1="192.686" y1="292.702" x2="313.597" y2="292.702" gradientUnits="userSpaceOnUse">
<stop stop-color="#3D5475"/>
<stop offset="0.2549" stop-color="#364F6F"/>
<stop offset="0.6276" stop-color="#22425F"/>
<stop offset="1" stop-color="#083149"/>
</linearGradient>
<linearGradient id="paint1_linear_601_8923" x1="259.235" y1="363.878" x2="366.386" y2="363.878" gradientUnits="userSpaceOnUse">
<stop stop-color="#3D5475"/>
<stop offset="0.2549" stop-color="#364F6F"/>
<stop offset="0.6276" stop-color="#22425F"/>
<stop offset="1" stop-color="#083149"/>
</linearGradient>
<linearGradient id="paint2_linear_601_8923" x1="207.407" y1="189.478" x2="362.02" y2="189.478" gradientUnits="userSpaceOnUse">
<stop stop-color="#3D5475"/>
<stop offset="0.2549" stop-color="#364F6F"/>
<stop offset="0.6276" stop-color="#22425F"/>
<stop offset="1" stop-color="#083149"/>
</linearGradient>
<linearGradient id="paint3_linear_601_8923" x1="-nan" y1="-nan" x2="-nan" y2="-nan" gradientUnits="userSpaceOnUse">
<stop stop-color="#3D5475"/>
<stop offset="0.2549" stop-color="#364F6F"/>
<stop offset="0.6276" stop-color="#22425F"/>
<stop offset="1" stop-color="#083149"/>
</linearGradient>
<linearGradient id="paint4_linear_601_8923" x1="-nan" y1="-nan" x2="-nan" y2="-nan" gradientUnits="userSpaceOnUse">
<stop stop-color="#3D5475"/>
<stop offset="0.2549" stop-color="#364F6F"/>
<stop offset="0.6276" stop-color="#22425F"/>
<stop offset="1" stop-color="#083149"/>
</linearGradient>
</defs>
</svg>
