<svg width="198" height="324" viewBox="0 0 198 324" fill="none" xmlns="http://www.w3.org/2000/svg">
<g clip-path="url(#clip0_147_93)">
<path d="M92.375 45.7556L88.9065 59.6529L88.2833 62.2265C87.5788 65.5044 65.9009 64.1228 67.4455 60.276L68.7461 57.4315L75.4121 42.8027L92.375 45.7556Z" fill="#F7A58E"/>
<path d="M105.056 25.1397C105.272 40.202 98.2813 52.4468 87.334 52.3926C76.3867 52.3384 65.7917 43.0464 65.4123 24.9501C65.1684 13.4096 74.3815 4.09059 85.3288 4.14477C96.2761 4.19895 104.893 13.5993 105.056 25.1397Z" fill="#F7A58E"/>
<path d="M85.6814 0C85.6814 0 107.495 1.08361 109.31 17.5816C111.722 32.0749 100.856 21.4284 96.4119 31.1538C91.3176 42.288 96.5203 50.4421 103.132 52.6635C97.252 60.8719 63.6513 60.5739 55.0073 46.189C49.0458 28.1197 57.446 1.00234 85.6814 0Z" fill="black"/>
<path d="M96.8993 34.9464C94.6545 34.9464 92.8347 33.1271 92.8347 30.8829C92.8347 28.6386 94.6545 26.8193 96.8993 26.8193C99.1441 26.8193 100.964 28.6386 100.964 30.8829C100.964 33.1271 99.1441 34.9464 96.8993 34.9464Z" fill="#F7A58E"/>
<path d="M97.6315 310.78C98.6612 309.696 103.485 309.669 103.918 311.295C104.352 312.893 103.512 314.031 105.544 316.577C104.379 316.902 100.206 316.957 98.9593 316.577C97.6586 316.198 96.6018 311.864 97.6315 310.78Z" fill="white"/>
<path d="M89.6654 316.252H101.426C102.537 266.541 102.32 212.415 101.913 171.671C101.778 157.07 101.371 149.701 98.7159 140.924C93.3777 123.234 68.2314 128.679 66.443 144.716C65.7114 153.629 65.1423 170.994 81.6175 229.97C74.4638 255.949 86.9014 287.103 89.6654 316.252Z" fill="url(#paint0_linear_147_93)"/>
<path d="M107.982 317.011C106.248 316.929 102.211 315.25 101.452 314.112C100.341 315.358 97.9833 315.71 95.1652 315.304C91.8323 314.816 91.3987 313.245 88.987 313.462C87.9844 316.252 85.5186 322.564 87.9031 324.027C87.9031 324.027 101.912 324.027 112.616 324.027C114.811 321.995 114.757 317.688 107.982 317.011Z" fill="#121212"/>
<path d="M37.8006 312.053C38.6677 311.132 42.7052 311.132 43.0846 312.487C43.464 313.841 42.7323 314.789 44.4395 316.929C43.464 317.2 39.9684 317.227 38.8845 316.929C37.8277 316.604 36.9335 312.947 37.8006 312.053Z" fill="white"/>
<path d="M76.5223 144.256C74.1106 125.916 41.5126 127.812 39.3448 143.822C38.5589 152.437 36.1744 165.386 42.2984 229.347C29.373 253.755 33.0311 288.783 29.1562 314.573C28.7226 318.501 39.8325 319.449 40.6996 315.954C52.5412 268.113 69.0976 214.447 75.2487 174.651C77.4978 160.212 77.7145 153.331 76.5223 144.256Z" fill="url(#paint1_linear_147_93)"/>
<path d="M46.5259 316.252C44.7917 316.171 42.2446 313.895 41.4858 312.758C40.3748 314.004 38.2071 315.71 35.3889 315.277C32.056 314.789 31.6224 313.218 29.2107 313.435C28.2081 316.225 25.7423 322.537 28.1269 324C28.1269 324 41.4587 324 52.1622 324C54.3841 321.995 53.3002 316.929 46.5259 316.252Z" fill="#121212"/>
<path d="M180.441 118.358L181.66 112.235C178.679 111.07 174.154 108.659 168.897 106.6L165.998 116.515C171.824 117.409 176.972 118.032 180.441 118.358Z" fill="#F7A58E"/>
<path d="M168.87 106.627C158.736 101.914 141.339 91.6466 137.356 89.8044L94.4609 63.4726C85.2207 60.6553 74.436 78.9683 86.115 87.2308C86.115 87.2308 152.422 114.511 165.971 116.543L168.87 106.627Z" fill="#399EFD"/>
<path d="M184.776 123.261C188.922 122.015 190.358 115.92 190.467 115.432L181.877 112.289C177.704 110.61 175.319 115.649 177.948 119.306C177.948 119.333 180.82 124.182 184.776 123.261Z" fill="#F7A58E"/>
<path d="M188.462 117.843C198.379 119.983 198 117.545 198 117.545C198 117.545 194.667 116.434 188.624 114.782C185.129 113.996 186.077 117.057 188.462 117.843Z" fill="#F7A58E"/>
<path d="M101.642 89.6419C103.701 79.6185 104.812 69.7034 94.4611 63.4998C88.3372 59.8155 68.6374 57.1606 59.4243 60.2218C50.13 64.3667 52.1352 82.463 50.4009 111.016C44.006 125.266 41.2149 129.952 39.3181 143.85C39.3181 143.85 42.7324 154.306 66.849 154.334C77.7963 154.334 93.9192 153.358 101.263 147.778C100.531 138.296 96.5747 129.194 94.9218 115.784C94.9218 115.757 101.479 90.7797 101.642 89.6419Z" fill="#399EFD"/>
<path d="M54.4659 62.1992C43.1393 70.841 32.1107 84.4133 26.908 91.6193C21.6782 98.8253 8.18374 127.812 8.18374 127.812L16.7736 134.151L40.0231 102.455L68.4482 79.1577C78.3116 69.1343 65.4945 53.8012 54.4659 62.1992Z" fill="#399EFD"/>
<path d="M4.57965 135.207L10.1617 123.694C11.4624 127.162 17.8573 130.304 19.6729 130.25C19.6729 130.25 13.6843 138.865 12.2211 140.328C10.7578 141.79 4.68804 139.298 4.57965 135.207Z" fill="#F7A58E"/>
<path d="M13.6299 138.404C13.6028 138.485 13.6299 138.594 13.6028 138.702C13.3318 142.901 10.1072 144.879 9.2401 145.339C9.1588 145.393 9.10463 145.421 9.02333 145.421C12.0582 144.825 12.9524 148.861 11.4079 149.809C6.93683 152.816 0.596059 148.671 0.0541124 146.152C-0.487833 143.605 4.57938 135.153 4.57938 135.153C7.18072 133.067 13.7925 133.392 13.6299 138.404Z" fill="#F7A58E"/>
<path d="M13.6035 138.702C13.4138 143.443 9.15956 145.393 9.07827 145.393C6.58532 145.312 5.69112 145.177 3.30655 145.177C4.8511 144.418 8.04857 142.413 6.82919 138.485C9.26795 136.616 12.9261 138.242 13.6035 138.702Z" fill="#E6856A"/>
<path d="M13.6574 138.16C14.3077 142.061 14.0368 147.642 13.1154 150.08C13.1154 150.08 10.7309 150.216 10.9477 145.692C11.0019 144.527 10.8393 141.953 9.6741 141.113C6.09726 138.729 5.50111 136.562 6.82887 134.774C8.5631 132.39 13.5219 134.801 13.6574 138.16Z" fill="#F7A58E"/>
<path d="M2.54764 148.834C4.49865 150.188 9.64713 152.789 10.4601 152.166C11.273 151.516 7.15417 147.127 4.49863 146.558C1.8431 145.962 1.57214 148.13 2.54764 148.834Z" fill="#F7A58E"/>
</g>
<defs>
<linearGradient id="paint0_linear_147_93" x1="102.217" y1="223.098" x2="66.1406" y2="223.098" gradientUnits="userSpaceOnUse">
<stop stop-color="#3D5475"/>
<stop offset="0.2549" stop-color="#364F6F"/>
<stop offset="0.6276" stop-color="#22425F"/>
<stop offset="1" stop-color="#083149"/>
</linearGradient>
<linearGradient id="paint1_linear_147_93" x1="77.2317" y1="224.636" x2="29.1388" y2="224.636" gradientUnits="userSpaceOnUse">
<stop stop-color="#3D5475"/>
<stop offset="0.2549" stop-color="#364F6F"/>
<stop offset="0.6276" stop-color="#22425F"/>
<stop offset="1" stop-color="#083149"/>
</linearGradient>
<clipPath id="clip0_147_93">
<rect width="198" height="324" fill="white" transform="matrix(-1 0 0 1 198 0)"/>
</clipPath>
</defs>
</svg>
