<svg width="73" height="98" viewBox="0 0 73 98" fill="none" xmlns="http://www.w3.org/2000/svg">
<g clip-path="url(#clip0_147_124)">
<path d="M36.4202 61.4083C36.5905 60.2545 40.564 32.938 32.6056 23.5045C30.8459 21.412 28.6207 20.3261 25.9981 20.2582C9.93357 19.8849 7.73108 32.7457 7.71973 32.8815L9.61568 33.1756C9.6838 32.7118 11.5911 21.8305 25.9641 22.1811C28.0417 22.2264 29.7446 23.0747 31.1524 24.7374C38.5659 33.5149 34.581 60.854 34.5356 61.1255L36.4202 61.4083Z" fill="#407BFF"/>
<path d="M37.3973 60.1642L39.316 60.1076C39.3046 59.8588 38.6802 34.9402 50.9983 29.7937C63.0779 24.7489 68.5046 35.1212 68.7317 35.5624L70.446 34.7027C70.3779 34.5783 64.0088 22.283 50.2603 28.0291C36.7275 33.6847 37.3633 59.0896 37.3973 60.1642Z" fill="#407BFF"/>
<path d="M37.3405 62.1209C37.3405 61.725 37.4541 22.3169 45.1628 10.7908C52.565 -0.271538 64.5083 4.9316 65.0192 5.15782L65.8139 3.4159C65.6777 3.35935 51.8951 -2.70344 43.5734 9.72754C35.5468 21.7287 35.4219 60.4695 35.4219 62.1209H37.3405Z" fill="#407BFF"/>
<path d="M23.7051 21.2086C23.7051 21.2086 30.7212 23.7875 28.6323 29.8729C26.5433 35.947 4.35949 45.9687 4.35949 45.9687C4.35949 45.9687 -4.9273 37.4853 3.59883 23.6857C12.1363 9.88607 23.512 16.8538 23.7051 21.2086Z" fill="#407BFF"/>
<path d="M45.5141 8.72102C45.5141 8.72102 40.5302 8.18939 40.9389 5.16931C41.3476 2.14923 60.2958 -5.63286 71.4899 6.94517C71.4899 6.94517 64.3261 19.2065 53.9722 19.3648C43.6068 19.5119 45.5141 8.72102 45.5141 8.72102Z" fill="#407BFF"/>
<path d="M50.6232 28.9113C50.6232 28.9113 47.1832 26.1514 50.8957 24.794C54.6081 23.448 72.807 23.8326 73 41.7947C73 41.7947 51.8039 45.3012 49.1814 38.4579C46.5588 31.6147 50.6232 28.9113 50.6232 28.9113Z" fill="#407BFF"/>
<path opacity="0.2" d="M23.7051 21.2086C23.7051 21.2086 30.7212 23.7875 28.6323 29.8729C26.5433 35.947 4.35949 45.9687 4.35949 45.9687C4.35949 45.9687 -4.9273 37.4853 3.59883 23.6857C12.1363 9.88607 23.512 16.8538 23.7051 21.2086Z" fill="black"/>
<path opacity="0.2" d="M45.5141 8.72102C45.5141 8.72102 40.5302 8.18939 40.9389 5.16931C41.3476 2.14923 60.2958 -5.63286 71.4899 6.94517C71.4899 6.94517 64.3261 19.2065 53.9722 19.3648C43.6068 19.5119 45.5141 8.72102 45.5141 8.72102Z" fill="black"/>
<path opacity="0.2" d="M50.6232 28.9113C50.6232 28.9113 47.1832 26.1514 50.8957 24.794C54.6081 23.448 72.807 23.8326 73 41.7947C73 41.7947 51.8039 45.3012 49.1814 38.4579C46.5588 31.6147 50.6232 28.9113 50.6232 28.9113Z" fill="black"/>
<path d="M19.9363 97.9999H52.8374L56.3795 62.1208H16.3828L19.9363 97.9999Z" fill="#407BFF"/>
<path opacity="0.5" d="M19.9363 97.9999H52.8374L56.3795 62.1208H16.3828L19.9363 97.9999Z" fill="white"/>
<path d="M14.6378 66.0757H58.1426V58.1579L14.6378 58.1579V66.0757Z" fill="#407BFF"/>
<path opacity="0.2" d="M14.6378 66.0757H58.1426V58.1579L14.6378 58.1579V66.0757Z" fill="white"/>
</g>
<defs>
<clipPath id="clip0_147_124">
<rect width="73" height="98" fill="white"/>
</clipPath>
</defs>
</svg>
