<svg width="164" height="159" viewBox="0 0 164 159" fill="none" xmlns="http://www.w3.org/2000/svg">
<g clip-path="url(#clip0_147_43)">
<path d="M127.336 104.227C132.962 96.012 127.775 70.486 103.708 63.1535C83.3723 57.8884 72.8067 64.3388 45.2812 71.8643L49.3977 104.227H127.336Z" fill="#50318F"/>
<path d="M78.2681 64.4768C78.2681 64.4768 28.9803 74.7037 10.8129 81.4298C0.384535 85.289 -2.19512 93.9447 1.81158 100.616C7.76673 110.484 78.4602 103.483 78.4602 103.483C102.83 96.6462 89.9314 64.0633 78.2681 64.4768Z" fill="#399EFD"/>
<path d="M101.211 61.72C101.211 61.72 132.688 72.4431 150.389 80.3821C167.568 81.7328 166.443 103.179 158.32 104.557C139.631 109.657 98.4389 100.643 98.4389 100.643C74.5359 92.1252 89.6022 60.5071 101.211 61.72Z" fill="#399EFD"/>
<path d="M51.3192 83.7728C51.3192 83.7728 41.3848 68.6115 66.0287 56.8685C90.6451 45.1254 107.221 56.8685 103.104 71.0925C98.9878 85.3164 84.4979 94.7991 84.4979 94.7991C84.4979 94.7991 59.9363 94.8818 51.3192 83.7728Z" fill="#407BFF"/>
<path d="M79.0365 81.7329C90.892 73.4631 86.1169 57.3922 86.1169 57.3922L81.6436 48.7916L77.9114 41.6245L58.1523 49.2603L61.7474 63.9529C61.7474 63.9529 62.7353 67.3986 64.8759 71.2578C67.5653 76.1646 72.1758 81.7053 79.0365 81.7329Z" fill="#F7A28A"/>
<path d="M64.8485 71.2578C74.3438 65.1106 79.2012 55.8209 81.6436 48.7641L77.9114 41.5969L58.1523 49.2327L61.7474 63.9253C61.7199 63.9804 62.7079 67.4262 64.8485 71.2578Z" fill="#F0896C"/>
<path d="M35.3743 22.7143C35.3743 22.7143 30.8188 23.9272 30.1601 29.3852C29.5015 34.8433 34.9078 37.0761 34.9078 37.0761C34.9078 37.0761 31.3676 43.8849 38.8322 46.6415C54.0631 52.2649 52.5812 19.3237 35.3743 22.7143Z" fill="#3D3D3D"/>
<path d="M39.7106 40.3015C44.3759 54.112 54.0634 67.068 61.8846 63.8428C75.1122 58.3847 86.2267 43.5267 80.7381 27.8693C75.2494 12.2119 63.4214 5.04473 50.9074 9.48284C38.3933 13.9209 34.4141 24.5889 39.7106 40.3015Z" fill="#F7A28A"/>
<path d="M33.3163 22.4663C36.1155 24.837 46.4615 28.8891 67.8946 18.4692C71.4622 21.0604 74.0967 24.9748 75.908 29.3578C77.9388 28.8891 78.7346 27.8141 80.1342 29.5507C82.0552 31.949 83.0706 37.214 80.6831 39.1437C80.0793 39.6398 79.3932 39.9706 78.7072 40.1636C77.8564 43.8298 78.6523 47.882 81.6161 48.7917C86.1717 45.0979 85.6228 44.2433 87.2969 40.0258C92.6208 36.2768 92.6208 28.0622 88.3397 25.8018C92.4013 21.9701 87.489 13.5901 81.4789 13.3144C81.5064 8.68335 75.6335 0.386021 68.2513 5.23762C68.4709 0.248191 59.4421 -3.03215 54.5847 4.32794C50.6603 -1.04741 38.7226 2.20537 39.1891 9.34493C31.999 8.0769 28.0472 17.8077 33.3163 22.4663Z" fill="#3D3D3D"/>
<path d="M1.81137 96.8942C1.81137 96.8942 0.576432 108.913 22.6132 110.842C47.7237 113.048 68.9098 112.386 68.9098 112.386L71.1601 102.876C71.1601 102.876 26.6199 87.7147 15.725 87.0531C2.74444 86.2537 1.81137 96.8942 1.81137 96.8942Z" fill="#F7A28A"/>
<path d="M70.6111 102.683L84.6619 99.7334C84.6619 99.7334 93.7182 104.089 96.5448 109.74C94.4866 112.055 88.8607 107.176 88.8607 107.176C88.8607 107.176 89.437 116.631 88.0375 118.451C86.6653 120.242 79.7496 121.455 77.4993 119.498C75.249 117.541 79.1733 115.225 79.1733 115.225L68.8822 112.414C68.8822 112.414 64.1071 105.191 70.6111 102.683Z" fill="#F7A28A"/>
<path d="M78.2958 22.0803C78.2958 21.8597 78.1311 21.6943 77.9115 21.6943C77.692 21.6943 77.5273 21.8597 77.5273 22.0803C77.5273 22.3008 77.692 22.4662 77.9115 22.4662C78.1036 22.4662 78.2958 22.3008 78.2958 22.0803Z" fill="#F7A28A"/>
<path d="M159.253 90.0302C159.253 90.0302 166.69 99.5404 149.044 112.937C128.956 128.209 110.678 138.987 110.678 138.987L103.735 132.123C103.735 132.123 133.401 95.4606 142.265 89.0929C152.831 81.5123 159.253 90.0302 159.253 90.0302Z" fill="#F7A28A"/>
<path d="M103.708 132.151L95.8594 144.225C95.8594 144.225 96.6003 154.286 100.827 158.972C103.736 157.897 101.238 150.841 101.238 150.841C101.238 150.841 109.8 154.81 111.996 154.176C114.164 153.542 117.786 147.505 116.798 144.693C115.811 141.854 112.215 144.693 112.215 144.693L113.917 135.707C115.317 130.69 107.001 127.079 103.708 132.151Z" fill="#F7A28A"/>
</g>
<defs>
<clipPath id="clip0_147_43">
<rect width="164" height="159" fill="white"/>
</clipPath>
</defs>
</svg>
