<svg width="188" height="314" viewBox="0 0 188 314" fill="none" xmlns="http://www.w3.org/2000/svg">
<g clip-path="url(#clip0_147_195)">
<path d="M134.044 71.6379C130.7 72.1783 123.156 96.8795 120.127 100.111C118.54 101.799 101.166 96.8795 101.166 96.8795L99.1172 103.263C99.1172 103.263 118.112 111.099 123.28 109.196C131.939 105.999 136.229 88.1767 136.229 88.1767L134.044 71.6379Z" fill="#1A2E35"/>
<path d="M136.24 88.1655C136.24 88.1655 135.385 91.7344 133.651 95.9676C132.131 99.7167 129.912 103.984 127.019 106.753C125.881 107.834 124.643 108.69 123.292 109.185C118.124 111.088 99.1289 103.252 99.1289 103.252L101.167 96.8683C101.167 96.8683 118.54 101.788 120.128 100.1C123.157 96.8683 130.712 72.1671 134.045 71.6267L136.24 88.1655Z" fill="#399EFD"/>
<path d="M100.457 96.9808L93.87 91.0476L90.5146 98.8835C90.5146 98.8835 97.5856 103.466 99.4322 101.586L100.457 96.9808Z" fill="#FCC1BB"/>
<path d="M85.9774 91.9371L85.0654 97.9829L90.515 98.8723L93.8704 91.0364L85.9774 91.9371Z" fill="#FCC1BB"/>
<path d="M103.441 96.9019L100.964 104.749L97.8115 103.342L100.052 95.99L103.441 96.9019Z" fill="#407BFF"/>
<path opacity="0.7" d="M103.441 96.9019L100.964 104.749L97.8115 103.342L100.052 95.99L103.441 96.9019Z" fill="white"/>
<path opacity="0.2" d="M133.65 95.9675C132.13 99.7166 129.912 103.984 127.019 106.753C126.309 96.3277 132.862 88.0527 132.862 88.0527C133.527 90.2256 133.74 93.029 133.65 95.9675Z" fill="black"/>
<path d="M140.733 48.468C141.51 52.6111 140.733 58.0265 140.733 58.0265C140.733 58.0265 159.998 60.6947 164.67 57.137C169.343 53.5794 171.415 32.3908 161 30.353C150.574 28.3265 138.278 35.4531 140.733 48.468Z" fill="#1A2E35"/>
<path d="M125.533 313.583H123.922L123.472 311.591L118.135 314H104.612C104.612 314 102.462 311.838 108.902 310.116C109.195 310.037 109.499 309.924 109.814 309.767C113.248 308.157 118.135 302.719 118.135 302.719H125.555C125.555 302.719 125.814 303.091 126.163 303.789C126.974 305.421 128.37 308.844 125.533 313.583Z" fill="#121212"/>
<path d="M126.162 303.789C126.162 303.8 126.162 303.811 126.162 303.811C125.183 302.719 120.724 307.515 117.459 309.148C114.542 310.6 111.266 311.242 109.813 309.767C113.248 308.157 118.652 301.132 118.652 301.132H124.62C124.608 301.12 125.813 303.09 126.162 303.789Z" fill="#FFC2BC"/>
<path d="M118.135 302.719L121.535 273.616L132.209 276.757L124.778 302.967" fill="#FFC2BC"/>
<path d="M164.333 124.44L135.17 123.067C135.17 123.067 127.379 173.257 126.67 205.333C124.384 226.848 121.693 263.607 119.069 286.101C119.069 286.101 121.028 287.509 124.609 288.173C127.604 288.725 129.507 288.398 129.507 288.398C136.24 269.09 144.189 237.082 143.649 206.132C164.242 156.111 164.333 124.44 164.333 124.44Z" fill="#1A2E35"/>
<path d="M164.333 124.429C164.333 124.429 164.288 142.206 155.606 172.143C153.321 180.024 150.438 188.749 146.802 198.217C145.811 200.796 144.764 203.43 143.66 206.121C144.201 237.071 136.263 269.09 129.518 288.398C129.518 288.398 127.615 288.713 124.62 288.162C121.028 287.498 119.069 286.09 119.069 286.09C121.693 263.596 124.395 226.848 126.67 205.322C127.39 173.257 135.182 123.067 135.182 123.067L164.333 124.429Z" fill="url(#paint0_linear_147_195)"/>
<path opacity="0.2" d="M155.606 172.143C153.32 180.024 150.438 188.749 146.801 198.217C144.313 172.649 150.235 158.205 150.235 158.205C152.87 161.481 154.581 166.457 155.606 172.143Z" fill="black"/>
<path d="M167.215 313.583H165.605L165.155 311.591L159.818 314H146.295C146.295 314 144.144 311.838 150.585 310.116C150.878 310.037 151.182 309.924 151.497 309.767C154.931 308.157 159.818 302.719 159.818 302.719H167.238C167.238 302.719 167.497 303.091 167.846 303.789C168.656 305.421 170.053 308.844 167.215 313.583Z" fill="#121212"/>
<path d="M167.845 303.789C167.845 303.8 167.845 303.811 167.845 303.811C166.865 302.719 162.407 307.515 159.141 309.148C156.225 310.6 152.949 311.242 151.496 309.767C154.93 308.157 160.335 301.132 160.335 301.132H166.302C166.291 301.12 167.496 303.09 167.845 303.789Z" fill="#FFC2BC"/>
<path d="M159.817 302.719L159.671 271.567L171.066 272.062L166.123 302.741L159.817 302.719Z" fill="#FFC2BC"/>
<path d="M158.635 288.893C158.635 288.893 161.574 289.895 164.119 290.166C167.114 290.492 168.724 289.986 168.724 289.986C173.926 268.065 179.229 232.725 173.273 211.457C184.645 142.713 169.557 124.328 169.557 124.328L143.976 121.547C143.976 121.547 152.218 179.731 154.999 208.159C157.397 232.59 159.514 261.096 158.635 288.893Z" fill="#1A2E35"/>
<path d="M158.635 288.893C158.635 288.893 161.574 289.895 164.119 290.166C167.114 290.492 168.724 289.986 168.724 289.986C173.926 268.065 179.229 232.725 173.273 211.457C184.645 142.713 169.557 124.328 169.557 124.328L143.976 121.547C143.976 121.547 152.218 179.731 154.999 208.159C157.397 232.59 159.514 261.096 158.635 288.893Z" fill="url(#paint1_linear_147_195)"/>
<path d="M164.58 68.6995C164.58 68.6995 144.662 78.5619 146.373 69.5551C146.373 69.5551 139.032 69.4876 134.202 72.4373C134.202 72.4373 131.33 84.4276 134.202 116.661L132.152 132.254L143.941 135.811L147.826 124.508L152.532 136.408L173.002 130.013L168.87 118.001C168.87 118.001 170.953 90.3834 177.179 77.7626C177.179 77.7626 176.188 68.5756 164.58 68.6995Z" fill="#407BFF"/>
<path d="M164.58 68.6995C164.58 68.6995 144.662 78.5619 146.373 69.5551C146.373 69.5551 139.032 69.4876 134.202 72.4373C134.202 72.4373 131.578 85.3733 134.202 116.661L132.152 132.254L143.941 135.811L147.826 124.508L152.532 136.408L173.002 130.013L168.87 118.001C168.87 118.001 170.953 90.3834 177.179 77.7626C177.179 77.7626 176.188 68.5756 164.58 68.6995Z" fill="white"/>
<path d="M163.33 51.5527C161.956 56.6416 160.267 65.9524 163.567 69.3524C163.567 69.3524 168.082 72.9664 154.66 72.5611C153.489 75.3532 149.076 81.3315 149.076 81.3315C149.076 81.3315 147.026 75.6685 147.961 73.6307C139.325 72.8876 147.758 69.3524 147.758 69.3524C153.534 68.0014 153.692 63.7907 153.005 59.839L163.33 51.5527Z" fill="#FCC1BB"/>
<path opacity="0.2" d="M159.13 54.9302L153.027 59.8276C153.196 60.7621 153.309 61.7078 153.309 62.631C155.493 62.3158 158.657 59.9402 159.051 57.6773C159.243 56.5514 159.276 55.4593 159.13 54.9302Z" fill="black"/>
<path d="M167.676 41.3526C166.133 49.5601 165.649 53.0615 160.965 57.002C153.917 62.924 144.233 59.7941 143.31 51.4178C142.477 43.8858 145.145 31.7266 153.601 29.0133C161.945 26.3338 169.218 33.1339 167.676 41.3526Z" fill="#FCC1BB"/>
<path d="M160.616 35.4192C165.142 41.2623 155.842 47.9949 165.142 47.6009C174.454 47.2068 170.671 34.0682 165.142 31.0846C159.614 28.1011 160.616 35.4192 160.616 35.4192Z" fill="#1A2E35"/>
<path d="M154.671 42.7148C154.57 43.4128 154.13 43.942 153.68 43.9082C153.23 43.8744 152.959 43.289 153.049 42.5909C153.151 41.8929 153.59 41.3638 154.04 41.3975C154.491 41.4313 154.772 42.0167 154.671 42.7148Z" fill="#1A2E35"/>
<path d="M146.283 42.2194C146.182 42.9174 145.743 43.4466 145.292 43.4128C144.842 43.379 144.572 42.7936 144.662 42.0956C144.763 41.3975 145.202 40.8684 145.653 40.9022C146.103 40.9359 146.384 41.5214 146.283 42.2194Z" fill="#1A2E35"/>
<path d="M145.843 40.9586L144.278 40.3619C144.278 40.3506 144.931 41.7242 145.843 40.9586Z" fill="#1A2E35"/>
<path d="M148.456 43.5366C148.456 43.5366 146.869 46.4413 145.394 47.7923C146.17 48.7155 147.758 48.4341 147.758 48.4341L148.456 43.5366Z" fill="#EB827E"/>
<path d="M151.293 51.2825C150.933 51.3162 150.55 51.3275 150.134 51.2937C150.021 51.2825 149.942 51.1924 149.965 51.0798C149.976 50.9672 150.077 50.8884 150.19 50.8884C153.174 51.1136 154.874 49.0871 154.896 49.0645C154.975 48.9745 155.099 48.952 155.178 49.0195C155.257 49.0871 155.268 49.2109 155.2 49.301C155.144 49.391 153.77 51.0235 151.293 51.2825Z" fill="#1A2E35"/>
<path d="M157.013 38.977C156.912 38.977 156.8 38.9432 156.732 38.8531C155.572 37.5472 154.097 37.8286 154.075 37.8286C153.861 37.8737 153.647 37.7273 153.624 37.5021C153.602 37.277 153.748 37.063 153.973 37.018C154.052 37.0067 155.899 36.6465 157.351 38.2677C157.498 38.4253 157.475 38.6843 157.306 38.8419C157.216 38.9432 157.115 38.977 157.013 38.977Z" fill="#1A2E35"/>
<path d="M144.392 38.234C144.29 38.2452 144.189 38.2115 144.11 38.1439C143.953 37.9976 143.941 37.7499 144.099 37.5697C145.653 35.8247 147.499 36.0161 147.578 36.0273C147.803 36.0498 147.95 36.2525 147.905 36.4777C147.86 36.7028 147.657 36.8604 147.432 36.8379C147.364 36.8267 145.923 36.7141 144.696 38.0876C144.606 38.1777 144.504 38.2227 144.392 38.234Z" fill="#1A2E35"/>
<path d="M154.232 41.4539L152.667 40.8572C152.667 40.846 153.32 42.2195 154.232 41.4539Z" fill="#1A2E35"/>
<path d="M157.441 30.8596C157.441 30.8596 159.051 40.5419 165.48 42.1519C171.91 43.7731 166.685 32.1993 166.685 32.1993C166.685 32.1993 165.334 26.9529 156.653 26.9529C147.972 26.9529 137.94 35.7796 140.732 48.4566C140.732 48.4566 140.259 44.2234 142.185 40.8909C144.11 37.5584 146.08 40.4406 157.441 30.8596Z" fill="#1A2E35"/>
<path d="M163.285 28.4165C172.461 32.0868 175.805 38.0988 175.029 44.7864C174.252 51.4627 166.01 58.533 164.67 58.792L160.549 59.3774C160.549 59.3774 166.899 50.5507 165.672 47.556C164.445 44.5612 163.229 44.2685 163.229 44.2685L163.285 28.4165Z" fill="#1A2E35"/>
<path d="M168.475 49.2673C167.631 50.9561 166.257 51.9918 164.985 52.3296C163.07 52.8362 162.249 50.6408 162.879 48.4567C163.453 46.4864 165.131 43.8519 167 44.3248C168.847 44.7864 169.432 47.3421 168.475 49.2673Z" fill="#FCC1BB"/>
<path d="M167.891 69.071C161.675 74.8467 158.331 105.29 159.221 115.118C160.11 124.947 167.891 151.258 167.891 151.258L180.152 150.256C180.152 150.256 177.18 132.006 169.613 117.46C169.613 117.46 174.432 81.2865 178.891 72.2797C178.891 72.2797 174.669 70.6022 173.363 70.2307C171.91 69.8029 167.891 69.071 167.891 69.071Z" fill="#1A2E35"/>
<path d="M180.152 150.256L167.879 151.258C167.879 151.258 165.278 142.465 162.925 133.143C161.934 129.259 161 125.285 160.302 121.828C159.772 119.216 159.378 116.897 159.221 115.118C159.119 114.004 159.074 112.608 159.074 111.02C159.119 98.6809 162.373 74.1937 167.879 69.071C167.879 69.071 168.836 69.2399 169.985 69.4651C171.201 69.7128 172.619 70.0055 173.363 70.2194C174.669 70.6022 178.891 72.2797 178.891 72.2797C178.294 73.4956 177.686 75.1957 177.078 77.2335C176.909 77.8302 176.729 78.4606 176.56 79.1136C174.601 86.4204 172.755 96.8908 171.448 105.042C170.322 112.124 169.613 117.449 169.613 117.449C170.413 118.991 171.167 120.567 171.854 122.166C177.776 135.665 180.152 150.256 180.152 150.256Z" fill="#399EFD"/>
<path d="M167.891 69.071C167.891 69.071 172.698 78.9673 171.584 89.0999L164.344 83.4257L168.465 88.7734L159.221 105.695C159.221 105.695 159.964 75.4434 167.891 69.071Z" fill="#407BFF"/>
<path d="M143.986 69.5889C143.986 69.5889 136.499 82.4123 137.827 115.377L133.369 148.781H128.471L133.92 115.377C133.92 115.377 128.099 90.1357 134.033 71.6379C134.044 71.6379 138.874 69.5889 143.986 69.5889Z" fill="#1A2E35"/>
<path d="M143.986 69.5889C143.986 69.5889 136.499 82.4123 137.827 115.377L133.369 148.781H128.471L133.92 115.377C133.92 115.377 128.099 90.1357 134.033 71.6379C134.044 71.6379 138.874 69.5889 143.986 69.5889Z" fill="#399EFD"/>
<path d="M145.067 69.5888C145.067 69.5888 143.919 68.9583 141.318 70.0054C138.728 71.0524 132.49 84.7878 132.49 84.7878L137.242 82.0407L134.573 84.7878L137.805 101.259C137.793 101.27 141.385 71.6154 145.067 69.5888Z" fill="#407BFF"/>
<path d="M151.868 67.2922C151.868 67.2922 147.443 70.3771 147.972 73.6195L140.417 75.4772C140.417 75.4772 144.876 67.8326 151.868 67.2922Z" fill="#407BFF"/>
<path d="M165.345 76.8281L154.772 73.3943C154.772 73.3943 160.368 68.8796 162.114 66.4365L165.604 69.0598C165.604 69.0598 165.604 69.0598 165.615 69.071C165.694 69.2624 166.73 71.8294 165.345 76.8281Z" fill="#407BFF"/>
<path opacity="0.6" d="M151.868 67.2922C151.868 67.2922 147.443 70.3771 147.972 73.6195L140.417 75.4772C140.417 75.4772 144.876 67.8326 151.868 67.2922Z" fill="white"/>
<path opacity="0.6" d="M165.345 76.8281L154.772 73.3943C154.772 73.3943 160.368 68.8796 162.114 66.4365L165.604 69.0598C165.604 69.0598 165.604 69.0598 165.615 69.071C165.694 69.2624 166.73 71.8294 165.345 76.8281Z" fill="white"/>
<path opacity="0.2" d="M171.854 122.166C171.358 122.177 170.84 122.177 170.311 122.177C167.271 122.166 163.691 122.02 160.302 121.828C153.76 121.457 147.894 120.939 147.894 120.939L148.378 112.777L154.931 112.867L155.257 112.259C156.361 112.011 157.667 111.572 159.074 111.02C162.891 109.523 167.384 107.226 170.232 105.706C170.683 105.459 171.088 105.233 171.448 105.042C170.322 112.124 169.613 117.449 169.613 117.449C170.413 118.991 171.167 120.567 171.854 122.166Z" fill="black"/>
<path d="M178.891 72.2795C182.82 75.7472 189.835 107.113 187.549 111.099C185.275 115.084 158.68 119.61 158.68 119.61L156.124 112.855C156.124 112.855 177.191 107.046 177.191 104.749C177.191 102.531 173.509 93.1303 173.509 93.1303C173.509 93.1303 172.664 82.4235 175.625 77.1657C177.585 73.6981 178.891 72.2795 178.891 72.2795Z" fill="#1A2E35"/>
<path d="M178.891 72.2795C182.82 75.7472 189.835 107.113 187.549 111.099C185.275 115.084 158.68 119.61 158.68 119.61L156.124 112.855C156.124 112.855 177.191 107.046 177.191 104.749C177.191 102.531 173.509 93.1303 173.509 93.1303C173.509 93.1303 172.664 82.4235 175.625 77.1657C177.585 73.6981 178.891 72.2795 178.891 72.2795Z" fill="#399EFD"/>
<path d="M156.698 113.452L147.894 112.337L149.616 120.68C149.616 120.68 158.038 120.41 158.477 117.809L156.698 113.452Z" fill="#FCC1BB"/>
<path d="M141.938 117.573L144.64 123.067L149.616 120.691L147.894 112.337L141.938 117.573Z" fill="#FCC1BB"/>
<path d="M159.108 111.696L161.551 119.543L158.162 120.196L155.798 112.878L159.108 111.696Z" fill="#407BFF"/>
<path opacity="0.7" d="M159.108 111.696L161.551 119.543L158.162 120.196L155.798 112.878L159.108 111.696Z" fill="white"/>
<path d="M68.5256 129L73.8401 139.178L62.9297 140.844C62.9297 140.844 59.473 130.497 62.4343 128.797L68.5256 129Z" fill="#FFB570"/>
<path d="M70.158 148.781L62.2764 147.971L62.9294 140.855L73.8399 139.189L70.158 148.781Z" fill="#FFB570"/>
<path d="M67.1636 123.968L69.5956 130.216L60.7907 132.4L58.2686 126.185L67.1636 123.968Z" fill="#407BFF"/>
<path opacity="0.7" d="M67.1636 123.968L69.5956 130.216L60.7907 132.4L58.2686 126.185L67.1636 123.968Z" fill="white"/>
<path d="M45.4214 48.6707C42.4376 51.6204 45.2525 87.9741 45.3426 92.3087C45.4326 96.6432 58.1559 128.798 58.1559 128.798L68.4245 125.645C68.4245 125.645 59.4507 97.0147 57.9194 92.1173C56.3881 87.2311 56.6921 74.7116 56.5795 69.3976C56.4895 65.2657 56.2643 58.7808 53.3368 54.9754C50.4206 51.1813 45.4214 48.6707 45.4214 48.6707Z" fill="#1A2E35"/>
<path d="M45.4214 48.6707C42.4376 51.6204 45.2525 87.9741 45.3426 92.3087C45.4326 96.6432 58.1559 128.798 58.1559 128.798L68.4245 125.645C68.4245 125.645 59.4507 97.0147 57.9194 92.1173C56.3881 87.2311 56.6921 74.7116 56.5795 69.3976C56.4895 65.2657 56.2643 58.7808 53.3368 54.9754C50.4206 51.1813 45.4214 48.6707 45.4214 48.6707Z" fill="#399EFD"/>
<path d="M72.1627 91.0027L83.2645 88.0642L82.4876 99.075C82.4876 99.075 71.6335 100.167 70.6201 96.9021L72.1627 91.0027Z" fill="#FFB570"/>
<path d="M91.8219 93.761L89.2885 101.27L82.499 99.0638L83.2647 88.053L91.8219 93.761Z" fill="#FFB570"/>
<path d="M44.7456 61.4153L43.7098 50.5733C41.9082 50.2694 40.9737 46.9594 38.947 46.7792C33.8352 46.3176 25.4243 46.509 19.6144 46.7792C17.7003 46.8693 15.7637 47.0494 13.9396 47.2521L8.19727 70.3208C8.92913 76.6593 9.36825 82.8065 9.6047 88.537C10.2915 105.369 9.34574 108.442 9.67226 112.495H55.1494C53.6632 85.79 52.2782 70.0393 51.3662 61.4153H44.7456Z" fill="#407BFF"/>
<path d="M44.7454 61.4153L43.7095 50.5733C41.908 50.2694 40.9735 46.9594 38.9467 46.7792C33.8349 46.3176 25.4241 46.509 19.6142 46.7792C18.4094 46.8355 17.2046 46.9256 16.0224 47.0382L8.47852 73.0003C9.04149 78.3931 9.40179 83.6283 9.60447 88.5483C10.2913 105.369 9.3455 108.442 9.67202 112.495H55.1492C53.8769 85.9814 52.4469 70.1294 51.4673 61.4153H44.7454Z" fill="white"/>
<path d="M37.3374 49.6163C37.3374 49.6163 36.0426 50.9448 34.5113 53.0389L33.9596 58.2741C33.9596 58.2741 41.8863 81.8156 42.5055 92.7589L39.6006 95.5397L34.5226 91.1152C34.5226 91.1152 34.4437 75.038 32.2481 58.3191L30.3228 53.6693C30.3228 53.6693 25.3798 51.5302 23.3081 49.1997C21.2363 46.8804 37.3374 49.6163 37.3374 49.6163Z" fill="#407BFF"/>
<path d="M20.0196 27.2568L25.1877 31.5463L32.2362 37.4008C32.0335 38.3577 31.8646 39.3147 31.7858 40.2492C31.403 44.0658 32.6866 45.1691 36.5936 46.6327C36.5936 46.6327 36.7625 49.0646 34.2291 51.7666C34.1953 52.3858 32.5402 53.3878 32.5402 53.3878C32.5402 53.3878 31.6394 52.3971 31.099 52.0368C20.2786 51.8454 18.8486 46.8354 18.8486 46.8354C23.0709 42.6697 21.4496 33.4828 20.0196 27.2568Z" fill="#FFB570"/>
<path opacity="0.2" d="M32.2367 37.3896C32.034 38.3465 31.8651 39.3035 31.7863 40.238C29.1629 39.7088 25.6499 36.9167 25.2783 34.2259C25.1432 33.2126 25.1207 32.2444 25.1883 31.5464L32.2367 37.3896Z" fill="black"/>
<path d="M41.0861 4.55981C41.0861 4.55981 45.7025 15.5369 40.7595 21.4701C35.8054 27.3921 30.4346 6.13601 30.4346 6.13601L41.0861 4.55981Z" fill="#1A2E35"/>
<path d="M25.4474 34.9916C29.4557 38.4705 34.5338 38.3691 38.362 36.0049C40.8279 34.485 42.7757 32.0193 43.5977 28.9795C43.7103 28.5855 43.8004 28.1689 43.8679 27.7411C45.0839 20.0065 42.9559 7.56584 34.4212 4.85254C28.3523 2.87104 21.8105 6.20356 19.8289 12.2832C19.2546 14.0057 19.1195 15.8521 19.3897 17.6535C20.5495 26.0298 20.8422 31.0173 25.4474 34.9916Z" fill="#FFB570"/>
<path d="M32.3939 18.9931C32.4052 19.6798 32.8443 20.209 33.3059 20.1752C33.7676 20.1414 34.0716 19.5447 34.0266 18.8692C33.9815 18.1825 33.5649 17.6533 33.1145 17.6871C32.6642 17.7209 32.3489 18.3063 32.3939 18.9931Z" fill="#1A2E35"/>
<path d="M40.1635 18.3852C40.1635 19.0719 40.6251 19.6011 41.0755 19.5673C41.5259 19.5335 41.8411 18.9368 41.7961 18.2613C41.7511 17.5745 41.3345 17.0454 40.8841 17.0792C40.4337 17.1129 40.1184 17.7322 40.1635 18.3852Z" fill="#1A2E35"/>
<path d="M37.7197 18.9143C38.6993 20.9521 39.9604 22.8435 41.4691 24.5323C40.5684 25.2866 39.3749 25.6131 38.2151 25.4105L37.7197 18.9143Z" fill="#FF8935"/>
<path d="M42.753 14.9738C42.6179 15.0526 42.4602 15.0413 42.3251 14.9738C41.4582 14.4108 40.3885 14.2983 39.4202 14.6585C39.2175 14.7599 38.9811 14.6698 38.8797 14.4671C38.7784 14.2645 38.8685 14.0281 39.0711 13.9267C40.2759 13.4426 41.6496 13.5777 42.7417 14.2757C42.9331 14.3883 43.0007 14.636 42.8881 14.8274V14.8387C42.8543 14.895 42.8093 14.94 42.753 14.9738Z" fill="#1A2E35"/>
<path d="M30.6261 16.0322C30.5473 16.0322 30.4684 16.0209 30.3896 15.9759C30.232 15.8182 30.2207 15.5706 30.3784 15.4017C30.3784 15.4017 30.3784 15.4017 30.3896 15.3904C31.2791 14.4334 32.5852 13.9831 33.8801 14.1632C34.094 14.2083 34.2404 14.4222 34.1953 14.6361C34.1503 14.85 33.9364 14.9851 33.7224 14.9513C32.6978 14.8387 31.6845 15.2103 30.9751 15.9646C30.8625 16.0434 30.7387 16.0547 30.6261 16.0322Z" fill="#1A2E35"/>
<path d="M24.7712 6.63135L25.7057 8.12873C23.0485 9.38968 24.0056 12.5421 24.7487 13.9269C26.3363 16.8879 25.1878 21.9429 23.0372 24.1721C23.0372 24.1721 22.7895 22.8324 21.6974 23.294C20.5939 23.7556 21.6636 29.5649 21.6636 29.5649C21.6636 29.5649 20.6953 31.2087 17.8691 24.082C15.2569 17.4846 14.3111 11.8215 15.3808 9.00689L24.7712 6.63135Z" fill="#1A2E35"/>
<path d="M16.259 24.8476C17.3399 26.6827 19.1189 28.0113 21.1794 28.5517C23.9154 29.2384 25.2103 26.7616 24.3996 24.2171C23.6565 21.9542 21.3257 18.8018 18.6009 19.2746C15.8761 19.7475 14.9529 22.5846 16.259 24.8476Z" fill="#FFB570"/>
<path d="M37.8442 27.1106C37.0785 28.2027 36.1215 30.3418 36.1215 30.3418C35.9075 30.2855 35.7049 30.2405 35.4909 30.1729C32.6648 29.3961 31.6064 28.1126 31.2911 26.908C31.1222 26.255 31.1785 25.6132 31.3024 25.1179C31.4262 24.5437 31.6514 24.1609 31.6514 24.1609C32.9012 25.4669 35.4797 26.3901 36.8758 26.8179C37.4613 27.0206 37.8442 27.1106 37.8442 27.1106Z" fill="#1A2E35"/>
<path d="M36.8869 26.8291L36.3577 27.7748C33.7005 27.043 31.9215 26.1649 31.3135 25.1291C31.4373 24.5549 31.6625 24.1721 31.6625 24.1721C32.9011 25.4668 35.4795 26.39 36.8869 26.8291Z" fill="white"/>
<path d="M35.4908 30.1842C32.6647 29.4073 31.6063 28.1239 31.291 26.9192C32.2481 27.2232 33.3628 27.6848 34.2635 28.3941C34.9504 28.9345 35.2994 29.5762 35.4908 30.1842Z" fill="#FD5652"/>
<path d="M39.6002 8.38765C39.6002 8.38765 42.4263 5.17898 41.8071 1.2385C41.8071 1.2385 25.6046 -1.55361 18.2184 1.2385C10.8322 4.03061 15.4035 16.0434 15.4035 16.0434C15.4035 16.0434 23.0037 9.77245 25.6947 8.12871C28.3857 6.48497 36.7403 9.44596 36.7403 9.44596L39.6002 8.38765Z" fill="#1A2E35"/>
<path d="M20.7176 42.1858C20.7176 42.1858 22.7781 47.6462 30.7161 51.4966L32.8554 53.4668L29.3086 52.5661L25.6943 57.1146L15.6621 47.072C15.6734 47.072 18.9724 42.2421 20.7176 42.1858Z" fill="#407BFF"/>
<path d="M32.8556 53.4668L33.4298 50.3257C33.4298 50.3257 33.9027 46.8356 32.6529 44.4037C32.6529 44.4037 32.1575 44.2912 31.876 42.9626L33.2159 43.3004C33.2159 43.3004 40.3093 46.0813 41.334 55.2907L35.7042 51.384L32.8556 53.4668Z" fill="#407BFF"/>
<path opacity="0.6" d="M32.8556 53.4668L33.4298 50.3257C33.4298 50.3257 33.9027 46.8356 32.6529 44.4037C32.6529 44.4037 32.1575 44.2912 31.876 42.9626L33.2159 43.3004C33.2159 43.3004 40.3093 46.0813 41.334 55.2907L35.7042 51.384L32.8556 53.4668Z" fill="white"/>
<path opacity="0.6" d="M20.7176 42.1858C20.7176 42.1858 22.7781 47.6462 30.7161 51.4966L32.8554 53.4668L29.3086 52.5661L25.6943 57.1146L15.6621 47.072C15.6734 47.072 18.9724 42.2421 20.7176 42.1858Z" fill="white"/>
<path d="M51.1074 305.218L60.678 306.22L61.1622 300.67L62.4683 285.584L52.9089 284.57L51.4565 301.244L51.1074 305.218Z" fill="#B25B52"/>
<path d="M3.35547 304.003H12.6333L12.7121 301.897L12.7234 301.638L13.1963 288.196L13.2075 287.925L13.3989 282.769H4.10986L3.35547 304.003Z" fill="#B25B52"/>
<path opacity="0.2" d="M52.9085 284.57L51.4561 301.244L61.1617 300.67L62.4679 285.584L52.9085 284.57Z" fill="black"/>
<path opacity="0.2" d="M3.41211 302.82H3.42337L12.7125 301.638H12.7237L13.2079 288.668H13.1966L3.89627 289.412L3.42337 302.415L3.41211 302.82Z" fill="black"/>
<path d="M13.9172 303.44H2.64641C2.26359 303.44 1.93706 303.71 1.85825 304.081L0.0342068 312.334C-0.123426 313.077 0.349473 313.797 1.0926 313.955C1.19394 313.978 1.29527 313.989 1.39661 313.989C5.04469 313.933 7.69067 313.707 12.2733 313.707C15.0882 313.707 23.6004 314 27.4961 314C31.3919 314 31.8986 310.15 30.2998 309.801C23.15 308.247 17.7679 306.085 15.4823 304.036C15.0431 303.642 14.4914 303.428 13.9172 303.44Z" fill="#121212"/>
<path d="M61.6916 303.147H50.4208C50.038 303.147 49.7115 303.417 49.6327 303.789L47.8086 312.041C47.651 312.784 48.1239 313.505 48.867 313.662C48.9684 313.685 49.0697 313.696 49.171 313.696C52.8191 313.64 55.4651 313.415 60.0477 313.415C62.8626 313.415 71.3748 313.707 75.2706 313.707C79.1663 313.707 79.673 309.857 78.0742 309.508C70.9244 307.954 65.5423 305.793 63.2567 303.744C62.8288 303.35 62.2658 303.136 61.6916 303.147Z" fill="#121212"/>
<path d="M2.17383 300.456H15.6064C15.6064 300.456 26.4155 259.486 30.6942 230C31.3697 225.418 32.0791 219.417 32.7997 212.414C33.9482 201.111 35.1079 187.556 36.155 174.496C39.364 183.12 41.8073 195.459 43.6989 209.442C50.4208 259.565 49.7453 299.274 49.7453 299.274H63.3467C72.0841 232.578 63.8647 164.791 58.1674 129.597C57.0076 122.459 55.9492 116.672 55.1611 112.495H9.68392C9.67266 113.441 9.98793 120.342 10.3933 130.43C11.3053 153.397 12.6114 192.881 11.2377 215.893C10.0555 235.888 2.17383 300.456 2.17383 300.456Z" fill="url(#paint2_linear_147_195)"/>
<path d="M66.3863 304.779C65.6432 305.027 64.765 305.14 64.1344 305.185C64.0556 305.196 63.9768 305.151 63.943 305.083C63.9092 305.016 63.9092 304.926 63.9543 304.869C64.157 304.61 65.936 302.302 67.0506 302.37C67.3096 302.381 67.5235 302.516 67.6587 302.764C67.8951 303.158 67.9289 303.53 67.76 303.867C67.5461 304.273 67.0169 304.577 66.3863 304.779ZM64.5623 304.746C66.1048 304.565 67.152 304.171 67.411 303.676C67.5123 303.473 67.4898 303.237 67.3209 302.955C67.2421 302.832 67.152 302.764 67.0281 302.753C66.4314 302.719 65.3167 303.845 64.5623 304.746Z" fill="#407BFF"/>
<path d="M64.1796 305.173C64.1458 305.185 64.1233 305.185 64.0895 305.185C64.0219 305.173 63.9656 305.128 63.9431 305.061C63.8981 304.959 62.9635 302.696 63.5265 301.649C63.6729 301.368 63.9206 301.188 64.2359 301.132C64.6187 301.053 64.934 301.177 65.1029 301.481C65.5758 302.302 64.9227 304.385 64.2697 305.128C64.2471 305.151 64.2134 305.162 64.1796 305.173ZM64.2246 301.537C64.067 301.582 63.9544 301.683 63.8756 301.83C63.5378 302.46 63.9093 303.811 64.1796 304.565C64.6863 303.744 65.0803 302.201 64.7651 301.661C64.7088 301.559 64.5962 301.447 64.3147 301.503C64.2809 301.526 64.2471 301.526 64.2246 301.537Z" fill="#407BFF"/>
<path d="M18.6119 304.779C17.8688 305.027 16.9906 305.14 16.36 305.185C16.2812 305.196 16.2024 305.151 16.1686 305.083C16.1348 305.016 16.1348 304.926 16.1799 304.869C16.3825 304.61 18.1615 302.302 19.2762 302.37C19.5352 302.381 19.7491 302.516 19.8842 302.764C20.1207 303.158 20.1545 303.53 19.9856 303.867C19.7717 304.273 19.2312 304.577 18.6119 304.779ZM16.7879 304.746C18.3304 304.565 19.3776 304.171 19.6365 303.676C19.7379 303.473 19.7154 303.237 19.5465 302.955C19.4676 302.832 19.3776 302.764 19.2537 302.753C18.657 302.719 17.531 303.845 16.7879 304.746Z" fill="#407BFF"/>
<path d="M16.4052 305.173C16.3714 305.185 16.3489 305.185 16.3151 305.185C16.2475 305.173 16.1912 305.128 16.1687 305.061C16.1237 304.959 15.1891 302.696 15.7521 301.649C15.8985 301.368 16.1462 301.188 16.4615 301.132C16.8443 301.053 17.1595 301.177 17.3284 301.481C17.8013 302.302 17.1483 304.385 16.4952 305.128C16.4727 305.151 16.4389 305.162 16.4052 305.173ZM16.4502 301.537C16.2926 301.582 16.18 301.683 16.1012 301.83C15.7634 302.46 16.1349 303.811 16.4052 304.565C16.9118 303.744 17.3059 302.201 16.9907 301.661C16.9344 301.559 16.8218 301.447 16.5403 301.503C16.5065 301.526 16.4727 301.526 16.4502 301.537Z" fill="#407BFF"/>
<path opacity="0.3" d="M36.1543 174.496C39.3633 183.131 41.8178 195.459 43.6982 209.453C48.2695 190.742 37.3365 156.133 37.3365 156.133L36.1543 174.496Z" fill="black"/>
<path d="M56.411 120.59L55.6904 109.129H10.7537C10.7537 109.129 9.35754 111.82 9.50392 119.566L56.411 120.59Z" fill="#1A2E35"/>
<path d="M56.3996 110.581H51.5918V113.903H56.3996V110.581Z" fill="black"/>
<path d="M50.2403 110.581H29.9395V113.903H50.2403V110.581Z" fill="black"/>
<path d="M28.5883 110.581H11.001V113.903H28.5883V110.581Z" fill="black"/>
<path opacity="0.3" d="M9.68389 112.495C9.67263 113.441 9.98789 120.342 10.3932 130.43C19.0743 132.67 38.3168 131.927 38.3168 131.927L40.0958 130.565L40.7601 131.927L58.1673 129.597C57.0076 122.459 55.9492 116.672 55.161 112.495H9.68389Z" fill="black"/>
<path d="M38.9249 114.128H43.1923C43.5301 114.128 43.8116 113.857 43.8116 113.508V110.964C43.8116 110.626 43.5413 110.345 43.1923 110.345H38.9249C38.5872 110.345 38.3057 110.615 38.3057 110.964V113.508C38.3057 113.846 38.5872 114.128 38.9249 114.128Z" fill="white"/>
<path d="M40.2078 119.385C39.825 122.853 39.2169 126.185 38.3049 129.203L7.57772 128.302C7.57772 128.302 8.18574 104.107 8.44471 94.2674C8.54604 90.5409 7.87047 83.1102 7.00349 75.3306C6.46303 70.4219 5.8325 65.3781 5.26953 61.021C5.22449 60.6945 5.19071 60.3793 5.17945 60.0528C4.79663 53.5229 9.18783 47.5896 15.6733 46.1147L38.2486 80.9936L38.3049 81.0837C38.3049 81.0837 38.4626 81.9168 38.6877 83.3917C39.1606 86.409 39.9488 92.0945 40.3992 98.8159C40.827 105.222 40.9622 112.563 40.2078 119.385Z" fill="#399EFD"/>
<path d="M17.2382 45.0002L14.4121 46.1936L15.6732 54.2885L20.9088 58.7807L19.265 64.5338L38.316 81.0838C38.3048 81.0838 23.1945 58.0151 17.2382 45.0002Z" fill="#1A2E35"/>
<path d="M17.2382 45.0002L14.4121 46.1936L15.6732 54.2885L20.9088 58.7807L19.265 64.5338L38.316 81.0838C38.3048 81.0838 23.1945 58.0151 17.2382 45.0002Z" fill="#407BFF"/>
<path d="M59.0792 126.974L41.0527 128.201L40.2083 119.385V119.374L38.1928 98.2532L36.8867 84.5741C37.0894 84.0674 37.2921 83.5721 37.4722 83.0767C37.7537 82.3674 38.0127 81.6806 38.2491 80.9939C47.1329 56.1914 37.5398 46.509 37.5398 46.509C45.3651 46.7905 50.2405 52.4085 50.2405 52.4085C53.5508 59.7153 56.2193 72.0996 56.5008 84.9906C56.6584 92.1285 56.5683 98.4108 56.4895 101.946C56.4557 103.871 56.4107 104.986 56.4107 104.986L59.0792 126.974Z" fill="#399EFD"/>
<path d="M37.5398 46.4978C37.5398 46.4978 44.667 49.9992 47.4819 56.3715L45.8605 58.4769L49.351 64.3763L36.8867 84.5628C36.8867 84.5628 42.2575 53.9509 37.5398 46.4978Z" fill="#1A2E35"/>
<path d="M37.5398 46.4978C37.5398 46.4978 44.667 49.9992 47.4819 56.3715L45.8605 58.4769L49.351 64.3763L36.8867 84.5628C36.8867 84.5628 42.2575 53.9509 37.5398 46.4978Z" fill="#407BFF"/>
<path opacity="0.3" d="M56.4893 101.946C52.4809 101.338 46.3445 100.302 40.3994 98.816C39.6563 98.6472 38.9244 98.4558 38.1926 98.2531C34.6909 97.3187 31.358 96.2153 28.6895 94.9656C21.0669 91.3742 11.7778 81.0614 7.00373 75.3308C6.46327 70.4221 5.83274 65.3783 5.26976 61.0212C5.22473 60.6947 5.19095 60.3795 5.17969 60.053H16.9571C16.9571 60.053 34.3193 81.1177 37.472 83.0766C37.5733 83.1329 37.6634 83.178 37.7309 83.2005C37.9223 83.2568 38.2489 83.3243 38.688 83.3919C41.8519 83.8873 50.8145 84.5853 56.5005 84.9906C56.6582 92.1285 56.5681 98.4107 56.4893 101.946Z" fill="black"/>
<path d="M67.1634 89.9219L73.8403 90.5636L71.8361 99.4128L65.1592 98.8724L67.1634 89.9219Z" fill="#407BFF"/>
<path opacity="0.7" d="M67.1634 89.9219L73.8403 90.5636L71.8361 99.4128L65.1592 98.8724L67.1634 89.9219Z" fill="white"/>
<path d="M5.76514 55.2907C0.416879 71.3904 23.026 88.9087 28.6895 93.5472C34.353 98.1744 67.9739 100.122 67.9739 100.122L69.7417 89.5392C69.7417 89.5392 39.1158 86.049 36.8752 84.5741C34.6233 83.0993 19.9972 64.7704 16.214 58.9723C12.442 53.1741 5.76514 55.2907 5.76514 55.2907Z" fill="#399EFD"/>
</g>
<defs>
<linearGradient id="paint0_linear_147_195" x1="119.07" y1="205.781" x2="164.333" y2="205.781" gradientUnits="userSpaceOnUse">
<stop stop-color="#3D5475"/>
<stop offset="0.2549" stop-color="#364F6F"/>
<stop offset="0.6276" stop-color="#22425F"/>
<stop offset="1" stop-color="#083149"/>
</linearGradient>
<linearGradient id="paint1_linear_147_195" x1="143.972" y1="205.911" x2="177.513" y2="205.911" gradientUnits="userSpaceOnUse">
<stop stop-color="#3D5475"/>
<stop offset="0.2549" stop-color="#364F6F"/>
<stop offset="0.6276" stop-color="#22425F"/>
<stop offset="1" stop-color="#083149"/>
</linearGradient>
<linearGradient id="paint2_linear_147_195" x1="2.1709" y1="206.478" x2="67.1619" y2="206.478" gradientUnits="userSpaceOnUse">
<stop stop-color="#3D5475"/>
<stop offset="0.2549" stop-color="#364F6F"/>
<stop offset="0.6276" stop-color="#22425F"/>
<stop offset="1" stop-color="#083149"/>
</linearGradient>
<clipPath id="clip0_147_195">
<rect width="188" height="314" fill="white"/>
</clipPath>
</defs>
</svg>
