<svg width="154" height="391" viewBox="0 0 154 391" fill="none" xmlns="http://www.w3.org/2000/svg">
<g clip-path="url(#clip0_84_7014)">
<path d="M7.60233 25.5099C8.1259 25.5099 8.55035 25.0845 8.55035 24.5598C8.55035 24.035 8.1259 23.6096 7.60233 23.6096C7.07875 23.6096 6.6543 24.035 6.6543 24.5598C6.6543 25.0845 7.07875 25.5099 7.60233 25.5099Z" fill="#399EFD" fill-opacity="0.1"/>
<path d="M31.9635 25.0205C32.2174 25.0205 32.4232 24.8142 32.4232 24.5598C32.4232 24.3054 32.2174 24.0991 31.9635 24.0991C31.7097 24.0991 31.5039 24.3054 31.5039 24.5598C31.5039 24.8142 31.7097 25.0205 31.9635 25.0205Z" fill="#399EFD" fill-opacity="0.1"/>
<path d="M56.3248 24.7039C56.4041 24.7039 56.4684 24.6395 56.4684 24.56C56.4684 24.4805 56.4041 24.416 56.3248 24.416C56.2455 24.416 56.1812 24.4805 56.1812 24.56C56.1812 24.6395 56.2455 24.7039 56.3248 24.7039Z" fill="#399EFD" fill-opacity="0.1"/>
<path d="M7.60196 51.2791C8.86599 51.2791 9.90018 50.2426 9.90018 48.9758C9.90018 47.7089 8.86599 46.6724 7.60196 46.6724C6.33793 46.6724 5.30371 47.7089 5.30371 48.9758C5.30371 50.2426 6.33793 51.2791 7.60196 51.2791Z" fill="#399EFD" fill-opacity="0.1"/>
<path d="M31.9633 50.7322C32.9312 50.7322 33.7157 49.9458 33.7157 48.9758C33.7157 48.0058 32.9312 47.2195 31.9633 47.2195C30.9955 47.2195 30.2109 48.0058 30.2109 48.9758C30.2109 49.9458 30.9955 50.7322 31.9633 50.7322Z" fill="#399EFD" fill-opacity="0.1"/>
<path d="M56.3251 50.041C56.9283 50.041 57.4167 49.5515 57.4167 48.9469C57.4167 48.3423 56.9283 47.8528 56.3251 47.8528C55.7218 47.8528 55.2334 48.3423 55.2334 48.9469C55.2334 49.5515 55.7505 50.041 56.3251 50.041Z" fill="#399EFD" fill-opacity="0.1"/>
<path d="M80.7151 49.2348C80.8587 49.2348 80.9737 49.1196 80.9737 48.9757C80.9737 48.8317 80.8587 48.7166 80.7151 48.7166C80.5714 48.7166 80.4565 48.8317 80.4565 48.9757C80.4278 49.1196 80.5427 49.2348 80.7151 49.2348Z" fill="#399EFD" fill-opacity="0.1"/>
<path d="M7.60208 77.0484C9.61304 77.0484 11.2505 75.4072 11.2505 73.3917C11.2505 71.3763 9.61304 69.7351 7.60208 69.7351C5.59112 69.7351 3.95361 71.3763 3.95361 73.3917C3.95361 75.4072 5.59112 77.0484 7.60208 77.0484Z" fill="#399EFD" fill-opacity="0.1"/>
<path d="M31.9636 76.4436C33.6454 76.4436 35.0088 75.0772 35.0088 73.3916C35.0088 71.706 33.6454 70.3396 31.9636 70.3396C30.2818 70.3396 28.9185 71.706 28.9185 73.3916C28.9185 75.0772 30.2818 76.4436 31.9636 76.4436Z" fill="#399EFD" fill-opacity="0.1"/>
<path d="M56.3248 75.6374C57.5623 75.6374 58.5655 74.6319 58.5655 73.3916C58.5655 72.1512 57.5623 71.1458 56.3248 71.1458C55.0872 71.1458 54.084 72.1512 54.084 73.3916C54.084 74.6319 55.0872 75.6374 56.3248 75.6374Z" fill="#399EFD" fill-opacity="0.1"/>
<path d="M80.7151 74.6873C81.4291 74.6873 82.0079 74.1072 82.0079 73.3916C82.0079 72.676 81.4291 72.0959 80.7151 72.0959C80.0011 72.0959 79.4224 72.676 79.4224 73.3916C79.4224 74.1072 80.0011 74.6873 80.7151 74.6873Z" fill="#399EFD" fill-opacity="0.1"/>
<path d="M105.076 73.6508C105.22 73.6508 105.335 73.5357 105.335 73.3917C105.335 73.2477 105.22 73.1326 105.076 73.1326C104.933 73.1326 104.818 73.2477 104.818 73.3917C104.789 73.5357 104.904 73.6508 105.076 73.6508Z" fill="#399EFD" fill-opacity="0.1"/>
<path d="M7.60235 102.76C10.3315 102.76 12.5436 100.543 12.5436 97.8075C12.5436 95.0722 10.3315 92.8552 7.60235 92.8552C4.87319 92.8552 2.66113 95.0722 2.66113 97.8075C2.68986 100.543 4.90192 102.76 7.60235 102.76Z" fill="#399EFD" fill-opacity="0.1"/>
<path d="M31.9633 102.011C34.2798 102.011 36.1576 100.129 36.1576 97.8077C36.1576 95.4861 34.2798 93.604 31.9633 93.604C29.6469 93.604 27.769 95.4861 27.769 97.8077C27.769 100.129 29.6469 102.011 31.9633 102.011Z" fill="#399EFD" fill-opacity="0.1"/>
<path d="M56.3247 101.119C58.1633 101.119 59.6284 99.6216 59.6284 97.8077C59.6284 95.965 58.1346 94.4966 56.3247 94.4966C54.5149 94.4966 53.021 95.9938 53.021 97.8077C53.021 99.6216 54.5149 101.119 56.3247 101.119Z" fill="#399EFD" fill-opacity="0.1"/>
<path d="M80.7149 100.025C81.9502 100.025 82.9557 99.0168 82.9557 97.7788C82.9557 96.5407 81.9502 95.533 80.7149 95.533C79.4796 95.533 78.4741 96.5407 78.4741 97.7788C78.4741 99.0168 79.4796 100.025 80.7149 100.025Z" fill="#399EFD" fill-opacity="0.1"/>
<path d="M105.076 98.873C105.679 98.873 106.168 98.3836 106.168 97.7789C106.168 97.1743 105.679 96.6848 105.076 96.6848C104.473 96.6848 103.984 97.1743 103.984 97.7789C103.984 98.4123 104.473 98.873 105.076 98.873Z" fill="#399EFD" fill-opacity="0.1"/>
<path d="M129.438 97.9515C129.524 97.9515 129.581 97.8939 129.581 97.8075C129.581 97.7212 129.524 97.6636 129.438 97.6636C129.351 97.6636 129.294 97.7212 129.294 97.8075C129.294 97.8651 129.351 97.9515 129.438 97.9515Z" fill="#399EFD" fill-opacity="0.1"/>
<path d="M7.60223 128.443C11.0209 128.443 13.8075 125.65 13.8075 122.224C13.8075 118.797 11.0209 116.004 7.60223 116.004C4.1836 116.004 1.39697 118.797 1.39697 122.224C1.39697 125.65 4.1836 128.443 7.60223 128.443Z" fill="#399EFD" fill-opacity="0.1"/>
<path d="M31.9633 127.493C34.8648 127.493 37.2205 125.132 37.2205 122.224C37.2205 119.316 34.8648 116.955 31.9633 116.955C29.0617 116.955 26.7061 119.316 26.7061 122.224C26.7061 125.132 29.0617 127.493 31.9633 127.493Z" fill="#399EFD" fill-opacity="0.1"/>
<path d="M56.3247 126.427C58.6516 126.427 60.5189 124.556 60.5189 122.223C60.5189 119.891 58.6516 118.02 56.3247 118.02C53.9977 118.02 52.1304 119.891 52.1304 122.223C52.1591 124.527 54.0264 126.427 56.3247 126.427Z" fill="#399EFD" fill-opacity="0.1"/>
<path d="M80.7151 125.275C82.3813 125.275 83.7603 123.922 83.7603 122.223C83.7603 120.553 82.41 119.171 80.7151 119.171C79.0489 119.171 77.6699 120.525 77.6699 122.223C77.6699 123.893 79.0201 125.275 80.7151 125.275Z" fill="#399EFD" fill-opacity="0.1"/>
<path d="M105.076 124.038C106.082 124.038 106.886 123.231 106.886 122.224C106.886 121.216 106.082 120.41 105.076 120.41C104.071 120.41 103.266 121.216 103.266 122.224C103.238 123.231 104.042 124.038 105.076 124.038Z" fill="#399EFD" fill-opacity="0.1"/>
<path d="M129.437 122.771C129.725 122.771 129.983 122.54 129.983 122.224C129.983 121.936 129.753 121.677 129.437 121.677C129.121 121.677 128.892 121.907 128.892 122.224C128.892 122.511 129.121 122.771 129.437 122.771Z" fill="#399EFD" fill-opacity="0.1"/>
<path d="M7.60209 153.953C11.624 153.953 14.899 150.67 14.899 146.639C14.899 142.609 11.624 139.326 7.60209 139.326C3.58017 139.326 0.305176 142.609 0.305176 146.639C0.305176 150.67 3.58017 153.953 7.60209 153.953Z" fill="#399EFD" fill-opacity="0.1"/>
<path d="M31.9635 152.858C35.3822 152.858 38.1688 150.066 38.1688 146.639C38.1688 143.213 35.3822 140.42 31.9635 140.42C28.5449 140.42 25.7583 143.213 25.7583 146.639C25.7583 150.066 28.5449 152.858 31.9635 152.858Z" fill="#399EFD" fill-opacity="0.1"/>
<path d="M56.3248 151.649C59.0827 151.649 61.3235 149.404 61.3235 146.64C61.3235 143.875 59.0827 141.63 56.3248 141.63C53.5669 141.63 51.3262 143.875 51.3262 146.64C51.3262 149.404 53.5669 151.649 56.3248 151.649Z" fill="#399EFD" fill-opacity="0.1"/>
<path d="M80.7151 150.354C82.7548 150.354 84.421 148.684 84.421 146.64C84.421 144.595 82.7548 142.925 80.7151 142.925C78.6754 142.925 77.0092 144.595 77.0092 146.64C76.9804 148.684 78.6467 150.354 80.7151 150.354Z" fill="#399EFD" fill-opacity="0.1"/>
<path d="M105.076 149C106.369 149 107.432 147.935 107.432 146.639C107.432 145.344 106.369 144.278 105.076 144.278C103.784 144.278 102.721 145.344 102.721 146.639C102.692 147.935 103.755 149 105.076 149Z" fill="#399EFD" fill-opacity="0.1"/>
<path d="M129.437 147.647C129.983 147.647 130.443 147.186 130.443 146.639C130.443 146.092 129.983 145.632 129.437 145.632C128.892 145.632 128.432 146.092 128.432 146.639C128.403 147.186 128.863 147.647 129.437 147.647Z" fill="#399EFD" fill-opacity="0.1"/>
<path d="M153.799 146.697C153.827 146.697 153.856 146.668 153.856 146.639C153.856 146.611 153.827 146.582 153.799 146.582C153.77 146.582 153.741 146.611 153.741 146.639C153.713 146.668 153.741 146.697 153.799 146.697Z" fill="#399EFD" fill-opacity="0.1"/>
<path d="M7.60202 179.261C12.1123 179.261 15.7895 175.605 15.7895 171.055C15.7895 166.535 12.141 162.85 7.60202 162.85C3.09173 162.85 -0.585449 166.506 -0.585449 171.055C-0.556721 175.576 3.09173 179.261 7.60202 179.261Z" fill="#399EFD" fill-opacity="0.1"/>
<path d="M31.9637 177.908C35.7398 177.908 38.801 174.84 38.801 171.055C38.801 167.271 35.7398 164.203 31.9637 164.203C28.1876 164.203 25.1265 167.271 25.1265 171.055C25.1265 174.84 28.1876 177.908 31.9637 177.908Z" fill="#399EFD" fill-opacity="0.1"/>
<path d="M56.325 176.526C59.3415 176.526 61.7833 174.078 61.7833 171.055C61.7833 168.032 59.3415 165.585 56.325 165.585C53.3086 165.585 50.8667 168.032 50.8667 171.055C50.8667 174.078 53.3086 176.526 56.325 176.526Z" fill="#399EFD" fill-opacity="0.1"/>
<path d="M80.7149 175.173C82.9844 175.173 84.823 173.33 84.823 171.055C84.823 168.781 82.9844 166.938 80.7149 166.938C78.4454 166.938 76.6068 168.781 76.6068 171.055C76.578 173.33 78.4166 175.173 80.7149 175.173Z" fill="#399EFD" fill-opacity="0.1"/>
<path d="M105.076 173.762C106.57 173.762 107.777 172.553 107.777 171.055C107.777 169.558 106.57 168.349 105.076 168.349C103.583 168.349 102.376 169.558 102.376 171.055C102.376 172.553 103.583 173.762 105.076 173.762Z" fill="#399EFD" fill-opacity="0.1"/>
<path d="M129.438 172.351C130.152 172.351 130.731 171.771 130.731 171.055C130.731 170.34 130.152 169.76 129.438 169.76C128.724 169.76 128.145 170.34 128.145 171.055C128.145 171.771 128.724 172.351 129.438 172.351Z" fill="#399EFD" fill-opacity="0.1"/>
<path d="M153.799 171.199C153.885 171.199 153.943 171.142 153.943 171.055C153.943 170.969 153.885 170.911 153.799 170.911C153.713 170.911 153.655 170.969 153.655 171.055C153.655 171.142 153.713 171.199 153.799 171.199Z" fill="#399EFD" fill-opacity="0.1"/>
<path d="M7.60211 203.994C12.2985 203.994 16.1056 200.178 16.1056 195.471C16.1056 190.764 12.2985 186.949 7.60211 186.949C2.90577 186.949 -0.901367 190.764 -0.901367 195.471C-0.901367 200.178 2.90577 203.994 7.60211 203.994Z" fill="#399EFD" fill-opacity="0.1"/>
<path d="M31.9635 202.583C35.8705 202.583 39.0593 199.387 39.0593 195.471C39.0593 191.555 35.8705 188.359 31.9635 188.359C28.0565 188.359 24.8677 191.555 24.8677 195.471C24.8964 199.387 28.0565 202.583 31.9635 202.583Z" fill="#399EFD" fill-opacity="0.1"/>
<path d="M56.3249 201.172C59.4562 201.172 62.013 198.638 62.013 195.471C62.013 192.333 59.4849 189.77 56.3249 189.77C53.1935 189.77 50.6367 192.304 50.6367 195.471C50.6654 198.609 53.1935 201.172 56.3249 201.172Z" fill="#399EFD" fill-opacity="0.1"/>
<path d="M80.7151 199.732C83.0633 199.732 84.9669 197.825 84.9669 195.471C84.9669 193.118 83.0633 191.21 80.7151 191.21C78.3669 191.21 76.4634 193.118 76.4634 195.471C76.4634 197.825 78.3669 199.732 80.7151 199.732Z" fill="#399EFD" fill-opacity="0.1"/>
<path d="M105.076 198.322C106.657 198.322 107.921 197.055 107.921 195.471C107.921 193.888 106.657 192.621 105.076 192.621C103.496 192.621 102.232 193.888 102.232 195.471C102.232 197.055 103.496 198.322 105.076 198.322Z" fill="#399EFD" fill-opacity="0.1"/>
<path d="M129.437 196.882C130.213 196.882 130.845 196.249 130.845 195.471C130.845 194.694 130.213 194.06 129.437 194.06C128.662 194.06 128.03 194.694 128.03 195.471C128.001 196.249 128.633 196.882 129.437 196.882Z" fill="#399EFD" fill-opacity="0.1"/>
<path d="M153.799 195.673C153.914 195.673 154 195.586 154 195.471C154 195.356 153.914 195.27 153.799 195.27C153.684 195.27 153.598 195.356 153.598 195.471C153.598 195.586 153.684 195.673 153.799 195.673Z" fill="#399EFD" fill-opacity="0.1"/>
<path d="M7.60202 228.093C12.1123 228.093 15.7895 224.436 15.7895 219.887C15.7895 215.367 12.141 211.681 7.60202 211.681C3.09173 211.681 -0.585449 215.338 -0.585449 219.887C-0.556721 224.407 3.09173 228.093 7.60202 228.093Z" fill="#399EFD" fill-opacity="0.1"/>
<path d="M31.9635 226.797C35.7714 226.797 38.8583 223.704 38.8583 219.887C38.8583 216.071 35.7714 212.977 31.9635 212.977C28.1557 212.977 25.0688 216.071 25.0688 219.887C25.0688 223.704 28.1557 226.797 31.9635 226.797Z" fill="#399EFD" fill-opacity="0.1"/>
<path d="M56.325 225.358C59.3396 225.358 61.7833 222.908 61.7833 219.887C61.7833 216.866 59.3396 214.417 56.325 214.417C53.3105 214.417 50.8667 216.866 50.8667 219.887C50.8667 222.908 53.3105 225.358 56.325 225.358Z" fill="#399EFD" fill-opacity="0.1"/>
<path d="M80.7149 224.033C82.9844 224.033 84.823 222.19 84.823 219.916C84.823 217.641 82.9844 215.799 80.7149 215.799C78.4454 215.799 76.6068 217.641 76.6068 219.916C76.578 222.162 78.4166 224.033 80.7149 224.033Z" fill="#399EFD" fill-opacity="0.1"/>
<path d="M105.076 222.594C106.57 222.594 107.777 221.384 107.777 219.887C107.777 218.39 106.57 217.181 105.076 217.181C103.583 217.181 102.376 218.39 102.376 219.887C102.376 221.384 103.583 222.594 105.076 222.594Z" fill="#399EFD" fill-opacity="0.1"/>
<path d="M129.438 221.183C130.152 221.183 130.731 220.603 130.731 219.887C130.731 219.171 130.152 218.591 129.438 218.591C128.724 218.591 128.145 219.171 128.145 219.887C128.145 220.603 128.724 221.183 129.438 221.183Z" fill="#399EFD" fill-opacity="0.1"/>
<path d="M153.799 220.031C153.885 220.031 153.943 219.974 153.943 219.887C153.943 219.801 153.885 219.743 153.799 219.743C153.713 219.743 153.655 219.801 153.655 219.887C153.655 219.974 153.713 220.031 153.799 220.031Z" fill="#399EFD" fill-opacity="0.1"/>
<path d="M7.6024 251.674C11.6818 251.674 14.9568 248.363 14.9568 244.303C14.9568 240.214 11.653 236.932 7.6024 236.932C3.52303 236.932 0.248047 240.243 0.248047 244.303C0.248047 248.391 3.55176 251.674 7.6024 251.674Z" fill="#399EFD" fill-opacity="0.1"/>
<path d="M31.9633 250.609C35.4379 250.609 38.2547 247.786 38.2547 244.303C38.2547 240.821 35.4379 237.998 31.9633 237.998C28.4886 237.998 25.6719 240.821 25.6719 244.303C25.6719 247.786 28.4886 250.609 31.9633 250.609Z" fill="#399EFD" fill-opacity="0.1"/>
<path d="M56.3248 249.313C59.0855 249.313 61.3235 247.07 61.3235 244.303C61.3235 241.536 59.0855 239.293 56.3248 239.293C53.5641 239.293 51.3262 241.536 51.3262 244.303C51.3262 247.07 53.5641 249.313 56.3248 249.313Z" fill="#399EFD" fill-opacity="0.1"/>
<path d="M80.7147 248.017C82.7614 248.017 84.4206 246.354 84.4206 244.303C84.4206 242.252 82.7614 240.589 80.7147 240.589C78.668 240.589 77.0088 242.252 77.0088 244.303C77.0088 246.354 78.668 248.017 80.7147 248.017Z" fill="#399EFD" fill-opacity="0.1"/>
<path d="M105.076 246.664C106.369 246.664 107.432 245.599 107.432 244.303C107.432 243.007 106.369 241.942 105.076 241.942C103.784 241.942 102.721 243.007 102.721 244.303C102.692 245.628 103.755 246.664 105.076 246.664Z" fill="#399EFD" fill-opacity="0.1"/>
<path d="M129.437 245.311C129.983 245.311 130.443 244.85 130.443 244.303C130.443 243.756 129.983 243.295 129.437 243.295C128.892 243.295 128.432 243.756 128.432 244.303C128.403 244.879 128.863 245.311 129.437 245.311Z" fill="#399EFD" fill-opacity="0.1"/>
<path d="M153.799 244.361C153.828 244.361 153.857 244.332 153.857 244.303C153.857 244.274 153.828 244.245 153.799 244.245C153.77 244.245 153.741 244.274 153.741 244.303C153.741 244.332 153.741 244.361 153.799 244.361Z" fill="#399EFD" fill-opacity="0.1"/>
<path d="M7.60198 275.024C11.0766 275.024 13.8934 272.201 13.8934 268.719C13.8934 265.236 11.0766 262.413 7.60198 262.413C4.12732 262.413 1.31055 265.236 1.31055 268.719C1.31055 272.201 4.12732 275.024 7.60198 275.024Z" fill="#399EFD" fill-opacity="0.1"/>
<path d="M31.9635 274.074C34.9225 274.074 37.3069 271.685 37.3069 268.719C37.3069 265.753 34.9225 263.364 31.9635 263.364C29.0045 263.364 26.6201 265.753 26.6201 268.719C26.6201 271.685 29.0332 274.074 31.9635 274.074Z" fill="#399EFD" fill-opacity="0.1"/>
<path d="M56.325 272.98C58.6732 272.98 60.5767 271.072 60.5767 268.719C60.5767 266.365 58.6732 264.458 56.325 264.458C53.9768 264.458 52.0732 266.365 52.0732 268.719C52.0732 271.072 53.9768 272.98 56.325 272.98Z" fill="#399EFD" fill-opacity="0.1"/>
<path d="M80.7149 271.829C82.4284 271.829 83.8175 270.436 83.8175 268.719C83.8175 267.002 82.4284 265.609 80.7149 265.609C79.0014 265.609 77.6123 267.002 77.6123 268.719C77.6123 270.436 79.0014 271.829 80.7149 271.829Z" fill="#399EFD" fill-opacity="0.1"/>
<path d="M105.076 270.533C106.076 270.533 106.886 269.721 106.886 268.719C106.886 267.717 106.076 266.905 105.076 266.905C104.077 266.905 103.267 267.717 103.267 268.719C103.267 269.721 104.077 270.533 105.076 270.533Z" fill="#399EFD" fill-opacity="0.1"/>
<path d="M129.437 269.266C129.725 269.266 129.983 269.036 129.983 268.719C129.983 268.431 129.753 268.172 129.437 268.172C129.121 268.172 128.892 268.402 128.892 268.719C128.892 269.036 129.121 269.266 129.437 269.266Z" fill="#399EFD" fill-opacity="0.1"/>
<path d="M7.60218 298.145C10.3629 298.145 12.6008 295.902 12.6008 293.135C12.6008 290.368 10.3629 288.125 7.60218 288.125C4.84149 288.125 2.60352 290.368 2.60352 293.135C2.60352 295.902 4.84149 298.145 7.60218 298.145Z" fill="#399EFD" fill-opacity="0.1"/>
<path d="M31.9636 297.396C34.3118 297.396 36.2154 295.488 36.2154 293.135C36.2154 290.781 34.3118 288.874 31.9636 288.874C29.6155 288.874 27.7119 290.781 27.7119 293.135C27.7119 295.488 29.6155 297.396 31.9636 297.396Z" fill="#399EFD" fill-opacity="0.1"/>
<path d="M56.3247 296.446C58.1493 296.446 59.6284 294.964 59.6284 293.135C59.6284 291.306 58.1493 289.824 56.3247 289.824C54.5001 289.824 53.021 291.306 53.021 293.135C53.021 294.964 54.5001 296.446 56.3247 296.446Z" fill="#399EFD" fill-opacity="0.1"/>
<path d="M80.7147 295.438C81.9788 295.438 83.013 294.402 83.013 293.135C83.013 291.868 81.9788 290.831 80.7147 290.831C79.4507 290.831 78.4165 291.868 78.4165 293.135C78.4165 294.402 79.422 295.438 80.7147 295.438Z" fill="#399EFD" fill-opacity="0.1"/>
<path d="M105.076 294.287C105.711 294.287 106.225 293.771 106.225 293.135C106.225 292.499 105.711 291.983 105.076 291.983C104.442 291.983 103.927 292.499 103.927 293.135C103.927 293.771 104.442 294.287 105.076 294.287Z" fill="#399EFD" fill-opacity="0.1"/>
<path d="M129.438 293.279C129.524 293.279 129.581 293.221 129.581 293.135C129.581 293.048 129.524 292.991 129.438 292.991C129.351 292.991 129.294 293.048 129.294 293.135C129.294 293.221 129.351 293.279 129.438 293.279Z" fill="#399EFD" fill-opacity="0.1"/>
<path d="M7.6024 321.265C9.64911 321.265 11.3083 319.602 11.3083 317.551C11.3083 315.499 9.64911 313.837 7.6024 313.837C5.55568 313.837 3.89648 315.499 3.89648 317.551C3.89648 319.602 5.55568 321.265 7.6024 321.265Z" fill="#399EFD" fill-opacity="0.1"/>
<path d="M31.9634 320.66C33.677 320.66 35.0661 319.268 35.0661 317.551C35.0661 315.833 33.677 314.441 31.9634 314.441C30.2499 314.441 28.8608 315.833 28.8608 317.551C28.8608 319.268 30.2499 320.66 31.9634 320.66Z" fill="#399EFD" fill-opacity="0.1"/>
<path d="M56.3246 319.854C57.5939 319.854 58.6229 318.823 58.6229 317.551C58.6229 316.279 57.5939 315.247 56.3246 315.247C55.0553 315.247 54.0264 316.279 54.0264 317.551C54.0264 318.823 55.0553 319.854 56.3246 319.854Z" fill="#399EFD" fill-opacity="0.1"/>
<path d="M80.7151 318.846C81.4291 318.846 82.0079 318.266 82.0079 317.551C82.0079 316.835 81.4291 316.255 80.7151 316.255C80.0011 316.255 79.4224 316.835 79.4224 317.551C79.4224 318.266 80.0011 318.846 80.7151 318.846Z" fill="#399EFD" fill-opacity="0.1"/>
<path d="M105.076 317.896C105.267 317.896 105.421 317.742 105.421 317.551C105.421 317.36 105.267 317.205 105.076 317.205C104.886 317.205 104.731 317.36 104.731 317.551C104.731 317.742 104.886 317.896 105.076 317.896Z" fill="#399EFD" fill-opacity="0.1"/>
<path d="M7.60228 344.356C8.89504 344.356 9.95797 343.291 9.95797 341.995C9.95797 340.7 8.89504 339.635 7.60228 339.635C6.30952 339.635 5.24658 340.7 5.24658 341.995C5.24658 343.291 6.30952 344.356 7.60228 344.356Z" fill="#399EFD" fill-opacity="0.1"/>
<path d="M31.9637 343.781C32.9632 343.781 33.7735 342.968 33.7735 341.967C33.7735 340.965 32.9632 340.153 31.9637 340.153C30.9641 340.153 30.1538 340.965 30.1538 341.967C30.1538 342.968 30.9641 343.781 31.9637 343.781Z" fill="#399EFD" fill-opacity="0.1"/>
<path d="M56.3249 343.118C56.9595 343.118 57.474 342.603 57.474 341.967C57.474 341.331 56.9595 340.815 56.3249 340.815C55.6903 340.815 55.1758 341.331 55.1758 341.967C55.1758 342.603 55.6903 343.118 56.3249 343.118Z" fill="#399EFD" fill-opacity="0.1"/>
<path d="M80.7148 342.312C80.9052 342.312 81.0596 342.157 81.0596 341.967C81.0596 341.776 80.9052 341.621 80.7148 341.621C80.5244 341.621 80.3701 341.776 80.3701 341.967C80.3701 342.157 80.5244 342.312 80.7148 342.312Z" fill="#399EFD" fill-opacity="0.1"/>
<path d="M7.60215 367.419C8.14799 367.419 8.60763 366.958 8.60763 366.411C8.60763 365.864 8.14799 365.404 7.60215 365.404C7.05632 365.404 6.59668 365.864 6.59668 366.411C6.59668 366.958 7.05632 367.419 7.60215 367.419Z" fill="#399EFD" fill-opacity="0.1"/>
<path d="M31.9633 366.93C32.2648 366.93 32.5091 366.685 32.5091 366.383C32.5091 366.08 32.2648 365.835 31.9633 365.835C31.6618 365.835 31.4175 366.08 31.4175 366.383C31.4175 366.685 31.6618 366.93 31.9633 366.93Z" fill="#399EFD" fill-opacity="0.1"/>
<path d="M56.3248 366.526C56.411 366.526 56.4684 366.469 56.4684 366.382C56.4684 366.296 56.411 366.239 56.3248 366.239C56.2386 366.239 56.1812 366.296 56.1812 366.382C56.1812 366.469 56.2673 366.526 56.3248 366.526Z" fill="#399EFD" fill-opacity="0.1"/>
<path d="M7.60271 390.857C7.63461 390.857 7.66047 390.831 7.66047 390.799C7.66047 390.767 7.63461 390.741 7.60271 390.741C7.5708 390.741 7.54492 390.767 7.54492 390.799C7.54492 390.831 7.5708 390.857 7.60271 390.857Z" fill="#399EFD" fill-opacity="0.1"/>
</g>
<defs>
<clipPath id="clip0_84_7014">
<rect width="367" height="391" fill="white" transform="translate(-213)"/>
</clipPath>
</defs>
</svg>
