<svg width="392" height="362" viewBox="0 0 392 362" fill="none" xmlns="http://www.w3.org/2000/svg">
<path d="M195.436 307.588C89.3115 305.38 35.7111 380.327 9.27009 314.792C4.48871 240.617 92.1018 174.421 199.299 167.511C306.496 160.601 378.213 216.527 382.994 290.702C369.331 390.676 305.867 307.493 195.436 307.588Z" fill="#399EFD" fill-opacity="0.16"/>
<path d="M117.531 108.534C114.954 107.675 80.591 99.9436 70.2822 143.756C58.2553 180.696 34.2015 181.555 32.4834 224.508C31.6243 251.998 40.215 269.179 53.1009 291.515C79.732 301.824 186.256 311.274 234.364 288.079C240.377 276.911 242.954 223.649 242.954 223.649H151.893L117.531 108.534Z" fill="#399EFD"/>
<g opacity="0.5">
<path opacity="0.5" d="M242.954 223.649H151.893L117.531 108.534C117.436 108.5 117.282 108.457 117.101 108.405C103.313 118.645 94.6196 135.835 95.4443 153.077C96.0542 165.894 101.329 177.947 105.049 190.223C108.768 202.507 110.856 216.235 105.349 227.824C102.806 233.167 98.786 237.729 96.5181 243.193C94.2502 248.656 94.2845 255.847 98.8891 259.558C102.368 262.358 107.454 262.298 111.629 260.718C115.804 259.137 119.343 256.285 123.02 253.742C136.722 244.267 153.191 238.837 169.839 238.305C178.018 238.047 186.574 239.061 193.421 243.545C200.654 248.287 205.018 256.225 209.099 263.845C213.205 271.507 217.311 279.17 221.418 286.833C222.371 288.603 223.497 290.493 224.888 291.97C228.247 290.785 231.417 289.488 234.372 288.062C240.377 276.911 242.954 223.649 242.954 223.649Z" fill="#22425F"/>
</g>
<path d="M102.763 113.448C95.427 116.816 89.3534 122.58 85.3759 129.487C81.3469 136.351 79.2937 144.417 79.9724 152.304C80.0927 154.279 80.462 156.23 80.883 158.18C81.3125 160.13 81.7936 162.08 82.2489 164.047C83.1595 167.973 83.9928 172.045 83.7179 176.22C83.4602 180.378 82.163 184.39 80.3504 188.067C78.5292 191.752 76.1925 195.137 73.684 198.324C68.6241 204.664 62.9028 210.376 58.8909 217.249C56.8893 220.677 55.2743 224.328 54.0372 228.108C53.4359 230.006 52.8947 231.922 52.4823 233.863C52.2418 234.825 52.0871 235.813 51.8895 236.793C51.7435 237.781 51.5631 238.76 51.4514 239.748C50.4377 247.66 50.9532 255.752 52.7057 263.57C54.3808 271.413 57.3188 278.964 60.9956 286.129C56.9752 279.145 53.8568 271.619 51.8895 263.759C49.9566 255.898 49.2694 247.686 50.1456 239.593C50.9789 231.501 53.4788 223.554 57.5508 216.459C61.6571 209.337 67.4214 203.521 72.3525 197.259C74.8438 194.14 77.1289 190.867 78.8986 187.336C80.6682 183.814 81.9139 180.017 82.1802 176.117C82.4637 172.217 81.7163 168.282 80.8314 164.382C79.9552 160.473 78.8814 156.522 78.6838 152.407C78.1426 144.211 80.4191 135.973 84.6801 129.057C88.9496 122.168 95.2637 116.463 102.763 113.448Z" fill="#2E3192"/>
<path d="M137.281 254.206C143.122 250.091 149.694 246.955 156.584 244.894C163.474 242.806 170.69 241.767 177.897 241.715C185.105 241.689 192.33 242.652 199.245 244.662C206.161 246.655 212.767 249.722 218.651 253.776C212.415 250.289 205.748 247.703 198.893 245.959C192.029 244.241 184.967 243.382 177.906 243.433C170.844 243.459 163.792 244.395 156.945 246.182C150.115 247.995 143.483 250.658 137.281 254.206Z" fill="#2E3192"/>
<path d="M131.293 233.528C133.449 232.746 135.717 232.291 138.002 232.059C140.287 231.81 142.607 231.836 144.901 232.033C147.194 232.265 149.471 232.678 151.67 233.348C153.869 234.009 156.008 234.877 157.984 236.054C155.751 235.547 153.56 235.049 151.361 234.654C149.162 234.267 146.954 233.941 144.737 233.743C142.521 233.52 140.296 233.425 138.062 233.391C135.829 233.374 133.587 233.451 131.293 233.528Z" fill="#2E3192"/>
<path d="M209.545 238.184C210.628 237.428 211.865 236.922 213.136 236.595C214.408 236.269 215.739 236.105 217.062 236.14C218.385 236.166 219.7 236.372 220.962 236.75C222.225 237.128 223.437 237.677 224.485 238.485L220.696 238.064C219.468 237.944 218.239 237.884 217.019 237.858C215.799 237.832 214.58 237.849 213.342 237.918L209.545 238.184Z" fill="#2E3192"/>
<path d="M317.9 146.247C315.855 143.412 315.297 139.804 314.944 136.325C314.575 132.588 314.386 128.748 315.4 125.131C316.413 121.515 318.802 118.104 322.289 116.721C324.205 115.957 326.361 115.836 328.183 114.848C330.287 113.706 331.627 111.584 333.208 109.789C336.567 105.991 341.223 103.526 346.068 102.031C350.913 100.536 355.982 99.935 361.016 99.3423C354.771 103.32 348.285 107.555 344.616 113.981C342.752 117.245 341.713 120.913 340.39 124.436C338.715 128.903 336.541 133.181 333.938 137.176C332.151 139.907 330.115 142.553 327.427 144.4C324.738 146.247 321.284 147.201 318.14 146.316" fill="#399EFD" fill-opacity="0.25"/>
<path d="M291.698 0C298.639 1.57209 304.309 6.99279 307.402 13.41C310.495 19.8272 311.285 27.1293 311.027 34.2509C310.933 36.8882 310.727 39.6459 311.835 42.0341C312.831 44.1817 314.773 45.7366 316.121 47.6867C318.733 51.458 318.922 56.4921 317.711 60.9163C316.499 65.3405 314.043 69.3008 311.611 73.1923C308.407 78.3296 305.907 83.7503 302.703 88.8961" fill="#399EFD" fill-opacity="0.25"/>
<path d="M302.368 88.7586C301.071 58.9233 297.359 29.3199 291.698 0L302.368 88.7586Z" fill="#399EFD" fill-opacity="0.25"/>
<path d="M288.819 92.7962C281.595 82.161 273.038 72.7542 263.614 64.0175C257.171 58.047 250.729 52.0851 244.294 46.1146C239.664 41.8279 235.042 37.5411 230.412 33.2544C240.068 34.5344 249.577 36.9226 258.683 40.3675C262.077 41.6475 265.642 43.2711 267.497 46.3895C268.477 48.0389 268.915 50.0148 270.195 51.4408C272.411 53.9149 276.208 53.8805 279.335 54.9887C284.163 56.7069 287.471 61.3716 288.888 66.294C290.306 71.2165 290.134 76.4482 289.953 81.5682C289.816 85.3051 289.687 89.0507 289.55 92.7876" fill="#399EFD" fill-opacity="0.25"/>
<path d="M214.897 97.7531C217.354 99.2479 220.507 99.0503 223.23 98.1225C225.953 97.1947 228.393 95.6312 231.004 94.4371C233.616 93.243 236.554 92.4097 239.346 93.0884C242 93.7327 244.165 95.657 246.717 96.6449C252.051 98.7066 258.194 96.4215 263.718 97.9163C269.336 99.4369 273.305 104.72 274.894 110.321C276.483 115.922 276.724 121.764 276.337 127.58C275.779 125.338 273.193 123.62 270.908 123.25C268.932 122.932 266.956 123.62 264.989 124.015C258.933 125.226 252.352 123.456 247.73 119.367C245.067 117.013 243.066 113.998 240.446 111.601C233.221 104.995 222.302 103.904 214.768 97.6586" fill="#399EFD" fill-opacity="0.25"/>
<path d="M268.03 118.302C277.317 129.152 284.971 141.368 290.813 154.4C296.629 167.363 300.606 181.177 302.625 195.24C303.768 203.22 304.231 211.296 304.051 219.362C304.017 221.02 306.594 221.02 306.628 219.362C306.946 204.801 305.116 190.206 301.302 176.151C297.505 162.166 291.741 148.687 284.215 136.299C279.971 129.315 275.161 122.692 269.852 116.481C268.769 115.218 266.957 117.048 268.03 118.302Z" fill="#399EFD" fill-opacity="0.25"/>
<path d="M283.442 80.4343C289.026 97.5469 294.618 114.677 299.128 132.116C303.604 149.426 307.006 167.071 308.166 184.94C308.819 194.965 308.759 205.042 307.831 215.05C307.676 216.699 310.253 216.691 310.408 215.05C312.075 197.164 310.898 179.141 308.02 161.436C305.125 143.619 300.469 126.137 295.22 108.878C292.256 99.1275 289.086 89.4373 285.925 79.747C285.418 78.1749 282.926 78.845 283.442 80.4343Z" fill="#399EFD" fill-opacity="0.25"/>
<path d="M301.603 75.8555C301.371 94.2738 303.098 112.641 304.902 130.947C306.706 149.22 308.604 167.518 308.673 185.893C308.716 196.219 308.175 206.562 306.706 216.785C306.603 217.481 306.878 218.16 307.608 218.374C308.209 218.546 309.094 218.16 309.197 217.472C311.809 199.209 311.594 180.739 310.314 162.381C309.025 143.928 306.732 125.57 305.34 107.134C304.55 96.7308 304.06 86.2931 304.189 75.8555C304.197 74.1975 301.62 74.1889 301.603 75.8555Z" fill="#399EFD" fill-opacity="0.25"/>
<path d="M311.628 222.498C311.894 198.264 312.187 173.643 318.956 150.173C320.786 143.816 323.097 137.605 325.966 131.643C326.679 130.157 324.463 128.843 323.741 130.346C313.183 152.278 310.297 176.778 309.463 200.841C309.214 208.057 309.128 215.282 309.051 222.506C309.025 224.156 311.602 224.156 311.628 222.498Z" fill="#CBCBFF"/>
<g opacity="0.5">
<path opacity="0.5" d="M323.174 141.11C323.947 139.306 325.201 137.777 326.644 136.471C328.105 135.2 329.789 134.134 331.67 133.593C330.227 134.908 328.775 136.059 327.383 137.313C325.974 138.533 324.651 139.83 323.174 141.11Z" fill="#FD8970"/>
</g>
<g opacity="0.5">
<path opacity="0.5" d="M326.507 132.287C327.469 129.925 329.084 127.855 330.983 126.145C332.907 124.461 335.149 123.095 337.615 122.434C335.536 123.903 333.56 125.337 331.721 126.978C329.874 128.611 328.208 130.406 326.507 132.287Z" fill="#FD8970"/>
</g>
<g opacity="0.5">
<path opacity="0.5" d="M332.486 121.927C333.216 120.286 334.436 118.929 335.828 117.821C337.236 116.738 338.86 115.888 340.63 115.587C339.221 116.695 337.846 117.649 336.515 118.697C335.166 119.736 333.903 120.836 332.486 121.927Z" fill="#FD8970"/>
</g>
<g opacity="0.5">
<path opacity="0.5" d="M338.972 112.288C340.037 110.39 341.626 108.826 343.396 107.581C345.191 106.352 347.21 105.416 349.358 105.089C347.519 106.249 345.733 107.297 344.032 108.5C342.305 109.668 340.698 110.965 338.972 112.288Z" fill="#FD8970"/>
</g>
<path d="M318.131 123.946C320.734 129.169 321.859 135.122 321.335 140.93L318.131 123.946Z" fill="#86A7FF"/>
<path d="M322.847 119.771C324.754 123.052 325.656 126.91 325.407 130.689L322.847 119.771Z" fill="#86A7FF"/>
<path d="M331.335 114.926C331.945 117.374 331.842 119.994 331.051 122.391L331.335 114.926Z" fill="#86A7FF"/>
<path d="M336.437 110.854C336.618 112.787 336.248 114.771 335.389 116.515L336.437 110.854Z" fill="#86A7FF"/>
<path d="M303 80.8586C309.141 72.1526 313.58 62.2458 316 51.8586L303 80.8586Z" fill="#86A7FF"/>
<path d="M303 72.8586C308.173 64.961 311.914 56.1042 314 46.8586L303 72.8586Z" fill="#86A7FF"/>
<path d="M302 65.8586C305.92 58.919 308.95 51.5104 311 43.8586L302 65.8586Z" fill="#86A7FF"/>
<path d="M242.181 36.9828C248.006 42.833 253.091 49.4135 257.284 56.5265L242.181 36.9828Z" fill="#86A7FF"/>
<path d="M251.717 38.6237C258.16 45.6594 262.799 54.336 265.084 63.5967L251.717 38.6237Z" fill="#86A7FF"/>
<path d="M261.527 43.1337C266.089 51.5439 269.688 60.4782 272.231 69.7045L261.527 43.1337Z" fill="#86A7FF"/>
<path d="M273.021 54.9459C276.08 61.5435 277.841 68.7339 278.159 76.0016L273.021 54.9459Z" fill="#86A7FF"/>
<path d="M278.442 55.908C281.38 63.545 282.755 71.7835 282.446 79.9532L278.442 55.908Z" fill="#86A7FF"/>
<path d="M283.958 61.3889C286.14 68.5192 286.999 76.0532 286.492 83.4927L283.958 61.3889Z" fill="#86A7FF"/>
<path d="M232 95.8586C235.969 97.714 239.684 100.072 243 102.859L232 95.8586Z" fill="#86A7FF"/>
<path d="M239 94.8586C244.371 97.758 249.18 101.874 253 106.859L239 94.8586Z" fill="#86A7FF"/>
<path d="M252 98.8586C255.384 101.868 258.137 105.653 260 109.859L252 98.8586Z" fill="#86A7FF"/>
<path d="M258 97.8586C262.257 101.828 265.113 107.193 266 112.859L258 97.8586Z" fill="#86A7FF"/>
<path d="M266 100.859C270.135 106.132 272.596 112.44 273 118.859L266 100.859Z" fill="#86A7FF"/>
<path d="M228 103.859C231.869 102.603 236.095 102.524 240 103.655L228 103.859Z" fill="#86A7FF"/>
<path d="M239 108.859C242.199 108.064 245.624 107.738 249 107.898L239 108.859Z" fill="#86A7FF"/>
<path d="M264.774 124.71C266.578 124.35 268.391 123.748 270.212 123.903C265.994 120.553 264.147 114.402 259.233 112.117C257.335 111.232 255.17 111.051 253.082 111.18C250.986 111.309 248.924 111.73 246.845 111.996C244.655 112.28 242.447 112.383 240.239 112.323C242.851 114.72 244.852 117.726 247.507 120.072C252.146 124.152 258.718 125.922 264.774 124.71Z" fill="#399EFD" fill-opacity="0.25"/>
<path d="M317.47 292.563H295.366C283.683 292.563 274.207 283.088 274.207 271.404V225.238C274.207 213.555 283.683 204.079 295.366 204.079H317.47C329.153 204.079 338.628 213.555 338.628 225.238V271.404C338.628 283.096 329.153 292.563 317.47 292.563Z" fill="#399EFD"/>
<path d="M297.548 268.14H268.769V239.361H297.548V268.14ZM270.058 266.851H296.259V240.65H270.058V266.851Z" fill="white"/>
<path d="M337.202 228.984H313.071V204.853H337.202V228.984ZM314.359 227.695H335.913V206.141H314.359V227.695Z" fill="white"/>
<path d="M354.65 288.319H314.007V247.677H354.65V288.319ZM315.296 287.031H353.361V248.966H315.296V287.031Z" fill="white"/>
<path d="M294.249 258.493H281.844V246.088H294.249V258.493ZM283.133 257.204H292.961V247.376H283.133V257.204Z" fill="white"/>
<path d="M292.342 228.795H279.825V216.278H292.342V228.795ZM281.114 227.506H291.053V217.567H281.114V227.506Z" fill="white"/>
<path d="M335.853 268.14H320.82V253.106H335.853V268.14ZM322.108 266.851H334.565V254.395H322.108V266.851Z" fill="white"/>
<path d="M324.763 220.007H319.162V214.406H324.763V220.007ZM320.442 218.718H323.466V215.694H320.442V218.718Z" fill="white"/>
<path d="M312.805 243.055H304.729V234.98H312.805V243.055ZM306.018 241.767H311.516V236.269H306.018V241.767Z" fill="white"/>
<path d="M305.7 289.909H293.974V278.182H305.7V289.909ZM295.262 288.62H304.411V279.471H295.262V288.62Z" fill="white"/>
<g opacity="0.5">
<path opacity="0.5" d="M338.629 225.238C338.629 217.06 333.99 209.973 327.203 206.45C326.688 207.086 326.181 207.73 325.674 208.375C310.056 228.176 292.823 246.698 274.216 263.707V271.404C274.216 283.088 283.691 292.563 295.375 292.563H317.478C329.162 292.563 338.637 283.088 338.637 271.404V225.238H338.629Z" fill="#3847DC"/>
</g>
<path d="M360.75 99.514C356.592 100.751 352.675 102.787 348.817 104.814C345.115 106.765 341.369 108.749 338.337 111.618C335.717 114.101 333.715 117.151 331.739 120.175C326.559 128.104 321.293 136.239 319.12 145.457L318.037 144.074C318.14 144.864 318.329 145.637 318.578 146.402C321.602 147.098 324.867 146.161 327.444 144.4C330.133 142.553 332.177 139.907 333.956 137.175C336.559 133.181 338.732 128.903 340.407 124.436C341.73 120.913 342.761 117.245 344.634 113.981C348.242 107.641 354.59 103.44 360.75 99.514Z" fill="#399EFD" fill-opacity="0.25"/>
<path d="M359.469 210.78L366.342 193.599C366.342 193.599 368.06 203.908 368.919 203.049C369.778 202.19 375.791 195.317 375.791 195.317L374.932 209.062L385.241 207.344L377.51 217.653L388.677 218.512L381.805 226.243C381.805 226.243 391.255 227.961 390.396 227.961C389.537 227.961 384.382 233.116 384.382 233.116L391.255 235.693L377.51 242.566L363.765 240.847L359.469 210.78Z" fill="#3D5475"/>
<path d="M379.228 231.398L371.496 241.706L341.429 243.425L337.228 225.779C336.429 226.192 335.931 226.441 335.931 226.441L326.997 218.52C326.997 218.52 333.74 216.098 333.972 216.003C334.204 215.909 328.955 212.095 328.955 212.095C328.955 212.095 331.146 212.06 333.053 212.077C331.189 205.772 329.402 199.612 329.402 199.612L335.415 203.908V188.444C335.415 188.444 344.006 202.189 344.006 201.33C344.006 200.471 350.879 193.599 350.879 193.599L352.597 201.33L362.046 190.163L357.751 207.344L366.342 204.767L362.906 213.357L371.496 212.498L367.201 219.371L374.932 218.512L368.919 224.525L377.51 225.384L370.637 230.539L379.228 231.398Z" fill="#399EFD"/>
<path d="M331.773 240.847C331.773 240.847 322.942 234.645 314.592 224.525C318.887 226.243 324.901 228.821 324.042 228.821C323.182 228.821 318.887 211.639 318.887 211.639L330.055 225.384L329.196 208.203C329.196 208.203 335.209 223.666 336.068 222.807C336.927 221.948 341.223 209.062 341.223 209.062L340.364 223.666L352.391 211.639L348.095 226.243L356.686 220.23L353.25 229.68L361.84 227.961L354.109 239.129L331.773 240.847Z" fill="#3D5475"/>
<path d="M379.219 237.48H329.496C326.361 237.48 324.007 240.323 324.574 243.399L333.654 292.082C334.092 294.453 336.163 296.171 338.577 296.171H370.972C373.412 296.171 375.499 294.41 375.903 292.005L384.15 243.321C384.674 240.263 382.32 237.48 379.219 237.48Z" fill="#399EFD"/>
<path d="M336.678 296.979C339.013 296.979 340.905 295.087 340.905 292.752C340.905 290.418 339.013 288.526 336.678 288.526C334.344 288.526 332.452 290.418 332.452 292.752C332.452 295.087 334.344 296.979 336.678 296.979Z" fill="#399EFD"/>
<path d="M336.678 299.625C332.89 299.625 329.806 296.541 329.806 292.752C329.806 288.964 332.89 285.88 336.678 285.88C340.467 285.88 343.551 288.964 343.551 292.752C343.559 296.541 340.475 299.625 336.678 299.625ZM336.678 287.16C333.603 287.16 331.094 289.668 331.094 292.744C331.094 295.819 333.603 298.328 336.678 298.328C339.762 298.328 342.262 295.819 342.262 292.744C342.271 289.668 339.762 287.16 336.678 287.16Z" fill="#399EFD"/>
<path d="M380.705 247.351C383.168 247.351 385.164 245.354 385.164 242.892C385.164 240.43 383.168 238.433 380.705 238.433C378.243 238.433 376.247 240.43 376.247 242.892C376.247 245.354 378.243 247.351 380.705 247.351Z" fill="#399EFD"/>
<path d="M380.705 249.627C376.994 249.627 373.97 246.603 373.97 242.892C373.97 239.181 376.994 236.157 380.705 236.157C384.416 236.157 387.44 239.181 387.44 242.892C387.44 246.612 384.425 249.627 380.705 249.627ZM380.705 237.445C377.699 237.445 375.259 239.885 375.259 242.892C375.259 245.899 377.699 248.338 380.705 248.338C383.712 248.338 386.152 245.899 386.152 242.892C386.152 239.885 383.712 237.445 380.705 237.445Z" fill="#399EFD"/>
<path d="M351.497 265.614C351.497 263.089 353.542 261.044 356.067 261.044C358.593 261.044 360.638 263.089 360.638 265.614C360.638 268.14 358.593 270.184 356.067 270.184C353.542 270.184 351.497 268.131 351.497 265.614Z" fill="#399EFD"/>
<path d="M356.067 273.595C351.669 273.595 348.086 270.013 348.086 265.614C348.086 261.216 351.669 257.634 356.067 257.634C360.466 257.634 364.048 261.216 364.048 265.614C364.048 270.013 360.466 273.595 356.067 273.595ZM356.067 258.922C352.373 258.922 349.375 261.929 349.375 265.614C349.375 269.308 352.382 272.306 356.067 272.306C359.761 272.306 362.759 269.3 362.759 265.614C362.759 261.92 359.753 258.922 356.067 258.922Z" fill="#399EFD"/>
<path d="M327.529 255.039C330.253 255.039 332.46 252.832 332.46 250.108C332.46 247.385 330.253 245.177 327.529 245.177C324.806 245.177 322.598 247.385 322.598 250.108C322.598 252.832 324.806 255.039 327.529 255.039Z" fill="#399EFD"/>
<path d="M327.529 257.96C323.199 257.96 319.677 254.438 319.677 250.108C319.677 245.778 323.199 242.256 327.529 242.256C331.859 242.256 335.381 245.778 335.381 250.108C335.381 254.438 331.867 257.96 327.529 257.96ZM327.529 243.536C323.912 243.536 320.966 246.483 320.966 250.099C320.966 253.716 323.912 256.663 327.529 256.663C331.146 256.663 334.092 253.716 334.092 250.099C334.101 246.483 331.154 243.536 327.529 243.536Z" fill="#399EFD"/>
<path d="M373.154 280.614C373.154 278.028 375.25 275.932 377.836 275.932C380.422 275.932 382.518 278.028 382.518 280.614C382.518 283.199 380.422 285.295 377.836 285.295C375.25 285.295 373.154 283.199 373.154 280.614Z" fill="#399EFD"/>
<path d="M377.836 288.594C373.437 288.594 369.864 285.021 369.864 280.622C369.864 276.224 373.437 272.65 377.836 272.65C382.234 272.65 385.808 276.224 385.808 280.622C385.808 285.012 382.234 288.594 377.836 288.594ZM377.836 273.93C374.151 273.93 371.152 276.928 371.152 280.614C371.152 284.299 374.151 287.297 377.836 287.297C381.521 287.297 384.519 284.299 384.519 280.614C384.519 276.928 381.521 273.93 377.836 273.93Z" fill="#399EFD"/>
<path d="M354.581 281.215C357.699 285.966 357.648 291.747 357.141 297.245H358.43C358.859 292.434 358.936 287.52 356.986 283.002C356.007 280.725 354.538 278.698 352.571 277.169C350.629 275.665 348.361 274.695 346.076 273.844C342.099 272.358 334.427 270.528 336.163 264.686C336.575 263.278 337.365 262.006 338.044 260.718C338.705 259.455 339.324 258.175 339.882 256.869C340.982 254.275 341.815 251.577 342.15 248.777C342.769 243.528 341.317 237.841 337.236 234.276C336.618 233.734 335.699 234.636 336.326 235.186C340.174 238.545 341.463 243.846 340.862 248.777C340.509 251.663 339.573 254.464 338.379 257.11C337.297 259.523 335.673 261.8 334.917 264.343C333.499 269.128 337.58 272.031 341.515 273.543C346.282 275.382 351.609 276.67 354.581 281.215Z" fill="#399EFD"/>
<path d="M366.84 234.276C363.275 236.269 359.34 238.58 358.069 242.729C357.527 244.473 357.51 246.431 358.292 248.107C358.996 249.61 360.311 250.641 361.754 251.388C364.726 252.934 368.85 253.63 369.125 257.677C369.254 259.584 368.781 261.568 369.374 263.424C369.915 265.15 371.35 266.259 373.076 266.637C375.585 267.186 378.059 266.207 380.576 266.43C383.093 266.645 385.275 268.277 386.401 270.494C386.779 271.233 387.887 270.58 387.517 269.841C385.713 266.267 382.045 264.798 378.196 265.219C376.195 265.442 373.875 265.975 372.028 264.867C370.113 263.716 370.353 261.353 370.422 259.42C370.482 257.771 370.448 256.027 369.511 254.601C368.721 253.398 367.501 252.599 366.23 251.99C363.352 250.598 359.435 249.704 359.005 245.925C358.412 240.658 363.567 237.583 367.493 235.384C368.214 234.98 367.57 233.872 366.84 234.276Z" fill="#399EFD"/>
<g opacity="0.25">
<path opacity="0.25" d="M381.393 237.978C380.242 240.856 378.97 243.682 377.45 246.38C371.909 256.182 363.284 263.922 353.929 270.193C348.25 273.999 342.185 277.401 337.512 282.392C335.742 284.282 334.187 286.481 333.036 288.835L333.646 292.091C334.084 294.462 336.155 296.18 338.569 296.18H370.964C373.404 296.18 375.491 294.419 375.895 292.013L384.142 243.33C384.546 241.036 383.326 238.906 381.393 237.978Z" fill="#399EFD"/>
</g>
<path d="M350.811 158.514L347.812 163.695H353.8L350.811 158.514Z" fill="#3847DC"/>
<path d="M357.228 164.476L354.238 169.665H360.217L357.228 164.476Z" fill="#3847DC"/>
<path d="M348.998 167.784L346.008 172.972H351.996L348.998 167.784Z" fill="#3847DC"/>
<path d="M13.4978 156.47L10.5083 161.65H16.496L13.4978 156.47Z" fill="#3847DC"/>
<path d="M19.9239 162.432L16.9258 167.612H22.9135L19.9239 162.432Z" fill="#3847DC"/>
<path d="M11.6939 165.74L8.6958 170.928H14.6835L11.6939 165.74Z" fill="#3847DC"/>
<path d="M345.51 54.5764L342.512 49.3877H348.499L345.51 54.5764Z" fill="#3847DC"/>
<path d="M351.927 48.6144L348.938 43.4257H354.925L351.927 48.6144Z" fill="#3847DC"/>
<path d="M343.697 45.2984L340.708 40.1183H346.695L343.697 45.2984Z" fill="#3847DC"/>
<path d="M125.331 75.7783C125.331 75.7783 104.602 75.0652 100.306 100.837C98.5884 115.441 102.025 120.596 99.4474 123.173C96.8702 125.75 84.8433 130.045 89.9977 136.059C94.293 142.072 82.2661 142.072 81.4071 147.227C80.548 152.381 86.5614 169.562 113.192 166.985C139.823 164.408 169.891 158.395 177.622 149.804C181.918 146.368 186.213 137.777 177.622 136.918C177.622 132.623 175.904 127.468 170.75 127.468C167.314 127.468 168.173 123.173 169.891 118.878C171.609 114.582 170.75 109.428 163.877 105.132C158.723 101.696 163.018 94.8237 163.018 90.5284C163.018 86.2331 160.338 71.1135 150.029 68.5363C139.72 65.9591 127.367 68.9745 125.331 75.7783Z" fill="url(#paint0_linear_84_7673)"/>
<path d="M177.579 146.058C175.749 145.01 173.602 144.71 171.583 144.1C167.923 143.009 164.255 140.277 164.032 136.471C163.937 134.822 164.504 133.215 164.685 131.566C164.865 129.925 164.496 128.018 163.095 127.15C162.253 126.635 161.214 126.592 160.278 126.274C156.841 125.114 155.81 120.785 155.682 117.159C155.553 113.534 155.578 109.385 152.847 106.988C150.604 105.021 147.28 105.004 144.316 105.364C134.325 106.576 124.721 110.854 117.135 117.477L118.879 115.751C116.74 117.099 114.592 118.517 112.934 120.424C111.276 122.34 110.142 124.839 110.4 127.357C110.761 130.913 113.768 134.014 113.321 137.571C112.926 140.741 109.919 142.897 107.024 144.246C104.12 145.594 100.882 146.668 98.9317 149.203C96.8871 151.848 96.7497 155.551 97.6001 158.781C98.4248 161.882 100.16 164.666 102.454 166.899C105.589 167.303 109.155 167.372 113.192 166.985C139.823 164.408 169.89 158.395 177.622 149.804C178.284 149.271 178.945 148.618 179.564 147.888C179.048 147.149 178.352 146.505 177.579 146.058Z" fill="#083149"/>
<path d="M108.897 158.395C108.897 158.395 109.757 145.509 131.233 142.931C130.374 137.777 128.656 128.327 128.656 128.327L144.119 129.186L145.837 139.495C145.837 139.495 160.441 136.918 164.737 141.213C157.005 154.099 138.965 169.562 109.757 158.395" fill="#FF8773"/>
<path d="M128.965 130.045C133.69 134.006 139.076 135.277 145.304 136.291L144.119 129.186L128.656 128.327C128.656 128.327 128.776 128.989 128.965 130.045Z" fill="#FF8773"/>
<path d="M114.91 114.582C114.91 114.582 104.601 81.0786 129.514 80.2196C145.837 79.3605 157.004 82.7968 157.004 99.9781C157.004 116.266 153.92 124.058 143.354 131.411C142.22 132.202 140.811 132.519 139.445 132.296C129.282 130.638 121.345 128.258 114.91 114.582Z" fill="#FF8773"/>
<path d="M183.636 182.448L193.085 175.576" stroke="#FBB03B" stroke-width="0.5" stroke-miterlimit="10"/>
<path d="M180.2 160.113C180.2 160.113 192.227 177.294 199.099 172.999C205.972 168.703 224.871 154.958 224.871 154.958L226.589 163.549C226.589 163.549 203.394 188.462 191.368 189.321C179.341 190.18 170.75 174.717 170.75 174.717L180.2 160.113Z" fill="#FF8773"/>
<path d="M225.627 184.373L196.548 191.735C195.225 192.07 193.945 191.022 193.945 189.604V145.663C193.945 144.546 194.752 143.601 195.826 143.481L224.906 140.208C226.151 140.071 227.242 141.084 227.242 142.39V182.242C227.234 183.256 226.572 184.132 225.627 184.373Z" fill="#B3B3B3"/>
<path d="M225.928 183.642L198.163 190.816C196.9 191.142 195.68 190.128 195.68 188.737V145.929C195.68 144.838 196.453 143.919 197.476 143.808L225.241 140.62C226.426 140.483 227.466 141.471 227.466 142.742V181.563C227.457 182.551 226.83 183.411 225.928 183.642Z" fill="#083149"/>
<g opacity="0.65">
<path opacity="0.65" d="M227.457 181.572V142.751C227.457 141.48 226.417 140.492 225.232 140.629L223.806 140.792C221.375 146.763 221.091 153.386 219.845 159.726C218.548 166.35 215.696 173.299 209.769 176.512C206.891 178.076 203.523 178.608 200.706 180.284C198.446 181.632 196.711 183.737 195.671 186.142V188.737C195.671 190.12 196.891 191.142 198.154 190.816L225.919 183.643C226.83 183.411 227.457 182.552 227.457 181.572Z" fill="#F2F2F2"/>
</g>
<path d="M212.844 153.24C214.268 153.24 215.421 152.086 215.421 150.663C215.421 149.24 214.268 148.086 212.844 148.086C211.421 148.086 210.267 149.24 210.267 150.663C210.267 152.086 211.421 153.24 212.844 153.24Z" fill="#399EFD"/>
<path d="M112.334 108.569C112.334 108.569 129.515 97.4009 128.656 85.374C132.092 87.9512 139.824 91.3875 146.696 92.2465C153.569 93.1056 157.864 100.837 157.864 106.851C160.441 101.696 160.441 86.2331 157.864 82.7968C155.287 79.3606 131.233 75.9243 124.36 78.5015C117.488 81.0787 109.756 90.5284 109.756 92.2465C109.756 93.9647 112.334 108.569 112.334 108.569Z" fill="#364F6F"/>
<path d="M117.857 110.45C119.283 113.182 118.733 116.292 116.629 117.391C114.524 118.491 111.663 117.159 110.237 114.428C108.811 111.696 109.361 108.586 111.466 107.486C113.57 106.387 116.431 107.71 117.857 110.45Z" fill="#FF8773"/>
<path d="M231.606 265.125C231.606 265.125 227.946 273.715 227.035 276.293C226.125 278.87 220.635 293.474 218.806 296.051C217.861 297.383 218.385 299.178 219.106 300.604C219.845 302.047 218.943 303.748 217.276 304.058C213.814 304.693 208.677 303.997 206.916 295.192C206.006 291.756 212.406 284.024 211.486 282.306C210.576 280.588 207.827 276.293 212.397 272.856C216.967 269.42 222.457 260.829 222.457 260.829L231.606 265.125Z" fill="#FF8773"/>
<path d="M228.866 217.017C228.866 217.017 223.376 229.903 225.206 241.93C226.117 253.098 220.636 263.407 220.636 263.407C220.636 263.407 229.776 265.125 230.695 267.702C239.836 253.957 251.725 230.762 251.725 230.762L248.985 201.554L228.866 217.017Z" fill="url(#paint1_linear_84_7673)"/>
<path d="M269.182 253.691C269.182 253.691 275.298 265.185 275.298 266.903C275.298 268.621 268.142 278.071 275.298 281.507C282.454 284.943 285.134 289.239 285.134 292.675C285.134 295.682 290.632 300.673 297.402 297.821C298.965 297.159 299.421 295.244 298.304 293.989C294.584 289.797 291.251 284.419 290.495 281.507C289.602 278.071 281.552 249.722 281.552 249.722L269.182 253.691Z" fill="#FF8773"/>
<path d="M186.729 193.616L249.81 177.784C258.289 175.653 266.888 180.816 268.606 189.08L282.386 252.033C282.386 252.033 274.267 252.471 270.685 256.766C268.898 253.33 262.747 240.006 257.378 237.429C252.009 234.851 243.066 218.529 245.746 205.643C241.271 213.375 201.917 258.905 167.932 238.288C158.99 231.415 151.833 212.516 151.833 212.516L186.729 193.616Z" fill="url(#paint2_linear_84_7673)"/>
<g opacity="0.93">
<path opacity="0.93" d="M255.247 208.134C254.208 204.037 253.177 199.243 249.397 197.345C245.257 195.274 240.411 197.937 236.563 200.515C228.9 205.652 221.228 210.798 213.566 215.935C207.604 219.938 201.556 223.976 194.812 226.441C188.069 228.907 180.431 229.68 173.739 227.068C167.047 224.457 161.627 217.979 161.652 210.789L159.118 211.107C158.233 210.566 157.245 210.256 156.232 210.127L151.842 212.507C151.842 212.507 158.998 231.406 167.941 238.279C201.925 258.897 241.279 213.366 245.755 205.635C243.075 218.52 252.017 234.843 257.387 237.42C262.756 239.997 268.898 253.321 270.693 256.757C271.595 255.675 272.781 254.842 274.061 254.189C269.998 238.099 259.345 224.242 255.247 208.134Z" fill="url(#paint3_linear_84_7673)"/>
</g>
<path opacity="0.5" d="M164.737 141.213C163.903 140.38 162.684 139.804 161.257 139.426C136.19 161.659 118.347 154.469 112.583 151.024C112.574 151.015 112.557 151.015 112.548 151.007C109.138 154.786 108.897 158.395 108.897 158.395H109.757C138.965 169.562 157.005 154.099 164.737 141.213Z" fill="#FF8773"/>
<path d="M111.784 152.845C117.685 156.17 136.009 163.034 160.879 139.332C167.726 137.949 188.782 169.562 193.077 170.421C193.077 177.294 192.218 191.039 188.782 193.616C185.345 196.193 185.345 196.193 185.345 196.193C185.345 196.193 164.805 208.384 157.013 215.024C155.372 216.424 154.831 218.735 155.69 220.72C157.013 223.769 157.743 225.075 157.743 225.075C157.743 225.075 151.842 230.565 147.546 225.41C145.828 220.256 141.395 209.457 141.395 209.457L137.238 205.652C137.238 205.652 135.519 219.397 131.224 222.833C125.374 220.325 99.2068 182.878 108.846 153.953C109.258 152.733 110.675 152.218 111.784 152.845Z" fill="#399EFD"/>
<path opacity="0.25" d="M159.865 212.765C168.903 205.952 185.345 196.193 185.345 196.193C185.345 196.193 185.345 196.193 188.781 193.616C192.218 191.039 193.077 177.294 193.077 170.422C189.056 169.614 170.372 141.901 162.374 139.461C166.025 154.254 171.377 185.782 159.865 212.765Z" fill="#97B8FF"/>
<path opacity="0.25" d="M157.752 225.067C157.752 225.067 157.047 223.812 155.776 220.892C154.436 223.177 152.95 225.402 151.3 227.567C154.642 227.953 157.752 225.067 157.752 225.067Z" fill="#97B8FF"/>
<path d="M128.57 204.964C128.57 204.964 127.848 211.184 128.57 213.332C129.291 215.479 132.384 212.576 132.289 206.391C130.365 205.54 128.57 204.964 128.57 204.964Z" fill="#0071BC"/>
<path d="M133.81 188.462C133.81 188.462 150.991 205.643 173.327 188.462C183.893 181.005 188.249 177.947 189.804 176.856C190.233 176.555 190.817 176.632 191.152 177.028C191.496 177.431 191.479 178.033 191.101 178.411L185.345 184.166L186.462 187.525C186.84 188.659 186.556 189.896 185.723 190.756C179.864 196.769 155.467 219.191 128.561 204.99C127.71 196.4 133.81 188.462 133.81 188.462Z" fill="#FF8773"/>
<path d="M174.616 189.321C174.616 189.321 178.911 183.307 178.911 179.012" stroke="#FF8773" stroke-width="2.5" stroke-miterlimit="10" stroke-linecap="round"/>
<path d="M231.434 154.709C231.262 154.228 230.996 153.807 230.661 153.429C230.618 153.369 230.558 153.317 230.506 153.257C229.836 152.596 228.96 152.158 227.981 152.089H227.972L222.62 149.409C221.993 149.091 221.229 149.349 220.919 149.976C220.601 150.603 220.859 151.367 221.486 151.685L227.637 154.761V155.646L220.593 152.123C219.966 151.805 219.201 152.063 218.892 152.69C218.583 153.317 218.832 154.082 219.459 154.391L227.637 158.48V159.142L221.607 156.127C220.979 155.809 220.215 156.066 219.906 156.694C219.596 157.321 219.845 158.085 220.473 158.395L227.637 161.977V162.578L221.607 159.563C220.979 159.245 220.215 159.503 219.906 160.13C219.588 160.757 219.845 161.522 220.473 161.831L227.637 165.413V165.422C227.646 165.422 227.646 165.422 227.654 165.422C228.702 165.413 229.647 165.018 230.36 164.365C231.185 163.626 231.692 162.544 231.692 161.358V156.118C231.701 155.637 231.606 155.147 231.434 154.709Z" fill="#FF8773"/>
<path opacity="0.35" d="M168.387 203.779C153.921 211.098 138.122 204.045 129.102 198.453C128.595 200.497 128.338 202.714 128.561 204.982C143.517 212.876 157.692 209.449 168.344 203.822C168.37 203.813 168.379 203.796 168.387 203.779Z" fill="#FF8773"/>
<path d="M130.803 110.287C131.515 110.287 132.092 108.748 132.092 106.851C132.092 104.953 131.515 103.414 130.803 103.414C130.092 103.414 129.515 104.953 129.515 106.851C129.515 108.748 130.092 110.287 130.803 110.287Z" fill="#1A1A1A"/>
<path d="M150.132 109.857C150.844 109.857 151.421 108.319 151.421 106.421C151.421 104.523 150.844 102.985 150.132 102.985C149.421 102.985 148.844 104.523 148.844 106.421C148.844 108.319 149.421 109.857 150.132 109.857Z" fill="#1A1A1A"/>
<path d="M127.367 100.408C127.367 100.408 129.944 96.9714 133.381 99.5485" stroke="#1A1A1A" stroke-miterlimit="10" stroke-linecap="round"/>
<path d="M146.997 98.8871C146.997 98.8871 150.244 96.0779 153.053 99.3338" stroke="#1A1A1A" stroke-miterlimit="10" stroke-linecap="round"/>
<path d="M132.951 114.582C132.951 114.582 133.81 121.455 141.542 119.737" stroke="#1A1A1A" stroke-miterlimit="10" stroke-linecap="round"/>
<path d="M140.932 105.373C140.966 106.627 141 107.882 141.026 109.127C141.035 109.531 141.017 110.029 141.335 110.338C141.653 110.648 142.134 110.553 142.444 110.287C142.615 110.141 142.736 109.909 142.925 109.797C143.2 109.634 143.526 109.763 143.715 109.995C144.041 110.39 144.041 110.991 143.878 111.447C143.517 112.452 142.358 112.89 141.413 112.417C141.043 112.237 140.717 112.787 141.086 112.976C142.04 113.448 143.242 113.311 143.981 112.503C144.669 111.747 144.909 110.476 144.248 109.625C143.93 109.213 143.397 108.981 142.882 109.127C142.65 109.196 142.461 109.342 142.297 109.514C142.1 109.72 141.773 110.124 141.696 109.617C141.584 108.947 141.653 108.217 141.636 107.538C141.619 106.816 141.602 106.095 141.576 105.373C141.567 104.952 140.923 104.952 140.932 105.373Z" fill="#1A1A1A"/>
<path d="M111.414 111.369C111.389 110.485 112.007 109.651 112.875 109.445C113.699 109.256 114.584 109.703 114.979 110.442C115.177 110.811 115.727 110.485 115.538 110.115C115.014 109.119 113.803 108.569 112.703 108.827C111.569 109.093 110.736 110.218 110.77 111.369C110.779 111.782 111.423 111.79 111.414 111.369Z" fill="#1A1A1A"/>
<path d="M112.505 109.17C111.775 111.009 112.162 113.173 113.433 114.677C113.699 114.995 114.155 114.539 113.888 114.221C112.763 112.881 112.488 110.957 113.124 109.342C113.287 108.955 112.66 108.792 112.505 109.17Z" fill="#1A1A1A"/>
<path d="M129.945 174.382C130.409 176.289 130.958 178.093 131.749 179.82C132.522 181.555 133.51 183.153 134.635 184.768C133.02 183.634 131.792 181.976 130.967 180.172C130.159 178.359 129.73 176.349 129.945 174.382Z" fill="#97B8FF"/>
<path d="M163.783 154.718C165.862 155.963 167.666 157.699 169.04 159.743C170.423 161.788 171.239 164.271 171.188 166.788C170.982 169.193 171.385 171.504 172.253 173.729C172.683 174.828 173.232 175.902 173.868 176.907C174.487 177.93 175.208 178.9 176.007 179.811C174.16 178.239 172.683 176.22 171.643 173.987C171.119 172.87 170.75 171.676 170.518 170.456C170.398 169.846 170.346 169.227 170.312 168.6C170.286 167.99 170.32 167.329 170.337 166.762C170.406 164.425 169.685 162.123 168.49 160.087C167.898 159.065 167.185 158.102 166.386 157.209C165.595 156.316 164.719 155.482 163.783 154.718Z" fill="#97B8FF"/>
<path d="M118.227 99.4969C120.168 98.0279 121.586 96.138 122.694 94.0676C123.819 91.9973 124.609 89.7294 125.649 87.5302C125.262 89.9184 124.609 92.2894 123.45 94.4714C122.857 95.5538 122.144 96.5761 121.268 97.4524C120.409 98.3372 119.369 99.0588 118.227 99.4969Z" fill="#E6E6E6"/>
<path d="M150.579 76.3022C153.569 77.1098 156.18 79.309 157.666 82.1009C159.144 84.8929 159.496 88.2948 158.482 91.2242C158.818 88.1659 158.302 85.1248 156.91 82.5047C155.519 79.876 153.294 77.7455 150.579 76.3022Z" fill="#E6E6E6"/>
<path d="M171.944 130.578C173.293 130.896 174.418 131.944 175.079 133.172C175.732 134.409 175.956 135.93 175.466 137.219C175.268 135.87 174.916 134.676 174.323 133.576C173.731 132.468 172.949 131.497 171.944 130.578Z" fill="#E6E6E6"/>
<defs>
<linearGradient id="paint0_linear_84_7673" x1="81.3268" y1="117.435" x2="182.579" y2="117.435" gradientUnits="userSpaceOnUse">
<stop stop-color="#3D5475"/>
<stop offset="0.2549" stop-color="#364F6F"/>
<stop offset="0.6276" stop-color="#22425F"/>
<stop offset="1" stop-color="#083149"/>
</linearGradient>
<linearGradient id="paint1_linear_84_7673" x1="220.638" y1="234.626" x2="251.723" y2="234.626" gradientUnits="userSpaceOnUse">
<stop stop-color="#3D5475"/>
<stop offset="0.2549" stop-color="#364F6F"/>
<stop offset="0.6276" stop-color="#22425F"/>
<stop offset="1" stop-color="#083149"/>
</linearGradient>
<linearGradient id="paint2_linear_84_7673" x1="151.848" y1="217.034" x2="282.391" y2="217.034" gradientUnits="userSpaceOnUse">
<stop stop-color="#3D5475"/>
<stop offset="0.2549" stop-color="#364F6F"/>
<stop offset="0.6276" stop-color="#22425F"/>
<stop offset="1" stop-color="#083149"/>
</linearGradient>
<linearGradient id="paint3_linear_84_7673" x1="151.848" y1="226.686" x2="274.056" y2="226.686" gradientUnits="userSpaceOnUse">
<stop stop-color="#3D5475"/>
<stop offset="0.2549" stop-color="#364F6F"/>
<stop offset="0.6276" stop-color="#22425F"/>
<stop offset="1" stop-color="#083149"/>
</linearGradient>
</defs>
</svg>
