<svg width="521" height="716" viewBox="0 0 521 716" fill="none" xmlns="http://www.w3.org/2000/svg">
<path d="M413.849 562.24C410.508 567.316 406.984 572.335 403.307 577.256C398.307 575.648 393.41 573.924 388.603 572.096C397.135 569.156 405.556 565.86 413.849 562.24Z" fill="white" fill-opacity="0.44"/>
<path d="M356.177 581.689C351.975 585.987 347.61 590.172 343.13 594.254C338.666 591.808 334.281 589.328 330.036 586.728C338.795 585.41 347.518 583.724 356.177 581.689Z" fill="white" fill-opacity="0.44"/>
<path d="M297.062 590.248C292.184 593.595 287.21 596.865 282.095 599.966C278.249 596.856 274.536 593.672 270.951 590.438C279.628 590.712 288.331 590.676 297.062 590.248Z" fill="white" fill-opacity="0.44"/>
<path d="M238.554 587.93C233.22 590.255 227.807 592.47 222.31 594.538C219.211 590.86 216.214 587.15 213.341 583.414C221.66 585.242 230.08 586.75 238.554 587.93Z" fill="white" fill-opacity="0.44"/>
<path d="M182.607 575.156C177.049 576.441 171.433 577.559 165.756 578.534C163.413 574.445 161.214 570.357 159.09 566.257C166.808 569.523 174.645 572.498 182.607 575.156Z" fill="white" fill-opacity="0.44"/>
<path d="M130.993 552.728C125.418 552.949 119.819 553.022 114.2 552.923C112.659 548.576 111.188 544.24 109.885 539.91C116.741 544.449 123.756 548.75 130.993 552.728Z" fill="white" fill-opacity="0.44"/>
<path d="M85.1954 521.775C79.8111 520.994 74.4438 520.035 69.0858 518.945C68.3369 514.47 67.6446 510.018 67.0655 505.609C72.8761 511.218 78.9396 516.607 85.1954 521.775Z" fill="white" fill-opacity="0.44"/>
<path d="M46.4407 483.612C41.4404 481.897 36.4864 480.047 31.5651 478.069C31.5279 473.586 31.5805 469.144 31.7326 464.754C36.3656 471.218 41.2807 477.502 46.4407 483.612Z" fill="white" fill-opacity="0.44"/>
<path d="M15.65 439.739C11.202 437.217 6.81612 434.61 2.49021 431.856C3.1687 427.484 3.85316 423.149 4.64697 418.882C8.03696 425.963 11.7248 432.915 15.65 439.739Z" fill="white" fill-opacity="0.44"/>
<path d="M-8.49025 190.659C-8.92641 186.76 -9.26486 182.853 -9.4625 178.971C-6.58286 175.967 -3.67377 173.005 -0.791992 170.062C-3.58579 176.82 -6.1799 183.685 -8.49025 190.659Z" fill="white" fill-opacity="0.44"/>
<path d="M11.0073 145.233C11.3601 141.599 11.8402 137.999 12.4338 134.443C15.5513 131.767 18.6687 129.092 21.749 126.422C17.9594 132.543 14.3619 138.819 11.0073 145.233Z" fill="white" fill-opacity="0.44"/>
<path d="M37.0893 104.093C38.1914 100.899 39.3464 97.7502 40.6681 94.6905C43.9275 92.266 47.1966 89.8554 50.4619 87.4682C45.8061 92.8187 41.3584 98.3742 37.0893 104.093Z" fill="white" fill-opacity="0.44"/>
<path d="M68.8035 68.1056C70.5152 65.4728 72.3192 62.9405 74.2057 60.495C77.6167 58.3359 80.9943 56.1589 84.372 53.982C79.0056 58.4901 73.8338 63.2131 68.8035 68.1056Z" fill="white" fill-opacity="0.44"/>
<path d="M105.112 37.9229C107.316 35.978 109.585 34.1531 111.933 32.4387C115.433 30.4865 118.912 28.5067 122.402 26.5407C116.533 30.1189 110.78 33.9471 105.112 37.9229Z" fill="white" fill-opacity="0.44"/>
<path d="M432.618 523.801C430.148 529.087 427.48 534.327 424.666 539.506C419.866 538.294 415.153 537.001 410.542 535.592C418.038 531.979 425.386 528.015 432.618 523.801Z" fill="white" fill-opacity="0.44"/>
<path d="M381.707 547.929C378.291 552.581 374.696 557.153 370.99 561.657C366.631 559.676 362.372 557.604 358.208 555.464C366.121 553.276 373.976 550.776 381.707 547.929Z" fill="white" fill-opacity="0.44"/>
<path d="M328.17 562.344C323.967 566.207 319.634 569.975 315.177 573.625C311.368 570.942 307.661 568.229 304.073 565.452C312.119 564.724 320.164 563.707 328.17 562.344Z" fill="white" fill-opacity="0.44"/>
<path d="M273.833 566.747C269.055 569.712 264.146 572.522 259.158 575.222C255.984 571.987 252.912 568.721 249.979 565.419C257.887 566.176 265.845 566.627 273.833 566.747Z" fill="white" fill-opacity="0.44"/>
<path d="M220.53 561.216C215.355 563.158 210.103 564.99 204.793 566.656C202.333 562.98 199.957 559.305 197.706 555.604C205.207 557.785 212.832 559.651 220.53 561.216Z" fill="white" fill-opacity="0.44"/>
<path d="M169.991 546.239C164.635 547.173 159.255 547.959 153.827 548.591C152.08 544.617 150.416 540.645 148.884 536.683C155.764 540.131 162.808 543.318 169.991 546.239Z" fill="white" fill-opacity="0.44"/>
<path d="M123.731 522.576C118.424 522.482 113.104 522.254 107.77 521.89C106.738 517.739 105.778 513.6 104.944 509.495C111.001 514.126 117.304 518.436 123.731 522.576Z" fill="white" fill-opacity="0.44"/>
<path d="M83.0948 491.247C78.0183 490.206 72.9648 489.024 67.9206 487.711C67.5995 483.491 67.3176 479.326 67.143 475.168C72.2392 480.726 77.5611 486.083 83.0948 491.247Z" fill="white" fill-opacity="0.44"/>
<path d="M49.146 453.48C44.4709 451.617 39.8498 449.57 35.2712 447.411C35.5799 443.241 35.955 439.106 36.4062 435.021C40.4051 441.316 44.6413 447.483 49.146 453.48Z" fill="white" fill-opacity="0.44"/>
<path d="M22.6681 410.643C18.5467 408.033 14.5224 405.271 10.5503 402.409C11.4639 398.366 12.3735 394.346 13.4062 390.384C16.2171 397.258 19.3122 404.012 22.6681 410.643Z" fill="white" fill-opacity="0.44"/>
<path d="M4.19614 364.185C0.773649 360.972 -2.55947 357.654 -5.82448 354.288C-4.39727 350.416 -2.93088 346.6 -1.44873 342.834C0.186001 349.989 2.05273 357.123 4.19614 364.185Z" fill="white" fill-opacity="0.44"/>
<path d="M-6.0473 315.577C-8.71736 311.951 -11.2414 308.242 -13.7109 304.494C-11.8279 300.856 -9.95256 297.265 -8.02441 293.719C-7.64103 301.022 -6.97873 308.313 -6.0473 315.577Z" fill="white" fill-opacity="0.44"/>
<path d="M-8.01726 266.258C-9.85454 262.387 -11.567 258.49 -13.2014 254.558C-10.9394 251.188 -8.68114 247.841 -6.40332 244.521C-7.21078 251.744 -7.73314 258.993 -8.01726 266.258Z" fill="white" fill-opacity="0.44"/>
<path d="M-1.96145 217.575C-2.96203 213.665 -3.82784 209.742 -4.596 205.811C-2.02486 202.697 0.542448 199.605 3.11572 196.551C1.1737 203.488 -0.517982 210.516 -1.96145 217.575Z" fill="white" fill-opacity="0.44"/>
<path d="M11.7097 170.832C11.5671 167.055 11.4812 163.3 11.54 159.545C14.36 156.688 17.1761 153.854 19.9785 151.03C16.9879 157.514 14.2637 164.14 11.7097 170.832Z" fill="white" fill-opacity="0.44"/>
<path d="M32.4092 127.15C33.0012 123.678 33.7068 120.249 34.5397 116.854C37.562 114.246 40.5645 111.61 43.5928 109.039C39.6356 114.928 35.9077 120.965 32.4092 127.15Z" fill="white" fill-opacity="0.44"/>
<path d="M59.4057 87.5265C60.6964 84.5091 62.0969 81.5589 63.5701 78.6817C66.7653 76.2819 69.9469 73.8919 73.1187 71.488C68.3716 76.6548 63.8092 82.0226 59.4057 87.5265Z" fill="white" fill-opacity="0.44"/>
<path d="M91.863 52.7845C93.7461 50.3618 95.7018 48.0121 97.7361 45.7727C101.071 43.5634 104.406 41.3541 107.732 39.1311C102.303 43.497 97.0221 48.0698 91.863 52.7845Z" fill="white" fill-opacity="0.44"/>
<path d="M405.112 508.023C401.621 515.052 397.753 521.956 393.604 528.726C387.635 526.481 381.841 524.048 376.238 521.479C386.078 517.546 395.731 513.062 405.112 508.023Z" fill="white" fill-opacity="0.44"/>
<path d="M358.5 528.042C353.732 534.173 348.699 540.163 343.349 545.941C338.029 542.757 332.938 539.432 328.033 535.994C338.309 533.887 348.488 531.268 358.5 528.042Z" fill="white" fill-opacity="0.44"/>
<path d="M309.717 539.218C303.942 544.282 297.897 549.081 291.631 553.687C287.106 549.711 282.818 545.608 278.73 541.467C289.048 541.298 299.421 540.572 309.717 539.218Z" fill="white" fill-opacity="0.44"/>
<path d="M260.387 541.289C253.835 545.082 247.086 548.599 240.148 551.88C236.516 547.252 233.087 542.563 229.876 537.864C239.952 539.584 250.133 540.732 260.387 541.289Z" fill="white" fill-opacity="0.44"/>
<path d="M212.134 534.389C205.095 536.83 197.901 538.967 190.608 540.822C187.888 535.715 185.397 530.611 183.087 525.502C192.563 529.011 202.273 531.982 212.134 534.389Z" fill="white" fill-opacity="0.44"/>
<path d="M166.482 518.882C159.229 519.923 151.909 520.64 144.533 521.106C142.782 515.686 141.143 510.309 139.767 504.953C148.379 510.107 157.305 514.75 166.482 518.882Z" fill="white" fill-opacity="0.44"/>
<path d="M124.797 495.466C117.625 495.148 110.447 494.503 103.263 493.593C102.405 488.015 101.694 482.499 101.176 477.051C108.675 483.615 116.565 489.776 124.797 495.466Z" fill="white" fill-opacity="0.44"/>
<path d="M88.2802 465.019C81.4437 463.41 74.6705 461.486 67.9629 459.31C67.975 453.715 68.1199 448.192 68.3977 442.739C74.5961 450.533 81.2379 457.97 88.2802 465.019Z" fill="white" fill-opacity="0.44"/>
<path d="M57.8908 428.639C51.6567 425.858 45.5018 422.813 39.4787 419.551C40.3174 414.052 41.2285 408.625 42.2217 403.284C46.9908 412.011 52.2113 420.478 57.8908 428.639Z" fill="white" fill-opacity="0.44"/>
<path d="M34.4193 387.519C28.9584 383.752 23.6527 379.77 18.5024 375.574C20.0458 370.255 21.6615 365.008 23.3359 359.844C26.539 369.253 30.2251 378.505 34.4193 387.519Z" fill="white" fill-opacity="0.44"/>
<path d="M18.3095 342.947C13.7887 338.425 9.49721 333.678 5.34583 328.811C7.52625 323.721 9.72841 318.718 12.0029 313.788C13.5873 323.607 15.7039 333.337 18.3095 342.947Z" fill="white" fill-opacity="0.44"/>
<path d="M9.88469 296.223C6.45455 291.129 3.2212 285.937 0.211849 280.626C2.93468 275.831 5.67326 271.087 8.43359 266.432C8.41129 276.363 8.90224 286.323 9.88469 296.223Z" fill="white" fill-opacity="0.44"/>
<path d="M9.21627 248.702C6.90162 243.326 4.85423 237.865 3.00587 232.365C6.1885 227.863 9.3869 223.411 12.5776 219.007C10.9578 228.839 9.83021 238.756 9.21627 248.702Z" fill="white" fill-opacity="0.44"/>
<path d="M16.1513 201.601C15.023 196.185 14.1173 190.736 13.4364 185.312C16.9952 181.101 20.5835 176.93 24.1406 172.802C21.014 182.262 18.3451 191.873 16.1513 201.601Z" fill="white" fill-opacity="0.44"/>
<path d="M30.3922 156.124C30.3996 150.912 30.6182 145.736 31.0678 140.624C34.9797 136.699 38.8741 132.807 42.7549 128.925C38.2286 137.789 34.0784 146.862 30.3922 156.124Z" fill="white" fill-opacity="0.44"/>
<path d="M51.473 113.386C52.5421 108.618 53.8151 103.934 55.2977 99.3694C59.4928 95.7187 63.678 92.0542 67.8496 88.3995C61.9934 96.4508 56.545 104.814 51.473 113.386Z" fill="white" fill-opacity="0.44"/>
<path d="M78.7864 74.3584C80.8002 70.2438 83.0102 66.2597 85.3951 62.4628C89.8582 59.0354 94.2978 55.6039 98.7412 52.1489C91.7578 59.2412 85.1082 66.6568 78.7864 74.3584Z" fill="white" fill-opacity="0.44"/>
<path d="M111.624 39.8986C114.445 36.6198 117.408 33.5107 120.538 30.6361C125.246 27.4278 129.977 24.2235 134.659 20.9502C126.696 26.9147 119.012 33.2419 111.624 39.8986Z" fill="white" fill-opacity="0.44"/>
<path d="M420.277 467.124C417.585 476.138 414.371 485.085 410.593 493.876C403.444 491.681 396.556 489.217 389.963 486.502C400.483 480.778 410.621 474.288 420.277 467.124Z" fill="white" fill-opacity="0.44"/>
<path d="M381.151 491.187C376.775 499.426 371.921 507.486 366.55 515.313C360.119 511.986 353.961 508.465 348.15 504.738C359.424 501.029 370.46 496.494 381.151 491.187Z" fill="white" fill-opacity="0.44"/>
<path d="M338.782 507.771C332.931 514.922 326.642 521.805 319.945 528.376C314.362 524.073 309.105 519.622 304.194 515.049C315.845 513.456 327.404 511.016 338.782 507.771Z" fill="white" fill-opacity="0.44"/>
<path d="M294.538 516.334C287.495 522.156 280.075 527.623 272.319 532.708C267.713 527.609 263.424 522.408 259.484 517.147C271.151 517.717 282.893 517.468 294.538 516.334Z" fill="white" fill-opacity="0.44"/>
<path d="M249.896 516.674C241.982 520.98 233.731 524.842 225.27 528.294C221.711 522.558 218.454 516.814 215.515 511.052C226.804 513.753 238.301 515.621 249.896 516.674Z" fill="white" fill-opacity="0.44"/>
<path d="M206.265 508.814C197.784 511.453 189.092 513.682 180.266 515.406C177.756 509.238 175.554 503.1 173.624 496.996C184.188 501.74 195.114 505.667 206.265 508.814Z" fill="white" fill-opacity="0.44"/>
<path d="M164.997 493.113C156.311 494.076 147.498 494.573 138.659 494.631C137.207 488.19 136.042 481.834 135.07 475.548C144.622 482.105 154.62 487.992 164.997 493.113Z" fill="white" fill-opacity="0.44"/>
<path d="M127.337 470.129C118.779 469.452 110.201 468.314 101.682 466.741C101.223 460.196 101.037 453.747 101 447.419C109.245 455.604 118.056 463.199 127.337 470.129Z" fill="white" fill-opacity="0.44"/>
<path d="M94.3862 440.628C86.2812 438.392 78.2586 435.724 70.3578 432.681C70.8817 426.163 71.5445 419.754 72.3791 413.471C79.0679 423.046 86.455 432.103 94.3862 440.628Z" fill="white" fill-opacity="0.44"/>
<path d="M67.0541 405.538C59.6822 401.912 52.4749 397.941 45.4769 393.572C46.8472 387.177 48.3427 380.899 49.936 374.759C54.9688 385.408 60.6866 395.694 67.0541 405.538Z" fill="white" fill-opacity="0.44"/>
<path d="M46.0956 365.91C39.7224 361.095 33.5628 356.003 27.6539 350.63C29.7856 344.436 32.0289 338.37 34.3037 332.406C37.4994 343.849 41.4723 355.028 46.0956 365.91Z" fill="white" fill-opacity="0.44"/>
<path d="M32.0022 322.915C26.8104 317.194 21.8812 311.266 17.2518 305.125C20.087 299.195 22.944 293.354 25.8325 287.614C27.1503 299.507 29.2148 311.323 32.0022 322.915Z" fill="white" fill-opacity="0.44"/>
<path d="M25.1133 277.741C21.2202 271.423 17.633 264.928 14.4279 258.306C17.8237 252.638 21.2746 247.077 24.7041 241.572C24.0814 253.63 24.2237 265.724 25.1133 277.741Z" fill="white" fill-opacity="0.44"/>
<path d="M25.5828 231.556C23.1019 224.91 20.9487 218.176 19.1528 211.394C23.0793 206.031 26.9883 200.701 30.9229 195.435C28.4031 207.38 26.6336 219.454 25.5828 231.556Z" fill="white" fill-opacity="0.44"/>
<path d="M33.3737 185.599C32.2903 178.948 31.6074 172.282 31.2432 165.658C35.6108 160.559 40.0176 155.515 44.3442 150.446C39.9787 161.949 36.2842 173.701 33.3737 185.599Z" fill="white" fill-opacity="0.44"/>
<path d="M48.2735 140.992C48.5903 134.625 49.2555 128.343 50.2651 122.168C55.0606 117.344 59.8364 112.492 64.585 107.66C58.4879 118.452 53.0469 129.586 48.2735 140.992Z" fill="white" fill-opacity="0.44"/>
<path d="M69.9344 98.811C71.5562 93.0258 73.4916 87.3912 75.7465 81.9444C80.8979 77.322 86.0924 72.7312 91.2476 68.0853C83.5393 77.9334 76.4056 88.1823 69.9344 98.811Z" fill="white" fill-opacity="0.44"/>
<path d="M97.8548 60.0906C100.624 55.1257 103.692 50.4056 107.017 45.9595C112.578 41.5836 118.1 37.1526 123.682 32.72C114.517 41.3247 105.881 50.4677 97.8548 60.0906Z" fill="white" fill-opacity="0.44"/>
<path d="M395.754 453.722C392.608 463.367 388.771 472.882 384.293 482.19C377.328 479.098 370.74 475.696 364.523 472.092C375.388 466.827 385.834 460.658 395.754 453.722Z" fill="white" fill-opacity="0.44"/>
<path d="M360.268 474.2C355.313 482.954 349.738 491.444 343.563 499.614C337.449 495.461 331.733 491.087 326.403 486.562C337.989 483.378 349.335 479.223 360.268 474.2Z" fill="white" fill-opacity="0.44"/>
<path d="M321.929 487.892C315.402 495.42 308.344 502.58 300.753 509.31C295.606 504.262 290.856 499.078 286.504 493.817C298.431 492.816 310.31 490.852 321.929 487.892Z" fill="white" fill-opacity="0.44"/>
<path d="M281.921 494.345C274.12 500.374 265.874 505.952 257.238 511.041C253.136 505.294 249.432 499.47 246.078 493.647C257.978 494.86 269.988 495.104 281.921 494.345Z" fill="white" fill-opacity="0.44"/>
<path d="M241.501 493.284C232.773 497.631 223.709 501.449 214.374 504.715C211.35 498.432 208.714 492.144 206.378 485.931C217.878 489.331 229.629 491.786 241.501 493.284Z" fill="white" fill-opacity="0.44"/>
<path d="M201.987 484.74C192.704 487.265 183.208 489.26 173.555 490.661C171.616 484.025 169.967 477.451 168.667 470.961C179.393 476.481 190.557 481.088 201.987 484.74Z" fill="white" fill-opacity="0.44"/>
<path d="M164.565 468.96C155.106 469.647 145.548 469.762 135.961 469.318C135.054 462.489 134.444 455.759 134.053 449.163C143.714 456.594 153.943 463.207 164.565 468.96Z" fill="white" fill-opacity="0.44"/>
<path d="M130.416 446.384C121.16 445.274 111.921 443.613 102.747 441.41C102.826 434.524 103.137 427.763 103.643 421.132C111.912 430.272 120.869 438.735 130.416 446.384Z" fill="white" fill-opacity="0.44"/>
<path d="M100.542 417.662C91.8315 414.864 83.2387 411.569 74.8471 407.779C75.8573 400.937 77.0259 394.231 78.3021 387.675C84.9699 398.256 92.4099 408.309 100.542 417.662Z" fill="white" fill-opacity="0.44"/>
<path d="M75.8531 383.603C67.9873 379.313 60.3619 374.584 53.0004 369.419C54.8436 362.707 56.7613 356.129 58.7671 349.674C63.6535 361.442 69.3769 372.801 75.8531 383.603Z" fill="white" fill-opacity="0.44"/>
<path d="M57.0874 345.136C50.3354 339.617 43.9174 333.675 37.8379 327.429C40.3762 320.884 43.0359 314.48 45.7036 308.174C48.6068 320.819 52.3982 333.183 57.0874 345.136Z" fill="white" fill-opacity="0.44"/>
<path d="M44.7905 303.297C39.3892 296.793 34.3362 290.001 29.7175 282.982C32.9535 276.664 36.1878 270.43 39.4673 264.287C40.3131 277.448 42.1045 290.494 44.7905 303.297Z" fill="white" fill-opacity="0.44"/>
<path d="M39.3509 259.178C35.437 252.024 31.913 244.696 28.8356 237.216C32.6541 231.102 36.471 225.072 40.2803 219.09C39.0428 232.478 38.7188 245.878 39.3509 259.178Z" fill="white" fill-opacity="0.44"/>
<path d="M40.9909 213.912C38.6438 206.444 36.7183 198.905 35.2538 191.348C39.6049 185.454 43.9485 179.607 48.2783 173.769C44.9184 187.018 42.4927 200.452 40.9909 213.912Z" fill="white" fill-opacity="0.44"/>
<path d="M49.7965 168.656C49.0312 161.239 48.7095 153.837 48.82 146.522C53.6808 140.844 58.5182 135.162 63.3457 129.466C57.9145 142.247 53.4047 155.368 49.7965 168.656Z" fill="white" fill-opacity="0.44"/>
<path d="M65.6383 124.534C66.4029 117.495 67.6333 110.56 69.23 103.821C74.5813 98.3311 79.8896 92.8098 85.2153 87.2553C77.854 99.2802 71.3017 111.746 65.6383 124.534Z" fill="white" fill-opacity="0.44"/>
<path d="M88.2576 82.6575C90.4573 76.2941 93.0764 70.1721 96.0506 64.3166C101.87 59.0108 107.72 53.662 113.545 48.2484C104.342 59.1822 95.8783 70.6903 88.2576 82.6575Z" fill="white" fill-opacity="0.44"/>
<path d="M117.228 44.0533C120.717 38.679 124.544 33.6046 128.693 28.9244C135.019 23.796 141.375 18.6247 147.767 13.3868C136.896 22.9579 126.666 33.1955 117.228 44.0533Z" fill="white" fill-opacity="0.44"/>
<path d="M403.094 416.55C401.627 426.928 399.342 437.286 396.282 447.511C389.248 444.781 382.607 441.709 376.383 438.382C385.867 431.88 394.834 424.565 403.094 416.55Z" fill="white" fill-opacity="0.44"/>
<path d="M374.759 439.497C371.254 449.273 366.988 458.906 362.011 468.235C355.765 464.446 349.934 460.402 344.568 456.173C355.09 451.526 365.19 445.913 374.759 439.497Z" fill="white" fill-opacity="0.44"/>
<path d="M342.815 457.037C337.476 465.856 331.42 474.335 324.74 482.43C319.404 477.723 314.515 472.865 310.043 467.897C321.274 465.254 332.249 461.591 342.815 457.037Z" fill="white" fill-opacity="0.44"/>
<path d="M308.223 468.452C301.289 475.959 293.742 483.01 285.673 489.561C281.339 484.123 277.416 478.598 273.908 473.048C285.488 472.542 296.975 470.982 308.223 468.452Z" fill="white" fill-opacity="0.44"/>
<path d="M272.05 473.284C263.834 479.193 255.138 484.574 246.03 489.377C242.706 483.365 239.794 477.351 237.264 471.355C248.808 473.051 260.468 473.668 272.05 473.284Z" fill="white" fill-opacity="0.44"/>
<path d="M235.415 471.218C226.288 475.352 216.813 478.883 207.069 481.776C204.791 475.357 202.879 468.988 201.263 462.718C212.412 466.576 223.856 469.436 235.415 471.218Z" fill="white" fill-opacity="0.44"/>
<path d="M199.48 462.249C189.834 464.495 179.959 466.074 169.96 467.018C168.666 460.337 167.717 453.763 167.023 447.317C177.425 453.275 188.309 458.268 199.48 462.249Z" fill="white" fill-opacity="0.44"/>
<path d="M165.357 446.492C155.584 446.823 145.726 446.489 135.868 445.493C135.549 438.681 135.485 431.997 135.614 425.467C144.979 433.376 154.944 440.425 165.357 446.492Z" fill="white" fill-opacity="0.44"/>
<path d="M134.169 424.303C124.651 422.738 115.195 420.57 105.876 417.788C106.453 410.941 107.199 404.243 108.114 397.694C116.093 407.349 124.818 416.266 134.169 424.303Z" fill="white" fill-opacity="0.44"/>
<path d="M106.892 396.207C98.0109 392.911 89.2957 389.041 80.8227 384.648C82.2111 377.847 83.7209 371.187 85.3384 364.678C91.7192 375.836 98.9207 386.389 106.892 396.207Z" fill="white" fill-opacity="0.44"/>
<path d="M84.419 362.903C76.4734 358.07 68.8264 352.735 61.5135 346.976C63.6219 340.262 65.8652 333.679 68.1128 327.218C72.6445 339.611 78.0873 351.584 84.419 362.903Z" fill="white" fill-opacity="0.44"/>
<path d="M67.535 325.221C60.8318 319.109 54.4686 312.61 48.549 305.754C51.3602 299.159 54.2029 292.666 57.0537 286.271C59.5437 299.603 63.0799 312.646 67.535 325.221Z" fill="white" fill-opacity="0.44"/>
<path d="M56.8134 284.119C51.5269 277.057 46.6998 269.689 42.3207 262.085C45.738 255.617 49.1809 249.213 52.5986 242.889C52.9826 256.814 54.3864 270.613 56.8134 284.119Z" fill="white" fill-opacity="0.44"/>
<path d="M52.7402 240.618C49.072 232.914 45.827 225.055 43.1457 217.064C47.1476 210.716 51.1517 204.428 55.1226 198.123C53.2841 212.313 52.4901 226.526 52.7402 240.618Z" fill="white" fill-opacity="0.44"/>
<path d="M55.6268 195.826C53.6119 187.872 52.1028 179.849 51.1113 171.83C55.675 165.597 60.225 159.375 64.7651 153.139C60.665 167.227 57.6067 181.506 55.6268 195.826Z" fill="white" fill-opacity="0.44"/>
<path d="M65.6013 150.851C65.2821 142.99 65.4224 135.197 66.1222 127.523C71.2382 121.394 76.3543 115.264 81.4683 109.074C75.175 122.698 69.8601 136.684 65.6013 150.851Z" fill="white" fill-opacity="0.44"/>
<path d="M82.6687 106.886C83.9624 99.4897 85.7475 92.2629 87.9989 85.2853C93.6779 79.2714 99.3979 73.2283 105.106 67.1107C96.6547 79.8919 89.1457 93.1853 82.6687 106.886Z" fill="white" fill-opacity="0.44"/>
<path d="M106.62 65.0284C109.428 58.418 112.695 52.104 116.362 46.1489C122.662 40.2721 128.963 34.3109 135.333 28.3011C124.859 39.9128 115.253 52.1936 106.62 65.0284Z" fill="white" fill-opacity="0.44"/>
<path d="M382.61 404.603C380.849 414.857 378.241 425.05 374.853 435.073C368.8 431.728 363.167 428.105 357.993 424.259C366.784 418.459 375.018 411.852 382.61 404.603Z" fill="white" fill-opacity="0.44"/>
<path d="M357.405 424.7C353.637 434.309 349.064 443.683 343.77 452.74C338.535 448.522 333.752 444.127 329.439 439.585C339.229 435.5 348.58 430.483 357.405 424.7Z" fill="white" fill-opacity="0.44"/>
<path d="M328.822 439.946C323.223 448.515 316.933 456.724 309.984 464.47C305.653 459.526 301.771 454.491 298.32 449.397C308.782 447.178 319 444.012 328.822 439.946Z" fill="white" fill-opacity="0.44"/>
<path d="M297.675 449.65C290.524 456.855 282.754 463.567 274.484 469.723C271.102 464.206 268.122 458.674 265.558 453.177C276.386 453 287.16 451.824 297.675 449.65Z" fill="white" fill-opacity="0.44"/>
<path d="M264.897 453.338C256.519 458.906 247.646 463.895 238.395 468.239C235.951 462.306 233.873 456.424 232.157 450.616C243.034 452.558 254.009 453.456 264.897 453.338Z" fill="white" fill-opacity="0.44"/>
<path d="M231.526 450.639C222.283 454.378 212.685 457.478 202.859 459.912C201.334 453.682 200.143 447.546 199.232 441.542C209.761 445.57 220.593 448.638 231.526 450.639Z" fill="white" fill-opacity="0.44"/>
<path d="M198.611 441.417C188.903 443.23 178.994 444.358 168.988 444.831C168.337 438.417 167.943 432.131 167.802 425.997C177.668 432.128 187.995 437.29 198.611 441.417Z" fill="white" fill-opacity="0.44"/>
<path d="M167.234 425.746C157.464 425.62 147.636 424.809 137.869 423.334C138.045 416.813 138.421 410.458 138.956 404.239C147.824 412.316 157.304 419.522 167.234 425.746Z" fill="white" fill-opacity="0.44"/>
<path d="M138.467 403.854C129.023 401.844 119.675 399.165 110.508 395.904C111.445 389.36 112.518 382.947 113.684 376.696C121.246 386.543 129.54 395.661 138.467 403.854Z" fill="white" fill-opacity="0.44"/>
<path d="M113.308 376.171C104.56 372.428 96.0423 368.087 87.8035 363.216C89.4384 356.674 91.1614 350.255 92.9219 343.975C98.8786 355.373 105.716 366.164 113.308 376.171Z" fill="white" fill-opacity="0.44"/>
<path d="M92.6775 343.308C84.9625 338.021 77.5521 332.27 70.5673 326.05C72.8498 319.522 75.1501 313.105 77.4956 306.781C81.6013 319.498 86.7037 331.713 92.6775 343.308Z" fill="white" fill-opacity="0.44"/>
<path d="M77.3925 306.014C70.9728 299.493 64.9536 292.584 59.411 285.335C62.3044 278.827 65.196 272.403 68.0664 266.035C70.146 279.742 73.266 293.122 77.3925 306.014Z" fill="white" fill-opacity="0.44"/>
<path d="M68.1142 265.208C63.1905 257.762 58.7459 250.038 54.8431 242.093C58.3116 235.608 61.7627 229.157 65.1963 222.739C65.0744 237.108 66.0368 251.327 68.1142 265.208Z" fill="white" fill-opacity="0.44"/>
<path d="M65.3848 221.885C62.1154 213.876 59.3941 205.684 57.188 197.436C61.2331 190.973 65.2684 184.497 69.2705 178.004C66.8514 192.65 65.557 207.346 65.3848 221.885Z" fill="white" fill-opacity="0.44"/>
<path d="M69.6057 177.113C68.0801 168.892 67.0761 160.653 66.6466 152.44C71.2961 145.98 75.9064 139.466 80.5303 132.942C75.7708 147.521 72.1138 162.291 69.6057 177.113Z" fill="white" fill-opacity="0.44"/>
<path d="M81.0139 132.065C81.2063 124.025 81.9757 116.073 83.2324 108.314C88.487 101.857 93.759 95.3668 99.0327 88.7925C91.8818 102.863 85.8933 117.35 81.0139 132.065Z" fill="white" fill-opacity="0.44"/>
<path d="M99.6235 87.9479C101.502 80.446 103.898 73.1779 106.752 66.2061C112.689 59.8006 118.627 53.3109 124.638 46.749C115.248 59.9509 106.873 73.7378 99.6235 87.9479Z" fill="white" fill-opacity="0.44"/>
<path d="M125.333 45.9524C128.758 39.3377 132.644 33.0804 136.912 27.2153C143.542 20.8741 150.245 14.4607 157.039 8.00262C145.462 19.9231 134.889 32.6449 125.333 45.9524Z" fill="white" fill-opacity="0.44"/>
<path d="M384.059 371.178C384.077 380.948 383.29 390.772 381.775 400.555C376.384 397.76 371.376 394.692 366.761 391.427C373.114 385.164 378.913 378.384 384.059 371.178Z" fill="white" fill-opacity="0.44"/>
<path d="M365.556 392.567C363.595 402.05 360.856 411.423 357.387 420.611C352.709 417.056 348.434 413.317 344.566 409.455C352.082 404.437 359.113 398.77 365.556 392.567Z" fill="white" fill-opacity="0.44"/>
<path d="M343.213 410.395C339.361 419.193 334.824 427.752 329.608 435.966C325.695 431.782 322.198 427.488 319.082 423.151C327.525 419.631 335.609 415.35 343.213 410.395Z" fill="white" fill-opacity="0.44"/>
<path d="M317.555 423.864C312.038 431.628 305.882 439.017 299.16 445.959C296.041 441.271 293.313 436.554 290.958 431.841C300.105 429.999 309.025 427.321 317.555 423.864Z" fill="white" fill-opacity="0.44"/>
<path d="M289.361 432.268C282.41 438.688 274.933 444.632 267.003 450.027C264.682 444.957 262.721 439.901 261.075 434.911C270.633 434.913 280.108 434.02 289.361 432.268Z" fill="white" fill-opacity="0.44"/>
<path d="M259.405 435.053C251.351 439.893 242.899 444.146 234.119 447.823C232.582 442.468 231.337 437.175 230.361 432.001C240.024 433.916 249.759 434.95 259.405 435.053Z" fill="white" fill-opacity="0.44"/>
<path d="M228.685 431.785C219.889 434.854 210.819 437.309 201.559 439.153C200.743 433.6 200.188 428.151 199.828 422.833C209.271 426.723 218.943 429.724 228.685 431.785Z" fill="white" fill-opacity="0.44"/>
<path d="M198.205 422.272C189.041 423.491 179.738 424.085 170.39 424.068C170.273 418.373 170.338 412.817 170.552 407.383C179.429 413.223 188.697 418.227 198.205 422.272Z" fill="white" fill-opacity="0.44"/>
<path d="M169.045 406.466C159.91 405.847 150.757 404.598 141.7 402.764C142.213 396.975 142.871 391.332 143.607 385.798C151.595 393.506 160.12 400.439 169.045 406.466Z" fill="white" fill-opacity="0.44"/>
<path d="M142.25 384.531C133.492 382.159 124.871 379.171 116.458 375.642C117.56 369.789 118.739 364.046 119.983 358.422C126.767 367.87 134.218 376.614 142.25 384.531Z" fill="white" fill-opacity="0.44"/>
<path d="M118.883 356.834C110.875 352.833 103.099 348.295 95.6418 343.282C97.2942 337.369 98.9917 331.547 100.701 325.8C105.982 336.769 112.08 347.156 118.883 356.834Z" fill="white" fill-opacity="0.44"/>
<path d="M99.8902 323.897C92.9197 318.474 86.3066 312.631 80.0569 306.405C82.2513 300.416 84.4244 294.483 86.623 288.615C90.1541 300.872 94.6 312.685 99.8902 323.897Z" fill="white" fill-opacity="0.44"/>
<path d="M86.1345 286.464C80.4772 279.917 75.2127 273.03 70.3998 265.882C73.1131 259.813 75.809 253.776 78.4814 247.736C80.08 260.999 82.641 273.97 86.1345 286.464Z" fill="white" fill-opacity="0.44"/>
<path d="M78.389 245.416C74.2083 238.06 70.4991 230.473 67.2733 222.728C70.5111 216.552 73.7588 210.39 76.9634 204.197C76.407 218.132 76.8843 231.932 78.389 245.416Z" fill="white" fill-opacity="0.44"/>
<path d="M77.244 201.767C74.6796 193.939 72.6148 186.003 71.0751 178.025C74.8949 171.764 78.7088 165.466 82.4834 159.113C79.6623 173.343 77.9193 187.614 77.244 201.767Z" fill="white" fill-opacity="0.44"/>
<path d="M83.178 156.62C82.3155 148.693 81.9239 140.763 82.0718 132.925C86.5113 126.573 90.9154 120.143 95.374 113.674C90.2295 127.803 86.1527 142.189 83.178 156.62Z" fill="white" fill-opacity="0.44"/>
<path d="M96.4712 111.177C97.2688 103.494 98.5616 95.9562 100.342 88.6111C105.435 82.1856 110.563 75.6937 115.73 69.1119C108.242 82.8011 101.804 96.8637 96.4712 111.177Z" fill="white" fill-opacity="0.44"/>
<path d="M117.198 66.7286C119.596 59.6648 122.461 52.8504 125.748 46.3379C131.582 39.9012 137.445 33.3608 143.433 26.7936C133.652 39.5689 124.887 52.9295 117.198 66.7286Z" fill="white" fill-opacity="0.44"/>
<path d="M368.123 360.969C367.805 369.691 366.836 378.422 365.239 387.08C361.328 384.165 357.755 381.092 354.501 377.916C359.536 372.634 364.082 366.953 368.123 360.969Z" fill="white" fill-opacity="0.44"/>
<path d="M352.135 380.297C350.028 388.681 347.312 396.96 343.977 405.036C340.698 401.625 337.752 398.102 335.149 394.542C341.254 390.26 346.921 385.48 352.135 380.297Z" fill="white" fill-opacity="0.44"/>
<path d="M332.355 396.479C328.585 404.182 324.238 411.653 319.363 418.817C316.741 414.998 314.426 411.149 312.437 407.295C319.414 404.258 326.089 400.627 332.355 396.479Z" fill="white" fill-opacity="0.44"/>
<path d="M309.232 408.697C303.984 415.399 298.215 421.746 292.013 427.717C290.033 423.586 288.342 419.457 286.916 415.409C294.608 413.835 302.085 411.584 309.232 408.697Z" fill="white" fill-opacity="0.44"/>
<path d="M283.466 416.192C276.978 421.619 270.064 426.623 262.817 431.159C261.444 426.783 260.313 422.484 259.435 418.252C267.567 418.275 275.622 417.584 283.466 416.192Z" fill="white" fill-opacity="0.44"/>
<path d="M255.775 418.307C248.352 422.242 240.619 425.714 232.638 428.636C231.824 424.093 231.261 419.641 230.828 415.284C239.152 417.053 247.505 418.055 255.775 418.307Z" fill="white" fill-opacity="0.44"/>
<path d="M227.132 414.592C219.111 416.902 210.885 418.694 202.528 419.958C202.256 415.282 202.146 410.718 202.166 406.248C210.355 409.766 218.711 412.565 227.132 414.592Z" fill="white" fill-opacity="0.44"/>
<path d="M198.534 404.707C190.253 405.319 181.892 405.388 173.524 404.985C173.765 400.195 174.074 395.501 174.486 390.921C182.227 396.264 190.282 400.866 198.534 404.707Z" fill="white" fill-opacity="0.44"/>
<path d="M171.067 388.582C162.895 387.526 154.737 385.943 146.707 383.876C147.377 378.969 148.115 374.159 148.899 369.441C155.881 376.518 163.297 382.935 171.067 388.582Z" fill="white" fill-opacity="0.44"/>
<path d="M145.838 366.296C138.1 363.653 130.503 360.517 123.1 356.933C124.198 351.911 125.321 346.953 126.48 342.074C132.384 350.78 138.854 358.896 145.838 366.296Z" fill="white" fill-opacity="0.44"/>
<path d="M123.935 338.155C116.952 334.066 110.21 329.537 103.73 324.657C105.25 319.479 106.772 314.362 108.287 309.292C112.845 319.45 118.085 329.123 123.935 338.155Z" fill="white" fill-opacity="0.44"/>
<path d="M106.389 304.704C100.454 299.351 94.7839 293.706 89.4788 287.739C91.4216 282.405 93.3607 277.094 95.2725 271.803C98.2334 283.203 101.957 294.206 106.389 304.704Z" fill="white" fill-opacity="0.44"/>
<path d="M94.1461 266.65C89.433 260.362 85.0877 253.812 81.1493 247.056C83.5564 241.535 85.9498 236.024 88.3003 230.482C89.4106 242.831 91.3783 254.942 94.1461 266.65Z" fill="white" fill-opacity="0.44"/>
<path d="M88.0219 224.901C84.7296 217.927 81.8467 210.806 79.3792 203.576C82.2755 197.87 85.1659 192.127 88.0503 186.347C87.1396 199.357 87.1381 212.258 88.0219 224.901Z" fill="white" fill-opacity="0.44"/>
<path d="M88.6894 180.496C86.9445 173.181 85.5803 165.823 84.677 158.447C88.1372 152.545 91.5914 146.606 95.0571 140.597C92.0023 153.897 89.9046 167.241 88.6894 180.496Z" fill="white" fill-opacity="0.44"/>
<path d="M96.6852 134.621C96.483 127.301 96.707 120.031 97.3631 112.846C101.441 106.793 105.543 100.659 109.691 94.473C104.416 107.702 100.072 121.14 96.6852 134.621Z" fill="white" fill-opacity="0.44"/>
<path d="M112.324 88.5595C113.66 81.5711 115.43 74.7298 117.576 68.098C122.362 61.9321 127.206 55.7039 132.089 49.3857C124.553 62.1157 117.958 75.2127 112.324 88.5595Z" fill="white" fill-opacity="0.44"/>
<path d="M135.676 43.6843C138.475 37.3521 141.679 31.2708 145.211 25.4754C150.755 19.265 156.414 13.014 162.15 6.66742C152.434 18.5268 143.576 30.8963 135.676 43.6843Z" fill="white" fill-opacity="0.44"/>
<path d="M365.58 330.852C366.526 338.11 366.999 345.456 367.002 352.805C364.034 350.548 361.318 348.153 358.845 345.668C361.471 340.879 363.714 335.928 365.58 330.852Z" fill="white" fill-opacity="0.44"/>
<path d="M355.867 350.679C355.278 357.894 354.222 365.09 352.721 372.209C350.256 369.591 348.044 366.896 346.069 364.158C349.685 359.886 352.966 355.375 355.867 350.679Z" fill="white" fill-opacity="0.44"/>
<path d="M342.058 368.576C339.972 375.431 337.467 382.191 334.532 388.78C332.582 385.875 330.851 382.959 329.353 380.023C333.904 376.535 338.14 372.691 342.058 368.576Z" fill="white" fill-opacity="0.44"/>
<path d="M324.377 383.648C320.923 389.862 317.065 395.887 312.844 401.692C311.362 398.577 310.095 395.474 309.026 392.417C314.412 389.89 319.541 386.945 324.377 383.648Z" fill="white" fill-opacity="0.44"/>
<path d="M303.254 394.993C298.595 400.302 293.592 405.358 288.288 410.109C287.253 406.84 286.392 403.613 285.716 400.442C291.746 399.076 297.61 397.247 303.254 394.993Z" fill="white" fill-opacity="0.44"/>
<path d="M279.277 401.787C273.631 405.971 267.713 409.831 261.573 413.351C260.944 409.959 260.462 406.628 260.114 403.369C266.611 403.351 273.035 402.826 279.277 401.787Z" fill="white" fill-opacity="0.44"/>
<path d="M253.228 403.308C246.859 406.181 240.301 408.733 233.594 410.873C233.345 407.38 233.182 403.95 233.124 400.611C239.851 402.045 246.577 402.96 253.228 403.308Z" fill="white" fill-opacity="0.44"/>
<path d="M226.069 399.008C219.268 400.491 212.357 401.617 205.393 402.325C205.453 398.718 205.594 395.198 205.808 391.751C212.459 394.727 219.248 397.148 226.069 399.008Z" fill="white" fill-opacity="0.44"/>
<path d="M198.824 388.531C191.889 388.579 184.945 388.24 178.011 387.542C178.378 383.822 178.794 380.171 179.223 376.594C185.545 381.103 192.106 385.111 198.824 388.531Z" fill="white" fill-opacity="0.44"/>
<path d="M172.617 371.714C165.86 370.335 159.157 368.628 152.552 366.541C153.197 362.667 153.878 358.871 154.528 355.118C160.258 361.16 166.31 366.704 172.617 371.714Z" fill="white" fill-opacity="0.44"/>
<path d="M148.636 348.6C142.341 345.905 136.173 342.87 130.158 339.562C131.094 335.523 132.024 331.532 132.925 327.56C137.766 335.034 143.028 342.064 148.636 348.6Z" fill="white" fill-opacity="0.44"/>
<path d="M128.039 319.511C122.452 315.65 117.058 311.485 111.874 307.068C113.096 302.826 114.338 298.612 115.51 294.385C119.238 303.149 123.409 311.555 128.039 319.511Z" fill="white" fill-opacity="0.44"/>
<path d="M111.95 284.98C107.294 280.124 102.904 275.036 98.763 269.751C100.326 265.266 101.876 260.791 103.402 256.312C105.686 266.188 108.559 275.768 111.95 284.98Z" fill="white" fill-opacity="0.44"/>
<path d="M101.353 245.777C97.8176 240.16 94.5973 234.381 91.6243 228.488C93.576 223.767 95.5178 219.032 97.4438 214.247C98.1105 224.968 99.4457 235.504 101.353 245.777Z" fill="white" fill-opacity="0.44"/>
<path d="M97.1494 202.844C94.884 196.732 92.8956 190.547 91.231 184.297C93.6323 179.337 96.0315 174.316 98.4346 169.271C97.3233 180.562 96.9087 191.791 97.1494 202.844Z" fill="white" fill-opacity="0.44"/>
<path d="M100.057 157.296C99.1017 150.972 98.4827 144.657 98.1528 138.343C101.098 133.159 104.022 127.887 106.996 122.6C103.973 134.16 101.654 145.756 100.057 157.296Z" fill="white" fill-opacity="0.44"/>
<path d="M110.628 110.431C111.019 104.201 111.749 98.0416 112.752 91.9772C116.285 86.601 119.853 81.1584 123.466 75.6633C118.468 87.1211 114.204 98.7412 110.628 110.431Z" fill="white" fill-opacity="0.44"/>
<path d="M129.197 63.6436C130.937 57.7976 132.934 52.0803 135.227 46.5467C139.435 41.0406 143.734 35.4898 148.055 29.8824C141.081 40.8649 134.771 52.1426 129.197 63.6436Z" fill="white" fill-opacity="0.44"/>
<path d="M354.99 321.852C355.436 327.373 355.589 332.916 355.477 338.462C353.869 336.583 352.4 334.668 351.082 332.708C352.615 329.153 353.918 325.534 354.99 321.852Z" fill="white" fill-opacity="0.44"/>
<path d="M347.182 340.589C346.45 346.02 345.437 351.403 344.189 356.746C342.943 354.711 341.821 352.65 340.854 350.603C343.179 347.374 345.293 344.025 347.182 340.589Z" fill="white" fill-opacity="0.44"/>
<path d="M335.154 357.628C333.295 362.726 331.185 367.733 328.838 372.638C327.923 370.49 327.125 368.362 326.457 366.244C329.554 363.543 332.462 360.664 335.154 357.628Z" fill="white" fill-opacity="0.44"/>
<path d="M319.069 372.012C316.189 376.553 313.077 380.969 309.748 385.227C309.133 383.008 308.612 380.805 308.191 378.656C311.982 376.663 315.639 374.454 319.069 372.012Z" fill="white" fill-opacity="0.44"/>
<path d="M299.353 382.784C295.582 386.569 291.619 390.199 287.496 393.633C287.131 391.36 286.846 389.113 286.638 386.915C290.998 385.805 295.255 384.435 299.353 382.784Z" fill="white" fill-opacity="0.44"/>
<path d="M276.583 389.017C272.105 391.893 267.489 394.577 262.74 397.044C262.578 394.71 262.507 392.416 262.475 390.177C267.257 390.094 271.967 389.708 276.583 389.017Z" fill="white" fill-opacity="0.44"/>
<path d="M251.588 389.929C246.629 391.779 241.55 393.403 236.422 394.813C236.454 392.406 236.525 390.054 236.639 387.733C241.626 388.808 246.624 389.522 251.588 389.929Z" fill="white" fill-opacity="0.44"/>
<path d="M225.348 384.891C220.112 385.654 214.845 386.171 209.541 386.464C209.732 383.966 209.953 381.508 210.18 379.088C215.173 381.357 220.257 383.292 225.348 384.891Z" fill="white" fill-opacity="0.44"/>
<path d="M198.97 373.486C193.717 373.125 188.452 372.545 183.225 371.73C183.546 369.099 183.898 366.509 184.255 363.957C189.055 367.456 193.965 370.65 198.97 373.486Z" fill="white" fill-opacity="0.44"/>
<path d="M173.699 355.549C168.64 354.101 163.635 352.469 158.705 350.598C159.198 347.806 159.673 345.047 160.158 342.301C164.5 347.032 169.026 351.446 173.699 355.549Z" fill="white" fill-opacity="0.44"/>
<path d="M150.747 331.125C146.121 328.669 141.579 326.072 137.155 323.266C137.813 320.275 138.48 317.298 139.11 314.326C142.754 320.21 146.635 325.822 150.747 331.125Z" fill="white" fill-opacity="0.44"/>
<path d="M131.418 300.576C127.386 297.283 123.532 293.781 119.778 290.188C120.664 286.971 121.504 283.747 122.344 280.522C125.062 287.439 128.08 294.142 131.418 300.576Z" fill="white" fill-opacity="0.44"/>
<path d="M116.834 264.459C113.607 260.426 110.53 256.287 107.626 252.045C108.746 248.579 109.87 245.09 110.97 241.597C112.581 249.407 114.534 257.036 116.834 264.459Z" fill="white" fill-opacity="0.44"/>
<path d="M108.107 223.635C105.791 219.094 103.658 214.464 101.677 209.789C103.105 206.061 104.584 202.317 106.01 198.528C106.333 207.013 107.034 215.394 108.107 223.635Z" fill="white" fill-opacity="0.44"/>
<path d="M106.178 179.12C104.875 174.268 103.733 169.385 102.801 164.477C104.631 160.502 106.48 156.494 108.322 152.448C107.184 161.399 106.473 170.314 106.178 179.12Z" fill="white" fill-opacity="0.44"/>
<path d="M111.801 132.171C111.534 127.242 111.472 122.312 111.584 117.424C113.875 113.223 116.193 109.004 118.532 104.728C115.832 113.861 113.6 123.015 111.801 132.171Z" fill="white" fill-opacity="0.44"/>
<path d="M125.515 84.1825C126.298 79.394 127.288 74.6653 128.435 70.0118C131.272 65.649 134.126 61.2529 137.012 56.8139C132.739 65.8288 128.904 74.9673 125.515 84.1825Z" fill="white" fill-opacity="0.44"/>
<path d="M147.606 36.6594C149.426 32.2505 151.398 27.9403 153.543 23.7564C156.99 19.2892 160.464 14.8026 163.993 10.277C158.096 18.8756 152.622 27.6919 147.606 36.6594Z" fill="white" fill-opacity="0.44"/>
<path d="M349.949 294.22C350.792 297.675 351.51 301.156 352.127 304.668C351.285 303.488 350.504 302.307 349.796 301.114C349.944 298.816 349.983 296.512 349.949 294.22Z" fill="white" fill-opacity="0.44"/>
<path d="M348.072 312.939C348.149 316.445 348.118 319.946 347.977 323.463C347.37 322.238 346.8 321.008 346.305 319.766C346.998 317.512 347.589 315.229 348.072 312.939Z" fill="white" fill-opacity="0.44"/>
<path d="M341.796 331.16C341.133 334.555 340.352 337.929 339.463 341.297C339.041 340.043 338.68 338.787 338.366 337.539C339.612 335.451 340.768 333.322 341.796 331.16Z" fill="white" fill-opacity="0.44"/>
<path d="M331.035 347.834C329.652 350.976 328.18 354.077 326.607 357.126C326.357 355.852 326.15 354.61 325.98 353.361C327.766 351.593 329.445 349.733 331.035 347.834Z" fill="white" fill-opacity="0.44"/>
<path d="M315.982 361.872C313.962 364.617 311.857 367.3 309.675 369.933C309.556 368.668 309.474 367.397 309.421 366.168C311.695 364.819 313.873 363.394 315.982 361.872Z" fill="white" fill-opacity="0.44"/>
<path d="M297.041 372.227C294.49 374.459 291.856 376.604 289.174 378.68C289.142 377.394 289.168 376.129 289.19 374.889C291.876 374.118 294.475 373.224 297.041 372.227Z" fill="white" fill-opacity="0.44"/>
<path d="M274.856 377.891C271.888 379.506 268.875 381.028 265.816 382.458C265.873 381.152 265.939 379.859 266.039 378.585C269.014 378.48 271.961 378.25 274.856 377.891Z" fill="white" fill-opacity="0.44"/>
<path d="M250.33 378.012C247.092 378.927 243.819 379.763 240.538 380.502C240.653 379.135 240.765 377.791 240.895 376.474C244.058 377.126 247.206 377.643 250.33 378.012Z" fill="white" fill-opacity="0.44"/>
<path d="M224.543 371.927C221.194 372.135 217.824 372.255 214.459 372.267C214.623 370.825 214.773 369.392 214.942 367.987C218.126 369.45 221.323 370.759 224.543 371.927Z" fill="white" fill-opacity="0.44"/>
<path d="M198.688 359.199C195.363 358.688 192.064 358.096 188.77 357.398C188.976 355.843 189.182 354.289 189.398 352.748C192.445 355.03 195.548 357.19 198.688 359.199Z" fill="white" fill-opacity="0.44"/>
<path d="M174.099 339.641C170.962 338.44 167.864 337.149 164.788 335.802C165.077 334.106 165.333 332.393 165.599 330.694C168.347 333.826 171.18 336.817 174.099 339.641Z" fill="white" fill-opacity="0.44"/>
<path d="M152.118 313.393C149.301 311.574 146.542 309.692 143.832 307.734C144.199 305.86 144.579 303.977 144.922 302.099C147.221 305.983 149.623 309.752 152.118 313.393Z" fill="white" fill-opacity="0.44"/>
<path d="M134.083 280.849C131.713 278.505 129.414 276.088 127.169 273.633C127.677 271.555 128.162 269.472 128.647 267.39C130.315 271.972 132.143 276.461 134.083 280.849Z" fill="white" fill-opacity="0.44"/>
<path d="M121.26 242.672C119.426 239.902 117.685 237.087 116.007 234.247C116.681 231.968 117.335 229.661 118.012 227.359C118.958 232.54 120.036 237.648 121.26 242.672Z" fill="white" fill-opacity="0.44"/>
<path d="M114.764 199.802C113.553 196.751 112.433 193.656 111.384 190.573C112.274 188.077 113.187 185.584 114.095 183.054C114.149 188.688 114.378 194.28 114.764 199.802Z" fill="white" fill-opacity="0.44"/>
<path d="M115.579 153.433C115.056 150.222 114.603 147.023 114.224 143.812C115.421 141.137 116.611 138.425 117.802 135.714C116.869 141.639 116.145 147.541 115.579 153.433Z" fill="white" fill-opacity="0.44"/>
<path d="M124.455 104.909C124.603 101.714 124.859 98.5264 125.172 95.3602C126.676 92.5072 128.227 89.6623 129.795 86.7842C127.81 92.7987 126.027 98.8357 124.455 104.909Z" fill="white" fill-opacity="0.44"/>
<path d="M141.906 55.7633C142.755 52.711 143.657 49.7041 144.673 46.7408C146.603 43.7899 148.515 40.8116 150.486 37.8316C147.442 43.7531 144.582 49.7303 141.906 55.7633Z" fill="white" fill-opacity="0.44"/>
<path d="M344.945 285.158C345.27 286.851 345.548 288.536 345.809 290.254C345.602 289.677 345.409 289.09 345.24 288.507C345.159 287.385 345.064 286.274 344.945 285.158Z" fill="white" fill-opacity="0.44"/>
<path d="M344.629 303.776C344.568 305.477 344.497 307.163 344.365 308.852C344.256 308.267 344.157 307.695 344.081 307.128C344.289 306.007 344.473 304.882 344.629 303.776Z" fill="white" fill-opacity="0.44"/>
<path d="M339.568 322.021C339.145 323.649 338.703 325.249 338.223 326.855C338.194 326.295 338.165 325.736 338.146 325.19C338.654 324.144 339.116 323.089 339.568 322.021Z" fill="white" fill-opacity="0.44"/>
<path d="M329.675 338.756C328.915 340.231 328.121 341.688 327.318 343.132C327.345 342.593 327.363 342.041 327.401 341.516C328.19 340.602 328.942 339.693 329.675 338.756Z" fill="white" fill-opacity="0.44"/>
<path d="M315.168 352.752C314.105 354.008 313.018 355.259 311.925 356.473C311.977 355.938 312.028 355.403 312.099 354.896C313.144 354.193 314.166 353.486 315.168 352.752Z" fill="white" fill-opacity="0.44"/>
<path d="M296.528 362.865C295.218 363.861 293.891 364.805 292.551 365.759C292.626 365.228 292.701 364.697 292.762 364.176C294.037 363.767 295.292 363.33 296.528 362.865Z" fill="white" fill-opacity="0.44"/>
<path d="M274.454 367.99C272.97 368.652 271.462 369.31 269.962 369.922C270.027 369.378 270.115 368.837 270.194 368.283C271.615 368.226 273.045 368.122 274.454 367.99Z" fill="white" fill-opacity="0.44"/>
<path d="M249.967 367.234C248.359 367.549 246.766 367.854 245.152 368.132C245.235 367.555 245.293 366.974 245.376 366.397C246.917 366.71 248.438 366.996 249.967 367.234Z" fill="white" fill-opacity="0.44"/>
<path d="M224.243 359.906C222.62 359.88 220.978 359.827 219.353 359.741C219.433 359.104 219.513 358.467 219.57 357.826C221.128 358.539 222.687 359.253 224.243 359.906Z" fill="white" fill-opacity="0.44"/>
<path d="M198.636 345.556C197.049 345.175 195.465 344.771 193.886 344.343C193.967 343.622 194.036 342.911 194.127 342.204C195.611 343.363 197.117 344.464 198.636 345.556Z" fill="white" fill-opacity="0.44"/>
<path d="M174.562 324.086C173.09 323.375 171.622 322.642 170.181 321.889C170.278 321.075 170.375 320.262 170.496 319.452C171.826 321.028 173.173 322.572 174.562 324.086Z" fill="white" fill-opacity="0.44"/>
<path d="M153.478 295.652C152.187 294.648 150.923 293.625 149.664 292.579C149.803 291.652 149.952 290.74 150.092 289.813C151.185 291.806 152.309 293.755 153.478 295.652Z" fill="white" fill-opacity="0.44"/>
<path d="M136.819 260.765C135.774 259.502 134.74 258.254 133.723 256.972C133.942 255.927 134.137 254.878 134.366 253.846C135.151 256.183 135.976 258.49 136.819 260.765Z" fill="white" fill-opacity="0.44"/>
<path d="M125.902 220.237C125.126 218.803 124.4 217.354 123.674 215.906C123.983 214.755 124.285 213.567 124.607 212.406C124.997 215.026 125.424 217.639 125.902 220.237Z" fill="white" fill-opacity="0.44"/>
<path d="M121.904 175.11C121.472 173.554 121.039 171.998 120.644 170.436C121.093 169.164 121.509 167.875 121.962 166.579C121.881 169.432 121.874 172.274 121.904 175.11Z" fill="white" fill-opacity="0.44"/>
<path d="M125.806 126.704C125.708 125.096 125.642 123.506 125.567 121.902C126.167 120.522 126.756 119.129 127.369 117.739C126.804 120.752 126.28 123.736 125.806 126.704Z" fill="white" fill-opacity="0.44"/>
<path d="M138.336 76.5874C138.58 75.0249 138.837 73.4528 139.127 71.8984C139.911 70.4287 140.707 68.9492 141.514 67.4836C140.417 70.5036 139.34 73.5512 138.336 76.5874Z" fill="white" fill-opacity="0.44"/>
<path d="M159.954 26.3926C160.542 24.9364 161.154 23.4843 161.752 22.0419C162.772 20.5272 163.783 18.9987 164.793 17.4703C163.138 20.4331 161.529 23.4039 159.954 26.3926Z" fill="white" fill-opacity="0.44"/>
<path d="M337.543 257.552C337.59 257.704 337.64 257.833 337.701 257.976L337.678 257.827C337.609 257.732 337.574 257.653 337.543 257.552Z" fill="white" fill-opacity="0.44"/>
<path d="M343.34 275.738C343.363 275.886 343.377 276.021 343.4 276.17L343.4 276.025C343.379 275.937 343.371 275.84 343.34 275.738Z" fill="white" fill-opacity="0.44"/>
<path d="M344.312 294.802C344.288 294.942 344.288 295.087 344.275 295.241L344.284 295.11C344.29 295.003 344.306 294.909 344.312 294.802Z" fill="white" fill-opacity="0.44"/>
<path d="M340.083 313.548C340.035 313.684 339.988 313.821 339.941 313.958L339.975 313.831C340.014 313.741 340.043 313.638 340.083 313.548Z" fill="white" fill-opacity="0.44"/>
<path d="M330.633 330.646C330.553 330.765 330.482 330.898 330.416 331.007L330.445 330.904C330.508 330.818 330.57 330.732 330.633 330.646Z" fill="white" fill-opacity="0.44"/>
<path d="M316.193 344.799C316.094 344.89 315.99 345.005 315.89 345.097L315.933 344.984C316.025 344.939 316.111 344.857 316.193 344.799Z" fill="white" fill-opacity="0.44"/>
<path d="M297.352 354.717C297.243 354.795 297.11 354.869 297 354.947L297.029 354.843C297.145 354.802 297.26 354.761 297.352 354.717Z" fill="white" fill-opacity="0.44"/>
<path d="M274.965 359.254C274.836 359.305 274.697 359.342 274.568 359.392L274.588 359.275C274.723 359.262 274.844 359.258 274.965 359.254Z" fill="white" fill-opacity="0.44"/>
<path d="M250.137 357.44C250.002 357.453 249.853 357.476 249.718 357.49L249.728 357.359C249.869 357.383 250.01 357.406 250.137 357.44Z" fill="white" fill-opacity="0.44"/>
<path d="M224.207 348.606C224.063 348.606 223.936 348.572 223.781 348.558L223.795 348.404C223.928 348.475 224.061 348.545 224.207 348.606Z" fill="white" fill-opacity="0.44"/>
<path d="M198.643 332.347C198.516 332.314 198.384 332.243 198.243 332.22L198.261 332.042C198.376 332.146 198.505 332.24 198.643 332.347Z" fill="white" fill-opacity="0.44"/>
<path d="M174.997 308.612C174.865 308.541 174.745 308.461 174.636 308.395L174.648 308.18C174.769 308.321 174.89 308.461 174.997 308.612Z" fill="white" fill-opacity="0.44"/>
<path d="M154.863 277.666C154.771 277.567 154.656 277.463 154.551 277.373C154.576 277.293 154.555 277.205 154.58 277.125C154.684 277.299 154.773 277.483 154.863 277.666Z" fill="white" fill-opacity="0.44"/>
<path d="M139.725 240.145C139.647 240.036 139.573 239.903 139.481 239.803C139.497 239.71 139.513 239.616 139.528 239.522C139.591 239.725 139.663 239.942 139.725 240.145Z" fill="white" fill-opacity="0.44"/>
<path d="M130.954 197.014C130.889 196.895 130.828 196.752 130.791 196.613C130.82 196.51 130.849 196.407 130.869 196.29C130.9 196.536 130.922 196.768 130.954 197.014Z" fill="white" fill-opacity="0.44"/>
<path d="M129.769 149.467C129.769 149.322 129.695 149.189 129.694 149.045C129.713 148.927 129.77 148.805 129.812 148.691C129.794 148.953 129.788 149.205 129.769 149.467Z" fill="white" fill-opacity="0.44"/>
<path d="M137.111 99.0223C137.11 98.8776 137.134 98.7369 137.133 98.5922C137.19 98.4692 137.26 98.3366 137.292 98.2096C137.236 98.4773 137.18 98.7449 137.111 99.0223Z" fill="white" fill-opacity="0.44"/>
<path d="M153.688 47.3426C153.735 47.2059 153.744 47.0748 153.791 46.938C153.851 46.7916 153.954 46.6766 154.015 46.5301C153.921 46.8036 153.791 47.0828 153.688 47.3426Z" fill="white" fill-opacity="0.44"/>
</svg>
