<svg width="132" height="60" viewBox="0 0 132 60" fill="none" xmlns="http://www.w3.org/2000/svg">
<path d="M130.319 3.42691H1.42919C0.657776 3.42691 0.0317383 2.80019 0.0317383 2.02789C0.0317383 1.25559 0.657776 0.628906 1.42919 0.628906H130.319C131.09 0.628906 131.716 1.25559 131.716 2.02789C131.716 2.80019 131.09 3.42691 130.319 3.42691Z" fill="#399EFD" fill-opacity="0.25"/>
<path d="M25.8046 31.2614H1.42284C0.651428 31.2614 0.0253906 30.6347 0.0253906 29.8624C0.0253906 29.0901 0.651428 28.4634 1.42284 28.4634H25.8046C26.576 28.4634 27.202 29.0901 27.202 29.8624C27.2083 30.6347 26.5823 31.2614 25.8046 31.2614Z" fill="#399EFD" fill-opacity="0.25"/>
<path d="M95.9782 31.2614H45.5517C44.7803 31.2614 44.1543 30.6347 44.1543 29.8624C44.1543 29.0901 44.7803 28.4634 45.5517 28.4634H95.9782C96.7496 28.4634 97.3757 29.0901 97.3757 29.8624C97.3757 30.6347 96.7496 31.2614 95.9782 31.2614Z" fill="#399EFD" fill-opacity="0.25"/>
<path d="M130.319 59.0961H1.42919C0.657776 59.0961 0.0317383 58.4694 0.0317383 57.6971C0.0317383 56.9248 0.657776 56.2981 1.42919 56.2981H130.319C131.09 56.2981 131.716 56.9248 131.716 57.6971C131.716 58.4694 131.09 59.0961 130.319 59.0961Z" fill="#399EFD" fill-opacity="0.25"/>
</svg>
