<svg width="578" height="665" viewBox="0 0 578 665" fill="none" xmlns="http://www.w3.org/2000/svg">
<path d="M553.516 90.6764C558.724 93.8469 563.886 97.2028 568.956 100.714C567.589 105.755 566.102 110.696 564.506 115.551C561.182 107.132 557.507 98.8352 553.516 90.6764Z" fill="white" fill-opacity="0.44"/>
<path d="M575.2 147.56C579.677 151.617 584.05 155.84 588.324 160.182C586.098 164.716 583.832 169.174 581.441 173.495C579.719 164.793 577.632 156.139 575.2 147.56Z" fill="white" fill-opacity="0.44"/>
<path d="M586.069 206.308C589.634 211.074 593.126 215.938 596.457 220.948C593.537 224.89 590.537 228.702 587.48 232.387C587.347 223.71 586.905 215.017 586.069 206.308Z" fill="white" fill-opacity="0.44"/>
<path d="M586.064 264.862C588.635 270.124 591.099 275.467 593.421 280.9C589.894 284.118 586.332 287.236 582.736 290.229C584.172 281.848 585.283 273.377 586.064 264.862Z" fill="white" fill-opacity="0.44"/>
<path d="M575.512 321.269C577.056 326.794 578.437 332.382 579.678 338.035C575.702 340.513 571.719 342.846 567.722 345.106C570.625 337.272 573.229 329.328 575.512 321.269Z" fill="white" fill-opacity="0.44"/>
<path d="M555.145 373.729C555.628 379.31 555.964 384.918 556.128 390.553C551.854 392.237 547.588 393.851 543.319 395.296C547.535 388.279 551.507 381.11 555.145 373.729Z" fill="white" fill-opacity="0.44"/>
<path d="M526.036 420.713C525.506 426.139 524.798 431.553 523.959 436.962C519.517 437.858 515.094 438.696 510.709 439.419C516.05 433.41 521.157 427.154 526.036 420.713Z" fill="white" fill-opacity="0.44"/>
<path d="M489.445 460.944C487.963 466.019 486.342 471.053 484.593 476.057C480.106 476.239 475.655 476.33 471.252 476.319C477.508 471.459 483.569 466.322 489.445 460.944Z" fill="white" fill-opacity="0.44"/>
<path d="M446.844 493.468C444.528 498.014 442.123 502.5 439.569 506.931C435.16 506.391 430.788 505.844 426.478 505.185C433.409 501.554 440.196 497.628 446.844 493.468Z" fill="white" fill-opacity="0.44"/>
<path d="M399.82 517.617C396.843 521.499 393.756 525.295 390.581 529.032C386.334 527.877 382.136 526.705 377.995 525.468C385.351 523.13 392.643 520.542 399.82 517.617Z" fill="white" fill-opacity="0.44"/>
<path d="M349.966 533.025C346.485 536.145 342.93 539.171 339.293 542.091C335.279 540.415 331.318 538.698 327.394 536.974C334.948 535.934 342.487 534.627 349.966 533.025Z" fill="white" fill-opacity="0.44"/>
<path d="M298.879 539.619C295.07 541.903 291.216 544.074 287.313 546.154C283.599 544.014 279.897 541.864 276.243 539.72C283.779 539.949 291.325 539.916 298.879 539.619Z" fill="white" fill-opacity="0.44"/>
<path d="M248.08 537.631C244.154 539.047 240.192 540.363 236.211 541.544C232.77 539.045 229.39 536.543 226.023 534.03C233.307 535.497 240.669 536.71 248.08 537.631Z" fill="white" fill-opacity="0.44"/>
<path d="M198.956 527.474C195.09 528.035 191.212 528.499 187.352 528.821C184.224 526.041 181.135 523.23 178.068 520.446C184.934 523.02 191.897 525.39 198.956 527.474Z" fill="white" fill-opacity="0.44"/>
<path d="M152.795 509.772C149.161 509.536 145.556 509.173 141.989 508.695C139.181 505.671 136.372 502.647 133.571 499.66C139.841 503.244 146.255 506.631 152.795 509.772Z" fill="white" fill-opacity="0.44"/>
<path d="M110.657 485.317C107.432 484.322 104.249 483.272 101.147 482.053C98.5863 478.883 96.0387 475.703 93.5146 472.526C99.048 476.993 104.775 481.247 110.657 485.317Z" fill="white" fill-opacity="0.44"/>
<path d="M73.4444 455.031C70.753 453.412 68.157 451.697 65.6433 449.898C63.3429 446.572 61.0264 443.28 58.7098 439.988C63.4314 445.185 68.3571 450.181 73.4444 455.031Z" fill="white" fill-opacity="0.44"/>
<path d="M41.8594 419.923C39.8302 417.793 37.917 415.594 36.1095 413.314C34.0131 409.896 31.8902 406.499 29.7806 403.092C33.5979 408.814 37.6574 414.413 41.8594 419.923Z" fill="white" fill-opacity="0.44"/>
<path d="M514.39 73.425C519.767 75.7196 525.106 78.2128 530.392 80.8546C529.41 85.6819 528.343 90.4261 527.156 95.071C523.21 87.7086 518.922 80.5049 514.39 73.425Z" fill="white" fill-opacity="0.44"/>
<path d="M540.481 123.367C545.272 126.627 549.993 130.069 554.652 133.623C552.883 138.037 551.018 142.355 549.082 146.579C546.533 138.752 543.677 130.992 540.481 123.367Z" fill="white" fill-opacity="0.44"/>
<path d="M556.977 176.316C561.021 180.389 564.978 184.594 568.822 188.928C566.328 192.818 563.799 196.606 561.2 200.278C560.098 192.267 558.708 184.266 556.977 176.316Z" fill="white" fill-opacity="0.44"/>
<path d="M563.511 230.447C566.691 235.127 569.723 239.944 572.65 244.842C569.572 248.118 566.458 251.293 563.302 254.331C563.687 246.403 563.765 238.434 563.511 230.447Z" fill="white" fill-opacity="0.44"/>
<path d="M560.089 283.927C562.271 289.043 564.347 294.24 566.26 299.5C562.703 302.08 559.146 304.576 555.555 306.947C557.382 299.371 558.888 291.681 560.089 283.927Z" fill="white" fill-opacity="0.44"/>
<path d="M547.122 335.017C548.306 340.352 549.343 345.715 550.23 351.131C546.34 353.008 542.449 354.802 538.562 356.464C541.684 349.462 544.539 342.306 547.122 335.017Z" fill="white" fill-opacity="0.44"/>
<path d="M525.311 382.176C525.466 387.497 525.486 392.837 525.373 398.196C521.27 399.363 517.176 400.46 513.11 401.428C517.456 395.207 521.472 388.751 525.311 382.176Z" fill="white" fill-opacity="0.44"/>
<path d="M495.621 424.017C494.817 429.143 493.871 434.251 492.794 439.354C488.586 439.812 484.431 440.229 480.277 440.539C485.601 435.247 490.712 429.735 495.621 424.017Z" fill="white" fill-opacity="0.44"/>
<path d="M459.238 459.434C457.591 464.188 455.759 468.894 453.812 473.56C449.621 473.385 445.463 473.142 441.351 472.821C447.467 468.603 453.444 464.15 459.238 459.434Z" fill="white" fill-opacity="0.44"/>
<path d="M417.501 487.612C415.082 491.832 412.506 495.96 409.828 500.038C405.738 499.252 401.672 498.468 397.657 497.56C404.406 494.518 411.022 491.194 417.501 487.612Z" fill="white" fill-opacity="0.44"/>
<path d="M371.829 507.928C368.774 511.465 365.611 514.914 362.396 518.298C358.455 516.991 354.568 515.644 350.73 514.279C357.813 512.408 364.864 510.306 371.829 507.928Z" fill="white" fill-opacity="0.44"/>
<path d="M323.68 520.102C320.179 522.895 316.587 525.544 312.955 528.14C309.229 526.37 305.55 524.606 301.914 522.788C309.199 522.168 316.458 521.269 323.68 520.102Z" fill="white" fill-opacity="0.44"/>
<path d="M274.477 524.022C270.697 525.986 266.885 527.825 263.034 529.588C259.561 527.432 256.112 525.28 252.69 523.106C259.943 523.682 267.207 523.972 274.477 524.022Z" fill="white" fill-opacity="0.44"/>
<path d="M225.592 519.891C221.738 521.017 217.865 522.009 213.98 522.903C210.752 520.433 207.548 517.966 204.381 515.492C211.392 517.21 218.483 518.675 225.592 519.891Z" fill="white" fill-opacity="0.44"/>
<path d="M178.346 508.069C174.59 508.333 170.852 508.539 167.108 508.601C164.13 505.877 161.174 503.156 158.229 500.448C164.83 503.226 171.559 505.733 178.346 508.069Z" fill="white" fill-opacity="0.44"/>
<path d="M133.881 489.096C130.398 488.617 126.953 488.024 123.537 487.302C120.801 484.372 118.039 481.461 115.34 478.524C121.384 482.281 127.564 485.806 133.881 489.096Z" fill="white" fill-opacity="0.44"/>
<path d="M93.2217 463.668C90.1644 462.479 87.1688 461.178 84.2422 459.803C81.7098 456.697 79.1877 453.604 76.6523 450.522C82.0055 455.085 87.5497 459.458 93.2217 463.668Z" fill="white" fill-opacity="0.44"/>
<path d="M57.2245 432.589C54.7349 430.793 52.3142 428.922 49.9994 426.97C47.654 423.722 45.3086 420.475 42.95 417.237C47.531 422.499 52.3102 427.607 57.2245 432.589Z" fill="white" fill-opacity="0.44"/>
<path d="M499.693 101.521C506.854 104.779 513.908 108.418 520.843 112.341C518.886 118.371 516.735 124.231 514.439 129.905C510.063 120.211 505.148 110.721 499.693 101.521Z" fill="white" fill-opacity="0.44"/>
<path d="M521.503 147.337C527.833 151.9 534.034 156.734 540.039 161.889C537.116 167.302 534.042 172.492 530.847 177.499C528.268 167.307 525.184 157.23 521.503 147.337Z" fill="white" fill-opacity="0.44"/>
<path d="M534.569 195.67C539.886 201.275 544.952 207.159 549.834 213.27C546.084 217.917 542.195 222.331 538.259 226.547C537.609 216.247 536.401 205.91 534.569 195.67Z" fill="white" fill-opacity="0.44"/>
<path d="M538.578 244.888C542.668 251.318 546.494 257.952 550.092 264.785C545.645 268.565 541.127 272.144 536.588 275.505C537.833 265.376 538.502 255.159 538.578 244.888Z" fill="white" fill-opacity="0.44"/>
<path d="M533.586 293.376C536.353 300.342 538.825 307.473 541.019 314.712C536.046 317.598 531.066 320.255 526.072 322.731C529.133 313.134 531.645 303.322 533.586 293.376Z" fill="white" fill-opacity="0.44"/>
<path d="M519.896 339.604C521.277 346.835 522.337 354.144 523.149 361.516C517.814 363.445 512.517 365.259 507.228 366.81C511.976 358.018 516.197 348.929 519.896 339.604Z" fill="white" fill-opacity="0.44"/>
<path d="M498.154 382.182C498.172 389.381 497.864 396.598 497.291 403.828C491.753 404.867 486.269 405.758 480.845 406.453C487.058 398.724 492.849 390.617 498.154 382.182Z" fill="white" fill-opacity="0.44"/>
<path d="M469.187 419.872C467.898 426.783 466.291 433.641 464.428 440.441C458.828 440.61 453.292 440.642 447.822 440.539C455.332 434.069 462.463 427.165 469.187 419.872Z" fill="white" fill-opacity="0.44"/>
<path d="M434.058 451.691C431.566 458.038 428.808 464.315 425.824 470.466C420.279 469.801 414.802 469.061 409.409 468.237C417.922 463.168 426.154 457.655 434.058 451.691Z" fill="white" fill-opacity="0.44"/>
<path d="M393.926 476.805C390.411 482.406 386.676 487.857 382.718 493.16C377.322 491.783 371.995 490.331 366.748 488.817C376.015 485.3 385.101 481.304 393.926 476.805Z" fill="white" fill-opacity="0.44"/>
<path d="M350.051 494.693C345.74 499.373 341.192 503.829 336.518 508.149C331.322 506.127 326.214 504.079 321.175 501.957C330.924 500.052 340.56 497.616 350.051 494.693Z" fill="white" fill-opacity="0.44"/>
<path d="M303.713 504.977C298.781 508.578 293.741 511.985 288.573 515.171C283.652 512.598 278.781 510.006 273.997 507.391C283.927 507.093 293.861 506.28 303.713 504.977Z" fill="white" fill-opacity="0.44"/>
<path d="M256.255 507.526C250.996 510.016 245.638 512.24 240.233 514.267C235.588 511.227 230.993 508.169 226.445 505.118C236.34 506.423 246.295 507.232 256.255 507.526Z" fill="white" fill-opacity="0.44"/>
<path d="M208.917 502.453C203.568 503.754 198.175 504.835 192.798 505.689C188.431 502.268 184.103 498.815 179.82 495.392C189.401 498.214 199.111 500.572 208.917 502.453Z" fill="white" fill-opacity="0.44"/>
<path d="M162.913 490.008C157.721 490.168 152.555 490.115 147.442 489.83C143.349 486.051 139.29 482.288 135.242 478.538C144.283 482.772 153.515 486.625 162.913 490.008Z" fill="white" fill-opacity="0.44"/>
<path d="M119.375 470.612C114.583 469.699 109.864 468.579 105.255 467.247C101.428 463.181 97.5877 459.124 93.7578 455.081C102.039 460.663 110.612 465.829 119.375 470.612Z" fill="white" fill-opacity="0.44"/>
<path d="M79.2986 444.834C75.1191 442.96 71.0599 440.887 67.1785 438.633C63.5675 434.298 59.9535 429.987 56.3159 425.672C63.6835 432.4 71.3566 438.785 79.2986 444.834Z" fill="white" fill-opacity="0.44"/>
<path d="M43.5685 413.353C40.1882 410.651 36.9694 407.804 33.9752 404.783C30.5772 400.203 27.182 395.599 23.7208 391.046C30.0014 398.777 36.6286 406.217 43.5685 413.353Z" fill="white" fill-opacity="0.44"/>
<path d="M458.255 87.9415C467.354 90.3394 476.412 93.2587 485.34 96.7476C483.488 103.952 481.357 110.904 478.962 117.57C472.772 107.256 465.838 97.348 458.255 87.9415Z" fill="white" fill-opacity="0.44"/>
<path d="M483.801 126.124C492.211 130.228 500.466 134.814 508.511 139.924C505.499 146.451 502.279 152.711 498.839 158.631C494.618 147.496 489.586 136.625 483.801 126.124Z" fill="white" fill-opacity="0.44"/>
<path d="M502.01 167.841C509.408 173.454 516.559 179.513 523.418 185.989C519.393 191.702 515.203 197.095 510.876 202.145C508.745 190.563 505.774 179.098 502.01 167.841Z" fill="white" fill-opacity="0.44"/>
<path d="M512.284 211.745C518.417 218.594 524.213 225.831 529.644 233.416C524.777 238.181 519.793 242.632 514.732 246.738C514.756 235.064 513.959 223.342 512.284 211.745Z" fill="white" fill-opacity="0.44"/>
<path d="M514.376 256.343C519.043 264.118 523.283 272.244 527.123 280.594C521.566 284.338 515.987 287.779 510.375 290.904C512.541 279.528 513.868 267.971 514.376 256.343Z" fill="white" fill-opacity="0.44"/>
<path d="M508.242 300.251C511.274 308.654 513.907 317.28 516.043 326.057C510.001 328.768 503.973 331.169 497.968 333.297C502.211 322.572 505.622 311.511 508.242 300.251Z" fill="white" fill-opacity="0.44"/>
<path d="M494.187 342.106C495.557 350.775 496.466 359.587 496.939 368.437C490.569 370.099 484.272 371.471 478.035 372.647C484.14 362.869 489.555 352.665 494.187 342.106Z" fill="white" fill-opacity="0.44"/>
<path d="M472.72 380.645C472.444 389.245 471.709 397.882 470.535 406.473C464.011 407.144 457.569 407.538 451.242 407.778C459.041 399.249 466.224 390.172 472.72 380.645Z" fill="white" fill-opacity="0.44"/>
<path d="M444.562 414.734C442.704 422.94 440.41 431.076 437.735 439.103C431.186 438.787 424.74 438.329 418.411 437.694C427.682 430.673 436.401 422.968 444.562 414.734Z" fill="white" fill-opacity="0.44"/>
<path d="M410.609 443.461C407.325 450.977 403.688 458.338 399.643 465.502C393.177 464.333 386.822 463.034 380.6 461.633C391.025 456.239 401.053 450.169 410.609 443.461Z" fill="white" fill-opacity="0.44"/>
<path d="M371.873 466.011C367.353 472.56 362.547 478.903 357.447 485.004C351.149 483.065 344.973 481.01 338.897 478.921C350.199 475.346 361.2 471 371.873 466.011Z" fill="white" fill-opacity="0.44"/>
<path d="M329.499 481.828C324.02 487.218 318.321 492.351 312.395 497.191C306.33 494.539 300.352 491.863 294.475 489.152C306.31 487.447 318.034 484.996 329.499 481.828Z" fill="white" fill-opacity="0.44"/>
<path d="M284.644 490.514C278.511 494.617 272.188 498.42 265.72 501.843C259.896 498.624 254.176 495.347 248.513 492.089C260.594 492.324 272.675 491.792 284.644 490.514Z" fill="white" fill-opacity="0.44"/>
<path d="M238.476 491.873C231.958 494.569 225.336 496.94 218.65 498.955C213.112 495.199 207.607 491.46 202.167 487.693C214.209 489.83 226.346 491.212 238.476 491.873Z" fill="white" fill-opacity="0.44"/>
<path d="M192.248 485.898C185.666 487.194 179.051 488.091 172.463 488.667C167.175 484.467 161.94 480.225 156.683 476.065C168.357 480.057 180.247 483.372 192.248 485.898Z" fill="white" fill-opacity="0.44"/>
<path d="M147.087 472.756C140.732 472.644 134.444 472.182 128.248 471.373C123.22 466.741 118.165 462.129 113.131 457.545C124.163 463.284 135.505 468.358 147.087 472.756Z" fill="white" fill-opacity="0.44"/>
<path d="M104.083 452.755C98.2543 451.323 92.5611 449.574 87.0397 447.5C82.2029 442.513 77.3955 437.481 72.5352 432.49C82.6876 439.859 93.2117 446.644 104.083 452.755Z" fill="white" fill-opacity="0.44"/>
<path d="M64.2892 426.352C59.2318 423.753 54.4035 420.85 49.8352 417.681C45.2326 412.284 40.577 406.927 35.917 401.51C44.8853 410.361 54.3633 418.668 64.2892 426.352Z" fill="white" fill-opacity="0.44"/>
<path d="M445.822 112.975C455.575 115.806 465.23 119.33 474.709 123.502C471.954 130.553 468.874 137.239 465.576 143.56C459.825 132.884 453.193 122.654 445.822 112.975Z" fill="white" fill-opacity="0.44"/>
<path d="M467.644 147.664C476.596 152.33 485.314 157.624 493.741 163.526C489.89 169.764 485.8 175.612 481.541 181.079C477.827 169.613 473.158 158.418 467.644 147.664Z" fill="white" fill-opacity="0.44"/>
<path d="M482.803 185.47C490.61 191.747 498.074 198.567 505.136 205.932C500.346 211.234 495.402 216.145 490.363 220.66C488.807 208.781 486.296 196.98 482.803 185.47Z" fill="white" fill-opacity="0.44"/>
<path d="M490.802 225.224C497.177 232.824 503.123 240.884 508.601 249.349C503.063 253.632 497.43 257.519 491.781 261.057C492.435 249.129 492.116 237.122 490.802 225.224Z" fill="white" fill-opacity="0.44"/>
<path d="M491.326 265.655C496.071 274.243 500.306 283.184 504.001 292.414C497.874 295.639 491.722 298.478 485.632 301.013C488.487 289.404 490.386 277.575 491.326 265.655Z" fill="white" fill-opacity="0.44"/>
<path d="M484.346 305.476C487.303 314.685 489.74 324.125 491.591 333.74C485.055 335.895 478.567 337.756 472.146 339.266C477.156 328.354 481.234 317.032 484.346 305.476Z" fill="white" fill-opacity="0.44"/>
<path d="M470.063 343.492C471.192 352.944 471.755 362.514 471.761 372.132C464.978 373.26 458.28 374.088 451.706 374.692C458.681 364.775 464.811 354.317 470.063 343.492Z" fill="white" fill-opacity="0.44"/>
<path d="M448.867 378.505C448.19 387.821 446.962 397.137 445.189 406.406C438.298 406.549 431.52 406.456 424.863 406.162C433.617 397.577 441.663 388.324 448.867 378.505Z" fill="white" fill-opacity="0.44"/>
<path d="M421.367 409.491C418.976 418.323 416.081 427.054 412.681 435.599C405.783 434.805 399.014 433.849 392.391 432.779C402.671 425.746 412.386 417.954 421.367 409.491Z" fill="white" fill-opacity="0.44"/>
<path d="M388.345 435.55C384.421 443.581 380.045 451.385 375.221 458.939C368.416 457.306 361.741 455.594 355.186 453.789C366.736 448.506 377.837 442.397 388.345 435.55Z" fill="white" fill-opacity="0.44"/>
<path d="M350.687 455.865C345.481 462.816 339.836 469.445 333.872 475.745C327.203 473.409 320.67 470.948 314.234 468.475C326.751 465.156 338.946 460.954 350.687 455.865Z" fill="white" fill-opacity="0.44"/>
<path d="M309.399 469.843C303.147 475.468 296.589 480.753 289.785 485.61C283.313 482.569 276.926 479.527 270.628 476.437C283.752 475.165 296.718 472.948 309.399 469.843Z" fill="white" fill-opacity="0.44"/>
<path d="M265.534 477.037C258.569 481.187 251.412 484.951 244.082 488.274C237.794 484.647 231.59 481.019 225.433 477.397C238.869 478.205 252.274 478.098 265.534 477.037Z" fill="white" fill-opacity="0.44"/>
<path d="M220.238 477.189C212.895 479.777 205.46 481.945 197.986 483.653C191.9 479.491 185.861 475.334 179.832 471.191C193.213 474.126 206.734 476.12 220.238 477.189Z" fill="white" fill-opacity="0.44"/>
<path d="M174.67 470.17C167.311 471.173 159.948 471.732 152.651 471.857C146.763 467.183 140.873 462.533 134.969 457.893C147.964 462.909 161.255 466.992 174.67 470.17Z" fill="white" fill-opacity="0.44"/>
<path d="M129.956 456.066C122.912 455.529 115.951 454.523 109.167 453.146C103.451 447.982 97.7064 442.862 91.9277 437.725C104.243 444.685 116.96 450.824 129.956 456.066Z" fill="white" fill-opacity="0.44"/>
<path d="M87.2184 435.091C80.7901 433.102 74.5821 430.687 68.6224 427.91C63.0764 422.279 57.4863 416.619 51.833 410.987C63.1316 419.81 74.9665 427.878 87.2184 435.091Z" fill="white" fill-opacity="0.44"/>
<path d="M47.4996 407.627C42.0043 404.326 36.7909 400.679 31.9536 396.698C26.5703 390.565 21.143 384.403 15.6479 378.208C25.6513 388.723 36.2862 398.58 47.4996 407.627Z" fill="white" fill-opacity="0.44"/>
<path d="M408.412 107.083C418.82 108.215 429.247 110.164 439.578 112.891C437.187 120.003 434.436 126.732 431.412 133.055C424.491 123.793 416.784 115.074 408.412 107.083Z" fill="white" fill-opacity="0.44"/>
<path d="M432.433 134.522C442.335 137.707 452.13 141.657 461.655 146.326C458.173 152.684 454.417 158.635 450.455 164.128C445.334 153.773 439.272 143.868 432.433 134.522Z" fill="white" fill-opacity="0.44"/>
<path d="M451.181 165.786C460.218 170.835 468.949 176.61 477.325 183.021C472.886 188.5 468.273 193.537 463.532 198.163C460.375 187.033 456.212 176.191 451.181 165.786Z" fill="white" fill-opacity="0.44"/>
<path d="M463.917 199.941C471.722 206.625 479.102 213.936 486.008 221.784C480.79 226.288 475.468 230.383 470.101 234.065C469.056 222.516 466.964 211.093 463.917 199.941Z" fill="white" fill-opacity="0.44"/>
<path d="M470.143 235.92C476.418 243.938 482.188 252.453 487.402 261.399C481.565 264.912 475.706 268.015 469.847 270.735C470.998 259.148 471.068 247.479 470.143 235.92Z" fill="white" fill-opacity="0.44"/>
<path d="M469.515 272.608C474.067 281.602 478.033 290.963 481.377 300.614C475.078 303.098 468.812 305.215 462.631 307.031C465.959 295.76 468.277 284.224 469.515 272.608Z" fill="white" fill-opacity="0.44"/>
<path d="M461.97 308.87C464.665 318.451 466.705 328.283 468.116 338.261C461.504 339.77 454.983 340.932 448.578 341.833C454.041 331.232 458.517 320.177 461.97 308.87Z" fill="white" fill-opacity="0.44"/>
<path d="M447.58 343.588C448.369 353.368 448.497 363.253 447.963 373.16C441.169 373.7 434.492 373.978 427.958 374.06C435.426 364.423 442.004 354.215 447.58 343.588Z" fill="white" fill-opacity="0.44"/>
<path d="M426.655 375.627C425.536 385.222 423.811 394.774 421.465 404.208C414.588 403.85 407.852 403.318 401.258 402.612C410.543 394.3 419.054 385.263 426.655 375.627Z" fill="white" fill-opacity="0.44"/>
<path d="M399.683 403.999C396.8 413.019 393.336 421.892 389.335 430.538C382.461 429.364 375.722 428.063 369.129 426.65C380.001 419.885 390.228 412.316 399.683 403.999Z" fill="white" fill-opacity="0.44"/>
<path d="M367.331 427.82C362.867 435.949 357.886 443.794 352.465 451.318C345.645 449.419 338.951 447.38 332.378 445.333C344.57 440.386 356.299 434.539 367.331 427.82Z" fill="white" fill-opacity="0.44"/>
<path d="M330.383 446.226C324.582 453.146 318.377 459.738 311.794 465.897C305.063 463.29 298.433 460.648 291.9 457.995C305.124 455.067 318.009 451.1 330.383 446.226Z" fill="white" fill-opacity="0.44"/>
<path d="M289.765 458.599C282.95 464.125 275.808 469.202 268.408 473.836C261.778 470.619 255.212 467.375 248.728 464.152C262.636 463.319 276.372 461.467 289.765 458.599Z" fill="white" fill-opacity="0.44"/>
<path d="M246.459 464.401C238.936 468.322 231.237 471.823 223.379 474.765C216.85 470.963 210.381 467.157 203.896 463.384C218.158 464.768 232.394 465.105 246.459 464.401Z" fill="white" fill-opacity="0.44"/>
<path d="M201.589 463.288C193.746 465.559 185.811 467.326 177.855 468.575C171.423 464.212 165.001 459.863 158.566 455.523C172.816 459.17 187.207 461.769 201.589 463.288Z" fill="white" fill-opacity="0.44"/>
<path d="M156.254 455.089C148.435 455.66 140.661 455.77 132.981 455.318C126.633 450.405 120.285 445.491 113.876 440.582C127.749 446.431 141.936 451.29 156.254 455.089Z" fill="white" fill-opacity="0.44"/>
<path d="M111.649 439.751C104.228 438.697 96.9512 437.148 89.9012 435.126C83.6503 429.652 77.3686 424.139 71.0132 418.641C84.129 426.663 97.7107 433.728 111.649 439.751Z" fill="white" fill-opacity="0.44"/>
<path d="M68.8776 417.439C62.1775 414.852 55.7505 411.799 49.6616 408.335C43.5277 402.246 37.3099 396.157 31.0405 390.002C43.0682 400.068 55.7203 409.247 68.8776 417.439Z" fill="white" fill-opacity="0.44"/>
<path d="M397.283 128.031C407.584 129.46 417.863 131.737 428.009 134.799C424.959 140.951 421.612 146.693 418.021 151.985C411.831 143.392 404.862 135.38 397.283 128.031Z" fill="white" fill-opacity="0.44"/>
<path d="M418.333 152.454C428.082 155.907 437.635 160.173 446.906 165.168C442.947 170.53 438.793 175.448 434.469 179.9C429.942 170.256 424.507 161.08 418.333 152.454Z" fill="white" fill-opacity="0.44"/>
<path d="M434.657 180.451C443.457 185.768 451.931 191.784 459.974 198.475C455.25 202.96 450.414 206.998 445.5 210.607C442.8 200.231 439.168 190.129 434.657 180.451Z" fill="white" fill-opacity="0.44"/>
<path d="M445.546 211.23C453.058 218.138 460.109 225.682 466.628 233.742C461.29 237.296 455.917 240.449 450.561 243.186C449.878 232.38 448.203 221.659 445.546 211.23Z" fill="white" fill-opacity="0.44"/>
<path d="M450.498 243.856C456.44 252.046 461.827 260.75 466.59 269.852C460.79 272.484 455.024 274.749 449.315 276.65C450.743 265.722 451.125 254.729 450.498 243.856Z" fill="white" fill-opacity="0.44"/>
<path d="M449.108 277.306C453.272 286.429 456.815 295.926 459.703 305.674C453.558 307.399 447.49 308.787 441.542 309.891C445.069 299.233 447.624 288.303 449.108 277.306Z" fill="white" fill-opacity="0.44"/>
<path d="M441.192 310.561C443.458 320.218 445.049 330.099 445.989 340.099C439.614 340.956 433.355 341.553 427.235 341.892C432.896 331.82 437.568 321.319 441.192 310.561Z" fill="white" fill-opacity="0.44"/>
<path d="M426.781 342.531C427.112 352.324 426.763 362.196 425.746 372.028C419.219 372.063 412.849 371.89 406.607 371.554C414.265 362.41 421.024 352.68 426.781 342.531Z" fill="white" fill-opacity="0.44"/>
<path d="M406.058 372.14C404.49 381.678 402.249 391.139 399.416 400.439C392.824 399.709 386.358 398.84 380.048 397.872C389.546 389.971 398.28 381.358 406.058 372.14Z" fill="white" fill-opacity="0.44"/>
<path d="M379.418 398.389C376.082 407.29 372.136 415.98 367.646 424.406C361.02 422.976 354.513 421.454 348.143 419.89C359.274 413.543 369.757 406.332 379.418 398.389Z" fill="white" fill-opacity="0.44"/>
<path d="M347.435 420.353C342.506 428.265 337.097 435.886 331.199 443.095C324.558 441.015 318.027 438.914 311.586 436.764C324.123 432.234 336.11 426.721 347.435 420.353Z" fill="white" fill-opacity="0.44"/>
<path d="M310.812 437.146C304.589 443.795 297.957 450.056 290.964 455.849C284.316 453.157 277.752 450.463 271.245 447.789C284.864 445.261 298.106 441.7 310.812 437.146Z" fill="white" fill-opacity="0.44"/>
<path d="M270.423 448.061C263.209 453.235 255.694 457.938 247.933 462.105C241.286 458.838 234.674 455.587 228.095 452.353C242.469 452.012 256.641 450.59 270.423 448.061Z" fill="white" fill-opacity="0.44"/>
<path d="M227.242 452.512C219.396 456.042 211.342 459.03 203.207 461.503C196.564 457.662 189.907 453.832 183.234 450.035C197.975 451.985 212.713 452.808 227.242 452.512Z" fill="white" fill-opacity="0.44"/>
<path d="M182.338 450.064C174.209 451.854 166.036 453.122 157.863 453.816C151.202 449.375 144.487 444.976 137.763 440.563C152.53 444.852 167.434 448.034 182.338 450.064Z" fill="white" fill-opacity="0.44"/>
<path d="M136.874 440.433C128.855 440.499 120.896 439.986 113.106 438.981C106.427 433.941 99.7143 428.884 92.9175 423.829C107.271 430.518 121.986 436.033 136.874 440.433Z" fill="white" fill-opacity="0.44"/>
<path d="M92.0566 423.557C84.5044 421.924 77.1608 419.768 70.0906 417.144C63.44 411.428 56.7056 405.713 49.896 399.927C63.4702 408.871 77.5791 416.782 92.0566 423.557Z" fill="white" fill-opacity="0.44"/>
<path d="M49.0773 399.491C42.3468 396.291 35.9498 392.619 29.9245 388.554C23.3162 382.152 16.6329 375.68 9.90088 369.118C22.282 380.27 35.4124 390.396 49.0773 399.491Z" fill="white" fill-opacity="0.44"/>
<path d="M363.827 127.903C373.573 127.571 383.411 128.042 393.242 129.242C390.705 134.721 387.879 139.828 384.837 144.546C378.292 138.395 371.257 132.816 363.827 127.903Z" fill="white" fill-opacity="0.44"/>
<path d="M385.93 145.562C395.473 147.216 404.943 149.651 414.263 152.821C410.938 157.608 407.411 161.998 403.743 165.986C398.391 158.64 392.414 151.799 385.93 145.562Z" fill="white" fill-opacity="0.44"/>
<path d="M404.603 167.213C413.549 170.777 422.289 175.032 430.715 179.977C426.73 184.019 422.615 187.648 418.44 190.899C414.539 182.581 409.896 174.646 404.603 167.213Z" fill="white" fill-opacity="0.44"/>
<path d="M419.039 192.354C427.031 197.614 434.679 203.522 441.908 210.011C437.384 213.275 432.813 216.15 428.228 218.652C425.965 209.58 422.881 200.759 419.039 192.354Z" fill="white" fill-opacity="0.44"/>
<path d="M428.511 220.232C435.23 226.965 441.499 234.237 447.242 241.98C442.302 244.459 437.358 246.579 432.465 248.382C432.02 238.842 430.688 229.413 428.511 220.232Z" fill="white" fill-opacity="0.44"/>
<path d="M432.455 250.065C437.655 257.955 442.29 266.261 446.366 274.914C441.1 276.621 435.882 278.036 430.771 279.176C432.228 269.462 432.804 259.704 432.455 250.065Z" fill="white" fill-opacity="0.44"/>
<path d="M430.393 280.889C433.867 289.587 436.741 298.577 439.014 307.777C433.511 308.771 428.1 309.502 422.81 310.033C426.25 300.466 428.793 290.697 430.393 280.889Z" fill="white" fill-opacity="0.44"/>
<path d="M422.09 311.722C423.738 320.856 424.766 330.148 425.188 339.505C419.504 339.806 413.952 339.919 408.515 339.88C413.932 330.807 418.496 321.37 422.09 311.722Z" fill="white" fill-opacity="0.44"/>
<path d="M407.458 341.483C407.267 350.657 406.447 359.868 405.038 369.002C399.226 368.675 393.553 368.197 387.986 367.638C395.318 359.385 401.85 350.621 407.458 341.483Z" fill="white" fill-opacity="0.44"/>
<path d="M386.615 369.123C384.651 377.986 382.067 386.731 378.93 395.284C373.021 394.368 367.218 393.37 361.531 392.303C370.668 385.194 379.069 377.436 386.615 369.123Z" fill="white" fill-opacity="0.44"/>
<path d="M359.892 393.591C356.262 401.758 352.084 409.709 347.415 417.357C341.417 415.889 335.509 414.373 329.675 412.842C340.409 407.188 350.522 400.732 359.892 393.591Z" fill="white" fill-opacity="0.44"/>
<path d="M327.768 413.919C322.667 421.088 317.129 427.913 311.191 434.385C305.092 432.376 299.052 430.387 293.075 428.37C305.178 424.431 316.794 419.589 327.768 413.919Z" fill="white" fill-opacity="0.44"/>
<path d="M290.944 429.188C284.659 435.074 278.013 440.576 271.087 445.634C264.886 443.108 258.719 440.599 252.549 438.113C265.746 436.082 278.606 433.095 290.944 429.188Z" fill="white" fill-opacity="0.44"/>
<path d="M250.24 438.574C243.084 442.999 235.673 446.96 228.082 450.441C221.757 447.396 215.445 444.341 209.103 441.33C223.06 441.438 236.833 440.516 250.24 438.574Z" fill="white" fill-opacity="0.44"/>
<path d="M206.672 441.453C198.975 444.271 191.148 446.592 183.254 448.39C176.824 444.769 170.357 441.156 163.836 437.583C178.177 439.948 192.508 441.233 206.672 441.453Z" fill="white" fill-opacity="0.44"/>
<path d="M161.325 437.307C153.459 438.423 145.569 439.07 137.745 439.174C131.203 434.941 124.584 430.746 117.923 426.497C132.256 431.185 146.794 434.797 161.325 437.307Z" fill="white" fill-opacity="0.44"/>
<path d="M115.392 425.806C107.702 425.256 100.134 424.207 92.7342 422.666C86.096 417.787 79.39 412.876 72.5928 407.929C86.5779 414.965 100.886 420.941 115.392 425.806Z" fill="white" fill-opacity="0.44"/>
<path d="M70.1594 406.826C63.0215 404.661 56.1098 402.022 49.4788 398.954C42.8043 393.343 36.0253 387.706 29.2139 381.945C42.3772 391.288 56.0753 399.6 70.1594 406.826Z" fill="white" fill-opacity="0.44"/>
<path d="M354.256 144.25C362.975 144.286 371.732 144.975 380.448 146.294C377.722 150.299 374.822 153.97 371.805 157.327C366.298 152.461 360.417 148.098 354.256 144.25Z" fill="white" fill-opacity="0.44"/>
<path d="M374.2 159.475C382.655 161.31 391.035 163.758 399.241 166.831C395.994 170.215 392.621 173.272 389.194 175.986C384.64 170.025 379.611 164.517 374.2 159.475Z" fill="white" fill-opacity="0.44"/>
<path d="M391.132 178.625C398.981 182.141 406.626 186.241 413.988 190.879C410.308 193.619 406.581 196.053 402.836 198.162C399.486 191.295 395.557 184.747 391.132 178.625Z" fill="white" fill-opacity="0.44"/>
<path d="M404.219 201.28C411.138 206.303 417.727 211.857 423.962 217.855C419.941 219.963 415.909 221.783 411.945 223.336C410.019 215.71 407.428 208.32 404.219 201.28Z" fill="white" fill-opacity="0.44"/>
<path d="M412.691 226.764C418.397 233.064 423.702 239.803 428.556 246.89C424.263 248.4 420.036 249.667 415.865 250.678C415.507 242.563 414.443 234.547 412.691 226.764Z" fill="white" fill-opacity="0.44"/>
<path d="M415.88 254.353C420.149 261.641 423.971 269.255 427.257 277.134C422.767 278.092 418.356 278.797 414.033 279.37C415.407 270.998 416.015 262.622 415.88 254.353Z" fill="white" fill-opacity="0.44"/>
<path d="M413.29 283.12C415.971 291.067 418.144 299.235 419.797 307.551C415.143 307.974 410.594 308.23 406.133 308.354C409.26 300.052 411.662 291.607 413.29 283.12Z" fill="white" fill-opacity="0.44"/>
<path d="M404.542 312.087C405.542 320.357 406.002 328.725 405.992 337.115C401.196 337.028 396.492 336.869 391.898 336.604C396.873 328.683 401.092 320.471 404.542 312.087Z" fill="white" fill-opacity="0.44"/>
<path d="M389.524 340.169C388.851 348.393 387.651 356.62 385.96 364.734C381.023 364.221 376.178 363.636 371.423 363.003C378.173 355.777 384.242 348.138 389.524 340.169Z" fill="white" fill-opacity="0.44"/>
<path d="M368.268 366.258C365.986 374.108 363.204 381.833 359.964 389.378C354.885 388.438 349.869 387.471 344.93 386.466C353.368 380.26 361.189 373.505 368.268 366.258Z" fill="white" fill-opacity="0.44"/>
<path d="M341.045 389.288C337.279 396.429 333.061 403.343 328.478 410.006C323.223 408.647 318.028 407.284 312.88 405.927C322.837 401.023 332.276 395.451 341.045 389.288Z" fill="white" fill-opacity="0.44"/>
<path d="M308.348 408.186C303.268 414.315 297.883 420.187 292.159 425.704C286.728 423.926 281.321 422.151 275.934 420.403C287.208 417.064 298.047 412.972 308.348 408.186Z" fill="white" fill-opacity="0.44"/>
<path d="M270.835 421.963C264.765 426.892 258.415 431.462 251.84 435.63C246.203 433.393 240.576 431.17 234.92 428.992C247.225 427.48 259.251 425.116 270.835 421.963Z" fill="white" fill-opacity="0.44"/>
<path d="M229.361 429.751C222.545 433.273 215.564 436.389 208.454 439.094C202.616 436.377 196.742 433.667 190.83 430.964C203.874 431.457 216.767 431.043 229.361 429.751Z" fill="white" fill-opacity="0.44"/>
<path d="M184.965 430.846C177.744 432.827 170.463 434.429 163.143 435.57C157.089 432.298 150.999 429.034 144.838 425.76C158.257 428.388 171.676 430.057 184.965 430.846Z" fill="white" fill-opacity="0.44"/>
<path d="M138.81 424.667C131.521 425.104 124.261 425.114 117.067 424.689C110.841 420.809 104.534 416.907 98.1724 412.961C111.609 417.807 125.21 421.716 138.81 424.667Z" fill="white" fill-opacity="0.44"/>
<path d="M92.1663 410.845C85.1452 409.736 78.2504 408.189 71.5466 406.259C65.1835 401.681 58.7556 397.046 52.2363 392.375C65.264 399.488 78.6132 405.65 92.1663 410.845Z" fill="white" fill-opacity="0.44"/>
<path d="M46.4032 389.256C39.9768 386.67 33.7811 383.67 27.8544 380.335C21.4212 375.007 14.9423 369.566 8.36475 364.052C20.609 373.358 33.3204 381.791 46.4032 389.256Z" fill="white" fill-opacity="0.44"/>
<path d="M324.263 147.999C331.471 146.819 338.789 146.108 346.132 145.869C344.015 148.913 341.75 151.711 339.383 154.267C334.475 151.791 329.422 149.704 324.263 147.999Z" fill="white" fill-opacity="0.44"/>
<path d="M344.458 156.925C351.688 157.282 358.919 158.106 366.095 159.379C363.598 161.929 361.012 164.228 358.371 166.291C353.937 162.812 349.281 159.676 344.458 156.925Z" fill="white" fill-opacity="0.44"/>
<path d="M362.886 170.026C369.817 171.889 376.671 174.174 383.375 176.894C380.571 178.935 377.746 180.758 374.89 182.349C371.2 177.915 367.171 173.807 362.886 170.026Z" fill="white" fill-opacity="0.44"/>
<path d="M378.632 187.117C384.98 190.365 391.158 194.021 397.134 198.045C394.101 199.625 391.071 200.988 388.078 202.154C385.311 196.86 382.14 191.837 378.632 187.117Z" fill="white" fill-opacity="0.44"/>
<path d="M390.774 207.805C396.274 212.282 401.539 217.111 406.514 222.25C403.309 223.387 400.138 224.349 397.013 225.126C395.373 219.155 393.279 213.363 390.774 207.805Z" fill="white" fill-opacity="0.44"/>
<path d="M398.479 231.521C402.907 237.019 407.025 242.8 410.815 248.813C407.468 249.549 404.176 250.136 400.948 250.589C400.627 244.107 399.805 237.715 398.479 231.521Z" fill="white" fill-opacity="0.44"/>
<path d="M401.012 257.491C404.174 263.76 407.024 270.229 409.471 276.86C406.001 277.221 402.59 277.494 399.264 277.658C400.379 270.894 400.976 264.145 401.012 257.491Z" fill="white" fill-opacity="0.44"/>
<path d="M397.782 284.799C399.58 291.552 401.027 298.428 402.059 305.369C398.458 305.425 394.938 305.397 391.488 305.293C394.147 298.547 396.245 291.68 397.782 284.799Z" fill="white" fill-opacity="0.44"/>
<path d="M388.389 312.436C388.763 319.378 388.75 326.342 388.377 333.307C384.643 333.059 380.976 332.759 377.382 332.446C381.591 325.97 385.287 319.272 388.389 312.436Z" fill="white" fill-opacity="0.44"/>
<path d="M372.628 339.286C371.567 346.104 370.174 352.88 368.397 359.569C364.491 359.046 360.662 358.486 356.878 357.956C362.653 352.017 367.913 345.771 372.628 339.286Z" fill="white" fill-opacity="0.44"/>
<path d="M350.496 364.16C348.093 370.568 345.344 376.858 342.314 383.003C338.226 382.193 334.185 381.389 330.166 380.612C337.423 375.511 344.215 370.001 350.496 364.16Z" fill="white" fill-opacity="0.44"/>
<path d="M322.272 385.925C318.668 391.66 314.751 397.209 310.571 402.556C306.266 401.466 301.988 400.355 297.701 399.315C306.301 395.289 314.523 390.83 322.272 385.925Z" fill="white" fill-opacity="0.44"/>
<path d="M288.433 403.407C283.79 408.236 278.904 412.806 273.807 417.133C269.244 415.708 264.691 414.297 260.135 412.91C269.915 410.3 279.371 407.107 288.433 403.407Z" fill="white" fill-opacity="0.44"/>
<path d="M249.693 415.573C244.241 419.299 238.612 422.714 232.856 425.885C228.042 424.08 223.215 422.286 218.337 420.509C229.031 419.495 239.507 417.817 249.693 415.573Z" fill="white" fill-opacity="0.44"/>
<path d="M206.961 421.486C200.96 423.951 194.874 426.141 188.708 428.008C183.639 425.764 178.51 423.523 173.358 421.279C184.69 422.029 195.929 422.082 206.961 421.486Z" fill="white" fill-opacity="0.44"/>
<path d="M161.334 420.385C155.067 421.543 148.794 422.366 142.509 422.899C137.198 420.12 131.8 417.366 126.384 414.561C138.062 417.213 149.743 419.158 161.334 420.385Z" fill="white" fill-opacity="0.44"/>
<path d="M114.088 411.669C107.86 411.478 101.686 410.947 95.595 410.139C90.0714 406.783 84.4799 403.393 78.834 399.961C90.4877 404.585 102.269 408.472 114.088 411.669Z" fill="white" fill-opacity="0.44"/>
<path d="M66.6029 394.947C60.7028 393.399 54.9189 391.589 49.3039 389.479C43.6269 385.458 37.9013 381.346 32.1182 377.214C43.3752 383.821 54.8952 389.755 66.6029 394.947Z" fill="white" fill-opacity="0.44"/>
<path d="M315.689 158.962C321.186 158.337 326.719 158.004 332.267 157.938C330.465 159.609 328.62 161.143 326.722 162.525C323.097 161.105 319.419 159.917 315.689 158.962Z" fill="white" fill-opacity="0.44"/>
<path d="M334.719 166.024C340.174 166.581 345.594 167.42 350.985 168.496C349.012 169.808 347.007 170.996 345.01 172.03C341.678 169.809 338.237 167.802 334.719 166.024Z" fill="white" fill-opacity="0.44"/>
<path d="M352.22 177.376C357.387 179.069 362.474 181.015 367.471 183.2C365.373 184.184 363.29 185.049 361.211 185.783C358.375 182.779 355.371 179.967 352.22 177.376Z" fill="white" fill-opacity="0.44"/>
<path d="M367.222 192.897C371.874 195.623 376.412 198.586 380.804 201.768C378.625 202.453 376.457 203.044 374.338 203.533C372.179 199.816 369.811 196.239 367.222 192.897Z" fill="white" fill-opacity="0.44"/>
<path d="M378.739 212.196C382.679 215.834 386.475 219.669 390.082 223.67C387.838 224.107 385.616 224.463 383.44 224.741C382.133 220.43 380.572 216.229 378.739 212.196Z" fill="white" fill-opacity="0.44"/>
<path d="M385.844 234.716C388.916 239.091 391.802 243.61 394.479 248.269C392.164 248.505 389.884 248.65 387.656 248.754C387.351 243.986 386.748 239.299 385.844 234.716Z" fill="white" fill-opacity="0.44"/>
<path d="M387.732 259.656C389.807 264.55 391.663 269.571 393.308 274.649C390.907 274.694 388.559 274.699 386.241 274.66C387.079 269.643 387.558 264.628 387.732 259.656Z" fill="white" fill-opacity="0.44"/>
<path d="M383.728 286.075C384.735 291.287 385.497 296.54 386.038 301.835C383.535 301.724 381.072 301.582 378.646 301.433C380.677 296.366 382.371 291.218 383.728 286.075Z" fill="white" fill-opacity="0.44"/>
<path d="M373.376 312.883C373.261 318.155 372.928 323.447 372.358 328.708C369.714 328.471 367.11 328.203 364.542 327.927C367.815 323.007 370.776 317.987 373.376 312.883Z" fill="white" fill-opacity="0.44"/>
<path d="M356.458 338.842C355.247 343.962 353.849 349.035 352.209 354.039C349.392 353.635 346.609 353.248 343.839 352.85C348.369 348.343 352.573 343.661 356.458 338.842Z" fill="white" fill-opacity="0.44"/>
<path d="M332.975 362.743C330.732 367.468 328.343 372.113 325.74 376.647C322.714 376.084 319.7 375.51 316.694 374.973C322.417 371.123 327.856 367.044 332.975 362.743Z" fill="white" fill-opacity="0.44"/>
<path d="M303.236 383.295C300.128 387.45 296.801 391.433 293.379 395.319C290.116 394.533 286.847 393.794 283.579 393.055C290.378 390.102 296.949 386.855 303.236 383.295Z" fill="white" fill-opacity="0.44"/>
<path d="M267.746 399.327C263.86 402.696 259.86 405.918 255.75 408.969C252.228 407.957 248.682 406.942 245.133 405.95C252.877 404.082 260.422 401.875 267.746 399.327Z" fill="white" fill-opacity="0.44"/>
<path d="M227.301 409.679C222.869 412.147 218.34 414.434 213.757 416.57C209.962 415.259 206.149 413.897 202.293 412.59C210.763 411.993 219.111 411.02 227.301 409.679Z" fill="white" fill-opacity="0.44"/>
<path d="M182.897 413.376C178.113 414.837 173.289 416.137 168.43 417.228C164.374 415.523 160.284 413.802 156.158 412.088C165.15 412.94 174.088 413.364 182.897 413.376Z" fill="white" fill-opacity="0.44"/>
<path d="M135.764 409.615C130.859 410.04 125.943 410.26 121.061 410.305C116.764 408.151 112.446 405.969 108.071 403.768C117.309 406.173 126.545 408.111 135.764 409.615Z" fill="white" fill-opacity="0.44"/>
<path d="M87.2705 397.802C82.463 397.174 77.7053 396.337 73.0153 395.341C68.5358 392.648 64.0224 389.939 59.4648 387.2C68.6464 391.178 77.9307 394.714 87.2705 397.802Z" fill="white" fill-opacity="0.44"/>
<path d="M38.912 377.59C34.4407 375.917 30.0604 374.088 25.7978 372.083C21.1925 368.788 16.5666 365.466 11.8994 362.092C20.7294 367.698 29.7561 372.875 38.912 377.59Z" fill="white" fill-opacity="0.44"/>
<path d="M288.278 165.117C291.696 164.16 295.147 163.326 298.634 162.594C297.492 163.477 296.346 164.299 295.185 165.047C292.879 164.974 290.571 165.009 288.278 165.117Z" fill="white" fill-opacity="0.44"/>
<path d="M307.056 166.249C310.557 166.058 314.056 165.976 317.578 166.004C316.382 166.651 315.179 167.262 313.962 167.798C311.677 167.176 309.367 166.658 307.056 166.249Z" fill="white" fill-opacity="0.44"/>
<path d="M325.511 171.8C328.929 172.354 332.332 173.026 335.734 173.806C334.502 174.268 333.266 174.67 332.036 175.025C329.894 173.846 327.717 172.759 325.511 171.8Z" fill="white" fill-opacity="0.44"/>
<path d="M342.597 181.9C345.791 183.179 348.949 184.55 352.058 186.021C350.801 186.312 349.573 186.559 348.338 186.769C346.493 185.043 344.563 183.426 342.597 181.9Z" fill="white" fill-opacity="0.44"/>
<path d="M357.216 196.399C360.039 198.323 362.804 200.335 365.523 202.425C364.271 202.585 363.012 202.708 361.792 202.8C360.346 200.577 358.827 198.452 357.216 196.399Z" fill="white" fill-opacity="0.44"/>
<path d="M368.294 214.931C370.631 217.402 372.885 219.958 375.074 222.565C373.797 222.637 372.539 222.653 371.304 222.671C370.414 220.018 369.404 217.457 368.294 214.931Z" fill="white" fill-opacity="0.44"/>
<path d="M374.816 236.881C376.561 239.79 378.217 242.748 379.783 245.753C378.48 245.739 377.19 245.714 375.917 245.655C375.675 242.691 375.308 239.758 374.816 236.881Z" fill="white" fill-opacity="0.44"/>
<path d="M375.898 261.383C376.961 264.588 377.948 267.831 378.837 271.085C377.469 271.015 376.124 270.947 374.805 270.858C375.308 267.678 375.676 264.516 375.898 261.383Z" fill="white" fill-opacity="0.44"/>
<path d="M370.834 287.391C371.198 290.734 371.475 294.102 371.644 297.468C370.197 297.351 368.759 297.247 367.349 297.122C368.661 293.89 369.818 290.65 370.834 287.391Z" fill="white" fill-opacity="0.44"/>
<path d="M359.138 313.728C358.783 317.075 358.346 320.4 357.802 323.723C356.238 323.566 354.675 323.41 353.125 323.244C355.263 320.117 357.277 316.939 359.138 313.728Z" fill="white" fill-opacity="0.44"/>
<path d="M340.573 339.07C339.517 342.256 338.371 345.406 337.166 348.537C335.456 348.301 333.729 348.1 332.015 347.888C335.022 345.029 337.882 342.091 340.573 339.07Z" fill="white" fill-opacity="0.44"/>
<path d="M315.225 362.076C313.534 364.965 311.778 367.797 309.944 370.582C308.049 370.275 306.145 369.954 304.248 369.671C308.031 367.235 311.694 364.701 315.225 362.076Z" fill="white" fill-opacity="0.44"/>
<path d="M283.434 381.404C281.197 383.861 278.884 386.247 276.53 388.581C274.425 388.138 272.317 387.718 270.208 387.299C274.719 385.475 279.13 383.495 283.434 381.404Z" fill="white" fill-opacity="0.44"/>
<path d="M245.804 395.745C243.117 397.674 240.381 399.512 237.617 401.287C235.304 400.685 232.964 400.104 230.628 399.498C235.77 398.382 240.832 397.135 245.804 395.745Z" fill="white" fill-opacity="0.44"/>
<path d="M203.224 403.94C200.231 405.252 197.189 406.473 194.156 407.624C191.619 406.813 189.084 405.978 186.513 405.151C192.142 404.915 197.721 404.504 203.224 403.94Z" fill="white" fill-opacity="0.44"/>
<path d="M156.859 404.963C153.677 405.59 150.504 406.146 147.316 406.629C144.589 405.518 141.826 404.414 139.062 403.31C145.023 404.052 150.949 404.586 156.859 404.963Z" fill="white" fill-opacity="0.44"/>
<path d="M108.022 398.011C104.83 397.965 101.638 397.812 98.4662 397.601C95.5508 396.19 92.6412 394.732 89.6978 393.258C95.7885 395.047 101.892 396.635 108.022 398.011Z" fill="white" fill-opacity="0.44"/>
<path d="M58.2259 382.509C55.1463 381.76 52.1094 380.956 49.1107 380.037C46.0817 378.205 43.0262 376.393 39.9663 374.521C46.0059 377.369 52.0924 380.032 58.2259 382.509Z" fill="white" fill-opacity="0.44"/>
<path d="M279.421 170.492C281.1 170.111 282.773 169.777 284.479 169.46C283.912 169.686 283.333 169.899 282.758 170.087C281.64 170.205 280.532 170.337 279.421 170.492Z" fill="white" fill-opacity="0.44"/>
<path d="M298.038 170.07C299.739 170.077 301.427 170.093 303.12 170.17C302.541 170.299 301.975 170.416 301.411 170.511C300.282 170.339 299.149 170.191 298.038 170.07Z" fill="white" fill-opacity="0.44"/>
<path d="M316.468 174.407C318.111 174.778 319.728 175.168 321.352 175.596C320.795 175.643 320.238 175.69 319.695 175.727C318.627 175.252 317.554 174.825 316.468 174.407Z" fill="white" fill-opacity="0.44"/>
<path d="M333.581 183.636C335.084 184.347 336.572 185.092 338.046 185.847C337.509 185.836 336.958 185.836 336.434 185.816C335.487 185.058 334.547 184.336 333.581 183.636Z" fill="white" fill-opacity="0.44"/>
<path d="M348.138 197.585C349.435 198.603 350.729 199.646 351.986 200.695C351.452 200.661 350.918 200.627 350.41 200.573C349.664 199.554 348.914 198.559 348.138 197.585Z" fill="white" fill-opacity="0.44"/>
<path d="M358.97 215.819C360.02 217.092 361.02 218.383 362.03 219.687C361.499 219.63 360.968 219.572 360.447 219.528C359.981 218.271 359.489 217.035 358.97 215.819Z" fill="white" fill-opacity="0.44"/>
<path d="M364.956 237.673C365.684 239.133 366.41 240.616 367.088 242.093C366.543 242.046 366.002 241.976 365.446 241.915C365.323 240.498 365.153 239.076 364.956 237.673Z" fill="white" fill-opacity="0.44"/>
<path d="M365.165 262.172C365.554 263.768 365.932 265.35 366.284 266.954C365.705 266.89 365.123 266.85 364.544 266.786C364.785 265.236 364.998 263.707 365.165 262.172Z" fill="white" fill-opacity="0.44"/>
<path d="M358.857 288.165C358.907 289.789 358.931 291.435 358.92 293.063C358.28 293.004 357.64 292.944 356.998 292.908C357.638 291.326 358.278 289.743 358.857 288.165Z" fill="white" fill-opacity="0.44"/>
<path d="M345.531 314.318C345.224 315.921 344.893 317.521 344.539 319.118C343.815 319.06 343.101 319.014 342.39 318.946C343.479 317.421 344.51 315.876 345.531 314.318Z" fill="white" fill-opacity="0.44"/>
<path d="M325.031 339.222C324.389 340.722 323.723 342.22 323.037 343.69C322.217 343.619 321.398 343.548 320.582 343.454C322.098 342.067 323.58 340.665 325.031 339.222Z" fill="white" fill-opacity="0.44"/>
<path d="M297.459 361.418C296.514 362.747 295.548 364.05 294.559 365.349C293.624 365.239 292.703 365.119 291.768 365.009C293.713 363.846 295.614 362.654 297.459 361.418Z" fill="white" fill-opacity="0.44"/>
<path d="M263.265 379.452C262.049 380.542 260.847 381.622 259.611 382.684C258.554 382.498 257.494 382.336 256.45 382.14C258.754 381.276 261.026 380.372 263.265 379.452Z" fill="white" fill-opacity="0.44"/>
<path d="M223.202 391.969C221.804 392.795 220.388 393.569 218.972 394.344C217.807 394.072 216.604 393.807 215.428 393.522C218.03 393.046 220.625 392.533 223.202 391.969Z" fill="white" fill-opacity="0.44"/>
<path d="M178.268 397.752C176.733 398.235 175.199 398.718 173.656 399.164C172.364 398.756 171.056 398.381 169.74 397.969C172.595 397.958 175.435 397.874 178.268 397.752Z" fill="white" fill-opacity="0.44"/>
<path d="M129.746 395.766C128.146 395.917 126.561 396.034 124.964 396.16C123.559 395.606 122.14 395.061 120.725 394.493C123.759 394.961 126.761 395.389 129.746 395.766Z" fill="white" fill-opacity="0.44"/>
<path d="M79.1735 385.225C77.6045 385.032 76.0252 384.826 74.4621 384.586C72.9604 383.851 71.4484 383.103 69.9497 382.344C73.0116 383.343 76.1 384.321 79.1735 385.225Z" fill="white" fill-opacity="0.44"/>
<path d="M28.164 365.603C26.6869 365.063 25.2128 364.499 23.749 363.949C22.1935 362.98 20.6248 362.021 19.0562 361.062C22.0828 362.618 25.1153 364.127 28.164 365.603Z" fill="white" fill-opacity="0.44"/>
<path d="M252.129 178.994C252.28 178.941 252.407 178.886 252.547 178.82L252.4 178.849C252.307 178.921 252.23 178.959 252.129 178.994Z" fill="white" fill-opacity="0.44"/>
<path d="M270.072 172.483C270.22 172.454 270.354 172.435 270.502 172.406L270.357 172.412C270.27 172.437 270.173 172.448 270.072 172.483Z" fill="white" fill-opacity="0.44"/>
<path d="M289.083 170.759C289.224 170.777 289.369 170.771 289.523 170.779L289.392 170.774C289.285 170.772 289.19 170.76 289.083 170.759Z" fill="white" fill-opacity="0.44"/>
<path d="M307.981 174.245C308.119 174.286 308.258 174.328 308.397 174.369L308.268 174.341C308.177 174.306 308.072 174.28 307.981 174.245Z" fill="white" fill-opacity="0.44"/>
<path d="M325.439 183.012C325.562 183.088 325.697 183.153 325.809 183.215L325.704 183.19C325.616 183.13 325.528 183.071 325.439 183.012Z" fill="white" fill-opacity="0.44"/>
<path d="M340.151 196.882C340.246 196.978 340.366 197.077 340.461 197.173L340.346 197.135C340.298 197.045 340.213 196.962 340.151 196.882Z" fill="white" fill-opacity="0.44"/>
<path d="M350.805 215.317C350.888 215.423 350.967 215.553 351.049 215.659L350.945 215.634C350.899 215.52 350.854 215.407 350.805 215.317Z" fill="white" fill-opacity="0.44"/>
<path d="M356.223 237.507C356.279 237.633 356.322 237.771 356.377 237.897L356.26 237.882C356.241 237.748 356.232 237.627 356.223 237.507Z" fill="white" fill-opacity="0.44"/>
<path d="M355.391 262.387C355.41 262.521 355.439 262.669 355.458 262.803L355.327 262.798C355.345 262.657 355.363 262.515 355.391 262.387Z" fill="white" fill-opacity="0.44"/>
<path d="M347.588 288.645C347.594 288.789 347.565 288.917 347.558 289.072L347.403 289.064C347.468 288.929 347.533 288.794 347.588 288.645Z" fill="white" fill-opacity="0.44"/>
<path d="M332.352 314.831C332.323 314.959 332.258 315.095 332.24 315.236L332.062 315.225C332.161 315.106 332.25 314.974 332.352 314.831Z" fill="white" fill-opacity="0.44"/>
<path d="M309.569 339.397C309.503 339.532 309.428 339.654 309.366 339.766L309.15 339.762C309.286 339.636 309.422 339.51 309.569 339.397Z" fill="white" fill-opacity="0.44"/>
<path d="M279.443 360.737C279.347 360.833 279.248 360.952 279.162 361.061C279.081 361.038 278.994 361.063 278.913 361.041C279.082 360.931 279.263 360.834 279.443 360.737Z" fill="white" fill-opacity="0.44"/>
<path d="M242.549 377.345C242.443 377.427 242.313 377.507 242.217 377.602C242.122 377.59 242.028 377.578 241.934 377.566C242.134 377.496 242.348 377.415 242.549 377.345Z" fill="white" fill-opacity="0.44"/>
<path d="M199.798 387.814C199.681 387.883 199.541 387.949 199.404 387.991C199.299 387.966 199.195 387.94 199.077 387.925C199.322 387.885 199.553 387.854 199.798 387.814Z" fill="white" fill-opacity="0.44"/>
<path d="M152.334 390.876C152.19 390.882 152.06 390.961 151.915 390.966C151.797 390.951 151.672 390.899 151.557 390.86C151.82 390.87 152.072 390.866 152.334 390.876Z" fill="white" fill-opacity="0.44"/>
<path d="M101.639 385.533C101.494 385.538 101.353 385.52 101.208 385.525C101.083 385.473 100.948 385.408 100.819 385.379C101.089 385.426 101.359 385.473 101.639 385.533Z" fill="white" fill-opacity="0.44"/>
<path d="M49.345 371.009C49.2065 370.967 49.0754 370.962 48.9369 370.921C48.7881 370.865 48.6688 370.766 48.52 370.711C48.797 370.795 49.0813 370.915 49.345 371.009Z" fill="white" fill-opacity="0.44"/>
</svg>
