<svg width="203" height="134" viewBox="0 0 203 134" fill="none" xmlns="http://www.w3.org/2000/svg">
<path d="M0.02824 104.911C0.405439 108.385 5.05591 107.616 8.13306 110.207C11.2152 112.798 8.16284 116.336 15.2254 117.096C19.5731 117.562 19.2704 115.741 23.5933 120.212C27.4 124.148 28.1097 117.656 32.3681 118.684C37.8623 120.009 38.2792 109.189 33.2218 107.085C28.1594 104.981 25.6778 107.929 24.7497 103.382C23.8216 98.8362 20.4119 97.1289 16.0791 98.1463C10.7189 99.402 11.4733 104.092 8.71375 101.511C5.95424 98.9404 -0.478001 100.315 0.02824 104.911Z" fill="#80B2FF"/>
<path d="M39.8574 119.076C24.4121 107.095 6.25192 105.268 6.06828 105.249C5.3784 105.184 5.45781 104.35 6.14769 104.415C6.33133 104.435 24.8588 106.336 40.4877 118.461L39.8574 119.076Z" fill="#005CEA"/>
<path d="M17.7415 92.9896C16.8432 95.2081 19.8955 96.2553 20.908 98.8163C21.9254 101.377 19.2156 103.561 23.2308 106.311C25.7024 108.003 26.7397 104.782 29.0922 107.7C31.4497 110.619 30.2983 111.462 32.3828 112.232C36.0109 113.577 39.8325 107.934 37.4601 105.02C35.0927 102.107 31.8617 103.144 32.7799 100.102C33.698 97.0593 34.0008 95.7689 31.0576 94.9748C27.4147 93.9921 24.9033 96.2156 24.0795 93.7638C23.2506 91.317 18.9277 90.0613 17.7415 92.9896Z" fill="#4D93FF"/>
<path d="M39.8571 119.076L40.4874 118.555C34.9982 106.167 21.692 94.7565 21.5878 94.682C21.1361 94.3793 20.8185 94.8557 21.2701 95.1585C21.3744 95.228 34.4374 106.842 39.8571 119.076Z" fill="#005CEA"/>
<path d="M192.697 46.4352H185.724V37.8242H192.697V46.4352ZM186.096 46.0679H192.33V38.1914H186.096V46.0679Z" fill="#80B2FF"/>
<path d="M191.486 39.3627H188.072V39.8988H191.486V39.3627Z" fill="#0041A6"/>
<path d="M191.486 40.6234H187.059V41.1594H191.486V40.6234Z" fill="#0041A6"/>
<path d="M191.486 41.8791H187.059V42.4151H191.486V41.8791Z" fill="#0041A6"/>
<path d="M191.486 43.1397H187.059V43.6757H191.486V43.1397Z" fill="#0041A6"/>
<path d="M191.486 44.4003H187.059V44.9364H191.486V44.4003Z" fill="#0041A6"/>
<path d="M193.576 39.0203H186.97V47.2641H193.576V39.0203Z" fill="#80B2FF"/>
<path d="M192.544 40.3703H189.129V40.9063H192.544V40.3703Z" fill="#005CEA"/>
<path d="M192.544 41.6309H188.117V42.1669H192.544V41.6309Z" fill="#005CEA"/>
<path d="M192.544 42.8916H188.117V43.4276H192.544V42.8916Z" fill="#005CEA"/>
<path d="M192.544 44.1522H188.117V44.6882H192.544V44.1522Z" fill="#005CEA"/>
<path d="M192.544 45.4128H188.117V45.9489H192.544V45.4128Z" fill="#005CEA"/>
<path d="M155.449 14.0904H154.833V14.552H155.449V14.0904Z" fill="#97C6FF"/>
<path d="M155.449 31.9379H154.833V30.9701H155.449V31.9379ZM155.449 30.0072H154.833V29.0394H155.449V30.0072ZM155.449 28.0716H154.833V27.1038H155.449V28.0716ZM155.449 26.1409H154.833V25.1731H155.449V26.1409ZM155.449 24.2103H154.833V23.2425H155.449V24.2103ZM155.449 22.2796H154.833V21.3118H155.449V22.2796ZM155.449 20.3489H154.833V19.3811H155.449V20.3489ZM155.449 18.4133H154.833V17.4455H155.449V18.4133ZM155.449 16.4826H154.833V15.5148H155.449V16.4826Z" fill="#97C6FF"/>
<path d="M155.449 32.9007H154.833V33.3623H155.449V32.9007Z" fill="#97C6FF"/>
<path d="M150.416 14.0904H149.801V14.552H150.416V14.0904Z" fill="#97C6FF"/>
<path d="M20.6745 55.3838H20.0591V54.4557H20.6745V55.3838ZM20.6844 53.5573L20.069 53.5127C20.0938 53.1851 20.1484 52.8575 20.2378 52.5399L20.8284 52.7086C20.7539 52.9816 20.7043 53.2695 20.6844 53.5573ZM21.151 51.9046L20.605 51.6217C20.7539 51.3289 20.9376 51.0509 21.141 50.7978L21.6225 51.1849C21.4388 51.4083 21.28 51.6515 21.151 51.9046ZM22.223 50.5695L21.8309 50.098C22.084 49.8896 22.357 49.701 22.6449 49.5471L22.9377 50.0881C22.6846 50.2221 22.4464 50.3859 22.223 50.5695ZM23.7318 49.7556L23.5531 49.1649C23.8658 49.0706 24.1934 49.0061 24.521 48.9763L24.5755 49.5918C24.2926 49.6166 24.0097 49.6712 23.7318 49.7556ZM144.892 49.5719H143.964V48.9565H144.892V49.5719ZM143.041 49.5719H142.113V48.9565H143.041V49.5719ZM141.19 49.5719H140.262V48.9565H141.19V49.5719ZM139.333 49.5719H138.41V48.9565H139.333V49.5719ZM137.482 49.5719H136.554V48.9565H137.482V49.5719ZM135.631 49.5719H134.703V48.9565H135.631V49.5719ZM133.78 49.5719H132.852V48.9565H133.78V49.5719ZM131.928 49.5719H131V48.9565H131.928V49.5719ZM130.077 49.5719H129.149V48.9565H130.077V49.5719ZM128.226 49.5719H127.298V48.9565H128.226V49.5719ZM126.375 49.5719H125.452V48.9565H126.375V49.5719ZM124.523 49.5719H123.595V48.9565H124.523V49.5719ZM122.672 49.5719H121.744V48.9565H122.672V49.5719ZM120.821 49.5719H119.893V48.9565H120.821V49.5719ZM118.97 49.5719H118.042V48.9565H118.97V49.5719ZM117.118 49.5719H116.19V48.9565H117.118V49.5719ZM115.267 49.5719H114.344V48.9565H115.267V49.5719ZM113.416 49.5719H112.488V48.9565H113.416V49.5719ZM111.565 49.5719H110.637V48.9565H111.565V49.5719ZM109.713 49.5719H108.785V48.9565H109.713V49.5719ZM107.862 49.5719H106.934V48.9565H107.862V49.5719ZM106.011 49.5719H105.083V48.9565H106.011V49.5719ZM104.16 49.5719H103.231V48.9565H104.16V49.5719ZM102.308 49.5719H101.38V48.9565H102.308V49.5719ZM100.457 49.5719H99.529V48.9565H100.457V49.5719ZM98.6058 49.5719H97.6777V48.9565H98.6058V49.5719ZM96.7546 49.5719H95.8265V48.9565H96.7546V49.5719ZM94.9033 49.5719H93.9752V48.9565H94.9033V49.5719ZM93.0521 49.5719H92.124V48.9565H93.0521V49.5719ZM91.2008 49.5719H90.2727V48.9565H91.2008V49.5719ZM89.3496 49.5719H88.4215V48.9565H89.3496V49.5719ZM87.4983 49.5719H86.5702V48.9565H87.4983V49.5719ZM85.6471 49.5719H84.719V48.9565H85.6471V49.5719ZM83.7958 49.5719H82.8677V48.9565H83.7958V49.5719ZM81.9446 49.5719H81.0165V48.9565H81.9446V49.5719ZM80.0933 49.5719H79.1652V48.9565H80.0933V49.5719ZM78.2421 49.5719H77.3139V48.9565H78.2421V49.5719ZM76.3908 49.5719H75.4627V48.9565H76.3908V49.5719ZM74.5396 49.5719H73.6114V48.9565H74.5396V49.5719ZM72.6883 49.5719H71.7602V48.9565H72.6883V49.5719ZM70.837 49.5719H69.9089V48.9565H70.837V49.5719ZM68.9858 49.5719H68.0577V48.9565H68.9858V49.5719ZM67.1345 49.5719H66.2064V48.9565H67.1345V49.5719ZM65.2833 49.5719H64.3552V48.9565H65.2833V49.5719ZM63.432 49.5719H62.5039V48.9565H63.432V49.5719ZM61.5808 49.5719H60.6527V48.9565H61.5808V49.5719ZM59.7295 49.5719H58.8014V48.9565H59.7295V49.5719ZM57.8783 49.5719H56.9502V48.9565H57.8783V49.5719ZM56.027 49.5719H55.0989V48.9565H56.027V49.5719ZM54.1758 49.5719H53.2476V48.9565H54.1758V49.5719ZM52.3195 49.5719H51.3914V48.9565H52.3195V49.5719ZM50.4683 49.5719H49.5402V48.9565H50.4683V49.5719ZM48.617 49.5719H47.6939V48.9565H48.622V49.5719H48.617ZM46.7658 49.5719H45.8377V48.9565H46.7658V49.5719ZM44.9145 49.5719H43.9864V48.9565H44.9145V49.5719ZM43.0633 49.5719H42.1352V48.9565H43.0633V49.5719ZM41.212 49.5719H40.2839V48.9565H41.212V49.5719ZM39.3608 49.5719H38.4327V48.9565H39.3608V49.5719ZM37.5095 49.5719H36.5814V48.9565H37.5095V49.5719ZM35.6583 49.5719H34.7301V48.9565H35.6583V49.5719ZM33.807 49.5719H32.8789V48.9565H33.807V49.5719ZM31.9557 49.5719H31.0276V48.9565H31.9557V49.5719ZM30.1045 49.5719H29.1813V48.9565H30.1095V49.5719H30.1045ZM28.2532 49.5719H27.3251V48.9565H28.2532V49.5719ZM26.402 49.5719H25.4739V48.9565H26.402V49.5719ZM145.835 49.562L145.79 48.9466C146.078 48.9267 146.366 48.8771 146.639 48.8026L146.803 49.3982C146.49 49.4826 146.168 49.5372 145.835 49.562ZM147.726 49.0359L147.448 48.485C147.706 48.3559 147.949 48.1971 148.173 48.0185L148.555 48.4999C148.297 48.7083 148.019 48.887 147.726 49.0359ZM149.26 47.815L148.788 47.4179C148.972 47.1995 149.136 46.9563 149.275 46.7082L149.816 47.001C149.662 47.2889 149.473 47.5668 149.26 47.815ZM150.198 46.0928L149.607 45.9141C149.692 45.6411 149.746 45.3532 149.776 45.0703L150.391 45.1299C150.362 45.4575 150.297 45.7801 150.198 46.0928ZM150.416 44.172H149.801V43.2439H150.416V44.172ZM150.416 42.3208H149.801V41.3927H150.416V42.3208ZM150.416 40.4695H149.801V39.5414H150.416V40.4695ZM150.416 38.6182H149.801V37.6901H150.416V38.6182ZM150.416 36.767H149.801V35.8389H150.416V36.767ZM150.416 34.9157H149.801V33.9876H150.416V34.9157ZM150.416 33.0645H149.801V32.1364H150.416V33.0645ZM150.416 31.2132H149.801V30.2851H150.416V31.2132ZM150.416 29.362H149.801V28.4388H150.416V29.362ZM150.416 27.5107H149.801V26.5826H150.416V27.5107ZM150.416 25.6595H149.801V24.7314H150.416V25.6595ZM150.416 23.8082H149.801V22.8801H150.416V23.8082ZM150.416 21.957H149.801V21.0289H150.416V21.957ZM150.416 20.1057H149.801V19.1776H150.416V20.1057ZM150.416 18.2545H149.801V17.3264H150.416V18.2545ZM150.416 16.4032H149.801V15.4751H150.416V16.4032Z" fill="#97C6FF"/>
<path d="M20.6696 56.3218H20.0542V56.7834H20.6696V56.3218Z" fill="#97C6FF"/>
<path d="M159.152 14.0904H158.536V14.552H159.152V14.0904Z" fill="#97C6FF"/>
<path d="M159.156 24.1656H158.541V23.2027H159.156V24.1656ZM159.156 22.2399H158.541V21.277H159.156V22.2399ZM159.156 20.3191H158.541V19.3563H159.156V20.3191ZM159.156 18.3984H158.541V17.4355H159.156V18.3984ZM159.156 16.4727H158.541V15.5098H159.156V16.4727Z" fill="#97C6FF"/>
<path d="M159.31 25.8977H158.536V25.1235H159.157V25.2773H159.31V25.8977Z" fill="#97C6FF"/>
<path d="M181.525 53.0709H180.91V52.1528H181.525V53.0709ZM181.525 51.2296H180.91V50.3114H181.525V51.2296ZM181.525 49.3933H180.91V48.4751H181.525V49.3933ZM181.525 47.5569H180.91V46.6387H181.525V47.5569ZM181.525 45.7205H180.91V44.8023H181.525V45.7205ZM181.525 43.8792H180.91V42.961H181.525V43.8792ZM181.525 42.0428H180.91V41.1247H181.525V42.0428ZM181.525 40.2065H180.91V39.2883H181.525V40.2065ZM181.525 38.3651H180.91V37.447H181.525V38.3651ZM181.525 36.5288H180.91V35.6106H181.525V36.5288ZM181.525 34.6924H180.91V33.7742H181.525V34.6924ZM181.525 32.8511H180.91V31.9329H181.525V32.8511ZM181.525 31.0147H180.91V30.0965H181.525V31.0147ZM180.905 29.1883C180.895 28.9054 180.845 28.6274 180.766 28.3594L181.357 28.1857C181.451 28.5034 181.506 28.8309 181.52 29.1635L180.905 29.1883ZM180.433 27.5902C180.29 27.347 180.121 27.1236 179.922 26.9251L180.359 26.4933C180.592 26.7315 180.796 26.9946 180.965 27.2775L180.433 27.5902ZM179.262 26.399C179.024 26.2501 178.766 26.136 178.498 26.0516L178.681 25.4659C178.999 25.5652 179.302 25.7042 179.585 25.8779L179.262 26.399ZM177.669 25.9027C177.604 25.8977 177.535 25.8977 177.47 25.8977H176.771V25.2823H177.47C177.55 25.2823 177.629 25.2823 177.704 25.2873L177.669 25.9027ZM175.848 25.8977H174.929V25.2823H175.848V25.8977ZM174.011 25.8977H173.093V25.2823H174.011V25.8977ZM172.175 25.8977H171.257V25.2823H172.175V25.8977ZM170.333 25.8977H169.415V25.2823H170.333V25.8977ZM168.497 25.8977H167.579V25.2823H168.497V25.8977ZM166.661 25.8977H165.743V25.2823H166.661V25.8977ZM164.819 25.8977H163.901V25.2823H164.819V25.8977ZM162.983 25.8977H162.065V25.2823H162.983V25.8977ZM161.147 25.8977H160.229V25.2823H161.147V25.8977Z" fill="#97C6FF"/>
<path d="M181.526 53.9941H180.91V54.4557H181.526V53.9941Z" fill="#97C6FF"/>
<path d="M150.977 14.0507C150.987 13.8919 150.997 13.733 150.997 13.5742C150.997 10.2042 148.262 7.46954 144.892 7.46954C141.522 7.46954 138.788 10.2042 138.788 13.5742C138.788 13.733 138.798 13.8968 138.807 14.0507H150.977Z" fill="#80B2FF"/>
<path d="M171.033 14.0507C171.043 13.8919 171.053 13.733 171.053 13.5742C171.053 10.2042 168.318 7.46954 164.948 7.46954C161.578 7.46954 158.844 10.2042 158.844 13.5742C158.844 13.733 158.854 13.8968 158.864 14.0507H171.033Z" fill="#80B2FF"/>
<path d="M164.015 14.0507C164.065 13.6784 164.085 13.2963 164.085 12.9141C164.085 7.97578 160.08 3.97052 155.141 3.97052C150.203 3.97052 146.198 7.97578 146.198 12.9141C146.198 13.3012 146.223 13.6784 146.267 14.0507H164.015Z" fill="#80B2FF"/>
<path d="M40.3737 78.4177H33.7926C33.3757 78.4177 33.0332 78.7552 33.0332 79.1771C33.0332 79.594 33.3707 79.9364 33.7926 79.9364H40.3737C40.7906 79.9364 41.1331 79.599 41.1331 79.1771C41.1331 78.7602 40.7906 78.4177 40.3737 78.4177Z" fill="#D1F5FF"/>
<path d="M50.4983 78.4177H43.9122C43.4953 78.4177 43.1528 78.7552 43.1528 79.1771C43.1528 79.594 43.4903 79.9364 43.9122 79.9364H50.4933C50.9102 79.9364 51.2527 79.599 51.2527 79.1771C51.2527 78.7602 50.9152 78.4177 50.4983 78.4177Z" fill="#D1F5FF"/>
<path d="M86.8687 25.6545C87.504 23.1531 87.6082 20.6268 87.2459 18.2197L88.0103 18.1056L89.5191 17.8773L89.5389 17.8723C89.127 15.1177 88.1889 12.4922 86.7794 10.1347L84.7892 11.3209C83.5137 9.19175 81.8311 7.30079 79.7963 5.80688L81.176 3.94074C79.022 2.33268 76.5156 1.11671 73.7511 0.416904L73.1804 2.67017C70.674 2.03489 68.1527 1.93066 65.7456 2.29297L65.3982 0C62.6436 0.411941 60.0132 1.3599 57.6606 2.75951L58.8468 4.74973C56.7176 6.02526 54.8267 7.70777 53.3328 9.74266L51.4666 8.3629C49.8586 10.5169 48.6426 13.0233 47.9428 15.7878L50.1961 16.3585C49.5608 18.8649 49.4565 21.3862 49.8189 23.7933L48.1959 24.0365L47.5358 24.1407H47.5259C47.9378 26.8953 48.8858 29.5258 50.2854 31.8783L52.2756 30.6921C53.5511 32.8213 55.2436 34.7122 57.2785 36.2111L55.8987 38.0773C58.0527 39.6853 60.5492 40.9013 63.3136 41.6011L63.8844 39.3478C66.3908 39.9831 68.917 40.0873 71.3242 39.725L71.5872 41.5068L71.6666 42.018C74.4212 41.6061 77.0417 40.6581 79.3942 39.2535L78.2081 37.2633C80.3372 35.9878 82.2282 34.2953 83.732 32.2605L85.5982 33.6402C87.1963 31.4862 88.4123 28.9848 89.1121 26.2203L86.8687 25.6545ZM66.0086 30.9651C60.5045 29.5704 57.1792 23.9869 58.5738 18.4828C59.9685 12.9886 65.5471 9.66325 71.0512 11.0579C76.5454 12.4525 79.8707 18.0311 78.481 23.5303C77.0864 29.0294 71.5028 32.3548 66.0086 30.9651Z" fill="url(#paint0_linear_97_1882)"/>
<path d="M41.2078 28.5827C40.3641 27.5206 39.3367 26.6719 38.2101 26.0565L38.4037 25.6992L38.7908 24.9944L38.7958 24.9845C37.5103 24.2797 36.1107 23.838 34.6714 23.6742L34.5324 24.8852C33.2321 24.7413 31.9069 24.8455 30.6314 25.2227L30.2889 24.0514C28.929 24.4435 27.6188 25.1036 26.4475 26.0416L27.2118 26.9995C26.1447 27.8482 25.301 28.8706 24.6855 29.9972L23.6135 29.4116C22.9087 30.697 22.467 32.1016 22.3032 33.536L23.5142 33.6749C23.3703 34.9753 23.4745 36.3004 23.8517 37.576L22.6804 37.9184C23.0725 39.2783 23.7326 40.5886 24.6706 41.7599L25.6285 40.9956C26.4772 42.0627 27.4996 42.9064 28.6263 43.5218L28.2094 44.2812L28.0406 44.5939L28.0357 44.5988C29.3211 45.3036 30.7257 45.7453 32.16 45.9091L32.299 44.6981C33.5993 44.842 34.9295 44.7378 36.205 44.3606L36.5475 45.5319C37.9074 45.1398 39.2127 44.4797 40.3889 43.5466L39.6246 42.5887C40.6917 41.74 41.5404 40.7127 42.1558 39.591L42.9896 40.0476L43.2278 40.1767C43.9326 38.8912 44.3694 37.4916 44.5332 36.0572L43.3222 35.9183C43.4661 34.6179 43.3619 33.2878 42.9847 32.0073L44.156 31.6649C43.7639 30.3099 43.1038 29.0046 42.1657 27.8283L41.2078 28.5827ZM36.7906 39.0153C34.453 40.8765 31.0533 40.4943 29.1921 38.1567C27.3309 35.824 27.718 32.4242 30.0557 30.5581C32.3883 28.6969 35.7881 29.084 37.6493 31.4167C39.5105 33.7593 39.1233 37.1591 36.7906 39.0153Z" fill="url(#paint1_linear_97_1882)"/>
<path d="M191.601 103.462C190.623 102.236 189.442 101.258 188.147 100.548L188.37 100.137L188.817 99.3226L188.822 99.3126C187.338 98.4987 185.72 97.9875 184.062 97.8038L183.903 99.2034C182.404 99.0397 180.871 99.1588 179.397 99.5906L179 98.2356C177.431 98.6873 175.923 99.4516 174.563 100.529L175.441 101.635C174.21 102.613 173.238 103.794 172.528 105.09L171.292 104.415C170.478 105.899 169.972 107.517 169.783 109.174L171.183 109.333C171.019 110.832 171.138 112.366 171.57 113.84L170.215 114.237C170.667 115.805 171.431 117.314 172.508 118.674L173.615 117.795C174.592 119.026 175.774 119.999 177.069 120.709L176.588 121.582L176.394 121.94L176.389 121.945C177.873 122.759 179.491 123.265 181.149 123.453L181.308 122.054C182.807 122.218 184.345 122.098 185.814 121.662L186.211 123.017C187.78 122.565 189.288 121.806 190.643 120.724L189.765 119.617C190.996 118.639 191.973 117.453 192.683 116.158L193.641 116.684L193.919 116.833C194.733 115.349 195.239 113.731 195.423 112.078L194.023 111.919C194.187 110.42 194.068 108.882 193.636 107.408L194.991 107.01C194.534 105.442 193.775 103.938 192.693 102.583L191.601 103.462ZM186.499 115.507C183.799 117.656 179.878 117.21 177.729 114.515C175.585 111.82 176.027 107.899 178.727 105.75C181.422 103.606 185.343 104.047 187.492 106.742C189.636 109.437 189.194 113.358 186.499 115.507Z" fill="url(#paint2_linear_97_1882)"/>
<path d="M191.804 134H17.9747C17.404 134 16.9424 133.538 16.9424 132.968C16.9424 132.397 17.404 131.935 17.9747 131.935H191.804C192.375 131.935 192.836 132.397 192.836 132.968C192.831 133.538 192.37 134 191.804 134Z" fill="#003C99"/>
<path d="M171.411 126.709H39.4161C35.4655 126.709 32.2593 123.508 32.2593 119.552V40.4894C32.2593 36.5387 35.4605 33.3325 39.4161 33.3325H171.416C175.367 33.3325 178.573 36.5337 178.573 40.4894V119.552C178.568 123.503 175.367 126.709 171.411 126.709Z" fill="#B3D1FF"/>
<path d="M32.8896 120.252V39.7896C32.8896 36.5734 35.5003 33.9628 38.7164 33.9628H172.111C175.327 33.9628 177.938 36.5734 177.938 39.7896V120.247C177.938 123.463 175.327 126.074 172.111 126.074H38.7164C35.5003 126.079 32.8896 123.468 32.8896 120.252Z" fill="black"/>
<path d="M173.779 37.1094H37.2026V122.5H173.779V37.1094Z" fill="#C9D5F4"/>
<path d="M188.574 126.709V128.982C188.574 129.096 188.569 129.216 188.554 129.325C188.385 130.799 187.134 131.94 185.616 131.94H23.3257C21.807 131.94 20.5563 130.799 20.3875 129.325C20.3726 129.211 20.3677 129.096 20.3677 128.982V126.709H188.574Z" fill="#599AFF"/>
<path d="M188.554 129.325C188.385 130.799 187.135 131.94 185.616 131.94H23.3259C21.8072 131.94 20.5564 130.799 20.3877 129.325H188.554Z" fill="#406EFF"/>
<path d="M139.587 106.519H72.2472C67.8945 106.519 64.3657 102.99 64.3657 98.6376V63.1014C64.3657 58.7488 67.8945 55.22 72.2472 55.22H139.587C143.94 55.22 147.469 58.7488 147.469 63.1014V98.6376C147.469 102.99 143.94 106.519 139.587 106.519Z" fill="#406EFF"/>
<path d="M118.513 93.2128H106.304C105.271 93.2128 104.428 92.3691 104.428 91.3368C104.428 90.3044 105.271 89.4607 106.304 89.4607H118.513C119.545 89.4607 120.389 90.3044 120.389 91.3368C120.389 92.3691 119.545 93.2128 118.513 93.2128Z" fill="#CBCBFF"/>
<path d="M127.378 78.249H100.74C99.708 78.249 98.8643 77.4052 98.8643 76.3729C98.8643 75.3406 99.708 74.4968 100.74 74.4968H127.378C128.41 74.4968 129.254 75.3406 129.254 76.3729C129.254 77.4003 128.41 78.249 127.378 78.249Z" fill="white"/>
<path d="M127.378 85.3165H100.74C99.708 85.3165 98.8643 84.4728 98.8643 83.4405C98.8643 82.4081 99.708 81.5644 100.74 81.5644H127.378C128.41 81.5644 129.254 82.4081 129.254 83.4405C129.254 84.4728 128.41 85.3165 127.378 85.3165Z" fill="white"/>
<path d="M105.247 83.6042C105.247 83.9715 104.949 84.2643 104.587 84.2643C104.225 84.2643 103.927 83.9665 103.927 83.6042C103.927 83.2369 104.225 82.9441 104.587 82.9441C104.949 82.9441 105.247 83.2419 105.247 83.6042Z" fill="#80B2FF"/>
<path d="M107.515 83.6042C107.515 83.9715 107.217 84.2643 106.855 84.2643C106.493 84.2643 106.195 83.9665 106.195 83.6042C106.195 83.2369 106.493 82.9441 106.855 82.9441C107.217 82.9441 107.515 83.2419 107.515 83.6042Z" fill="#80B2FF"/>
<path d="M109.778 83.6042C109.778 83.9715 109.48 84.2643 109.118 84.2643C108.756 84.2643 108.458 83.9665 108.458 83.6042C108.458 83.2369 108.756 82.9441 109.118 82.9441C109.48 82.9441 109.778 83.2419 109.778 83.6042Z" fill="#80B2FF"/>
<path d="M112.047 83.6042C112.047 83.9715 111.749 84.2643 111.387 84.2643C111.024 84.2643 110.727 83.9665 110.727 83.6042C110.727 83.2369 111.024 82.9441 111.387 82.9441C111.749 82.9441 112.047 83.2419 112.047 83.6042Z" fill="#80B2FF"/>
<path d="M114.315 83.6042C114.315 83.9715 114.017 84.2643 113.655 84.2643C113.287 84.2643 112.995 83.9665 112.995 83.6042C112.995 83.2369 113.292 82.9441 113.655 82.9441C114.017 82.9441 114.315 83.2419 114.315 83.6042Z" fill="#80B2FF"/>
<path d="M116.583 83.6042C116.583 83.9715 116.285 84.2643 115.923 84.2643C115.556 84.2643 115.263 83.9665 115.263 83.6042C115.263 83.2369 115.56 82.9441 115.923 82.9441C116.285 82.9441 116.583 83.2419 116.583 83.6042Z" fill="#80B2FF"/>
<path d="M118.846 83.6042C118.846 83.9715 118.548 84.2643 118.186 84.2643C117.819 84.2643 117.526 83.9665 117.526 83.6042C117.526 83.2369 117.824 82.9441 118.186 82.9441C118.553 82.9441 118.846 83.2419 118.846 83.6042Z" fill="#80B2FF"/>
<path d="M121.114 83.6042C121.114 83.9715 120.816 84.2643 120.454 84.2643C120.087 84.2643 119.794 83.9665 119.794 83.6042C119.794 83.2369 120.092 82.9441 120.454 82.9441C120.821 82.9441 121.114 83.2419 121.114 83.6042Z" fill="#80B2FF"/>
<path d="M123.382 83.6042C123.382 83.9715 123.084 84.2643 122.722 84.2643C122.355 84.2643 122.062 83.9665 122.062 83.6042C122.062 83.2369 122.36 82.9441 122.722 82.9441C123.084 82.9441 123.382 83.2419 123.382 83.6042Z" fill="#80B2FF"/>
<path d="M113.237 70.2087C115.403 70.2087 117.158 68.4532 117.158 66.2878C117.158 64.1223 115.403 62.3669 113.237 62.3669C111.072 62.3669 109.316 64.1223 109.316 66.2878C109.316 68.4532 111.072 70.2087 113.237 70.2087Z" fill="white"/>
<path d="M113.243 66.1289C113.625 66.1289 113.977 65.9403 114.206 65.6574C114.374 65.4489 114.469 65.1859 114.469 64.8931C114.469 64.2131 113.918 63.6572 113.243 63.6572C112.553 63.6572 112.007 64.2181 112.007 64.8931C112.007 65.1859 112.106 65.4539 112.27 65.6574C112.498 65.9403 112.851 66.1289 113.243 66.1289Z" fill="#005CEA"/>
<path d="M115.416 68.3325C115.416 69.1117 111.054 69.1117 111.054 68.3325V67.4243C111.227 66.1785 115.059 66.1289 115.416 67.4243V68.3325Z" fill="#005CEA"/>
<path d="M104.77 83.093V82.9937C104.77 82.5867 104.437 82.2542 104.03 82.2542C103.623 82.2542 103.291 82.5867 103.291 82.9937V83.093H103.177V84.4231C103.177 84.6514 104.884 84.6514 104.884 84.4231V83.093H104.77ZM103.554 82.9937C103.554 82.7356 103.713 82.5073 104.03 82.5073C104.348 82.5073 104.512 82.7257 104.512 82.9937V83.093H103.554V82.9937ZM104.154 83.763V84.1501C104.154 84.2196 104.095 84.2692 104.025 84.2692C103.956 84.2692 103.906 84.2196 103.906 84.1501V83.763C103.837 83.7233 103.787 83.6538 103.787 83.5645C103.787 83.4354 103.896 83.3263 104.025 83.3263C104.155 83.3263 104.264 83.4354 104.264 83.5645C104.264 83.6538 104.214 83.7233 104.154 83.763Z" fill="#4D4D4D"/>
<path d="M101.569 76.2339C101.718 76.2339 101.857 76.1595 101.947 76.0503C102.011 75.9709 102.051 75.8666 102.051 75.7525C102.051 75.4894 101.837 75.2711 101.569 75.2711C101.301 75.2711 101.088 75.4894 101.088 75.7525C101.088 75.8666 101.128 75.9709 101.192 76.0503C101.276 76.1595 101.415 76.2339 101.569 76.2339Z" fill="#4D4D4D"/>
<path d="M102.418 77.0925C102.418 77.3953 100.706 77.3953 100.706 77.0925L100.715 76.7352C100.785 76.2488 102.279 76.2289 102.418 76.7352V77.0925Z" fill="#4D4D4D"/>
<path d="M111.391 76.9188H104.473C104.17 76.9188 103.922 76.6707 103.922 76.3679C103.922 76.0652 104.17 75.817 104.473 75.817H111.391C111.694 75.817 111.942 76.0652 111.942 76.3679C111.942 76.6707 111.694 76.9188 111.391 76.9188Z" fill="#80B2FF"/>
<path d="M107.103 72.8987H100.422C100.12 72.8987 99.8716 72.6505 99.8716 72.3478C99.8716 72.045 100.12 71.7969 100.422 71.7969H107.103C107.406 71.7969 107.654 72.045 107.654 72.3478C107.654 72.6505 107.406 72.8987 107.103 72.8987Z" fill="#80B2FF"/>
<path d="M120.513 76.9188H113.595C113.292 76.9188 113.044 76.6707 113.044 76.3679C113.044 76.0652 113.292 75.817 113.595 75.817H120.513C120.816 75.817 121.064 76.0652 121.064 76.3679C121.069 76.6707 120.821 76.9188 120.513 76.9188Z" fill="#80B2FF"/>
<path d="M78.0088 76.1248V85.8674C78.0088 86.9494 91.2554 86.9494 91.2554 85.8674V76.1248H78.0088Z" fill="white"/>
<path d="M84.6295 81.4403C85.5341 81.4403 86.2674 80.707 86.2674 79.8024C86.2674 78.8979 85.5341 78.1646 84.6295 78.1646C83.725 78.1646 82.9917 78.8979 82.9917 79.8024C82.9917 80.707 83.725 81.4403 84.6295 81.4403Z" fill="#005CEA"/>
<path d="M84.6295 84.726C84.2573 84.726 83.9595 84.4282 83.9595 84.056V80.3038H85.2995V84.056C85.2995 84.4282 85.0017 84.726 84.6295 84.726Z" fill="#005CEA"/>
<path d="M90.0939 75.4299H88.7538V74.7748C88.7538 72.5017 86.9026 70.6504 84.6295 70.6504C82.3563 70.6504 80.5051 72.5017 80.5051 74.7748V75.4299H79.165V74.7748C79.165 71.7622 81.6168 69.3104 84.6295 69.3104C87.6421 69.3104 90.0939 71.7622 90.0939 74.7748V75.4299Z" fill="white"/>
<path d="M141.607 75.5886L142.243 78.1347L142.357 78.6062C142.486 79.2068 146.456 78.9536 146.174 78.2489L145.935 77.7327L144.714 75.0526L141.607 75.5886Z" fill="#F7A58E"/>
<path d="M139.284 71.8118C139.244 74.5713 140.525 76.8147 142.53 76.8047C144.535 76.7948 146.476 75.0925 146.545 71.7771C146.59 69.6628 144.902 67.9554 142.897 67.9654C140.892 67.9753 139.314 69.6975 139.284 71.8118Z" fill="#F7A58E"/>
<path d="M142.833 67.2059C142.833 67.2059 138.838 67.4045 138.505 70.427C138.063 73.0823 140.054 71.1318 140.868 72.9136C141.801 74.9534 140.848 76.4473 139.637 76.8543C140.714 78.3581 146.868 78.3035 148.451 75.6681C149.538 72.3626 148.005 67.3896 142.833 67.2059Z" fill="black"/>
<path d="M140.773 73.6135C141.184 73.6135 141.518 73.2801 141.518 72.869C141.518 72.4578 141.184 72.1245 140.773 72.1245C140.362 72.1245 140.029 72.4578 140.029 72.869C140.029 73.2801 140.362 73.6135 140.773 73.6135Z" fill="#F7A58E"/>
<path d="M140.644 124.148C140.455 123.95 139.572 123.945 139.493 124.242C139.413 124.535 139.567 124.744 139.195 125.21C139.408 125.27 140.173 125.28 140.401 125.21C140.639 125.141 140.833 124.347 140.644 124.148Z" fill="white"/>
<path d="M142.104 125.151H139.95C139.746 116.043 139.786 106.127 139.86 98.6623C139.885 95.9872 139.959 94.6372 140.446 93.0292C141.424 89.7882 146.029 90.7858 146.357 93.724C146.491 95.3569 146.595 98.5383 143.578 109.343C144.888 114.103 142.61 119.81 142.104 125.151Z" fill="url(#paint3_linear_97_1882)"/>
<path d="M138.749 125.29C139.066 125.275 139.806 124.967 139.945 124.759C140.148 124.987 140.58 125.051 141.096 124.977C141.707 124.888 141.786 124.6 142.228 124.639C142.411 125.151 142.863 126.307 142.426 126.575C142.426 126.575 139.86 126.575 137.9 126.575C137.498 126.198 137.508 125.414 138.749 125.29Z" fill="white"/>
<path d="M151.603 124.376C151.444 124.208 150.705 124.208 150.635 124.456C150.566 124.704 150.7 124.878 150.387 125.27C150.566 125.319 151.206 125.324 151.405 125.27C151.598 125.21 151.762 124.545 151.603 124.376Z" fill="white"/>
<path d="M144.51 93.6396C144.952 90.2796 150.923 90.627 151.32 93.5602C151.464 95.1385 151.9 97.5109 150.779 109.229C153.146 113.701 152.476 120.118 153.186 124.843C153.265 125.563 151.23 125.736 151.072 125.096C148.903 116.331 145.87 106.499 144.744 99.2083C144.332 96.5629 144.292 95.3023 144.51 93.6396Z" fill="url(#paint4_linear_97_1882)"/>
<path d="M150 125.151C150.318 125.136 150.784 124.719 150.923 124.51C151.127 124.739 151.524 125.051 152.04 124.972C152.65 124.883 152.73 124.595 153.171 124.634C153.355 125.146 153.807 126.302 153.37 126.57C153.37 126.57 150.928 126.57 148.968 126.57C148.566 126.198 148.759 125.275 150 125.151Z" fill="white"/>
<path d="M125.477 88.8948L125.254 87.7732C125.8 87.5598 126.629 87.118 127.592 86.7408L128.123 88.5574C127.056 88.7162 126.113 88.8303 125.477 88.8948Z" fill="#F7A58E"/>
<path d="M127.596 86.7458C129.452 85.8822 132.639 84.0012 133.368 83.6637L141.225 78.8395C142.917 78.3234 144.893 81.6784 142.754 83.1922C142.754 83.1922 130.609 88.1901 128.127 88.5623L127.596 86.7458Z" fill="#399EFD"/>
<path d="M124.683 89.7932C123.924 89.5649 123.661 88.4482 123.641 88.3588L125.214 87.7831C125.979 87.4754 126.416 88.3985 125.934 89.0686C125.934 89.0686 125.408 89.9619 124.683 89.7932Z" fill="#F7A58E"/>
<path d="M124.008 88.7956C122.192 89.1876 122.261 88.741 122.261 88.741C122.261 88.741 122.872 88.5375 123.978 88.2347C124.619 88.0958 124.445 88.6566 124.008 88.7956Z" fill="#F7A58E"/>
<path d="M139.91 83.629C139.532 81.7927 139.329 79.9762 141.225 78.8396C142.347 78.1646 145.955 77.6782 147.642 78.239C149.345 78.9984 148.977 82.3138 149.295 87.5449C150.466 90.1556 150.977 91.0142 151.325 93.5603C151.325 93.5603 150.7 95.4761 146.282 95.481C144.277 95.481 141.324 95.3024 139.979 94.2799C140.113 92.5428 140.838 90.8752 141.141 88.4185C141.136 88.4135 139.934 83.8424 139.91 83.629Z" fill="#399EFD"/>
<path d="M148.55 78.6063C150.625 80.1895 152.645 82.6761 153.598 83.9963C154.556 85.3164 157.027 90.627 157.027 90.627L155.454 91.7884L151.196 85.9815L145.989 81.7132C144.183 79.8768 146.53 77.0627 148.55 78.6063Z" fill="#399EFD"/>
<path d="M157.688 91.977L156.665 89.8677C156.427 90.503 155.256 91.0787 154.923 91.0688C154.923 91.0688 156.02 92.647 156.288 92.915C156.556 93.1831 157.668 92.7314 157.688 91.977Z" fill="#F7A58E"/>
<path d="M156.03 92.5627C156.035 92.5776 156.03 92.5975 156.035 92.6173C156.085 93.3866 156.675 93.7489 156.834 93.8333C156.849 93.8432 156.859 93.8482 156.874 93.8482C156.318 93.739 156.154 94.4785 156.437 94.6522C157.256 95.2031 158.417 94.4438 158.517 93.9822C158.616 93.5157 157.688 91.9672 157.688 91.9672C157.211 91.585 155.995 91.6446 156.03 92.5627Z" fill="#F7A58E"/>
<path d="M156.035 92.6173C156.07 93.4858 156.849 93.8432 156.864 93.8432C157.321 93.8283 157.484 93.8035 157.921 93.8035C157.638 93.6645 157.053 93.2972 157.276 92.5776C156.829 92.2351 156.159 92.5379 156.035 92.6173Z" fill="#E6856A"/>
<path d="M156.025 92.518C155.906 93.2327 155.955 94.2551 156.124 94.7018C156.124 94.7018 156.561 94.7266 156.521 93.8977C156.511 93.6843 156.541 93.2128 156.754 93.059C157.41 92.6222 157.519 92.2252 157.276 91.8976C156.958 91.4608 156.05 91.9026 156.025 92.518Z" fill="#F7A58E"/>
<path d="M158.055 94.4735C157.697 94.7216 156.754 95.1981 156.606 95.0839C156.457 94.9648 157.211 94.1608 157.697 94.0566C158.189 93.9523 158.238 94.3494 158.055 94.4735Z" fill="#F7A58E"/>
<path d="M131.199 33.3275C132.217 31.8485 131.279 27.2526 126.926 25.9324C123.248 24.9844 121.332 26.1458 116.359 27.5008L117.104 33.3225H131.199V33.3275Z" fill="#50318F"/>
<path d="M122.32 26.1706C122.32 26.1706 113.406 28.012 110.121 29.223C108.235 29.9178 107.768 31.4762 108.493 32.6773C109.57 34.4541 122.355 33.1935 122.355 33.1935C126.767 31.9626 124.43 26.0962 122.32 26.1706Z" fill="#399EFD"/>
<path d="M126.469 25.6743C126.469 25.6743 132.162 27.605 135.363 29.0344C138.47 29.2776 138.267 33.1389 136.798 33.3871C133.418 34.3052 125.968 32.6823 125.968 32.6823C121.645 31.1487 124.37 25.456 126.469 25.6743Z" fill="#399EFD"/>
<path d="M117.446 29.6448C117.446 29.6448 115.65 26.9151 120.107 24.8008C124.559 22.6865 127.556 24.8008 126.812 27.3618C126.067 29.9228 123.447 31.6301 123.447 31.6301C123.447 31.6301 119.005 31.645 117.446 29.6448Z" fill="#407BFF"/>
<path d="M122.459 29.2776C124.603 27.7886 123.74 24.8951 123.74 24.8951L122.931 23.3466L122.256 22.0562L118.682 23.431L119.332 26.0764C119.332 26.0764 119.511 26.6968 119.898 27.3916C120.389 28.275 121.218 29.2726 122.459 29.2776Z" fill="#F7A28A"/>
<path d="M119.893 27.3966C121.61 26.2898 122.489 24.6172 122.931 23.3466L122.256 22.0562L118.682 23.431L119.332 26.0764C119.327 26.0813 119.506 26.7017 119.893 27.3966Z" fill="#F0896C"/>
<path d="M114.563 18.6515C114.563 18.6515 113.739 18.8699 113.62 19.8526C113.501 20.8353 114.479 21.2373 114.479 21.2373C114.479 21.2373 113.838 22.4632 115.188 22.9595C117.943 23.972 117.675 18.041 114.563 18.6515Z" fill="#3D3D3D"/>
<path d="M115.347 21.818C116.191 24.3046 117.943 26.6372 119.357 26.0565C121.749 25.0738 123.76 22.3987 122.767 19.5796C121.774 16.7606 119.635 15.4701 117.372 16.2692C115.109 17.0683 114.389 18.989 115.347 21.818Z" fill="#F7A28A"/>
<path d="M114.196 18.6069C114.702 19.0337 116.573 19.7633 120.449 17.8872C121.094 18.3537 121.571 19.0585 121.898 19.8477C122.266 19.7633 122.41 19.5697 122.663 19.8824C123.01 20.3142 123.194 21.2621 122.762 21.6096C122.653 21.6989 122.529 21.7585 122.405 21.7932C122.251 22.4533 122.395 23.1829 122.931 23.3467C123.755 22.6816 123.655 22.5277 123.958 21.7684C124.921 21.0934 124.921 19.6144 124.147 19.2074C124.881 18.5175 123.993 17.0087 122.906 16.9591C122.911 16.1253 121.849 14.6314 120.514 15.5049C120.553 14.6066 118.921 14.016 118.042 15.3411C117.332 14.3733 115.173 14.959 115.258 16.2444C113.952 16.0161 113.238 17.7681 114.196 18.6069Z" fill="#3D3D3D"/>
<path d="M108.493 32.0123C108.493 32.0123 108.27 34.1762 112.255 34.5237C116.796 34.9207 120.628 34.8016 120.628 34.8016L121.035 33.0893C121.035 33.0893 112.98 30.3596 111.009 30.2405C108.662 30.0916 108.493 32.0123 108.493 32.0123Z" fill="#F7A28A"/>
<path d="M120.935 33.0546L123.476 32.5235C123.476 32.5235 125.114 33.3077 125.625 34.3251C125.253 34.742 124.236 33.8636 124.236 33.8636C124.236 33.8636 124.34 35.5659 124.087 35.8935C123.839 36.2161 122.588 36.4345 122.181 36.0821C121.774 35.7297 122.484 35.3128 122.484 35.3128L120.623 34.8065C120.627 34.8016 119.759 33.5012 120.935 33.0546Z" fill="#F7A28A"/>
<path d="M122.325 18.5373C122.325 18.4976 122.295 18.4678 122.256 18.4678C122.216 18.4678 122.186 18.4976 122.186 18.5373C122.186 18.577 122.216 18.6068 122.256 18.6068C122.295 18.6068 122.325 18.577 122.325 18.5373Z" fill="#F7A28A"/>
<path d="M136.966 30.7715C136.966 30.7715 138.311 32.4838 135.12 34.8959C131.487 37.6455 128.181 39.5861 128.181 39.5861L126.926 38.3503C126.926 38.3503 132.291 31.7493 133.894 30.6028C135.805 29.2379 136.966 30.7715 136.966 30.7715Z" fill="#F7A28A"/>
<path d="M126.921 38.3552L125.501 40.5291C125.501 40.5291 125.635 42.3406 126.4 43.1843C126.926 42.9908 126.474 41.7202 126.474 41.7202C126.474 41.7202 128.023 42.4349 128.42 42.3207C128.812 42.2066 129.467 41.1197 129.288 40.6134C129.11 40.1022 128.459 40.6134 128.459 40.6134L128.767 38.9954C129.02 38.0971 127.517 37.442 126.921 38.3552Z" fill="#F7A28A"/>
<path d="M56.6975 70.9084C56.9457 73.2311 55.7744 75.7077 54.3003 75.6879C52.2803 75.6631 49.6697 74.0004 49.4215 71.6777C49.1734 69.3549 50.6028 67.3002 52.6129 67.0868C54.6229 66.8733 56.4494 68.5856 56.6975 70.9084Z" fill="#F7B28A"/>
<path d="M44.1805 124.376C44.1805 124.376 46.2998 124.138 47.9575 124.376C49.3273 125.28 49.9229 125.23 49.9229 125.23C50.5086 125.384 50.7716 126.188 50.2604 126.188H44.0068L44.1805 124.376Z" fill="white"/>
<path d="M54.3003 124.376C54.3003 124.376 56.3848 124.138 58.0772 124.376C59.586 125.28 60.1717 125.23 60.1717 125.23C60.7822 125.384 61.1643 126.188 60.6581 126.188H54.4095L54.3003 124.376Z" fill="white"/>
<path d="M52.355 78.4376L48.4292 77.1124L51.2731 71.1864L54.0376 72.5116L52.355 78.4376Z" fill="#F7B28A"/>
<path d="M56.2557 82.5917C56.2557 82.5917 59.3031 84.8251 57.8141 87.1925C56.7073 88.9594 53.1587 87.0486 53.1587 84.9938C53.1587 83.1426 54.5831 82.0507 56.2557 82.5917Z" fill="#4BABF9"/>
<path d="M46.8408 91.7834C46.8408 91.7834 46.1062 93.054 45.6199 95.5852C45.4461 96.4835 45.6496 100.548 45.5901 107.398C44.1657 116.252 44.0068 125.121 44.0068 125.121L47.9525 124.371L53.9927 92.1458L46.8408 91.7834Z" fill="url(#paint5_linear_97_1882)"/>
<path d="M55.7746 92.6073C56.5489 98.6872 57.1097 104.147 57.1594 108.127L58.0726 124.381L54.3204 125.101C53.5512 120.058 52.2707 113.76 52.0672 107.914L47.9775 92.6569L55.7746 92.6073Z" fill="url(#paint6_linear_97_1882)"/>
<path d="M45.6743 92.2946C45.9324 93.8679 46.0763 93.9722 46.0763 93.9722L56.0721 94.1905C56.0721 94.1905 55.7743 92.6023 56.0275 91.7834C56.0721 91.6296 56.087 91.1581 56.0175 90.4483C55.9232 89.4309 55.7049 87.9469 55.417 86.319C54.7916 82.8249 53.8288 78.6807 52.9751 77.1272L48.6125 76.08C48.6125 76.08 46.667 78.0553 46.2352 79.8024C45.8083 81.5494 45.4113 90.7263 45.6743 92.2946Z" fill="#399EFD"/>
<path d="M52.707 85.1725L56.0175 90.4483C55.9232 89.4309 55.7048 87.9469 55.4169 86.319L52.707 85.1725Z" fill="#4BABF9"/>
<path d="M51.5113 83.8573C51.5113 83.8573 50.335 86.3885 51.5559 87.0635C52.7769 87.7385 53.9928 85.5745 53.9928 85.5745L51.5113 83.8573Z" fill="#4BABF9"/>
<path d="M56.3502 77.1173L55.5064 82.5768L52.876 79.4798C52.876 79.4798 50.5135 77.0826 48.6126 79.2465C46.7167 81.4104 49.6797 83.5744 49.6797 83.5744C49.6797 83.5744 54.0076 87.0982 56.772 86.7309C59.5365 86.3636 57.8093 77.2215 57.8093 77.2215L56.3502 77.1173Z" fill="#399EFD"/>
<path d="M56.3502 77.1173L55.9233 75.0377L57.0103 73.39C57.0103 73.39 57.4172 73.0922 57.5661 74.0054C57.8639 74.4322 58.2262 74.7449 58.1816 75.2263C58.1369 75.7078 57.8093 77.2166 57.8093 77.2166L56.3502 77.1173Z" fill="#F7B28A"/>
<path d="M48.6123 76.08L48.925 75.2809L53.5457 77.1173L53.908 79.1274L48.6123 76.08Z" fill="#407BFF"/>
<path d="M49.9127 74.0551C49.9127 74.0551 48.4039 71.8862 48.8754 69.2904C49.3469 66.6947 53.1934 66.1537 53.1934 66.1537C53.1934 66.1537 57.2036 65.9155 58.1019 70.0002C57.6751 70.5411 55.933 69.6478 55.933 69.6478L53.0643 72.2683C53.0643 72.2683 53.0991 70.2136 52.0866 70.7347C51.0741 71.2558 51.3769 72.9036 51.3769 72.9036C51.3769 72.9036 50.4289 73.8913 49.9127 74.0551Z" fill="black"/>
<path d="M160.219 60.4966C160.219 60.4266 160.219 60.3966 160.219 60.3866C160.224 60.4016 160.219 60.4966 160.219 60.4966Z" fill="#D9FFFF"/>
<path d="M160.219 60.4966C160.219 60.4266 160.219 60.3966 160.219 60.3866C160.224 60.4016 160.219 60.4966 160.219 60.4966Z" fill="#D9FFFF"/>
<path d="M68.9861 54.0338H45.9521V42.028H46.4782V53.5077H68.9861V54.0338Z" fill="#86A7FF"/>
<path d="M48.4735 52.128L48.0269 51.85L50.1461 48.4354L51.6053 50.8226L54.6725 44.2812L57.8043 50.2023L66.2962 42.1074L66.6585 42.4895L57.6653 51.0609L54.7023 45.4624L51.6648 51.9344L50.1461 49.4379L48.4735 52.128Z" fill="#86A7FF"/>
<path d="M183.055 54.5798C177.754 52.3116 171.391 53.8254 167.738 58.6198C163.42 64.2827 164.507 72.3726 170.17 76.6906C174.468 79.9663 180.166 80.1251 184.548 77.5393L177.987 66.4367L183.055 54.5798Z" fill="#406EFF"/>
<path d="M182.896 67.9703L189.457 79.0729C190.846 78.249 192.112 77.1571 193.149 75.7923C196.227 71.7572 196.554 66.4913 194.445 62.2379L182.896 67.9703Z" fill="#D3DFFF"/>
<path d="M193.998 59.0466C193.145 57.3293 191.899 55.7709 190.271 54.5301C189.403 53.87 188.479 53.334 187.517 52.9221L182.449 64.779L193.998 59.0466Z" fill="#E5ECFF"/>
<defs>
<linearGradient id="paint0_linear_97_1882" x1="47.5231" y1="21.0079" x2="89.5367" y2="21.0079" gradientUnits="userSpaceOnUse">
<stop stop-color="#3D5475"/>
<stop offset="0.2549" stop-color="#364F6F"/>
<stop offset="0.6276" stop-color="#22425F"/>
<stop offset="1" stop-color="#083149"/>
</linearGradient>
<linearGradient id="paint1_linear_97_1882" x1="22.3088" y1="34.787" x2="44.5296" y2="34.787" gradientUnits="userSpaceOnUse">
<stop stop-color="#3D5475"/>
<stop offset="0.2549" stop-color="#364F6F"/>
<stop offset="0.6276" stop-color="#22425F"/>
<stop offset="1" stop-color="#083149"/>
</linearGradient>
<linearGradient id="paint2_linear_97_1882" x1="169.79" y1="110.623" x2="195.432" y2="110.623" gradientUnits="userSpaceOnUse">
<stop stop-color="#3D5475"/>
<stop offset="0.2549" stop-color="#364F6F"/>
<stop offset="0.6276" stop-color="#22425F"/>
<stop offset="1" stop-color="#083149"/>
</linearGradient>
<linearGradient id="paint3_linear_97_1882" x1="139.804" y1="108.082" x2="146.412" y2="108.082" gradientUnits="userSpaceOnUse">
<stop stop-color="#3D5475"/>
<stop offset="0.2549" stop-color="#364F6F"/>
<stop offset="0.6276" stop-color="#22425F"/>
<stop offset="1" stop-color="#083149"/>
</linearGradient>
<linearGradient id="paint4_linear_97_1882" x1="144.38" y1="108.363" x2="153.188" y2="108.363" gradientUnits="userSpaceOnUse">
<stop stop-color="#3D5475"/>
<stop offset="0.2549" stop-color="#364F6F"/>
<stop offset="0.6276" stop-color="#22425F"/>
<stop offset="1" stop-color="#083149"/>
</linearGradient>
<linearGradient id="paint5_linear_97_1882" x1="44.0076" y1="108.455" x2="53.9968" y2="108.455" gradientUnits="userSpaceOnUse">
<stop stop-color="#3D5475"/>
<stop offset="0.2549" stop-color="#364F6F"/>
<stop offset="0.6276" stop-color="#22425F"/>
<stop offset="1" stop-color="#083149"/>
</linearGradient>
<linearGradient id="paint6_linear_97_1882" x1="47.9786" y1="108.851" x2="58.0758" y2="108.851" gradientUnits="userSpaceOnUse">
<stop stop-color="#3D5475"/>
<stop offset="0.2549" stop-color="#364F6F"/>
<stop offset="0.6276" stop-color="#22425F"/>
<stop offset="1" stop-color="#083149"/>
</linearGradient>
</defs>
</svg>
