<svg width="184" height="181" viewBox="0 0 184 181" fill="none" xmlns="http://www.w3.org/2000/svg">
<path d="M167.949 113.112L167.918 113.186L164.205 122.565L162.814 126.095L160.194 121.366L155.042 123.036L160.183 110.054L163.444 111.342L167.75 113.039L167.949 113.112Z" fill="#407BFF"/>
<g opacity="0.2">
<path opacity="0.2" d="M162.845 124.366L160.603 120.324L156.198 121.753L160.645 110.52L167.293 113.139L162.845 124.366ZM160.687 120.114L162.819 123.963L167.067 113.228L160.745 110.735L156.497 121.47L160.687 120.114Z" fill="white"/>
</g>
<path opacity="0.2" d="M167.918 113.186L164.205 122.565C161.953 117.443 161.779 112.254 161.779 112.254L163.444 111.337L167.75 113.034L167.918 113.186Z" fill="black"/>
<path d="M167.078 126.095L169.693 121.366L174.844 123.036L169.703 110.054L161.937 113.112L167.078 126.095Z" fill="#407BFF"/>
<g opacity="0.2">
<path opacity="0.2" d="M162.593 113.133L169.241 110.515L173.688 121.748L169.283 120.318L167.046 124.361L162.593 113.133ZM173.389 121.47L169.141 110.735L162.814 113.228L167.062 123.963L169.194 120.114L173.389 121.47Z" fill="white"/>
</g>
<path d="M164.94 94.7417L165.859 94.0242L166.636 94.8935L167.671 94.3489L168.28 95.3439L169.393 94.993L169.813 96.0823L170.968 95.9357L171.189 97.0773L172.355 97.1401L172.365 98.3027L173.499 98.575L173.3 99.7219L174.371 100.188L173.972 101.282L174.938 101.932L174.35 102.937L175.185 103.749L174.423 104.629L175.101 105.577L174.198 106.315L174.691 107.368L173.673 107.928L173.972 109.054L172.864 109.42L172.958 110.583L171.803 110.751L171.688 111.908L170.522 111.866L170.202 112.982L169.062 112.735L168.542 113.778L167.466 113.332L166.773 114.265L165.796 113.636L164.94 114.432L164.09 113.636L163.113 114.265L162.42 113.332L161.338 113.778L160.824 112.735L159.684 112.982L159.364 111.866L158.198 111.908L158.083 110.751L156.928 110.583L157.022 109.42L155.914 109.054L156.213 107.928L155.195 107.368L155.688 106.315L154.785 105.577L155.463 104.629L154.701 103.749L155.536 102.937L154.948 101.932L155.914 101.282L155.515 100.188L156.586 99.7219L156.387 98.575L157.521 98.3027L157.531 97.1401L158.697 97.0773L158.918 95.9357L160.073 96.0823L160.493 94.993L161.606 95.3439L162.215 94.3489L163.25 94.8935L164.021 94.0242L164.94 94.7417Z" fill="#407BFF"/>
<path opacity="0.3" d="M164.94 94.7417L165.859 94.0242L166.636 94.8935L167.671 94.3489L168.28 95.3439L169.393 94.993L169.813 96.0823L170.968 95.9357L171.189 97.0773L172.355 97.1401L172.365 98.3027L173.499 98.575L173.3 99.7219L174.371 100.188L173.972 101.282L174.938 101.932L174.35 102.937L175.185 103.749L174.423 104.629L175.101 105.577L174.198 106.315L174.691 107.368L173.673 107.928L173.972 109.054L172.864 109.42L172.958 110.583L171.803 110.751L171.688 111.908L170.522 111.866L170.202 112.982L169.062 112.735L168.542 113.778L167.466 113.332L166.773 114.265L165.796 113.636L164.94 114.432L164.09 113.636L163.113 114.265L162.42 113.332L161.338 113.778L160.824 112.735L159.684 112.982L159.364 111.866L158.198 111.908L158.083 110.751L156.928 110.583L157.022 109.42L155.914 109.054L156.213 107.928L155.195 107.368L155.688 106.315L154.785 105.577L155.463 104.629L154.701 103.749L155.536 102.937L154.948 101.932L155.914 101.282L155.515 100.188L156.586 99.7219L156.387 98.575L157.521 98.3027L157.531 97.1401L158.697 97.0773L158.918 95.9357L160.073 96.0823L160.493 94.993L161.606 95.3439L162.215 94.3489L163.25 94.8935L164.021 94.0242L164.94 94.7417Z" fill="white"/>
<path opacity="0.3" d="M164.94 113.018C169.809 113.018 173.756 109.082 173.756 104.226C173.756 99.3695 169.809 95.433 164.94 95.433C160.071 95.433 156.124 99.3695 156.124 104.226C156.124 109.082 160.071 113.018 164.94 113.018Z" fill="white"/>
<path d="M159.653 104.226C159.653 104.226 160.362 102.738 161.281 102.649C163.045 102.477 164.851 106.205 164.851 106.205C164.851 106.205 166.752 101.958 170.664 100.057C170.664 100.057 168.39 102.23 166.442 107.965C166.29 108.405 164.226 109.033 163.743 108.761C163.255 108.483 161.59 104.665 159.653 104.226Z" fill="#407BFF"/>
<path d="M16.4148 48.0659C15.2176 45.9293 12.8862 44.95 11.2112 45.8822C9.53614 46.8143 9.15282 49.3071 10.35 51.4437C11.5472 53.5803 13.8786 54.5596 15.5536 53.6274C17.2286 52.6953 17.6119 50.2078 16.4148 48.0659Z" fill="#407BFF"/>
<path d="M30.0246 40.5721L25.9027 33.0101C25.9027 33.0101 23.0252 39.1738 18.8823 41.4833L20.9827 45.2328L21.3135 45.8246L23.4191 49.5794C27.562 47.27 34.3303 48.045 34.3303 48.045L30.0246 40.5721Z" fill="#407BFF"/>
<path opacity="0.8" d="M16.4148 48.0659C15.2176 45.9293 12.8862 44.95 11.2112 45.8822C9.53614 46.8143 9.15282 49.3071 10.35 51.4437C11.5472 53.5803 13.8786 54.5596 15.5536 53.6274C17.2286 52.6953 17.6119 50.2078 16.4148 48.0659Z" fill="white"/>
<path opacity="0.8" d="M30.0246 40.5721L25.9027 33.0101C25.9027 33.0101 23.0252 39.1738 18.8823 41.4833L20.9827 45.2328L21.3135 45.8246L23.4191 49.5794C27.562 47.27 34.3303 48.045 34.3303 48.045L30.0246 40.5721Z" fill="white"/>
<path d="M16.1313 52.4963C16.1313 52.4963 19.1138 56.801 21.8968 58.3773C22.0911 58.4872 22.3431 58.4296 22.4796 58.2568L24.853 55.319C25.0473 55.0781 24.9633 54.7272 24.6797 54.6015C23.5035 54.0883 20.7731 52.7529 19.1926 50.8991C17.15 48.4797 16.1313 52.4963 16.1313 52.4963Z" fill="#407BFF"/>
<path opacity="0.3" d="M16.1313 52.4963C16.1313 52.4963 19.1138 56.801 21.8968 58.3773C22.0911 58.4872 22.3431 58.4296 22.4796 58.2568L24.853 55.319C25.0473 55.0781 24.9633 54.7272 24.6797 54.6015C23.5035 54.0883 20.7731 52.7529 19.1926 50.8991C17.15 48.4797 16.1313 52.4963 16.1313 52.4963Z" fill="black"/>
<path d="M34.2882 48.2545C33.3378 48.7834 30.6441 45.7827 28.2759 41.5513C25.9025 37.32 24.7526 33.4605 25.6978 32.9315C26.6482 32.4026 29.3419 35.4033 31.71 39.6347C34.0834 43.866 35.2386 47.7256 34.2882 48.2545Z" fill="white"/>
<path opacity="0.4" d="M33.8997 47.0081C33.1909 47.4061 31.0905 45.0443 29.111 41.6508C28.9954 41.4571 28.8852 41.2581 28.7697 41.0591C28.6331 40.8182 28.5019 40.5825 28.3811 40.3468C26.5643 36.922 25.6664 33.9684 26.37 33.5756C27.1261 33.1515 29.4313 35.817 31.5106 39.5299C33.5899 43.2323 34.6611 46.5839 33.8997 47.0081Z" fill="black"/>
<path d="M15.1649 54.4182C15.1649 54.4182 14.1463 53.6955 12.298 50.4015C10.2974 46.8353 10.3552 45.8403 10.3552 45.8403L19.5967 40.6873C19.5967 40.6873 19.7069 41.9807 21.5815 45.3218C23.4403 48.642 24.4064 49.2652 24.4064 49.2652L15.1649 54.4182Z" fill="#407BFF"/>
<path d="M29.1112 41.6509C28.9957 41.4571 28.8854 41.2581 28.7699 41.0591C28.6334 40.8182 28.5021 40.5826 28.3813 40.3469L29.337 40.0432C29.5575 39.9751 29.7518 40.0903 29.8621 40.2841L29.9356 40.4202C30.0459 40.614 30.0406 40.8444 29.8673 40.991L29.1112 41.6509Z" fill="white"/>
<path opacity="0.2" d="M29.1112 41.6509C28.9957 41.4571 28.8854 41.2581 28.7699 41.0591C28.6334 40.8182 28.5021 40.5826 28.3813 40.3469L29.337 40.0432C29.5575 39.9751 29.7518 40.0903 29.8621 40.2841L29.9356 40.4202C30.0459 40.614 30.0406 40.8444 29.8673 40.991L29.1112 41.6509Z" fill="black"/>
<path d="M28.6019 138.605H17.7642V143.303H28.6019V138.605Z" fill="#1A2E35"/>
<path opacity="0.6" d="M28.6019 138.605H17.7642V143.303H28.6019V138.605Z" fill="white"/>
<path d="M16.5043 139.082C16.5043 139.082 13.8369 135.358 13.8369 133.41C13.8369 131.462 15.4384 130.399 16.5043 131.106C16.5043 131.106 15.9688 127.351 16.5043 126.042C17.0399 124.728 19.7021 125.513 19.7021 125.513C19.7021 125.513 20.2377 124.283 21.7447 124.283C23.2569 124.283 23.8765 125.513 23.8765 125.513C23.8765 125.513 24.6747 124.66 26.0977 125.005C27.5206 125.351 27.3421 126.115 27.3421 126.115C27.3421 126.115 29.3899 126.11 29.831 126.749C30.2773 127.388 31.1647 135.798 29.2954 138.459C27.4314 141.119 19.3503 142.004 16.5043 139.082Z" fill="#407BFF"/>
<path opacity="0.7" d="M30.3981 133.798C30.3036 135.678 29.9938 137.469 29.3007 138.453C27.4366 141.114 19.3503 141.999 16.5043 139.077C16.5043 139.077 13.8369 135.353 13.8369 133.405C13.8369 131.457 15.4384 130.394 16.5043 131.101C16.5043 131.101 15.974 127.346 16.5043 126.037C17.0347 124.728 19.7021 125.508 19.7021 125.508C19.7021 125.508 20.2325 124.283 21.7447 124.283C23.2517 124.283 23.8713 125.508 23.8713 125.508C23.8713 125.508 24.6747 124.654 26.0924 125.005C27.5154 125.346 27.3369 126.11 27.3369 126.11C27.3369 126.11 29.3794 126.105 29.8258 126.744C30.1093 127.147 30.5661 130.614 30.3981 133.798Z" fill="white"/>
<path opacity="0.1" d="M30.3977 133.798C30.1614 133.704 28.9012 133.227 28.5441 133.924C28.1398 134.688 24.8108 138.003 23.5453 136.741C22.2798 135.479 18.6253 134.28 18.6253 134.28C18.6253 134.28 19.3709 134.316 20.1427 133.882C21.676 133.018 21.4135 131.687 20.5891 131.75C20.3843 131.766 16.5039 131.101 16.5039 131.101C16.5039 131.101 19.3446 131.022 19.6754 130.624C20.0115 130.226 19.7437 126.707 20.0115 126.775C20.274 126.838 20.1375 130.363 20.2058 130.96C20.274 131.557 22.7524 131.588 23.0832 131.253C23.4193 130.923 23.3248 126.424 23.8026 126.723C24.2804 127.032 23.5243 131.358 24.0021 131.619C24.48 131.886 25.5144 132.143 25.9659 131.871C26.4175 131.609 26.8271 127.006 27.0896 127.21C27.3574 127.404 26.9951 131.541 27.1316 131.871C27.2682 132.206 28.0558 132.216 28.6649 132.085C29.2635 131.949 29.8201 126.739 29.8201 126.739C30.1089 127.147 30.5657 130.614 30.3977 133.798Z" fill="black"/>
<path d="M17.7646 141.925C17.7646 141.925 23.1099 143.585 28.6023 141.925L29.3427 142.292V148.037C29.3427 148.037 23.4775 148.969 16.9507 148.037L17.3235 142.323L17.7646 141.925Z" fill="#407BFF"/>
<path d="M115.645 28.8939H111.586V27.5638C111.586 27.192 111.886 26.8935 112.259 26.8935H114.968C115.341 26.8935 115.64 27.192 115.64 27.5638V28.8939H115.645Z" fill="#407BFF"/>
<path d="M121.637 28.8939H117.578V21.4262C117.578 21.0544 117.877 20.7559 118.25 20.7559H120.959C121.332 20.7559 121.631 21.0544 121.631 21.4262V28.8939H121.637Z" fill="#407BFF"/>
<path d="M127.628 28.8939H123.569V22.7564C123.569 22.3846 123.868 22.0861 124.241 22.0861H126.95C127.323 22.0861 127.622 22.3846 127.622 22.7564V28.8939H127.628Z" fill="#407BFF"/>
<path d="M133.624 28.8939H129.565V15.9538C129.565 15.5819 129.865 15.2834 130.238 15.2834H132.947C133.32 15.2834 133.619 15.5819 133.619 15.9538V28.8939H133.624Z" fill="#407BFF"/>
<path d="M133.64 5.72625L132.59 6.09283L131.051 6.62698L131.802 7.18732L124.467 17.2787L117.982 14.3775L109.922 23.6623L111.497 24.9454L118.528 16.8388L125.144 19.7923L133.43 8.38655L134.086 8.87881L134.228 5.52725L133.64 5.72625Z" fill="#407BFF"/>
<path opacity="0.6" d="M115.645 28.894H111.586V27.5638C111.586 27.192 111.886 26.8935 112.259 26.8935H114.968C115.341 26.8935 115.64 27.192 115.64 27.5638V28.894H115.645Z" fill="white"/>
<path opacity="0.5" d="M121.637 28.8939H117.578V21.4262C117.578 21.0544 117.877 20.7559 118.25 20.7559H120.96C121.332 20.7559 121.632 21.0544 121.632 21.4262V28.8939H121.637Z" fill="white"/>
<path opacity="0.3" d="M127.628 28.894H123.569V22.7564C123.569 22.3846 123.869 22.0861 124.241 22.0861H126.951C127.324 22.0861 127.623 22.3846 127.623 22.7564V28.894H127.628Z" fill="white"/>
<path opacity="0.2" d="M133.625 28.8939H129.566V15.9538C129.566 15.5819 129.865 15.2834 130.238 15.2834H132.947C133.32 15.2834 133.62 15.5819 133.62 15.9538V28.8939H133.625Z" fill="white"/>
<path opacity="0.1" d="M133.64 5.72625L132.59 6.09283L131.051 6.62698L131.802 7.18732L124.467 17.2787L117.982 14.3775L109.922 23.6623L111.497 24.9454L118.528 16.8388L125.144 19.7923L133.43 8.38655L134.086 8.87881L134.228 5.52725L133.64 5.72625Z" fill="black"/>
<path d="M134.753 30.0932H110.804C110.473 30.0932 110.2 29.8261 110.2 29.4909C110.2 29.161 110.468 28.8887 110.804 28.8887H134.753C135.084 28.8887 135.357 29.1558 135.357 29.4909C135.357 29.8261 135.084 30.0932 134.753 30.0932Z" fill="#1A2E35"/>
<path opacity="0.3" d="M134.753 30.0932H110.804C110.473 30.0932 110.2 29.8261 110.2 29.4909C110.2 29.161 110.468 28.8887 110.804 28.8887H134.753C135.084 28.8887 135.357 29.1558 135.357 29.4909C135.357 29.8261 135.084 30.0932 134.753 30.0932Z" fill="white"/>
<path d="M3.62905 139.244C5.22006 149.44 14.7976 156.416 25.021 154.824C35.2444 153.237 42.2386 143.685 40.6423 133.489C39.0513 123.293 29.4738 116.317 19.2503 117.909C9.02693 119.501 2.03804 129.053 3.62905 139.244Z" stroke="#1A2E35" stroke-width="1.2175" stroke-linecap="round" stroke-linejoin="round" stroke-dasharray="8.96 8.96"/>
<path d="M178.199 120.779C171.283 128.451 159.437 129.08 151.745 122.183C144.052 115.286 143.422 103.471 150.338 95.7995C157.253 88.1276 169.099 87.4992 176.791 94.3961C184.484 101.293 185.114 113.102 178.199 120.779Z" stroke="#1A2E35" stroke-width="1.2175" stroke-linecap="round" stroke-linejoin="round" stroke-dasharray="8.96 8.96"/>
<path d="M105.763 25.2596C108.851 35.1048 119.358 40.593 129.229 37.5137C139.101 34.4345 144.604 23.9556 141.516 14.1104C138.429 4.26519 127.922 -1.22299 118.05 1.85626C108.179 4.9355 102.676 15.4144 105.763 25.2596Z" stroke="#1A2E35" stroke-width="1.2175" stroke-linecap="round" stroke-linejoin="round" stroke-dasharray="8.96 8.96"/>
<path d="M25.937 64.1138C36.066 62.0216 42.5766 52.1363 40.4788 42.0343C38.381 31.9324 28.4692 25.4392 18.3402 27.5314C8.21119 29.6236 1.7006 39.5089 3.7984 49.6108C5.8962 59.7128 15.808 66.206 25.937 64.1138Z" stroke="#1A2E35" stroke-width="1.2175" stroke-linecap="round" stroke-linejoin="round" stroke-dasharray="8.96 8.96"/>
<path d="M83.2421 88.358C78.3641 84.598 77.4609 77.6068 81.231 72.7366C85.0011 67.8716 92.011 66.9709 96.8943 70.7309C101.772 74.4909 102.676 81.4821 98.9054 86.3523C95.1353 91.2226 88.1201 92.1181 83.2421 88.358Z" stroke="#1A2E35" stroke-width="1.2175" stroke-linecap="round" stroke-linejoin="round" stroke-dasharray="10.69 10.69"/>
<path d="M80.086 74.5538L38.1895 55.4499" stroke="#1A2E35" stroke-width="1.2175" stroke-miterlimit="10" stroke-linecap="round" stroke-linejoin="round"/>
<path d="M95.624 69.8878L115.136 36.325" stroke="#1A2E35" stroke-width="1.2175" stroke-miterlimit="10" stroke-linecap="round" stroke-linejoin="round"/>
<path d="M100.124 84.3833L146.09 103.78" stroke="#1A2E35" stroke-width="1.2175" stroke-miterlimit="10" stroke-linecap="round" stroke-linejoin="round"/>
<path d="M81.0422 86.1062L36.4204 124.288" stroke="#1A2E35" stroke-width="1.2175" stroke-miterlimit="10" stroke-linecap="round" stroke-linejoin="round"/>
<g opacity="0.5">
<g opacity="0.5">
<path opacity="0.5" d="M3.62905 139.244C5.22006 149.44 14.7976 156.416 25.021 154.824C35.2444 153.237 42.2386 143.685 40.6423 133.489C39.0513 123.293 29.4738 116.317 19.2503 117.909C9.02693 119.501 2.03804 129.053 3.62905 139.244Z" stroke="white" stroke-width="1.2175" stroke-linecap="round" stroke-linejoin="round" stroke-dasharray="8.96 8.96"/>
</g>
<g opacity="0.5">
<path opacity="0.5" d="M178.199 120.779C171.283 128.451 159.437 129.08 151.745 122.183C144.052 115.286 143.422 103.471 150.338 95.7995C157.253 88.1276 169.099 87.4992 176.791 94.3961C184.484 101.293 185.114 113.102 178.199 120.779Z" stroke="white" stroke-width="1.2175" stroke-linecap="round" stroke-linejoin="round" stroke-dasharray="8.96 8.96"/>
</g>
<g opacity="0.5">
<path opacity="0.5" d="M105.763 25.2596C108.851 35.1048 119.358 40.593 129.229 37.5137C139.101 34.4345 144.604 23.9556 141.516 14.1104C138.429 4.26519 127.922 -1.22299 118.05 1.85626C108.179 4.9355 102.676 15.4144 105.763 25.2596Z" stroke="white" stroke-width="1.2175" stroke-linecap="round" stroke-linejoin="round" stroke-dasharray="8.96 8.96"/>
</g>
<g opacity="0.5">
<path opacity="0.5" d="M25.937 64.1138C36.066 62.0216 42.5766 52.1363 40.4788 42.0343C38.381 31.9324 28.4692 25.4392 18.3402 27.5314C8.21119 29.6236 1.7006 39.5089 3.7984 49.6108C5.8962 59.7128 15.808 66.206 25.937 64.1138Z" stroke="white" stroke-width="1.2175" stroke-linecap="round" stroke-linejoin="round" stroke-dasharray="8.96 8.96"/>
</g>
<g opacity="0.5">
<path opacity="0.5" d="M83.2421 88.358C78.3641 84.598 77.4609 77.6068 81.231 72.7366C85.0011 67.8716 92.011 66.9709 96.8943 70.7309C101.772 74.4909 102.676 81.4821 98.9054 86.3523C95.1353 91.2226 88.1201 92.1181 83.2421 88.358Z" stroke="white" stroke-width="1.2175" stroke-linecap="round" stroke-linejoin="round" stroke-dasharray="10.69 10.69"/>
</g>
<path opacity="0.5" d="M80.086 74.5538L38.1895 55.4499" stroke="white" stroke-width="1.2175" stroke-miterlimit="10" stroke-linecap="round" stroke-linejoin="round"/>
<path opacity="0.5" d="M95.624 69.8878L115.136 36.325" stroke="white" stroke-width="1.2175" stroke-miterlimit="10" stroke-linecap="round" stroke-linejoin="round"/>
<path opacity="0.5" d="M100.124 84.3833L146.09 103.78" stroke="white" stroke-width="1.2175" stroke-miterlimit="10" stroke-linecap="round" stroke-linejoin="round"/>
<path opacity="0.5" d="M81.0422 86.1062L36.4204 124.288" stroke="white" stroke-width="1.2175" stroke-miterlimit="10" stroke-linecap="round" stroke-linejoin="round"/>
</g>
<path d="M112.353 68.1806C110.793 68.432 107.275 79.9216 105.863 81.4245C105.122 82.21 97.0201 79.9216 97.0201 79.9216L96.0645 82.8908C96.0645 82.8908 104.923 86.5356 107.333 85.6506C111.371 84.1634 113.371 75.8735 113.371 75.8735L112.353 68.1806Z" fill="#1A2E35"/>
<path d="M113.377 75.8735C113.377 75.8735 112.978 77.5335 112.169 79.5026C111.46 81.2464 110.426 83.2312 109.076 84.5194C108.546 85.0222 107.968 85.4202 107.338 85.6506C104.928 86.5356 96.0698 82.8908 96.0698 82.8908L97.0202 79.9215C97.0202 79.9215 105.122 82.21 105.863 81.4245C107.275 79.9215 110.798 68.4319 112.353 68.1806L113.377 75.8735Z" fill="#399EFD"/>
<path d="M96.6848 79.9686L93.6131 77.2088L92.0483 80.8537C92.0483 80.8537 95.3459 82.985 96.207 82.1105L96.6848 79.9686Z" fill="#FCC1BB"/>
<path d="M89.937 77.6226L89.5117 80.44L92.0479 80.8537L93.6126 77.2089L89.937 77.6226Z" fill="#FCC1BB"/>
<path d="M98.0814 79.9372L96.9262 83.5821L95.4507 82.9327L96.5009 79.5078L98.0814 79.9372Z" fill="#407BFF"/>
<path opacity="0.7" d="M98.0814 79.9372L96.9262 83.5821L95.4507 82.9327L96.5009 79.5078L98.0814 79.9372Z" fill="white"/>
<path opacity="0.2" d="M112.17 79.5026C111.461 81.2464 110.426 83.2312 109.077 84.5195C108.746 79.6702 111.802 75.8211 111.802 75.8211C112.112 76.8318 112.212 78.1358 112.17 79.5026Z" fill="black"/>
<path d="M115.467 57.4085C115.829 59.3356 115.467 61.8545 115.467 61.8545C115.467 61.8545 124.451 63.0956 126.63 61.4408C128.809 59.786 129.775 49.9303 124.918 48.9824C120.061 48.0398 114.327 51.3547 115.467 57.4085Z" fill="#1A2E35"/>
<path d="M108.378 180.72H107.627L107.417 179.793L104.929 180.914H98.6222C98.6222 180.914 97.6193 179.908 100.623 179.107C100.759 179.07 100.901 179.018 101.048 178.944C102.65 178.196 104.929 175.666 104.929 175.666H108.389C108.389 175.666 108.51 175.839 108.672 176.164C109.05 176.923 109.702 178.52 108.378 180.72Z" fill="#121212"/>
<path d="M108.672 176.164C108.672 176.169 108.672 176.174 108.672 176.174C108.215 175.666 106.136 177.897 104.613 178.656C103.253 179.332 101.725 179.63 101.048 178.944C102.649 178.196 105.17 174.928 105.17 174.928H107.953C107.953 174.928 108.509 175.839 108.672 176.164Z" fill="#FFC2BC"/>
<path d="M104.928 175.666L106.514 162.129L111.492 163.595L108.031 175.781" fill="#FFC2BC"/>
<path d="M126.478 92.7412L112.878 92.1024C112.878 92.1024 109.244 115.448 108.913 130.368C107.848 140.375 106.593 157.474 105.369 167.937C105.369 167.937 106.283 168.591 107.953 168.9C109.349 169.157 110.237 169.005 110.237 169.005C113.377 160.024 117.084 145.136 116.832 130.74C126.43 107.472 126.478 92.7412 126.478 92.7412Z" fill="#1A2E35"/>
<path d="M126.478 92.7413C126.478 92.7413 126.457 101.01 122.408 114.935C121.342 118.601 119.998 122.659 118.302 127.063C117.84 128.263 117.352 129.488 116.837 130.74C117.089 145.136 113.387 160.029 110.242 169.01C110.242 169.01 109.355 169.157 107.958 168.9C106.283 168.591 105.369 167.937 105.369 167.937C106.593 157.474 107.853 140.381 108.913 130.368C109.25 115.453 112.883 92.1076 112.883 92.1076L126.478 92.7413Z" fill="url(#paint0_linear_97_429)"/>
<path opacity="0.2" d="M122.408 114.935C121.342 118.601 119.998 122.659 118.302 127.063C117.141 115.171 119.903 108.452 119.903 108.452C121.132 109.976 121.93 112.29 122.408 114.935Z" fill="black"/>
<path d="M127.816 180.72H127.065L126.855 179.793L124.366 180.914H118.06C118.06 180.914 117.057 179.908 120.061 179.107C120.197 179.07 120.339 179.018 120.486 178.944C122.088 178.196 124.366 175.666 124.366 175.666H127.827C127.827 175.666 127.948 175.839 128.11 176.164C128.488 176.923 129.145 178.52 127.816 180.72Z" fill="#121212"/>
<path d="M128.111 176.164C128.111 176.169 128.111 176.174 128.111 176.174C127.654 175.666 125.574 177.897 124.052 178.656C122.692 179.332 121.164 179.63 120.486 178.944C122.088 178.196 124.608 174.928 124.608 174.928H127.391C127.391 174.928 127.948 175.839 128.111 176.164Z" fill="#FFC2BC"/>
<path d="M124.367 175.666L124.298 161.176L129.612 161.406L127.307 175.677L124.367 175.666Z" fill="#FFC2BC"/>
<path d="M123.821 169.235C123.821 169.235 125.191 169.702 126.378 169.827C127.775 169.979 128.526 169.743 128.526 169.743C130.946 159.547 133.425 143.109 130.647 133.217C135.95 101.241 128.914 92.6889 128.914 92.6889L116.984 91.3954C116.984 91.3954 120.828 118.459 122.125 131.682C123.238 143.051 124.231 156.311 123.821 169.235Z" fill="#1A2E35"/>
<path d="M123.821 169.235C123.821 169.235 125.191 169.702 126.378 169.827C127.775 169.979 128.526 169.743 128.526 169.743C130.946 159.547 133.425 143.109 130.647 133.217C135.95 101.241 128.914 92.6889 128.914 92.6889L116.984 91.3954C116.984 91.3954 120.828 118.459 122.125 131.682C123.238 143.051 124.231 156.311 123.821 169.235Z" fill="url(#paint1_linear_97_429)"/>
<path d="M126.588 66.819C126.588 66.819 117.299 71.4064 118.097 67.217C118.097 67.217 114.674 67.1856 112.421 68.5576C112.421 68.5576 111.082 74.1348 112.421 89.1278L111.465 96.3808L116.963 98.0357L118.775 92.7779L120.969 98.3132L130.515 95.3387L128.588 89.751C128.588 89.751 129.56 76.9051 132.463 71.0346C132.469 71.0294 132.007 66.7561 126.588 66.819Z" fill="#407BFF"/>
<path d="M126.588 66.819C126.588 66.819 117.299 71.4064 118.097 67.217C118.097 67.217 114.674 67.1856 112.421 68.5576C112.421 68.5576 111.198 74.5747 112.421 89.1278L111.465 96.3808L116.963 98.0357L118.775 92.7779L120.969 98.3132L130.515 95.3387L128.588 89.751C128.588 89.751 129.56 76.9051 132.463 71.0346C132.469 71.0294 132.007 66.7561 126.588 66.819Z" fill="white"/>
<path d="M126.011 58.8381C125.37 61.2051 124.582 65.536 126.121 67.1175C126.121 67.1175 128.226 68.7985 121.967 68.61C121.421 69.9087 119.363 72.6895 119.363 72.6895C119.363 72.6895 118.407 70.0554 118.843 69.1075C114.816 68.7619 118.749 67.1175 118.749 67.1175C121.442 66.4891 121.516 64.5305 121.195 62.6924L126.011 58.8381Z" fill="#FCC1BB"/>
<path opacity="0.2" d="M124.046 60.4144L121.2 62.6924C121.279 63.127 121.331 63.5669 121.331 63.9964C122.35 63.8497 123.826 62.7448 124.009 61.6922C124.099 61.1632 124.114 60.6553 124.046 60.4144Z" fill="black"/>
<path d="M128.037 54.0935C127.318 57.9112 127.092 59.5398 124.907 61.3727C121.62 64.1273 117.105 62.6715 116.674 58.7753C116.286 55.2718 117.53 49.6161 121.473 48.354C125.359 47.1129 128.756 50.2759 128.037 54.0935Z" fill="#FCC1BB"/>
<path d="M124.745 51.3337C126.855 54.0516 122.518 57.1832 126.855 57C131.198 56.8167 129.434 50.7053 126.855 49.3175C124.277 47.9298 124.745 51.3337 124.745 51.3337Z" fill="#1A2E35"/>
<path d="M121.967 54.7324C121.92 55.0571 121.715 55.3032 121.505 55.2875C121.295 55.2718 121.169 54.9995 121.211 54.6748C121.258 54.3501 121.463 54.104 121.673 54.1197C121.883 54.1302 122.014 54.4078 121.967 54.7324Z" fill="#1A2E35"/>
<path d="M118.06 54.502C118.013 54.8267 117.808 55.0728 117.598 55.0571C117.388 55.0414 117.262 54.7691 117.304 54.4444C117.351 54.1197 117.556 53.8736 117.766 53.8893C117.976 53.905 118.102 54.1773 118.06 54.502Z" fill="#1A2E35"/>
<path d="M117.856 53.9102L117.126 53.6327C117.126 53.6327 117.431 54.2663 117.856 53.9102Z" fill="#1A2E35"/>
<path d="M119.069 55.1095C119.069 55.1095 118.328 56.4606 117.641 57.089C118.003 57.5184 118.743 57.3875 118.743 57.3875L119.069 55.1095Z" fill="#EB827E"/>
<path d="M120.397 58.7176C120.229 58.7333 120.051 58.7386 119.856 58.7229C119.804 58.7176 119.767 58.6757 119.778 58.6234C119.783 58.571 119.83 58.5343 119.883 58.5343C121.274 58.6391 122.067 57.6964 122.078 57.686C122.114 57.6441 122.172 57.6336 122.209 57.665C122.246 57.6964 122.251 57.7541 122.219 57.7959C122.188 57.8378 121.547 58.5972 120.397 58.7176Z" fill="#1A2E35"/>
<path d="M123.059 52.9938C123.012 52.9938 122.959 52.9781 122.928 52.9362C122.387 52.3287 121.699 52.4596 121.689 52.4596C121.589 52.4806 121.489 52.4125 121.479 52.3078C121.468 52.203 121.536 52.1035 121.641 52.0826C121.678 52.0774 122.539 51.9098 123.217 52.6639C123.285 52.7372 123.274 52.8576 123.196 52.931C123.154 52.9729 123.106 52.9938 123.059 52.9938Z" fill="#1A2E35"/>
<path d="M117.178 52.6429C117.131 52.6482 117.084 52.6325 117.047 52.601C116.974 52.533 116.968 52.4177 117.042 52.334C117.766 51.5223 118.628 51.6113 118.664 51.6113C118.769 51.6218 118.838 51.716 118.817 51.8208C118.796 51.9255 118.701 51.9988 118.596 51.9883C118.565 51.9831 117.892 51.9307 117.32 52.5696C117.278 52.6167 117.231 52.6377 117.178 52.6429Z" fill="#1A2E35"/>
<path d="M121.767 54.1407L121.038 53.8631C121.038 53.8631 121.342 54.4968 121.767 54.1407Z" fill="#1A2E35"/>
<path d="M123.259 49.2181C123.259 49.2181 124.01 53.7217 127.008 54.4706C130.006 55.2247 127.57 49.8412 127.57 49.8412C127.57 49.8412 126.94 47.4009 122.891 47.4009C118.843 47.4009 114.164 51.5065 115.467 57.4032C115.467 57.4032 115.246 55.4342 116.144 53.8841C117.042 52.334 117.966 53.6694 123.259 49.2181Z" fill="#1A2E35"/>
<path d="M125.989 48.0817C130.268 49.7889 131.828 52.5853 131.465 55.696C131.103 58.8014 127.26 62.0902 126.635 62.2106L124.713 62.4829C124.713 62.4829 127.674 58.3772 127.102 56.9843C126.53 55.5913 125.963 55.4551 125.963 55.4551L125.989 48.0817Z" fill="#1A2E35"/>
<path d="M128.404 57.775C128.011 58.5605 127.37 59.0423 126.777 59.1994C125.884 59.4351 125.501 58.4139 125.795 57.3979C126.063 56.4815 126.845 55.2561 127.717 55.476C128.578 55.696 128.856 56.8795 128.404 57.775Z" fill="#FCC1BB"/>
<path d="M128.131 66.9918C125.233 69.6783 123.673 83.8386 124.088 88.4104C124.503 92.9821 128.131 105.221 128.131 105.221L133.849 104.754C133.849 104.754 132.463 96.2656 128.935 89.4996C128.935 89.4996 131.182 72.6737 133.261 68.4843C133.261 68.4843 131.292 67.704 130.683 67.5312C130.011 67.3322 128.131 66.9918 128.131 66.9918Z" fill="#1A2E35"/>
<path d="M133.855 104.754L128.132 105.221C128.132 105.221 126.919 101.131 125.821 96.7945C125.359 94.9878 124.923 93.1392 124.598 91.5315C124.351 90.3166 124.167 89.2378 124.094 88.4104C124.046 87.8919 124.025 87.2426 124.025 86.5042C124.046 80.7646 125.564 69.3745 128.132 66.9918C128.132 66.9918 128.578 67.0703 129.113 67.1751C129.681 67.2903 130.342 67.4264 130.689 67.5259C131.298 67.704 133.267 68.4843 133.267 68.4843C132.989 69.0499 132.705 69.8406 132.422 70.7885C132.343 71.066 132.259 71.3593 132.18 71.663C131.266 75.0617 130.405 79.932 129.796 83.7234C129.271 87.0174 128.94 89.4944 128.94 89.4944C129.313 90.2118 129.665 90.945 129.985 91.6886C132.747 97.9676 133.855 104.754 133.855 104.754Z" fill="#399EFD"/>
<path d="M128.131 66.9918C128.131 66.9918 130.373 71.595 129.853 76.3081L126.477 73.6687L128.399 76.1562L124.088 84.0272C124.088 84.0219 124.434 69.9506 128.131 66.9918Z" fill="#407BFF"/>
<path d="M116.989 67.2327C116.989 67.2327 113.497 73.1974 114.117 88.5308L112.038 104.068H109.753L112.295 88.5308C112.295 88.5308 109.58 76.7899 112.347 68.1858C112.353 68.1805 114.605 67.2327 116.989 67.2327Z" fill="#1A2E35"/>
<path d="M116.989 67.2327C116.989 67.2327 113.497 73.1974 114.117 88.5308L112.038 104.068H109.753L112.295 88.5308C112.295 88.5308 109.58 76.7899 112.347 68.1858C112.353 68.1805 114.605 67.2327 116.989 67.2327Z" fill="#399EFD"/>
<path d="M117.488 67.2327C117.488 67.2327 116.952 66.9394 115.739 67.4264C114.532 67.9135 111.623 74.3024 111.623 74.3024L113.838 73.0246L112.594 74.3024L114.101 81.9638C114.101 81.9638 115.771 68.1701 117.488 67.2327Z" fill="#407BFF"/>
<path d="M120.665 66.1644C120.665 66.1644 118.602 67.5993 118.849 69.1075L115.325 69.9716C115.32 69.9716 117.405 66.4105 120.665 66.1644Z" fill="#407BFF"/>
<path d="M126.951 70.6L122.021 69.0027C122.021 69.0027 124.63 66.9028 125.444 65.7664L127.072 66.9866C127.072 66.9866 127.072 66.9866 127.077 66.9918C127.114 67.0808 127.597 68.2748 126.951 70.6Z" fill="#407BFF"/>
<path opacity="0.6" d="M120.665 66.1644C120.665 66.1644 118.602 67.5993 118.849 69.1075L115.325 69.9716C115.32 69.9716 117.405 66.4105 120.665 66.1644Z" fill="white"/>
<path opacity="0.6" d="M126.951 70.6L122.021 69.0027C122.021 69.0027 124.63 66.9028 125.444 65.7664L127.072 66.9866C127.072 66.9866 127.072 66.9866 127.077 66.9918C127.114 67.0808 127.597 68.2748 126.951 70.6Z" fill="white"/>
<path opacity="0.2" d="M129.985 91.6886C129.754 91.6939 129.513 91.6939 129.266 91.6939C127.848 91.6887 126.178 91.6206 124.598 91.5315C121.547 91.3587 118.812 91.1178 118.812 91.1178L119.037 87.3211L122.093 87.363L122.246 87.0803C122.76 86.965 123.369 86.7608 124.026 86.5042C125.806 85.8077 127.901 84.7394 129.229 84.0324C129.439 83.9172 129.628 83.8125 129.796 83.7234C129.271 87.0174 128.94 89.4944 128.94 89.4944C129.313 90.2119 129.665 90.945 129.985 91.6886Z" fill="black"/>
<path d="M133.262 68.4791C135.094 70.092 138.366 84.6818 137.3 86.5356C136.234 88.3894 123.836 90.4946 123.836 90.4946L122.645 87.3526C122.645 87.3526 132.469 84.6504 132.469 83.582C132.469 82.5504 130.752 78.1777 130.752 78.1777C130.752 78.1777 130.358 73.1974 131.739 70.7518C132.653 69.1389 133.262 68.4791 133.262 68.4791Z" fill="#1A2E35"/>
<path d="M133.262 68.4791C135.094 70.092 138.366 84.6818 137.3 86.5356C136.234 88.3894 123.836 90.4946 123.836 90.4946L122.645 87.3526C122.645 87.3526 132.469 84.6504 132.469 83.582C132.469 82.5504 130.752 78.1777 130.752 78.1777C130.752 78.1777 130.358 73.1974 131.739 70.7518C132.653 69.1389 133.262 68.4791 133.262 68.4791Z" fill="#399EFD"/>
<path d="M122.917 87.6354L118.811 87.1169L119.614 90.9974C119.614 90.9974 123.542 90.8717 123.747 89.662L122.917 87.6354Z" fill="#FCC1BB"/>
<path d="M116.028 89.552L117.289 92.1076L119.615 90.9974L118.811 87.1169L116.028 89.552Z" fill="#FCC1BB"/>
<path d="M124.041 86.8132L125.181 90.4632L123.595 90.7722L122.498 87.363L124.041 86.8132Z" fill="#407BFF"/>
<path opacity="0.7" d="M124.041 86.8132L125.181 90.4632L123.595 90.7722L122.498 87.363L124.041 86.8132Z" fill="white"/>
<path d="M81.7983 94.8675L84.2767 99.6016L79.1886 100.377C79.1886 100.377 77.5766 95.564 78.9575 94.7733L81.7983 94.8675Z" fill="#FFB570"/>
<path d="M82.5599 104.069L78.8843 103.686L79.1888 100.377L84.2769 99.6016L82.5599 104.069Z" fill="#FFB570"/>
<path d="M81.1627 92.5215L82.2916 95.4331L78.1855 96.4438L77.0093 93.5583L81.1627 92.5215Z" fill="#407BFF"/>
<path opacity="0.7" d="M81.1627 92.5215L82.2916 95.4331L78.1855 96.4438L77.0093 93.5583L81.1627 92.5215Z" fill="white"/>
<path d="M71.0235 57.5028C69.6321 58.8749 70.9448 75.7846 70.9868 77.8007C71.0288 79.8169 76.9623 94.7733 76.9623 94.7733L81.751 93.307C81.751 93.307 77.5661 79.9897 76.852 77.7117C76.1379 75.4389 76.2797 69.6156 76.2271 67.1438C76.1851 65.2219 76.0801 62.2055 74.7149 60.4355C73.3549 58.6706 71.0235 57.5028 71.0235 57.5028Z" fill="#1A2E35"/>
<path d="M71.0235 57.5028C69.6321 58.8749 70.9448 75.7846 70.9868 77.8007C71.0288 79.8169 76.9623 94.7733 76.9623 94.7733L81.751 93.307C81.751 93.307 77.5661 79.9897 76.852 77.7117C76.1379 75.4389 76.2797 69.6156 76.2271 67.1438C76.1851 65.2219 76.0801 62.2055 74.7149 60.4355C73.3549 58.6706 71.0235 57.5028 71.0235 57.5028Z" fill="#399EFD"/>
<path d="M83.4938 77.188L88.6711 75.8212L88.3088 80.9428C88.3088 80.9428 83.247 81.4508 82.7744 79.9321L83.4938 77.188Z" fill="#FFB570"/>
<path d="M92.6568 78.4711L91.4806 81.964L88.3091 80.9428L88.6714 75.8212L92.6568 78.4711Z" fill="#FFB570"/>
<path d="M70.7035 63.4257L70.2204 58.3826C69.3802 58.2412 68.9444 56.7016 67.9993 56.6178C65.6154 56.4031 61.693 56.4921 58.9835 56.6178C58.0909 56.6597 57.1878 56.7435 56.3371 56.8378L53.6592 67.568C54.0005 70.5163 54.2053 73.3756 54.3155 76.0412C54.6411 83.865 54.2053 85.2999 54.3523 87.1851H75.5605C74.8674 74.7634 74.2215 67.4371 73.7962 63.4257H70.7035Z" fill="#407BFF"/>
<path d="M70.703 63.4257L70.22 58.3826C69.3798 58.2412 68.944 56.7016 67.9988 56.6178C65.615 56.4031 61.6926 56.4921 58.9831 56.6178C58.4213 56.644 57.8594 56.6859 57.3081 56.7383L53.79 68.8144C54.0526 71.3228 54.2206 73.7579 54.3151 76.0464C54.6407 83.8702 54.2049 85.3051 54.3519 87.1904H75.5601C74.9667 74.8577 74.2999 67.4842 73.843 63.4309H70.703V63.4257Z" fill="white"/>
<path d="M67.248 57.9427C67.248 57.9427 66.6442 58.5607 65.9301 59.5347L65.6728 61.9698C65.6728 61.9698 69.3694 72.92 69.6582 78.0102L68.3035 79.3037L65.9353 77.2456C65.9353 77.2456 65.8986 69.7675 64.8746 61.9908L63.9767 59.828C63.9767 59.828 61.6716 58.833 60.7055 57.749C59.7393 56.6649 67.248 57.9427 67.248 57.9427Z" fill="#407BFF"/>
<path d="M59.1726 47.5372L61.5827 49.5324L64.8697 52.2555C64.7752 52.7007 64.6965 53.1458 64.6597 53.5805C64.4812 55.3557 65.0798 55.8689 66.9018 56.5497C66.9018 56.5497 66.9806 57.6809 65.7991 58.9377C65.7834 59.2257 65.0115 59.6918 65.0115 59.6918C65.0115 59.6918 64.5914 59.231 64.3394 59.0634C59.2933 58.9744 58.6265 56.644 58.6265 56.644C60.5955 54.7116 59.8447 50.4384 59.1726 47.5372Z" fill="#FFB570"/>
<path opacity="0.2" d="M64.8697 52.2555C64.7752 52.7006 64.6964 53.1458 64.6596 53.5804C63.4362 53.3343 61.7979 52.0356 61.6246 50.784C61.5616 50.3126 61.5511 49.8623 61.5826 49.5376L64.8697 52.2555Z" fill="black"/>
<path d="M69.0015 36.985C69.0015 36.985 71.1543 42.0908 68.8492 44.8507C66.5388 47.6052 64.0342 37.7181 64.0342 37.7181L69.0015 36.985Z" fill="#1A2E35"/>
<path d="M61.7082 51.1348C63.5775 52.753 65.9456 52.7059 67.7309 51.6061C68.8809 50.8992 69.7893 49.7523 70.1726 48.3384C70.2251 48.1551 70.2671 47.9613 70.2986 47.7623C70.8657 44.1646 69.8733 38.3779 65.8931 37.1159C63.0629 36.1942 60.0122 37.7443 59.088 40.5722C58.8202 41.3734 58.7572 42.2322 58.8832 43.0701C59.4241 46.9663 59.5554 49.2862 61.7082 51.1348Z" fill="#FFB570"/>
<path d="M64.9483 43.6986C64.9535 44.018 65.1583 44.2642 65.3736 44.2484C65.5889 44.2327 65.7306 43.9552 65.7096 43.641C65.6886 43.3215 65.4943 43.0754 65.2843 43.0911C65.0743 43.1068 64.922 43.3739 64.9483 43.6986Z" fill="#1A2E35"/>
<path d="M68.5713 43.4158C68.5766 43.7352 68.7866 43.9814 68.9966 43.9657C69.2067 43.95 69.3537 43.6724 69.3327 43.3582C69.3117 43.0388 69.1174 42.7926 68.9074 42.8083C68.6973 42.824 68.5451 43.1121 68.5713 43.4158Z" fill="#1A2E35"/>
<path d="M67.4316 43.6619C67.8885 44.6098 68.4766 45.4896 69.1802 46.2751C68.7601 46.626 68.2035 46.7778 67.6627 46.6836L67.4316 43.6619Z" fill="#FF8935"/>
<path d="M69.7791 41.829C69.7161 41.8657 69.6426 41.8605 69.5796 41.829C69.1752 41.5672 68.6764 41.5148 68.2248 41.6824C68.1303 41.7295 68.02 41.6876 67.9728 41.5934C67.9308 41.4991 67.9675 41.3892 68.0621 41.342C68.6239 41.1168 69.2645 41.1797 69.7738 41.5044C69.8631 41.5567 69.8946 41.6719 69.8421 41.761V41.7662C69.8263 41.7871 69.8001 41.8081 69.7791 41.829Z" fill="#1A2E35"/>
<path d="M64.1183 42.316C64.0815 42.316 64.0448 42.3108 64.008 42.2898C63.9345 42.2165 63.9293 42.1013 64.0028 42.0228C64.0028 42.0228 64.0028 42.0228 64.008 42.0175C64.4228 41.5724 65.0319 41.3629 65.6358 41.4467C65.7356 41.4677 65.8038 41.5672 65.7828 41.6667C65.7618 41.7662 65.662 41.829 65.5623 41.8133C65.0845 41.7609 64.6119 41.9337 64.2811 42.2846C64.2338 42.3213 64.1761 42.3317 64.1183 42.316Z" fill="#1A2E35"/>
<path d="M61.3881 37.9433L61.8239 38.6398C60.5847 39.2263 61.031 40.6927 61.3775 41.3368C62.1179 42.7141 61.5823 45.0654 60.5794 46.1023C60.5794 46.1023 60.4639 45.4791 59.9546 45.6938C59.4452 45.9085 59.9388 48.6107 59.9388 48.6107C59.9388 48.6107 59.4872 49.3753 58.1693 46.0604C56.9511 42.9916 56.51 40.3575 57.0088 39.0483L61.3881 37.9433Z" fill="#1A2E35"/>
<path d="M57.4187 46.4217C57.9228 47.2753 58.7524 47.8932 59.7133 48.1446C60.9893 48.4641 61.5931 47.312 61.2151 46.1284C60.8633 45.0758 59.7816 43.6095 58.5161 43.8295C57.2454 44.0442 56.8096 45.3639 57.4187 46.4217Z" fill="#FFB570"/>
<path d="M67.4841 47.4691C67.1271 47.9771 66.6808 48.9721 66.6808 48.9721C66.581 48.9459 66.4865 48.9249 66.3867 48.8935C65.0687 48.5322 64.5752 47.9352 64.4281 47.3748C64.3494 47.0711 64.3756 46.7726 64.4334 46.5422C64.4912 46.2751 64.5962 46.097 64.5962 46.097C65.179 46.7045 66.3815 47.1339 67.0326 47.3329C67.3109 47.4272 67.4841 47.4691 67.4841 47.4691Z" fill="#1A2E35"/>
<path d="M67.0381 47.3434L66.7913 47.7833C65.5521 47.4429 64.7225 47.0345 64.439 46.5527C64.4967 46.2856 64.6017 46.1075 64.6017 46.1075C65.1846 46.7098 66.387 47.1392 67.0381 47.3434Z" fill="white"/>
<path d="M66.3868 48.8987C65.0688 48.5374 64.5752 47.9404 64.4282 47.3801C64.8745 47.5215 65.3944 47.7362 65.8144 48.0661C66.14 48.3227 66.3028 48.6212 66.3868 48.8987Z" fill="#FD5652"/>
<path d="M68.3035 38.7603C68.3035 38.7603 69.6215 37.2678 69.3327 35.4349C69.3327 35.4349 61.7767 34.1361 58.3322 35.4349C54.8876 36.7336 57.0194 42.3213 57.0194 42.3213C57.0194 42.3213 60.5638 39.4044 61.8187 38.6398C63.0737 37.8752 66.9698 39.2525 66.9698 39.2525L68.3035 38.7603Z" fill="#1A2E35"/>
<path d="M59.5035 54.4812C59.5035 54.4812 60.4644 57.0211 64.1663 58.8121L65.1587 59.7285L63.5047 59.3095L61.8191 61.4252L57.1406 56.754C57.1459 56.754 58.6844 54.5126 59.5035 54.4812Z" fill="#407BFF"/>
<path d="M65.1639 59.7285L65.4316 58.2674C65.4316 58.2674 65.6522 56.644 65.0693 55.5128C65.0693 55.5128 64.8383 55.4605 64.707 54.8425L65.3319 54.9996C65.3319 54.9996 68.6399 56.2931 69.1177 60.5768L66.4923 58.7597L65.1639 59.7285Z" fill="#407BFF"/>
<path opacity="0.6" d="M65.1639 59.7285L65.4316 58.2674C65.4316 58.2674 65.6522 56.644 65.0693 55.5128C65.0693 55.5128 64.8383 55.4605 64.707 54.8425L65.3319 54.9996C65.3319 54.9996 68.6399 56.2931 69.1177 60.5768L66.4923 58.7597L65.1639 59.7285Z" fill="white"/>
<path opacity="0.6" d="M59.5035 54.4812C59.5035 54.4812 60.4644 57.0211 64.1663 58.8121L65.1587 59.7285L63.5047 59.3095L61.8191 61.4252L57.1406 56.754C57.1459 56.754 58.6844 54.5126 59.5035 54.4812Z" fill="white"/>
<path d="M73.6758 176.829L78.139 177.295L78.3648 174.719L78.9739 167.701L74.5107 167.23L73.8333 174.98L73.6758 176.829Z" fill="#B25B52"/>
<path d="M51.4062 176.263H55.7277L55.7697 175.289L55.775 175.169L55.9902 168.911L56.0007 168.785L56.0848 166.387H51.7581L51.4062 176.263Z" fill="#B25B52"/>
<path opacity="0.2" d="M74.5104 167.23L73.833 174.98L78.3645 174.719L78.9736 167.701L74.5104 167.23Z" fill="black"/>
<path opacity="0.2" d="M51.4326 175.714H51.4379L55.7698 175.169H55.7751L56.0009 169.131H55.9904L51.6584 169.476L51.4379 175.525L51.4326 175.714Z" fill="black"/>
<path d="M56.3264 176.007H51.0756C50.8971 176.007 50.7448 176.132 50.708 176.305L49.8574 180.144C49.7839 180.489 50.0044 180.825 50.351 180.898C50.3982 180.908 50.4455 180.914 50.4927 180.914C52.194 180.887 53.428 180.783 55.5651 180.783C56.8778 180.783 60.8474 180.919 62.6642 180.919C64.481 180.919 64.7173 179.128 63.9717 178.966C60.6374 178.243 58.1275 177.237 57.0616 176.284C56.8568 176.096 56.5995 176.002 56.3264 176.007Z" fill="#121212"/>
<path d="M78.611 175.865H73.3549C73.1764 175.865 73.0241 175.991 72.9873 176.164L72.1367 180.002C72.0632 180.348 72.2837 180.683 72.6303 180.757C72.6775 180.767 72.7248 180.772 72.772 180.772C74.4733 180.746 75.7073 180.641 77.8444 180.641C79.1571 180.641 83.1267 180.777 84.9435 180.777C86.7603 180.777 86.9966 178.986 86.251 178.824C82.9167 178.101 80.4068 177.096 79.3409 176.143C79.1361 175.96 78.8788 175.865 78.611 175.865Z" fill="#121212"/>
<path d="M50.8496 174.619H57.1139C57.1139 174.619 62.1547 155.562 64.15 141.847C64.4651 139.716 64.7959 136.924 65.1319 133.667C65.6675 128.409 66.2084 122.104 66.6967 116.03C68.1932 120.041 69.3326 125.78 70.2148 132.285C73.3495 155.599 73.0345 174.069 73.0345 174.069H79.3775C83.4522 143.046 79.619 111.515 76.9621 95.1451C76.4213 91.825 75.9277 89.1332 75.5601 87.1904H54.3519C54.3467 87.6303 54.4937 90.8404 54.6827 95.5326C55.108 106.216 55.7171 124.581 55.0765 135.285C54.5252 144.586 50.8496 174.619 50.8496 174.619Z" fill="url(#paint2_linear_97_429)"/>
<path d="M80.8001 176.625C80.4535 176.74 80.044 176.792 79.7499 176.813C79.7131 176.819 79.6764 176.798 79.6606 176.766C79.6449 176.735 79.6449 176.693 79.6659 176.667C79.7604 176.546 80.59 175.473 81.1099 175.504C81.2307 175.509 81.3304 175.572 81.3934 175.687C81.5037 175.871 81.5194 176.043 81.4407 176.201C81.3409 176.394 81.0889 176.53 80.8001 176.625ZM79.9494 176.609C80.6688 176.525 81.1571 176.342 81.2779 176.112C81.3252 176.017 81.3147 175.907 81.2359 175.776C81.1991 175.719 81.1571 175.687 81.0994 175.682C80.8211 175.672 80.296 176.19 79.9494 176.609Z" fill="#407BFF"/>
<path d="M79.7712 176.813C79.7555 176.819 79.745 176.819 79.7292 176.819C79.6977 176.813 79.6715 176.792 79.661 176.761C79.64 176.714 79.2041 175.661 79.4667 175.174C79.5349 175.043 79.6505 174.959 79.7975 174.933C79.976 174.897 80.123 174.954 80.2018 175.096C80.4223 175.478 80.1178 176.447 79.8132 176.792C79.7975 176.798 79.787 176.808 79.7712 176.813ZM79.7922 175.122C79.7187 175.143 79.6662 175.19 79.6295 175.258C79.4719 175.551 79.6452 176.18 79.7712 176.53C80.0075 176.148 80.1913 175.431 80.0443 175.179C80.018 175.132 79.9655 175.08 79.8342 175.106C79.8185 175.111 79.8027 175.117 79.7922 175.122Z" fill="#407BFF"/>
<path d="M58.5159 176.625C58.1693 176.74 57.7598 176.792 57.4657 176.813C57.429 176.819 57.3922 176.798 57.3765 176.766C57.3607 176.735 57.3607 176.693 57.3817 176.667C57.4762 176.546 58.3059 175.473 58.8257 175.504C58.9465 175.509 59.0462 175.572 59.1092 175.687C59.2195 175.871 59.2353 176.043 59.1565 176.201C59.062 176.394 58.8099 176.53 58.5159 176.625ZM57.6705 176.609C58.3899 176.525 58.8782 176.342 58.999 176.112C59.0462 176.017 59.0357 175.907 58.957 175.776C58.9202 175.719 58.8782 175.687 58.8204 175.682C58.5422 175.672 58.0171 176.19 57.6705 176.609Z" fill="#407BFF"/>
<path d="M57.4924 176.813C57.4767 176.819 57.4662 176.819 57.4504 176.819C57.4189 176.813 57.3927 176.792 57.3822 176.761C57.3612 176.714 56.9253 175.661 57.1879 175.174C57.2561 175.043 57.3717 174.959 57.5187 174.933C57.6972 174.897 57.8442 174.954 57.923 175.096C58.1435 175.478 57.839 176.447 57.5344 176.792C57.5187 176.798 57.5082 176.808 57.4924 176.813ZM57.5082 175.122C57.4347 175.143 57.3822 175.19 57.3454 175.258C57.1879 175.551 57.3611 176.18 57.4872 176.53C57.7235 176.148 57.9072 175.431 57.7602 175.179C57.734 175.132 57.6815 175.08 57.5502 175.106C57.5344 175.111 57.5239 175.117 57.5082 175.122Z" fill="#407BFF"/>
<path opacity="0.3" d="M66.6968 116.024C68.1933 120.041 69.338 125.775 70.2148 132.285C72.3467 123.581 67.2481 107.483 67.2481 107.483L66.6968 116.024Z" fill="black"/>
<path d="M76.1429 90.9504L75.8068 85.6193H54.8559C54.8559 85.6193 54.2048 86.8709 54.2731 90.4739L76.1429 90.9504Z" fill="#1A2E35"/>
<path d="M76.1435 86.2949H73.9014V87.8397H76.1435V86.2949Z" fill="black"/>
<path d="M73.2705 86.2949H63.8032V87.8397H73.2705V86.2949Z" fill="black"/>
<path d="M63.173 86.2949H54.9712V87.8397H63.173V86.2949Z" fill="black"/>
<path opacity="0.3" d="M54.3522 87.1904C54.3469 87.6303 54.494 90.8404 54.683 95.5326C58.7314 96.5747 67.7051 96.2291 67.7051 96.2291L68.5347 95.5955L68.8445 96.2291L76.9624 95.1451C76.4215 91.825 75.9279 89.1332 75.5604 87.1904H54.3522Z" fill="black"/>
<path d="M67.9934 87.9444H69.9835C70.141 87.9444 70.2723 87.8188 70.2723 87.6564V86.4729C70.2723 86.3158 70.1462 86.1849 69.9835 86.1849H67.9934C67.8359 86.1849 67.7046 86.3106 67.7046 86.4729V87.6564C67.7046 87.8188 67.8306 87.9444 67.9934 87.9444Z" fill="white"/>
<path d="M68.5923 90.39C68.4138 92.003 68.1302 93.5531 67.7049 94.9566L53.3753 94.5376C53.3753 94.5376 53.6589 83.2837 53.7797 78.7067C53.8269 76.9733 53.5119 73.517 53.1075 69.8984C52.8555 67.6151 52.5615 65.269 52.2989 63.2424C52.2779 63.0905 52.2622 62.9439 52.2569 62.792C52.0784 59.7547 54.1262 56.9949 57.1507 56.3088L67.6787 72.5325L67.7049 72.5744C67.7049 72.5744 67.7784 72.9619 67.8835 73.6479C68.104 75.0514 68.4715 77.696 68.6816 80.8224C68.8811 83.8021 68.9441 87.2165 68.5923 90.39Z" fill="#399EFD"/>
<path d="M57.8756 55.7956L56.5576 56.3507L57.1457 60.116L59.5874 62.2055L58.8207 64.8815L67.7052 72.5796C67.7052 72.5744 60.6585 61.8441 57.8756 55.7956Z" fill="#1A2E35"/>
<path d="M57.8756 55.7956L56.5576 56.3507L57.1457 60.116L59.5874 62.2055L58.8207 64.8815L67.7052 72.5796C67.7052 72.5744 60.6585 61.8441 57.8756 55.7956Z" fill="#407BFF"/>
<path d="M77.3929 93.9197L68.9863 94.4905L68.5925 90.39V90.3848L67.6526 80.5605L67.0435 74.1978C67.138 73.9621 67.2325 73.7317 67.3165 73.5013C67.4478 73.1714 67.5685 72.8519 67.6788 72.5325C71.8217 60.9958 67.348 56.4921 67.348 56.4921C70.9974 56.623 73.271 59.2362 73.271 59.2362C74.8147 62.6349 76.0592 68.3954 76.1904 74.3916C76.264 77.7117 76.222 80.6339 76.1852 82.2782C76.1694 83.1737 76.1484 83.6922 76.1484 83.6922L77.3929 93.9197Z" fill="#399EFD"/>
<path d="M67.3425 56.4921C67.3425 56.4921 70.6663 58.1208 71.979 61.0848L71.2229 62.0641L72.8507 64.8082L67.0327 74.1978C67.038 74.1978 69.5426 59.9537 67.3425 56.4921Z" fill="#1A2E35"/>
<path d="M67.3425 56.4921C67.3425 56.4921 70.6663 58.1208 71.979 61.0848L71.2229 62.0641L72.8507 64.8082L67.0327 74.1978C67.038 74.1978 69.5426 59.9537 67.3425 56.4921Z" fill="#407BFF"/>
<path opacity="0.3" d="M76.1855 82.2782C74.3162 81.9954 71.4544 81.5136 68.682 80.8224C68.3354 80.7438 67.9941 80.6548 67.6528 80.5605C66.0198 80.1259 64.4656 79.6126 63.2211 79.0314C59.6663 77.3608 55.3343 72.5639 53.108 69.8983C52.8559 67.6151 52.5619 65.269 52.2993 63.2424C52.2783 63.0905 52.2626 62.9439 52.2573 62.792H57.7497C57.7497 62.792 65.8465 72.5901 67.3168 73.5013C67.364 73.5275 67.406 73.5484 67.4375 73.5589C67.5268 73.5851 67.6791 73.6165 67.8839 73.6479C69.3594 73.8783 73.539 74.203 76.1907 74.3915C76.2642 77.7117 76.2222 80.6338 76.1855 82.2782Z" fill="black"/>
<path d="M81.1578 76.6853L84.2768 76.9838L83.3422 81.0999L80.2231 80.8538L81.1578 76.6853Z" fill="#407BFF"/>
<path opacity="0.7" d="M81.1578 76.6853L84.2768 76.9838L83.3422 81.0999L80.2231 80.8538L81.1578 76.6853Z" fill="white"/>
<path d="M52.5301 60.5768C50.0359 68.0655 60.5796 76.214 63.2208 78.3715C65.862 80.5239 81.541 81.4298 81.541 81.4298L82.3654 76.5072C82.3654 76.5072 68.0831 74.8838 67.0382 74.1978C65.988 73.5118 59.1671 64.9862 57.4028 62.2893C55.6438 59.5975 52.5301 60.5768 52.5301 60.5768Z" fill="#399EFD"/>
<defs>
<linearGradient id="paint0_linear_97_429" x1="105.367" y1="130.579" x2="126.476" y2="130.579" gradientUnits="userSpaceOnUse">
<stop stop-color="#3D5475"/>
<stop offset="0.2549" stop-color="#364F6F"/>
<stop offset="0.6276" stop-color="#22425F"/>
<stop offset="1" stop-color="#083149"/>
</linearGradient>
<linearGradient id="paint1_linear_97_429" x1="116.981" y1="130.64" x2="132.622" y2="130.64" gradientUnits="userSpaceOnUse">
<stop stop-color="#3D5475"/>
<stop offset="0.2549" stop-color="#364F6F"/>
<stop offset="0.6276" stop-color="#22425F"/>
<stop offset="1" stop-color="#083149"/>
</linearGradient>
<linearGradient id="paint2_linear_97_429" x1="50.8512" y1="130.903" x2="81.1597" y2="130.903" gradientUnits="userSpaceOnUse">
<stop stop-color="#3D5475"/>
<stop offset="0.2549" stop-color="#364F6F"/>
<stop offset="0.6276" stop-color="#22425F"/>
<stop offset="1" stop-color="#083149"/>
</linearGradient>
</defs>
</svg>
