<svg width="135" height="183" viewBox="0 0 135 183" fill="none" xmlns="http://www.w3.org/2000/svg">
<path d="M3.50977 96.07H81.9898L83.4598 2.54004H4.97977L3.50977 96.07Z" fill="#8FC6BF"/>
<path d="M9.70996 89.9699H75.23L76.46 5.17993H10.94L9.70996 89.9699Z" fill="white"/>
<path d="M1.52979 98.4H84.0898L84.2598 95.71H1.56979L1.52979 98.4Z" fill="#7C8183"/>
<path d="M3.14014 5.62H85.3001L85.6001 0H3.21014L3.14014 5.62Z" fill="#7C8183"/>
<path d="M9.70996 4.6H78.77L79.02 0H9.76996L9.70996 4.6Z" fill="white"/>
<path d="M1.97998 96.07H80.46L81.93 2.54004H3.44998L1.97998 96.07Z" fill="#406EFF"/>
<path d="M8.18018 88.4199H73.7102L74.9302 5.17993H9.41018L8.18018 88.4199Z" fill="#80B2FF"/>
<path d="M0 98.4H82.56L82.73 95.71H0.05L0 98.4Z" fill="#9DA4A7"/>
<path d="M1.60986 5.62H83.7699L84.0699 0H1.67986L1.60986 5.62Z" fill="url(#paint0_linear_97_2376)"/>
<path d="M8.18018 4.6H77.2502L77.4902 0H8.24018L8.18018 4.6Z" fill="white"/>
<path d="M70.5098 77.7499H15.0298V9.12988H16.0698V76.7099H70.5098V77.7499Z" fill="#CFD0D3"/>
<path d="M50.4199 9.12988H19.6299V11.1899H50.4199V9.12988Z" fill="#E5E5FF"/>
<path d="M40.2199 12.6099H19.6299V14.6699H40.2199V12.6099Z" fill="#E5E5FF"/>
<path d="M35.0299 16.0899H19.6299V18.1499H35.0299V16.0899Z" fill="#E5E5FF"/>
<path d="M44.3699 19.5799H19.6299V21.6399H44.3699V19.5799Z" fill="#E5E5FF"/>
<path d="M41.9499 23.0599H19.6299V25.1199H41.9499V23.0599Z" fill="#E5E5FF"/>
<path d="M61.8296 62.5699L65.7296 67.9599C66.8296 67.0499 67.6796 65.8499 68.1896 64.4899L61.8296 62.5699Z" fill="#CFD0D3"/>
<path d="M65.1198 54.8499L61.2998 61.3299L68.4998 63.5099C68.6398 62.9099 68.7198 62.2799 68.7198 61.6399C68.7198 58.8099 67.2898 56.3199 65.1198 54.8499Z" fill="#CBCBFF"/>
<path d="M60.3297 62.2399L52.9497 64.7499C54.1797 67.7299 57.1097 69.8299 60.5297 69.8299C62.1397 69.8299 63.6297 69.3599 64.8997 68.5599L60.3297 62.2399Z" fill="#5254CF"/>
<path d="M60.1698 61.2099L64.2198 54.3299C63.1098 53.7599 61.8498 53.4399 60.5198 53.4399C55.9898 53.4399 52.3198 57.1099 52.3198 61.6399C52.3198 62.3799 52.4298 63.0999 52.6098 63.7799L60.1698 61.2099Z" fill="#1552F0"/>
<path d="M19.6299 61.8099L25.3899 53.1199L38.3699 51.3799L54.9099 41.4399L65.0199 27.9599" stroke="#CFD0D3" stroke-width="2" stroke-miterlimit="10"/>
<path d="M20.6297 60.0899C21.3897 60.5299 21.6497 61.4999 21.2097 62.2599C20.7697 63.0199 19.7997 63.2799 19.0397 62.8399C18.2797 62.3999 18.0197 61.4299 18.4597 60.6699C18.8997 59.9099 19.8697 59.6499 20.6297 60.0899Z" fill="#9DA4A7"/>
<path d="M26.3099 51.8799C27.0699 52.3199 27.3299 53.2899 26.8899 54.0499C26.4499 54.8099 25.4799 55.0699 24.7199 54.6299C23.9599 54.1899 23.6999 53.2199 24.1399 52.4599C24.5799 51.6999 25.5499 51.4399 26.3099 51.8799Z" fill="#9DA4A7"/>
<path d="M39.4695 49.8799C40.2295 50.3199 40.4895 51.2899 40.0495 52.0499C39.6095 52.8099 38.6395 53.0699 37.8795 52.6299C37.1195 52.1899 36.8595 51.2199 37.2995 50.4599C37.7395 49.6999 38.7095 49.4399 39.4695 49.8799Z" fill="#9DA4A7"/>
<path d="M55.3299 40.2699C56.0899 40.7099 56.3499 41.6799 55.9099 42.4399C55.4699 43.1999 54.4999 43.4599 53.7399 43.0199C52.9799 42.5799 52.7199 41.6099 53.1599 40.8499C53.5899 40.0899 54.5699 39.8299 55.3299 40.2699Z" fill="#9DA4A7"/>
<path d="M65.7996 26.5899C66.5596 27.0299 66.8196 27.9999 66.3796 28.7599C65.9396 29.5199 64.9696 29.7799 64.2096 29.3399C63.4496 28.8999 63.1896 27.9299 63.6296 27.1699C64.0696 26.4099 65.0396 26.1499 65.7996 26.5899Z" fill="#9DA4A7"/>
<path d="M87.1002 170.82L86.8402 172.64C86.8402 172.64 82.4202 174.83 81.7002 174.86C80.9802 174.88 72.2502 173.19 73.5002 181.49L95.1502 180.75L94.7002 170.56L87.1002 170.82Z" fill="#121212"/>
<path d="M102.42 179.63C102.42 180.35 102.42 181.63 102.42 181.63C102.42 181.63 110.84 184.45 114.85 180.92C114.85 180.92 114.91 180.2 114.71 179.15C114.45 177.74 113.73 175.74 111.81 174.04L111.04 169.54L104.67 171.14V173.7C104.67 173.7 102.66 178.36 102.44 179.48C102.43 179.53 102.42 179.59 102.42 179.63Z" fill="#121212"/>
<path d="M109.31 94.6802L112.36 171.04L103.38 171.84L95.5704 109.74V171.84H85.5704L82.9204 95.0002L109.31 94.6802Z" fill="url(#paint1_linear_97_2376)"/>
<path d="M102.42 179.63C102.42 180.35 102.42 181.63 102.42 181.63C102.42 181.63 110.84 184.45 114.85 180.92C114.85 180.92 114.91 180.2 114.71 179.15C109.11 182.14 102.82 179.63 102.44 179.48C102.43 179.53 102.42 179.59 102.42 179.63Z" fill="#121212"/>
<path d="M95.1404 180.75L94.9504 178.72L73.3804 179.72L73.5004 181.49L95.1404 180.75Z" fill="#121212"/>
<path d="M56.3101 80.8801C56.3101 80.8801 73.5501 85.0501 75.9501 83.7901C78.3501 82.5301 84.7101 71.9001 84.7101 71.9001L79.9101 65.7001L72.2801 77.6001L56.8401 76.9301" fill="#F4B7AC"/>
<path d="M56.3602 80.9401C56.3602 80.9401 52.6202 80.4501 50.9102 79.9301C49.7602 79.5301 47.1602 78.0301 46.3202 77.1601C45.7402 76.9501 44.8602 73.5101 45.0302 72.9301C45.0402 72.3501 45.5702 72.2001 46.0802 72.9901C47.0902 74.5701 47.4002 75.5801 47.4002 75.5801L50.1502 77.6701C50.1502 77.6701 48.2002 78.2501 47.8802 77.7201C47.5602 77.2001 47.2302 73.0301 47.6002 72.5801C47.9802 72.1301 49.0502 72.7401 49.0902 73.7201C49.0902 73.7201 49.1602 72.7601 49.5002 72.5901C49.8402 72.4201 50.2202 72.6401 50.4402 73.9401C50.4402 73.9401 50.8102 73.2201 51.2402 73.2701C52.1202 73.4801 52.1502 76.2201 52.3102 76.4201C52.4702 76.6201 55.9202 75.3801 57.5302 78.2701C59.1402 81.1701 56.3602 80.9401 56.3602 80.9401Z" fill="#F4B7AC"/>
<path d="M49.0901 73.6801C49.0301 74.2201 49.0501 74.7601 49.0901 75.3001C49.1501 75.8401 49.2101 76.3801 49.4201 76.8901C49.3301 75.8201 49.2901 74.7501 49.0901 73.6801Z" fill="#E07F86"/>
<path d="M50.4401 73.9C50.3901 74.35 50.4401 74.79 50.4901 75.23C50.5701 75.67 50.6501 76.11 50.8601 76.51C50.7601 75.62 50.6701 74.76 50.4401 73.9Z" fill="#E07F86"/>
<path d="M94.9203 58.11C94.9203 58.11 79.3403 83.93 77.0303 84.93C74.7203 85.93 56.2803 84 56.2803 84L56.8403 76.18L72.1103 75.83L80.0303 56.08C80.0303 56.09 87.8203 50.75 94.9203 58.11Z" fill="#399EFD"/>
<path opacity="0.4" d="M72.0103 75.9701L73.8303 71.9501C73.3203 73.9901 73.3403 74.4801 74.3303 74.8601C77.2603 76.0001 77.3103 79.6101 77.4003 82.7001C75.9203 77.7701 74.1903 75.7201 72.0103 75.9701Z" fill="#D0D1D3"/>
<path d="M114.86 111.05L110.48 111.41L109.09 111.52L97.6302 112.09L95.1302 104.63L93.7402 111.81L78.9702 111.69L79.2102 106.59L80.8302 72.7001L79.7602 57.4601L79.7002 56.6701L79.6002 55.1601C79.6002 55.1601 86.5702 49.6501 95.1202 48.1001C107.85 49.0201 113.93 54.9801 113.93 54.9801C113.93 54.9801 113.81 56.3201 113.56 58.5701C113.14 62.4501 112.37 68.9801 111.32 75.8701C111.3 76.0401 111.22 76.3201 111.21 76.7101C111.18 77.1701 111.19 77.7801 111.22 78.5301V78.5601C111.24 79.0201 111.27 79.5201 111.31 80.0801C111.31 80.0801 111.31 80.1001 111.32 80.1501C112.11 92.2801 114.86 111.05 114.86 111.05Z" fill="#399EFD"/>
<path opacity="0.4" d="M79.2202 106.59L80.8402 72.6999L79.7602 57.4599L79.7102 56.6699L81.8302 69.3099L82.1202 83.2199L79.2202 106.59Z" fill="#D0D1D3"/>
<path opacity="0.4" d="M111.22 78.5498C111.22 78.5498 111.21 78.5498 111.2 78.5498C111.2 78.5198 111.21 78.4998 111.22 78.5198C111.24 78.5398 111.24 78.5498 111.22 78.5498Z" fill="#D0D1D3"/>
<path d="M127.19 54.1401C127.24 54.0001 127.15 47.7701 127.15 47.7701L132.38 47.3901L132.52 54.2801L127.19 54.1401Z" fill="#F4B7AC"/>
<path d="M133.37 43.4299L126.38 41.8799C126.38 41.8799 125.64 46.2099 125.75 46.3199C125.86 46.4299 127.97 49.4799 127.97 49.4799C127.97 49.4799 131.3 49.9599 133.19 48.2799C133.19 48.2799 133.99 46.9099 133.94 45.5199" fill="#EDA89E"/>
<path d="M126.2 43.8999L125.82 45.7999C125.82 45.7999 124.18 45.3699 123.56 44.7599C122.58 43.8099 120.84 44.5099 120.98 44.9599C121.12 45.4099 126 49.4899 128.87 49.5499C128.87 49.5499 129.89 48.5699 129.46 47.1899C129.02 45.7999 126.2 43.8999 126.2 43.8999Z" fill="#EDA89E"/>
<path d="M129.45 47.1801C129.57 47.5501 129.58 47.9001 129.53 48.2001C129.4 49.0101 128.86 49.5401 128.86 49.5401C126.52 49.4901 122.87 46.7901 121.5 45.5401C121.26 45.3101 121.08 45.1401 121 45.0301C120.98 44.9901 120.97 44.9701 120.96 44.9501C120.82 44.5001 122.56 43.8101 123.54 44.7601C124.16 45.3601 125.8 45.7901 125.8 45.7901L126.19 43.8901C126.2 43.9001 129.02 45.8001 129.45 47.1801Z" fill="#EDA89E"/>
<path d="M129.53 48.2399C129.9 49.4099 128.86 49.5799 128.86 49.5799C126.52 49.5299 122.87 46.8299 121.5 45.5799C121.26 45.3499 121.08 45.1799 121 45.0699C121.23 44.8699 121.74 44.7099 121.97 44.6499C122.71 44.4799 123.49 45.2199 123.49 45.2199C123.49 45.2199 124.4 45.8399 125.87 46.0899C127.36 46.3499 128.58 46.9099 129.53 48.2399Z" fill="#F4B7AC"/>
<path d="M128.02 42.4098C128.1 42.4198 128.16 42.3398 128.2 42.3398C128.24 42.3398 128.28 42.3498 128.33 42.3498C128.62 39.3798 128.95 35.5598 128.34 35.6198C127.45 35.7098 126.74 39.2398 126.4 41.6898C126.39 41.7898 125.82 45.6898 125.81 45.7798C126.12 45.8698 127.25 46.3098 127.64 45.5298C127.9 45.0398 128.01 43.5998 128.02 42.4098Z" fill="#F4B7AC"/>
<path d="M134.32 49.4502L125.6 50.3302L125.75 65.5902L129.42 74.9302C134.82 74.1602 134.32 49.4502 134.32 49.4502Z" fill="#399EFD"/>
<path d="M129.42 74.9298C129.27 74.9798 129.03 74.9998 128.73 74.9898C125.91 74.8398 117.22 71.7498 111.75 69.7198C109.03 68.7098 107.11 67.9598 107.11 67.9598C107.4 57.7398 110.87 54.7998 110.87 54.7998L128.28 64.3198L129.42 74.9298Z" fill="#399EFD"/>
<path opacity="0.4" d="M128.73 74.99C125.91 74.84 117.22 71.75 111.75 69.72L111.36 65.71L128.73 74.99Z" fill="#D0D1D3"/>
<path opacity="0.4" d="M126.7 70.9599C126.7 70.9599 125.13 66.3199 125.81 63.0299L122.6 61.4199C124.35 62.5799 124.61 63.2199 124.14 64.1699C123.36 65.7499 123.77 67.2999 124.64 68.7699L126.7 70.9599Z" fill="#D0D1D3"/>
<path d="M94.54 72.5201L94.59 83.2201L94.79 93.9301L94.94 99.2801L95.15 104.64L95.23 99.2801L95.26 93.9301L95.2 83.2201L95.01 72.5101L94.86 67.1601L94.65 61.8101L94.56 67.1601" fill="#37496F"/>
<path d="M102.49 48.8899L101.96 51.2699C101.96 51.2699 101.76 51.8299 101.41 52.7399C100.26 55.7299 97.4998 62.4999 94.8398 65.5699C92.0898 59.8199 91.1698 55.3599 90.8598 53.0199C90.6998 51.8399 90.9398 51.2699 90.9398 51.2699C90.9398 51.2699 90.7998 49.2299 90.7998 48.7199C90.7998 48.2199 90.7798 44.6299 90.7798 44.6299L95.5598 45.3899L101.43 39.8599C101.43 39.8599 101.38 40.2799 101.35 40.9299C101.29 41.8499 101.25 43.2299 101.37 44.4499C101.44 45.1299 101.58 45.8499 101.75 46.5099C102.08 47.8299 102.49 48.8899 102.49 48.8899Z" fill="#F4B7AC"/>
<path opacity="0.5" d="M101.75 46.4999C98.0295 54.0699 92.5996 50.9299 90.7896 49.6099V45.8199L95.5695 46.5699L101.36 40.9099C101.3 41.8299 101.26 43.2099 101.38 44.4299C101.44 45.1199 101.59 45.8399 101.75 46.4999Z" fill="#E07F86"/>
<path d="M102.23 52.7203C101.33 55.0703 99.4298 67.4403 97.4198 71.1103C96.4698 72.8603 95.4598 74.4503 94.4698 75.5903C93.8498 74.3003 93.3498 73.0103 92.9298 71.7403C91.1798 66.4703 91.0798 53.7103 90.7998 51.5203C94.0898 53.9603 98.3198 54.0303 102.2 48.2803L102.23 52.7203Z" fill="white"/>
<path d="M91.0698 57.2703L95.2598 53.1203L99.7698 57.8803L99.1798 59.3803L95.2598 54.1803L91.5698 59.1903L91.0698 57.2703Z" fill="#D0D1D3"/>
<path d="M93.7598 54.8203C94.4898 53.9603 95.7498 54.0003 96.7198 54.7403L95.2498 58.2303C94.5198 57.1803 94.0298 56.0403 93.7598 54.8203Z" fill="url(#paint2_linear_97_2376)"/>
<path d="M98.19 71.6903C97.24 73.4403 95.55 75.3803 94.55 76.5303C93.93 75.2403 92.46 72.9603 92.04 71.6903L94.6 57.1703L95.72 57.0903L98.19 71.6903Z" fill="url(#paint3_linear_97_2376)"/>
<g opacity="0.4">
<path opacity="0.4" d="M102.27 48.0898L94.6104 77.0598L103.64 64.2898L101.93 59.1498L105.75 56.7398L104.23 50.8898L102.27 48.0898Z" fill="#D0D1D3"/>
<path opacity="0.4" d="M90.8102 49.0098C90.9902 57.7098 92.4802 67.2898 94.4902 76.6798L86.1802 64.2398L88.8502 59.4598L85.6802 57.2898L88.4102 51.2498L90.8102 49.0098Z" fill="#D0D1D3"/>
</g>
<path d="M89.1001 39.1097C89.1001 39.1097 87.6401 35.3897 85.2201 36.2097C82.8001 37.0297 85.3001 43.2097 89.0101 41.9997L89.1001 39.1097Z" fill="#F4B7AC"/>
<path d="M87.3703 36.8498C87.1703 43.5598 89.8703 48.8798 94.4003 49.0098C98.9303 49.1398 103.58 44.0398 103.78 37.3298C103.98 30.6198 100.47 25.0598 95.9403 24.9298C92.8803 24.8398 89.4903 27.3598 87.9703 30.9898C87.2303 32.7498 87.4303 34.6598 87.3703 36.8498Z" fill="#F4B7AC"/>
<path d="M99.7502 31.5998C99.7502 31.5998 94.9602 34.3298 93.6502 33.3098C92.3402 32.2898 92.6902 30.7898 92.6902 30.7898C92.6902 30.7898 86.4402 34.1698 84.4302 32.0498C82.4202 29.9198 86.3102 28.5998 86.3102 28.5998C86.3102 28.5998 84.2502 27.7198 84.8902 24.7398C85.6202 21.1498 90.8202 21.5698 92.5502 22.1298C92.5502 22.1298 92.4302 19.9398 94.4102 19.0798C96.3802 18.2198 101.81 22.2798 102.89 25.5498C102.89 25.5498 104.91 24.5898 105.81 26.3698C106.71 28.1498 105.32 29.8898 105.32 29.8898C105.32 29.8898 106.3 30.3598 106.32 31.1398C106.36 32.5998 104.9 33.7798 104.9 37.0998C104.9 37.0998 102.9 38.0398 102.93 40.8198C102.93 40.8198 101.53 36.1398 102.87 33.3098C102.87 33.2998 99.8502 33.6598 99.7502 31.5998Z" fill="#414042"/>
<path d="M103.01 41.5997C105.52 42.2497 107.3 39.6697 107.48 37.6697C107.57 36.6597 107.26 35.8098 106.43 35.5798C104.69 35.1098 103.57 36.8597 103.06 37.9397C102.85 38.3897 103.01 41.5997 103.01 41.5997Z" fill="#F4B7AC"/>
<path d="M105.85 37.3397C104.15 37.4697 103.31 39.0897 103.28 39.1597C103.24 39.2297 103.27 39.3197 103.34 39.3497C103.36 39.3597 103.39 39.3697 103.42 39.3597C103.47 39.3597 103.51 39.3297 103.53 39.2797C103.54 39.2697 103.85 38.6697 104.46 38.1897C105.08 38.5197 104.87 39.5397 104.87 39.5497C104.85 39.6297 104.9 39.6997 104.98 39.7197C104.99 39.7197 105.01 39.7197 105.02 39.7197C105.08 39.7097 105.13 39.6697 105.15 39.6097C105.16 39.5597 105.38 38.4897 104.71 38.0097C105.02 37.8097 105.39 37.6597 105.83 37.6197C105.84 37.6197 105.86 37.6197 105.87 37.6197C105.94 37.6297 106.01 37.5497 106 37.4697C105.99 37.3897 105.92 37.3297 105.85 37.3397Z" fill="#D47280"/>
<path d="M86.3101 32.4298L87.4401 39.5198L87.7701 31.4798L86.3101 32.4298Z" fill="#414042"/>
<path d="M99.2304 40.2198C99.2504 40.3598 99.6004 40.4298 100.01 40.3798C100.43 40.3298 100.75 40.1798 100.74 40.0498C100.72 39.9098 100.37 39.8398 99.9604 39.8898C99.5404 39.9298 99.2104 40.0798 99.2304 40.2198Z" fill="#D47280"/>
<path d="M99.1303 41.0398C99.1503 40.8998 99.5103 40.8498 99.9203 40.9198C100.33 40.9898 100.65 41.1598 100.62 41.2898C100.6 41.4298 100.24 41.4798 99.8303 41.4098C99.4203 41.3398 99.1103 41.1698 99.1303 41.0398Z" fill="#D47280"/>
<path d="M88.6103 40.7298C88.5903 40.5898 88.2403 40.5198 87.8303 40.5698C87.4103 40.6198 87.0903 40.7698 87.1003 40.8998C87.1203 41.0398 87.4703 41.1098 87.8803 41.0598C88.3003 41.0098 88.6303 40.8598 88.6103 40.7298Z" fill="#D47280"/>
<path d="M88.7102 39.9098C88.6902 40.0498 88.3302 40.0998 87.9202 40.0298C87.5102 39.9598 87.1902 39.7898 87.2202 39.6598C87.2402 39.5198 87.6002 39.4698 88.0102 39.5398C88.4202 39.5998 88.7302 39.7698 88.7102 39.9098Z" fill="#D47280"/>
<path d="M93.1604 42.6298C93.1404 42.6298 93.1304 42.6298 93.1104 42.6298C92.9004 42.6198 92.3804 42.4498 92.2904 41.1698C92.1304 39.0598 92.4404 37.8898 92.4504 37.8398C92.4704 37.7598 92.5504 37.7198 92.6204 37.7398C92.7004 37.7598 92.7404 37.8398 92.7204 37.9098C92.7204 37.9198 92.4204 39.0998 92.5704 41.1498C92.6304 42.0198 92.9004 42.3398 93.1204 42.3498C93.4504 42.3698 93.9304 41.7898 94.1004 40.8298C94.1104 40.7498 94.1904 40.6998 94.2704 40.7198C94.3504 40.7298 94.4004 40.8098 94.3804 40.8898C94.2004 41.8898 93.6904 42.6098 93.1604 42.6298Z" fill="#D47280"/>
<path d="M93.6303 44.9198C95.8003 44.9798 97.1503 43.3598 97.2103 43.2898C97.2603 43.2298 97.2503 43.1398 97.1903 43.0898C97.1303 43.0398 97.0403 43.0498 96.9903 43.1098C96.9803 43.1298 95.6703 44.6998 93.6403 44.6398C91.6203 44.5798 90.7003 42.9598 90.6903 42.9398C90.6503 42.8698 90.5603 42.8498 90.5003 42.8798C90.4303 42.9198 90.4103 42.9998 90.4403 43.0698C90.4803 43.1498 91.4503 44.8598 93.6303 44.9198Z" fill="#D47280"/>
<path d="M89.4806 35.6898C89.9506 35.5398 90.4706 35.6098 91.0406 35.8998C91.2406 35.9998 91.4806 35.9198 91.5906 35.7198C91.6906 35.5198 91.6106 35.2798 91.4106 35.1698C90.6306 34.7698 89.9006 34.6798 89.2106 34.9098C88.1406 35.2698 87.5906 36.7598 87.7906 36.8598C87.8506 36.8898 88.7406 35.9298 89.4806 35.6898Z" fill="#2D2A2B"/>
<path d="M99.5808 37.3098C99.7908 37.2398 99.4408 35.6798 98.4308 35.1898C97.7808 34.8798 97.0408 34.8698 96.2208 35.1698C96.0108 35.2498 95.9008 35.4798 95.9808 35.6898C96.0608 35.8998 96.2908 36.0098 96.5008 35.9298C97.1108 35.7098 97.6408 35.7098 98.0808 35.9198C98.7808 36.2598 99.5408 37.3198 99.5808 37.3098Z" fill="#2D2A2B"/>
<path d="M91.1504 38.8198C91.1504 39.7398 90.9304 40.4798 90.6704 40.4798C90.4004 40.4798 90.1904 39.7298 90.1904 38.8198C90.1904 37.8998 90.4104 37.1598 90.6704 37.1598C90.9304 37.1498 91.1504 37.8998 91.1504 38.8198Z" fill="#2D2A2B"/>
<path d="M97.2203 38.8198C97.2203 39.7398 97.0002 40.4798 96.7402 40.4798C96.4702 40.4798 96.2603 39.7298 96.2603 38.8198C96.2603 37.8998 96.4802 37.1598 96.7402 37.1598C97.0102 37.1498 97.2203 37.8998 97.2203 38.8198Z" fill="#2D2A2B"/>
<path d="M44.2598 123.74H10.4998C9.33983 123.74 8.46983 122.66 8.72983 121.52L14.8698 94.68C15.0598 93.86 15.7898 92.75 16.6398 92.75L49.7898 92.28C52.1998 92.28 52.4298 94.35 52.1698 95.48L46.0298 122.32C45.8398 123.15 45.1098 123.74 44.2598 123.74Z" fill="#666466"/>
<path d="M43.23 122.7H9.47005C8.31005 122.7 7.44004 121.62 7.70004 120.48L13.84 93.64C14.03 92.82 14.76 92.23 15.61 92.23H49.37C50.53 92.23 51.4 93.31 51.14 94.45L45 121.3C44.81 122.12 44.08 122.7 43.23 122.7Z" fill="#817F82"/>
<path d="M43.7699 120.48H9.10986L15.2999 93.43H49.9599L43.7699 120.48Z" fill="#CFD0D3"/>
<path d="M46.9699 123.12H8.68994V120.61L46.6799 120.49C46.8699 120.49 47.0199 120.64 47.0199 120.83L46.9699 123.12Z" fill="#399EFD"/>
<path d="M36.7902 112.53H12.9302L16.8502 95.3799H40.7202L36.7902 112.53Z" fill="white"/>
<path d="M45.41 106.23H39.52L42 95.3799H47.89L45.41 106.23Z" fill="white"/>
<path d="M43.9701 112.53H38.0801L39.3201 107.1H45.2101L43.9701 112.53Z" fill="white"/>
<path d="M35.48 117.77H11.73L12.66 113.73H36.41L35.48 117.77Z" fill="white"/>
<defs>
<linearGradient id="paint0_linear_97_2376" x1="1.60666" y1="2.8077" x2="84.0669" y2="2.8077" gradientUnits="userSpaceOnUse">
<stop stop-color="#3D5475"/>
<stop offset="0.2549" stop-color="#364F6F"/>
<stop offset="0.6276" stop-color="#22425F"/>
<stop offset="1" stop-color="#083149"/>
</linearGradient>
<linearGradient id="paint1_linear_97_2376" x1="82.9252" y1="133.261" x2="112.363" y2="133.261" gradientUnits="userSpaceOnUse">
<stop stop-color="#3D5475"/>
<stop offset="0.2549" stop-color="#364F6F"/>
<stop offset="0.6276" stop-color="#22425F"/>
<stop offset="1" stop-color="#083149"/>
</linearGradient>
<linearGradient id="paint2_linear_97_2376" x1="93.7617" y1="56.2059" x2="96.722" y2="56.2059" gradientUnits="userSpaceOnUse">
<stop stop-color="#3D5475"/>
<stop offset="0.2549" stop-color="#364F6F"/>
<stop offset="0.6276" stop-color="#22425F"/>
<stop offset="1" stop-color="#083149"/>
</linearGradient>
<linearGradient id="paint3_linear_97_2376" x1="92.0445" y1="66.8055" x2="98.1887" y2="66.8055" gradientUnits="userSpaceOnUse">
<stop stop-color="#3D5475"/>
<stop offset="0.2549" stop-color="#364F6F"/>
<stop offset="0.6276" stop-color="#22425F"/>
<stop offset="1" stop-color="#083149"/>
</linearGradient>
</defs>
</svg>
