<svg width="495" height="457" viewBox="0 0 495 457" fill="none" xmlns="http://www.w3.org/2000/svg">
<g clip-path="url(#clip0_89_1817)">
<g opacity="0.39">
<g opacity="0.39">
<g opacity="0.39">
<path opacity="0.39" d="M257.618 175.757H138.889C138.411 175.757 138.028 175.295 138.028 174.718C138.028 174.14 138.411 173.678 138.889 173.678H257.618C258.096 173.678 258.478 174.14 258.478 174.718C258.478 175.295 258.086 175.757 257.618 175.757Z" fill="#399EFD"/>
</g>
<g opacity="0.39">
<path opacity="0.39" d="M231.628 184.035H138.889C138.411 184.035 138.028 183.574 138.028 182.996C138.028 182.419 138.411 181.957 138.889 181.957H231.628C232.106 181.957 232.488 182.419 232.488 182.996C232.497 183.562 232.106 184.035 231.628 184.035Z" fill="#399EFD"/>
</g>
<g opacity="0.39">
<path opacity="0.39" d="M196.633 192.303H138.889C138.411 192.303 138.028 191.841 138.028 191.263C138.028 190.686 138.411 190.224 138.889 190.224H196.633C197.111 190.224 197.493 190.686 197.493 191.263C197.503 191.841 197.111 192.303 196.633 192.303Z" fill="#399EFD"/>
</g>
<g opacity="0.39">
<g opacity="0.39">
<path opacity="0.39" d="M285.281 175.757H274.308C273.83 175.757 273.447 175.295 273.447 174.718C273.447 174.14 273.83 173.678 274.308 173.678H285.281C285.759 173.678 286.141 174.14 286.141 174.718C286.141 175.295 285.759 175.757 285.281 175.757Z" fill="#399EFD"/>
</g>
<g opacity="0.39">
<path opacity="0.39" d="M285.281 184.035H274.308C273.83 184.035 273.447 183.574 273.447 182.996C273.447 182.419 273.83 181.957 274.308 181.957H285.281C285.759 181.957 286.141 182.419 286.141 182.996C286.141 183.562 285.759 184.035 285.281 184.035Z" fill="#399EFD"/>
</g>
<g opacity="0.39">
<path opacity="0.39" d="M285.281 192.303H274.308C273.83 192.303 273.447 191.841 273.447 191.263C273.447 190.686 273.83 190.224 274.308 190.224H285.281C285.759 190.224 286.141 190.686 286.141 191.263C286.141 191.841 285.759 192.303 285.281 192.303Z" fill="#399EFD"/>
</g>
<g opacity="0.39">
<path opacity="0.39" d="M305.431 175.757H294.457C293.98 175.757 293.597 175.295 293.597 174.718C293.597 174.14 293.98 173.678 294.457 173.678H305.431C305.909 173.678 306.291 174.14 306.291 174.718C306.291 175.295 305.909 175.757 305.431 175.757Z" fill="#399EFD"/>
</g>
<g opacity="0.39">
<path opacity="0.39" d="M305.431 184.035H294.457C293.98 184.035 293.597 183.574 293.597 182.996C293.597 182.419 293.98 181.957 294.457 181.957H305.431C305.909 181.957 306.291 182.419 306.291 182.996C306.291 183.562 305.909 184.035 305.431 184.035Z" fill="#399EFD"/>
</g>
<g opacity="0.39">
<path opacity="0.39" d="M305.431 192.303H294.457C293.98 192.303 293.597 191.841 293.597 191.263C293.597 190.686 293.98 190.224 294.457 190.224H305.431C305.909 190.224 306.291 190.686 306.291 191.263C306.291 191.841 305.909 192.303 305.431 192.303Z" fill="#399EFD"/>
</g>
<g opacity="0.39">
<path opacity="0.39" d="M325.581 175.757H314.607C314.129 175.757 313.747 175.295 313.747 174.718C313.747 174.14 314.129 173.678 314.607 173.678H325.581C326.059 173.678 326.441 174.14 326.441 174.718C326.441 175.295 326.059 175.757 325.581 175.757Z" fill="#399EFD"/>
</g>
<g opacity="0.39">
<path opacity="0.39" d="M325.581 184.035H314.607C314.129 184.035 313.747 183.574 313.747 182.996C313.747 182.419 314.129 181.957 314.607 181.957H325.581C326.059 181.957 326.441 182.419 326.441 182.996C326.441 183.562 326.059 184.035 325.581 184.035Z" fill="#399EFD"/>
</g>
<g opacity="0.39">
<path opacity="0.39" d="M325.581 192.303H314.607C314.129 192.303 313.747 191.841 313.747 191.263C313.747 190.686 314.129 190.224 314.607 190.224H325.581C326.059 190.224 326.441 190.686 326.441 191.263C326.441 191.841 326.059 192.303 325.581 192.303Z" fill="#399EFD"/>
</g>
</g>
</g>
</g>
<g opacity="0.3">
<path opacity="0.3" d="M325.552 255.714C325.552 255.714 363.103 283.772 369.535 321.632L401.039 318.295C401.039 318.295 402.397 285.227 361.63 249.93L325.552 255.714Z" fill="#70BDFC"/>
<path opacity="0.3" d="M58.2463 427.28L244.555 270.436V261.245C244.555 261.245 27.1137 412.062 25.6403 412.512C24.1541 412.963 12.3032 435.224 12.3032 435.224L58.2463 427.28Z" fill="#70BDFC"/>
<path opacity="0.3" d="M244.542 270.436L363.141 256.038V249.214L244.658 261.245L244.542 270.436Z" fill="#70BDFC"/>
<path opacity="0.3" d="M363.142 256.038C363.142 256.038 392.468 280.677 401.359 316.009H404.319C404.319 316.009 402.999 286.023 363.142 249.202V256.038Z" fill="#BEBEF4"/>
</g>
<path d="M52.3141 417.708L244.542 263.612V254.421C244.542 254.421 27.1005 405.238 25.6271 405.689C24.141 406.139 12.29 428.4 12.29 428.4L52.3141 417.708Z" fill="#70BDFC"/>
<path opacity="0.46" d="M340.887 230.324L419.129 217.612L393.134 205.719L460.703 217.635L466.379 238.741L447.417 229.793L358.644 248.914L340.887 230.324Z" fill="#70BDFC"/>
<path d="M244.542 263.612L363.141 249.214L360.169 243.002L244.658 254.421L244.542 263.612Z" fill="#70BDFC"/>
<path d="M418.565 98.2238L330.714 119.377L333.828 125.993L419.808 104.62L418.565 98.2238Z" fill="#70BDFC"/>
<path d="M363.141 249.214C363.141 249.214 393.121 197.256 394.107 110.267L386.202 111.456L357.606 243.579L363.141 249.214Z" fill="#70BDFC"/>
<path d="M368.087 62.7538L330.715 119.377C330.715 119.377 348.395 115.116 357.491 112.934C357.209 129.56 352.764 198.145 325.27 226.872C291.754 229.412 255.484 232.149 216.075 235.139C176.127 257.747 11.829 321.551 -28.2462 344.228C-62.0822 349.574 -46.3621 355.22 -84.5028 361.259C-95.316 373.59 -107.167 387.099 -120.196 401.959C-134.584 418.378 -150.586 436.621 -168.458 457C-129.869 448.525 -93.4454 440.523 -58.9945 432.961C-26.3757 425.802 4.55196 419.001 33.9166 412.547C81.4483 376.881 202.584 285.989 244.658 254.41C286.655 250.253 325 246.466 360.156 242.991C383.397 205.708 392.301 141.13 391.045 104.84C400.039 102.669 418.552 98.2238 418.552 98.2238L368.087 62.7538Z" fill="#399EFD"/>
<path d="M142.165 140.209C142.165 140.209 139.194 134.12 142.165 132.865C145.136 131.626 146.493 132.772 146.628 134.151C146.775 135.546 145.498 141.014 145.498 141.014L142.165 140.209Z" fill="#FFB27D"/>
<path d="M144.544 179.188C139.114 180.319 134.127 180.846 129.624 180.954C125.35 181.063 121.519 180.815 118.159 180.366C117.258 180.242 116.398 180.118 115.564 179.963C106.774 178.429 101.921 175.702 101.921 175.702C101.921 175.702 109.946 156.337 116.438 157.08C124.046 157.948 136.936 165.818 138.213 163.618C139.651 161.139 140.861 139.806 140.861 139.806C144.235 137.141 146.251 139.946 146.251 139.946C146.251 139.946 152.837 177.469 144.544 179.188Z" fill="#399EFD"/>
<path d="M144.544 179.188C139.113 180.319 134.127 180.846 129.624 180.954C125.349 181.063 121.519 180.815 118.158 180.366C116.129 172.945 114.677 165.369 118.75 169.939C125.927 177.995 144.544 179.188 144.544 179.188Z" fill="#248CE2"/>
<path d="M101.316 335.57C101.316 335.57 100.738 343.27 102.15 344.076L120.215 344.029C120.215 344.029 120.215 341.628 117.312 341.086C114.408 340.559 109.314 338.591 108.44 334.222C107.594 329.885 101.316 335.57 101.316 335.57Z" fill="#233862"/>
<path d="M114.583 242.382C114.489 247.418 114.287 252.608 113.871 257.271C111.922 279.425 111.236 306.181 110.954 311.34C110.47 320.295 108.938 334.61 108.938 334.61C108.938 334.61 105.9 337.941 99.9587 336.345C99.9587 336.345 95.0392 315.74 93.937 294.035C93.9235 293.678 93.8966 293.322 93.8832 292.966C93.7622 290.1 93.6278 286.815 93.48 283.283C92.5794 259.595 91.5981 224.396 91.5981 224.396L114.274 218.26C114.287 218.26 114.798 229.833 114.583 242.382Z" fill="url(#paint0_linear_89_1817)"/>
<path d="M114.584 242.382C108.831 253.816 97.876 274.87 93.4941 283.283C92.5935 259.595 91.6123 224.396 91.6123 224.396L114.288 218.26C114.288 218.26 114.799 229.833 114.584 242.382Z" fill="url(#paint1_linear_89_1817)"/>
<path d="M57.1614 220.244C57.1614 220.244 53.465 225.248 53.1424 226.626C52.8064 228.021 52.215 233.009 52.5376 234.512C52.8602 236.015 55.3065 230.329 56.1936 229.725C57.0808 229.121 55.5216 231.987 55.8307 232.467C56.1399 232.947 57.9007 230.794 58.5862 230.066C59.2717 229.338 59.2045 225.418 60.0245 223.094C60.8578 220.77 57.1614 220.244 57.1614 220.244Z" fill="#FFB27D"/>
<path d="M56.3017 326.817C56.3017 326.817 53.0891 330.194 53.7075 332.611C54.3392 335.013 57.2426 336.624 57.6324 339.552C58.0222 342.496 59.5948 344.091 61.0062 344.091C62.4175 344.091 67.7403 344.091 67.7403 344.091C67.7403 344.091 68.7753 342.031 66.2752 341.396C63.7616 340.776 62.8207 337.321 62.9686 334.114C63.1299 330.907 62.7267 326.631 62.7267 326.631L57.3904 325.206L56.3017 326.817Z" fill="#233862"/>
<path d="M110.712 224.938C110.712 224.938 89.4881 277.287 78.1839 300.263C66.8931 323.238 63.358 329.637 63.358 329.637C63.358 329.637 56.8793 326.693 56.3013 324.694C56.3013 324.694 60.616 280.355 68.1835 269.541C72.4578 263.437 77.4849 245.109 77.7134 238.695C77.9554 232.281 82.9018 216.99 82.9018 216.99L110.712 224.938Z" fill="url(#paint2_linear_89_1817)"/>
<path d="M116.908 227.417C116.908 227.417 108.467 233.923 96.5178 233.319C91.2757 233.056 80.872 231.336 79.1919 226.533C78.8021 225.403 79.0843 223.977 79.6758 221.777C81.2081 216.06 84.7835 205.185 83.7082 181.063C83.6141 178.816 83.6679 176.709 83.8426 174.726C84.9717 162.843 90.8725 155.81 96.5851 153.501C110.51 147.893 115.148 155.67 115.148 155.67C115.148 155.67 121.304 161.294 122.231 173.022C124.113 196.478 116.908 227.417 116.908 227.417Z" fill="#399EFD"/>
<path d="M100.685 152.154C100.685 152.154 107.069 156.631 114.005 155.361C114.005 155.361 115.376 154.958 114.704 153.099C115.121 151.596 115.08 151.735 115.322 150.62C115.927 148.064 116.115 146.592 116.115 146.592L112.177 141.82L108.454 137.265C107.419 148.172 100.685 152.154 100.685 152.154Z" fill="#FFB27D"/>
<path d="M107.849 141.417C107.849 141.417 109.986 148.017 115.309 150.651C115.913 148.095 116.317 145.414 116.317 145.414L112.177 141.851L107.849 141.417Z" fill="#ED985F"/>
<path d="M120.524 146.375C120.524 146.375 108.332 148.126 107.472 139.496C106.612 130.851 104.461 125.258 112.217 123.771C119.973 122.284 121.814 125.382 122.715 128.202C123.615 131.006 123.669 145.693 120.524 146.375Z" fill="#FFB27D"/>
<path d="M103.615 122.377C103.507 122.222 103.265 122.098 102.701 122.036C102.701 122.036 103.158 121.726 103.763 121.742C103.91 120.843 104.381 119.263 105.752 118.922C105.752 118.922 105.013 119.34 104.878 120.301C106.505 118.519 109.905 117.311 119.166 118.566C131.371 120.208 127.043 129.07 125.417 130.077C123.79 131.084 119.906 127.954 116.935 128.094C113.978 128.233 113.252 133.129 112.231 133.764C111.209 134.399 111.639 133.222 110.309 132.447C108.978 131.688 108.763 134.26 109.099 135.964C109.435 137.668 107.499 139.806 107.499 139.806C107.499 139.806 107.499 139.806 105.698 137.389C103.897 134.972 102.445 124.995 103.373 122.919C103.453 122.749 103.534 122.563 103.615 122.377Z" fill="url(#paint3_linear_89_1817)"/>
<path d="M140.861 136.165L120.162 136.382L120.014 132.788L140.66 130.944L140.861 136.165Z" fill="#2A4E96"/>
<path d="M156.494 136.754L133.953 137.141L133.697 130.603L156.171 128.605L156.494 136.754Z" fill="url(#paint4_linear_89_1817)"/>
<path d="M171.696 137.281L152.69 137.296L152.34 128.481L171.279 126.498L171.696 137.281Z" fill="#233862"/>
<path d="M171.965 138.768C172.556 138.737 173 138.164 172.973 137.482L172.529 126.157C172.502 125.475 172.005 124.964 171.414 124.995C170.822 125.026 170.379 125.599 170.405 126.281L170.849 137.606C170.889 138.272 171.387 138.799 171.965 138.768Z" fill="#233862"/>
<path d="M120.094 137.141C119.57 137.172 119.126 136.708 119.113 136.103L118.992 133.16C118.965 132.555 119.368 132.044 119.893 132.029C120.417 131.998 120.86 132.463 120.874 133.067L120.995 136.01C121.022 136.599 120.618 137.11 120.094 137.141Z" fill="#2A4E96"/>
<path d="M79.689 221.762C81.2213 216.045 84.7967 205.169 83.7214 181.047C83.6273 178.801 83.6811 176.694 83.8558 174.711C88.4393 174.262 95.4423 179.963 95.4423 179.963C95.4423 179.963 91.141 210.297 79.689 221.762Z" fill="#399EFD"/>
<path d="M100.684 152.154C100.684 152.154 88.9367 154.478 82.8074 163.107C76.6781 171.736 66.8256 183.898 64.4867 188.143C62.1614 192.403 55.6826 221.375 55.6826 221.375C55.6826 221.375 56.1128 222.304 57.9005 222.846C59.6075 223.358 60.8441 222.567 60.8441 222.567C60.8441 222.567 69.4198 205.65 72.6457 197.206C73.9898 193.689 97.1763 179.792 105.886 181.233C109.3 181.806 100.684 152.154 100.684 152.154Z" fill="#399EFD"/>
<path d="M140.74 129.906C140.74 129.906 143.267 131.688 144.786 130.929C146.292 130.17 146.171 129.488 146.171 129.488C146.171 129.488 141.6 128.032 140.74 129.906Z" fill="#FFB27D"/>
<path d="M112.083 161.604C112.083 161.604 106.921 199.127 70.3339 210.065L66.3418 219.128L73.3448 220.491C73.3448 220.491 115 206.579 114.435 160.938L112.083 161.604Z" fill="url(#paint5_linear_89_1817)"/>
<path opacity="0.93" d="M111.29 155.624L109.597 155.81V158.629L112.083 161.604L114.449 160.938V157.034L112.755 155.624H111.29Z" fill="url(#paint6_linear_89_1817)"/>
<path d="M104.664 148.157C104.664 148.157 103.024 148.575 99.2871 152.169C99.2871 152.169 103.01 161.263 110.847 162.348C110.847 162.348 110.726 158.134 111.29 155.624C111.29 155.624 105.067 153.052 104.664 148.157Z" fill="#248CE2"/>
<path d="M111.29 155.624C111.29 155.624 115.121 157.963 115.403 161.62C115.403 161.62 116.868 158.955 116.438 157.096C116.008 155.252 114.704 153.13 114.704 153.13C114.704 153.13 114.825 155.345 111.29 155.624Z" fill="#248CE2"/>
<path d="M241.887 364.388C105.847 356.854 39.69 489.933 3.61474 371.107C-5.00035 237.458 105.027 121.269 242.135 112.431C379.243 103.592 473.003 206.646 481.618 340.294C467.468 519.753 383.368 367.923 241.887 364.388Z" fill="#399EFD" fill-opacity="0.11"/>
</g>
<defs>
<linearGradient id="paint0_linear_89_1817" x1="91.6045" y1="277.524" x2="114.636" y2="277.524" gradientUnits="userSpaceOnUse">
<stop stop-color="#3D5475"/>
<stop offset="0.2549" stop-color="#364F6F"/>
<stop offset="0.6276" stop-color="#22425F"/>
<stop offset="1" stop-color="#083149"/>
</linearGradient>
<linearGradient id="paint1_linear_89_1817" x1="91.6052" y1="250.778" x2="114.637" y2="250.778" gradientUnits="userSpaceOnUse">
<stop stop-color="#3D5475"/>
<stop offset="0.2549" stop-color="#364F6F"/>
<stop offset="0.6276" stop-color="#22425F"/>
<stop offset="1" stop-color="#083149"/>
</linearGradient>
<linearGradient id="paint2_linear_89_1817" x1="56.296" y1="273.316" x2="110.708" y2="273.316" gradientUnits="userSpaceOnUse">
<stop stop-color="#3D5475"/>
<stop offset="0.2549" stop-color="#364F6F"/>
<stop offset="0.6276" stop-color="#22425F"/>
<stop offset="1" stop-color="#083149"/>
</linearGradient>
<linearGradient id="paint3_linear_89_1817" x1="102.698" y1="128.927" x2="127.506" y2="128.927" gradientUnits="userSpaceOnUse">
<stop stop-color="#3D5475"/>
<stop offset="0.2549" stop-color="#364F6F"/>
<stop offset="0.6276" stop-color="#22425F"/>
<stop offset="1" stop-color="#083149"/>
</linearGradient>
<linearGradient id="paint4_linear_89_1817" x1="133.696" y1="132.87" x2="156.497" y2="132.87" gradientUnits="userSpaceOnUse">
<stop stop-color="#3D5475"/>
<stop offset="0.2549" stop-color="#364F6F"/>
<stop offset="0.6276" stop-color="#22425F"/>
<stop offset="1" stop-color="#083149"/>
</linearGradient>
<linearGradient id="paint5_linear_89_1817" x1="66.3527" y1="190.716" x2="114.456" y2="190.716" gradientUnits="userSpaceOnUse">
<stop stop-color="#3D5475"/>
<stop offset="0.2549" stop-color="#364F6F"/>
<stop offset="0.6276" stop-color="#22425F"/>
<stop offset="1" stop-color="#083149"/>
</linearGradient>
<linearGradient id="paint6_linear_89_1817" x1="109.598" y1="158.611" x2="114.452" y2="158.611" gradientUnits="userSpaceOnUse">
<stop stop-color="#3D5475"/>
<stop offset="0.2549" stop-color="#364F6F"/>
<stop offset="0.6276" stop-color="#22425F"/>
<stop offset="1" stop-color="#083149"/>
</linearGradient>
<clipPath id="clip0_89_1817">
<rect width="495" height="457" fill="white"/>
</clipPath>
</defs>
</svg>
