<svg width="625" height="466" viewBox="0 0 625 466" fill="none" xmlns="http://www.w3.org/2000/svg">
<g clip-path="url(#clip0_189_1015)">
<path d="M520.783 390.67C520.783 390.67 520.933 372.024 514.223 374.56C507.514 376.947 520.783 390.67 520.783 390.67Z" fill="#407BFF"/>
<path d="M528.09 373.367C528.09 373.367 537.035 358.45 528.984 356.362C520.933 354.273 528.09 373.367 528.09 373.367Z" fill="#407BFF"/>
<path d="M563.573 362.925C563.573 362.925 582.21 362.03 578.035 355.019C573.712 348.009 563.573 362.925 563.573 362.925Z" fill="#407BFF"/>
<path d="M534.053 367.848C534.053 367.848 553.584 363.522 549.857 374.411C546.278 385.3 534.053 367.848 534.053 367.848Z" fill="#407BFF"/>
<path d="M519.889 407.377C519.889 407.377 512.434 390.521 508.26 396.488C504.085 402.604 519.889 407.377 519.889 407.377Z" fill="#407BFF"/>
<path d="M541.209 364.268C541.209 364.268 561.038 359.047 554.926 351.738C548.664 344.428 541.209 364.268 541.209 364.268Z" fill="#407BFF"/>
<path d="M556.119 362.329C556.119 362.329 571.774 370.085 564.617 375.008C557.461 380.08 556.119 362.329 556.119 362.329Z" fill="#407BFF"/>
<path d="M522.722 383.212C522.722 383.212 533.606 370.085 536.886 379.632C540.315 389.03 522.722 383.212 522.722 383.212Z" fill="#407BFF"/>
<g opacity="0.4">
<path d="M519.889 407.377C519.889 407.377 512.434 390.521 508.26 396.488C504.085 402.604 519.889 407.377 519.889 407.377Z" fill="white"/>
<path d="M541.209 364.268C541.209 364.268 561.038 359.047 554.926 351.738C548.664 344.428 541.209 364.268 541.209 364.268Z" fill="white"/>
<path d="M556.119 362.329C556.119 362.329 571.774 370.085 564.617 375.008C557.461 380.08 556.119 362.329 556.119 362.329Z" fill="white"/>
<path d="M522.722 383.212C522.722 383.212 533.606 370.085 536.886 379.632C540.315 389.03 522.722 383.212 522.722 383.212Z" fill="white"/>
</g>
<path d="M519.889 400.217C519.889 400.217 527.642 383.51 533.903 391.864C540.165 400.366 519.889 400.217 519.889 400.217Z" fill="#407BFF"/>
<path d="M519.889 417.67C517.652 407.079 517.652 395.146 520.932 384.704C527.343 363.82 546.875 358.898 566.704 362.03C568.344 362.329 567.599 364.715 565.959 364.417C555.522 362.776 543.595 362.627 534.5 368.892C527.94 373.516 524.212 380.825 522.423 388.433C520.336 397.532 520.336 407.825 522.274 417.073C522.721 418.714 520.336 419.311 519.889 417.67Z" fill="#407BFF"/>
<g opacity="0.3">
<path d="M519.889 417.67C517.652 407.079 517.652 395.146 520.932 384.704C527.343 363.82 546.875 358.898 566.704 362.03C568.344 362.329 567.599 364.715 565.959 364.417C555.522 362.776 543.595 362.627 534.5 368.892C527.94 373.516 524.212 380.825 522.423 388.433C520.336 397.532 520.336 407.825 522.274 417.073C522.721 418.714 520.336 419.311 519.889 417.67Z" fill="black"/>
</g>
<path d="M504.383 385.002C504.383 385.002 494.692 362.329 488.281 368.146C482.019 374.113 504.383 385.002 504.383 385.002Z" fill="#407BFF"/>
<path d="M503.638 360.837C503.638 360.837 505.874 338.76 495.587 339.804C485.15 340.699 503.638 360.837 503.638 360.837Z" fill="#407BFF"/>
<path d="M538.377 332.495C538.377 332.495 559.101 323.247 550.603 316.534C542.104 309.971 538.377 332.495 538.377 332.495Z" fill="#407BFF"/>
<path d="M507.514 351.439C507.514 351.439 527.492 337.567 528.983 352.483C530.623 367.4 507.514 351.439 507.514 351.439Z" fill="#407BFF"/>
<path d="M512.434 405.737C512.434 405.737 494.841 388.433 493.35 397.532C491.71 406.781 512.434 405.737 512.434 405.737Z" fill="#407BFF"/>
<path d="M513.627 343.981C513.627 343.981 533.456 328.915 522.572 322.799C511.689 316.534 513.627 343.981 513.627 343.981Z" fill="#407BFF"/>
<path d="M529.729 335.031C529.729 335.031 551.646 337.567 546.13 346.815C540.464 356.064 529.729 335.031 529.729 335.031Z" fill="#407BFF"/>
<path d="M502.743 375.008C502.743 375.008 508.11 354.274 517.056 364.417C525.853 374.56 502.743 375.008 502.743 375.008Z" fill="#407BFF"/>
<g opacity="0.4">
<path d="M512.434 405.737C512.434 405.737 494.841 388.433 493.35 397.532C491.71 406.781 512.434 405.737 512.434 405.737Z" fill="white"/>
<path d="M513.627 343.981C513.627 343.981 533.456 328.915 522.572 322.799C511.689 316.534 513.627 343.981 513.627 343.981Z" fill="white"/>
<path d="M529.729 335.031C529.729 335.031 551.646 337.567 546.13 346.815C540.464 356.064 529.729 335.031 529.729 335.031Z" fill="white"/>
<path d="M502.743 375.008C502.743 375.008 508.11 354.274 517.056 364.417C525.853 374.56 502.743 375.008 502.743 375.008Z" fill="white"/>
</g>
<path d="M508.409 396.936C508.409 396.936 508.409 373.218 520.038 380.676C531.668 388.284 508.409 396.936 508.409 396.936Z" fill="#407BFF"/>
<path d="M517.802 418.266C509.602 406.333 503.34 391.715 501.402 377.693C497.525 349.5 517.206 334.882 541.508 330.108C543.446 329.661 543.893 332.942 541.955 333.241C529.133 335.777 515.566 340.699 508.558 352.483C503.489 360.986 503.191 371.428 505.129 381.422C507.514 393.505 513.031 405.885 520.187 416.327C521.38 418.266 518.995 420.056 517.802 418.266Z" fill="#407BFF"/>
<g opacity="0.3">
<path d="M517.802 418.266C509.602 406.333 503.34 391.715 501.402 377.693C497.525 349.5 517.206 334.882 541.508 330.108C543.446 329.661 543.893 332.942 541.955 333.241C529.133 335.777 515.566 340.699 508.558 352.483C503.489 360.986 503.191 371.428 505.129 381.422C507.514 393.505 513.031 405.885 520.187 416.327C521.38 418.266 518.995 420.056 517.802 418.266Z" fill="black"/>
</g>
<path d="M502.147 390.969C502.147 390.969 506.769 375.605 511.689 379.334C516.61 383.063 502.147 390.969 502.147 390.969Z" fill="#407BFF"/>
<path d="M500.507 374.859C500.507 374.859 496.929 360.24 504.234 360.539C511.54 360.837 500.507 374.859 500.507 374.859Z" fill="#407BFF"/>
<path d="M473.969 357.108C473.969 357.108 458.91 351.589 464.128 346.815C469.347 342.042 473.969 357.108 473.969 357.108Z" fill="#407BFF"/>
<path d="M496.929 368.743C496.929 368.743 481.87 360.091 482.168 370.085C482.467 380.08 496.929 368.743 496.929 368.743Z" fill="#407BFF"/>
<path d="M498.569 405.14C498.569 405.14 509.155 393.206 511.093 399.173C512.882 405.14 498.569 405.14 498.569 405.14Z" fill="#407BFF"/>
<path d="M492.009 363.969C492.009 363.969 476.95 354.572 483.958 350.097C490.965 345.622 492.009 363.969 492.009 363.969Z" fill="#407BFF"/>
<path d="M480.231 358.45C480.231 358.45 465.322 360.837 469.943 366.804C474.565 372.77 480.231 358.45 480.231 358.45Z" fill="#407BFF"/>
<path d="M502.446 384.256C502.446 384.256 496.78 370.682 491.562 377.693C486.344 384.704 502.446 384.256 502.446 384.256Z" fill="#407BFF"/>
<g opacity="0.4">
<path d="M498.569 405.14C498.569 405.14 509.155 393.206 511.093 399.173C512.882 405.14 498.569 405.14 498.569 405.14Z" fill="white"/>
<path d="M492.009 363.969C492.009 363.969 476.95 354.572 483.958 350.097C490.965 345.622 492.009 363.969 492.009 363.969Z" fill="white"/>
<path d="M480.231 358.45C480.231 358.45 465.322 360.837 469.943 366.804C474.565 372.77 480.231 358.45 480.231 358.45Z" fill="white"/>
<path d="M502.446 384.256C502.446 384.256 496.78 370.682 491.562 377.693C486.344 384.704 502.446 384.256 502.446 384.256Z" fill="white"/>
</g>
<path d="M500.508 399.024C500.508 399.024 498.42 383.212 490.966 388.582C483.66 393.952 500.508 399.024 500.508 399.024Z" fill="#407BFF"/>
<path d="M495.885 413.493C500.507 405.289 503.489 395.444 503.489 386.046C503.638 367.102 488.728 358.003 471.583 355.616C470.241 355.467 470.241 357.555 471.583 357.704C480.677 359.047 490.517 361.881 496.332 369.489C500.507 375.008 501.699 381.87 501.252 388.731C500.656 396.786 497.972 405.289 494.096 412.449C493.35 413.642 495.139 414.836 495.885 413.493Z" fill="#407BFF"/>
<g opacity="0.3">
<path d="M495.885 413.493C500.507 405.289 503.489 395.444 503.489 386.046C503.638 367.102 488.728 358.003 471.583 355.616C470.241 355.467 470.241 357.555 471.583 357.704C480.677 359.047 490.517 361.881 496.332 369.489C500.507 375.008 501.699 381.87 501.252 388.731C500.656 396.786 497.972 405.289 494.096 412.449C493.35 413.642 495.139 414.836 495.885 413.493Z" fill="black"/>
</g>
<path d="M539.271 409.615L533.904 450.338C533.158 455.558 528.685 459.437 523.467 459.437H489.921C484.703 459.437 480.23 455.558 479.485 450.338L474.117 409.615H539.271Z" fill="#407BFF"/>
<path opacity="0.3" d="M539.271 409.615L533.904 450.338C533.158 455.558 528.685 459.437 523.467 459.437H489.921C484.703 459.437 480.23 455.558 479.485 450.338L474.117 409.615H539.271Z" fill="white"/>
<g opacity="0.42">
<path d="M545.934 320.816C599.5 267.223 599.5 180.332 545.934 126.739C492.368 73.1464 405.52 73.1464 351.954 126.739C298.388 180.332 298.388 267.223 351.954 320.816C405.52 374.409 492.368 374.409 545.934 320.816Z" fill="#70BDFC"/>
<path d="M388.969 353.191C425.767 316.375 425.767 256.684 388.969 219.868C352.171 183.052 292.511 183.052 255.713 219.868C218.915 256.684 218.915 316.375 255.713 353.191C292.511 390.007 352.171 390.007 388.969 353.191Z" fill="#70BDFC"/>
</g>
<g opacity="0.3">
<path d="M13.8659 263.878H12.375V272.53H13.8659V263.878Z" fill="#ACD4EF"/>
<path d="M4.96342 267.043L3.90918 268.098L10.0246 274.216L11.0789 273.161L4.96342 267.043Z" fill="#ACD4EF"/>
<path d="M9.54195 275.513H0.894531V277.005H9.54195V275.513Z" fill="#ACD4EF"/>
<path d="M10.1126 278.264L3.99805 284.382L5.05229 285.436L11.1669 279.319L10.1126 278.264Z" fill="#ACD4EF"/>
<path d="M13.8659 279.988H12.375V288.64H13.8659V279.988Z" fill="#ACD4EF"/>
<path d="M16.2955 278.382L15.2412 279.437L21.3567 285.555L22.4109 284.5L16.2955 278.382Z" fill="#ACD4EF"/>
<path d="M25.4951 275.513H16.8477V277.005H25.4951V275.513Z" fill="#ACD4EF"/>
<path d="M21.4456 266.929L15.3311 273.046L16.3853 274.101L22.4999 267.984L21.4456 266.929Z" fill="#ACD4EF"/>
<path d="M167.581 103.97H166.09V112.622H167.581V103.97Z" fill="#ACD4EF"/>
<path d="M158.709 107.042L157.654 108.097L163.77 114.214L164.824 113.159L158.709 107.042Z" fill="#ACD4EF"/>
<path d="M163.108 115.456H154.461V116.947H163.108V115.456Z" fill="#ACD4EF"/>
<path d="M163.649 118.278L157.534 124.396L158.588 125.45L164.703 119.333L163.649 118.278Z" fill="#ACD4EF"/>
<path d="M167.581 119.931H166.09V128.583H167.581V119.931Z" fill="#ACD4EF"/>
<path d="M170.04 118.381L168.985 119.436L175.101 125.553L176.155 124.498L170.04 118.381Z" fill="#ACD4EF"/>
<path d="M179.211 115.456H170.563V116.947H179.211V115.456Z" fill="#ACD4EF"/>
<path d="M174.996 106.939L168.882 113.057L169.936 114.112L176.051 107.993L174.996 106.939Z" fill="#ACD4EF"/>
<path d="M574.01 87.114C564.02 87.114 555.82 78.9097 555.82 68.9155C555.82 58.9213 564.02 50.717 574.01 50.717C583.999 50.717 592.199 58.9213 592.199 68.9155C592.199 78.9097 583.999 87.114 574.01 87.114ZM574.01 52.2087C564.766 52.2087 557.311 59.6671 557.311 68.9155C557.311 78.1639 564.766 85.6223 574.01 85.6223C583.254 85.6223 590.708 78.1639 590.708 68.9155C590.708 59.6671 583.254 52.2087 574.01 52.2087Z" fill="#ACD4EF"/>
<path d="M18.1894 399.322C8.20014 399.322 0 391.118 0 381.124C0 371.13 8.20014 362.925 18.1894 362.925C28.1787 362.925 36.3788 371.13 36.3788 381.124C36.2297 391.118 28.1787 399.322 18.1894 399.322ZM18.1894 364.566C8.94561 364.566 1.49094 372.025 1.49094 381.273C1.49094 390.521 8.94561 397.98 18.1894 397.98C27.4332 397.98 34.8879 390.521 34.8879 381.273C34.7388 372.025 27.2841 364.566 18.1894 364.566Z" fill="#ACD4EF"/>
<path d="M290.435 144.991C280.445 144.991 272.245 136.787 272.245 126.793C272.245 116.798 280.445 108.594 290.435 108.594C300.424 108.594 308.624 116.798 308.624 126.793C308.624 136.787 300.424 144.991 290.435 144.991ZM290.435 110.235C281.191 110.235 273.736 117.693 273.736 126.942C273.736 136.19 281.191 143.649 290.435 143.649C299.678 143.649 307.133 136.041 307.133 126.793C307.133 117.693 299.678 110.235 290.435 110.235Z" fill="#ACD4EF"/>
<path d="M606.811 337.716C596.821 337.716 588.621 329.512 588.621 319.517C588.621 309.523 596.821 301.319 606.811 301.319C616.8 301.319 625 309.523 625 319.517C625 329.512 616.8 337.716 606.811 337.716ZM606.811 302.811C597.567 302.811 590.112 310.269 590.112 319.517C590.112 328.766 597.567 336.224 606.811 336.224C616.054 336.224 623.509 328.766 623.509 319.517C623.509 310.269 616.054 302.811 606.811 302.811Z" fill="#ACD4EF"/>
<path d="M436.546 263.58C426.557 263.58 418.356 255.375 418.356 245.381C418.356 235.387 426.557 227.183 436.546 227.183C446.535 227.183 454.735 235.387 454.735 245.381C454.735 255.375 446.535 263.58 436.546 263.58ZM436.546 228.823C427.302 228.823 419.847 236.282 419.847 245.53C419.847 254.779 427.302 262.237 436.546 262.237C445.79 262.237 453.244 254.779 453.244 245.53C453.244 236.282 445.79 228.823 436.546 228.823Z" fill="#ACD4EF"/>
<path d="M24.1533 77.4182C14.164 77.4182 5.96387 69.2139 5.96387 59.2197C5.96387 49.2255 14.164 41.0212 24.1533 41.0212C34.1425 41.0212 42.3427 49.2255 42.3427 59.2197C42.3427 69.2139 34.1425 77.4182 24.1533 77.4182ZM24.1533 42.5129C14.9095 42.5129 7.4548 49.9713 7.4548 59.2197C7.4548 68.4681 14.9095 75.9265 24.1533 75.9265C33.3971 75.9265 40.8517 68.4681 40.8517 59.2197C40.8517 49.9713 33.248 42.5129 24.1533 42.5129Z" fill="#ACD4EF"/>
</g>
<path d="M228.262 348.009H217.378V437.808H228.262V348.009Z" fill="#A1E2EF"/>
<path d="M229.455 349.5H216.633V358.45H229.455V349.5Z" fill="#002B50"/>
<path d="M229.455 414.09H216.633V437.957H229.455V414.09Z" fill="#002B50"/>
<path d="M178.465 458.094C178.465 462.42 174.887 466 170.563 466C166.239 466 162.661 462.42 162.661 458.094C162.661 453.769 166.239 450.188 170.563 450.188C174.887 450.188 178.465 453.769 178.465 458.094Z" fill="#002B50"/>
<path d="M170.712 457.647L216.931 438.106V420.206L170.414 449.741L170.712 457.647Z" fill="#002B50"/>
<path d="M267.623 458.094C267.623 462.42 271.201 466 275.525 466C279.849 466 283.427 462.42 283.427 458.094C283.427 453.769 279.849 450.188 275.525 450.188C271.201 450.188 267.623 453.769 267.623 458.094Z" fill="#002B50"/>
<path d="M275.376 457.647L229.157 438.106V420.206L275.674 449.741L275.376 457.647Z" fill="#002B50"/>
<path d="M230.498 458.094C230.498 462.42 226.92 466 222.596 466C218.273 466 214.694 462.42 214.694 458.094C214.694 453.769 218.273 450.188 222.596 450.188C227.069 450.188 230.498 453.769 230.498 458.094Z" fill="#002B50"/>
<path d="M224.833 458.393H220.509L216.633 419.311H228.858L224.833 458.393Z" fill="#002B50"/>
<path d="M251.819 323.545L214.844 191.382C213.054 184.968 207.24 180.642 200.68 180.642H133.886C133.886 182.432 133.439 184.372 132.544 185.863L179.061 332.644L298.336 332.346L251.819 323.545Z" fill="#399EFD"/>
<path d="M134.184 180.642C138.657 180.642 142.533 183.626 143.577 187.952L179.061 332.495H166.836C162.214 332.495 159.083 339.357 158.039 334.882L124.791 192.427C123.3 186.46 127.922 180.642 134.184 180.642Z" fill="#50B0FF"/>
<path d="M298.784 332.197V345.622C298.784 349.351 295.653 352.484 291.925 352.484H165.047C161.319 352.484 158.188 349.351 158.188 345.622V335.628C158.188 333.688 159.679 332.197 161.618 332.197H298.784Z" fill="#64B6ED"/>
<path d="M298.783 332.197V345.622C298.783 349.351 295.652 352.484 291.925 352.484H235.866C231.542 352.484 227.964 348.904 227.964 344.578V336.523C227.964 334.136 229.902 332.048 232.437 332.048H298.783V332.197Z" fill="#50B0FF"/>
<path d="M298.485 332.197L179.21 332.048L251.818 323.545L298.485 332.197Z" fill="#399EFD"/>
<path d="M154.461 180.493C153.865 190.935 152.225 259.552 152.225 260.149H153.268C153.268 259.403 154.908 190.637 155.505 180.493H154.461Z" fill="#002B50"/>
<path d="M187.56 180.493H185.92L238.848 237.923L239.743 237.177L187.56 180.493Z" fill="#002B50"/>
<path d="M248.688 258.806L157.89 282.971L151.777 259.85L242.575 235.685L248.688 258.806Z" fill="url(#paint0_linear_189_1015)"/>
<path d="M177.123 259.701L175.483 271.485L172.501 272.231L165.195 262.983L168.475 262.088L173.097 268.204L174.141 260.596L177.123 259.701Z" fill="white"/>
<path d="M186.665 266.265L182.192 267.458L181.894 269.695L178.912 270.441L180.701 258.657L183.683 257.911L191.138 267.16L188.007 268.055L186.665 266.265ZM185.323 264.325L183.087 261.342L182.639 265.071L185.323 264.325Z" fill="white"/>
<path d="M189.945 261.939C189.05 258.806 190.988 255.823 194.268 254.928C196.207 254.48 197.996 254.629 199.338 255.674L197.847 257.911C196.952 257.314 196.058 257.016 195.014 257.314C193.225 257.762 192.479 259.254 192.927 261.044C193.374 262.834 194.865 263.729 196.654 263.281C197.698 262.983 198.294 262.386 198.741 261.342L201.127 262.535C200.381 264.027 199.039 265.22 197.101 265.668C193.821 266.861 190.839 265.22 189.945 261.939Z" fill="white"/>
<path d="M209.327 260.298L204.854 261.491L204.556 263.729L201.574 264.475L203.363 252.69L206.345 251.945L213.8 261.193L210.669 262.088L209.327 260.298ZM207.836 258.359L205.6 255.375L205.152 259.105L207.836 258.359Z" fill="white"/>
<path d="M221.851 247.917L224.683 258.508L222.298 259.105L216.185 254.779L217.676 260.447L214.694 261.193L211.861 250.602L214.247 250.005L220.36 254.331L218.869 248.663L221.851 247.917Z" fill="white"/>
<path d="M226.771 249.11L223.491 250.005L222.895 247.619L232.287 245.083L232.884 247.469L229.604 248.364L231.84 256.569L228.858 257.315L226.771 249.11Z" fill="white"/>
<path d="M90.2012 442.133C89.7539 441.089 89.1576 440.194 88.7103 439.001H64.1099L50.8405 456.304L29.8184 463.912C28.7747 464.359 29.0729 465.851 30.1165 465.851H66.9426C67.6881 465.851 74.5464 458.094 81.1065 456.901V466H87.3685C87.8157 464.21 89.0085 460.332 90.2012 456.901V442.133Z" fill="#1A2E35"/>
<path d="M93.1826 442.133C93.6299 441.089 94.2263 440.194 94.6736 439.001H119.274L132.543 456.304L153.565 463.912C154.609 464.359 154.311 465.851 153.267 465.851H116.441C115.696 465.851 108.837 458.094 102.277 456.901V466H96.0154C95.5681 464.21 94.3754 460.332 93.1826 456.901V442.133Z" fill="#1A2E35"/>
<path d="M90.2016 441.388L87.8161 280.883L92.7362 441.686H122.108C124.046 410.957 133.141 274.17 131.799 247.619C131.799 247.619 130.457 229.718 124.94 212.564H51.1391C48.1572 220.023 43.6844 234.194 44.1317 249.707C44.8772 269.695 59.0411 409.316 61.7247 441.388H90.2016Z" fill="url(#paint1_linear_189_1015)"/>
<path d="M46.9648 248.514L49.3503 272.53L51.5867 296.546L56.0595 344.578L60.2342 392.61L62.3215 416.626L64.1106 440.642L61.7251 416.626L59.4887 392.61L55.0159 344.578L50.8413 296.546L48.754 272.53L46.9648 248.514Z" fill="#F38C00"/>
<path d="M130.457 251.348L129.413 274.916L128.37 298.485L125.984 345.771L123.45 393.057L121.959 416.626L120.468 440.194L121.511 416.626L122.555 393.057L124.941 345.771L127.475 298.485L128.966 274.916L130.457 251.348Z" fill="#F38C00"/>
<path d="M83.1943 281.48C84.8344 280.585 86.4744 279.839 88.1144 279.242C89.9035 278.646 91.5436 278.198 93.4818 278.049C91.8418 278.944 90.2017 279.69 88.5617 280.286C86.7726 280.883 85.1326 281.331 83.1943 281.48Z" fill="#F38C00"/>
<path d="M88.2634 285.656C87.8161 284.761 87.667 283.717 87.667 282.822C87.667 281.927 87.8161 280.883 88.2634 279.988C88.7106 280.883 88.8597 281.927 88.8597 282.822C88.7106 283.717 88.7106 284.761 88.2634 285.656Z" fill="#F38C00"/>
<path d="M108.241 93.8266C107.943 90.6941 107.794 87.4124 108.241 84.7274C108.391 83.3849 108.838 82.3407 109.434 81.5949L97.0595 73.9873L83.1938 77.269C83.6411 78.164 83.9393 81.5949 83.9393 82.7882V80.5507C83.9393 83.2357 83.492 88.7549 82.7465 91.7383C81.5538 96.0641 80.2119 99.7933 80.2119 99.7933L94.674 105.462L109.583 102.18C109.583 102.18 108.689 98.3017 108.241 93.8266Z" fill="#F99678"/>
<path d="M83.9395 80.5508C83.9395 80.5508 92.1396 87.4125 108.838 82.9375C108.838 83.0866 94.8233 100.39 83.9395 80.5508Z" fill="#FE7C53"/>
<path d="M80.8083 96.9592C80.8083 96.9592 93.9286 108.743 109.136 99.0476C109.136 99.0476 117.038 103.523 124.045 103.97L121.362 166.024L118.976 193.172L127.773 218.978C127.773 218.978 76.6337 227.928 49.3496 213.608L60.3825 184.968C60.3825 184.968 57.997 111.876 55.6115 102.926C55.6115 102.777 68.2845 101.285 80.8083 96.9592Z" fill="white"/>
<path d="M185.323 172.14L153.417 171.543C153.417 171.543 142.682 117.693 136.42 110.384C130.158 103.224 108.987 94.125 108.391 93.8267L110.18 95.915C110.329 95.915 110.329 95.915 110.478 95.915C113.013 96.3625 114.802 97.705 116.442 99.1967C120.318 99.9425 124.344 102.926 126.133 106.506C127.326 107.252 128.518 107.998 129.711 108.743C133.14 111.428 133.289 115.605 129.711 118.29C128.369 119.334 127.027 120.229 125.685 121.124C125.089 121.423 124.642 121.87 124.045 122.169C123.896 122.318 123.747 122.467 123.747 122.616C124.045 123.362 124.344 124.108 124.642 124.854C125.685 128.881 124.493 132.909 123.3 136.638C121.66 141.56 121.66 146.334 121.064 151.555C120.616 155.731 119.573 160.057 120.914 164.085C121.66 166.173 121.213 167.814 120.02 169.007C121.809 174.526 123.896 180.046 126.58 184.67C128.22 182.432 130.904 180.941 133.886 180.941H188.007L185.323 172.14Z" fill="#399EFD"/>
<path d="M152.224 171.991C151.777 172.736 151.181 173.035 150.584 173.333C149.988 173.631 149.243 173.781 148.497 173.631C148.944 172.886 149.541 172.587 150.137 172.289C150.883 171.991 151.479 171.841 152.224 171.991Z" fill="#56C6DB"/>
<path d="M152.97 172.289C153.268 172.886 153.268 173.333 153.119 173.781C152.97 174.228 152.821 174.676 152.225 174.974C151.926 174.377 151.926 173.93 152.075 173.482C152.225 173.035 152.523 172.587 152.97 172.289Z" fill="#56C6DB"/>
<path d="M203.512 178.405C203.512 178.405 201.276 176.764 199.785 176.316C199.785 176.316 192.926 171.841 185.174 171.99C185.174 171.99 185.174 171.99 185.025 171.99C184.726 171.99 183.683 171.99 182.192 172.14C181.894 174.974 181.446 177.808 180.999 180.642H185.323C186.963 181.985 193.374 187.206 195.61 187.504C198.145 187.802 194.865 181.985 194.865 181.985C194.865 181.985 197.847 180.941 199.785 181.239C201.872 181.537 209.327 183.476 209.327 183.476C209.327 183.476 206.941 179.3 203.512 178.405Z" fill="#F99678"/>
<path d="M108.987 99.0475C108.987 99.0475 108.54 97.8542 108.391 93.8267L133.289 108.296L120.765 187.802L137.017 248.812C137.017 248.812 121.66 254.48 104.067 250.751L99.2959 171.543L108.987 99.0475Z" fill="#399EFD"/>
<path d="M108.391 93.6775C111.522 95.915 114.653 98.1525 117.783 100.539C120.914 102.926 123.896 105.313 126.878 107.848C127.624 108.445 128.369 109.191 128.965 109.937C129.264 110.235 129.711 110.683 130.009 111.13C130.158 111.428 130.307 111.578 130.456 111.876C130.456 112.025 130.456 112.174 130.456 112.473C130.456 112.622 130.456 112.771 130.307 112.92C129.86 113.964 128.965 114.561 128.369 115.307C127.624 115.903 126.878 116.5 125.984 117.097C122.704 119.334 119.424 121.274 115.994 123.064V122.169C118.082 123.66 120.02 125.152 121.958 126.942C122.405 127.389 122.853 127.837 123.151 128.583C123.151 128.732 123.3 129.179 123.151 129.478L123.002 129.925L122.554 130.82L120.765 133.953L113.907 147.229C109.285 156.03 104.514 164.98 99.7432 173.631C104.067 164.681 108.54 155.731 113.012 146.781L119.871 133.356L121.511 130.074L121.958 129.179L122.107 128.732C121.958 128.434 121.511 127.837 121.064 127.389C119.274 125.749 117.336 124.257 115.249 122.765C114.951 122.616 114.951 122.318 115.1 122.019L115.249 121.87C118.678 120.08 122.107 118.141 125.238 116.053C125.984 115.456 126.878 115.008 127.475 114.263C128.22 113.666 128.965 112.92 129.264 112.323C129.264 112.174 129.264 112.174 129.264 112.025V111.876C129.264 111.727 129.115 111.578 128.965 111.428C128.667 111.13 128.369 110.683 128.071 110.384C127.475 109.638 126.729 109.042 125.984 108.296C123.151 105.611 120.169 103.224 117.187 100.838C114.503 98.6 111.522 96.0642 108.391 93.6775Z" fill="#56C6DB"/>
<path d="M123.15 176.018C123.299 172.885 123.747 169.753 124.045 166.62C124.343 163.488 124.79 160.355 125.238 157.223C125.685 154.09 126.132 150.958 126.729 147.825C127.325 144.693 127.921 141.56 128.667 138.577L127.474 147.974C127.027 151.107 126.58 154.24 126.132 157.372C125.685 160.505 125.238 163.637 124.641 166.77C124.343 169.753 123.747 172.885 123.15 176.018Z" fill="#56C6DB"/>
<path d="M100.638 176.913L103.172 200.929C104.067 208.984 104.812 217.039 105.856 224.945C106.303 228.973 106.751 233 107.347 236.879C107.645 238.818 107.943 240.906 108.241 242.845C108.391 243.889 108.689 244.784 108.838 245.829C108.987 246.276 109.136 246.724 109.285 247.171C109.285 247.32 109.434 247.32 109.434 247.469C109.732 247.469 109.881 247.469 110.18 247.469C114.205 247.469 118.231 247.022 122.256 246.724C126.282 246.425 130.307 245.978 134.333 245.679C130.307 246.276 126.282 246.873 122.405 247.32C118.38 247.768 114.354 248.215 110.329 248.364C110.031 248.364 109.732 248.364 109.583 248.364C109.583 248.364 108.987 248.215 108.987 248.066C108.838 247.917 108.838 247.768 108.689 247.619C108.391 247.171 108.241 246.574 108.092 246.127C107.794 245.083 107.645 244.188 107.347 243.144C106.9 241.204 106.601 239.116 106.303 237.177C105.707 233.149 105.26 229.122 104.663 225.094C103.769 217.039 102.874 208.984 102.278 200.929C101.83 193.023 101.085 184.968 100.638 176.913Z" fill="#56C6DB"/>
<path d="M81.2557 96.81C81.2557 96.81 82.2993 96.6608 82.7466 91.7383L55.0152 101.434C55.0152 101.434 52.1824 133.356 53.077 143.649C53.9716 153.792 59.7862 184.222 59.7862 184.222L38.0186 244.188C38.0186 244.188 62.3208 257.016 80.212 251.049C80.212 251.049 92.5868 179.449 92.885 172.736C93.1832 166.024 81.2557 96.81 81.2557 96.81Z" fill="#399EFD"/>
<path d="M82.2989 91.8875C79.4661 94.5725 76.6333 97.2575 73.9496 99.9425C71.1168 102.628 68.4332 105.313 65.7495 108.296C65.1531 109.042 64.4076 109.788 63.8113 110.533C63.5131 110.832 63.2149 111.279 62.9167 111.727C62.7676 111.876 62.6185 112.174 62.6185 112.323C62.6185 112.473 62.6185 112.473 62.6185 112.473C62.6185 112.473 62.6185 112.622 62.6185 112.771C62.9167 113.517 63.6622 114.113 64.4076 114.71C65.1531 115.307 65.8986 115.903 66.644 116.5C69.775 118.588 73.2042 120.528 76.6333 122.318C76.9315 122.467 76.9315 122.765 76.7824 123.064C76.7824 123.213 76.6333 123.213 76.6333 123.213C74.6951 124.704 72.6078 126.196 70.8187 127.837C70.3714 128.284 69.9241 128.732 69.775 129.179C69.775 129.179 69.775 129.329 69.775 129.179L69.9241 129.627L70.3714 130.522L72.0114 133.804L78.8697 147.229C83.3425 156.179 87.8153 165.129 92.139 174.079C87.368 165.278 82.7461 156.477 77.9751 147.676L71.5641 133.953L69.775 130.671L69.3277 129.776L69.1786 129.329C69.0295 129.03 69.0295 128.583 69.1786 128.434C69.4768 127.688 69.9241 127.24 70.3714 126.793C72.1605 125.003 74.2478 123.511 76.3351 122.019V122.914C72.906 121.124 69.4768 119.185 66.3459 116.948C65.6004 116.351 64.7058 115.754 63.9604 115.158C63.2149 114.412 62.4694 113.815 62.0221 112.771C62.0221 112.622 61.873 112.473 61.873 112.323C61.873 112.174 61.873 111.876 61.873 111.727C62.0221 111.428 62.1712 111.279 62.3203 110.981C62.6185 110.533 62.9167 110.086 63.2149 109.788C63.8113 109.042 64.5567 108.296 65.1531 107.55C67.8368 104.716 70.6696 102.031 73.5023 99.495C76.4842 96.9592 79.317 94.4233 82.2989 91.8875Z" fill="#56C6DB"/>
<path d="M91.543 177.659C89.7539 186.311 87.8157 194.813 85.7284 203.316C83.6411 211.818 81.4047 220.321 79.1683 228.823C77.9755 233 76.7828 237.326 75.2918 241.503C74.5464 243.591 73.95 245.679 72.9063 247.768C72.7572 248.066 72.6081 248.215 72.459 248.514C72.31 248.812 72.0118 249.11 71.7136 249.259C71.1172 249.558 70.5208 249.558 69.9245 249.558C68.7317 249.558 67.6881 249.409 66.6444 249.259C57.997 247.768 49.4986 245.083 41.1494 242.398C45.324 243.591 49.6477 244.635 53.8224 245.679C58.1461 246.724 62.3207 247.768 66.6444 248.364C67.6881 248.514 68.7317 248.663 69.9245 248.663C70.3717 248.663 70.9681 248.663 71.4154 248.514C71.5645 248.364 72.0118 247.917 72.1609 247.469C73.0554 245.53 73.8009 243.442 74.3973 241.354C75.7391 237.177 76.9319 233 78.1246 228.674C80.5101 220.172 82.7465 211.669 84.9829 203.316L91.543 177.659Z" fill="#56C6DB"/>
<path d="M78.8711 136.041C78.8711 136.041 83.0457 128.583 88.264 135.892L78.8711 136.041Z" fill="#00C0D9"/>
<path d="M71.7139 149.466C71.7139 149.466 74.5466 140.964 77.3794 136.936C77.3794 136.936 80.9577 133.505 86.7723 135.146C88.5614 135.594 89.7542 137.085 89.9033 139.024L90.9469 150.66C90.9469 150.66 78.1249 145.439 71.7139 149.466Z" fill="#002B50"/>
<path d="M81.2562 161.698C86.6908 161.698 91.0964 157.29 91.0964 151.853C91.0964 146.416 86.6908 142.008 81.2562 142.008C75.8216 142.008 71.416 146.416 71.416 151.853C71.416 157.29 75.8216 161.698 81.2562 161.698Z" fill="#00C0D9"/>
<path d="M89.605 151.853C89.605 152.449 89.605 153.046 89.4559 153.643C89.1578 154.985 88.5614 156.328 87.5177 157.372C86.7723 158.118 85.8777 158.864 84.9831 159.311C83.9395 159.759 82.8958 160.057 81.7031 160.206C81.554 160.206 81.4049 160.206 81.2558 160.206C76.6339 160.206 73.0557 156.477 73.0557 152.002C73.0557 151.853 73.0557 151.704 73.0557 151.554C73.0557 150.361 73.3538 149.317 73.9502 148.273C74.3975 147.229 75.143 146.483 75.8884 145.737C76.9321 144.842 78.1248 144.245 79.6158 143.947C80.2122 143.798 80.8085 143.798 81.4049 143.798C85.8777 143.499 89.605 147.229 89.605 151.853Z" fill="#A1E2EF"/>
<path opacity="0.71" d="M84.9831 159.311C83.9395 159.759 82.8958 160.057 81.7031 160.206L73.0557 151.555C73.0557 150.361 73.3538 149.317 73.9502 148.273L84.9831 159.311Z" fill="white"/>
<path opacity="0.71" d="M89.3068 153.643C89.0086 154.985 88.4122 156.328 87.3686 157.372L75.7393 145.737C76.7829 144.842 77.9757 144.245 79.4666 143.947L89.3068 153.643Z" fill="white"/>
<path d="M105.707 136.041C105.707 136.041 101.533 128.583 96.3145 135.892L105.707 136.041Z" fill="#00C0D9"/>
<path d="M112.715 149.466C112.715 149.466 109.882 140.964 107.05 136.936C107.05 136.936 103.471 133.505 97.6567 135.146C95.8676 135.594 94.6748 137.085 94.5257 139.024L93.6312 150.809C93.4821 150.66 106.304 145.439 112.715 149.466Z" fill="#002B50"/>
<path d="M103.173 161.698C108.608 161.698 113.013 157.29 113.013 151.853C113.013 146.416 108.608 142.008 103.173 142.008C97.7386 142.008 93.333 146.416 93.333 151.853C93.333 157.29 97.7386 161.698 103.173 161.698Z" fill="#00C0D9"/>
<path d="M111.522 151.853C111.522 153.195 111.224 154.538 110.628 155.582C109.882 156.925 108.839 158.118 107.497 158.864C106.304 159.61 104.813 160.057 103.322 160.057C98.7003 160.057 95.1221 156.328 95.1221 151.853C95.1221 150.361 95.5693 148.869 96.3148 147.676C97.0603 146.334 98.253 145.289 99.5949 144.544C100.788 143.947 101.98 143.649 103.322 143.649C107.795 143.499 111.522 147.229 111.522 151.853Z" fill="#A1E2EF"/>
<path opacity="0.71" d="M110.479 155.582C109.733 156.925 108.69 158.118 107.348 158.864L96.0166 147.676C96.7621 146.334 97.9548 145.29 99.2967 144.544L110.479 155.582Z" fill="white"/>
<path d="M88.7109 137.682C88.7109 137.682 91.991 136.19 96.1656 137.682L94.3765 147.527C94.3765 147.527 92.5874 146.632 90.5001 147.527L88.7109 137.682Z" fill="#002B50"/>
<path d="M80.5102 134.549C80.5102 134.549 77.8265 134.102 76.3355 134.549C76.3355 134.549 69.6263 134.102 63.3644 136.936C63.2153 136.936 62.9171 136.936 62.768 136.936C62.0226 139.621 61.4262 142.157 60.8298 144.842C60.0843 147.676 59.488 150.361 58.8916 153.195C62.6189 151.256 66.1972 149.168 69.9245 146.93L72.31 147.825L73.6519 144.395V144.245C74.2482 142.903 74.9937 141.71 74.9937 141.71C74.9937 141.71 77.081 139.323 79.0192 138.726C80.9574 138.129 88.5612 135.594 88.5612 135.594C88.5612 135.594 84.0884 133.654 80.5102 134.549Z" fill="#F99678"/>
<path d="M53.6737 101.285C49.6482 103.075 7.00748 137.234 7.60385 153.345C8.34932 169.455 24.6005 167.963 28.3279 167.366C32.0552 166.77 70.074 148.571 70.074 148.571L67.9867 134.549L60.6811 135.892C60.6811 135.892 61.7248 134.848 63.3648 133.356C63.0666 133.207 62.7685 132.909 62.4703 132.759C60.5321 130.969 60.383 128.732 61.2775 126.942C60.532 126.345 59.7866 125.748 59.3393 124.853C58.1465 122.914 58.1466 120.826 58.892 119.036C54.8665 116.053 54.121 110.683 59.3393 106.208C62.4703 103.522 63.8121 102.031 67.8376 100.837C71.2668 96.5116 76.7832 94.4233 82.1506 92.6333L82.747 92.0366C82.747 91.8874 57.5502 99.495 53.6737 101.285Z" fill="#399EFD"/>
<path d="M67.8378 134.549C65.6014 135.295 63.365 136.041 60.9795 136.638C58.7431 137.234 56.3576 137.831 54.1212 138.428C51.7357 139.024 49.4993 139.472 47.1138 139.919L43.6847 140.665C42.4919 140.814 41.2992 141.113 40.1064 141.262C41.2992 140.814 42.3428 140.516 43.5356 140.218L46.9647 139.174C49.2011 138.577 51.5866 137.98 53.823 137.384C56.2085 136.787 58.4449 136.339 60.8304 135.892C63.0668 135.295 65.4523 134.848 67.8378 134.549Z" fill="#56C6DB"/>
<path d="M41.1504 137.98C42.3431 137.682 43.3868 137.831 44.4304 137.98C45.4741 138.129 46.5178 138.428 47.5614 139.024C46.3687 139.323 45.325 139.173 44.2814 139.024C43.2377 138.875 42.194 138.577 41.1504 137.98Z" fill="#56C6DB"/>
<path d="M54.8672 155.582C57.2527 153.941 59.7873 152.599 62.1728 151.405C64.7074 150.212 67.242 149.019 70.0747 148.273C67.6892 149.914 65.1546 151.256 62.7691 152.449C60.0855 153.643 57.5509 154.836 54.8672 155.582Z" fill="#56C6DB"/>
<path d="M127.475 57.4296C126.879 54.8938 124.493 52.8054 121.809 53.2529C125.537 19.8394 97.209 22.0769 97.209 22.0769C79.6159 22.226 76.0377 40.7228 75.4413 50.2696C74.8449 49.8221 74.3977 49.6729 74.0995 49.5237C71.5649 48.6287 68.8812 50.4187 67.8375 52.8054C67.0921 54.7446 67.3903 56.833 68.2848 58.623C69.0303 60.1146 70.5212 61.6063 72.0122 62.203C72.3104 62.3522 73.8013 62.7997 74.994 62.7997C76.1868 85.0257 96.1653 84.429 96.1653 84.429C113.311 86.6665 118.678 75.0314 120.468 66.3797C121.064 66.3797 121.66 66.2305 121.809 66.2305C123.449 65.783 125.089 64.5897 125.984 63.2472C127.326 61.6063 127.922 59.3688 127.475 57.4296Z" fill="#F99678"/>
<path d="M106.304 64.1421C106.005 67.2746 108.391 69.9596 111.522 70.2579C114.653 70.5563 117.336 68.1696 117.635 65.0371C117.933 61.9045 115.547 59.2195 112.416 58.9212C109.136 58.772 106.453 61.1587 106.304 64.1421Z" fill="#F98764"/>
<path d="M85.3391 67.9828C88.373 67.2171 90.212 64.1357 89.4467 61.1003C88.6813 58.0649 85.6014 56.225 82.5675 56.9907C79.5337 57.7564 77.6947 60.8379 78.46 63.8733C79.2254 66.9086 82.3053 68.7486 85.3391 67.9828Z" fill="#F98764"/>
<path d="M104.067 53.104C103.918 54.894 104.514 56.5349 105.409 56.5349C106.303 56.5349 107.198 55.1924 107.347 53.4024C107.496 51.6124 106.9 49.9715 106.005 49.9715C105.11 49.8223 104.216 51.1648 104.067 53.104Z" fill="#002B50"/>
<path d="M109.434 49.0765C109.136 49.524 108.689 49.9715 108.242 50.419C107.794 50.8665 107.198 51.0157 106.452 51.1648C106.154 51.1648 105.856 51.0157 105.707 50.7173C105.707 50.419 105.856 50.1206 106.154 49.9715H106.303C107.198 50.1206 108.242 49.6731 108.987 48.9273C109.136 48.7781 109.136 48.7781 109.285 48.9273C109.434 48.9273 109.434 49.0765 109.434 49.0765Z" fill="#002B50"/>
<path d="M93.3322 52.209C93.1831 53.999 92.2885 55.4907 91.394 55.3415C90.4994 55.3415 89.903 53.7007 90.0521 51.9106C90.2012 50.1206 91.0958 48.629 91.9903 48.7781C92.8849 48.7781 93.4813 50.419 93.3322 52.209Z" fill="#002B50"/>
<path d="M89.1576 47.2864C89.7539 48.1814 90.7976 48.7781 91.6922 48.7781C91.9903 48.7781 92.2885 49.0764 92.2885 49.3747C92.2885 49.6731 91.9903 49.9714 91.6922 49.9714H91.5431C90.9467 49.8222 90.3503 49.3747 89.903 48.9272C89.4558 48.4797 89.1576 48.0322 88.8594 47.4355C88.8594 47.2864 88.8594 47.2864 89.0085 47.1372C89.0085 47.1372 89.0085 47.1372 89.1576 47.2864Z" fill="#002B50"/>
<path d="M104.067 63.0981C103.471 64.1423 102.427 65.0373 101.383 65.634C100.34 66.2307 98.998 66.6782 97.6561 66.529C96.3143 66.3798 95.1215 65.7831 94.0779 65.0373C93.6306 64.5898 93.1833 64.1423 92.736 63.6948C92.4379 63.2473 91.9906 62.6506 91.6924 62.054C92.1397 62.5015 92.5869 62.949 93.0342 63.2473C93.4815 63.5456 93.9288 63.9931 94.3761 64.2915C95.2706 64.8881 96.4634 65.3356 97.507 65.4848C98.5507 65.634 99.7434 65.3356 100.787 64.8881C102.129 64.5898 103.023 63.9931 104.067 63.0981Z" fill="#002B50"/>
<path d="M99.1469 68.7666C98.6996 69.2141 97.9542 69.2141 97.3578 69.2141C96.7614 69.2141 96.1651 68.9158 95.7178 68.4683C96.3141 68.6174 96.9105 68.7666 97.3578 68.7666C97.9542 68.7666 98.5506 68.7666 99.1469 68.7666Z" fill="#002B50"/>
<path d="M95.5691 40.8721C94.8236 40.1262 94.0782 39.8279 93.1836 39.6787C92.289 39.5296 91.3945 39.6787 90.4999 39.8279C89.6054 39.9771 88.7108 40.4246 87.9653 41.0212C87.2199 41.4687 86.6235 42.2146 86.1762 42.9604C85.878 43.2588 86.0271 43.8554 86.3253 44.0046C86.6235 44.1538 86.9217 44.1538 87.2199 44.0046C87.8162 43.5571 88.2635 43.1096 88.8599 42.8113C89.4563 42.5129 90.0526 42.3637 90.649 42.2146C91.2454 42.0654 91.9909 42.0654 92.5872 42.2146C93.1836 42.2146 93.9291 42.3637 94.6745 42.2146H94.8236C95.2709 42.2146 95.5691 41.7671 95.5691 41.3196C95.7182 41.0212 95.7182 40.8721 95.5691 40.8721Z" fill="#002B50"/>
<path d="M103.62 41.4687C104.366 40.8721 105.26 40.7229 106.155 40.7229C107.049 40.7229 107.944 41.0212 108.838 41.3196C109.733 41.6179 110.478 42.2146 111.075 42.8113C111.671 43.4079 112.118 44.1538 112.566 45.0488C112.715 45.4963 112.566 45.9438 112.118 46.0929C111.82 46.2421 111.373 46.0929 111.224 45.9438C110.777 45.3471 110.329 44.8996 109.733 44.6013C109.286 44.1538 108.689 44.0046 108.093 43.7063C107.496 43.5571 106.9 43.4079 106.155 43.4079C105.558 43.4079 104.813 43.4079 104.067 43.1096H103.918C103.471 42.9604 103.322 42.5129 103.471 42.0654C103.471 41.6179 103.62 41.4687 103.62 41.4687Z" fill="#002B50"/>
<path d="M99.4451 47.5847C99.5942 48.9272 99.7433 50.1206 99.8924 51.3139C100.041 52.5073 100.191 53.8498 100.489 55.0431C100.489 55.3414 100.638 55.6398 100.638 55.9381C100.638 56.2364 100.936 56.6839 100.787 56.9823C100.787 57.8773 100.191 58.6231 99.4451 58.9215C98.6996 59.2198 97.9542 59.0706 97.3578 58.9215C96.7614 58.6231 96.1651 58.3248 95.7178 57.7281C96.9105 58.3248 98.2524 58.7723 98.9978 58.1756C99.4451 57.8773 99.7433 57.4298 99.5942 56.9823C99.5942 56.6839 99.5942 56.5348 99.4451 56.2364C99.296 55.9381 99.296 55.6398 99.1469 55.3414C98.8487 53.9989 98.8487 52.8056 98.8487 51.4631C99.1469 50.1206 99.296 48.9272 99.4451 47.5847Z" fill="#002B50"/>
<path d="M69.9248 54.7446C69.9248 53.9988 70.223 53.1037 70.9685 52.6562C71.7139 52.0596 72.7576 52.2087 73.503 52.6562C74.2485 52.9546 74.994 53.5512 75.4413 54.2971C75.8885 55.0429 76.3358 55.6396 76.4849 56.5346C76.634 56.8329 76.4849 57.1313 76.1867 57.2804C76.0376 57.2804 75.7395 57.2804 75.5904 57.1313C75.1431 56.5346 74.3976 55.9379 73.8012 55.6396C73.503 55.4904 73.2049 55.4904 73.0558 55.6396C72.7576 55.7888 72.6085 56.0871 72.4594 56.3854C72.1612 57.1313 71.863 57.8771 72.4594 58.3246C73.0558 58.7721 74.0994 58.7721 74.8449 58.6229C73.9503 58.9213 73.0558 59.0705 72.1612 58.7721C71.7139 58.623 71.2666 57.8771 71.2666 57.4296C71.2666 56.8329 71.4157 56.3854 71.5648 55.9379C71.7139 55.4904 72.0121 55.0429 72.4594 54.5954C72.9067 54.1479 73.6521 54.1479 74.2485 54.4463C75.2922 54.8938 75.8885 55.4904 76.4849 56.2363L75.4413 56.6838C74.994 55.3413 74.2485 53.9988 73.2049 53.2529C72.6085 52.9546 71.863 52.6562 71.2666 52.9546C70.6703 53.2529 70.223 53.9988 69.9248 54.7446Z" fill="#002B50"/>
<path d="M125.984 59.0706C126.133 58.3248 125.984 57.4298 125.239 56.8331C124.642 56.2364 123.599 56.2364 122.704 56.3856C121.81 56.5348 121.213 57.1314 120.617 57.7281C120.02 58.3248 119.573 58.9215 119.126 59.8165C118.977 60.1148 119.126 60.4131 119.424 60.5623C119.573 60.7115 119.871 60.5623 120.02 60.4131C120.617 59.9656 121.362 59.369 121.959 59.2198C122.257 59.2198 122.555 59.2198 122.704 59.369C122.853 59.5181 123.002 59.9656 123.151 60.264C123.45 61.0098 123.45 61.9048 122.853 62.2031C122.108 62.5015 121.213 62.3523 120.319 62.2031C121.064 62.6507 121.959 62.949 123.002 62.7998C123.599 62.6506 124.046 62.054 124.046 61.6065C124.195 61.159 124.046 60.5623 124.046 60.1148C123.897 59.6673 123.748 59.0706 123.3 58.6231C122.853 58.1756 122.108 58.0265 121.66 58.1756C120.617 58.474 119.871 58.9215 119.126 59.6673L120.02 60.264C120.617 59.0706 121.511 57.7281 122.853 57.2806C123.45 56.9823 124.195 56.9823 124.791 57.2806C125.537 57.579 125.835 58.3248 125.984 59.0706Z" fill="#002B50"/>
<path d="M132.693 94.1249C131.947 90.6941 130.307 87.7107 128.667 84.7274C127.027 81.744 125.536 78.7607 124.791 75.479C129.711 69.5123 132.693 61.1589 131.798 50.4188C131.202 42.5129 128.369 36.397 124.791 31.6237C113.311 16.5577 91.8413 13.1269 77.0811 24.9111C73.0555 28.1928 69.3282 32.6678 66.4954 38.9329C61.4262 50.1205 62.4699 59.2197 66.4954 66.5289C66.1972 67.7223 65.75 68.9156 65.0045 69.9598C61.8735 75.6282 55.6116 79.3573 52.9279 85.3241C50.6915 90.3958 51.2879 96.0641 53.3752 101.285C53.5243 101.285 53.5243 101.136 53.6734 101.136C57.5498 99.3458 81.2557 92.1858 82.7466 91.7383H82.8957C83.6412 88.9041 84.0885 83.8324 84.0885 80.9982C84.0885 80.849 84.0885 80.6999 84.0885 80.5507C79.7648 77.5673 75.7392 72.1973 75.441 62.7997C74.2483 62.7997 72.7574 62.3522 72.4592 62.2031C70.9682 61.4572 69.4773 60.1147 68.7318 58.623C68.1355 57.4297 67.8373 56.2363 67.8373 54.8938C67.8373 54.5955 67.8373 54.148 67.9864 53.8497C67.9864 53.7005 68.1355 53.5513 68.1355 53.253C68.1355 53.1038 68.2845 52.8055 68.2845 52.6563C69.1791 50.2696 72.0119 48.6288 74.5465 49.3746C74.8447 49.5238 75.1428 49.673 75.7392 49.9713C76.932 52.9547 78.4229 55.4905 78.4229 55.4905L78.7211 50.4188C83.4921 49.3746 82.8957 36.9937 87.8158 33.8612C92.7359 30.7287 96.0159 34.4579 96.0159 34.4579C96.0159 34.4579 103.769 47.4354 116.293 47.7338C116.889 49.8221 117.784 51.9105 118.529 52.8055L116.591 57.5789C116.591 57.5789 119.573 55.4905 122.107 53.1038C124.642 52.8055 127.027 54.8938 127.624 57.2805C128.071 59.2197 127.475 61.4572 126.282 62.9489C126.133 63.0981 125.984 63.3964 125.835 63.5456C125.686 63.6947 125.536 63.8439 125.238 64.1422C124.344 65.0372 123.151 65.6339 121.958 66.0814C121.809 66.0814 121.213 66.2306 120.616 66.2306C119.424 72.1973 116.442 79.6557 108.987 82.9374C108.838 83.3849 108.689 83.9815 108.54 84.5782C108.093 87.1141 108.242 90.5449 108.391 93.6774C108.987 93.9758 122.853 99.9425 131.5 105.909C132.842 102.18 133.438 98.1525 132.693 94.1249Z" fill="#002B50"/>
<path opacity="0.5" d="M105.408 44.3029C110.925 43.8554 116.59 43.8554 122.107 44.6012C125.238 45.0487 128.369 45.7945 131.202 46.9879C130.456 42.9604 129.263 39.5295 127.772 36.397C119.274 37.292 110.328 41.1703 101.383 40.1262C100.936 40.1262 100.488 39.977 100.041 39.977C101.532 41.3195 103.321 42.9604 105.408 44.3029Z" fill="#002B50"/>
<path opacity="0.5" d="M70.8189 45.198C74.248 46.6897 77.8263 47.2863 81.5536 47.2863C83.1936 43.2588 84.0882 36.8446 87.2192 34.3087C84.9828 32.9662 82.5973 31.6237 80.2118 30.4304C79.1681 29.9829 76.7826 28.6404 74.0989 27.5962C71.1171 30.5795 68.4334 34.3087 66.3461 39.0821C65.8988 39.9771 65.6006 41.0213 65.1533 41.9163C67.0915 42.9605 68.8807 44.303 70.8189 45.198Z" fill="#002B50"/>
<path d="M332.777 460.63H381.829C370.349 459.138 358.421 450.636 358.421 450.636V439.896H332.628C333.224 445.415 333.672 449.144 333.821 450.188C332.777 454.067 332.628 457.945 332.777 460.63Z" fill="#EA9063"/>
<path d="M333.373 451.083C333.373 451.083 330.988 461.973 333.075 466H340.231L340.679 462.868L342.766 466H390.178C390.178 466 389.731 461.973 388.24 460.332C386.749 458.691 367.665 456.901 358.719 448.846C358.719 448.846 348.133 447.951 347.09 448.846C346.046 449.741 345.599 455.111 342.915 454.812C340.231 454.514 336.653 450.487 336.653 450.487L333.373 451.083Z" fill="#1A2E35"/>
<path d="M405.385 460.63H454.437C442.36 459.138 428.644 450.487 428.644 450.487C428.495 448.398 428.196 444.818 427.749 440.045H404.192L406.429 450.188C405.385 453.768 405.236 457.945 405.385 460.63Z" fill="#EA9063"/>
<path d="M405.534 451.083C405.534 451.083 403.149 461.973 405.236 466H412.393L412.84 462.868L414.927 466H462.19C462.19 466 461.743 461.973 460.252 460.332C458.761 458.691 439.677 456.901 430.731 448.846C430.731 448.846 420.145 447.951 419.102 448.846C418.058 449.741 417.611 455.111 414.927 454.812C412.244 454.514 408.665 450.487 408.665 450.487L405.534 451.083Z" fill="#1A2E35"/>
<path d="M429.688 446.459L401.36 230.763C401.36 230.763 397.484 213.31 394.204 206.747H316.824C315.482 211.818 313.842 219.724 313.544 228.823C312.948 244.486 332.032 447.503 332.032 447.503H360.061L359.763 240.309L405.236 446.31H429.688V446.459Z" fill="url(#paint2_linear_189_1015)"/>
<path d="M326.664 204.957C325.024 209.73 323.533 214.652 322.34 219.575C321.148 224.498 320.253 229.42 319.955 234.492C319.806 239.563 320.402 244.635 320.7 249.558L322.042 264.624L327.41 325.186L332.777 385.748L335.461 416.029L337.995 446.31L334.864 416.029L331.882 385.748L326.217 325.186C324.428 305.048 322.639 284.91 321.148 264.624L319.955 249.409C319.657 244.337 319.06 239.265 319.359 234.193C319.806 229.122 320.7 224.05 322.042 219.277C323.384 214.652 324.875 209.73 326.664 204.957Z" fill="#0064AF"/>
<path d="M354.545 243.591C356.334 242.398 358.123 241.503 360.061 240.757C362 240.011 363.938 239.265 366.025 238.818C364.236 240.011 362.447 240.906 360.509 241.652C358.57 242.547 356.632 243.143 354.545 243.591Z" fill="#0064AF"/>
<path d="M409.262 444.818L403.149 419.311L397.185 393.803L385.407 342.638L373.927 291.474L368.112 265.966L362.596 240.309L368.709 265.817L374.672 291.325L386.451 342.489L397.931 393.654L403.596 419.161L409.262 444.818Z" fill="#0064AF"/>
<path d="M335.013 96.9592C336.951 99.6442 338.74 102.628 340.38 105.611C342.616 108.296 345.151 110.832 347.387 113.368C348.133 114.263 348.878 115.008 349.624 115.903C357.228 116.798 364.831 117.395 372.435 116.948C373.479 115.456 374.522 113.815 375.566 112.323C377.504 109.489 379.293 106.804 381.232 103.97C381.679 103.224 382.126 102.628 382.424 101.882C378.846 99.9425 376.013 98.4508 373.926 95.915C373.628 94.7217 372.733 91.5891 372.137 88.1583C371.541 85.1749 371.242 81.7441 371.541 79.059C371.69 77.7165 371.988 76.6723 372.435 75.7773L342.915 59.2197C342.915 59.3689 342.915 59.3689 342.915 59.5181C343.362 62.2031 346.94 83.8324 343.213 95.1692C341.126 96.2133 338.293 96.9592 335.013 96.9592Z" fill="#EA9063"/>
<path d="M372.137 88.1582C356.035 90.2465 347.984 71.0039 347.686 70.2581C350.667 75.0314 354.991 77.2689 359.166 78.4623C364.384 79.8048 369.304 79.3573 371.391 79.059C371.391 79.059 371.391 79.059 371.541 79.059C371.242 81.744 371.541 85.0257 372.137 88.1582Z" fill="#E47E4A"/>
<path d="M386.45 99.4949C383.767 98.0032 373.479 95.0199 373.479 95.0199L363.937 111.876C363.937 111.876 356.632 97.7049 354.395 95.3182C352.159 92.9315 343.213 93.5282 343.213 93.5282C343.213 93.5282 327.409 95.4674 320.104 99.0474C312.947 102.627 294.758 123.063 294.758 123.063L317.569 144.693L321.296 180.045L313.842 211.072H358.123L359.912 207.94L360.955 211.072H395.843L390.178 151.405L394.054 156.477C394.352 156.328 394.501 156.328 394.8 156.179C404.938 152.002 408.814 133.803 409.709 128.583C409.858 127.688 409.858 127.24 409.858 127.24C409.858 127.24 389.283 100.837 386.45 99.4949Z" fill="#399EFD"/>
<path d="M363.341 112.771C363.341 120.677 363.191 128.433 363.191 136.339L362.744 159.908L361.999 183.476L361.551 195.261C361.402 199.139 361.253 203.017 360.955 207.045C360.955 203.166 360.955 199.139 360.955 195.261L361.104 183.476L361.551 159.908L362.297 136.339C362.595 128.433 362.893 120.677 363.341 112.771Z" fill="#FD4000"/>
<path d="M390.028 150.51C389.581 146.035 389.581 141.709 389.581 137.234C389.581 132.759 389.73 128.433 390.177 123.958C390.625 128.433 390.625 132.759 390.625 137.234C390.625 141.709 390.476 146.184 390.028 150.51Z" fill="#FD4000"/>
<path d="M317.569 144.693L318.166 145.289H318.017C319.955 143.052 322.042 140.814 323.98 138.577C326.068 136.339 328.155 134.251 330.242 132.163C332.33 130.074 334.417 127.986 336.653 125.898C338.741 123.809 340.977 121.721 343.213 119.782C341.275 122.019 339.337 124.257 337.25 126.494C335.162 128.732 333.224 130.82 331.137 133.058C329.05 135.146 326.962 137.384 324.726 139.323C322.639 141.411 320.402 143.499 318.166 145.439C318.166 145.439 318.166 145.439 318.017 145.439L317.569 144.693Z" fill="#FD4000"/>
<path d="M332.926 211.222C331.137 208.387 328.602 205.255 327.708 204.062C326.664 201.675 317.122 181.239 306.238 156.925C310.115 152.599 313.842 148.422 317.271 144.394L296.398 124.406C295.355 125.45 294.311 126.644 293.267 127.837C288.496 132.909 283.576 138.428 278.507 144.544C275.078 148.72 274.631 154.687 277.314 159.311C280.743 165.278 284.62 171.096 288.645 176.913C297.144 188.996 306.984 200.482 318.464 210.327C318.315 213.012 319.806 215.697 321.148 217.487C319.955 217.188 315.482 218.978 315.333 219.575C315.184 220.321 316.675 227.183 322.341 226.138C328.155 225.094 335.163 214.802 332.926 211.222ZM322.49 220.47L321.297 219.426C321.297 219.426 321.893 218.68 321.744 217.934C322.49 218.829 322.937 219.426 322.937 219.426L322.49 220.47Z" fill="#EA9063"/>
<path d="M301.468 154.687C302.362 154.687 303.108 154.985 303.853 155.284C304.599 155.731 305.195 156.179 305.791 156.925C304.897 156.925 304.151 156.626 303.406 156.328C302.661 155.88 302.064 155.433 301.468 154.687Z" fill="#E47E4A"/>
<path d="M318.166 220.619C318.613 220.172 319.061 220.022 319.657 219.873C320.104 219.724 320.552 219.724 321.297 219.724C321.148 220.47 320.552 220.768 319.955 220.917C319.359 221.067 318.613 221.067 318.166 220.619Z" fill="#E47E4A"/>
<path d="M319.358 220.321C320.253 220.768 320.849 221.067 321.446 220.917C321.744 220.917 321.893 220.768 322.34 220.47C322.638 220.172 322.937 220.022 323.384 219.724C323.384 220.172 323.235 220.619 323.086 221.067C322.788 221.514 322.489 221.812 321.893 221.962C321.297 222.111 320.7 221.812 320.402 221.514C319.657 221.216 319.507 220.768 319.358 220.321Z" fill="#E47E4A"/>
<path d="M435.353 159.013C434.906 161.25 434.459 163.339 434.161 165.576C431.626 177.51 416.866 181.537 408.666 172.587C407.175 170.946 405.684 169.305 404.193 167.665C400.764 163.786 397.633 160.057 394.8 156.477C404.938 152.3 408.815 134.102 409.709 128.881C411.051 130.522 412.542 132.312 414.033 133.953C421.04 109.489 426.408 89.9482 426.408 89.9482L437.291 90.2466C440.87 113.517 439.23 137.384 435.353 159.013Z" fill="#EA9063"/>
<path d="M413.735 134.251C413.735 138.279 413.436 142.157 413.287 146.184C413.138 148.124 413.138 150.063 413.138 152.151C413.138 154.09 413.138 156.029 413.287 158.118C412.691 156.179 412.393 154.239 412.244 152.151C412.095 150.212 412.095 148.124 412.244 146.184C412.393 142.008 412.84 138.129 413.735 134.251Z" fill="#E47E4A"/>
<path d="M408.517 52.8054C408.517 52.8054 402.702 60.413 412.542 63.5455L408.517 52.8054Z" fill="#002B50"/>
<path d="M420.891 63.0981C420.891 63.0981 423.425 85.7716 432.669 97.4066C433.116 98.0033 433.862 98.3017 434.607 98.1525C436.545 97.8541 440.72 97.1083 445.193 95.1691C446.237 94.7216 446.684 93.3791 446.087 92.3349C442.807 86.2191 434.309 65.6339 433.116 57.1313L420.891 63.0981Z" fill="#002B50"/>
<path d="M424.171 42.0654L409.112 47.7338C408.665 47.883 408.218 48.3305 408.218 48.9271C407.77 51.7613 407.323 60.7114 414.778 66.3798C415.225 66.6781 415.672 66.8273 416.12 66.5289L431.476 61.3081L424.171 42.0654Z" fill="#407BFF"/>
<path d="M455.033 3.13257C455.033 3.13257 454.884 25.8061 423.873 41.4687C423.575 41.6178 423.276 41.9162 423.276 42.2145C422.829 44.6012 421.338 54.2971 431.178 61.7555C431.477 62.0538 431.924 62.0538 432.371 61.9047C435.949 60.1146 446.237 55.938 480.976 69.0647L473.074 32.3694L455.033 3.13257Z" fill="#C6E8EF"/>
<path d="M458.164 1.19341C463.532 -0.745775 473.521 12.5302 480.528 31.027C487.536 49.5238 488.878 66.2305 483.659 68.1697C479.186 69.9597 471.135 60.413 464.575 46.0929C463.383 43.557 462.339 41.0212 461.295 38.3362C460.252 35.502 459.357 32.817 458.463 30.1319C453.99 15.066 453.691 2.83425 458.164 1.19341Z" fill="white"/>
<path d="M469.943 34.9054C471.732 39.3804 469.943 44.303 466.066 45.7947C465.619 45.9438 465.023 46.093 464.426 46.2422C463.234 43.7063 462.19 41.1705 461.146 38.4854C460.103 35.6512 459.208 32.9662 458.313 30.2812C458.761 29.9829 459.208 29.6845 459.804 29.5354C463.681 27.8945 468.303 30.4304 469.943 34.9054Z" fill="#00C0D9"/>
<path d="M457.866 0.298424C464.725 -2.23743 475.012 14.0219 481.423 30.7286C487.685 47.4354 490.816 66.5289 483.958 69.0648C477.099 71.6006 466.812 55.3413 460.401 38.6345C453.99 21.9277 451.008 2.83428 457.866 0.298424Z" fill="#002B50"/>
<path d="M458.463 2.08849C454.288 3.58017 454.885 18.7953 462.19 38.0379C469.496 57.2806 479.187 68.9156 483.212 67.424C487.387 65.9323 486.791 50.7172 479.485 31.4745C472.329 12.0827 462.638 0.447643 458.463 2.08849Z" fill="#002B50"/>
<path d="M426.408 96.81C426.408 96.81 420.146 86.6666 419.549 85.1749C419.102 84.1308 421.637 79.3574 423.127 76.5232C423.724 75.479 425.066 75.3299 425.96 76.2249C426.706 77.1199 427.451 78.1641 427.451 79.3574C427.451 81.8933 425.96 83.3849 425.96 83.3849C425.96 83.3849 432.669 89.7992 429.986 95.02L426.408 96.81Z" fill="#EA9063"/>
<path d="M442.509 85.7715C442.509 85.7715 438.633 88.1582 437.887 87.8599C436.993 87.5615 438.036 85.1749 438.036 85.1749C438.036 85.1749 434.905 86.8157 434.16 86.3682C433.415 85.9207 435.353 81.744 435.353 81.744C435.353 81.744 432.818 82.7882 432.222 82.639C431.476 82.4898 434.905 75.6281 434.905 75.6281C434.905 75.6281 431.476 76.374 431.029 74.584C430.582 72.7939 436.247 68.1697 437.291 68.6172C438.335 69.2139 439.229 72.0481 439.229 72.0481C439.229 72.0481 441.018 74.4348 441.167 76.6723C441.167 76.6723 443.255 79.2082 443.404 80.6998C443.404 80.6998 444.298 83.534 445.64 85.1749C446.982 86.8157 445.342 90.5449 445.342 90.5449C445.342 90.5449 443.553 87.4124 442.509 85.7715Z" fill="#EA9063"/>
<path d="M434.906 75.3298C435.354 74.4348 436.099 73.8381 436.844 73.2414C437.59 72.6448 438.335 72.1973 439.379 72.0481C438.932 72.9431 438.186 73.5398 437.441 74.1364C436.695 74.5839 435.801 75.1806 434.906 75.3298Z" fill="#E47E4A"/>
<path d="M435.503 81.5949C436.099 80.5507 436.994 79.6557 437.888 78.9099C438.783 78.164 439.827 77.4182 441.019 76.9707C440.423 78.0149 439.528 78.9099 438.634 79.6557C437.739 80.4016 436.696 81.1474 435.503 81.5949Z" fill="#E47E4A"/>
<path d="M437.888 85.0256C438.633 84.1306 439.528 83.3847 440.422 82.6389L441.764 81.5947C442.211 81.2964 442.659 80.998 443.106 80.5505C443.106 81.1472 442.808 81.7439 442.361 82.1914C442.062 82.6389 441.615 83.0864 441.168 83.5339C440.124 84.2797 439.08 84.7272 437.888 85.0256Z" fill="#E47E4A"/>
<path d="M442.659 85.7715C442.659 85.1748 442.808 84.8765 442.957 84.5781C443.256 84.2798 443.405 84.1306 444.001 83.9814C444.299 84.5781 444.15 84.8765 443.852 85.324C443.703 85.6223 443.256 85.9206 442.659 85.7715Z" fill="#E47E4A"/>
<path d="M382.872 26.8501C378.995 17.0051 360.806 13.1267 348.133 24.1651C342.318 29.2368 340.976 38.6344 341.424 46.9878C341.125 46.8386 340.827 46.6894 340.678 46.6894C338.144 46.0928 335.46 48.0319 334.714 50.4186C334.118 52.3578 334.565 54.5953 335.609 56.2362C336.504 57.5787 337.994 58.9212 339.634 59.5179C340.082 59.667 341.871 59.9654 343.064 59.8162C344.256 65.3354 347.089 70.5563 351.562 74.1363C357.078 78.7605 364.235 80.5505 371.242 79.0588C376.759 77.8655 384.81 74.4346 386.897 68.7663C387.493 67.2746 387.493 65.6337 387.493 64.1421C387.493 52.2086 387.195 38.1869 382.872 26.8501Z" fill="#EA9063"/>
<path d="M378.101 46.6894C378.101 48.4794 378.846 49.9711 379.741 49.9711C380.635 49.9711 381.381 48.4794 381.381 46.6894C381.381 44.8994 380.635 43.4077 379.741 43.4077C378.846 43.4077 378.101 44.8994 378.101 46.6894Z" fill="#002B50"/>
<path d="M367.366 46.6894C367.366 48.4794 366.621 49.9711 365.726 49.9711C364.831 49.9711 364.086 48.4794 364.086 46.6894C364.086 44.8994 364.831 43.4077 365.726 43.4077C366.621 43.4077 367.366 44.8994 367.366 46.6894Z" fill="#002B50"/>
<path d="M374.373 62.6506C373.926 63.0981 373.329 63.2473 372.733 63.2473C372.136 63.2473 371.54 63.0981 371.093 62.6506C371.689 62.7998 372.286 62.7998 372.733 62.7998C373.329 62.949 373.776 62.7998 374.373 62.6506Z" fill="#002B50"/>
<path d="M366.77 55.4905C366.77 55.4905 374.224 57.2805 377.057 56.0871C377.057 56.0871 376.013 60.5622 371.988 60.7113C367.962 60.8605 366.77 55.4905 366.77 55.4905Z" fill="white"/>
<path d="M368.708 35.0544C367.962 34.3086 367.068 34.1594 366.173 34.1594C365.278 34.1594 364.384 34.3086 363.489 34.6069C362.595 34.9053 361.849 35.3528 361.104 35.9494C360.358 36.5461 359.911 37.2919 359.464 38.0378C359.315 38.4853 359.464 38.9328 359.762 39.082C360.06 39.2311 360.358 39.2311 360.656 38.9328C361.253 38.4853 361.7 38.0378 362.297 37.5903C362.893 37.2919 363.489 36.9936 364.086 36.8444C364.682 36.6953 365.278 36.6953 366.024 36.6953C366.62 36.6953 367.366 36.6953 368.111 36.5461H368.26C368.708 36.3969 369.006 35.9494 368.857 35.5019C368.857 35.3528 368.708 35.2036 368.708 35.0544Z" fill="#002B50"/>
<path d="M376.758 35.0544C377.504 34.3086 378.398 34.1594 379.293 34.1594C380.187 34.1594 381.082 34.3086 381.976 34.6069C382.871 34.9053 383.616 35.3528 384.362 35.9494C385.107 36.5461 385.555 37.2919 386.002 38.0378C386.151 38.4853 386.002 38.9328 385.704 39.082C385.406 39.2311 385.107 39.2311 384.809 38.9328C384.213 38.4853 383.766 38.0378 383.169 37.5903C382.573 37.2919 381.976 36.9936 381.38 36.8444C380.784 36.6953 380.187 36.6953 379.442 36.6953C378.845 36.6953 378.1 36.6953 377.355 36.5461H377.205C376.758 36.3969 376.46 35.9494 376.609 35.5019C376.609 35.3528 376.609 35.2036 376.758 35.0544Z" fill="#002B50"/>
<path d="M376.013 41.3196C376.312 42.5129 376.461 43.8554 376.759 45.0488C377.057 46.2421 377.206 47.4355 377.504 48.6288C377.653 48.9271 377.653 49.2255 377.803 49.5238C377.952 49.8221 378.101 50.1205 378.101 50.568C378.101 51.463 377.653 52.2088 376.908 52.5072C376.163 52.9547 375.417 52.8055 374.821 52.6563C374.224 52.358 373.628 52.0597 373.181 51.6122C374.373 52.0597 375.715 52.358 376.461 51.7613C376.908 51.463 377.057 51.0155 377.057 50.568C377.057 50.2696 376.908 50.1205 376.759 49.8221C376.61 49.5238 376.461 49.2255 376.461 48.9271C376.163 47.5846 375.864 46.3913 375.864 45.0488C375.864 43.8554 375.864 42.5129 376.013 41.3196Z" fill="#002B50"/>
<path d="M336.652 51.7611C336.652 51.0153 336.801 50.1203 337.547 49.5236C338.292 48.9269 339.336 48.9269 340.081 49.2253C340.976 49.5236 341.572 50.1203 342.169 50.7169C342.765 51.3136 343.063 52.0594 343.362 52.8053C343.511 53.1036 343.362 53.402 343.063 53.5511C342.914 53.7003 342.616 53.5511 342.467 53.402C341.871 52.8053 341.274 52.2086 340.529 52.0594C340.231 51.9103 339.932 52.0594 339.783 52.2086C339.485 52.3578 339.336 52.6561 339.187 53.1036C338.889 53.8495 338.74 54.7445 339.336 55.0428C339.932 55.3411 340.976 55.3411 341.871 55.192C341.125 55.4903 340.231 55.7886 339.187 55.4903C338.74 55.3411 338.292 54.7445 338.292 54.1478C338.292 53.5511 338.292 53.1036 338.441 52.6561C338.591 52.2086 338.74 51.7611 339.187 51.3136C339.634 50.8661 340.38 50.8661 340.827 51.0153C341.871 51.3136 342.616 51.9103 343.212 52.6561L342.318 53.2528C341.871 51.9103 340.976 50.7169 339.783 50.1203C339.187 49.8219 338.441 49.6728 337.845 49.9711C337.1 50.2694 336.801 51.0153 336.652 51.7611Z" fill="#002B50"/>
<path d="M394.799 29.0877C393.756 26.701 391.817 24.7618 389.581 23.4193C387.046 21.9276 384.214 21.1818 381.977 19.3918C380.039 17.9001 378.697 15.8118 376.908 14.3201C373.181 11.1876 367.813 10.5909 363.191 11.9334C358.57 13.2759 354.693 16.2593 351.115 19.5409C349.326 18.9443 347.238 19.2426 345.598 20.2868C343.66 21.4801 342.617 23.5685 341.722 25.6568C340.827 27.7452 340.231 29.9827 338.591 31.6235C335.758 32.2202 333.671 35.3527 334.267 38.1869C334.565 39.3803 335.162 40.5736 335.46 41.7669C335.907 43.7061 335.46 45.6453 335.311 47.7336C335.311 48.1812 335.311 48.7778 335.311 49.2253C336.355 47.4353 338.442 46.0928 340.529 46.5403C342.616 48.032 344.406 49.822 346.046 51.7612C348.431 51.9103 350.817 50.4187 351.711 48.1811C352.158 46.9878 352.308 45.6453 352.606 44.452C353.202 42.5128 354.395 40.7228 355.289 38.7836C356.184 36.8444 356.482 34.4577 355.14 32.8169C358.719 35.9494 362.595 38.7836 367.217 38.7836C368.857 38.7836 370.497 38.3361 372.137 38.0377C373.777 37.8886 375.566 37.8886 376.908 38.7836C379.443 40.4244 380.188 44.3028 383.17 45.1978C384.363 45.4961 385.555 45.347 386.599 44.7503C386.748 46.0928 386.897 47.2861 386.897 48.6287C388.686 48.1811 390.476 46.9878 391.072 45.1978C391.519 44.0045 391.37 42.8111 391.668 41.7669C392.116 39.9769 393.606 38.4852 394.501 36.8444C395.843 34.3086 395.843 31.4744 394.799 29.0877Z" fill="#002B50"/>
<path opacity="0.5" d="M390.177 23.8668C389.879 23.8668 389.581 23.7177 389.283 23.7177C385.406 22.9718 381.828 22.226 377.803 22.3752C371.541 22.6735 365.875 24.6127 359.911 25.9552C354.395 27.2977 347.089 27.7452 340.827 26.2535C340.082 28.1927 339.486 30.1319 337.995 31.6236C335.609 32.0711 333.82 34.3086 333.671 36.6953C339.187 36.5461 344.704 36.9936 350.22 37.7394C351.86 38.0378 353.5 38.1869 354.991 38.4853C355.737 36.5461 356.184 34.3086 354.842 32.6677C358.42 35.8003 362.297 38.6344 366.919 38.6344C368.559 38.6344 370.199 38.1869 371.839 37.8886C373.479 37.7394 375.268 37.7394 376.61 38.6344L376.759 38.7836C378.548 38.3361 380.337 37.7394 382.275 36.8444C386.748 34.9052 390.923 33.7119 394.948 33.4136C395.097 31.9219 394.799 30.4302 394.203 28.9385C393.756 26.9994 392.116 25.2093 390.177 23.8668Z" fill="#002B50"/>
</g>
<defs>
<linearGradient id="paint0_linear_189_1015" x1="151.717" y1="259.285" x2="248.669" y2="259.285" gradientUnits="userSpaceOnUse">
<stop stop-color="#3D5475"/>
<stop offset="0.2549" stop-color="#364F6F"/>
<stop offset="0.6276" stop-color="#22425F"/>
<stop offset="1" stop-color="#083149"/>
</linearGradient>
<linearGradient id="paint1_linear_189_1015" x1="44.2024" y1="327.23" x2="131.956" y2="327.23" gradientUnits="userSpaceOnUse">
<stop stop-color="#3D5475"/>
<stop offset="0.2549" stop-color="#364F6F"/>
<stop offset="0.6276" stop-color="#22425F"/>
<stop offset="1" stop-color="#083149"/>
</linearGradient>
<linearGradient id="paint2_linear_189_1015" x1="313.503" y1="327.138" x2="429.701" y2="327.138" gradientUnits="userSpaceOnUse">
<stop stop-color="#3D5475"/>
<stop offset="0.2549" stop-color="#364F6F"/>
<stop offset="0.6276" stop-color="#22425F"/>
<stop offset="1" stop-color="#083149"/>
</linearGradient>
<clipPath id="clip0_189_1015">
<rect width="625" height="466" fill="white"/>
</clipPath>
</defs>
</svg>
