<svg width="162" height="129" viewBox="0 0 162 129" fill="none" xmlns="http://www.w3.org/2000/svg">
<path d="M39.3138 128.698H39.3817C39.891 128.698 40.2984 128.257 40.2644 127.782L36.8017 93.2222L33.7803 93.4938L38.7367 128.223C38.7707 128.528 39.0083 128.732 39.3138 128.698Z" fill="#A7BCD6"/>
<path d="M5.97597 128.698H5.90807C5.39885 128.698 4.99147 128.257 5.02542 127.782L8.48815 93.2222L11.5095 93.4938L6.55309 128.257C6.51914 128.528 6.2815 128.732 5.97597 128.698Z" fill="#A7BCD6"/>
<path d="M63.723 128.698H63.7909C64.3002 128.698 64.7075 128.257 64.6736 127.782L61.2109 93.2222L58.1895 93.4938L63.1459 128.223C63.1799 128.528 63.4175 128.732 63.723 128.698Z" fill="#01483F"/>
<path d="M7.02934 88.1978L0.884693 57.848C0.103881 53.7402 3.49871 49.972 7.912 50.0738L19.76 50.3454C23.8338 50.4472 27.3983 53.1631 28.5186 57.1011L37.515 88.1638H7.02934V88.1978Z" fill="#A7BCD6"/>
<path d="M10.7305 88.1978L4.58586 57.848C3.80505 53.7402 7.19989 49.972 11.6132 50.0738L23.4611 50.3454C27.5349 50.4472 31.0995 53.1631 32.2198 57.1011L41.2161 88.1638H10.7305V88.1978Z" fill="#A7BCD6"/>
<path d="M9.77986 93.7313H54.5238C56.0514 93.7313 57.2736 92.4752 57.2736 90.9815C57.2736 89.4538 56.0175 88.2317 54.5238 88.2317H6.99609V90.9815C7.03004 92.4752 8.25218 93.7313 9.77986 93.7313Z" fill="#A7BCD6"/>
<path d="M32.1177 93.7313H59.2084C60.7361 93.7313 61.9583 92.4752 61.9583 90.9815C61.9583 89.4538 60.7022 88.2317 59.2084 88.2317H32.1177C30.59 88.2317 29.3679 89.4878 29.3679 90.9815C29.3339 92.4752 30.59 93.7313 32.1177 93.7313Z" fill="#A7BCD6"/>
<path d="M94.4806 19.2487H85.1109C82.2252 19.2487 79.8828 16.9063 79.8828 14.0207V5.22804C79.8828 2.34244 82.2252 0 85.1109 0H94.4806C97.3662 0 99.7086 2.34244 99.7086 5.22804V14.0207C99.7086 16.8723 97.3323 19.2487 94.4806 19.2487Z" fill="#002822"/>
<path d="M94.0731 18.3999H85.5182C82.9041 18.3999 80.7314 16.2612 80.7314 13.6132V5.60141C80.7314 2.98739 82.8702 0.814697 85.5182 0.814697H94.0731C96.6872 0.814697 98.8599 2.95344 98.8599 5.60141V13.6132C98.8259 16.2612 96.6872 18.3999 94.0731 18.3999Z" fill="#75BDF9"/>
<path d="M89.3535 2.58011C89.3535 2.34247 89.5233 2.17273 89.7609 2.17273C89.9985 2.17273 90.1683 2.34247 90.1683 2.58011C90.1683 2.81775 89.9985 2.98749 89.7609 2.98749C89.5572 2.98749 89.3535 2.81775 89.3535 2.58011Z" fill="#002822"/>
<path d="M92.6806 3.15721C92.7824 2.95352 93.054 2.88562 93.2238 2.98746C93.4274 3.08931 93.4953 3.3609 93.3935 3.53064C93.2917 3.73433 93.0201 3.80222 92.8503 3.70038C92.6466 3.63248 92.5787 3.3609 92.6806 3.15721Z" fill="#002822"/>
<path d="M95.5322 5.43173C95.7359 5.29594 95.9736 5.36383 96.1094 5.56752C96.2451 5.77122 96.1772 6.00885 95.9735 6.14465C95.7699 6.28044 95.5322 6.21254 95.3964 6.00885C95.2946 5.80516 95.3285 5.53358 95.5322 5.43173Z" fill="#002822"/>
<path d="M96.924 8.92847C97.1616 8.92847 97.3314 9.09821 97.3314 9.33585C97.3314 9.57349 97.1616 9.74323 96.924 9.74323C96.6863 9.74323 96.5166 9.57349 96.5166 9.33585C96.5166 9.09821 96.7203 8.92847 96.924 8.92847Z" fill="#002822"/>
<path d="M96.2113 12.9684C96.381 13.1381 96.381 13.3758 96.2113 13.5455C96.0415 13.7152 95.8039 13.7152 95.6341 13.5455C95.4644 13.3758 95.4644 13.1381 95.6341 12.9684C95.8039 12.7986 96.0415 12.7986 96.2113 12.9684Z" fill="#002822"/>
<path d="M93.6312 15.5484C93.8009 15.7181 93.8009 15.9558 93.6312 16.1255C93.4614 16.2952 93.2238 16.2952 93.0541 16.1255C92.8843 15.9558 92.8843 15.7181 93.0541 15.5484C93.2238 15.4126 93.4614 15.4126 93.6312 15.5484Z" fill="#002822"/>
<path d="M89.3535 16.9062C89.3535 16.6685 89.5233 16.4988 89.7609 16.4988C89.9985 16.4988 90.1683 16.6685 90.1683 16.9062C90.1683 17.1438 89.9985 17.3135 89.7609 17.3135C89.5572 17.3135 89.3535 17.1098 89.3535 16.9062Z" fill="#002822"/>
<path d="M86.8759 3.15708C86.7741 2.95339 86.5025 2.8855 86.3327 2.98734C86.1291 3.08919 86.0612 3.36077 86.163 3.53052C86.2648 3.73421 86.5364 3.8021 86.7062 3.70026C86.9099 3.63236 86.9778 3.36077 86.8759 3.15708Z" fill="#002822"/>
<path d="M84.0238 5.43161C83.8201 5.29582 83.5824 5.36371 83.4466 5.5674C83.3108 5.77109 83.3787 6.00873 83.5824 6.14452C83.7861 6.28032 84.0237 6.21242 84.1595 6.00873C84.2614 5.80504 84.2274 5.53345 84.0238 5.43161Z" fill="#002822"/>
<path d="M82.632 8.92834C82.3944 8.92834 82.2246 9.09809 82.2246 9.33573C82.2246 9.57336 82.3944 9.74311 82.632 9.74311C82.8696 9.74311 83.0394 9.57336 83.0394 9.33573C83.0394 9.09809 82.8357 8.92834 82.632 8.92834Z" fill="#002822"/>
<path d="M83.3451 12.9681C83.1753 13.1379 83.1753 13.3755 83.3451 13.5452C83.5148 13.715 83.7525 13.715 83.9222 13.5452C84.0919 13.3755 84.0919 13.1379 83.9222 12.9681C83.7525 12.7984 83.4809 12.7984 83.3451 12.9681Z" fill="#002822"/>
<path d="M86.1964 16.261C86.4214 16.261 86.6038 16.0787 86.6038 15.8537C86.6038 15.6287 86.4214 15.4463 86.1964 15.4463C85.9715 15.4463 85.7891 15.6287 85.7891 15.8537C85.7891 16.0787 85.9715 16.261 86.1964 16.261Z" fill="#002822"/>
<path d="M89.6602 9.33573C89.6602 9.09809 89.8299 8.92834 90.0675 8.92834C90.3052 8.92834 90.4749 9.09809 90.4749 9.33573C90.4749 9.57336 90.3052 9.74311 90.0675 9.74311C89.8638 9.74311 89.6602 9.53942 89.6602 9.33573Z" fill="#002822"/>
<path d="M90.1351 4.20947H90.0332V9.33567H90.1351V4.20947Z" fill="#002822"/>
<path d="M92.6496 7.04768L89.9258 9.18591L90.1354 9.45295L92.8592 7.31472L92.6496 7.04768Z" fill="#002822"/>
<path d="M47.8343 81.8494C45.2882 86.2627 42.097 87.9601 42.097 87.9601H28.8232C28.8572 87.9601 49.7694 78.4885 47.8343 81.8494Z" fill="#233862"/>
<path d="M64.1968 125.711C64.061 127.103 65.996 127.476 68.2366 127.612C70.4772 127.748 69.7982 128.189 72.8875 128.8C75.9768 129.377 77.199 128.562 77.4366 128.155C77.6403 127.781 76.2145 127.204 74.6868 126.525C74.4831 126.457 74.3134 126.356 74.1097 126.254C72.4123 125.473 71.4617 123.945 70.1377 122.486C68.8817 121.128 67.7274 116.782 67.7274 116.782L63.5518 115.832C63.5518 115.832 64.6721 119.736 65.0794 121.399C65.3171 122.384 64.9436 123.47 64.6042 124.285C64.4344 124.76 64.2647 125.201 64.1968 125.711Z" fill="#FFB27D"/>
<path d="M68.237 127.578C70.4776 127.714 69.7986 128.155 72.8879 128.766C75.9772 129.343 77.1994 128.528 77.437 128.121C77.6407 127.748 76.2149 127.171 74.6872 126.492L74.6533 126.525C74.6533 126.525 72.4806 127.238 70.0023 126.525C67.9654 125.948 66.0304 124.726 64.6046 124.319C64.4348 124.76 64.2651 125.235 64.1972 125.711C64.0614 127.103 65.9964 127.442 68.237 127.578Z" fill="#1A2E35"/>
<path d="M57.8824 77.3343C55.6418 75.7727 40.7724 72.955 33.2019 72.1402L24.8167 64.8413C24.8167 64.8413 17.6875 75.3992 17.6196 83.4789C17.5857 87.2472 19.3171 87.6206 19.3171 87.6206C19.3171 87.6206 46.1702 87.8243 47.3584 87.9262C49.2934 88.1299 51.8396 92.9166 52.4506 97.2959C53.0956 101.675 64.2986 119.464 64.2986 119.464C64.2986 119.464 66.641 120.211 67.7274 120.143C68.8816 120.075 69.4248 119.702 69.4248 119.702C69.4248 119.702 62.9407 80.8989 57.8824 77.3343Z" fill="url(#paint0_linear_192_3846)"/>
<path d="M57.272 125.711C57.1362 127.103 59.0712 127.476 61.3118 127.612C63.5524 127.748 62.8734 128.189 65.9627 128.8C69.052 129.377 70.2742 128.562 70.5118 128.155C70.7155 127.781 69.2897 127.204 67.762 126.525C67.5583 126.457 67.3886 126.356 67.1849 126.254C65.4875 125.473 64.5369 123.945 63.2129 122.486C61.9568 121.128 60.8026 116.782 60.8026 116.782L56.627 115.832C56.627 115.832 57.7472 119.736 58.1546 121.399C58.3923 122.384 58.0188 123.47 57.6794 124.285C57.4757 124.76 57.3059 125.201 57.272 125.711Z" fill="#FFB27D"/>
<path d="M61.2771 127.578C63.5177 127.714 62.8387 128.155 65.928 128.766C69.0173 129.343 70.2394 128.528 70.4771 128.121C70.6808 127.748 69.2549 127.171 67.7273 126.492L67.6933 126.525C67.6933 126.525 65.5206 127.238 63.0424 126.525C61.0055 125.948 59.0704 124.726 57.6446 124.319C57.4748 124.76 57.3051 125.235 57.2372 125.711C57.1014 127.103 59.0365 127.442 61.2771 127.578Z" fill="#1A2E35"/>
<path d="M50.855 77.3343C48.92 75.9764 43.0469 74.89 36.5628 74.1092C34.7635 73.9055 33.3037 72.5815 32.8624 70.8502L17.7893 64.8413C17.7893 64.8413 10.6602 75.3992 10.5923 83.4789C10.5583 87.2472 12.2897 87.6206 12.2897 87.6206C12.2897 87.6206 39.1428 87.8243 40.331 87.9262C42.2661 88.1299 44.8122 92.9166 45.4233 97.2959C46.0683 101.675 57.2713 119.464 57.2713 119.464C57.2713 119.464 59.6137 120.211 60.7 120.143C61.8543 120.075 62.3975 119.702 62.3975 119.702C62.3975 119.702 55.9473 80.8989 50.855 77.3343Z" fill="url(#paint1_linear_192_3846)"/>
<path d="M30.6902 20.9461C28.6194 19.8597 25.4622 19.7239 24.953 19.656C18.8423 18.8413 15.1419 27.7357 14.9382 30.4177C14.5308 35.3741 11.9168 36.1549 8.21643 39.2442C0.781742 45.4907 2.95444 52.7557 7.02824 55.4376C9.47252 57.0671 13.75 55.4376 13.75 55.4376C13.8179 55.4715 25.4961 48.9195 31.2334 45.7284C39.8902 44.5402 35.9862 23.7298 30.6902 20.9461Z" fill="url(#paint2_linear_192_3846)"/>
<path d="M29.4342 42.7069C29.4682 42.7069 26.7184 43.963 24.7154 43.318C22.8483 42.7069 21.2188 39.8892 21.2188 39.8892C22.0335 39.7874 22.8483 38.9726 23.0859 34.2198L23.4593 34.3217L29.5021 35.8494C29.5021 35.8494 29.2645 37.7505 29.1627 39.5837C29.0608 41.0774 29.0948 42.5372 29.4342 42.7069Z" fill="#F5C99D"/>
<path d="M29.5016 35.8494C29.5016 35.8494 29.5016 36.2568 29.264 38.0221C25.8691 37.1734 24.3415 36.0192 23.2891 34.7291L29.5016 35.8494Z" fill="#D8A982"/>
<path d="M30.7922 36.087C30.7922 36.087 22.8143 37.3771 22.0674 32.4206C21.3206 27.4302 19.8269 24.2391 24.8852 23.2206C29.9435 22.1682 31.2335 23.9335 31.8785 25.5291C32.5235 27.1247 32.8291 35.6117 30.7922 36.087Z" fill="#F5C99D"/>
<path d="M30.7925 22.9831C30.7925 22.9831 27.16 28.6864 23.9349 30.0443C20.7098 31.4022 19.1143 30.7233 19.1143 30.7233C19.1143 30.7233 20.574 28.4827 20.9814 25.4952C21.0833 24.6126 21.6604 23.8657 22.5091 23.5262C24.7836 22.6096 29.2988 21.1498 30.7925 22.9831Z" fill="url(#paint3_linear_192_3846)"/>
<path d="M27.6016 23.5262C27.6016 23.5262 29.7403 24.6126 30.589 25.631C31.4377 26.6155 32.4222 29.2975 32.3543 30.4856C32.3543 30.4856 33.4067 24.7484 31.234 22.7454C28.8916 20.6746 27.6016 23.5262 27.6016 23.5262Z" fill="#070707"/>
<path d="M35.8163 54.8605C35.5787 71.0878 35.7484 67.6929 33.9831 69.2206C33.5418 69.594 32.3536 69.7977 30.758 69.8996C25.8015 70.2391 17.0429 69.4243 16.7034 68.5077C15.5491 65.3166 16.3639 64.332 15.4134 59.4774C15.3115 58.9682 15.1757 58.3911 15.0399 57.78C14.2591 54.4531 13.4783 53.2988 16.296 47.935C18.8761 43.0804 21.8975 39.1084 22.1351 39.2442C28.8908 43.2501 29.1285 39.8892 29.1285 39.8892C29.1285 39.8892 35.9182 46.9505 35.8163 54.8605Z" fill="#399EFD"/>
<path d="M29.1289 39.9233C29.1289 39.9233 36.0544 41.1115 36.8691 44.099C37.6839 47.0864 42.5046 64.7396 42.5046 64.7396C42.5046 64.7396 38.9739 65.3846 37.3105 63.7551C35.6809 62.1256 31.6071 48.5802 31.6071 48.5802L29.1289 39.9233Z" fill="#399EFD"/>
<path d="M30.7577 69.9335C25.8013 70.273 17.0426 69.4582 16.7031 68.5416C15.5489 65.3504 16.3636 64.3659 15.4131 59.5113L17.8234 52.7556C17.8234 52.7556 17.416 60.2582 19.6566 62.2612C21.8633 64.2302 28.7208 66.0634 29.8072 67.7268C30.3164 68.5076 30.6559 69.2885 30.7577 69.9335Z" fill="#45391D"/>
<path d="M25.0547 66.7764C25.0547 66.7764 29.9432 65.69 30.758 66.1314C31.5388 66.5727 33.4739 68.1683 33.7115 68.7114C33.9491 69.2546 31.9462 68.304 31.3012 68.1343C30.8938 68.0325 29.7735 68.4059 29.2303 68.5756C26.9218 69.3564 25.496 68.9491 25.496 68.9491L25.0547 66.7764Z" fill="#F5C99D"/>
<path d="M22.1354 39.2782C22.1354 39.2782 15.2099 39.6856 12.9014 42.8767C9.67635 47.3579 3.32801 66.4369 6.96048 68.983C11.0682 71.8347 25.666 69.7299 25.666 69.7299C25.666 69.7299 26.1413 67.4553 25.4623 66.369C24.7834 65.2826 13.818 63.4834 13.3088 62.9741C12.7996 62.4649 19.6572 53.0952 19.6572 51.5675C19.6572 50.0398 22.1354 39.2782 22.1354 39.2782Z" fill="#399EFD"/>
<path d="M30.9961 67.4893C30.9961 67.4893 32.0145 68.8132 32.354 68.983C32.6935 69.1527 32.8972 69.0848 32.8972 69.0848L32.2182 67.8287L30.9961 67.4893Z" fill="#F5C99D"/>
<path d="M30.7578 66.0974L33.7453 67.5572C33.7453 67.5572 33.6095 67.7609 33.236 67.7609C32.8626 67.7609 31.946 67.4214 31.946 67.4214L30.7578 66.0974Z" fill="#F5C99D"/>
<path d="M41.7579 69.5601H27.873C27.873 68.949 28.3823 68.4398 28.9933 68.4398H41.7579V69.5601Z" fill="#E65924"/>
<path d="M41.7247 54.4192H63.18L58.0538 69.5601H36.4287L41.7247 54.4192Z" fill="#E65924"/>
<path d="M63.4849 54.4192L58.3587 69.5601H36.7676L42.0296 54.4192H63.4849Z" fill="url(#paint4_linear_192_3846)"/>
<path d="M51.9423 61.8539C51.8065 62.431 51.2294 62.9063 50.6523 62.9063C50.0751 62.9063 49.7017 62.431 49.8375 61.8539C49.9733 61.2768 50.5504 60.8015 51.1275 60.8015C51.7047 60.8015 52.0781 61.2768 51.9423 61.8539Z" fill="white"/>
<path d="M24.0705 72.9549H116.138C117.089 72.9549 117.836 72.208 117.836 71.2575C117.836 70.3069 117.089 69.5601 116.138 69.5601H24.0705C23.1199 69.5601 22.373 70.3069 22.373 71.2575C22.373 72.1741 23.1199 72.9549 24.0705 72.9549Z" fill="#A7BCD6"/>
<path d="M119.431 128.97H119.465C119.941 128.902 120.28 128.494 120.212 128.019L111.861 71.2914L108.806 71.3932L118.651 128.426C118.685 128.766 119.058 129.004 119.431 128.97Z" fill="#A7BCD6"/>
<path d="M19.9281 128.97H19.8942C19.4189 128.902 19.0794 128.494 19.1473 128.019L27.5326 71.2915L30.5879 71.3933L20.7429 128.427C20.675 128.766 20.3016 129.004 19.9281 128.97Z" fill="#A7BCD6"/>
<path d="M39.3471 128.97H39.3131C38.8379 128.902 38.4984 128.494 38.5663 128.019L46.9176 71.2915L49.9729 71.3933L40.1279 128.427C40.06 128.766 39.7205 129.004 39.3471 128.97Z" fill="#A7BCD6"/>
<path d="M88.7764 128.902H105.411C106.226 127.917 105.92 124.319 105.784 123.165C105.751 122.927 105.751 122.791 105.751 122.791C105.751 122.791 100.081 118.242 99.3004 121.739C99.2664 121.841 99.2325 121.943 99.2325 122.044C98.2479 125.303 93.8347 126.763 91.2885 127.171C89.6251 127.442 89.014 128.325 88.7764 128.902Z" fill="#070707"/>
<path d="M134.132 74.8901C133.521 74.8901 105.65 80.1182 101.033 85.8215C98.7243 88.6732 98.3848 121.603 98.3848 121.603C98.3848 121.603 101.236 125.134 107.381 123.097C107.381 123.097 111.896 100.555 111.557 93.7315C111.455 91.8304 130.602 93.4599 134.098 92.5433C137.595 91.6267 146.15 84.0222 144.283 80.2879C142.45 76.5876 134.132 74.8901 134.132 74.8901Z" fill="#1A2E35"/>
<path d="M101.168 66.8104C101.168 66.8104 95.5328 66.8783 94.2088 67.4554C92.8848 68.0326 90.1689 69.3226 90.9158 69.5263C91.6287 69.73 95.0915 69.4584 95.8383 69.5602C96.5852 69.6621 97.5018 69.5263 97.9431 69.5263C98.3844 69.5263 100.523 69.5263 100.523 69.5263L101.168 66.8104Z" fill="#F5C99D"/>
<path d="M94.5813 53.3328C94.5813 53.3328 92.6802 51.9749 90.813 51.7033C89.7606 51.5675 88.7082 51.3638 88.0971 51.1262C86.3658 50.5151 82.937 47.4258 83.2086 47.0524C84.0573 45.8981 88.0632 48.3424 88.7422 48.0708C89.4551 47.7993 87.3842 46.3395 88.0971 45.8302C88.4706 45.5587 89.3532 46.9166 90.0661 47.0524C91.0167 47.2221 91.7636 48.5801 92.0691 48.648C92.6462 48.7838 95.0905 50.617 95.0905 50.617L94.5813 53.3328Z" fill="#F5C99D"/>
<path d="M131.382 37.3433C131.382 37.3433 127.105 38.6672 122.895 50.2776C118.686 61.8879 117.09 62.5329 115.529 62.9743C114.001 63.4156 100.523 66.0975 100.523 66.0975V69.5602H121.266C121.266 69.5602 129.04 62.1595 131.382 57.1691C133.691 52.1787 131.382 37.3433 131.382 37.3433Z" fill="#D6E7FC"/>
<path d="M81.4102 128.902H98.0448C98.8596 127.917 98.5541 124.319 98.4183 123.165C98.3843 122.927 98.3843 122.791 98.3843 122.791C98.3843 122.791 92.715 118.242 91.9341 121.739C91.9002 121.841 91.8663 121.943 91.8663 122.044C90.8817 125.303 86.4685 126.763 83.9223 127.171C82.2589 127.442 81.6478 128.325 81.4102 128.902Z" fill="#1A2E35"/>
<path d="M125.917 74.8901C125.305 74.8901 97.4339 80.1182 92.8169 85.8215C90.5084 88.6732 90.1689 121.603 90.1689 121.603C90.1689 121.603 93.0206 125.134 99.1653 123.097C99.1653 123.097 103.68 100.555 103.341 93.7315C103.239 91.8304 122.386 93.4599 125.883 92.5433C129.379 91.6267 137.934 84.0222 136.067 80.2879C134.234 76.5876 125.917 74.8901 125.917 74.8901Z" fill="#1A2E35"/>
<path d="M127.682 41.0097C129.685 40.8399 131.79 40.2967 133.623 39.7196C135.897 38.9728 137.731 37.9204 136.542 35.8156C135.456 33.9145 133.691 29.637 133.826 26.0724L129.583 29.4672L126.697 31.7757C126.697 31.7757 126.697 33.1336 127.037 35.544C127.105 35.9853 127.173 36.4606 127.24 36.9698C127.308 37.3772 127.105 37.7846 126.765 37.9883C126.731 37.9883 126.731 38.0222 126.697 38.0222C125.271 38.9388 125.984 41.1454 127.682 41.0097Z" fill="#F5C99D"/>
<path d="M126.698 31.2665C126.698 31.2665 126.562 31.7758 126.8 33.575C129.346 33.1677 131.756 31.1308 131.756 31.1308C130.466 30.7573 129.991 29.3654 129.006 29.5012L126.698 31.2665Z" fill="#D8A982"/>
<path d="M124.321 31.6739C124.321 31.6739 134.166 33.3034 135.082 27.1587C135.999 21.0141 137.9 17.0761 131.654 15.786C125.407 14.496 123.811 16.6348 123.031 18.6377C122.216 20.5728 121.775 31.0967 124.321 31.6739Z" fill="#F5C99D"/>
<path d="M121.571 15.8879C121.163 17.3816 122.284 19.1809 124.185 19.758C127.002 20.6407 126.391 24.1034 127.647 24.0355C128.903 24.0015 129.413 22.0325 130.567 23.5942C131.518 24.9181 129.752 26.4798 129.888 27.2266C130.092 28.4827 132.061 31.0288 133.792 30.8931C135.557 30.7573 138.85 22.406 138.171 19.8259C137.526 17.2458 134.878 14.53 132.4 14.1226C129.922 13.7491 126.459 14.8355 125.644 14.8355C124.83 14.8355 121.808 15.0731 121.571 15.8879Z" fill="url(#paint5_linear_192_3846)"/>
<path d="M144.452 45.8643C143.026 40.127 139.088 34.1182 136.44 34.1182C131.891 34.1182 125.407 35.3064 122.759 41.8244C120.824 46.6112 118.244 74.1093 121.163 76.0444C127.851 80.5255 143.332 89.6576 146.082 80.3219C148.594 71.8008 146.93 55.8112 144.452 45.8643Z" fill="#D6E7FC"/>
<path d="M133.453 40.161C132.163 36.8001 127.988 35.6459 125.136 37.8525C123.608 39.0407 121.707 40.7381 119.433 43.1824C110.98 52.1787 109.248 52.1448 107.653 51.9411C106.057 51.7714 92.6475 48.9197 92.6475 48.9197C92.6475 48.9197 91.9685 49.4289 91.5612 50.2437C91.018 51.33 91.2896 52.0769 91.2896 52.0769C90.7804 51.7374 96.0423 55.3699 98.6903 56.8297C102.153 58.7308 107.381 60.53 109.486 61.2429C110.063 61.4466 110.708 61.4127 111.285 61.209C114.374 60.0887 124.763 56.0149 133.216 48.9876C135.456 47.1204 134.642 43.2843 133.453 40.161Z" fill="#D6E7FC"/>
<path d="M136.882 34.186L135.863 31.8776C135.863 31.8776 126.663 32.6244 125.136 37.8525C125.136 37.8525 132.265 34.2879 136.882 34.186Z" fill="#D6E7FC"/>
<path d="M159.186 128.698H159.254C159.763 128.698 160.17 128.257 160.136 127.782L156.674 93.2222L153.652 93.4938L158.609 128.223C158.643 128.528 158.914 128.732 159.186 128.698Z" fill="#A7BCD6"/>
<path d="M141.397 128.698H141.465C141.974 128.698 142.381 128.257 142.347 127.782L138.885 93.2222L135.863 93.4938L140.82 128.223C140.854 128.528 141.091 128.732 141.397 128.698Z" fill="#A7BCD6"/>
<path d="M107.957 128.698H107.89C107.38 128.698 106.973 128.257 107.007 127.782L110.47 93.2222L113.491 93.4938L108.535 128.223C108.501 128.528 108.229 128.732 107.957 128.698Z" fill="#A7BCD6"/>
<path d="M158.201 88.3336L161.494 59.4775C161.935 55.3018 160.544 51.228 154.535 50.9225L143.977 50.2775C137.73 50.0059 134.879 55.234 134.098 59.2399L127.817 90.9816L158.201 88.3336Z" fill="#A7BCD6"/>
<path d="M155.383 93.7314H110.639C109.112 93.7314 107.89 92.4754 107.89 90.9816C107.89 89.454 109.146 88.2318 110.639 88.2318H158.167V90.9816C158.167 92.4754 156.911 93.7314 155.383 93.7314Z" fill="#A7BCD6"/>
<path d="M155.383 93.7314H130.567C129.04 93.7314 127.817 92.4754 127.817 90.9816C127.817 89.454 129.073 88.2318 130.567 88.2318H158.167V90.9816C158.167 92.4754 156.911 93.7314 155.383 93.7314Z" fill="#A7BCD6"/>
<defs>
<linearGradient id="paint0_linear_192_3846" x1="17.6211" y1="92.5271" x2="69.4375" y2="92.5271" gradientUnits="userSpaceOnUse">
<stop stop-color="#3D5475"/>
<stop offset="0.2549" stop-color="#364F6F"/>
<stop offset="0.6276" stop-color="#22425F"/>
<stop offset="1" stop-color="#083149"/>
</linearGradient>
<linearGradient id="paint1_linear_192_3846" x1="10.6103" y1="92.5271" x2="62.4268" y2="92.5271" gradientUnits="userSpaceOnUse">
<stop stop-color="#3D5475"/>
<stop offset="0.2549" stop-color="#364F6F"/>
<stop offset="0.6276" stop-color="#22425F"/>
<stop offset="1" stop-color="#083149"/>
</linearGradient>
<linearGradient id="paint2_linear_192_3846" x1="3.30387" y1="37.8902" x2="36.3177" y2="37.8902" gradientUnits="userSpaceOnUse">
<stop stop-color="#3D5475"/>
<stop offset="0.2549" stop-color="#364F6F"/>
<stop offset="0.6276" stop-color="#22425F"/>
<stop offset="1" stop-color="#083149"/>
</linearGradient>
<linearGradient id="paint3_linear_192_3846" x1="19.1074" y1="26.4996" x2="30.7864" y2="26.4996" gradientUnits="userSpaceOnUse">
<stop stop-color="#3D5475"/>
<stop offset="0.2549" stop-color="#364F6F"/>
<stop offset="0.6276" stop-color="#22425F"/>
<stop offset="1" stop-color="#083149"/>
</linearGradient>
<linearGradient id="paint4_linear_192_3846" x1="36.757" y1="61.9925" x2="63.499" y2="61.9925" gradientUnits="userSpaceOnUse">
<stop stop-color="#3D5475"/>
<stop offset="0.2549" stop-color="#364F6F"/>
<stop offset="0.6276" stop-color="#22425F"/>
<stop offset="1" stop-color="#083149"/>
</linearGradient>
<linearGradient id="paint5_linear_192_3846" x1="121.497" y1="22.4905" x2="138.287" y2="22.4905" gradientUnits="userSpaceOnUse">
<stop stop-color="#3D5475"/>
<stop offset="0.2549" stop-color="#364F6F"/>
<stop offset="0.6276" stop-color="#22425F"/>
<stop offset="1" stop-color="#083149"/>
</linearGradient>
</defs>
</svg>
