<svg width="167" height="139" viewBox="0 0 167 139" fill="none" xmlns="http://www.w3.org/2000/svg">
<path d="M61.8148 94.0399C62.7472 96.3079 63.9064 98.5507 63.5536 101.146C63.3772 102.457 62.4952 103.364 61.5376 104.044C60.4792 104.8 59.068 104.347 58.2616 103.263C57.7828 102.633 57.4804 101.877 56.8 101.398C56.0692 100.894 55.3888 101.096 55.1872 101.953C54.8848 103.313 55.3888 104.599 55.6912 105.909C56.2708 108.353 57.1276 110.722 57.1276 113.267C57.1276 115.636 54.7588 117.551 52.5664 116.947C51.5836 116.669 50.9788 115.939 50.4244 115.183C49.9708 114.578 49.5928 113.923 49.0888 113.343C48.4336 112.562 47.8288 112.663 47.2996 113.545C46.8964 114.225 46.9468 114.981 46.9216 115.737C46.8712 117.803 47.1988 119.87 46.972 121.936C46.7956 123.625 46.2916 125.162 44.8804 126.271C42.6377 128.035 39.9413 127.279 39.0593 124.557C38.8325 123.851 38.6057 123.121 38.2781 122.44C37.7741 121.407 37.1189 121.281 36.2117 122.012C35.3297 122.717 35.0021 123.776 34.8005 124.784C34.1957 127.808 32.8097 130.227 30.2141 132.041C27.7949 133.73 24.7709 133.906 22.3517 132.167C20.9153 131.134 19.6553 129.899 19.0757 128.211C18.1433 125.464 19.6805 123.599 21.5201 121.861C23.8385 119.693 26.6105 118.232 29.3069 116.644C29.9117 116.291 30.3905 115.813 30.9449 115.46C31.2725 115.258 31.3733 114.905 31.2977 114.553C31.2221 114.2 30.8693 114.2 30.5669 114.149C29.4329 113.948 28.3241 114.25 27.2153 114.301C26.2073 114.351 25.1741 114.452 24.1913 114.175C21.8225 113.519 21.2681 111.478 21.9485 108.933C22.5281 106.715 24.2417 105.682 26.3333 105.153C28.5257 104.599 30.7685 104.775 32.9861 104.573C33.7169 104.498 34.4981 104.473 35.1281 103.969C35.6069 103.591 35.8841 103.137 35.8841 102.557C35.8841 101.877 35.3297 101.6 34.8005 101.373C34.2209 101.121 33.6161 100.919 33.0113 100.667C30.9953 99.8106 30.4913 97.7443 31.8269 96.0307C33.2381 94.2415 35.2037 93.5611 37.3457 93.3091C40.0925 92.9815 42.7889 93.5863 45.5104 93.8383C46.0648 93.8887 46.6192 93.9643 47.1736 93.8131C47.602 93.6871 47.9548 93.5611 48.0052 93.0319C48.0556 92.5027 47.8288 92.2003 47.3248 91.9987C46.1152 91.4695 44.8048 91.2427 43.6204 90.6631C42.1337 89.9323 41.7809 88.9495 42.7385 87.5887C44.074 85.6483 46.0648 85.2703 48.232 85.4215C50.5504 85.5727 52.7932 86.3035 55.0612 86.7571C56.3212 86.9083 60.9832 92.0491 61.8148 94.0399Z" fill="#B0BDD1"/>
<path d="M58.6398 88.7731C58.4886 88.8991 58.3626 89.0503 58.2114 89.1511C57.0522 89.8819 56.6238 90.7891 57.1278 92.2003C57.6066 93.5863 57.8082 95.0479 58.1358 96.4843C58.1862 96.6859 58.3122 96.9883 57.9846 97.0387C57.6822 97.0891 57.7326 96.7867 57.657 96.5599C57.279 95.0227 56.8758 93.4855 56.523 91.9483C56.397 91.3939 56.1954 91.2679 55.8174 91.7467C53.5998 94.3927 51.3822 97.0387 49.1646 99.6847C48.7362 100.189 49.0386 100.718 49.1394 101.197C49.467 102.759 49.845 104.296 50.1978 105.833C50.2482 106.06 50.475 106.413 50.0718 106.489C49.6938 106.539 49.8198 106.136 49.7694 105.909C49.4166 104.422 48.9882 102.935 48.6354 101.449C48.5094 100.97 48.3834 100.693 47.955 101.197C45.9643 103.54 43.9987 105.909 42.0331 108.253C41.7055 108.656 41.7559 109.185 41.7559 109.664C41.8315 113.62 41.9323 117.577 42.0079 121.533C42.0079 121.583 41.9323 121.659 41.8063 121.81C41.4283 120.223 41.5795 118.685 41.4787 117.173C41.3023 115.006 41.2771 112.814 41.1763 110.621C41.1511 110.344 41.2519 109.941 40.9243 109.815C40.5715 109.689 40.4203 110.092 40.2439 110.319C37.8247 113.318 35.2543 116.216 32.8603 119.265C30.4411 122.339 28.0975 125.515 25.1239 128.085C25.1239 127.808 25.4011 127.631 25.5523 127.43C30.4159 121.508 35.2795 115.611 40.1179 109.689C40.3951 109.361 40.9747 109.009 40.7227 108.58C40.4707 108.177 39.8659 108.454 39.4375 108.53C34.8763 109.135 30.3151 109.765 25.7539 110.369C25.4767 110.42 25.1995 110.521 24.7207 110.143C27.1147 109.765 29.2819 109.387 31.4743 109.059C34.6495 108.58 37.8247 108.152 40.9999 107.673C41.6047 107.572 42.1843 107.396 42.5371 106.816C44.1247 104.271 46.3171 102.179 48.1314 99.8107C48.3078 99.5839 48.6858 99.3823 48.5598 99.0799C48.4086 98.6515 47.9802 98.8783 47.6526 98.8783C45.7123 98.8531 43.7719 98.8531 41.8315 98.8279C41.8315 98.7271 41.8063 98.6263 41.8063 98.5255C42.8899 98.4751 43.9735 98.3995 45.0571 98.3743C46.3423 98.3239 47.6274 98.3239 48.8874 98.2987C49.6686 98.2735 50.0214 97.6687 50.3238 97.1395C51.357 95.4007 52.8186 93.9895 54.0282 92.4019C54.2298 92.1499 54.6582 91.9231 54.507 91.5703C54.3306 91.1923 53.8518 91.2931 53.499 91.2679C51.6342 91.0411 49.7694 90.8143 47.9046 90.5623C47.6526 90.5371 47.3754 90.4867 47.1486 90.1591C49.6686 90.2095 52.0122 90.7387 54.4314 90.8395C55.137 90.8647 55.5654 90.7387 55.9434 90.1843C56.4726 89.4535 57.1782 88.8487 57.5058 87.9667C58.3626 86.8075 59.1942 85.6231 60.051 84.4639C61.1094 83.0275 62.193 81.6163 63.2514 80.1799C63.5034 79.8271 63.7302 79.7515 64.0578 80.0791C64.1082 80.1295 64.1838 80.1799 64.2342 80.2303C65.595 81.3139 65.595 81.2887 64.3854 82.5739C62.4954 84.5899 60.555 86.6815 58.6398 88.7731Z" fill="#B0BDD1"/>
<path d="M33.9959 72.0656C36.2638 70.7804 37.7758 67.958 38.2546 65.438C38.5318 64.052 39.2626 58.1552 37.7002 57.374C37.0198 58.9112 36.9694 60.5744 36.163 62.1368C35.4322 63.5984 34.4747 64.934 33.7943 66.4208C33.1391 67.8824 33.0635 69.1172 32.9375 70.6796C32.8367 72.242 33.0131 71.9396 31.6775 70.5284C30.0647 68.84 30.2411 69.1928 31.5767 67.5548C32.5847 66.32 33.2903 64.8332 33.6935 63.296C34.0211 62.0864 34.9282 55.1816 33.2399 54.7532C33.0131 57.0464 32.1311 59.264 31.1987 61.3556C30.0647 63.926 29.7623 65.7656 29.8631 68.588C29.0819 67.8572 27.5951 67.0004 27.6959 65.8664C27.8219 64.7324 29.1071 63.1952 29.4095 61.9856C29.6867 60.902 30.3419 54.2996 28.8047 53.9972C27.9227 54.7532 27.8975 58.5836 27.5951 59.7932C27.0911 61.91 27.0407 63.674 26.9903 65.8412C26.4107 65.2868 25.1003 64.4552 24.9995 63.6992C24.8735 62.9684 25.7807 61.3808 25.8815 60.5744C26.2343 57.9032 25.6295 55.0808 24.1679 52.838C24.4703 56.366 23.4875 59.9192 24.4199 63.3968C23.6639 62.7164 22.3031 61.91 22.1015 60.9776C21.9251 60.0704 22.5803 58.4828 22.5299 57.4748C22.4039 54.9548 21.4463 52.1072 19.8587 50.1164C19.8335 51.9056 20.3627 53.7704 20.4635 55.5596C20.5139 56.3408 21.4463 60.5744 21.3455 60.65C20.7155 60.146 19.6319 59.5664 19.3043 58.7852C18.9263 57.9032 19.3043 56.366 19.1279 55.3832C18.7247 53.0648 17.5151 50.3936 15.7511 48.7556C17.0363 51.7292 16.9103 55.1564 18.3467 58.0796C16.8599 56.3912 15.1463 55.61 13.1051 54.728C12.5255 54.476 7.73752 52.1324 7.63672 52.3088C8.79592 54.2492 11.0135 55.9376 13.0043 56.9708C14.3651 57.6764 18.3215 57.8276 18.9263 59.1128C16.1291 58.5332 13.4327 59.8688 10.6355 59.6168C12.5255 60.398 14.5667 60.8768 16.6331 60.5744C18.6239 60.272 19.7075 58.886 21.1439 61.0028C17.9435 60.3476 14.7431 62.2124 11.5427 62.4644C13.0799 63.5984 15.9023 63.4976 17.6663 63.1448C18.8255 62.918 20.1107 61.8344 21.1187 61.7084C22.1771 61.5572 22.3031 61.91 23.2355 62.7668C22.9079 63.17 21.6227 62.8676 21.0935 62.9432C20.0855 63.0944 19.1279 63.5228 18.1955 63.9008C17.3387 64.2536 16.5071 64.6316 15.6503 64.9088C15.2219 65.0348 13.4579 65.1608 13.2815 65.3876C12.9791 65.7908 16.0535 65.9924 16.4315 65.9924C17.9435 65.9672 19.4555 65.7404 20.8415 65.1356C21.5219 64.8332 23.1347 63.2456 23.6891 63.2204C24.3947 63.1952 25.7807 65.0096 26.3099 65.4884C25.7807 65.8412 24.7223 65.3624 24.1175 65.3876C23.0339 65.438 22.0511 65.8916 21.0179 66.2192C18.8507 66.9248 16.6583 67.5044 14.4659 68.1596C15.2219 69.848 21.3455 68.5376 22.5803 68.1344C23.2859 67.9076 23.9915 67.6304 24.6215 67.2524C25.0499 67.0004 25.8563 66.068 26.2595 66.0176C27.2675 65.9168 28.4771 67.6808 29.2079 68.3864C25.8563 68.084 23.5379 68.714 20.4635 69.9236C19.6319 70.2512 18.7751 70.5536 17.8931 70.73C17.4899 70.8056 15.7763 70.7552 15.4739 71.0828C14.9447 71.6372 15.4739 71.5112 16.1543 71.7884C18.9515 72.872 23.0087 72.368 25.6799 71.234C26.3603 70.9316 27.0407 70.604 27.6455 70.1504C27.8723 69.974 28.9559 68.7392 29.2835 68.6888C29.9891 68.588 31.8539 71.1584 32.3075 71.6372C29.1575 71.234 27.1163 71.612 24.2435 72.9979C23.5127 73.3507 17.4143 75.9211 17.3891 75.6187C17.3891 75.9715 22.3787 76.4251 22.3283 76.6267C25.3271 76.3747 27.8723 76.1731 30.3923 74.3083C31.0475 73.8043 32.1059 72.1916 32.7611 72.2168C33.3407 72.242 35.155 74.8879 35.4574 75.2407C33.5675 75.2407 32.1815 75.4675 30.4931 76.2991C29.4095 76.8283 28.3511 77.4079 27.2171 77.8867C26.5619 78.1639 24.9995 78.3655 24.5459 78.8443C25.8563 79.8019 29.2583 79.1971 30.6947 78.8443C31.8539 78.5419 32.9123 78.0631 33.8699 77.3323C34.3738 76.9543 35.2307 75.6187 35.9362 75.7699C36.7174 75.9463 44.1514 85.5979 44.7058 84.7411C44.857 84.5143 37.0954 76.9795 36.667 76.1227C36.0622 74.9383 36.2386 75.5431 37.0702 74.5351C37.675 73.8043 38.431 73.2752 38.9602 72.4436C40.069 70.7552 40.3714 68.7644 40.573 66.7988C38.2042 69.0416 36.2386 71.7632 35.8102 75.0643C35.3315 74.5603 33.0887 72.5948 33.9959 72.0656Z" fill="#B0BDD1"/>
<path d="M15.6996 98.7774C14.616 97.215 15.2964 96.5094 14.9184 95.0478C14.7672 94.4934 15.8256 94.4178 14.9184 93.7626C14.2128 93.2586 10.5588 94.7202 9.82798 94.9974C6.37558 96.3078 1.2096 99.2814 0 103.112C2.64599 101.272 5.49359 100.063 8.41678 98.7522C9.62638 98.223 10.9116 97.719 11.9952 96.963C12.9024 96.333 13.6584 95.199 14.6664 94.8462C13.9608 97.0638 13.8096 97.719 11.97 98.979C10.7604 99.8106 9.52558 100.491 8.44198 101.499C6.37558 103.414 4.18319 106.085 3.70439 108.933C4.28399 108.278 13.6584 99.4578 13.3812 99.2814C13.86 99.5586 13.5072 99.861 14.0112 99.483C13.7088 99.7098 17.6148 107.975 17.8164 108.933C19.6056 106.489 17.1612 100.869 15.6996 98.7774Z" fill="#B0BDD1"/>
<path d="M13.4319 100.793C12.8523 103.414 9.82827 105.304 8.34147 107.774C7.10668 109.865 6.24988 112.209 5.84668 114.679C6.75388 113.343 8.24067 109.639 9.72747 108.983C10.9119 107.572 11.9451 106.186 13.0287 104.649C13.1799 109.185 15.0699 113.494 14.9187 118.055C16.0779 114.905 16.3551 111.478 15.8259 108.177C15.6495 107.144 14.1627 99.9114 13.6587 99.6594C13.3815 99.987 13.3059 100.365 13.4319 100.793Z" fill="#B0BDD1"/>
<path d="M27.5684 79.9783C28.4 81.2131 29.5592 82.2211 30.9199 82.8763C30.7939 83.5315 28.6772 83.4307 28.274 83.7835C29.282 82.3723 23.4356 77.9624 22.4276 77.3324C20.0336 75.7952 16.2284 74.0816 13.28 74.51C14.0612 75.9464 18.572 78.1136 20.084 79.3736C22.1 81.0871 24.116 83.1535 26.888 83.4811C25.5524 85.9003 20.5628 82.0699 18.6728 81.6163C15.2708 80.8099 11.7176 81.1123 8.366 81.9439C10.2812 83.0275 13.784 83.1031 15.9764 83.7583C18.3956 84.4891 20.9912 85.6735 23.5616 84.9427C22.478 85.7239 21.7472 86.5051 20.4368 86.6059C18.8996 86.7067 16.8584 85.6735 15.1952 85.6231C12.1964 85.5475 7.63521 86.2279 5.39241 88.3195C8.0384 88.4959 10.8104 88.0423 13.532 88.1935C14.288 88.2439 19.0004 87.7147 19.3532 88.1935C18.2948 88.7731 18.0428 89.6803 16.8332 90.0079C15.2204 90.4363 13.0028 89.9071 11.264 90.2347C10.004 90.4615 1.25962 93.2335 1.94002 94.8715C2.11642 95.2999 15.3464 91.9483 16.43 91.0411C16.6064 91.7719 15.6992 92.0995 15.8756 92.8555C16.7072 92.3515 16.7828 91.3183 17.69 90.8647C16.9592 93.6115 18.1436 96.3079 19.0004 98.8531C19.2272 99.5335 20.2352 105.027 20.7644 105.203C22.4024 101.121 21.4952 96.0811 19.5296 92.3263C18.5468 90.4615 18.0932 90.5119 19.3028 88.8991C20.0084 87.9415 22.2512 87.1099 22.6292 86.1019C22.6292 86.2531 22.7804 86.2783 23.108 86.1271C21.6464 90.9151 23.36 96.7615 23.5868 101.726C25.7036 100.113 25.6784 94.3423 25.4264 91.9735C25.25 90.3103 23.8388 87.8407 23.9648 86.3287C24.0656 85.2451 24.2672 85.1947 25.6784 84.7159C26.4344 84.4639 27.896 83.9347 28.6772 84.1111C26.4596 88.8235 27.4172 94.6699 26.888 99.7855C29.9623 98.4247 30.4412 90.4615 30.0884 87.7147C29.786 85.3207 28.6268 84.5395 30.5167 83.8339C31.6507 83.4055 33.0871 84.0103 34.0951 83.4811C33.3643 83.0527 32.7091 83.4055 32.0539 82.8007C31.0711 81.8683 30.5168 78.9956 29.5844 77.7608C27.6944 75.2912 24.4436 72.5444 21.2432 72.116C23.7128 74.5604 25.628 77.1056 27.5684 79.9783Z" fill="#B0BDD1"/>
<path d="M29.7613 73.502C31.4245 76.0724 33.5665 83.5316 37.2961 83.9348C36.7165 78.4916 33.3649 74.4092 28.6777 71.8136C28.8289 72.494 29.2069 73.0484 29.7613 73.502Z" fill="#27892A"/>
<path d="M33.8436 84.6655C33.138 85.6987 30.1645 97.0638 30.7189 97.3158C32.5081 95.1234 33.9948 92.7294 34.6752 89.9574C35.0784 88.269 34.146 83.6575 36.3636 83.8843C35.658 83.5315 34.9272 83.4055 34.146 83.5063C34.3476 83.9347 34.2468 84.3379 33.8436 84.6655Z" fill="#27892A"/>
<path d="M40.723 84.9175C39.967 84.8671 39.1606 84.2371 38.3794 84.4135C38.5054 84.6151 39.589 84.8671 39.463 85.1695C39.1354 85.9255 38.3038 86.5555 37.8754 87.3115C37.4218 88.1179 34.9522 92.4271 35.3302 93.0571C36.5902 92.0239 37.7494 90.8395 38.581 89.4283C38.959 88.7731 39.4882 85.6735 40.0426 85.3963C41.5798 84.5899 46.4434 88.7731 47.7034 89.5795C48.1822 88.7731 41.9326 85.7239 41.5042 84.7411C40.2946 81.8683 41.0002 78.8443 37.5982 76.9039C39.085 79.3735 39.0598 82.4731 40.723 84.9175Z" fill="#27892A"/>
<path d="M116.6 60.6499C114.231 61.3051 111.862 62.1871 109.342 61.5319C108.082 61.2043 107.276 60.2215 106.721 59.1631C106.117 58.0039 106.721 56.6683 107.906 55.9879C108.586 55.5847 109.367 55.3831 109.922 54.7531C110.501 54.0979 110.401 53.3923 109.569 53.0899C108.259 52.6363 106.923 52.9639 105.587 53.1151C103.093 53.3923 100.648 53.9719 98.1031 53.6695C95.7595 53.3923 94.1467 50.8219 95.0035 48.7052C95.3815 47.7728 96.1879 47.2436 97.0195 46.79C97.6747 46.412 98.3803 46.1096 99.0103 45.7064C99.8671 45.152 99.8167 44.522 99.0355 43.9172C98.4055 43.4384 97.6495 43.388 96.9187 43.2872C94.8775 42.9848 92.7859 43.0604 90.7699 42.6068C89.1067 42.2288 87.6451 41.5484 86.7127 40.0112C85.2259 37.5668 86.3095 34.9964 89.1067 34.442C89.8375 34.2908 90.5935 34.1396 91.2991 33.9128C92.4079 33.5348 92.5843 32.9048 91.9543 31.8968C91.3495 30.9392 90.3415 30.4856 89.3587 30.1832C86.4355 29.2256 84.1927 27.5624 82.7059 24.7652C81.3199 22.1444 81.4963 19.1456 83.5375 16.9532C84.7219 15.668 86.1079 14.534 87.8467 14.156C90.6691 13.5512 92.3575 15.29 93.8443 17.3312C95.6335 19.8764 96.7675 22.8248 98.0275 25.6724C98.3047 26.3024 98.7079 26.8316 99.0103 27.4616C99.1867 27.8144 99.5143 27.9404 99.8671 27.9152C100.245 27.89 100.27 27.512 100.371 27.2348C100.699 26.1512 100.547 25.0172 100.623 23.8832C100.699 22.8752 100.724 21.842 101.127 20.8844C102.059 18.6164 104.151 18.314 106.595 19.2716C108.737 20.1032 109.544 21.9176 109.821 24.0848C110.123 26.3276 109.67 28.52 109.619 30.7628C109.594 31.5188 109.519 32.2748 109.947 32.9552C110.275 33.4592 110.678 33.812 111.257 33.8876C111.938 33.9632 112.265 33.4592 112.568 32.9552C112.895 32.4008 113.173 31.8212 113.5 31.2668C114.584 29.3768 116.701 29.0996 118.263 30.662C119.876 32.2748 120.304 34.316 120.304 36.4832C120.304 39.2552 119.372 41.876 118.817 44.5472C118.691 45.1016 118.565 45.6308 118.641 46.2104C118.691 46.664 118.792 47.0168 119.321 47.1176C119.851 47.2184 120.178 47.042 120.43 46.5632C121.085 45.4292 121.463 44.144 122.194 43.0352C123.101 41.6492 124.109 41.4224 125.344 42.5312C127.108 44.0684 127.259 46.1096 126.856 48.2516C126.428 50.5448 125.445 52.6615 124.714 54.8791C124.336 56.0131 118.691 60.0451 116.6 60.6499Z" fill="#B0BDD1"/>
<path d="M122.22 58.1046C122.119 57.9534 121.993 57.8022 121.892 57.6258C121.287 56.391 120.456 55.8618 118.994 56.1894C117.558 56.4918 116.071 56.5422 114.609 56.6934C114.408 56.7186 114.08 56.7942 114.08 56.4666C114.08 56.1642 114.357 56.2398 114.584 56.2146C116.147 56.0382 117.734 55.8114 119.297 55.635C119.876 55.5594 120.002 55.383 119.599 54.9546C117.23 52.4346 114.861 49.9146 112.518 47.3946C112.064 46.8906 111.51 47.1426 111.031 47.193C109.443 47.319 107.881 47.5206 106.293 47.697C106.041 47.7222 105.689 47.8986 105.663 47.4954C105.663 47.1174 106.041 47.2938 106.293 47.2686C107.831 47.0922 109.343 46.8654 110.855 46.6638C111.359 46.6134 111.636 46.4874 111.182 46.0086C109.091 43.7659 106.974 41.5231 104.857 39.3055C104.504 38.9275 103.95 38.9023 103.471 38.8771C99.5398 38.4739 95.5834 38.1211 91.6522 37.7179C91.6018 37.7179 91.5514 37.6171 91.4002 37.4911C93.013 37.2895 94.525 37.6423 96.037 37.6927C98.2294 37.7683 100.397 38.0203 102.564 38.1715C102.841 38.1967 103.244 38.3479 103.395 38.0203C103.547 37.6927 103.169 37.4911 102.967 37.2895C100.271 34.5175 97.7002 31.6447 94.9534 28.8979C92.1814 26.1259 89.3338 23.4295 87.1162 20.1787C87.3934 20.2039 87.5194 20.5063 87.721 20.6827C93.013 26.2015 98.305 31.7455 103.622 37.2643C103.925 37.5667 104.202 38.1967 104.655 37.9951C105.084 37.7935 104.882 37.1635 104.857 36.7351C104.807 32.1235 104.731 27.5371 104.655 22.9255C104.655 22.6231 104.58 22.3459 104.983 21.9175C105.084 24.3367 105.185 26.5543 105.26 28.7467C105.361 31.9471 105.411 35.1475 105.487 38.3731C105.512 38.9779 105.638 39.5827 106.167 39.9859C108.511 41.8759 110.325 44.2698 112.467 46.3866C112.669 46.5882 112.845 46.9914 113.148 46.9158C113.576 46.815 113.4 46.3614 113.45 46.059C113.702 44.1438 113.954 42.2035 114.181 40.2883C114.282 40.2883 114.383 40.2883 114.483 40.3135C114.408 41.3971 114.357 42.4807 114.257 43.5643C114.156 44.8494 114.005 46.1094 113.879 47.3946C113.803 48.1758 114.383 48.6042 114.861 48.957C116.474 50.1918 117.684 51.8046 119.12 53.2158C119.347 53.4426 119.523 53.8962 119.901 53.7702C120.305 53.6442 120.254 53.1654 120.33 52.7874C120.783 50.9478 121.237 49.1334 121.691 47.319C121.741 47.067 121.817 46.815 122.195 46.6134C121.867 49.1082 121.035 51.3762 120.657 53.745C120.557 54.4506 120.632 54.879 121.111 55.3326C121.766 55.9626 122.295 56.7186 123.127 57.147C124.185 58.1298 125.244 59.1126 126.302 60.0954C127.587 61.3302 128.872 62.565 130.183 63.7746C130.51 64.077 130.561 64.3038 130.183 64.581C130.132 64.6314 130.082 64.6818 130.007 64.7322C128.772 65.967 128.797 65.9418 127.663 64.6062C125.899 62.439 124.059 60.2718 122.22 58.1046Z" fill="#B0BDD1"/>
<path d="M141.724 35.6264C142.732 38.0456 145.353 39.86 147.797 40.6412C149.133 41.0696 154.929 42.506 155.861 41.0444C154.4 40.1876 152.762 39.9356 151.325 38.9528C149.964 38.0456 148.755 36.9368 147.344 36.1052C145.958 35.2736 144.773 35.0468 143.211 34.7696C141.674 34.4924 141.951 34.694 143.513 33.5348C145.378 32.1488 145 32.2748 146.462 33.7868C147.57 34.946 148.956 35.8028 150.418 36.4076C151.577 36.8864 158.306 38.6 158.936 36.9872C156.693 36.4832 154.576 35.3492 152.636 34.19C150.216 32.7536 148.427 32.2244 145.605 31.9976C146.436 31.292 147.444 29.9312 148.578 30.1832C149.687 30.4352 151.073 31.8968 152.232 32.3252C153.291 32.7284 159.767 34.1648 160.246 32.678C159.591 31.6952 155.786 31.2164 154.652 30.788C152.61 30.032 150.846 29.78 148.73 29.4776C149.36 28.9484 150.317 27.764 151.098 27.7388C151.829 27.7136 153.316 28.772 154.097 28.9736C156.693 29.654 159.591 29.3768 161.985 28.1672C158.457 28.0412 155.055 26.6552 151.476 27.1592C152.232 26.4788 153.19 25.2188 154.173 25.1432C155.105 25.0676 156.592 25.8992 157.6 25.9748C160.12 26.1512 163.068 25.5212 165.21 24.1856C163.446 23.9336 161.531 24.236 159.717 24.1352C158.936 24.0848 154.626 24.5132 154.551 24.3872C155.13 23.8076 155.836 22.8248 156.642 22.5728C157.55 22.2956 159.036 22.85 160.019 22.7996C162.388 22.6736 165.185 21.7916 167 20.2544C163.875 21.1868 160.523 20.6576 157.424 21.7412C159.288 20.456 160.271 18.8432 161.355 16.928C161.657 16.3988 164.58 11.9132 164.404 11.7872C162.338 12.6944 160.397 14.6852 159.137 16.5752C158.28 17.8352 157.65 21.7412 156.315 22.1948C157.222 19.4984 156.214 16.6508 156.794 13.904C155.786 15.6932 155.055 17.6588 155.13 19.7252C155.206 21.7412 156.441 22.976 154.173 24.1604C155.206 21.0608 153.719 17.6588 153.87 14.4584C152.56 15.8444 152.333 18.6668 152.459 20.456C152.535 21.6404 153.467 23.0264 153.492 24.0596C153.518 25.118 153.165 25.2188 152.182 26.0252C151.829 25.6472 152.258 24.4124 152.258 23.858C152.232 22.8248 151.93 21.842 151.653 20.8592C151.401 19.9772 151.124 19.0952 150.947 18.2132C150.872 17.7848 150.972 15.9956 150.746 15.794C150.393 15.4664 149.813 18.4652 149.763 18.8432C149.612 20.33 149.662 21.8924 150.09 23.3288C150.317 24.0344 151.703 25.8488 151.653 26.378C151.602 27.0836 149.637 28.2428 149.108 28.6964C148.83 28.1168 149.435 27.134 149.486 26.5292C149.561 25.4456 149.234 24.4124 149.032 23.354C148.578 21.1364 148.276 18.8684 147.898 16.6256C146.134 17.18 146.714 23.4044 146.966 24.6896C147.117 25.4204 147.293 26.1512 147.596 26.8316C147.797 27.2852 148.629 28.2176 148.629 28.5956C148.604 29.6036 146.714 30.6116 145.932 31.2416C146.638 27.9656 146.285 25.5716 145.454 22.3712C145.227 21.5144 145.025 20.6324 144.975 19.7252C144.95 19.2968 145.202 17.6336 144.899 17.2808C144.42 16.7012 144.471 17.2304 144.118 17.8856C142.707 20.5316 142.732 24.614 143.538 27.4112C143.74 28.142 144.017 28.8224 144.37 29.4776C144.521 29.7296 145.63 30.9392 145.63 31.2668C145.655 31.9724 142.858 33.5348 142.354 33.9128C143.11 30.8384 143.009 28.772 141.976 25.748C141.724 24.9668 139.884 18.6164 140.187 18.6416C139.834 18.6164 138.776 23.5052 138.599 23.4296C138.473 26.4536 138.398 28.9988 139.96 31.7204C140.363 32.426 141.875 33.686 141.774 34.316C141.674 34.8956 138.851 36.3572 138.448 36.6344C138.65 34.7444 138.624 33.3584 137.994 31.5692C137.591 30.4352 137.138 29.3012 136.81 28.142C136.634 27.4616 136.583 25.874 136.18 25.37C135.071 26.5544 135.273 30.0068 135.449 31.4684C135.601 32.6528 135.979 33.7616 136.558 34.7948C136.886 35.3492 138.095 36.3572 137.843 37.0376C137.566 37.7936 127.108 44.0432 127.889 44.6731C128.091 44.8495 136.483 38.0456 137.39 37.718C138.625 37.2644 138.02 37.3652 138.927 38.3228C139.582 39.0032 140.036 39.8096 140.766 40.4396C142.304 41.7248 144.244 42.2792 146.184 42.7328C144.219 40.112 141.774 37.844 138.524 37.0124C139.103 36.6596 141.321 34.6436 141.724 35.6264Z" fill="#B0BDD1"/>
<path d="M134.618 28.3184C133.283 28.9988 132.149 30.032 131.342 31.292C130.712 31.0652 131.065 28.9988 130.738 28.5452C132.023 29.7296 137.113 24.4376 137.844 23.5304C139.633 21.338 141.826 17.7596 141.725 14.7861C140.213 15.3908 137.516 19.6244 136.08 20.96C134.14 22.7744 131.846 24.5132 131.216 27.2348C128.974 25.622 133.384 21.1112 134.039 19.2968C135.223 16.0208 135.349 12.4425 134.921 9.01527C133.61 10.8045 133.132 14.2569 132.199 16.3484C131.191 18.6668 129.704 21.1112 130.133 23.7572C129.503 22.5728 128.797 21.7664 128.873 20.4812C128.948 18.944 130.234 17.0288 130.46 15.3908C130.889 12.4425 130.763 7.80567 128.948 5.33608C128.444 7.95687 128.596 10.7541 128.117 13.4253C127.991 14.1561 127.94 18.8936 127.436 19.2212C126.983 18.1124 126.126 17.7344 125.95 16.5248C125.723 14.8617 126.504 12.7197 126.378 10.9809C126.302 9.69566 124.589 0.699287 122.875 1.15289C122.623 1.22849 123.102 5.76447 123.682 9.82166C122.548 6.31887 120.406 2.13568 117.306 0.724487C118.818 3.57208 119.7 6.54567 120.632 9.62006C121.01 10.8801 121.363 12.2157 121.993 13.4001C122.321 14.0301 122.875 14.6097 123.278 15.2144H123.253C123.329 15.3908 123.43 15.5168 123.556 15.668C123.656 15.8696 123.757 16.0964 123.808 16.3232C121.691 15.3405 121.061 15.1389 120.028 13.1481C119.347 11.8377 118.818 10.5525 117.936 9.34286C116.273 7.07487 113.904 4.58008 111.107 3.77368C111.686 4.42888 119.347 14.7861 119.524 14.5341C119.448 14.6349 119.372 14.7105 119.297 14.7357C117.004 13.6521 115.517 10.7037 113.375 9.04047C111.46 7.57887 109.217 6.41967 106.823 5.73927C108.032 6.79767 111.535 8.71287 112.014 10.2501C113.274 11.5857 114.534 12.7953 115.92 14.0553C111.409 13.6773 106.898 15.0129 102.388 14.3325C105.386 15.8444 108.738 16.55 112.09 16.424C112.468 16.3988 113.677 16.3232 115.063 16.1972C112.619 16.928 109.922 17.7596 109.393 17.81C109.721 18.1124 110.124 18.314 110.578 18.4652C110.452 18.5156 110.376 18.566 110.376 18.5912C114.232 20.708 119.347 20.4056 123.329 18.8936C125.294 18.1376 125.32 17.684 126.756 19.07C127.613 19.9016 128.192 22.1948 129.15 22.724C128.999 22.6988 128.974 22.85 129.074 23.2028C124.488 21.1868 118.465 22.1948 113.526 21.842C114.887 24.1352 120.607 24.7904 123.001 24.8156C124.664 24.8408 127.31 23.732 128.772 24.0344C129.83 24.2612 129.856 24.4628 130.158 25.9244C130.309 26.7056 130.662 28.2176 130.41 28.9736C126 26.2016 120.078 26.4536 115.063 25.3448C116.046 28.5704 123.883 29.9816 126.68 29.9564C129.1 29.9312 130.007 28.8728 130.486 30.8384C130.788 32.0228 130.007 33.3584 130.41 34.442C130.939 33.7616 130.637 33.056 131.342 32.5016C132.401 31.6196 135.299 31.4432 136.634 30.662C139.331 29.0744 142.43 26.1764 143.237 23.0516C140.465 25.118 137.693 26.7308 134.618 28.3184ZM119.246 17.0792C119.423 17.0036 119.599 16.9028 119.75 16.8272C121.414 15.9452 124.942 17.054 124.992 17.2304C123.127 16.4744 121.162 16.7012 119.246 17.0792Z" fill="#B0BDD1"/>
<path d="M140.817 31.2416C138.07 32.5772 130.41 33.8372 129.553 37.466C135.021 37.5416 139.482 34.694 142.606 30.3596C141.901 30.4604 141.321 30.7376 140.817 31.2416Z" fill="#27892A"/>
<path d="M129.251 33.9884C128.319 33.1568 117.382 28.8728 117.055 29.3768C119.02 31.418 121.238 33.182 123.909 34.1648C125.547 34.7696 130.234 34.3916 129.755 36.5588C130.184 35.9036 130.411 35.1728 130.411 34.3916C129.907 34.568 129.503 34.4168 129.251 33.9884Z" fill="#27892A"/>
<path d="M128.167 40.7672C128.319 40.0112 129.024 39.3056 128.949 38.4992C128.722 38.6 128.344 39.6584 128.067 39.482C127.336 39.0536 126.832 38.1464 126.126 37.6424C125.37 37.088 121.389 34.1144 120.733 34.442C121.615 35.8028 122.649 37.1132 123.959 38.096C124.564 38.5496 127.563 39.4316 127.789 40.0364C128.394 41.6744 123.682 45.9836 122.724 47.1428C123.48 47.7224 127.235 41.8508 128.268 41.5736C131.267 40.7168 134.19 41.7752 136.509 38.6252C133.863 39.8096 130.788 39.4064 128.167 40.7672Z" fill="#27892A"/>
<path d="M58.8672 18.7172C58.8672 18.7172 58.8168 18.7928 58.7412 18.9188" stroke="#CED9EA" stroke-miterlimit="10"/>
<path d="M58.4648 19.3472C57.0788 21.6656 52.9208 29.6791 59.9264 31.9219C66.9572 34.1647 62.5724 38.5243 61.1612 39.7339" stroke="#CED9EA" stroke-miterlimit="10" stroke-dasharray="1.98 1.98"/>
<path d="M60.9858 39.885C60.8598 39.9858 60.7842 40.0362 60.7842 40.0362" stroke="#CED9EA" stroke-miterlimit="10"/>
<path d="M64.8862 15.4504C65.1975 13.527 63.8908 11.7155 61.9674 11.4041C60.0441 11.0927 58.2326 12.3995 57.9212 14.3228C57.6098 16.2461 58.9166 18.0577 60.8399 18.3691C62.7632 18.6804 64.5748 17.3737 64.8862 15.4504Z" stroke="#CED9EA" stroke-miterlimit="10" stroke-dasharray="2 2"/>
<path d="M30.4424 21.3884C30.4424 21.464 30.4424 21.5648 30.4676 21.6404" stroke="#CED9EA" stroke-miterlimit="10"/>
<path d="M30.4922 22.1444C31.2986 28.1671 38.5058 34.4671 44.6294 30.8383C52.6933 26.1008 43.8482 17.2556 48.5857 10.4012C56.9017 -1.66957 82.2025 4.65561 92.1816 10.4516" stroke="#CED9EA" stroke-miterlimit="10" stroke-dasharray="2 2"/>
<path d="M92.4082 10.5775C92.4838 10.6279 92.5594 10.6531 92.635 10.7035" stroke="#CED9EA" stroke-miterlimit="10"/>
<path d="M159.491 56.4918C163.12 69.495 149.638 104.095 143.641 82.1454C141.826 75.543 162.566 73.3758 164.733 83.9346C168.135 100.441 138.777 103.918 128.42 102.305" stroke="#CED9EA" stroke-miterlimit="10" stroke-dasharray="2 2"/>
<path d="M162.364 55.7864C162.364 57.122 161.28 58.2056 159.945 58.2056C158.609 58.2056 157.525 57.122 157.525 55.7864C157.525 54.4508 158.609 53.3672 159.945 53.3672C161.28 53.3672 162.364 54.4508 162.364 55.7864Z" fill="#B0BDD1"/>
<path opacity="0.6" d="M151.071 41.8441C145.833 33.5663 136.395 30.3206 134.902 29.8174C115.242 23.5273 104.893 42.4983 76.7812 47.4297C64.4585 49.5935 54.4891 48.0587 46.1644 46.0459C49.4032 54.374 44.4437 65.7716 41.2302 73.0933C39.0289 78.075 36.6504 83.1071 33.8164 87.7618C30.1728 93.7751 25.4411 99.2349 23.0879 105.877C40.6736 126.861 72.3025 140.775 101.629 132.17C144.391 119.615 165.165 64.1362 151.071 41.8441Z" fill="#E1E1E1"/>
<path d="M38.8573 133.226C38.2021 132.797 37.8493 131.512 38.1013 130.353L46.5936 90.6881C46.8456 89.5289 47.5764 88.9493 48.2316 89.3777C48.8868 89.8061 49.2396 91.0913 48.9876 92.2505L40.5204 131.915C40.2685 133.074 39.5377 133.654 38.8573 133.226Z" fill="#A7BCD6"/>
<path d="M57.9842 133.276C58.6394 132.848 58.9922 131.562 58.7402 130.403L50.3234 90.7133C50.0714 89.5541 49.3406 88.9745 48.6854 89.4029C48.0302 89.8313 47.6774 91.1165 47.9294 92.2757L56.3462 131.966C56.5982 133.1 57.329 133.704 57.9842 133.276Z" fill="#A7BCD6"/>
<path d="M112.844 132.344C112.188 131.915 111.836 130.63 112.088 129.471L120.555 89.8061C120.807 88.6469 121.538 88.0673 122.193 88.4957C122.848 88.9241 123.201 90.2093 122.949 91.3685L114.482 131.033C114.255 132.167 113.499 132.772 112.844 132.344Z" fill="#A7BCD6"/>
<path d="M131.971 132.369C132.627 131.94 132.979 130.655 132.727 129.496L124.311 89.8061C124.059 88.6469 123.328 88.0673 122.673 88.4957C122.017 88.9241 121.665 90.2093 121.917 91.3685L130.333 131.058C130.56 132.218 131.316 132.797 131.971 132.369Z" fill="#A7BCD6"/>
<path d="M64.0829 86.2278C64.0829 86.253 64.0829 86.2782 64.0829 86.3034C63.8561 86.757 63.5285 86.757 63.1505 86.505C63.1001 86.4294 63.0749 86.3286 63.0245 86.253C62.2433 82.0698 61.4621 77.8866 60.6809 73.7034C59.6225 68.0082 58.5641 62.3131 57.4805 56.6431C57.8333 56.8447 58.2365 56.9959 58.6649 57.0211C58.7909 57.6007 58.8917 58.1803 58.9925 58.7347C60.3533 65.8662 61.6637 72.9726 63.0245 80.1042C63.3773 81.9186 63.7301 83.7078 64.0325 85.5222C64.0829 85.7238 64.1333 85.9758 64.0829 86.2278Z" fill="#E8F1FF"/>
<path d="M65.8964 85.5977C65.9468 85.7993 65.972 86.0009 65.9468 86.2277C65.9216 86.3033 65.8963 86.3789 65.8711 86.4545C65.4932 86.7569 65.1656 86.7065 64.8128 86.4041C64.7876 86.3537 64.7624 86.2781 64.7372 86.2277C64.3592 85.1441 64.2584 84.0101 64.0568 82.9013C62.9984 77.3069 61.94 71.7125 60.8816 66.0929C60.302 63.0438 59.7224 60.0198 59.168 56.9706C59.6216 56.9202 60.0248 56.769 60.3776 56.517C60.3776 56.5422 60.3776 56.5674 60.3776 56.5926C61.5368 62.5146 62.6204 68.4617 63.7544 74.3837C64.5104 78.1385 65.1908 81.8681 65.8964 85.5977Z" fill="#E8F1FF"/>
<path d="M74.6412 39.8346C74.5404 40.1622 74.2884 40.3638 74.0616 40.5906C74.0364 40.6158 74.0112 40.641 73.986 40.6662C70.0296 44.6478 66.048 48.6041 62.0664 52.5857C61.7892 52.8377 61.5624 53.1149 61.4364 53.4173C61.0836 52.3841 60.126 51.6281 58.9668 51.5777C60.9576 49.5869 62.9232 47.5709 64.914 45.5801C67.4844 43.0098 70.0548 40.4646 72.6252 37.8942C72.7512 37.7682 72.8772 37.6422 73.0284 37.491C73.5072 37.491 73.5324 37.869 73.608 38.1966C73.5828 38.4738 73.4064 38.6502 73.23 38.8266C73.1292 38.9274 73.0536 39.003 72.9528 39.0786C68.8956 43.1358 64.8384 47.1929 60.7812 51.2753C60.5796 51.4517 60.1008 51.6533 60.4032 51.9809C60.6804 52.2581 60.9324 51.8297 61.134 51.6281C65.1408 47.6213 69.1728 43.5894 73.1796 39.5826C73.2804 39.4818 73.3812 39.3558 73.5072 39.255C73.6332 39.129 73.8096 39.003 74.0364 39.003C74.4396 39.1794 74.5908 39.4566 74.6412 39.8346Z" fill="#E8F1FF"/>
<path d="M61.4363 53.4174C61.0835 52.3842 60.1259 51.6282 58.9667 51.5778C58.9415 51.5778 58.8911 51.5778 58.8407 51.5778C57.3287 51.5778 56.1191 52.7874 56.1191 54.2994C56.1191 55.2822 56.6483 56.1641 57.4547 56.6429C57.8075 56.8445 58.2107 56.9957 58.6391 57.0209C58.7147 57.0209 58.7651 57.0209 58.8407 57.0209C58.9415 57.0209 59.0423 57.0209 59.1431 56.9957C59.5967 56.9453 59.9999 56.7941 60.3527 56.5421C61.0583 56.0381 61.5371 55.2318 61.5371 54.2994C61.5875 53.9718 61.5371 53.6946 61.4363 53.4174ZM58.8659 55.3577C58.2863 55.3577 57.8327 54.9293 57.8075 54.3246C57.7823 53.619 58.1603 53.241 58.8407 53.241C59.4707 53.241 59.9495 53.6946 59.9495 54.2994C59.9243 54.8034 59.3951 55.3325 58.8659 55.3577Z" fill="#C1CFF0"/>
<path d="M59.9244 54.2993C59.9244 54.8285 59.3952 55.3577 58.8408 55.3577C58.2612 55.3577 57.8076 54.9293 57.7824 54.3245C57.7572 53.6189 58.1352 53.2409 58.8156 53.2409C59.4708 53.2157 59.9496 53.6945 59.9244 54.2993Z" fill="#DBE5FD"/>
<path d="M73.8602 39.8094C73.1294 38.3226 71.2898 37.0122 73.457 35.8782C75.2462 34.9458 75.9518 37.0122 76.7834 38.5494C77.111 39.1542 77.3882 39.5574 77.6654 39.9102C77.9426 40.2378 78.5726 40.9938 79.631 41.7498C80.9666 42.6822 81.395 42.5058 81.773 43.161C82.0754 43.7406 82.2518 45.7566 82.151 45.1014C82.151 45.1014 76.8086 49.083 76.1534 49.1586C74.4902 49.3602 73.8854 46.3614 73.8098 44.8746C73.7594 43.9422 74.0618 43.1358 74.213 42.2286C74.4398 40.9182 74.1122 41.1954 73.8602 39.8094Z" fill="#DBE5FD"/>
<path d="M82.2263 45.2021C80.8907 43.1609 79.2779 41.4221 77.0855 40.2629C76.9847 40.2125 76.8083 40.0865 76.8335 40.0109C76.9091 39.6833 79.6559 39.5321 81.9491 40.7921C81.9491 40.7921 82.9319 41.1449 84.3935 43.2113C84.6455 43.5641 84.6203 43.7405 84.2423 43.9673C83.5619 44.3705 82.9067 44.7989 82.2263 45.2021Z" fill="#C1CFF0"/>
<path d="M59.9244 54.2993C59.9244 54.8285 59.3952 55.3577 58.8408 55.3577C58.2612 55.3577 57.8076 54.9293 57.7824 54.3245C57.7572 53.6189 58.1352 53.2409 58.8156 53.2409C59.4708 53.2157 59.9496 53.6945 59.9244 54.2993Z" fill="#E8F1FF"/>
<path d="M117.154 81.6665C117.078 81.6161 117.028 81.5657 116.952 81.5405C117.633 81.0113 117.532 80.2049 117.633 79.4741C117.759 78.6425 117.759 77.8109 117.784 76.9793C118.111 73.3001 118.414 69.6461 118.741 65.967C118.993 63.2454 119.22 60.5238 119.523 57.8022C119.598 57.147 119.271 56.6682 118.993 56.1642C120.077 56.4414 120.279 56.643 120.178 57.7518C119.85 61.5318 119.523 65.3118 119.17 69.0917C118.893 72.3173 118.615 75.5681 118.313 78.7937C118.263 79.3481 118.237 79.9025 118.162 80.4317C118.111 81.0617 117.784 81.5153 117.154 81.6665Z" fill="#94AAD3"/>
<path d="M97.9994 86.4797H105.307C105.459 85.8497 105.03 84.4385 104.249 81.9689C104.199 81.8177 104.098 81.5405 103.821 81.3389C103.644 81.2129 103.417 81.1625 103.115 81.1625C101.956 81.1877 100.771 81.1625 99.6122 81.1625C99.3854 81.1625 95.7314 81.4901 95.7314 81.4901L97.6466 86.3537C97.7978 86.3789 97.8986 86.4293 97.9994 86.4797Z" fill="#94AAD3"/>
<path d="M118.992 56.1642C118.79 56.1642 118.588 56.139 118.387 56.139C113.725 56.139 109.063 56.139 104.426 56.139C100.696 56.139 96.9668 56.139 93.2372 56.1138C92.9348 56.1138 92.6072 56.139 92.3048 56.139C89.1044 56.139 85.904 56.139 82.6784 56.1642C81.6452 56.1642 81.1412 56.6178 81.0404 57.651C80.9144 58.8102 80.8388 59.9694 80.738 61.1538C80.5364 63.4218 80.3852 65.6897 80.1584 67.9577C79.856 70.9565 79.5536 73.9805 79.3772 76.9793C79.1504 78.0125 79.1756 79.0709 79.0496 80.1293C78.8984 81.3641 79.3268 81.7925 80.5616 81.7925C85.3748 81.7925 98.882 81.7925 98.9072 81.7421C98.9072 81.7421 101.805 81.7925 103.242 81.7673C103.494 81.7673 103.569 81.8177 103.645 81.8681C104.653 82.3469 105.031 85.2197 105.157 86.5301H106.089L104.854 81.7925L107.173 81.8177C107.173 81.8177 114.078 81.8177 114.934 81.7925C115.665 81.7673 116.421 81.8933 117.127 81.6917C117.328 81.2885 117.631 80.9357 117.681 80.4317C117.782 79.5497 117.832 78.6677 117.933 77.8109C117.958 77.5589 117.984 77.2565 117.782 77.0297C118.21 76.3745 118.059 75.6185 118.135 74.9129C118.412 72.1409 118.639 69.3941 118.866 66.6221C119.118 63.7494 119.344 60.8766 119.622 58.0038C119.748 57.2226 119.647 56.5926 118.992 56.1642ZM118.815 58.0542C118.689 59.6418 118.538 61.2294 118.412 62.817C118.084 66.8237 117.706 70.8305 117.379 74.8373C117.328 75.5429 117.051 76.2485 117.354 76.9541C117.102 76.7777 116.824 76.7777 116.522 76.7777C110.776 76.7777 83.9888 76.7525 80.486 76.8029C80.3096 76.8029 80.1332 76.8029 79.9568 76.8029C80.1332 76.5005 80.1332 76.1477 80.1584 75.7949C80.2592 74.0057 80.4608 72.2417 80.612 70.4525C80.864 67.5797 81.0908 64.7321 81.368 61.8594C81.494 60.5238 81.5192 59.163 81.7712 57.8274C81.9224 57.021 82.3256 56.7438 83.1068 56.8194C83.51 56.8194 83.888 56.7438 84.2912 56.7438C95.3792 56.7438 106.467 56.7438 117.58 56.7438C118.639 56.769 118.891 57.021 118.815 58.0542Z" fill="#DBE5FD"/>
<path d="M117.405 76.9794C113.096 76.9794 108.812 76.9794 104.502 76.9794C102.486 76.9794 86.9884 76.9794 81.268 76.9794C80.9908 76.9794 80.6884 76.9542 80.4112 76.9542C80.0584 76.3998 80.3104 75.795 80.3608 75.2154C80.638 71.7379 80.9656 68.2603 81.268 64.8079C81.4696 62.4895 81.6208 60.1963 81.9232 57.9031C82.024 57.0967 82.3516 56.7691 83.032 56.6683C83.6116 56.4919 84.2164 56.5423 84.796 56.5423C95.6824 56.5423 106.569 56.5423 117.48 56.5171C118.892 56.5171 119.169 56.8699 119.043 58.2307C118.766 61.0027 118.589 63.7999 118.337 66.5971C118.06 69.8731 117.732 73.1238 117.43 76.3998C117.405 76.5762 117.405 76.7778 117.405 76.9794Z" fill="#E8F1FF"/>
<path d="M83.0072 56.6431C82.4024 56.8699 82.1252 57.3235 82.0748 57.9535C81.6716 62.5146 81.2684 67.0506 80.8652 71.6118C80.714 73.401 80.5376 75.165 80.3864 76.9542C80.21 76.9542 80.0084 76.9542 79.832 76.9794C80.0336 74.661 80.2604 72.3426 80.462 70.0242C80.6132 68.3358 80.7392 66.6474 80.8904 64.959C81.092 62.5398 81.3188 60.1458 81.5456 57.7266C81.6464 56.9455 82.2764 56.4919 83.0072 56.6431Z" fill="#94AAD3"/>
<path d="M101.806 76.1731C97.472 76.1731 93.1376 76.1479 88.8032 76.1983C88.1732 76.1983 87.9968 75.9967 88.0472 75.4171C88.274 73.1743 88.5008 70.9063 88.7024 68.6635C88.8536 66.9247 88.9796 65.2111 89.1056 63.4723C89.2568 61.7083 89.4584 59.9443 89.5844 58.1551C89.6348 57.6763 89.8364 57.6007 90.2648 57.6007C92.684 57.6259 95.078 57.6007 97.4972 57.6007C103.747 57.6007 109.996 57.6007 116.271 57.6007C117.153 57.6007 117.204 57.7015 117.103 58.5331C116.952 59.8435 116.851 61.1539 116.725 62.4643C116.548 64.3543 116.372 66.2191 116.221 68.1091C116.12 69.2683 116.044 70.4275 115.944 71.5867C115.818 72.9979 115.666 74.3839 115.566 75.7951C115.515 76.3243 115.162 76.1731 114.885 76.1731C110.853 76.1731 106.846 76.1731 102.814 76.1731C102.487 76.1731 102.134 76.1731 101.806 76.1731Z" fill="white"/>
<path d="M84.7459 76.1729C84.1663 76.1729 83.5867 76.1477 83.0323 76.1729C82.6039 76.1981 82.4779 76.0217 82.5031 75.6185C82.6039 74.4089 82.7047 73.1993 82.8055 72.0149C82.9063 70.7801 83.0575 69.5201 83.1583 68.2853C83.3347 66.3953 83.5111 64.4801 83.6623 62.5901C83.7631 61.3805 83.8639 60.1709 83.9395 58.9865C83.9395 58.8353 83.9395 58.6841 83.9395 58.5329C84.0403 57.6257 84.0403 57.6257 84.9727 57.6257C85.9807 57.6257 87.0139 57.6509 88.0219 57.6257C88.4755 57.6257 88.6267 57.7769 88.5763 58.2053C88.3999 59.4653 88.3999 60.7505 88.2235 62.0105C88.0471 63.2453 88.0219 64.5053 87.9211 65.7401C87.7699 67.5545 87.5683 69.3689 87.4171 71.1833C87.3163 72.4685 87.1903 73.7789 87.1399 75.0641C87.0895 76.1729 87.0643 76.1981 85.9807 76.1981C85.5775 76.1729 85.1491 76.1729 84.7459 76.1729Z" fill="white"/>
<path d="M111.206 61.5823C105.435 61.5823 99.6642 61.5823 93.8934 61.5823C93.7422 61.5823 93.591 61.5823 93.4398 61.5823C93.1626 61.5823 93.0114 61.7083 92.9862 62.0107C92.9106 62.9683 92.8098 63.9259 92.7342 64.8835C92.6334 66.0426 92.5578 67.2018 92.4318 68.361C92.2806 70.1754 92.1042 71.9898 91.9278 73.8042C91.8774 74.3586 92.1042 74.4594 92.6082 74.4594C98.505 74.4342 104.402 74.4594 110.299 74.4342C110.5 74.4342 110.752 74.535 110.903 74.283C111.08 72.393 111.256 70.503 111.407 68.613C111.609 66.3198 111.785 64.0015 111.962 61.7083C111.735 61.4815 111.458 61.5823 111.206 61.5823Z" fill="#94AAD3"/>
<path d="M103.242 60.5239C99.0844 60.5239 94.9265 60.5239 90.7685 60.5239C90.2141 60.5239 90.0377 60.3727 90.0629 59.8183C90.0881 58.2559 90.0629 58.2559 91.6001 58.2559C99.6388 58.2559 107.703 58.2559 115.742 58.2559C116.598 58.2559 116.598 58.2559 116.598 59.1127C116.598 59.2387 116.598 59.3899 116.598 59.5159C116.523 60.5239 116.523 60.5239 115.515 60.5239C111.407 60.5239 107.325 60.5239 103.242 60.5239Z" fill="#94AAD3"/>
<path d="M130.585 89.7557H42.0824C41.0996 89.7557 40.3184 88.9493 40.3184 87.9917C40.3184 87.0089 41.1248 86.2277 42.0824 86.2277C64.2835 86.2277 86.5098 86.2277 108.711 86.2277C115.994 86.2277 123.277 86.2277 130.559 86.2277C131.517 86.2277 132.323 87.0341 132.323 87.9917C132.349 88.9745 131.542 89.7557 130.585 89.7557Z" fill="#A7BCD6"/>
<path d="M68.9455 135.62L67.6855 135.166C67.5343 135.116 67.4335 134.914 67.5091 134.763L74.4895 115.938C74.5399 115.787 74.7415 115.686 74.8927 115.762L76.1527 116.216C76.3039 116.266 76.4047 116.468 76.3291 116.619L69.3487 135.443C69.2983 135.594 69.1219 135.67 68.9455 135.62Z" fill="#A7BCD6"/>
<path d="M91.1456 135.62L92.4056 135.166C92.5568 135.116 92.6576 134.914 92.582 134.763L85.6016 115.938C85.5512 115.787 85.3496 115.686 85.1984 115.762L83.9384 116.216C83.7872 116.266 83.6864 116.468 83.762 116.619L90.7424 135.443C90.818 135.594 90.9944 135.67 91.1456 135.62Z" fill="#A7BCD6"/>
<path d="M90.4668 116.846H70.0045C69.4753 116.846 69.0469 116.417 69.0469 115.888V111.856C69.0469 111.327 69.4753 110.898 70.0045 110.898H90.4668C90.996 110.898 91.4244 111.327 91.4244 111.856V115.888C91.4244 116.417 90.996 116.846 90.4668 116.846Z" fill="#A7BCD6"/>
<path d="M106.545 83.9597C106.998 83.1785 106.897 82.2965 106.897 81.4397C106.897 79.9529 106.897 79.9529 108.409 79.9529C109.367 79.9529 110.299 79.9781 111.257 79.9529C111.736 79.9277 111.937 80.1041 111.912 80.5829C111.887 81.7169 111.963 82.8257 111.761 83.9345C111.433 84.3377 110.98 84.6149 110.476 84.6149C108.964 84.6401 107.452 84.6149 105.864 84.6149C106.041 84.2873 106.545 84.3629 106.545 83.9597Z" fill="#94AAD3"/>
<path d="M113.55 83.5564C113.373 82.6492 112.743 82.0696 112.189 81.4144C111.231 80.2804 111.231 80.2804 112.365 79.2976C113.096 78.6928 113.827 78.088 114.532 77.4329C114.885 77.1053 115.137 77.1053 115.44 77.4833C116.145 78.3653 116.926 79.1716 117.506 80.1292C117.506 80.6584 117.355 81.1372 116.952 81.49C115.818 82.498 114.658 83.4556 113.449 84.4888C113.373 84.136 113.827 83.884 113.55 83.5564Z" fill="#B0BDD1"/>
<path d="M109.342 63.6989H94.2473C94.1213 63.6989 94.0205 63.5981 94.0205 63.4721V62.8673C94.0205 62.7413 94.1213 62.6405 94.2473 62.6405H109.342C109.468 62.6405 109.569 62.7413 109.569 62.8673V63.4721C109.569 63.5981 109.468 63.6989 109.342 63.6989Z" fill="#E8F1FF"/>
<path d="M109.342 65.4126H94.2473C94.1213 65.4126 94.0205 65.3118 94.0205 65.1858V64.581C94.0205 64.455 94.1213 64.3542 94.2473 64.3542H109.342C109.468 64.3542 109.569 64.455 109.569 64.581V65.1858C109.569 65.3118 109.468 65.4126 109.342 65.4126Z" fill="#E8F1FF"/>
<path d="M109.342 67.101H94.2473C94.1213 67.101 94.0205 67.0002 94.0205 66.8742V66.2694C94.0205 66.1434 94.1213 66.0426 94.2473 66.0426H109.342C109.468 66.0426 109.569 66.1434 109.569 66.2694V66.8742C109.569 67.0002 109.468 67.101 109.342 67.101Z" fill="#E8F1FF"/>
<path d="M109.342 68.8398H94.2473C94.1213 68.8398 94.0205 68.739 94.0205 68.613V68.0082C94.0205 67.8822 94.1213 67.7814 94.2473 67.7814H109.342C109.468 67.7814 109.569 67.8822 109.569 68.0082V68.613C109.569 68.739 109.468 68.8398 109.342 68.8398Z" fill="#E8F1FF"/>
<path d="M109.342 70.6038H94.2473C94.1213 70.6038 94.0205 70.503 94.0205 70.377V69.7722C94.0205 69.6462 94.1213 69.5454 94.2473 69.5454H109.342C109.468 69.5454 109.569 69.6462 109.569 69.7722V70.377C109.569 70.503 109.468 70.6038 109.342 70.6038Z" fill="#E8F1FF"/>
<path d="M99.009 80.3308C99.1097 80.2048 99.1854 80.0284 99.0342 79.9024C98.883 79.7512 98.7318 79.7764 98.5302 79.9024C98.0262 80.23 97.497 80.608 96.9678 80.9356C96.867 80.986 96.7662 81.0364 96.6654 81.0868C96.2118 81.3388 95.859 81.7168 95.5062 82.0696C94.9014 82.6744 94.2462 83.0272 93.4146 83.2036C92.7342 83.3548 92.0286 83.4556 91.3482 83.5816C91.1718 83.6068 90.9702 83.6572 90.8946 83.758C90.819 83.8336 90.819 83.884 90.8442 83.9344C90.9702 84.5392 91.197 85.0432 91.5498 85.5472C91.6506 85.6984 91.6758 85.8748 91.7262 86.0512C94.2462 85.0432 96.7914 84.1108 99.3366 83.1784C100.622 82.7248 101.201 81.7924 101.857 80.6836C101.957 80.482 98.4798 81.4396 98.505 81.4144C98.7822 81.1624 98.9082 80.482 99.009 80.3308Z" fill="#C9795A"/>
<path d="M80.538 52.2329C77.8416 51.9053 75.372 53.8205 75.0444 56.5421C75.0192 56.7941 75.0192 57.0713 75.0192 57.3233C74.9436 58.9109 75.6492 60.3725 76.7832 61.3301L76.2036 65.9165C76.1532 66.4204 76.3548 66.8992 76.7832 67.1764C77.2116 67.4536 77.766 67.756 78.3456 67.8316C79.2528 67.9324 80.0844 67.3024 80.1852 66.2692L80.3616 64.9084L80.5128 63.7745C80.6136 63.7997 80.7396 63.8249 80.8656 63.8501C82.6296 64.0517 84.2172 62.8169 84.444 61.0529L84.7212 58.8101C84.7716 58.6085 84.822 58.3817 84.8472 58.1801C84.8724 57.9281 84.8724 57.6509 84.8724 57.3989C84.9732 54.8033 83.1084 52.5605 80.538 52.2329Z" fill="#E1E1E1"/>
<path d="M103.293 126.371C103.974 126.9 104.478 127.555 104.957 128.236C105.738 129.319 106.469 130.453 107.451 131.335C108.233 132.041 109.014 132.595 109.745 133.351C109.115 132.268 108.636 131.184 108.233 130C107.603 128.11 106.973 126.169 106.494 124.254C106.443 124.078 106.418 123.901 106.368 123.725C106.317 123.549 106.166 123.549 106.04 123.523C105.108 123.322 104.251 123.095 103.394 122.667C103.344 122.641 103.218 122.591 103.218 122.692C103.218 123.75 103.293 124.809 103.344 125.892C103.369 126.043 103.394 126.22 103.293 126.371Z" fill="#C9795A"/>
<path d="M112.139 127.253C112.517 127.404 112.819 127.631 113.046 127.933C113.651 128.765 114.155 129.622 114.684 130.504C115.339 131.562 116.07 132.469 117.027 133.276C117.305 133.503 117.557 133.78 117.809 134.032C117.405 133.125 117.053 132.243 116.801 131.285C116.448 129.823 116.171 128.337 115.868 126.85C115.767 126.371 115.767 125.817 115.591 125.338C115.49 125.061 115.163 125.111 114.936 125.01C114.255 124.708 113.55 124.481 112.819 124.204C112.617 124.128 112.416 124.027 112.214 124.153C112.265 125.212 112.214 126.22 112.139 127.253Z" fill="#C9795A"/>
<path d="M71.5411 108.656C71.4655 108.882 75.5731 111.831 80.8398 111.402C81.369 111.352 85.0734 110.923 88.2486 108.782C90.2646 107.421 92.1546 105.808 94.3722 104.775C95.4054 104.271 96.5142 103.918 97.6482 103.716C99.2358 103.439 98.9334 103.364 99.4626 104.699C101.403 109.613 102.89 115.409 102.839 120.676C102.839 122.213 102.713 122.364 103.973 123.019C104.578 123.347 106.191 123.977 106.67 123.523C107.123 123.095 106.871 120.348 106.972 119.567C107.149 118.055 107.426 116.568 107.779 115.081C109.165 117.148 110.45 119.063 111.281 121.432C111.533 122.188 111.533 123.448 112.037 124.027C112.592 124.683 114.809 125.136 115.616 125.313C115.591 117.979 113.827 110.722 111.231 103.868C110.601 102.23 109.82 100.718 109.467 99.0039C109.139 97.4667 108.963 95.8035 107.955 94.5183C106.065 92.1243 101.63 91.5699 98.8326 91.3431C95.5818 91.066 91.9026 90.9651 88.6518 91.1919C86.283 91.3683 84.4938 95.1987 82.9062 96.9627C80.5878 99.5583 78.7231 101.776 77.9167 105.203C77.5387 106.791 77.2867 108 76.1527 108.731C74.2879 109.966 71.5915 108.479 71.5411 108.656Z" fill="#E1E1E1"/>
<path d="M74.9942 109.487C77.0102 108.731 77.5898 107.018 78.0434 105.077C78.5726 102.809 79.4294 101.196 80.9162 99.3819C82.655 97.2651 84.671 95.3751 86.2838 93.1575C87.1406 91.9731 87.8966 91.5447 86.9894 90.562C85.4774 88.924 82.2518 88.6468 80.3618 87.538C80.1098 87.3868 79.5554 87.286 79.3034 86.8324C79.0262 86.278 79.4546 85.9252 79.3538 85.2196C79.1522 83.9344 77.363 83.3044 77.5394 82.9264C77.6402 82.6996 78.2198 82.8256 78.2702 82.6492C78.3206 82.4476 77.5898 82.1956 77.237 81.868C76.733 81.4144 76.5062 80.2804 77.6906 77.3068C76.229 69.898 75.4226 68.2852 74.969 68.3356C74.0366 68.4112 73.5074 75.2152 73.6334 80.3812C73.709 83.5816 73.7342 83.6824 73.7342 85.1944C73.6838 88.9996 71.2394 91.444 69.1226 94.3923C67.0814 97.2399 65.9979 99.7599 67.7366 103.086C68.5178 104.598 69.7526 105.984 71.0378 107.093C71.6174 107.572 74.2382 109.79 74.9942 109.487Z" fill="#B3BEC6"/>
<path d="M76.0268 78.6675C77.1608 80.6079 77.6144 83.2287 78.446 85.3455C79.1516 87.1095 79.5296 90.2091 81.722 90.0075C83.9899 89.8059 86.3839 88.5207 88.5511 87.8907C88.5511 87.8907 88.5511 87.8907 88.5763 87.8907C90.1639 87.4371 92.0539 86.8827 92.1547 86.0511C92.1799 85.9251 92.0539 85.6983 91.8523 85.2699C91.6507 84.8667 91.3483 84.2115 91.0963 84.0351C90.0883 83.2287 86.7115 87.6891 83.9899 87.0843C82.4528 86.7315 81.0668 85.0683 80.7392 82.8507C80.3612 80.3055 80.1596 78.0123 79.2272 75.5931C78.4712 73.6275 77.6648 71.9391 78.572 69.8979C76.3292 70.3263 75.17 70.4019 75.6236 73.0227C75.8 74.0307 76.1528 75.0135 76.2284 76.0467C76.2788 76.4751 75.8252 78.3147 76.0268 78.6675Z" fill="#B3BEC6"/>
<path d="M75.0187 109.512C70.2307 106.766 64.6112 102.003 68.1644 96.0809C69.7267 93.4853 72.1459 91.3433 73.3051 88.5209C73.8847 87.1097 73.9099 85.6985 73.8595 84.1865C73.8343 83.6321 73.3555 80.7089 73.8595 80.2301C73.1539 80.2301 72.1963 79.8269 71.5411 79.8773C70.9615 79.4237 70.6591 79.4993 70.5835 80.1293C70.4071 80.6081 70.2055 81.0869 69.9788 81.5657C69.2984 83.1785 68.5424 84.7661 67.8116 86.3537C66.35 89.5289 64.5104 92.9561 64.2836 96.5093C64.0316 101.247 69.6512 110.848 75.0187 109.512Z" fill="#B3BEC6"/>
<path d="M91.9788 85.5724C91.1976 83.6824 91.374 83.2036 89.106 83.3296C88.1736 83.38 85.2252 84.4888 84.3936 84.136C82.5288 83.38 84.444 79.1464 84.6204 77.7604C84.948 75.19 83.94 71.8384 83.058 69.3688C82.302 67.252 79.5804 64.7068 77.5896 67.2268C76.5312 68.5624 77.5392 70.276 78.7488 74.7112C79.6812 78.0376 80.1348 79.7008 80.4876 81.6664C80.9664 84.3376 81.0168 86.0512 82.3524 86.8576C83.0076 87.2356 83.6628 87.2356 84.5196 87.1852C86.2332 87.0844 88.7784 86.7316 91.9788 85.5724Z" fill="#B3BEC6"/>
<path d="M83.0072 56.8697C82.4276 57.1469 81.974 57.5501 81.47 57.9281C80.7896 58.4321 80.4116 59.0873 80.2604 59.8937C80.21 60.1457 80.21 60.3977 80.1344 60.6496C79.9832 61.3048 79.832 61.9852 79.2272 62.4388C78.824 62.7412 78.446 63.0688 78.0428 63.3964C77.69 63.6736 77.3876 64.0264 77.2364 64.4548C76.8836 65.4628 77.0096 66.4456 77.4884 67.3528C77.9168 68.134 78.194 68.9404 78.2444 69.8224C78.2696 70.3516 78.1436 70.8304 77.7404 71.1328C77.1608 71.5612 76.6064 71.9896 76.0268 72.3928C74.4896 73.4008 74.1116 74.7112 74.9432 76.2484C75.6236 77.5336 76.5812 78.592 77.564 79.6756C78.0932 80.2804 78.7232 80.8096 78.9752 81.616C79.0256 81.742 79.1012 81.9688 78.95 81.994C78.2696 82.12 78.3956 82.7752 78.1184 83.1784C78.0428 83.2792 78.0428 83.38 78.1184 83.4808C71.7429 86.3032 58.1601 77.8108 63.0237 71.284C64.3845 69.4444 65.0397 68.5876 65.4681 66.2692C65.8713 64.2028 66.8541 62.4892 68.5425 61.204C70.5333 59.6921 71.6421 58.8353 72.7004 56.5169C73.6076 54.5513 74.6912 52.8125 76.4804 51.5273C78.4208 50.1161 81.1172 50.9981 83.0324 51.9809C83.3096 52.1069 83.5616 52.2581 83.7632 52.4093C83.6876 52.4093 83.5868 52.4345 83.5364 52.4849C83.36 52.6109 83.36 52.8377 83.4608 52.9889C83.7884 53.5937 83.7884 54.2489 83.8388 54.9041C83.864 55.6601 83.8388 56.4665 83.0072 56.8697Z" fill="#686768"/>
<path d="M84.0653 57.1217C82.5533 58.9361 80.8649 57.6005 80.6381 60.2465C80.5121 61.7837 80.6634 61.6073 79.5294 62.6405C78.6726 63.4217 77.841 63.9257 77.6394 65.1605C77.3118 67.2773 79.6806 68.1089 79.353 69.7469C78.9498 71.8385 75.6486 71.6117 75.1194 73.7788C74.2374 77.3572 82.5533 80.0536 79.1514 82.8004C78.7986 83.0776 78.4458 83.3044 78.0426 83.4808C77.967 83.38 77.967 83.2792 78.0426 83.1784C78.3198 82.8004 78.1938 82.12 78.8742 81.994C79.0254 81.9688 78.9498 81.742 78.8994 81.616C78.6726 80.8096 78.0426 80.2804 77.4882 79.6756C76.5306 78.592 75.5478 77.5336 74.8674 76.2484C74.0358 74.686 74.439 73.4008 75.951 72.3928C76.5306 71.9897 77.085 71.5613 77.6646 71.1329C78.0678 70.8305 78.1938 70.3517 78.1686 69.8225C78.1182 68.9405 77.841 68.1341 77.4126 67.3529C76.9338 66.4457 76.8078 65.4629 77.1606 64.4549C77.3118 64.0265 77.6142 63.6989 77.967 63.3965C78.3702 63.0689 78.7482 62.7413 79.1514 62.4389C79.7814 61.9853 79.9074 61.3049 80.0586 60.6497C80.109 60.3977 80.1342 60.1457 80.1846 59.8937C80.3358 59.0873 80.7137 58.4321 81.3941 57.9281C81.8981 57.5753 82.3517 57.1469 82.9313 56.8697C83.7629 56.4413 83.7881 55.6601 83.7377 54.9041C83.6873 54.2489 83.7125 53.5937 83.3597 52.9889C83.2589 52.8377 83.2589 52.6109 83.4353 52.4849C83.5109 52.4345 83.5865 52.4093 83.6621 52.4093C85.4513 53.5685 85.7033 55.1561 84.0653 57.1217Z" fill="#686768"/>
<path d="M116.322 125.162C116.297 125.64 116.045 125.842 115.592 125.691C115.012 125.514 114.458 125.464 113.853 125.464C113.147 125.439 112.492 125.288 111.786 125.187C111.56 125.162 111.408 124.96 111.358 124.708C111.182 123.952 110.93 123.196 110.703 122.465C110.552 121.936 110.753 121.709 111.308 121.659C112.038 121.583 112.668 121.936 113.349 122.037C114.155 122.138 114.936 122.44 115.768 122.49C116.07 122.516 116.222 122.692 116.222 122.994C116.272 123.398 116.322 124.859 116.322 125.162Z" fill="#686768"/>
<path d="M102.941 120.247C103.344 120.197 103.647 120.474 103.999 120.676C104.554 120.953 105.083 121.205 105.713 121.331C106.242 121.432 106.696 121.759 107.275 121.709C107.477 121.684 107.603 121.885 107.578 122.087C107.527 122.742 107.477 123.397 107.401 124.053C107.376 124.33 107.149 124.405 106.923 124.405C105.713 124.33 104.529 124.128 103.47 123.523C102.487 122.969 102.487 122.969 102.437 121.81C102.412 121.533 102.412 121.255 102.336 120.978C102.16 120.323 102.261 120.197 102.941 120.247Z" fill="#686768"/>
<path d="M99.4119 103.414C100.092 103.338 100.748 103.59 101.428 103.414C102.058 103.238 103.444 102.255 103.52 102.154C103.721 101.877 103.923 102.23 103.948 102.406C104.099 103.162 104.25 103.868 104.477 104.598C104.906 105.984 105.132 107.446 105.51 108.857C105.838 110.016 105.939 109.89 107.048 112.839C107.778 114.829 107.829 115.081 107.804 115.107C107.703 115.157 107.022 113.998 106.518 112.965C104.805 109.538 104.024 105.581 103.847 104.598C103.772 104.195 103.721 103.767 103.62 103.364C103.52 102.986 103.368 103.061 103.066 103.187C102.36 103.439 101.806 103.842 101.025 103.893C100.269 103.943 98.7063 103.439 98.7819 103.439C98.9583 103.389 99.1851 103.389 99.4119 103.414Z" fill="#BFCAD1"/>
<path d="M70.18 69.394C69.9532 69.3688 69.6004 69.4696 69.5752 69.1168C69.5752 68.8144 69.8776 68.6884 70.1548 68.7136C70.3816 68.7388 70.4824 68.6128 70.558 68.4112C70.7092 68.008 70.7596 67.6048 70.81 67.1764C70.8856 66.3701 70.8352 65.5133 71.1628 64.7573C71.7172 63.4721 72.1204 62.1365 72.952 60.9773C73.5316 60.1961 73.9348 59.3141 74.338 58.4321C74.3884 58.3061 74.4388 58.1801 74.59 58.2053C74.7664 58.2305 74.7664 58.3817 74.7664 58.5329C74.7412 59.1881 74.4892 59.7677 74.2372 60.3725C73.8088 61.3553 73.204 62.2373 72.7 63.1697C72.2464 64.0013 71.9944 64.8833 71.9188 65.8408C71.8684 66.4708 71.9944 67.126 71.8432 67.756C71.7424 68.2096 71.566 68.638 71.2132 68.9656C70.9108 69.268 70.5832 69.4192 70.18 69.394Z" fill="#686768"/>
<path d="M67.9876 70.9817C67.66 72.3929 67.8868 73.8545 67.6348 75.2657C67.534 75.8453 67.156 76.2989 66.7276 76.2737C66.0724 76.2737 65.5936 75.8453 65.518 75.1901C65.518 75.1145 65.4928 75.0641 65.4676 74.9885C65.4172 74.8373 65.4172 74.7113 65.5684 74.6105C65.7196 74.5349 65.8708 74.5349 65.9968 74.6609C66.148 74.8121 66.2992 74.9885 66.4756 75.1397C66.652 75.2909 66.8032 75.2909 66.8788 75.0389C66.9796 74.7113 67.0552 74.3585 67.0552 74.0057C67.0552 73.0481 67.0804 72.0905 67.3072 71.1329C67.3324 71.0321 67.3828 70.9313 67.408 70.8053C67.4836 70.6289 67.5844 70.4777 67.8112 70.5281C68.0632 70.6289 67.912 70.8557 67.9876 70.9817Z" fill="#686768"/>
<path d="M65.1907 80.8097C64.4599 80.6081 63.9559 80.1293 63.5527 79.5497C62.5951 78.1889 62.2927 76.6517 62.5447 75.0137C62.7463 73.7789 63.0235 72.5693 63.8803 71.5865C64.1575 71.2841 64.4347 71.0069 64.7875 70.7801C64.9135 70.7045 65.0899 70.6289 65.1655 70.7549C65.2663 70.9313 65.0395 70.9061 64.9387 70.9565C64.2331 71.4101 63.7291 72.0653 63.4267 72.8213C62.6455 74.7113 62.5699 76.6265 63.4267 78.5417C63.7543 79.2977 64.2583 79.9529 64.9387 80.4569C65.0395 80.5577 65.1907 80.6081 65.1907 80.8097Z" fill="#686768"/>
<path d="M80.6139 52.762C80.9667 52.7368 81.0675 52.9384 81.1935 53.0896C81.6975 53.77 81.5715 54.7276 80.9163 55.2568C80.6139 55.5088 80.2863 55.7104 79.9083 55.8364C78.1947 56.5168 76.9851 58.3816 77.1363 60.196C77.1867 60.7 77.2119 61.204 77.1615 61.708C76.9851 61.456 76.9851 61.1788 76.9347 60.9016C76.4307 58.7596 77.3631 56.9956 79.0011 55.8112C79.2783 55.6096 79.6311 55.5088 79.9587 55.3828C80.2863 55.2568 80.5383 55.0804 80.8155 54.8536C81.2943 54.4504 81.3447 53.7952 81.0171 53.266C80.8911 53.14 80.7651 52.9888 80.6139 52.762Z" fill="#686768"/>
<path d="M63.15 69.016C62.9736 68.9404 63.024 68.8396 63.0996 68.7388C63.3264 68.4112 63.5532 68.0836 63.8808 67.882C64.8888 67.2772 65.4432 66.37 65.8716 65.3368C66.1992 64.5304 66.6276 63.7744 67.308 63.1948C67.434 63.0688 67.5852 62.8672 67.7616 63.0688C67.9128 63.22 67.7112 63.4468 67.6104 63.5224C66.8544 64.0012 66.6024 64.7824 66.3 65.5384C65.9472 66.4708 65.4936 67.3276 64.662 67.9324C64.2336 68.2348 63.8052 68.512 63.4272 68.8648C63.3768 68.9404 63.276 68.9656 63.15 69.016Z" fill="#686768"/>
<path d="M69.4238 58.8351C69.701 58.4067 70.0286 58.2555 70.3058 58.0539C70.8854 57.6759 71.4902 57.3735 71.9942 56.8947C72.5234 56.3907 72.7754 55.7356 73.0778 55.1308C73.7078 53.896 74.6654 53.0644 75.9758 52.636C76.1018 52.5856 76.2782 52.4344 76.3538 52.6612C76.4294 52.8376 76.2278 52.888 76.1018 52.9132C74.5142 53.4676 73.6322 54.6772 72.977 56.1136C72.6242 56.8948 72.0698 57.4491 71.3642 57.8775C70.7846 58.2303 70.1798 58.5831 69.4238 58.8351Z" fill="#686768"/>
<path d="M74.2373 56.1136C74.9177 55.4584 75.2201 54.6016 75.5729 53.77C75.8753 53.0392 77.1605 52.4597 77.9669 52.5857C78.1181 52.6109 78.2693 52.6864 78.2693 52.8124C78.2693 52.9888 78.0677 52.9133 77.9669 52.9133C77.0597 52.9889 75.9761 53.3164 75.6737 54.5764C75.5225 55.2064 75.0437 55.6852 74.5649 56.1136C74.4641 56.164 74.3885 56.2144 74.2373 56.1136Z" fill="#686768"/>
<path d="M76.0014 83.002C74.7414 82.9768 73.557 82.5988 72.4986 81.9184C72.3978 81.8428 72.1962 81.7672 72.297 81.616C72.3978 81.4648 72.549 81.6412 72.6498 81.6916C73.7082 82.2712 74.8422 82.5988 76.0266 82.624C76.455 82.6492 76.9086 82.5736 77.0346 82.0192C77.0598 81.9184 77.1354 81.7924 77.2614 81.8176C77.3874 81.8428 77.337 81.994 77.337 82.0696C77.337 82.5232 76.959 82.876 76.4046 82.9516C76.2786 83.002 76.1526 83.002 76.0014 83.002Z" fill="#686768"/>
<path d="M73.0537 75.7192C73.0789 74.6356 73.3057 73.9804 73.7341 73.3756C73.8097 73.2496 73.8853 73.0984 74.0365 73.2496C74.1625 73.3504 74.0869 73.4512 74.0113 73.5772C73.3813 74.434 73.2301 75.3664 73.6837 76.3492C73.8601 76.7272 74.0113 77.08 74.1625 77.458C74.2129 77.5588 74.2129 77.7099 74.2381 77.8107C74.2381 77.8863 74.2633 77.962 74.1625 77.9872C74.0869 78.0124 74.0365 77.9368 74.0113 77.8864C73.5829 77.1052 73.0537 76.324 73.0537 75.7192Z" fill="#686768"/>
<path d="M70.1816 61.582C70.232 61.8592 70.106 62.086 70.0052 62.2876C69.7784 62.8672 69.4508 63.3712 68.9468 63.7744C68.468 64.1776 68.2412 64.732 67.9892 65.2612C67.9136 65.4124 67.9136 65.5636 67.964 65.7148C68.0144 65.8408 68.0144 65.9416 67.8884 65.992C67.7372 66.0172 67.7372 65.8912 67.6868 65.7904C67.6112 65.5636 67.6616 65.362 67.7372 65.1856C68.0144 64.48 68.3168 63.8248 68.972 63.346C69.4508 63.0184 69.6524 62.4388 69.9296 61.9348C69.98 61.8088 70.0052 61.6576 70.1816 61.582Z" fill="#686768"/>
<path d="M74.6152 69.7469C74.842 69.7217 74.9932 69.7973 75.1948 69.7721C76.0264 69.6209 76.102 68.9405 75.9004 68.0837C75.7996 67.6805 75.5224 67.3025 75.6484 66.8489C76.3288 67.4285 76.5808 68.8397 76.1524 69.5957C75.85 70.0745 74.9176 70.1753 74.6152 69.7469Z" fill="#40133E"/>
<path d="M82.3021 61.1284C82.1761 61.1284 82.2013 61.0528 82.2013 60.9772C82.2517 60.7504 82.3021 60.5236 82.4533 60.3472C82.8565 59.818 82.9825 59.188 82.9825 58.5328C82.9825 58.0288 83.0581 57.5248 83.2849 57.0712C83.3353 56.9704 83.3605 56.8444 83.5117 56.8948C83.6377 56.9452 83.5873 57.1216 83.5369 57.172C83.2345 57.6004 83.2597 58.0792 83.2849 58.558C83.2849 59.1376 83.2345 59.692 82.9321 60.196C82.7809 60.448 82.5793 60.7 82.4785 60.9772C82.4029 61.0276 82.3273 61.0528 82.3021 61.1284Z" fill="#491C47"/>
<path d="M120.781 137.888C120.63 137.535 120.378 137.207 120.126 136.88C119.395 135.922 118.564 134.964 117.808 134.032C117.48 133.629 117.127 133.251 116.724 132.898C115.691 131.94 114.96 130.806 114.255 129.597C113.877 128.967 113.524 128.387 113.07 127.808C112.843 127.505 112.541 127.253 112.138 127.278C112.113 127.278 112.062 127.304 112.012 127.329C111.533 127.556 111.357 128.387 111.331 128.564C111.029 130.076 111.079 130.706 111.079 130.706C111.256 132.873 111.054 135.065 111.155 137.232H111.709C111.709 133.175 112.188 132.243 112.642 132.167C113.221 132.041 114.078 133.301 117.43 137.232C117.43 137.232 118.362 138.114 119.899 138.795C120.176 138.921 120.479 139.022 120.706 138.77C120.933 138.518 120.932 138.24 120.781 137.888Z" fill="#686768"/>
<path d="M112.341 136.527C112.24 136.275 112.139 136.098 112.013 135.922C111.308 135.015 110.501 134.208 109.77 133.351C109.241 132.721 108.737 132.217 108.082 131.688C107.2 131.008 106.52 130.151 105.839 129.244C105.26 128.437 104.705 127.606 104.05 126.85C103.848 126.623 103.622 126.421 103.294 126.346C102.966 126.27 102.765 126.321 102.765 126.749C102.765 127.404 102.639 128.034 102.437 128.689C102.185 129.546 102.714 136.627 102.714 136.627H103.269C103.118 132.217 103.521 131.008 104 130.907C104.327 130.831 104.907 131.537 106.116 132.923C106.797 133.729 107.225 134.183 108.032 135.141C108.989 136.275 110.073 136.905 111.484 137.383C111.736 137.459 112.013 137.484 112.215 137.283C112.416 137.106 112.416 136.779 112.341 136.527Z" fill="#686768"/>
<path d="M81.4958 60.7252C81.899 60.7252 81.899 60.0952 81.4958 60.0952C81.0926 60.0952 81.0926 60.7252 81.4958 60.7252Z" fill="#E7EFF7"/>
</svg>
