<svg width="78" height="90" viewBox="0 0 78 90" fill="none" xmlns="http://www.w3.org/2000/svg">
<path d="M14.677 65.4911C14.677 69.3133 17.8043 72.4406 21.6265 72.4406H23.943V84.0231C23.943 87.221 26.5352 89.8144 29.7342 89.8144C32.9333 89.8144 35.5255 87.221 35.5255 84.0231V72.4406H42.475V84.0231C42.475 87.221 45.0671 89.8144 48.2662 89.8144C51.4653 89.8144 54.0575 87.221 54.0575 84.0231V72.4406H56.374C60.1962 72.4406 63.3235 69.3133 63.3235 65.4911V30.7437H14.677V65.4911Z" fill="#649937"/>
<path d="M71.4311 29.5854C68.2321 29.5854 65.6399 32.1788 65.6399 35.3767V58.5417C65.6399 61.7396 68.2321 64.3329 71.4311 64.3329C74.6302 64.3329 77.2224 61.7396 77.2224 58.5417V35.3767C77.2224 32.1788 74.6302 29.5854 71.4311 29.5854Z" fill="#649937"/>
<path d="M6.56908 29.5854C3.36999 29.5854 0.777832 32.1788 0.777832 35.3767V58.5417C0.777832 61.7396 3.36999 64.3329 6.56908 64.3329C9.76816 64.3329 12.3603 61.7396 12.3603 58.5417V35.3767C12.3603 32.1788 9.76816 29.5854 6.56908 29.5854Z" fill="#649937"/>
<path d="M52.1649 7.99335L55.291 2.27044C55.5979 1.70869 55.3906 1.00563 54.83 0.698696C54.2694 0.39176 53.5641 0.597929 53.2583 1.15968L50.16 6.83047C46.8149 5.09773 43.0275 4.10395 39.0002 4.10395C34.973 4.10395 31.1855 5.09773 27.8405 6.83047L24.7422 1.15968C24.4341 0.599087 23.731 0.389444 23.1704 0.698696C22.6099 1.00563 22.4025 1.70869 22.7095 2.27044L25.8356 7.99335C19.1282 12.324 14.677 19.8492 14.677 28.4272H63.3235C63.3235 19.8492 58.8723 12.324 52.1649 7.99335ZM28.576 20.3194C27.2973 20.3194 26.2595 19.2816 26.2595 18.0029C26.2595 16.7242 27.2973 15.6864 28.576 15.6864C29.8547 15.6864 30.8925 16.7242 30.8925 18.0029C30.8925 19.2816 29.8547 20.3194 28.576 20.3194ZM49.4245 20.3194C48.1458 20.3194 47.108 19.2816 47.108 18.0029C47.108 16.7242 48.1458 15.6864 49.4245 15.6864C50.7032 15.6864 51.741 16.7242 51.741 18.0029C51.741 19.2816 50.7032 20.3194 49.4245 20.3194Z" fill="#649937"/>
</svg>
