<svg width="73" height="94" viewBox="0 0 73 94" fill="none" xmlns="http://www.w3.org/2000/svg">
<path d="M50.172 14.2862C53.6923 10.4996 56.0734 5.24236 55.4217 0C50.3501 0.18185 44.2034 2.99117 40.563 6.77744C37.2997 10.1294 34.4427 15.4866 35.2052 20.6261C40.8644 21.0107 46.6458 18.0666 50.172 14.2862ZM60.9727 50.49C60.8646 38.7372 70.2338 33.0924 70.6487 32.8196C65.3814 24.8386 57.178 23.7465 54.2565 23.6234C47.2713 22.8866 40.6365 27.8736 37.0902 27.8736C33.5583 27.8736 28.0952 23.7201 22.3018 23.8316C14.6858 23.9577 7.66816 28.4137 3.75663 35.4758C-4.15501 49.683 1.72882 70.7288 9.43829 82.2527C13.207 87.8943 17.6943 94.2229 23.5868 93.994C29.2748 93.765 31.4191 90.1929 38.2817 90.1929C45.1472 90.1929 47.0694 93.994 53.0759 93.8795C59.1875 93.765 63.0554 88.1293 66.7921 82.4701C71.1156 75.9273 72.898 69.5929 73 69.2731C72.8688 69.1967 61.0982 64.5443 60.9727 50.49Z" fill="#121212"/>
</svg>
