<svg width="48" height="48" viewBox="0 0 48 48" fill="none" xmlns="http://www.w3.org/2000/svg">
<path d="M0 41.8109C0 45.2294 2.77097 48 6.18915 48H41.8109C45.2294 48 48 45.229 48 41.8109V6.18915C48 2.7706 45.229 0 41.8109 0H6.18915C2.7706 0 0 2.77097 0 6.18915V41.8109Z" fill="#563D7C"/>
<path d="M19.9044 21.2321V14.4346H25.8879C26.4577 14.4346 27.0072 14.4821 27.5364 14.5771C28.0655 14.6721 28.5336 14.8416 28.9407 15.0859C29.3477 15.3301 29.6733 15.6693 29.9175 16.1035C30.1618 16.5376 30.2839 17.0939 30.2839 17.7723C30.2839 18.9934 29.9175 19.8753 29.1849 20.4181C28.4522 20.9608 27.516 21.2321 26.3763 21.2321H19.9044ZM13.5139 9.46875V38.5312H27.5974C28.9 38.5312 30.1685 38.3684 31.4032 38.0428C32.6379 37.7172 33.7369 37.2152 34.7002 36.5368C35.6636 35.8584 36.4301 34.9832 37 33.9114C37.5699 32.8395 37.8548 31.5709 37.8548 30.1056C37.8548 28.2875 37.4138 26.7339 36.5319 25.445C35.65 24.156 34.3136 23.2538 32.5226 22.7382C33.8251 22.1141 34.8088 21.3136 35.4736 20.3367C36.1384 19.3598 36.4708 18.1387 36.4708 16.6733C36.4708 15.3165 36.247 14.1768 35.7992 13.2542C35.3515 12.3316 34.7206 11.5921 33.9065 11.0358C33.0924 10.4796 32.1156 10.0793 30.9758 9.83508C29.8361 9.59086 28.5743 9.46875 27.1904 9.46875H13.5139ZM19.9044 33.5654V25.5874H26.8648C28.2487 25.5874 29.3613 25.9063 30.2025 26.544C31.0437 27.1817 31.4643 28.2468 31.4643 29.7392C31.4643 30.499 31.3354 31.1232 31.0776 31.6116C30.8198 32.1001 30.4738 32.4867 30.0397 32.7717C29.6055 33.0566 29.1035 33.2601 28.5336 33.3822C27.9638 33.5043 27.3668 33.5654 26.7426 33.5654H19.9044Z" fill="white"/>
</svg>
