<svg width="188" height="164" viewBox="0 0 188 164" fill="none" xmlns="http://www.w3.org/2000/svg">
<path d="M183.115 152.767H168.452V152.937H183.115V152.767Z" fill="#ECECEC"/>
<path d="M130.432 153.96H126.51V154.131H130.432V153.96Z" fill="#ECECEC"/>
<path d="M167.941 148.675H159.416V148.845H167.941V148.675Z" fill="#ECECEC"/>
<path d="M25.5752 149.357H6.30884V149.527H25.5752V149.357Z" fill="#ECECEC"/>
<path d="M32.3943 149.357H29.4958V149.527H32.3943V149.357Z" fill="#ECECEC"/>
<path d="M83.0326 151.232H41.4309V151.403H83.0326V151.232Z" fill="#ECECEC"/>
<path d="M88.4888 125.828H2.55748C1.19349 125.828 0 124.635 0 123.271V2.55748C0 1.19349 1.19349 0 2.55748 0H88.4888C89.8528 0 91.0463 1.19349 91.0463 2.55748V123.271C91.0463 124.635 89.8528 125.828 88.4888 125.828ZM2.55748 0.170499C1.19349 0.170499 0.170499 1.19349 0.170499 2.55748V123.271C0.170499 124.635 1.19349 125.657 2.55748 125.657H88.4888C89.8528 125.657 90.8758 124.635 90.8758 123.271V2.55748C90.8758 1.19349 89.8528 0.170499 88.4888 0.170499H2.55748Z" fill="#CAE7FF"/>
<path d="M184.65 125.828H98.7186C97.3546 125.828 96.1611 124.635 96.1611 123.271V2.55748C96.1611 1.19349 97.3546 0 98.7186 0H184.65C186.014 0 187.207 1.19349 187.207 2.55748V123.271C187.207 124.635 186.014 125.828 184.65 125.828ZM98.7186 0.170499C97.3546 0.170499 96.3316 1.19349 96.3316 2.55748V123.271C96.3316 124.635 97.3546 125.657 98.7186 125.657H184.65C186.014 125.657 187.037 124.635 187.037 123.271V2.55748C187.037 1.19349 186.014 0.170499 184.65 0.170499H98.7186Z" fill="#CAE7FF"/>
<path d="M49.2739 83.5443H39.385V125.828H49.2739V83.5443Z" fill="#CAE7FF"/>
<path d="M65.8123 69.0519H55.9233V125.657H65.8123V69.0519Z" fill="#CAE7FF"/>
<path d="M82.521 83.5443H72.6321V125.828H82.521V83.5443Z" fill="#CAE7FF"/>
<path d="M16.0266 97.8661H6.1377V125.657H16.0266V97.8661Z" fill="#CAE7FF"/>
<path d="M32.7356 90.8757H22.8467V125.657H32.7356V90.8757Z" fill="#CAE7FF"/>
<path d="M99.0593 97.8661H89.1704V125.657H99.0593V97.8661Z" fill="#F5F5F5"/>
<path d="M182.092 54.73H172.203V125.828H182.092V54.73Z" fill="#CAE7FF"/>
<path d="M115.768 83.5443H105.879V125.828H115.768V83.5443Z" fill="#CAE7FF"/>
<path d="M165.554 69.0519H155.665V125.657H165.554V69.0519Z" fill="#CAE7FF"/>
<path d="M149.016 76.5538H139.127V125.828H149.016V76.5538Z" fill="#CAE7FF"/>
<path d="M132.307 90.8757H122.418V125.657H132.307V90.8757Z" fill="#CAE7FF"/>
<path d="M20.0329 71.7369C20.9201 67.9797 18.5935 64.2146 14.8362 63.3274C11.079 62.4402 7.31391 64.7669 6.42672 68.5241C5.53952 72.2814 7.86616 76.0464 11.6234 76.9336C15.3807 77.8208 19.1457 75.4942 20.0329 71.7369Z" fill="#E1E1E1"/>
<path d="M13.9807 77.0654C17.8414 77.0654 20.9711 73.9356 20.9711 70.0749C20.9711 66.2142 17.8414 63.0845 13.9807 63.0845C10.12 63.0845 6.99023 66.2142 6.99023 70.0749C6.99023 73.9356 10.12 77.0654 13.9807 77.0654Z" fill="#CAE7FF"/>
<path d="M13.9808 75.3604C16.8998 75.3604 19.2662 72.994 19.2662 70.0749C19.2662 67.1559 16.8998 64.7895 13.9808 64.7895C11.0617 64.7895 8.69531 67.1559 8.69531 70.0749C8.69531 72.994 11.0617 75.3604 13.9808 75.3604Z" fill="white"/>
<path d="M13.4693 69.393L13.6398 68.1995C13.1283 68.37 12.9578 68.5405 12.9578 68.8815C12.9578 69.052 13.1283 69.2225 13.4693 69.393ZM15.0037 71.4389C15.0037 71.2684 14.6628 71.0979 14.4923 70.9274V72.1209C14.8332 71.9504 15.0037 71.7799 15.0037 71.4389Z" fill="#CBCBFF"/>
<path d="M178.682 31.7127H142.537C140.661 31.7127 139.127 30.1782 139.127 28.3027V14.6628C139.127 12.7874 140.661 11.2529 142.537 11.2529H178.682C180.558 11.2529 182.092 12.7874 182.092 14.6628V28.3027C182.092 30.1782 180.558 31.7127 178.682 31.7127Z" fill="#CAE7FF"/>
<path d="M150.38 29.1552H147.311C147.14 29.1552 146.97 28.9847 146.97 28.8142V14.4924C146.97 14.3219 147.14 14.1514 147.311 14.1514H150.38C150.55 14.1514 150.721 14.3219 150.721 14.4924V28.9847C150.721 29.1552 150.55 29.1552 150.38 29.1552Z" fill="white"/>
<path d="M175.102 29.1552H172.033C171.863 29.1552 171.692 28.9847 171.692 28.8142V14.4924C171.692 14.3219 171.863 14.1514 172.033 14.1514H175.102C175.273 14.1514 175.443 14.3219 175.443 14.4924V28.9847C175.273 29.1552 175.273 29.1552 175.102 29.1552Z" fill="white"/>
<path d="M163.167 29.1552H160.098C159.928 29.1552 159.757 28.9847 159.757 28.8142V19.2663C159.757 19.0958 159.928 18.9253 160.098 18.9253H163.167C163.338 18.9253 163.508 19.0958 163.508 19.2663V28.8142C163.508 29.1552 163.338 29.1552 163.167 29.1552Z" fill="white"/>
<path d="M156.859 29.1552H153.79C153.619 29.1552 153.449 28.9847 153.449 28.8142V21.8238C153.449 21.6533 153.619 21.4828 153.79 21.4828H156.859C157.029 21.4828 157.2 21.6533 157.2 21.8238V28.8142C157.029 29.1552 157.029 29.1552 156.859 29.1552Z" fill="white"/>
<path d="M169.135 29.1553H166.066C165.895 29.1553 165.725 28.9848 165.725 28.8143V27.6208C165.725 27.4503 165.895 27.2798 166.066 27.2798H169.135C169.305 27.2798 169.476 27.4503 169.476 27.6208V28.8143C169.305 29.1553 169.305 29.1553 169.135 29.1553Z" fill="white"/>
<path d="M173.567 13.9808C173.397 13.9808 173.226 13.9808 173.056 14.1513L167.771 25.7452C167.6 25.9157 167.259 26.0862 167.259 25.7452L162.315 18.2433C162.144 18.0728 161.974 18.0728 161.803 18.0728L155.665 20.6303C155.495 20.6303 155.495 20.6303 155.324 20.6303L148.504 13.8103C148.334 13.6398 148.163 13.8103 147.993 13.9808C147.993 14.1513 147.993 14.3218 148.163 14.3218L155.324 21.3122C155.495 21.3122 155.495 21.3122 155.665 21.3122L161.633 18.9253C161.803 18.7548 161.974 18.9253 162.144 19.0958L167.43 27.1092C167.6 27.2797 167.941 27.2797 167.941 27.1092L173.738 14.3218C173.738 14.3218 173.738 14.1513 173.567 13.9808Z" fill="#E1E1E1"/>
<path d="M81.3278 31.2012C85.3768 31.2012 88.6592 27.9188 88.6592 23.8697C88.6592 19.8207 85.3768 16.5383 81.3278 16.5383C77.2787 16.5383 73.9963 19.8207 73.9963 23.8697C73.9963 27.9188 77.2787 31.2012 81.3278 31.2012Z" fill="#CAE7FF"/>
<path opacity="0.8" d="M81.3277 29.6667C84.5293 29.6667 87.1247 27.0713 87.1247 23.8698C87.1247 20.6682 84.5293 18.0728 81.3277 18.0728C78.1261 18.0728 75.5308 20.6682 75.5308 23.8698C75.5308 27.0713 78.1261 29.6667 81.3277 29.6667Z" fill="white"/>
<path d="M81.3279 24.8927C81.6104 24.8927 81.8394 24.6637 81.8394 24.3812C81.8394 24.0987 81.6104 23.8697 81.3279 23.8697C81.0454 23.8697 80.8164 24.0987 80.8164 24.3812C80.8164 24.6637 81.0454 24.8927 81.3279 24.8927Z" fill="#E1E1E1"/>
<path d="M81.1575 24.7223L78.7705 22.3353L78.941 21.9943L81.1575 24.2108L85.2495 20.6303L85.5905 20.8008L81.1575 24.7223Z" fill="#E1E1E1"/>
<path opacity="0.4" d="M87.9774 150.039C135.624 150.039 174.25 147.749 174.25 144.924C174.25 142.099 135.624 139.809 87.9774 139.809C40.3305 139.809 1.70508 142.099 1.70508 144.924C1.70508 147.749 40.3305 150.039 87.9774 150.039Z" fill="#E5E5FF"/>
<path d="M108.949 83.5443H79.623V160.78H108.949V83.5443Z" fill="#407BFF"/>
<path opacity="0.5" d="M108.949 83.5443H87.1248V160.78H108.949V83.5443Z" fill="black"/>
<path d="M147.311 109.801H117.985V160.78H147.311V109.801Z" fill="#407BFF"/>
<path opacity="0.3" d="M147.311 109.801H125.487V160.78H147.311V109.801Z" fill="black"/>
<path d="M70.4159 97.3547H41.0901V160.78H70.4159V97.3547Z" fill="#407BFF"/>
<path opacity="0.4" d="M70.4156 97.1843H48.5918V160.78H70.4156V97.1843Z" fill="black"/>
<path d="M52.5142 160.951C52.5142 161.974 55.4126 162.826 59.1636 162.997C62.9146 163.167 65.9836 162.485 65.9836 161.633C65.9836 160.61 63.0851 159.757 59.3341 159.587C55.5831 159.246 52.5142 159.928 52.5142 160.951Z" fill="#407BFF"/>
<path d="M52.6563 159.124L52.584 160.827L66.0413 161.399L66.1136 159.695L52.6563 159.124Z" fill="#407BFF"/>
<path d="M52.5142 159.075C52.5142 160.098 55.4126 160.951 59.1636 161.121C62.9146 161.292 65.9836 160.61 65.9836 159.757C65.9836 158.734 63.0851 157.882 59.3341 157.711C55.7536 157.541 52.6847 158.223 52.5142 159.075Z" fill="#407BFF"/>
<path opacity="0.4" d="M52.5142 159.075C52.5142 160.098 55.4126 160.951 59.1636 161.121C62.9146 161.292 65.9836 160.61 65.9836 159.757C65.9836 158.734 63.0851 157.882 59.3341 157.711C55.7536 157.541 52.6847 158.223 52.5142 159.075Z" fill="white"/>
<path d="M53.3667 159.075C53.3667 159.246 53.5372 159.246 53.3667 159.075C53.8782 158.734 56.2652 158.393 59.3342 158.564C62.2326 158.734 64.7901 159.246 65.1311 159.757V159.587C65.1311 158.905 62.5736 158.223 59.3342 158.223C56.0947 158.052 53.5372 158.564 53.3667 159.075Z" fill="#407BFF"/>
<path opacity="0.4" d="M53.3667 159.075C53.3667 159.246 53.5372 159.246 53.3667 159.075C53.8782 158.734 56.2652 158.393 59.3342 158.564C62.2326 158.734 64.7901 159.246 65.1311 159.757V159.587C65.1311 158.905 62.5736 158.223 59.3342 158.223C56.0947 158.052 53.5372 158.564 53.3667 159.075Z" fill="#407BFF"/>
<path opacity="0.4" d="M53.5374 159.246C53.8784 159.757 56.4358 160.439 59.3343 160.439C62.2328 160.61 64.7903 160.269 65.1313 159.757C64.7903 159.246 62.2328 158.564 59.3343 158.564C56.4358 158.393 53.8784 158.734 53.5374 159.246Z" fill="#407BFF"/>
<path d="M51.1499 158.223C51.1499 159.246 54.0484 160.098 57.7994 160.269C61.5503 160.439 64.6193 159.757 64.6193 158.905C64.6193 157.882 61.7208 157.029 57.9698 156.859C54.2189 156.688 51.1499 157.37 51.1499 158.223Z" fill="#407BFF"/>
<path d="M51.0952 156.64L51.0229 158.343L64.4802 158.914L64.5525 157.211L51.0952 156.64Z" fill="#407BFF"/>
<path d="M51.1499 156.518C51.1499 157.541 54.0484 158.393 57.7994 158.564C61.5503 158.734 64.6193 158.052 64.6193 157.2C64.6193 156.177 61.7208 155.324 57.9698 155.154C54.2189 154.983 51.1499 155.665 51.1499 156.518Z" fill="#407BFF"/>
<path opacity="0.4" d="M51.1499 156.518C51.1499 157.541 54.0484 158.393 57.7994 158.564C61.5503 158.734 64.6193 158.052 64.6193 157.2C64.6193 156.177 61.7208 155.324 57.9698 155.154C54.2189 154.983 51.1499 155.665 51.1499 156.518Z" fill="white"/>
<path d="M52.0024 156.518C52.0024 156.518 52.0024 156.688 52.0024 156.518C52.5139 156.177 54.9009 155.836 57.9699 156.006C60.8684 156.177 63.4259 156.688 63.7669 157.2V157.029C63.7669 156.347 61.2094 155.665 57.9699 155.665C54.7304 155.495 52.0024 155.836 52.0024 156.518Z" fill="#407BFF"/>
<path opacity="0.4" d="M52.0024 156.518C52.0024 156.518 52.0024 156.688 52.0024 156.518C52.5139 156.177 54.9009 155.836 57.9699 156.006C60.8684 156.177 63.4259 156.688 63.7669 157.2V157.029C63.7669 156.347 61.2094 155.665 57.9699 155.665C54.7304 155.495 52.0024 155.836 52.0024 156.518Z" fill="#407BFF"/>
<path opacity="0.4" d="M52.0024 156.688C52.3434 157.2 54.9009 157.882 57.7994 157.882C60.6979 158.052 63.2554 157.711 63.5963 157.2C63.2554 156.688 60.6979 156.006 57.7994 156.006C55.0714 155.836 52.5139 156.177 52.0024 156.688Z" fill="#407BFF"/>
<path d="M51.3206 155.154C51.3206 156.177 54.219 157.029 57.97 157.2C61.721 157.37 64.7899 156.688 64.7899 155.836C64.7899 154.813 61.8915 153.96 58.1405 153.79C54.3895 153.619 51.3206 154.131 51.3206 155.154Z" fill="#407BFF"/>
<path d="M51.3326 153.533L51.2603 155.236L64.7175 155.807L64.7898 154.104L51.3326 153.533Z" fill="#407BFF"/>
<path d="M51.3206 153.449C51.3206 154.472 54.219 155.324 57.97 155.495C61.721 155.665 64.7899 154.983 64.7899 154.131C64.7899 153.108 61.8915 152.255 58.1405 152.085C54.3895 151.914 51.3206 152.426 51.3206 153.449Z" fill="#407BFF"/>
<path opacity="0.4" d="M51.3206 153.449C51.3206 154.472 54.219 155.324 57.97 155.495C61.721 155.665 64.7899 154.983 64.7899 154.131C64.7899 153.108 61.8915 152.255 58.1405 152.085C54.3895 151.914 51.3206 152.426 51.3206 153.449Z" fill="white"/>
<path d="M52.1731 153.449C52.1731 153.449 52.1731 153.619 52.1731 153.449C52.6846 153.108 55.0716 152.767 58.1405 152.937C61.039 153.108 63.5965 153.619 63.9375 154.131V153.96C63.9375 153.278 61.38 152.596 58.1405 152.596C54.9011 152.426 52.1731 152.767 52.1731 153.449Z" fill="#407BFF"/>
<path opacity="0.4" d="M52.1731 153.449C52.1731 153.449 52.1731 153.619 52.1731 153.449C52.6846 153.108 55.0716 152.767 58.1405 152.937C61.039 153.108 63.5965 153.619 63.9375 154.131V153.96C63.9375 153.278 61.38 152.596 58.1405 152.596C54.9011 152.426 52.1731 152.767 52.1731 153.449Z" fill="#407BFF"/>
<path opacity="0.4" d="M52.1731 153.619C52.5141 154.131 55.0716 154.813 57.97 154.813C60.8685 154.983 63.426 154.642 63.767 154.131C63.426 153.619 60.8685 152.937 57.97 152.937C55.2421 152.767 52.6846 153.108 52.1731 153.619Z" fill="#407BFF"/>
<path d="M49.7859 152.596C49.7859 153.619 52.6844 154.472 56.4353 154.642C60.1863 154.813 63.2553 154.131 63.2553 153.278C63.2553 152.255 60.3568 151.403 56.6058 151.232C52.8549 151.062 49.9564 151.573 49.7859 152.596Z" fill="#407BFF"/>
<path d="M49.9498 150.885L49.8774 152.588L63.3347 153.16L63.4071 151.457L49.9498 150.885Z" fill="#407BFF"/>
<path d="M49.9565 150.891C49.9565 151.914 52.855 152.767 56.606 152.937C60.357 153.108 63.4259 152.426 63.4259 151.573C63.4259 150.55 60.5275 149.698 56.7765 149.527C53.0255 149.186 49.9565 149.868 49.9565 150.891Z" fill="#407BFF"/>
<path opacity="0.4" d="M49.9565 150.891C49.9565 151.914 52.855 152.767 56.606 152.937C60.357 153.108 63.4259 152.426 63.4259 151.573C63.4259 150.55 60.5275 149.698 56.7765 149.527C53.0255 149.186 49.9565 149.868 49.9565 150.891Z" fill="white"/>
<path d="M50.8091 150.891C51.3206 150.55 53.7076 150.209 56.7765 150.38C59.675 150.55 62.2325 151.062 62.5735 151.573V151.403C62.5735 150.721 60.016 150.039 56.7765 150.039C53.5371 149.698 50.8091 150.209 50.8091 150.891Z" fill="#407BFF"/>
<path opacity="0.4" d="M50.8091 150.891C51.3206 150.55 53.7076 150.209 56.7765 150.38C59.675 150.55 62.2325 151.062 62.5735 151.573V151.403C62.5735 150.721 60.016 150.039 56.7765 150.039C53.5371 149.698 50.8091 150.209 50.8091 150.891Z" fill="#407BFF"/>
<path opacity="0.4" d="M50.8091 151.062C51.1501 151.573 53.7076 152.255 56.606 152.255C59.5045 152.426 62.062 152.085 62.403 151.573C62.062 151.062 59.5045 150.38 56.606 150.38C53.7076 150.039 51.3206 150.38 50.8091 151.062Z" fill="#407BFF"/>
<path d="M52.0024 150.38C52.0024 151.403 54.9009 152.255 58.6519 152.426C62.4029 152.596 65.4718 151.914 65.4718 151.062C65.4718 150.039 62.5734 149.186 58.8224 149.016C55.0714 148.845 52.0024 149.357 52.0024 150.38Z" fill="#407BFF"/>
<path d="M52.1009 148.639L52.0286 150.343L65.4858 150.914L65.5581 149.211L52.1009 148.639Z" fill="#407BFF"/>
<path d="M52.0024 148.675C52.0024 149.698 54.9009 150.55 58.6519 150.721C62.4029 150.891 65.4718 150.209 65.4718 149.357C65.4718 148.334 62.5734 147.481 58.8224 147.311C55.2419 147.14 52.1729 147.652 52.0024 148.675Z" fill="#407BFF"/>
<path opacity="0.4" d="M52.0024 148.675C52.0024 149.698 54.9009 150.55 58.6519 150.721C62.4029 150.891 65.4718 150.209 65.4718 149.357C65.4718 148.334 62.5734 147.481 58.8224 147.311C55.2419 147.14 52.1729 147.652 52.0024 148.675Z" fill="white"/>
<path d="M53.0256 148.675C53.5371 148.334 55.9241 147.993 58.9931 148.163C61.8916 148.334 64.449 148.845 64.79 149.357V149.186C64.79 148.504 62.2326 147.822 58.9931 147.822C55.5831 147.481 53.0256 147.993 53.0256 148.675Z" fill="#407BFF"/>
<path opacity="0.4" d="M53.0256 148.675C53.5371 148.334 55.9241 147.993 58.9931 148.163C61.8916 148.334 64.449 148.845 64.79 149.357V149.186C64.79 148.504 62.2326 147.822 58.9931 147.822C55.5831 147.481 53.0256 147.993 53.0256 148.675Z" fill="#407BFF"/>
<path opacity="0.4" d="M53.0256 148.845C53.3666 149.357 55.9241 150.039 58.8226 150.039C61.7211 150.209 64.2785 149.868 64.6195 149.357C64.2785 148.845 61.7211 148.163 58.8226 148.163C55.9241 147.993 53.5371 148.163 53.0256 148.845Z" fill="#407BFF"/>
<path d="M50.6384 147.822C50.6384 148.845 53.5369 149.698 57.2879 149.868C61.0388 150.039 64.1078 149.357 64.1078 148.504C64.1078 147.481 61.2093 146.629 57.4584 146.458C53.7074 146.117 50.6384 146.799 50.6384 147.822Z" fill="#407BFF"/>
<path d="M50.7183 145.992L50.646 147.695L64.1033 148.267L64.1756 146.564L50.7183 145.992Z" fill="#407BFF"/>
<path d="M50.6387 146.117C50.6387 147.14 53.5371 147.993 57.2881 148.163C61.0391 148.334 64.1081 147.652 64.1081 146.799C64.1081 145.776 61.2096 144.924 57.4586 144.753C53.7076 144.412 50.6387 145.094 50.6387 146.117Z" fill="#407BFF"/>
<path opacity="0.4" d="M50.6387 146.117C50.6387 147.14 53.5371 147.993 57.2881 148.163C61.0391 148.334 64.1081 147.652 64.1081 146.799C64.1081 145.776 61.2096 144.924 57.4586 144.753C53.7076 144.412 50.6387 145.094 50.6387 146.117Z" fill="white"/>
<path d="M51.491 145.947C51.491 146.117 51.491 146.117 51.491 145.947C52.0025 145.606 54.3894 145.265 57.4584 145.435C60.3569 145.606 62.9144 146.117 63.2554 146.629V146.458C63.2554 145.776 60.6979 145.094 57.4584 145.094C54.2189 144.924 51.491 145.435 51.491 145.947Z" fill="#407BFF"/>
<path opacity="0.4" d="M51.491 145.947C51.491 146.117 51.491 146.117 51.491 145.947C52.0025 145.606 54.3894 145.265 57.4584 145.435C60.3569 145.606 62.9144 146.117 63.2554 146.629V146.458C63.2554 145.776 60.6979 145.094 57.4584 145.094C54.2189 144.924 51.491 145.435 51.491 145.947Z" fill="#407BFF"/>
<path opacity="0.4" d="M51.6616 146.117C52.0026 146.629 54.5601 147.311 57.4586 147.311C60.3571 147.481 62.9145 147.14 63.2555 146.629C62.9145 146.117 60.3571 145.435 57.4586 145.435C54.5601 145.265 52.0026 145.606 51.6616 146.117Z" fill="#407BFF"/>
<path d="M32.3953 160.098C32.3953 161.121 35.2937 161.974 39.0447 162.144C42.7957 162.315 45.8647 161.633 45.8647 160.78C45.8647 159.757 42.9662 158.905 39.2152 158.734C35.4642 158.393 32.3953 159.075 32.3953 160.098Z" fill="#407BFF"/>
<path d="M32.4664 158.422L32.394 160.126L45.8513 160.697L45.9237 158.994L32.4664 158.422Z" fill="#407BFF"/>
<path d="M32.3953 158.393C32.3953 159.416 35.2937 160.269 39.0447 160.439C42.7957 160.61 45.8647 159.928 45.8647 159.075C45.8647 158.052 42.9662 157.2 39.2152 157.029C35.4642 156.688 32.3953 157.37 32.3953 158.393Z" fill="#407BFF"/>
<path opacity="0.4" d="M32.3953 158.393C32.3953 159.416 35.2937 160.269 39.0447 160.439C42.7957 160.61 45.8647 159.928 45.8647 159.075C45.8647 158.052 42.9662 157.2 39.2152 157.029C35.4642 156.688 32.3953 157.37 32.3953 158.393Z" fill="white"/>
<path d="M33.2478 158.223C33.2478 158.393 33.2478 158.393 33.2478 158.223C33.7593 157.882 36.1463 157.541 39.2153 157.711C42.1137 157.882 44.6712 158.393 45.0122 158.905V158.734C45.0122 158.052 42.4547 157.37 39.2153 157.37C35.9758 157.2 33.2478 157.711 33.2478 158.223Z" fill="#407BFF"/>
<path opacity="0.4" d="M33.2478 158.223C33.2478 158.393 33.2478 158.393 33.2478 158.223C33.7593 157.882 36.1463 157.541 39.2153 157.711C42.1137 157.882 44.6712 158.393 45.0122 158.905V158.734C45.0122 158.052 42.4547 157.37 39.2153 157.37C35.9758 157.2 33.2478 157.711 33.2478 158.223Z" fill="#407BFF"/>
<path opacity="0.4" d="M33.2478 158.393C33.5888 158.905 36.1463 159.587 39.0448 159.587C41.9432 159.757 44.5007 159.416 44.8417 158.905C44.5007 158.393 41.9432 157.711 39.0448 157.711C36.3168 157.541 33.7593 157.882 33.2478 158.393Z" fill="#407BFF"/>
<path d="M38.1926 158.393C38.0221 159.246 40.7501 160.78 44.3306 161.633C47.9111 162.485 51.1505 162.485 51.321 161.462C51.4915 160.61 48.7635 159.075 45.1831 158.223C41.6026 157.37 38.3631 157.37 38.1926 158.393Z" fill="#407BFF"/>
<path d="M38.5435 156.679L38.1489 158.338L51.2533 161.455L51.6478 159.796L38.5435 156.679Z" fill="#407BFF"/>
<path d="M38.5335 156.688C38.363 157.541 41.0909 159.075 44.6714 159.928C48.2519 160.78 51.4913 160.78 51.6618 159.757C51.8323 158.905 49.1044 157.37 45.5239 156.518C41.9434 155.665 38.8745 155.836 38.5335 156.688Z" fill="#407BFF"/>
<path opacity="0.4" d="M38.5335 156.688C38.363 157.541 41.0909 159.075 44.6714 159.928C48.2519 160.78 51.4913 160.78 51.6618 159.757C51.8323 158.905 49.1044 157.37 45.5239 156.518C41.9434 155.665 38.8745 155.836 38.5335 156.688Z" fill="white"/>
<path d="M39.386 156.859V157.029C39.8975 156.518 42.455 156.688 45.3534 157.37C48.2519 158.052 50.4684 159.075 50.8094 159.757L50.9799 159.587C51.1504 158.905 48.7634 157.882 45.5239 157.029C42.2845 156.347 39.5565 156.177 39.386 156.859Z" fill="#407BFF"/>
<path opacity="0.4" d="M39.386 156.859V157.029C39.8975 156.518 42.455 156.688 45.3534 157.37C48.2519 158.052 50.4684 159.075 50.8094 159.757L50.9799 159.587C51.1504 158.905 48.7634 157.882 45.5239 157.029C42.2845 156.347 39.5565 156.177 39.386 156.859Z" fill="#407BFF"/>
<path opacity="0.4" d="M39.5566 157.029C39.8976 157.711 42.1141 158.734 45.0126 159.416C47.9111 160.098 50.4686 160.269 50.98 159.757C50.639 159.075 48.4226 158.052 45.5241 157.37C42.4551 156.688 40.0681 156.518 39.5566 157.029Z" fill="#407BFF"/>
<path d="M55.4124 147.311C58.8023 147.311 61.5503 144.563 61.5503 141.173C61.5503 137.783 58.8023 135.035 55.4124 135.035C52.0225 135.035 49.2744 137.783 49.2744 141.173C49.2744 144.563 52.0225 147.311 55.4124 147.311Z" fill="#407BFF"/>
<path d="M56.0943 147.311C59.4842 147.311 62.2322 144.563 62.2322 141.173C62.2322 137.783 59.4842 135.035 56.0943 135.035C52.7044 135.035 49.9563 137.783 49.9563 141.173C49.9563 144.563 52.7044 147.311 56.0943 147.311Z" fill="#407BFF"/>
<path opacity="0.5" d="M56.0943 147.311C59.4842 147.311 62.2322 144.563 62.2322 141.173C62.2322 137.783 59.4842 135.035 56.0943 135.035C52.7044 135.035 49.9563 137.783 49.9563 141.173C49.9563 144.563 52.7044 147.311 56.0943 147.311Z" fill="white"/>
<path d="M56.0944 145.776C58.6369 145.776 60.6979 143.715 60.6979 141.173C60.6979 138.631 58.6369 136.569 56.0944 136.569C53.552 136.569 51.491 138.631 51.491 141.173C51.491 143.715 53.552 145.776 56.0944 145.776Z" fill="#407BFF"/>
<path d="M141.514 161.633C141.514 162.656 138.445 163.167 134.694 163.167C130.943 162.997 128.045 162.144 128.045 161.292C128.045 160.269 131.114 159.757 134.865 159.757C138.445 159.928 141.514 160.78 141.514 161.633Z" fill="#407BFF"/>
<path d="M127.974 159.555L127.913 161.259L141.374 161.742L141.435 160.038L127.974 159.555Z" fill="#407BFF"/>
<path d="M141.514 159.928C141.514 160.951 138.445 161.462 134.694 161.462C130.943 161.292 128.045 160.439 128.045 159.587C128.045 158.564 131.114 158.052 134.865 158.052C138.616 158.223 141.514 159.075 141.514 159.928Z" fill="#407BFF"/>
<path opacity="0.4" d="M141.514 159.928C141.514 160.951 138.445 161.462 134.694 161.462C130.943 161.292 128.045 160.439 128.045 159.587C128.045 158.564 131.114 158.052 134.865 158.052C138.616 158.223 141.514 159.075 141.514 159.928Z" fill="white"/>
<path d="M140.662 159.928C140.662 159.928 140.662 160.098 140.662 159.928C140.15 159.587 137.763 158.905 134.865 158.905C131.966 158.734 129.409 159.075 129.068 159.757V159.587C129.068 158.905 131.796 158.564 135.035 158.564C138.104 158.564 140.662 159.246 140.662 159.928Z" fill="#407BFF"/>
<path opacity="0.4" d="M140.662 159.928C140.662 159.928 140.662 160.098 140.662 159.928C140.15 159.587 137.763 158.905 134.865 158.905C131.966 158.734 129.409 159.075 129.068 159.757V159.587C129.068 158.905 131.796 158.564 135.035 158.564C138.104 158.564 140.662 159.246 140.662 159.928Z" fill="#407BFF"/>
<path opacity="0.4" d="M140.662 160.098C140.15 160.61 137.763 160.951 134.865 160.951C131.966 160.78 129.409 160.269 129.068 159.757C129.579 159.246 131.966 158.905 134.865 158.905C137.763 158.905 140.15 159.416 140.662 160.098Z" fill="#407BFF"/>
<path d="M143.049 159.246C143.049 160.269 139.98 160.78 136.229 160.78C132.478 160.61 129.579 159.757 129.579 158.905C129.579 157.882 132.648 157.37 136.399 157.37C140.15 157.37 143.049 158.223 143.049 159.246Z" fill="#407BFF"/>
<path d="M129.682 156.998L129.621 158.702L143.082 159.185L143.143 157.481L129.682 156.998Z" fill="#407BFF"/>
<path d="M143.219 157.541C143.219 158.564 140.15 159.075 136.399 159.075C132.648 158.905 129.75 158.052 129.75 157.2C129.75 156.177 132.819 155.665 136.57 155.665C140.15 155.665 143.219 156.518 143.219 157.541Z" fill="#407BFF"/>
<path opacity="0.4" d="M143.219 157.541C143.219 158.564 140.15 159.075 136.399 159.075C132.648 158.905 129.75 158.052 129.75 157.2C129.75 156.177 132.819 155.665 136.57 155.665C140.15 155.665 143.219 156.518 143.219 157.541Z" fill="white"/>
<path d="M142.367 157.37C142.196 157.541 142.367 157.541 142.367 157.37C141.855 156.859 139.468 156.347 136.57 156.347C133.671 156.177 131.114 156.518 130.773 157.2V157.029C130.773 156.347 133.501 156.006 136.74 156.006C139.639 156.177 142.367 156.859 142.367 157.37Z" fill="#407BFF"/>
<path opacity="0.4" d="M142.367 157.37C142.196 157.541 142.367 157.541 142.367 157.37C141.855 156.859 139.468 156.347 136.57 156.347C133.671 156.177 131.114 156.518 130.773 157.2V157.029C130.773 156.347 133.501 156.006 136.74 156.006C139.639 156.177 142.367 156.859 142.367 157.37Z" fill="#407BFF"/>
<path opacity="0.4" d="M142.196 157.541C141.685 158.052 139.298 158.393 136.399 158.393C133.501 158.223 130.944 157.711 130.603 157.2C131.114 156.688 133.501 156.347 136.399 156.347C139.468 156.518 141.855 157.029 142.196 157.541Z" fill="#407BFF"/>
<path d="M143.219 156.177C143.219 157.2 140.15 157.711 136.399 157.711C132.648 157.541 129.75 156.688 129.75 155.836C129.75 154.813 132.819 154.301 136.57 154.301C140.15 154.301 143.219 155.154 143.219 156.177Z" fill="#407BFF"/>
<path d="M129.629 153.927L129.568 155.631L143.029 156.114L143.091 154.41L129.629 153.927Z" fill="#407BFF"/>
<path d="M143.219 154.472C143.219 155.495 140.15 156.006 136.399 156.006C132.648 155.836 129.75 154.983 129.75 154.131C129.75 153.108 132.819 152.596 136.57 152.596C140.321 152.596 143.219 153.449 143.219 154.472Z" fill="#407BFF"/>
<path opacity="0.4" d="M143.219 154.472C143.219 155.495 140.15 156.006 136.399 156.006C132.648 155.836 129.75 154.983 129.75 154.131C129.75 153.108 132.819 152.596 136.57 152.596C140.321 152.596 143.219 153.449 143.219 154.472Z" fill="white"/>
<path d="M142.367 154.301C142.367 154.301 142.367 154.472 142.367 154.301C141.855 153.96 139.468 153.278 136.57 153.278C133.671 153.108 131.114 153.449 130.773 154.131V153.96C130.773 153.278 133.501 152.937 136.74 152.937C139.809 153.108 142.367 153.619 142.367 154.301Z" fill="#407BFF"/>
<path opacity="0.4" d="M142.367 154.301C142.367 154.301 142.367 154.472 142.367 154.301C141.855 153.96 139.468 153.278 136.57 153.278C133.671 153.108 131.114 153.449 130.773 154.131V153.96C130.773 153.278 133.501 152.937 136.74 152.937C139.809 153.108 142.367 153.619 142.367 154.301Z" fill="#407BFF"/>
<path opacity="0.4" d="M142.367 154.472C141.855 154.983 139.468 155.324 136.57 155.324C133.671 155.154 131.114 154.642 130.773 154.131C131.284 153.619 133.671 153.278 136.57 153.278C139.468 153.278 141.855 153.79 142.367 154.472Z" fill="#407BFF"/>
<path d="M144.753 153.619C144.753 154.642 141.684 155.154 137.933 155.154C134.182 154.983 131.284 154.131 131.284 153.278C131.284 152.255 134.353 151.744 138.104 151.744C141.855 151.744 144.753 152.767 144.753 153.619Z" fill="#407BFF"/>
<path d="M131.337 151.371L131.276 153.075L144.737 153.558L144.798 151.854L131.337 151.371Z" fill="#407BFF"/>
<path d="M144.753 151.914C144.753 152.937 141.684 153.449 137.933 153.449C134.182 153.278 131.284 152.426 131.284 151.573C131.284 150.55 134.353 150.039 138.104 150.039C141.855 150.039 144.924 150.891 144.753 151.914Z" fill="#407BFF"/>
<path opacity="0.4" d="M144.753 151.914C144.753 152.937 141.684 153.449 137.933 153.449C134.182 153.278 131.284 152.426 131.284 151.573C131.284 150.55 134.353 150.039 138.104 150.039C141.855 150.039 144.924 150.891 144.753 151.914Z" fill="white"/>
<path d="M143.901 151.744C143.901 151.914 143.901 151.914 143.901 151.744C143.39 151.403 141.003 150.721 138.104 150.721C135.206 150.55 132.648 150.891 132.307 151.573V151.403C132.307 150.721 135.035 150.38 138.275 150.38C141.344 150.55 144.072 151.232 143.901 151.744Z" fill="#407BFF"/>
<path opacity="0.4" d="M143.901 151.744C143.901 151.914 143.901 151.914 143.901 151.744C143.39 151.403 141.003 150.721 138.104 150.721C135.206 150.55 132.648 150.891 132.307 151.573V151.403C132.307 150.721 135.035 150.38 138.275 150.38C141.344 150.55 144.072 151.232 143.901 151.744Z" fill="#407BFF"/>
<path opacity="0.4" d="M143.901 151.914C143.39 152.426 141.003 152.767 138.104 152.767C135.206 152.596 132.648 152.085 132.307 151.573C132.819 151.062 135.206 150.721 138.104 150.721C141.003 150.891 143.56 151.403 143.901 151.914Z" fill="#407BFF"/>
<path d="M91.0466 159.757C91.0466 160.78 93.9451 161.633 97.6961 161.803C101.447 161.974 104.516 161.292 104.516 160.439C104.516 159.416 101.618 158.564 97.8666 158.393C94.1156 158.223 91.0466 158.905 91.0466 159.757Z" fill="#407BFF"/>
<path d="M91.1097 158.098L91.0374 159.801L104.495 160.373L104.567 158.669L91.1097 158.098Z" fill="#407BFF"/>
<path d="M91.2173 158.052C91.2173 159.075 94.1158 159.928 97.8667 160.098C101.618 160.269 104.687 159.587 104.687 158.734C104.687 157.711 101.788 156.859 98.0372 156.688C94.2863 156.518 91.2173 157.2 91.2173 158.052Z" fill="#407BFF"/>
<path opacity="0.4" d="M91.2173 158.052C91.2173 159.075 94.1158 159.928 97.8667 160.098C101.618 160.269 104.687 159.587 104.687 158.734C104.687 157.711 101.788 156.859 98.0372 156.688C94.2863 156.518 91.2173 157.2 91.2173 158.052Z" fill="white"/>
<path d="M92.0698 158.052C92.0698 158.052 92.0698 158.223 92.0698 158.052C92.5813 157.711 94.9683 157.37 98.0373 157.541C100.936 157.711 103.493 158.223 103.834 158.734V158.564C103.834 157.882 101.277 157.2 98.0373 157.2C94.6273 157.029 92.0698 157.37 92.0698 158.052Z" fill="#407BFF"/>
<path opacity="0.4" d="M92.0698 158.052C92.0698 158.052 92.0698 158.223 92.0698 158.052C92.5813 157.711 94.9683 157.37 98.0373 157.541C100.936 157.711 103.493 158.223 103.834 158.734V158.564C103.834 157.882 101.277 157.2 98.0373 157.2C94.6273 157.029 92.0698 157.37 92.0698 158.052Z" fill="#407BFF"/>
<path opacity="0.4" d="M92.0698 158.223C92.4108 158.734 94.9683 159.416 97.8668 159.416C100.765 159.587 103.323 159.246 103.664 158.734C103.323 158.223 100.765 157.541 97.8668 157.541C94.9683 157.37 92.5813 157.711 92.0698 158.223Z" fill="#407BFF"/>
<path d="M89.6826 157.2C89.6826 158.223 92.5811 159.075 96.3321 159.246C100.083 159.416 103.152 158.734 103.152 157.882C103.152 156.859 100.254 156.006 96.5026 155.836C92.7516 155.665 89.6826 156.347 89.6826 157.2Z" fill="#407BFF"/>
<path d="M89.7266 155.451L89.6543 157.155L103.112 157.726L103.184 156.022L89.7266 155.451Z" fill="#407BFF"/>
<path d="M89.6826 155.495C89.6826 156.518 92.5811 157.37 96.3321 157.541C100.083 157.711 103.152 157.029 103.152 156.177C103.152 155.154 100.254 154.301 96.5026 154.131C92.7516 153.96 89.8531 154.472 89.6826 155.495Z" fill="#407BFF"/>
<path opacity="0.4" d="M89.6826 155.495C89.6826 156.518 92.5811 157.37 96.3321 157.541C100.083 157.711 103.152 157.029 103.152 156.177C103.152 155.154 100.254 154.301 96.5026 154.131C92.7516 153.96 89.8531 154.472 89.6826 155.495Z" fill="white"/>
<path d="M90.5352 155.495C90.5352 155.495 90.5352 155.665 90.5352 155.495C91.0467 155.154 93.4336 154.813 96.5026 154.983C99.4011 155.154 101.959 155.665 102.3 156.177V156.006C102.3 155.324 99.7421 154.642 96.5026 154.642C93.2631 154.472 90.5352 154.813 90.5352 155.495Z" fill="#407BFF"/>
<path opacity="0.4" d="M90.5352 155.495C90.5352 155.495 90.5352 155.665 90.5352 155.495C91.0467 155.154 93.4336 154.813 96.5026 154.983C99.4011 155.154 101.959 155.665 102.3 156.177V156.006C102.3 155.324 99.7421 154.642 96.5026 154.642C93.2631 154.472 90.5352 154.813 90.5352 155.495Z" fill="#407BFF"/>
<path opacity="0.4" d="M90.7058 155.665C91.0468 156.177 93.6043 156.859 96.5028 156.859C99.4012 157.029 101.959 156.688 102.3 156.177C101.959 155.665 99.4012 154.983 96.5028 154.983C93.6043 154.813 91.0468 155.154 90.7058 155.665Z" fill="#407BFF"/>
<path d="M89.8533 154.131C89.8533 155.154 92.7517 156.006 96.5027 156.177C100.254 156.347 103.323 155.665 103.323 154.813C103.323 153.79 100.424 152.937 96.6732 152.767C92.9222 152.426 89.8533 153.108 89.8533 154.131Z" fill="#407BFF"/>
<path d="M89.9644 152.344L89.8921 154.047L103.349 154.618L103.422 152.915L89.9644 152.344Z" fill="#407BFF"/>
<path d="M89.8533 152.426C89.8533 153.449 92.7517 154.301 96.5027 154.472C100.254 154.642 103.323 153.96 103.323 153.108C103.323 152.085 100.424 151.232 96.6732 151.062C93.0927 150.721 90.0238 151.403 89.8533 152.426Z" fill="#407BFF"/>
<path opacity="0.4" d="M89.8533 152.426C89.8533 153.449 92.7517 154.301 96.5027 154.472C100.254 154.642 103.323 153.96 103.323 153.108C103.323 152.085 100.424 151.232 96.6732 151.062C93.0927 150.721 90.0238 151.403 89.8533 152.426Z" fill="white"/>
<path d="M90.7058 152.426C90.7058 152.426 90.8763 152.426 90.7058 152.426C91.2173 152.085 93.6043 151.744 96.6733 151.914C99.5717 152.085 102.129 152.596 102.47 153.108V152.937C102.47 152.255 99.9127 151.573 96.6733 151.573C93.4338 151.232 90.8763 151.744 90.7058 152.426Z" fill="#407BFF"/>
<path opacity="0.4" d="M90.7058 152.426C90.7058 152.426 90.8763 152.426 90.7058 152.426C91.2173 152.085 93.6043 151.744 96.6733 151.914C99.5717 152.085 102.129 152.596 102.47 153.108V152.937C102.47 152.255 99.9127 151.573 96.6733 151.573C93.4338 151.232 90.8763 151.744 90.7058 152.426Z" fill="#407BFF"/>
<path opacity="0.4" d="M90.8765 152.596C91.2175 153.108 93.7749 153.79 96.6734 153.79C99.5719 153.96 102.129 153.619 102.47 153.108C102.129 152.596 99.5719 151.914 96.6734 151.914C93.7749 151.573 91.2175 151.914 90.8765 152.596Z" fill="#407BFF"/>
<path d="M88.489 151.573C88.489 152.596 91.3875 153.449 95.1385 153.619C98.8894 153.79 101.958 153.108 101.958 152.255C101.958 151.232 99.0599 150.38 95.309 150.209C91.558 149.868 88.489 150.55 88.489 151.573Z" fill="#407BFF"/>
<path d="M88.5739 149.866L88.5015 151.57L101.959 152.142L102.031 150.438L88.5739 149.866Z" fill="#407BFF"/>
<path d="M88.4893 149.698C88.4893 150.721 91.3877 151.573 95.1387 151.744C98.8897 151.914 101.959 151.232 101.959 150.38C101.959 149.357 99.0602 148.504 95.3092 148.334C91.5582 148.163 88.4893 148.845 88.4893 149.698Z" fill="#407BFF"/>
<path opacity="0.4" d="M88.4893 149.698C88.4893 150.721 91.3877 151.573 95.1387 151.744C98.8897 151.914 101.959 151.232 101.959 150.38C101.959 149.357 99.0602 148.504 95.3092 148.334C91.5582 148.163 88.4893 148.845 88.4893 149.698Z" fill="white"/>
<path d="M89.3416 149.698C89.3416 149.868 89.3416 149.868 89.3416 149.698C89.853 149.357 92.24 149.016 95.309 149.186C98.2075 149.357 100.765 149.868 101.106 150.38V150.209C101.106 149.527 98.5485 148.845 95.309 148.845C92.0695 148.675 89.3416 149.186 89.3416 149.698Z" fill="#407BFF"/>
<path opacity="0.4" d="M89.3416 149.698C89.3416 149.868 89.3416 149.868 89.3416 149.698C89.853 149.357 92.24 149.016 95.309 149.186C98.2075 149.357 100.765 149.868 101.106 150.38V150.209C101.106 149.527 98.5485 148.845 95.309 148.845C92.0695 148.675 89.3416 149.186 89.3416 149.698Z" fill="#407BFF"/>
<path opacity="0.4" d="M89.3416 149.868C89.6826 150.38 92.24 151.062 95.1385 151.062C98.037 151.232 100.594 150.891 100.935 150.38C100.594 149.868 98.037 149.186 95.1385 149.186C92.4105 149.016 89.853 149.357 89.3416 149.868Z" fill="#407BFF"/>
<path d="M90.5349 149.357C90.5349 150.38 93.4334 151.232 97.1844 151.403C100.935 151.573 104.004 150.891 104.004 150.039C104.004 149.016 101.106 148.163 97.3549 147.993C93.6039 147.652 90.7054 148.334 90.5349 149.357Z" fill="#407BFF"/>
<path d="M90.7251 147.621L90.6528 149.324L104.11 149.896L104.182 148.192L90.7251 147.621Z" fill="#407BFF"/>
<path d="M90.7056 147.652C90.7056 148.675 93.604 149.527 97.355 149.698C101.106 149.868 104.175 149.186 104.175 148.334C104.175 147.311 101.276 146.458 97.5255 146.288C93.7745 145.947 90.7056 146.629 90.7056 147.652Z" fill="#407BFF"/>
<path opacity="0.4" d="M90.7056 147.652C90.7056 148.675 93.604 149.527 97.355 149.698C101.106 149.868 104.175 149.186 104.175 148.334C104.175 147.311 101.276 146.458 97.5255 146.288C93.7745 145.947 90.7056 146.629 90.7056 147.652Z" fill="white"/>
<path d="M91.5581 147.481C91.5581 147.652 91.5581 147.652 91.5581 147.481C92.0696 147.14 94.4566 146.799 97.5256 146.97C100.424 147.14 102.982 147.652 103.323 148.163V147.993C103.323 147.311 100.765 146.629 97.5256 146.629C94.2861 146.458 91.5581 146.97 91.5581 147.481Z" fill="#407BFF"/>
<path opacity="0.4" d="M91.5581 147.481C91.5581 147.652 91.5581 147.652 91.5581 147.481C92.0696 147.14 94.4566 146.799 97.5256 146.97C100.424 147.14 102.982 147.652 103.323 148.163V147.993C103.323 147.311 100.765 146.629 97.5256 146.629C94.2861 146.458 91.5581 146.97 91.5581 147.481Z" fill="#407BFF"/>
<path opacity="0.4" d="M91.5581 147.652C91.8991 148.163 94.4566 148.845 97.3551 148.845C100.254 149.016 102.811 148.675 103.152 148.163C102.811 147.652 100.254 146.97 97.3551 146.97C94.4566 146.799 92.0696 147.14 91.5581 147.652Z" fill="#407BFF"/>
<path d="M89.1711 146.629C89.1711 147.652 92.0696 148.504 95.8206 148.675C99.5716 148.845 102.641 148.163 102.641 147.311C102.641 146.288 99.7421 145.435 95.9911 145.265C92.2401 145.094 89.1711 145.776 89.1711 146.629Z" fill="#407BFF"/>
<path d="M89.1722 144.966L89.0999 146.67L102.557 147.241L102.629 145.538L89.1722 144.966Z" fill="#407BFF"/>
<path d="M89.1711 144.924C89.1711 145.947 92.0696 146.799 95.8206 146.97C99.5716 147.14 102.641 146.458 102.641 145.606C102.641 144.583 99.7421 143.73 95.9911 143.56C92.4106 143.389 89.3416 144.071 89.1711 144.924Z" fill="#407BFF"/>
<path opacity="0.4" d="M89.1711 144.924C89.1711 145.947 92.0696 146.799 95.8206 146.97C99.5716 147.14 102.641 146.458 102.641 145.606C102.641 144.583 99.7421 143.73 95.9911 143.56C92.4106 143.389 89.3416 144.071 89.1711 144.924Z" fill="white"/>
<path d="M90.0234 144.924C90.0234 145.094 90.1939 145.094 90.0234 144.924C90.5349 144.583 92.9219 144.242 95.9909 144.412C98.8894 144.583 101.447 145.094 101.788 145.606V145.435C101.788 144.753 99.2304 144.071 95.9909 144.071C92.7514 143.901 90.1939 144.242 90.0234 144.924Z" fill="#407BFF"/>
<path opacity="0.4" d="M90.0234 144.924C90.0234 145.094 90.1939 145.094 90.0234 144.924C90.5349 144.583 92.9219 144.242 95.9909 144.412C98.8894 144.583 101.447 145.094 101.788 145.606V145.435C101.788 144.753 99.2304 144.071 95.9909 144.071C92.7514 143.901 90.1939 144.242 90.0234 144.924Z" fill="#407BFF"/>
<path opacity="0.4" d="M90.1943 145.094C90.5353 145.606 93.0928 146.288 95.9913 146.288C98.8898 146.458 101.447 146.117 101.788 145.606C101.447 145.094 98.8898 144.412 95.9913 144.412C93.0928 144.242 90.5353 144.583 90.1943 145.094Z" fill="#407BFF"/>
<path d="M104.175 144.924C104.175 145.947 101.277 146.799 97.526 146.97C93.775 147.14 90.7061 146.458 90.7061 145.606C90.7061 144.583 93.6045 143.73 97.3555 143.56C100.936 143.219 104.005 143.901 104.175 144.924Z" fill="#407BFF"/>
<path d="M103.961 143.106L90.5034 143.678L90.5758 145.381L104.033 144.81L103.961 143.106Z" fill="#407BFF"/>
<path d="M104.005 143.219C104.005 144.242 101.107 145.094 97.3558 145.265C93.6049 145.435 90.5359 144.753 90.5359 143.901C90.5359 142.878 93.4344 142.025 97.1853 141.855C100.936 141.514 104.005 142.196 104.005 143.219Z" fill="#407BFF"/>
<path opacity="0.4" d="M104.005 143.219C104.005 144.242 101.107 145.094 97.3558 145.265C93.6049 145.435 90.5359 144.753 90.5359 143.901C90.5359 142.878 93.4344 142.025 97.1853 141.855C100.936 141.514 104.005 142.196 104.005 143.219Z" fill="white"/>
<path d="M103.153 143.048C103.153 143.219 103.153 143.219 103.153 143.048C102.641 142.707 100.254 142.366 97.1851 142.537C94.2867 142.707 91.7292 143.219 91.3882 143.73V143.56C91.3882 142.878 93.9457 142.196 97.1851 142.196C100.425 142.025 103.153 142.537 103.153 143.048Z" fill="#407BFF"/>
<path opacity="0.4" d="M103.153 143.048C103.153 143.219 103.153 143.219 103.153 143.048C102.641 142.707 100.254 142.366 97.1851 142.537C94.2867 142.707 91.7292 143.219 91.3882 143.73V143.56C91.3882 142.878 93.9457 142.196 97.1851 142.196C100.425 142.025 103.153 142.537 103.153 143.048Z" fill="#407BFF"/>
<path opacity="0.4" d="M103.153 143.219C102.812 143.73 100.254 144.412 97.3555 144.412C94.4571 144.583 91.8996 144.242 91.5586 143.73C91.8996 143.219 94.4571 142.537 97.3555 142.537C100.254 142.366 102.641 142.707 103.153 143.219Z" fill="#407BFF"/>
<path d="M105.539 142.196C105.539 143.219 102.641 144.071 98.8898 144.242C95.1388 144.412 92.0698 143.73 92.0698 142.878C92.0698 141.855 94.9683 141.002 98.7193 140.832C102.47 140.661 105.539 141.343 105.539 142.196Z" fill="#407BFF"/>
<path d="M105.326 140.551L91.8684 141.122L91.9407 142.825L105.398 142.254L105.326 140.551Z" fill="#407BFF"/>
<path d="M105.369 140.491C105.369 141.514 102.47 142.366 98.7191 142.537C94.9681 142.707 91.8992 142.025 91.8992 141.173C91.8992 140.15 94.7976 139.297 98.5486 139.127C102.3 138.956 105.369 139.638 105.369 140.491Z" fill="#407BFF"/>
<path opacity="0.4" d="M105.369 140.491C105.369 141.514 102.47 142.366 98.7191 142.537C94.9681 142.707 91.8992 142.025 91.8992 141.173C91.8992 140.15 94.7976 139.297 98.5486 139.127C102.3 138.956 105.369 139.638 105.369 140.491Z" fill="white"/>
<path d="M104.516 140.491C104.516 140.661 104.516 140.661 104.516 140.491C104.005 140.15 101.618 139.809 98.5487 139.979C95.6502 140.15 93.0927 140.661 92.7517 141.173V141.002C92.7517 140.32 95.3092 139.638 98.5487 139.638C101.959 139.468 104.516 139.809 104.516 140.491Z" fill="#407BFF"/>
<path opacity="0.4" d="M104.516 140.491C104.516 140.661 104.516 140.661 104.516 140.491C104.005 140.15 101.618 139.809 98.5487 139.979C95.6502 140.15 93.0927 140.661 92.7517 141.173V141.002C92.7517 140.32 95.3092 139.638 98.5487 139.638C101.959 139.468 104.516 139.809 104.516 140.491Z" fill="#407BFF"/>
<path opacity="0.4" d="M104.516 140.661C104.175 141.173 101.618 141.855 98.7193 141.855C95.8208 142.025 93.2634 141.684 92.9224 141.173C93.2634 140.661 95.8208 139.979 98.7193 139.979C101.618 139.809 104.005 140.15 104.516 140.661Z" fill="#407BFF"/>
<path d="M105.369 139.127C105.369 140.15 102.47 141.002 98.7194 141.173C94.9684 141.343 91.8994 140.661 91.8994 139.809C91.8994 138.786 94.7979 137.933 98.5489 137.763C102.3 137.592 105.369 138.274 105.369 139.127Z" fill="#407BFF"/>
<path d="M105.158 137.481L91.7004 138.053L91.7727 139.756L105.23 139.185L105.158 137.481Z" fill="#407BFF"/>
<path d="M105.198 137.422C105.198 138.445 102.3 139.297 98.5487 139.468C94.7977 139.638 91.7288 138.956 91.7288 138.104C91.7288 137.081 94.6272 136.228 98.3782 136.058C102.129 135.887 105.198 136.569 105.198 137.422Z" fill="#407BFF"/>
<path opacity="0.4" d="M105.198 137.422C105.198 138.445 102.3 139.297 98.5487 139.468C94.7977 139.638 91.7288 138.956 91.7288 138.104C91.7288 137.081 94.6272 136.228 98.3782 136.058C102.129 135.887 105.198 136.569 105.198 137.422Z" fill="white"/>
<path d="M104.346 137.422C104.346 137.422 104.346 137.592 104.346 137.422C103.834 137.081 101.447 136.74 98.3783 136.91C95.4798 137.081 92.9223 137.592 92.5813 138.104V137.933C92.5813 137.251 95.1388 136.569 98.3783 136.569C101.788 136.399 104.346 136.74 104.346 137.422Z" fill="#407BFF"/>
<path opacity="0.4" d="M104.346 137.422C104.346 137.422 104.346 137.592 104.346 137.422C103.834 137.081 101.447 136.74 98.3783 136.91C95.4798 137.081 92.9223 137.592 92.5813 138.104V137.933C92.5813 137.251 95.1388 136.569 98.3783 136.569C101.788 136.399 104.346 136.74 104.346 137.422Z" fill="#407BFF"/>
<path opacity="0.4" d="M104.346 137.592C104.005 138.104 101.447 138.786 98.5489 138.786C95.6504 138.956 93.093 138.615 92.752 138.104C93.093 137.592 95.6504 136.911 98.5489 136.911C101.447 136.74 103.834 137.081 104.346 137.592Z" fill="#407BFF"/>
<path d="M106.733 136.569C106.733 137.592 103.835 138.445 100.084 138.615C96.3326 138.786 93.2637 138.104 93.2637 137.251C93.2637 136.228 96.1621 135.376 99.9131 135.205C103.664 135.035 106.733 135.546 106.733 136.569Z" fill="#407BFF"/>
<path d="M106.694 134.919L93.2366 135.491L93.309 137.194L106.766 136.622L106.694 134.919Z" fill="#407BFF"/>
<path d="M106.733 134.864C106.733 135.887 103.834 136.74 100.083 136.91C96.3324 137.081 93.2634 136.399 93.2634 135.546C93.2634 134.523 96.1619 133.671 99.9129 133.501C103.664 133.33 106.562 133.842 106.733 134.864Z" fill="#407BFF"/>
<path opacity="0.4" d="M106.733 134.864C106.733 135.887 103.834 136.74 100.083 136.91C96.3324 137.081 93.2634 136.399 93.2634 135.546C93.2634 134.523 96.1619 133.671 99.9129 133.501C103.664 133.33 106.562 133.842 106.733 134.864Z" fill="white"/>
<path d="M105.88 134.865C105.369 134.524 102.982 134.183 99.9129 134.353C97.0144 134.524 94.457 135.035 94.116 135.547V135.376C94.116 134.694 96.6734 134.012 99.9129 134.012C103.152 133.671 105.88 134.183 105.88 134.865Z" fill="#407BFF"/>
<path opacity="0.4" d="M105.88 134.865C105.369 134.524 102.982 134.183 99.9129 134.353C97.0144 134.524 94.457 135.035 94.116 135.547V135.376C94.116 134.694 96.6734 134.012 99.9129 134.012C103.152 133.671 105.88 134.183 105.88 134.865Z" fill="#407BFF"/>
<path opacity="0.4" d="M105.71 135.035C105.369 135.546 102.811 136.228 99.9129 136.228C97.0144 136.399 94.457 136.058 94.116 135.546C94.457 135.035 97.0144 134.353 99.9129 134.353C102.811 134.182 105.369 134.353 105.71 135.035Z" fill="#407BFF"/>
<path d="M104.516 134.353C104.516 135.376 101.618 136.228 97.8666 136.399C94.1156 136.569 91.0466 135.887 91.0466 135.035C91.0466 134.012 93.9451 133.159 97.6961 132.989C101.447 132.818 104.516 133.33 104.516 134.353Z" fill="#407BFF"/>
<path d="M104.476 132.705L91.0188 133.276L91.0911 134.979L104.548 134.408L104.476 132.705Z" fill="#407BFF"/>
<path d="M104.516 132.648C104.516 133.671 101.618 134.523 97.8666 134.694C94.1156 134.864 91.0466 134.182 91.0466 133.33C91.0466 132.307 93.9451 131.455 97.6961 131.284C101.447 131.114 104.516 131.625 104.516 132.648Z" fill="#407BFF"/>
<path opacity="0.4" d="M104.516 132.648C104.516 133.671 101.618 134.523 97.8666 134.694C94.1156 134.864 91.0466 134.182 91.0466 133.33C91.0466 132.307 93.9451 131.455 97.6961 131.284C101.447 131.114 104.516 131.625 104.516 132.648Z" fill="white"/>
<path d="M103.664 132.648C103.664 132.648 103.664 132.819 103.664 132.648C103.152 132.307 100.765 131.966 97.6961 132.137C94.7976 132.307 92.2402 132.819 91.8992 133.33V133.16C91.8992 132.478 94.4566 131.796 97.6961 131.796C100.936 131.625 103.664 131.966 103.664 132.648Z" fill="#407BFF"/>
<path opacity="0.4" d="M103.664 132.648C103.664 132.648 103.664 132.819 103.664 132.648C103.152 132.307 100.765 131.966 97.6961 132.137C94.7976 132.307 92.2402 132.819 91.8992 133.33V133.16C91.8992 132.478 94.4566 131.796 97.6961 131.796C100.936 131.625 103.664 131.966 103.664 132.648Z" fill="#407BFF"/>
<path opacity="0.4" d="M103.664 132.819C103.323 133.33 100.765 134.012 97.8668 134.012C94.9683 134.182 92.4108 133.841 92.0698 133.33C92.4108 132.819 94.9683 132.137 97.8668 132.137C100.595 131.966 103.152 132.307 103.664 132.819Z" fill="#407BFF"/>
<path d="M106.051 131.795C106.051 132.818 103.152 133.671 99.4015 133.841C95.6505 134.012 92.5815 133.33 92.5815 132.477C92.5815 131.454 95.48 130.602 99.231 130.431C102.982 130.261 106.051 130.772 106.051 131.795Z" fill="#407BFF"/>
<path d="M105.835 129.979L92.3777 130.551L92.45 132.254L105.907 131.682L105.835 129.979Z" fill="#407BFF"/>
<path d="M105.881 130.091C105.881 131.114 102.982 131.966 99.2313 132.136C95.4804 132.307 92.4114 131.625 92.4114 130.772C92.4114 129.75 95.3098 128.897 99.0608 128.727C102.812 128.386 105.881 129.068 105.881 130.091Z" fill="#407BFF"/>
<path opacity="0.4" d="M105.881 130.091C105.881 131.114 102.982 131.966 99.2313 132.136C95.4804 132.307 92.4114 131.625 92.4114 130.772C92.4114 129.75 95.3098 128.897 99.0608 128.727C102.812 128.386 105.881 129.068 105.881 130.091Z" fill="white"/>
<path d="M105.028 130.091C104.517 129.75 102.13 129.409 99.0609 129.579C96.1624 129.75 93.6049 130.261 93.2639 130.773V130.602C93.2639 129.92 95.8214 129.238 99.0609 129.238C102.3 128.897 105.028 129.409 105.028 130.091Z" fill="#407BFF"/>
<path opacity="0.4" d="M105.028 130.091C104.517 129.75 102.13 129.409 99.0609 129.579C96.1624 129.75 93.6049 130.261 93.2639 130.773V130.602C93.2639 129.92 95.8214 129.238 99.0609 129.238C102.3 128.897 105.028 129.409 105.028 130.091Z" fill="#407BFF"/>
<path opacity="0.4" d="M105.028 130.261C104.687 130.773 102.13 131.455 99.231 131.455C96.3326 131.625 93.7751 131.284 93.4341 130.773C93.7751 130.261 96.3326 129.579 99.231 129.579C102.13 129.238 104.516 129.579 105.028 130.261Z" fill="#407BFF"/>
<path d="M98.2078 130.261C101.598 130.261 104.346 127.513 104.346 124.123C104.346 120.733 101.598 117.985 98.2078 117.985C94.8179 117.985 92.0698 120.733 92.0698 124.123C92.0698 127.513 94.8179 130.261 98.2078 130.261Z" fill="#407BFF"/>
<path d="M103.618 128.442C105.815 125.86 105.503 121.986 102.921 119.789C100.34 117.592 96.4658 117.904 94.2688 120.486C92.0718 123.067 92.3837 126.941 94.9654 129.138C97.5472 131.335 101.421 131.023 103.618 128.442Z" fill="#407BFF"/>
<path opacity="0.4" d="M103.618 128.442C105.815 125.86 105.503 121.986 102.921 119.789C100.34 117.592 96.4658 117.904 94.2688 120.486C92.0718 123.067 92.3837 126.941 94.9654 129.138C97.5472 131.335 101.421 131.023 103.618 128.442Z" fill="white"/>
<path d="M102.982 126.34C101.959 128.556 99.2307 129.579 97.0143 128.556C94.7978 127.533 93.7748 124.805 94.7978 122.589C95.8208 120.372 98.5487 119.349 100.765 120.372C103.152 121.225 104.175 123.953 102.982 126.34Z" fill="#407BFF"/>
<path opacity="0.3" d="M98.8896 122.589L99.9126 123.1C100.254 123.271 100.424 123.441 100.424 123.441C100.595 123.612 100.595 123.782 100.424 123.953C100.424 124.123 100.254 124.294 100.083 124.294C99.9126 124.294 99.7421 124.294 99.4011 124.123L98.3781 123.612L98.8896 122.589ZM99.4011 126.34C99.2306 126.34 99.0601 126.34 98.7191 126.169L97.5256 125.658L98.0371 124.464L99.2306 124.976C99.7421 125.317 100.083 125.487 99.9126 125.999C99.7421 126.169 99.5716 126.34 99.4011 126.34Z" fill="white"/>
<path d="M156.348 158.905C156.177 159.416 154.302 159.416 152.085 158.905C149.869 158.393 148.164 157.541 148.334 156.859C148.505 156.347 150.38 156.347 152.597 156.859C154.813 157.541 156.518 158.393 156.348 158.905Z" fill="#407BFF"/>
<path d="M148.586 156.004L148.337 156.996L156.276 158.984L156.524 157.992L148.586 156.004Z" fill="#407BFF"/>
<path d="M156.518 157.882C156.348 158.393 154.472 158.393 152.256 157.882C150.039 157.37 148.334 156.518 148.505 155.836C148.675 155.324 150.551 155.324 152.767 155.836C155.154 156.518 156.689 157.37 156.518 157.882Z" fill="#407BFF"/>
<path opacity="0.4" d="M156.518 157.882C156.348 158.393 154.472 158.393 152.256 157.882C150.039 157.37 148.334 156.518 148.505 155.836C148.675 155.324 150.551 155.324 152.767 155.836C155.154 156.518 156.689 157.37 156.518 157.882Z" fill="white"/>
<path d="M156.177 157.711C156.007 157.882 156.177 157.711 156.177 157.711C156.007 157.37 154.643 156.859 152.767 156.347C151.062 155.836 149.528 155.836 149.187 156.006C149.187 156.006 149.187 156.006 149.187 155.836C149.357 155.495 150.892 155.495 152.767 156.006C154.643 156.688 156.177 157.37 156.177 157.711Z" fill="#407BFF"/>
<path opacity="0.4" d="M156.177 157.711C156.007 157.882 156.177 157.711 156.177 157.711C156.007 157.37 154.643 156.859 152.767 156.347C151.062 155.836 149.528 155.836 149.187 156.006C149.187 156.006 149.187 156.006 149.187 155.836C149.357 155.495 150.892 155.495 152.767 156.006C154.643 156.688 156.177 157.37 156.177 157.711Z" fill="#407BFF"/>
<path opacity="0.4" d="M156.007 157.882C155.666 158.223 154.131 158.052 152.426 157.541C150.721 157.029 149.357 156.518 149.187 156.177C149.528 155.836 151.062 156.006 152.767 156.518C154.472 156.859 155.836 157.37 156.007 157.882Z" fill="#407BFF"/>
<path d="M160.099 160.78C160.099 161.292 158.394 161.974 156.007 161.974C153.79 162.144 151.915 161.633 151.915 161.121C151.915 160.61 153.62 159.928 156.007 159.928C158.223 159.757 160.099 160.098 160.099 160.78Z" fill="#407BFF"/>
<path d="M160.076 159.757L151.899 160.104L151.942 161.126L160.119 160.779L160.076 159.757Z" fill="#407BFF"/>
<path d="M160.098 159.757C160.098 160.269 158.394 160.951 156.007 160.951C153.79 161.121 151.915 160.61 151.915 160.098C151.915 159.587 153.62 158.905 156.007 158.905C158.223 158.734 160.098 159.075 160.098 159.757Z" fill="#407BFF"/>
<path opacity="0.4" d="M160.098 159.757C160.098 160.269 158.394 160.951 156.007 160.951C153.79 161.121 151.915 160.61 151.915 160.098C151.915 159.587 153.62 158.905 156.007 158.905C158.223 158.734 160.098 159.075 160.098 159.757Z" fill="white"/>
<path d="M159.587 159.757C159.246 159.587 157.712 159.246 156.007 159.416C154.302 159.416 152.767 159.757 152.426 160.098C152.426 160.098 152.426 160.098 152.426 159.928C152.426 159.587 153.961 159.075 156.007 159.075C157.882 159.075 159.587 159.246 159.587 159.757Z" fill="#407BFF"/>
<path opacity="0.4" d="M159.587 159.757C159.246 159.587 157.712 159.246 156.007 159.416C154.302 159.416 152.767 159.757 152.426 160.098C152.426 160.098 152.426 160.098 152.426 159.928C152.426 159.587 153.961 159.075 156.007 159.075C157.882 159.075 159.587 159.246 159.587 159.757Z" fill="#407BFF"/>
<path opacity="0.4" d="M159.587 159.757C159.417 160.098 157.882 160.439 156.007 160.439C154.302 160.439 152.767 160.269 152.426 159.928C152.597 159.587 154.131 159.246 156.007 159.246C157.712 159.246 159.246 159.416 159.587 159.757Z" fill="#407BFF"/>
<path d="M155.835 158.75C157.696 155.916 156.906 152.11 154.072 150.25C151.238 148.39 147.433 149.179 145.573 152.013C143.712 154.847 144.501 158.652 147.335 160.513C150.169 162.373 153.975 161.584 155.835 158.75Z" fill="#407BFF"/>
<path d="M155.836 159.928C153.62 162.485 149.698 162.656 147.311 160.439C144.754 158.223 144.583 154.301 146.8 151.914C149.016 149.357 152.938 149.186 155.325 151.403C157.882 153.619 158.053 157.37 155.836 159.928Z" fill="#407BFF"/>
<path opacity="0.4" d="M155.836 159.928C153.62 162.485 149.698 162.656 147.311 160.439C144.754 158.223 144.583 154.301 146.8 151.914C149.016 149.357 152.938 149.186 155.325 151.403C157.882 153.619 158.053 157.37 155.836 159.928Z" fill="white"/>
<path d="M154.643 158.905C152.938 160.78 150.039 160.951 148.164 159.246C146.288 157.541 146.118 154.642 147.823 152.767C149.528 150.891 152.426 150.721 154.302 152.426C156.177 154.131 156.348 157.029 154.643 158.905Z" fill="#407BFF"/>
<g opacity="0.3">
<path opacity="0.3" d="M151.403 155.154L152.085 154.301C151.744 154.131 151.403 154.131 151.233 154.301C151.233 154.642 151.233 154.813 151.403 155.154Z" fill="white"/>
</g>
<path d="M75.8728 161.292C75.8728 161.803 77.5778 162.485 79.9648 162.485C82.1813 162.656 84.0567 162.144 84.0567 161.633C84.0567 161.121 82.3518 160.439 79.9648 160.439C77.7483 160.269 75.8728 160.78 75.8728 161.292Z" fill="#407BFF"/>
<path d="M75.9008 160.287L75.8574 161.309L84.034 161.655L84.0773 160.633L75.9008 160.287Z" fill="#407BFF"/>
<path d="M75.8728 160.269C75.8728 160.78 77.5778 161.462 79.9648 161.462C82.1813 161.633 84.0567 161.121 84.0567 160.61C84.0567 160.098 82.3518 159.416 79.9648 159.416C77.7483 159.246 75.8728 159.757 75.8728 160.269Z" fill="#407BFF"/>
<path opacity="0.4" d="M75.8728 160.269C75.8728 160.78 77.5778 161.462 79.9648 161.462C82.1813 161.633 84.0567 161.121 84.0567 160.61C84.0567 160.098 82.3518 159.416 79.9648 159.416C77.7483 159.246 75.8728 159.757 75.8728 160.269Z" fill="white"/>
<path d="M76.3843 160.269C76.7253 160.098 78.2598 159.757 79.9648 159.928C81.6697 159.928 83.2042 160.269 83.5452 160.61C83.5452 160.61 83.5452 160.61 83.5452 160.439C83.5452 160.098 82.0107 159.587 79.9648 159.587C78.0893 159.587 76.3843 159.928 76.3843 160.269Z" fill="#407BFF"/>
<path opacity="0.4" d="M76.3843 160.269C76.7253 160.098 78.2598 159.757 79.9648 159.928C81.6697 159.928 83.2042 160.269 83.5452 160.61C83.5452 160.61 83.5452 160.61 83.5452 160.439C83.5452 160.098 82.0107 159.587 79.9648 159.587C78.0893 159.587 76.3843 159.928 76.3843 160.269Z" fill="#407BFF"/>
<path opacity="0.4" d="M76.5544 160.269C76.7249 160.61 78.2594 160.951 80.1349 160.951C81.8399 160.951 83.3744 160.78 83.7154 160.439C83.5449 160.098 82.0104 159.757 80.1349 159.757C78.2594 159.757 76.7249 160.098 76.5544 160.269Z" fill="#407BFF"/>
<path d="M75.02 159.757C75.02 160.269 76.725 160.951 79.112 160.951C81.3285 161.121 83.204 160.61 83.204 160.098C83.204 159.587 81.499 158.905 79.112 158.905C76.8955 158.734 75.02 159.246 75.02 159.757Z" fill="#407BFF"/>
<path d="M75.0747 158.717L75.0312 159.739L83.2078 160.086L83.2513 159.064L75.0747 158.717Z" fill="#407BFF"/>
<path d="M75.0203 158.734C75.0203 159.246 76.7253 159.928 79.1122 159.928C81.3287 160.098 83.2042 159.587 83.2042 159.075C83.2042 158.564 81.4992 157.882 79.1122 157.882C76.8958 157.711 75.0203 158.052 75.0203 158.734Z" fill="#407BFF"/>
<path opacity="0.4" d="M75.0203 158.734C75.0203 159.246 76.7253 159.928 79.1122 159.928C81.3287 160.098 83.2042 159.587 83.2042 159.075C83.2042 158.564 81.4992 157.882 79.1122 157.882C76.8958 157.711 75.0203 158.052 75.0203 158.734Z" fill="white"/>
<path d="M75.5317 158.734C75.8727 158.564 77.4072 158.223 79.1122 158.393C80.8172 158.393 82.3517 158.734 82.6927 159.075C82.6927 159.075 82.6927 159.075 82.6927 158.905C82.6927 158.564 81.1582 158.052 79.1122 158.052C77.2367 158.052 75.5317 158.223 75.5317 158.734Z" fill="#407BFF"/>
<path opacity="0.4" d="M75.5317 158.734C75.8727 158.564 77.4072 158.223 79.1122 158.393C80.8172 158.393 82.3517 158.734 82.6927 159.075C82.6927 159.075 82.6927 159.075 82.6927 158.905C82.6927 158.564 81.1582 158.052 79.1122 158.052C77.2367 158.052 75.5317 158.223 75.5317 158.734Z" fill="#407BFF"/>
<path opacity="0.4" d="M75.5317 158.734C75.7022 159.075 77.2367 159.416 79.1122 159.416C80.8172 159.416 82.3517 159.246 82.6927 158.905C82.5222 158.564 80.9877 158.223 79.1122 158.223C77.4072 158.223 75.8727 158.393 75.5317 158.734Z" fill="#407BFF"/>
<path d="M75.1907 157.882C75.1907 158.393 76.8957 159.075 79.2826 159.075C81.4991 159.246 83.3746 158.734 83.3746 158.223C83.3746 157.711 81.6696 157.029 79.2826 157.029C77.0662 156.859 75.1907 157.2 75.1907 157.882Z" fill="#407BFF"/>
<path d="M75.1987 156.772L75.1553 157.794L83.3318 158.141L83.3753 157.119L75.1987 156.772Z" fill="#407BFF"/>
<path d="M75.1907 156.859C75.1907 157.37 76.8957 158.052 79.2826 158.052C81.4991 158.223 83.3746 157.711 83.3746 157.2C83.3746 156.688 81.6696 156.006 79.2826 156.006C77.0662 155.836 75.1907 156.177 75.1907 156.859Z" fill="#407BFF"/>
<path opacity="0.4" d="M75.1907 156.859C75.1907 157.37 76.8957 158.052 79.2826 158.052C81.4991 158.223 83.3746 157.711 83.3746 157.2C83.3746 156.688 81.6696 156.006 79.2826 156.006C77.0662 155.836 75.1907 156.177 75.1907 156.859Z" fill="white"/>
<path d="M75.7021 156.859C76.0431 156.688 77.5776 156.347 79.2826 156.518C80.9876 156.518 82.5221 156.859 82.8631 157.2C82.8631 157.2 82.8631 157.2 82.8631 157.029C82.8631 156.688 81.3286 156.177 79.2826 156.177C77.2366 156.177 75.7021 156.347 75.7021 156.859Z" fill="#407BFF"/>
<path opacity="0.4" d="M75.7021 156.859C76.0431 156.688 77.5776 156.347 79.2826 156.518C80.9876 156.518 82.5221 156.859 82.8631 157.2C82.8631 157.2 82.8631 157.2 82.8631 157.029C82.8631 156.688 81.3286 156.177 79.2826 156.177C77.2366 156.177 75.7021 156.347 75.7021 156.859Z" fill="#407BFF"/>
<path opacity="0.4" d="M75.7021 156.859C75.8726 157.2 77.4071 157.541 79.2826 157.541C80.9876 157.541 82.5221 157.37 82.8631 157.029C82.6926 156.688 81.1581 156.347 79.2826 156.347C77.4071 156.347 76.0431 156.518 75.7021 156.859Z" fill="#407BFF"/>
<path d="M74.3381 156.347C74.3381 156.859 76.0431 157.541 78.4301 157.541C80.6466 157.711 82.5221 157.2 82.5221 156.688C82.5221 156.177 80.8171 155.495 78.4301 155.495C76.2136 155.324 74.3381 155.665 74.3381 156.347Z" fill="#407BFF"/>
<path d="M74.372 155.203L74.3286 156.225L82.5052 156.572L82.5486 155.55L74.372 155.203Z" fill="#407BFF"/>
<path d="M74.3381 155.324C74.3381 155.836 76.0431 156.518 78.4301 156.518C80.6466 156.688 82.5221 156.177 82.5221 155.665C82.5221 155.154 80.8171 154.472 78.4301 154.472C76.2136 154.301 74.3381 154.642 74.3381 155.324Z" fill="#407BFF"/>
<path opacity="0.4" d="M74.3381 155.324C74.3381 155.836 76.0431 156.518 78.4301 156.518C80.6466 156.688 82.5221 156.177 82.5221 155.665C82.5221 155.154 80.8171 154.472 78.4301 154.472C76.2136 154.301 74.3381 154.642 74.3381 155.324Z" fill="white"/>
<path d="M74.8499 155.154C74.8499 155.324 74.8499 155.324 74.8499 155.154C75.1909 154.983 76.7253 154.642 78.4303 154.813C80.1353 154.813 81.6698 155.154 82.0108 155.495C82.0108 155.495 82.0108 155.495 82.0108 155.324C82.0108 154.983 80.4763 154.472 78.4303 154.472C76.3843 154.642 74.8499 154.813 74.8499 155.154Z" fill="#407BFF"/>
<path opacity="0.4" d="M74.8499 155.154C74.8499 155.324 74.8499 155.324 74.8499 155.154C75.1909 154.983 76.7253 154.642 78.4303 154.813C80.1353 154.813 81.6698 155.154 82.0108 155.495C82.0108 155.495 82.0108 155.495 82.0108 155.324C82.0108 154.983 80.4763 154.472 78.4303 154.472C76.3843 154.642 74.8499 154.813 74.8499 155.154Z" fill="#407BFF"/>
<path opacity="0.4" d="M74.8499 155.324C75.0204 155.665 76.5548 156.006 78.4303 156.006C80.1353 156.006 81.6698 155.836 82.0108 155.495C81.8403 155.154 80.3058 154.813 78.4303 154.813C76.5548 154.813 75.1909 154.983 74.8499 155.324Z" fill="#407BFF"/>
<path d="M75.5317 154.983C75.5317 155.495 77.2367 156.177 79.6237 156.177C81.8402 156.347 83.7157 155.836 83.7157 155.324C83.7157 154.813 82.0107 154.131 79.6237 154.131C77.4072 153.96 75.5317 154.472 75.5317 154.983Z" fill="#407BFF"/>
<path d="M75.6401 153.99L75.5967 155.012L83.7732 155.36L83.8167 154.337L75.6401 153.99Z" fill="#407BFF"/>
<path d="M75.7024 153.96C75.7024 154.472 77.4074 155.154 79.7944 155.154C82.0108 155.324 83.8863 154.813 83.8863 154.301C83.8863 153.79 82.1813 153.108 79.7944 153.108C77.5779 152.937 75.7024 153.278 75.7024 153.96Z" fill="#407BFF"/>
<path opacity="0.4" d="M75.7024 153.96C75.7024 154.472 77.4074 155.154 79.7944 155.154C82.0108 155.324 83.8863 154.813 83.8863 154.301C83.8863 153.79 82.1813 153.108 79.7944 153.108C77.5779 152.937 75.7024 153.278 75.7024 153.96Z" fill="white"/>
<path d="M76.2136 153.96C76.5546 153.79 78.0891 153.449 79.7941 153.619C81.4991 153.619 83.0336 153.96 83.3746 154.301C83.3746 154.301 83.3746 154.301 83.3746 154.131C83.3746 153.79 81.8401 153.278 79.7941 153.278C77.7481 153.278 76.2136 153.449 76.2136 153.96Z" fill="#407BFF"/>
<path opacity="0.4" d="M76.2136 153.96C76.5546 153.79 78.0891 153.449 79.7941 153.619C81.4991 153.619 83.0336 153.96 83.3746 154.301C83.3746 154.301 83.3746 154.301 83.3746 154.131C83.3746 153.79 81.8401 153.278 79.7941 153.278C77.7481 153.278 76.2136 153.449 76.2136 153.96Z" fill="#407BFF"/>
<path opacity="0.4" d="M76.2136 153.96C76.3841 154.301 77.9186 154.642 79.7941 154.642C81.4991 154.642 83.0336 154.472 83.3746 154.131C83.2041 153.79 81.6696 153.449 79.7941 153.449C77.9186 153.449 76.3841 153.619 76.2136 153.96Z" fill="#407BFF"/>
<path d="M69.9045 161.292C70.075 161.803 71.9505 161.803 74.167 161.292C76.3834 160.78 78.0884 159.928 77.9179 159.246C77.7474 158.734 75.872 158.734 73.6555 159.246C71.2685 159.757 69.734 160.61 69.9045 161.292Z" fill="#407BFF"/>
<path d="M77.5036 158.261L69.5652 160.249L69.8137 161.241L77.7521 159.253L77.5036 158.261Z" fill="#407BFF"/>
<path d="M69.5638 160.269C69.7343 160.78 71.6097 160.78 73.8262 160.269C76.0427 159.757 77.7477 158.905 77.5772 158.223C77.4067 157.711 75.5312 157.711 73.3147 158.223C71.0982 158.734 69.3933 159.587 69.5638 160.269Z" fill="#407BFF"/>
<path opacity="0.4" d="M69.5638 160.269C69.7343 160.78 71.6097 160.78 73.8262 160.269C76.0427 159.757 77.7477 158.905 77.5772 158.223C77.4067 157.711 75.5312 157.711 73.3147 158.223C71.0982 158.734 69.3933 159.587 69.5638 160.269Z" fill="white"/>
<path d="M70.0752 160.098C70.2457 159.757 71.6097 159.246 73.4852 158.734C75.1902 158.223 76.7246 158.223 77.0656 158.393C77.0656 158.393 77.0656 158.393 77.0656 158.223C76.8951 157.882 75.3607 157.882 73.4852 158.393C71.4392 158.905 69.9047 159.587 70.0752 160.098Z" fill="#407BFF"/>
<path opacity="0.4" d="M70.0752 160.098C70.2457 159.757 71.6097 159.246 73.4852 158.734C75.1902 158.223 76.7246 158.223 77.0656 158.393C77.0656 158.393 77.0656 158.393 77.0656 158.223C76.8951 157.882 75.3607 157.882 73.4852 158.393C71.4392 158.905 69.9047 159.587 70.0752 160.098Z" fill="#407BFF"/>
<path opacity="0.4" d="M70.0752 160.098C70.4162 160.439 71.9507 160.269 73.6557 159.757C75.3607 159.246 76.7246 158.734 76.8951 158.393C76.5541 158.052 75.0197 158.223 73.3147 158.734C71.6097 159.075 70.2457 159.757 70.0752 160.098Z" fill="#407BFF"/>
<path d="M65.9836 161.292C65.9836 161.803 67.6886 162.485 70.0756 162.485C72.2921 162.656 74.1676 162.144 74.1676 161.633C74.1676 161.121 72.4626 160.439 70.0756 160.439C67.8591 160.269 65.9836 160.78 65.9836 161.292Z" fill="#407BFF"/>
<path d="M66.0649 160.341L66.0215 161.363L74.1981 161.71L74.2415 160.688L66.0649 160.341Z" fill="#407BFF"/>
<path d="M66.1543 160.269C66.1543 160.78 67.8593 161.462 70.2463 161.462C72.4627 161.633 74.3382 161.121 74.3382 160.61C74.3382 160.098 72.6332 159.416 70.2463 159.416C68.0298 159.246 66.1543 159.757 66.1543 160.269Z" fill="#407BFF"/>
<path opacity="0.4" d="M66.1543 160.269C66.1543 160.78 67.8593 161.462 70.2463 161.462C72.4627 161.633 74.3382 161.121 74.3382 160.61C74.3382 160.098 72.6332 159.416 70.2463 159.416C68.0298 159.246 66.1543 159.757 66.1543 160.269Z" fill="white"/>
<path d="M66.6655 160.269C67.0065 160.098 68.541 159.757 70.246 159.928C71.951 159.928 73.4855 160.269 73.8265 160.61C73.8265 160.61 73.8265 160.61 73.8265 160.439C73.8265 160.098 72.292 159.587 70.246 159.587C68.2 159.587 66.6655 159.928 66.6655 160.269Z" fill="#407BFF"/>
<path opacity="0.4" d="M66.6655 160.269C67.0065 160.098 68.541 159.757 70.246 159.928C71.951 159.928 73.4855 160.269 73.8265 160.61C73.8265 160.61 73.8265 160.61 73.8265 160.439C73.8265 160.098 72.292 159.587 70.246 159.587C68.2 159.587 66.6655 159.928 66.6655 160.269Z" fill="#407BFF"/>
<path opacity="0.4" d="M66.6655 160.269C66.836 160.61 68.3705 160.951 70.246 160.951C71.951 160.951 73.4855 160.78 73.8265 160.439C73.656 160.098 72.1215 159.757 70.246 159.757C68.3705 159.757 66.836 160.098 66.6655 160.269Z" fill="#407BFF"/>
<path d="M108.267 161.292C108.267 161.803 110.143 162.485 112.359 162.485C114.746 162.656 116.622 162.144 116.622 161.633C116.622 161.121 114.746 160.439 112.53 160.439C110.143 160.269 108.267 160.61 108.267 161.292Z" fill="#407BFF"/>
<path d="M108.228 160.273L108.184 161.295L116.531 161.649L116.575 160.627L108.228 160.273Z" fill="#407BFF"/>
<path d="M108.267 160.269C108.267 160.78 110.143 161.462 112.359 161.462C114.746 161.633 116.622 161.121 116.622 160.61C116.622 160.098 114.746 159.416 112.53 159.416C110.143 159.246 108.267 159.587 108.267 160.269Z" fill="#407BFF"/>
<path opacity="0.4" d="M108.267 160.269C108.267 160.78 110.143 161.462 112.359 161.462C114.746 161.633 116.622 161.121 116.622 160.61C116.622 160.098 114.746 159.416 112.53 159.416C110.143 159.246 108.267 159.587 108.267 160.269Z" fill="white"/>
<path d="M108.779 160.098C108.779 160.269 108.779 160.269 108.779 160.098C109.12 159.928 110.654 159.587 112.53 159.757C114.405 159.757 115.94 160.098 116.11 160.61C116.11 160.61 116.11 160.61 116.11 160.439C116.11 160.098 114.576 159.587 112.53 159.587C110.484 159.587 108.779 159.757 108.779 160.098Z" fill="#407BFF"/>
<path opacity="0.4" d="M108.779 160.098C108.779 160.269 108.779 160.269 108.779 160.098C109.12 159.928 110.654 159.587 112.53 159.757C114.405 159.757 115.94 160.098 116.11 160.61C116.11 160.61 116.11 160.61 116.11 160.439C116.11 160.098 114.576 159.587 112.53 159.587C110.484 159.587 108.779 159.757 108.779 160.098Z" fill="#407BFF"/>
<path opacity="0.4" d="M108.779 160.269C108.949 160.61 110.484 160.951 112.359 161.121C114.235 161.121 115.769 160.951 115.94 160.61C115.769 160.269 114.235 159.928 112.359 159.757C110.654 159.757 109.12 159.928 108.779 160.269Z" fill="#407BFF"/>
<path d="M107.244 159.587C107.244 160.098 109.119 160.78 111.336 160.78C113.723 160.951 115.598 160.439 115.598 159.928C115.598 159.416 113.723 158.734 111.506 158.734C109.29 158.734 107.414 159.075 107.244 159.587Z" fill="#407BFF"/>
<path d="M107.422 158.637L107.378 159.659L115.725 160.014L115.768 158.991L107.422 158.637Z" fill="#407BFF"/>
<path d="M107.414 158.564C107.414 159.075 109.29 159.757 111.506 159.757C113.893 159.928 115.769 159.416 115.769 158.905C115.769 158.393 113.893 157.711 111.677 157.711C109.29 157.541 107.414 158.052 107.414 158.564Z" fill="#407BFF"/>
<path opacity="0.4" d="M107.414 158.564C107.414 159.075 109.29 159.757 111.506 159.757C113.893 159.928 115.769 159.416 115.769 158.905C115.769 158.393 113.893 157.711 111.677 157.711C109.29 157.541 107.414 158.052 107.414 158.564Z" fill="white"/>
<path d="M107.926 158.564C108.267 158.393 109.801 158.052 111.677 158.223C113.552 158.223 115.086 158.564 115.257 159.075C115.257 159.075 115.257 159.075 115.257 158.905C115.257 158.564 113.722 158.052 111.677 158.052C109.631 157.882 107.926 158.223 107.926 158.564Z" fill="#407BFF"/>
<path opacity="0.4" d="M107.926 158.564C108.267 158.393 109.801 158.052 111.677 158.223C113.552 158.223 115.086 158.564 115.257 159.075C115.257 159.075 115.257 159.075 115.257 158.905C115.257 158.564 113.722 158.052 111.677 158.052C109.631 157.882 107.926 158.223 107.926 158.564Z" fill="#407BFF"/>
<path opacity="0.4" d="M107.926 158.734C108.096 159.075 109.631 159.416 111.506 159.587C113.381 159.587 114.916 159.416 115.086 159.075C114.916 158.734 113.381 158.393 111.506 158.223C109.801 158.052 108.267 158.393 107.926 158.734Z" fill="#407BFF"/>
<path d="M109.291 158.393C109.291 158.905 111.166 159.587 113.382 159.587C115.769 159.757 117.645 159.246 117.645 158.734C117.645 158.223 115.769 157.541 113.553 157.541C111.166 157.541 109.291 157.882 109.291 158.393Z" fill="#407BFF"/>
<path d="M109.311 157.46L109.268 158.482L117.614 158.837L117.658 157.815L109.311 157.46Z" fill="#407BFF"/>
<path d="M109.29 157.37C109.29 157.882 111.166 158.564 113.382 158.564C115.769 158.734 117.645 158.223 117.645 157.711C117.645 157.2 115.769 156.518 113.553 156.518C111.166 156.347 109.29 156.859 109.29 157.37Z" fill="#407BFF"/>
<path opacity="0.4" d="M109.29 157.37C109.29 157.882 111.166 158.564 113.382 158.564C115.769 158.734 117.645 158.223 117.645 157.711C117.645 157.2 115.769 156.518 113.553 156.518C111.166 156.347 109.29 156.859 109.29 157.37Z" fill="white"/>
<path d="M109.802 157.37C110.143 157.2 111.677 156.859 113.552 157.029C115.428 157.029 116.962 157.37 117.133 157.882C117.133 157.882 117.133 157.882 117.133 157.711C117.133 157.37 115.598 156.859 113.552 156.859C111.506 156.688 109.802 157.029 109.802 157.37Z" fill="#407BFF"/>
<path opacity="0.4" d="M109.802 157.37C110.143 157.2 111.677 156.859 113.552 157.029C115.428 157.029 116.962 157.37 117.133 157.882C117.133 157.882 117.133 157.882 117.133 157.711C117.133 157.37 115.598 156.859 113.552 156.859C111.506 156.688 109.802 157.029 109.802 157.37Z" fill="#407BFF"/>
<path opacity="0.4" d="M109.802 157.541C109.972 157.882 111.506 158.223 113.382 158.393C115.257 158.393 116.792 158.223 116.962 157.882C116.792 157.541 115.257 157.2 113.382 157.029C111.677 156.859 110.143 157.2 109.802 157.541Z" fill="#407BFF"/>
<path d="M109.29 156.859C109.29 157.37 111.165 158.052 113.382 158.052C115.769 158.223 117.644 157.711 117.644 157.2C117.644 156.688 115.769 156.006 113.552 156.006C111.165 155.836 109.29 156.177 109.29 156.859Z" fill="#407BFF"/>
<path d="M109.237 155.869L109.193 156.891L117.54 157.246L117.583 156.224L109.237 155.869Z" fill="#407BFF"/>
<path d="M109.29 155.836C109.29 156.347 111.165 157.029 113.382 157.029C115.769 157.2 117.644 156.688 117.644 156.177C117.644 155.665 115.769 154.983 113.552 154.983C111.165 154.813 109.29 155.154 109.29 155.836Z" fill="#407BFF"/>
<path opacity="0.4" d="M109.29 155.836C109.29 156.347 111.165 157.029 113.382 157.029C115.769 157.2 117.644 156.688 117.644 156.177C117.644 155.665 115.769 154.983 113.552 154.983C111.165 154.813 109.29 155.154 109.29 155.836Z" fill="white"/>
<path d="M109.801 155.836C110.142 155.665 111.677 155.324 113.552 155.495C115.428 155.495 116.962 155.836 117.133 156.347C117.133 156.347 117.133 156.347 117.133 156.177C117.133 155.836 115.598 155.324 113.552 155.324C111.506 155.154 109.801 155.324 109.801 155.836Z" fill="#407BFF"/>
<path opacity="0.4" d="M109.801 155.836C110.142 155.665 111.677 155.324 113.552 155.495C115.428 155.495 116.962 155.836 117.133 156.347C117.133 156.347 117.133 156.347 117.133 156.177C117.133 155.836 115.598 155.324 113.552 155.324C111.506 155.154 109.801 155.324 109.801 155.836Z" fill="#407BFF"/>
<path opacity="0.4" d="M109.801 155.836C109.972 156.177 111.506 156.518 113.382 156.688C115.257 156.688 116.792 156.518 116.962 156.177C116.792 155.836 115.257 155.495 113.382 155.324C111.677 155.324 110.142 155.495 109.801 155.836Z" fill="#407BFF"/>
<path d="M107.584 155.495C107.584 156.006 109.46 156.688 111.676 156.688C114.063 156.859 115.939 156.347 115.939 155.836C115.939 155.324 114.063 154.642 111.847 154.642C109.46 154.472 107.584 154.983 107.584 155.495Z" fill="#407BFF"/>
<path d="M107.465 154.532L107.421 155.554L115.768 155.909L115.812 154.887L107.465 154.532Z" fill="#407BFF"/>
<path d="M107.585 154.472C107.585 154.983 109.46 155.665 111.677 155.665C114.064 155.836 115.939 155.324 115.939 154.813C115.939 154.301 114.064 153.619 111.847 153.619C109.46 153.449 107.585 153.96 107.585 154.472Z" fill="#407BFF"/>
<path opacity="0.4" d="M107.585 154.472C107.585 154.983 109.46 155.665 111.677 155.665C114.064 155.836 115.939 155.324 115.939 154.813C115.939 154.301 114.064 153.619 111.847 153.619C109.46 153.449 107.585 153.96 107.585 154.472Z" fill="white"/>
<path d="M108.096 154.472C108.437 154.301 109.972 153.96 111.847 154.131C113.723 154.131 115.257 154.472 115.428 154.983C115.428 154.983 115.428 154.983 115.428 154.813C115.428 154.472 113.893 153.96 111.847 153.96C109.801 153.79 108.096 154.131 108.096 154.472Z" fill="#407BFF"/>
<path opacity="0.4" d="M108.096 154.472C108.437 154.301 109.972 153.96 111.847 154.131C113.723 154.131 115.257 154.472 115.428 154.983C115.428 154.983 115.428 154.983 115.428 154.813C115.428 154.472 113.893 153.96 111.847 153.96C109.801 153.79 108.096 154.131 108.096 154.472Z" fill="#407BFF"/>
<path opacity="0.4" d="M108.096 154.472C108.267 154.813 109.801 155.154 111.677 155.324C113.552 155.324 115.087 155.154 115.257 154.813C115.087 154.472 113.552 154.131 111.677 153.96C109.972 153.96 108.437 154.131 108.096 154.472Z" fill="#407BFF"/>
<path d="M118.327 158.734C118.156 159.246 119.52 160.439 121.566 161.462C123.612 162.485 125.488 162.826 125.658 162.315C125.829 161.803 124.465 160.61 122.419 159.587C120.373 158.564 118.668 158.223 118.327 158.734Z" fill="#407BFF"/>
<path d="M118.698 157.768L118.263 158.694L125.67 162.174L126.105 161.248L118.698 157.768Z" fill="#407BFF"/>
<path d="M118.838 157.882C118.668 158.393 120.032 159.587 122.078 160.61C124.124 161.633 125.999 161.974 126.17 161.462C126.34 160.951 124.976 159.757 122.93 158.734C120.884 157.711 119.009 157.2 118.838 157.882Z" fill="#407BFF"/>
<path opacity="0.4" d="M118.838 157.882C118.668 158.393 120.032 159.587 122.078 160.61C124.124 161.633 125.999 161.974 126.17 161.462C126.34 160.951 124.976 159.757 122.93 158.734C120.884 157.711 119.009 157.2 118.838 157.882Z" fill="white"/>
<path d="M119.35 158.052C119.179 158.052 119.179 158.052 119.35 158.052C119.691 157.882 121.225 158.393 122.76 159.075C124.465 159.757 125.658 160.78 125.658 161.121C125.829 160.78 124.465 159.757 122.76 158.905C121.055 158.052 119.35 157.711 119.35 158.052Z" fill="#407BFF"/>
<path opacity="0.4" d="M119.35 158.052C119.179 158.052 119.179 158.052 119.35 158.052C119.691 157.882 121.225 158.393 122.76 159.075C124.465 159.757 125.658 160.78 125.658 161.121C125.829 160.78 124.465 159.757 122.76 158.905C121.055 158.052 119.35 157.711 119.35 158.052Z" fill="#407BFF"/>
<path opacity="0.4" d="M119.179 158.052C119.349 158.393 120.543 159.416 122.077 160.098C123.782 160.78 125.146 161.292 125.487 161.121C125.487 160.78 124.123 159.757 122.589 159.075C121.054 158.223 119.69 157.882 119.179 158.052Z" fill="#407BFF"/>
<path d="M114.064 160.61C114.064 161.121 115.769 161.803 118.156 161.803C120.372 161.974 122.248 161.462 122.248 160.951C122.248 160.439 120.543 159.757 118.156 159.757C115.939 159.587 114.064 159.928 114.064 160.61Z" fill="#407BFF"/>
<path d="M114.134 159.541L114.091 160.563L122.267 160.91L122.311 159.888L114.134 159.541Z" fill="#407BFF"/>
<path d="M114.064 159.587C114.064 160.098 115.769 160.78 118.156 160.78C120.372 160.951 122.248 160.439 122.248 159.928C122.248 159.416 120.543 158.734 118.156 158.734C115.939 158.564 114.064 158.905 114.064 159.587Z" fill="#407BFF"/>
<path opacity="0.4" d="M114.064 159.587C114.064 160.098 115.769 160.78 118.156 160.78C120.372 160.951 122.248 160.439 122.248 159.928C122.248 159.416 120.543 158.734 118.156 158.734C115.939 158.564 114.064 158.905 114.064 159.587Z" fill="white"/>
<path d="M114.575 159.587C114.916 159.416 116.451 159.075 118.156 159.246C119.861 159.246 121.395 159.587 121.736 159.928C121.736 159.928 121.736 159.928 121.736 159.757C121.736 159.416 120.202 158.905 118.156 158.905C116.28 158.905 114.575 159.075 114.575 159.587Z" fill="#407BFF"/>
<path opacity="0.4" d="M114.575 159.587C114.916 159.416 116.451 159.075 118.156 159.246C119.861 159.246 121.395 159.587 121.736 159.928C121.736 159.928 121.736 159.928 121.736 159.757C121.736 159.416 120.202 158.905 118.156 158.905C116.28 158.905 114.575 159.075 114.575 159.587Z" fill="#407BFF"/>
<path opacity="0.4" d="M114.575 159.587C114.746 159.928 116.28 160.269 118.156 160.269C119.861 160.269 121.395 160.098 121.736 159.757C121.566 159.416 120.031 159.075 118.156 159.075C116.451 159.075 114.916 159.246 114.575 159.587Z" fill="#407BFF"/>
<path d="M42.113 46.3755V49.1035C43.818 49.274 45.3525 49.956 46.7165 50.979L48.592 49.1035C46.887 47.3985 44.6705 46.3755 42.113 46.3755Z" fill="#407BFF"/>
<path d="M40.9198 64.96C36.9983 64.619 33.9293 61.55 33.5883 57.6285H30.8604C31.2013 63.0845 35.4638 67.347 40.9198 67.688V64.96Z" fill="#407BFF"/>
<path d="M33.4177 56.2645C33.7587 52.343 36.8276 49.2741 40.7491 48.9331V46.2051C35.2932 46.5461 31.0307 50.8085 30.6897 56.2645H33.4177Z" fill="#407BFF"/>
<path opacity="0.2" d="M33.4177 56.2645C33.7587 52.343 36.8276 49.2741 40.7491 48.9331V46.2051C35.2932 46.5461 31.0307 50.8085 30.6897 56.2645H33.4177Z" fill="black"/>
<path d="M49.4445 49.9561L47.569 51.8315C48.7625 53.1955 49.4445 55.071 49.4445 57.117C49.4445 61.3795 46.205 64.7894 42.113 65.1304V67.8584C47.7395 67.5174 52.1725 62.914 52.1725 57.117C52.1725 54.2185 51.1495 51.8315 49.4445 49.9561Z" fill="#407BFF"/>
<g opacity="0.8">
<path opacity="0.8" d="M42.113 46.3755V49.1035C43.818 49.274 45.3525 49.956 46.7165 50.979L48.592 49.1035C46.887 47.3985 44.6705 46.3755 42.113 46.3755Z" fill="white"/>
</g>
<path d="M40.9198 64.96C36.9983 64.619 33.9293 61.55 33.5883 57.6285H30.8604C31.2013 63.0845 35.4638 67.347 40.9198 67.688V64.96Z" fill="#CBCBFF"/>
<g opacity="0.7">
<path opacity="0.7" d="M33.4177 56.2645C33.7587 52.343 36.8276 49.2741 40.7491 48.9331V46.2051C35.2932 46.5461 31.0307 50.8085 30.6897 56.2645H33.4177Z" fill="white"/>
</g>
<path d="M49.4445 49.9561L47.569 51.8315C48.7625 53.1955 49.4445 55.071 49.4445 57.117C49.4445 61.3795 46.205 64.7894 42.113 65.1304V67.8584C47.7395 67.5174 52.1725 62.914 52.1725 57.117C52.1725 54.2185 51.1495 51.8315 49.4445 49.9561Z" fill="#D2E3FC"/>
<path d="M61.0381 43.4772L64.4481 48.0807L84.0554 39.8967L103.151 46.7167L120.372 35.4638L121.736 37.1687L125.828 30.5193L116.621 29.6668L117.985 31.5423L100.594 42.6247L81.8389 35.9753L61.0381 43.4772Z" fill="#407BFF"/>
<path d="M61.0381 43.4772L64.4481 48.0807L84.0554 39.8967L103.151 46.7167L120.372 35.4638L121.736 37.1687L125.828 30.5193L116.621 29.6668L117.985 31.5423L100.594 42.6247L81.8389 35.9753L61.0381 43.4772Z" fill="#D2E3FC"/>
<path d="M141.343 46.3756C138.956 46.3756 137.081 48.2511 137.081 50.6381C137.081 53.0251 138.956 54.9005 141.343 54.9005C143.73 54.9005 145.606 53.0251 145.606 50.6381C145.606 48.2511 143.73 46.3756 141.343 46.3756ZM141.343 52.8546C140.15 52.8546 139.127 51.8316 139.127 50.6381C139.127 49.4446 140.15 48.4216 141.343 48.4216C142.537 48.4216 143.56 49.4446 143.56 50.6381C143.56 51.8316 142.537 52.8546 141.343 52.8546Z" fill="#407BFF"/>
<path d="M152.255 58.9926C149.868 58.9926 147.993 60.868 147.993 63.255C147.993 65.642 149.868 67.5175 152.255 67.5175C154.642 67.5175 156.518 65.642 156.518 63.255C156.518 60.868 154.642 58.9926 152.255 58.9926ZM152.255 65.4715C151.062 65.4715 150.039 64.4485 150.039 63.255C150.039 62.0615 151.062 61.0385 152.255 61.0385C153.449 61.0385 154.472 62.0615 154.472 63.255C154.301 64.4485 153.449 65.4715 152.255 65.4715Z" fill="#407BFF"/>
<path d="M143.048 67.6879H140.15L150.039 46.3756H152.937L143.048 67.6879Z" fill="#407BFF"/>
<g opacity="0.5">
<path opacity="0.5" d="M141.343 46.3756C138.956 46.3756 137.081 48.2511 137.081 50.6381C137.081 53.0251 138.956 54.9005 141.343 54.9005C143.73 54.9005 145.606 53.0251 145.606 50.6381C145.606 48.2511 143.73 46.3756 141.343 46.3756ZM141.343 52.8546C140.15 52.8546 139.127 51.8316 139.127 50.6381C139.127 49.4446 140.15 48.4216 141.343 48.4216C142.537 48.4216 143.56 49.4446 143.56 50.6381C143.56 51.8316 142.537 52.8546 141.343 52.8546Z" fill="white"/>
<path opacity="0.5" d="M152.255 58.9926C149.868 58.9926 147.993 60.868 147.993 63.255C147.993 65.642 149.868 67.5175 152.255 67.5175C154.642 67.5175 156.518 65.642 156.518 63.255C156.518 60.868 154.642 58.9926 152.255 58.9926ZM152.255 65.4715C151.062 65.4715 150.039 64.4485 150.039 63.255C150.039 62.0615 151.062 61.0385 152.255 61.0385C153.449 61.0385 154.472 62.0615 154.472 63.255C154.301 64.4485 153.449 65.4715 152.255 65.4715Z" fill="white"/>
<g opacity="0.5">
<path opacity="0.5" d="M143.048 67.6879H140.15L150.039 46.3756H152.937L143.048 67.6879Z" fill="white"/>
</g>
</g>
<path d="M91.8984 48.2512C92.0689 48.7627 92.0689 49.2742 92.2394 49.7857C92.4099 50.2972 92.5804 50.8087 92.5804 51.3202C92.9214 52.3432 93.2624 53.1957 93.6034 54.2186C94.2854 56.2646 95.3084 58.1401 96.6724 60.0156C97.0134 60.5271 97.5249 61.0386 97.8659 61.3796C98.3774 61.8911 98.8889 62.2321 99.5709 62.5731C100.764 63.0846 102.128 63.4256 103.492 63.2551C104.686 63.2551 105.709 62.9141 106.902 62.4026C107.414 62.2321 107.925 61.8911 108.437 61.7206C108.607 61.5501 108.948 61.3796 109.119 61.2091C109.289 61.0386 109.63 60.8681 109.801 60.6976L108.607 58.6516L107.925 58.8221L107.243 58.9926C106.732 59.1631 106.391 59.1631 105.879 59.1631C105.027 59.3336 104.345 59.3336 103.492 59.1631C102.81 59.1631 102.299 58.8221 101.617 58.4811C101.446 58.3106 101.105 58.1401 100.935 57.9696C100.764 57.6286 100.423 57.4581 100.253 57.1171C99.7414 56.4351 99.4004 55.5826 99.0594 54.9006C98.7184 54.0482 98.3774 53.1957 98.0364 52.3432C97.6954 51.4907 97.5249 50.6382 97.1839 49.6152L96.8429 48.2512C96.6724 47.7397 96.6724 47.3987 96.5019 46.8872L91.8984 48.2512Z" fill="#FF8B7B"/>
<path d="M91.5574 45.5231C93.6034 42.9657 96.6723 43.8182 98.3773 47.9101C99.4003 50.1266 100.082 52.3431 100.594 54.7301L93.4329 57.2875C91.5574 53.3661 89.5114 48.2511 91.5574 45.5231Z" fill="#407BFF"/>
<path d="M91.5574 45.5231C93.6034 42.9657 96.6723 43.8182 98.3773 47.9101C99.4003 50.1266 100.082 52.3431 100.594 54.7301L93.4329 57.2875C91.5574 53.3661 89.5114 48.2511 91.5574 45.5231Z" fill="#399EFD"/>
<path opacity="0.3" d="M94.6265 49.7856C94.115 49.4446 92.751 51.6611 92.2395 54.3891C92.5805 55.4121 93.092 56.2646 93.433 57.1171L97.6955 55.5826C97.0135 53.1956 95.9905 50.8086 94.6265 49.7856Z" fill="black"/>
<path d="M108.948 57.6286L110.483 56.7761L110.994 60.3565C110.994 60.3565 108.437 61.891 107.584 60.6975V59.845C107.755 58.822 108.266 58.1401 108.948 57.6286Z" fill="#FF8B7B"/>
<path d="M112.529 56.6056L113.893 59.5041L110.994 60.3566L110.483 56.7761L112.529 56.6056Z" fill="#FF8B7B"/>
<path d="M91.5576 43.3067L87.8066 42.7952L83.2031 43.1362C81.8391 43.3067 80.6456 44.3297 80.3046 45.6936C79.7931 48.4216 79.4521 52.3431 79.4521 55.7531C79.2816 59.504 79.7931 65.1305 80.3046 70.2454L95.6495 68.37C95.82 55.0711 96.843 50.8086 97.0135 47.3986C97.0135 46.0346 96.161 44.6707 94.797 44.3297L91.5576 43.3067Z" fill="#407BFF"/>
<path d="M96.1609 109.46L99.4004 110.313L102.299 102.64L99.0594 101.788L96.1609 109.46Z" fill="#FF8B7B"/>
<path d="M100.935 109.29C100.765 108.949 100.253 108.778 99.9121 108.608L96.5022 107.926C96.3317 107.926 96.1612 107.926 96.1612 108.096L95.1382 111.165C94.9677 111.506 95.1382 111.847 95.4792 112.018C96.6727 112.529 97.5252 112.359 99.4006 112.7C100.594 112.87 103.152 113.723 104.686 113.723C106.391 113.723 106.391 112.018 105.709 111.847C103.322 111.506 101.447 110.142 100.935 109.29Z" fill="#1A2E35"/>
<g opacity="0.2">
<path opacity="0.2" d="M102.299 102.64L100.765 106.732L97.5251 105.709L99.0596 101.788L102.299 102.64Z" fill="black"/>
</g>
<path d="M110.483 80.1343C110.313 81.3278 110.142 82.5213 109.801 83.7148C108.949 86.9542 107.414 90.3642 106.221 93.7742C103.834 100.253 101.788 105.88 101.788 105.88L97.3547 104.345C97.3547 104.345 101.276 85.4198 104.004 83.5443H87.4658C87.1248 83.5443 86.7838 83.5443 86.6133 83.5443C89.5118 83.2033 93.9447 81.4983 98.0367 79.6228C101.617 78.0883 105.027 76.5538 106.903 75.8718C109.119 76.8948 110.654 78.2588 110.483 80.1343Z" fill="#1A2E35"/>
<path d="M110.483 80.1343C110.313 81.3278 110.142 82.5213 109.801 83.7148C108.949 86.9542 107.414 90.3642 106.221 93.7742C103.834 100.253 101.788 105.88 101.788 105.88L97.3547 104.345C97.3547 104.345 101.276 85.4198 104.004 83.5443H87.4658C87.1248 83.5443 86.7838 83.5443 86.6133 83.5443C89.5118 83.2033 93.9447 81.4983 98.0367 79.6228C101.617 78.0883 105.027 76.5538 106.903 75.8718C109.119 76.8948 110.654 78.2588 110.483 80.1343Z" fill="url(#paint0_linear_601_7938)"/>
<path opacity="0.6" d="M106.902 75.8719C105.027 76.5539 101.617 78.0884 98.0365 79.6229C93.9446 81.3278 89.5116 83.2033 86.6131 83.5443C81.8392 82.8623 79.9637 77.2359 85.0786 70.5864C88.3181 70.5864 91.5576 73.6554 91.5576 73.6554C91.5576 73.6554 101.276 73.6554 106.902 75.8719Z" fill="black"/>
<path d="M118.837 102.811H122.418L118.667 93.7742L116.28 97.8662L118.837 102.811Z" fill="#FF8B7B"/>
<path d="M122.248 101.958L117.985 100.935C117.815 100.935 117.644 100.935 117.644 101.106L116.451 104.345C116.28 104.686 116.621 105.027 116.962 105.198C118.497 105.539 119.179 105.539 121.054 106.05C122.248 106.391 125.146 107.073 126.681 107.414C128.215 107.755 128.727 106.221 128.045 105.88C125.146 104.516 123.612 103.322 122.759 102.299C122.589 102.129 122.418 101.958 122.248 101.958Z" fill="#1A2E35"/>
<g opacity="0.2">
<path opacity="0.2" d="M118.667 93.7742L120.372 97.5252L116.962 99.4007L116.28 97.8662L118.667 93.7742Z" fill="black"/>
</g>
<path d="M120.372 96.1612L116.28 98.5482C116.28 98.5482 112.87 91.5578 109.801 83.5443C110.142 82.3509 110.313 81.1574 110.483 79.9639C110.654 78.0884 109.119 76.7244 106.903 75.7014C105.027 76.3834 101.617 77.9179 98.0367 79.4524C93.9447 81.1574 89.5118 83.0329 86.6133 83.3738C86.2723 83.3738 85.9313 83.3738 85.5903 83.3738C80.1343 83.3738 78.2588 78.5999 80.4753 70.4159C83.7148 70.4159 89.3413 70.0749 89.3413 70.0749C89.3413 70.0749 100.083 67.5175 107.926 68.37C111.677 68.8815 114.746 71.6094 115.428 75.3604C117.303 85.4198 120.372 96.1612 120.372 96.1612Z" fill="#1A2E35"/>
<path d="M120.372 96.1612L116.28 98.5482C116.28 98.5482 112.87 91.5578 109.801 83.5443C110.142 82.3509 110.313 81.1574 110.483 79.9639C110.654 78.0884 109.119 76.7244 106.903 75.7014C105.027 76.3834 101.617 77.9179 98.0367 79.4524C93.9447 81.1574 89.5118 83.0329 86.6133 83.3738C86.2723 83.3738 85.9313 83.3738 85.5903 83.3738C80.1343 83.3738 78.2588 78.5999 80.4753 70.4159C83.7148 70.4159 89.3413 70.0749 89.3413 70.0749C89.3413 70.0749 100.083 67.5175 107.926 68.37C111.677 68.8815 114.746 71.6094 115.428 75.3604C117.303 85.4198 120.372 96.1612 120.372 96.1612Z" fill="url(#paint1_linear_601_7938)"/>
<path d="M91.5576 43.3067L87.8066 42.7952L83.2031 43.1362C81.8391 43.3067 80.6456 44.3297 80.3046 45.6936C79.7931 48.4216 79.4521 52.3431 79.4521 55.7531C79.2816 59.504 79.7931 65.1305 80.3046 70.2454L95.6495 68.37C95.82 55.0711 96.843 50.8086 97.0135 47.3986C97.0135 46.0346 96.161 44.6707 94.797 44.3297L91.5576 43.3067Z" fill="#399EFD"/>
<path d="M80.3046 69.393L79.9636 70.5865C79.9636 70.757 79.9636 70.757 80.1341 70.757L95.479 69.9045C95.6495 69.9045 95.6495 69.9045 95.6495 69.734L95.82 68.5405C95.82 68.37 95.6495 68.37 95.6495 68.37L80.6456 69.2225C80.4751 69.393 80.4751 69.393 80.3046 69.393Z" fill="#1A2E35"/>
<path opacity="0.1" d="M80.3046 69.393L79.9636 70.5865C79.9636 70.757 79.9636 70.757 80.1341 70.757L95.479 69.9045C95.6495 69.9045 95.6495 69.9045 95.6495 69.734L95.82 68.5405C95.82 68.37 95.6495 68.37 95.6495 68.37L80.6456 69.2225C80.4751 69.393 80.4751 69.393 80.3046 69.393Z" fill="black"/>
<path opacity="0.3" d="M82.0098 44.5002C85.0788 43.9887 84.9083 50.8086 83.5443 55.9236C83.2033 57.4581 81.3278 56.7761 80.8163 56.4351C78.7704 55.0711 78.0884 46.7167 82.0098 44.5002Z" fill="black"/>
<path d="M81.4984 54.7301C81.6689 57.799 80.6459 59.3335 82.1804 60.3565C83.7149 61.3795 93.2628 64.4485 93.4333 64.1075C92.9218 64.7895 92.5808 65.4715 92.0693 66.1535C89.3413 65.8125 86.6133 65.301 83.8854 64.96C81.8394 64.7895 78.7704 64.278 77.0654 62.914C75.7014 61.7205 75.8719 56.7761 76.2129 53.1956C77.7474 52.5136 81.4984 54.7301 81.4984 54.7301Z" fill="#FF8B7B"/>
<path d="M80.8161 43.3068C83.8851 42.4543 85.0786 44.8412 84.2261 49.2742C83.7146 51.6612 83.0326 53.8777 82.1801 56.0942L75.7012 54.0482C76.2127 49.6152 77.5767 44.1593 80.8161 43.3068Z" fill="#399EFD"/>
<path d="M85.2492 43.3067C85.0787 43.9887 85.4197 44.6707 85.7607 45.1822C86.1017 45.6937 86.6132 46.2052 87.1247 46.7167C87.8067 47.2282 88.4887 47.9102 89.3412 47.7397C90.1937 47.5692 90.5347 47.2282 90.8757 46.3757C91.5577 47.3987 91.5577 47.9102 92.2397 48.0807C92.7511 48.0807 93.0921 47.7397 93.4331 47.3987C93.9446 46.8872 94.2856 46.3757 94.4561 45.6937C94.6266 44.3297 93.6036 43.1362 92.2397 42.6247C90.8757 42.1132 89.6822 41.9427 88.3182 41.7722C86.9542 41.4312 85.5902 41.9427 85.2492 43.3067Z" fill="#407BFF"/>
<path d="M85.2492 43.3067C85.0787 43.9887 85.4197 44.6707 85.7607 45.1822C86.1017 45.6937 86.6132 46.2052 87.1247 46.7167C87.8067 47.2282 88.4887 47.9102 89.3412 47.7397C90.1937 47.5692 90.5347 47.2282 90.8757 46.3757C91.5577 47.3987 91.5577 47.9102 92.2397 48.0807C92.7511 48.0807 93.0921 47.7397 93.4331 47.3987C93.9446 46.8872 94.2856 46.3757 94.4561 45.6937C94.6266 44.3297 93.6036 43.1362 92.2397 42.6247C90.8757 42.1132 89.6822 41.9427 88.3182 41.7722C86.9542 41.4312 85.5902 41.9427 85.2492 43.3067Z" fill="#BEBEF4"/>
<path d="M88.4885 36.8277L90.1935 38.7032L92.41 41.2607C92.2395 41.6017 92.069 41.7722 91.8985 42.1132C91.728 42.7952 91.728 43.6476 92.5805 44.1591C92.9215 44.3296 93.092 46.0346 90.8755 45.8641C89.341 45.8641 88.318 45.1821 87.4655 44.3296C87.1245 43.8181 86.954 43.4771 87.295 42.7952C88.4885 41.2607 88.659 38.7032 88.4885 36.8277Z" fill="#FF8B7B"/>
<path opacity="0.2" d="M91.8986 40.5787L90.3641 38.7032V38.8737C90.3641 39.2147 90.1936 39.3852 90.1936 39.7262C90.0231 40.5787 91.0461 41.7722 91.8986 42.4542V42.2837C92.0691 41.9427 92.0691 41.6017 92.2396 41.4312L91.8986 40.5787Z" fill="black"/>
<path d="M88.659 33.2473C88.318 36.3163 88.1475 38.1917 89.5115 39.8967C91.5574 42.6247 95.4789 41.6017 96.6724 38.7032C97.6954 35.9753 97.8659 31.3718 95.1379 29.8373C93.0919 28.6438 90.3639 29.4963 89.341 31.5423C88.8295 32.0538 88.659 32.5653 88.659 33.2473Z" fill="#FF8B7B"/>
<path d="M88.1476 35.9753L89.5115 36.4868C90.023 36.3163 90.023 35.8048 90.023 35.2933C89.8525 33.4178 93.2625 31.0309 93.2625 31.0309C93.2625 31.0309 89.682 29.8374 88.659 29.6669C88.3181 29.6669 86.9541 30.5194 86.7836 31.0309C86.2721 32.2244 86.4426 33.7588 87.2951 34.7818C87.4656 35.2933 87.8066 35.6343 88.1476 35.9753Z" fill="#1A2E35"/>
<path d="M87.1249 35.4638C87.1249 36.1458 87.4659 36.8278 87.9774 37.3393C88.6594 38.0213 89.5119 37.3393 89.5119 36.4868C89.5119 35.6343 89.1709 34.6113 88.3184 34.2703C87.6364 33.9293 86.9544 34.6113 87.1249 35.4638Z" fill="#FF8B7B"/>
<path d="M93.2627 35.1228C93.2627 35.2933 93.2627 35.6343 93.4332 35.6343C93.6037 35.6343 93.7742 35.4638 93.7742 35.2933C93.7742 35.1228 93.7742 34.7818 93.6037 34.7818C93.4332 34.6113 93.2627 34.7818 93.2627 35.1228Z" fill="#1A2E35"/>
<path d="M96.1609 35.8047C96.1609 36.1457 96.1609 36.3162 96.3314 36.3162C96.5019 36.3162 96.6724 36.1457 96.6724 35.9752C96.6724 35.8047 96.6724 35.4637 96.5019 35.4637C96.3314 35.2932 96.1609 35.4637 96.1609 35.8047Z" fill="#1A2E35"/>
<path d="M95.1382 35.8047C95.3087 36.4867 95.4792 37.1687 95.6497 37.8507C95.1382 38.0212 94.6267 37.6802 94.6267 37.6802L95.1382 35.8047Z" fill="#FF5551"/>
<path d="M93.9443 39.2148C93.4328 39.0443 92.9213 38.5328 92.5803 38.0213C92.5803 38.0213 92.5803 38.0213 92.5803 37.8508C92.5803 37.8508 92.5803 37.8508 92.7508 37.8508C93.0918 38.5328 93.6033 38.8738 94.2853 39.0443C94.2853 39.0443 94.2853 39.0443 94.2853 39.2148C94.2853 39.2148 94.2853 39.2148 94.1148 39.2148C94.1148 39.2148 94.1148 39.2148 93.9443 39.2148Z" fill="#1A2E35"/>
<path d="M92.9213 34.0998C92.7508 33.9293 92.7508 33.9293 92.9213 33.7588C93.2623 33.4178 93.7738 33.2473 94.2853 33.4178L94.4558 33.5883L94.2853 33.7588C93.7738 33.7588 93.2623 33.7588 92.9213 34.0998C93.0918 34.0998 92.9213 34.0998 92.9213 34.0998Z" fill="#1A2E35"/>
<path d="M96.502 34.0998C96.502 33.9293 96.6725 33.9293 96.6725 33.9293C97.184 34.0998 97.5249 34.4408 97.6954 34.7818C97.6954 34.7818 97.6954 34.9523 97.5249 34.9523C97.5249 34.9523 97.3544 34.9523 97.3544 34.7818C97.1839 34.6113 97.0134 34.2703 96.502 34.0998Z" fill="#1A2E35"/>
<path d="M97.3544 69.2224H116.791C117.473 69.2224 118.155 68.7109 118.155 68.0289L119.008 58.14C119.008 57.458 118.496 56.9465 117.814 56.9465H98.3774C97.6954 56.9465 97.0134 57.458 97.0134 58.14L96.1609 68.0289C96.1609 68.5404 96.6724 69.0519 97.3544 69.2224Z" fill="#407BFF"/>
<path opacity="0.3" d="M97.3544 69.2224H116.791C117.473 69.2224 118.155 68.7109 118.155 68.0289L119.008 58.14C119.008 57.458 118.496 56.9465 117.814 56.9465H98.3774C97.6954 56.9465 97.0134 57.458 97.0134 58.14L96.1609 68.0289C96.1609 68.5404 96.6724 69.0519 97.3544 69.2224Z" fill="black"/>
<path d="M98.0363 69.0519H117.473C118.155 69.0519 118.837 68.5404 118.837 67.8584L119.69 57.9695C119.69 57.2875 119.178 56.776 118.496 56.776H99.0593C98.3773 56.776 97.6953 57.2875 97.6953 57.9695L96.8428 67.8584C96.8428 68.5404 97.3543 69.0519 98.0363 69.0519Z" fill="#407BFF"/>
<path d="M98.0363 69.0519H117.473C118.155 69.0519 118.837 68.5404 118.837 67.8584L119.69 57.9695C119.69 57.2875 119.178 56.776 118.496 56.776H99.0593C98.3773 56.776 97.6953 57.2875 97.6953 57.9695L96.8428 67.8584C96.8428 68.5404 97.3543 69.0519 98.0363 69.0519Z" fill="url(#paint2_linear_601_7938)"/>
<path d="M109.63 63.0845C109.63 63.7665 108.948 64.4485 108.096 64.278C107.414 64.278 106.732 63.596 106.902 62.7435C106.902 62.0615 107.584 61.3795 108.437 61.55C109.119 61.7205 109.801 62.232 109.63 63.0845Z" fill="#399EFD"/>
<path d="M117.815 69.2224C117.815 69.7339 117.474 70.2454 116.962 70.2454H96.8432C96.6727 70.2454 96.5022 70.0749 96.5022 69.7339C96.5022 69.3929 96.6727 69.2224 96.8432 69.2224H117.815Z" fill="#407BFF"/>
<path d="M117.815 69.2224C117.815 69.7339 117.474 70.2454 116.962 70.2454H96.8432C96.6727 70.2454 96.5022 70.0749 96.5022 69.7339C96.5022 69.3929 96.6727 69.2224 96.8432 69.2224H117.815Z" fill="url(#paint3_linear_601_7938)"/>
<path d="M96.6725 70.0749H86.9541C86.4426 70.0749 86.1016 69.7339 86.1016 69.2224C86.1016 69.2224 86.1016 69.0519 86.2721 69.0519H96.6725C97.0135 69.0519 97.184 69.2224 97.184 69.5634C97.3545 69.9044 97.0135 70.0749 96.6725 70.0749Z" fill="url(#paint4_linear_601_7938)"/>
<path d="M91.5574 62.5731L93.0919 62.0616L92.9214 65.9831C92.9214 65.9831 89.5114 66.8355 89.1704 65.1306L89.6819 64.2781C90.0229 63.7666 90.5344 62.9141 91.5574 62.5731Z" fill="#FF8B7B"/>
<path d="M95.4786 63.255L94.9671 65.4715L92.9211 66.1535L93.0916 62.2321L95.4786 63.255Z" fill="#FF8B7B"/>
<path d="M96.1609 104.004L102.81 106.221L104.174 103.493L96.8429 101.106L96.1609 104.004Z" fill="#407BFF"/>
<path d="M115.257 99.2303L121.395 95.8203L120.372 92.9218L113.722 96.8433L115.257 99.2303Z" fill="#407BFF"/>
<path d="M97.6955 33.2472C98.548 33.2472 99.0595 32.0537 98.889 31.7127C98.7185 31.0307 98.3775 30.5192 97.866 30.1782C98.207 29.3257 97.6955 28.1323 96.6725 27.4503C95.9905 26.9388 94.797 26.9388 93.9445 27.2798C93.9445 26.4273 92.41 25.9158 91.5575 26.9388C90.705 26.4273 89.682 26.4273 89 27.1093C88.659 27.2798 88.4885 27.6208 88.659 27.9618C87.977 27.9618 87.1246 28.4733 86.7836 29.1552C86.4426 29.8372 86.4426 30.6897 86.954 31.3717C87.295 31.8832 87.977 31.8832 88.4885 31.7127C88.659 32.2242 89.341 32.5652 89.8525 32.7357C91.5575 33.2472 93.9445 32.7357 94.456 32.7357C94.797 32.7357 95.3085 32.7357 95.6495 32.9062C95.479 33.0767 95.138 33.2472 94.9675 33.2472C94.6265 33.2472 94.456 33.2472 94.115 33.2472C94.797 33.5882 95.479 33.7587 96.161 33.5882C96.3315 33.5882 96.843 33.2472 97.0135 33.2472C97.3545 33.0767 97.6955 33.2472 97.6955 33.2472Z" fill="#1A2E35"/>
<defs>
<linearGradient id="paint0_linear_601_7938" x1="86.5424" y1="90.9265" x2="110.473" y2="90.9265" gradientUnits="userSpaceOnUse">
<stop stop-color="#3D5475"/>
<stop offset="0.2549" stop-color="#364F6F"/>
<stop offset="0.6276" stop-color="#22425F"/>
<stop offset="1" stop-color="#083149"/>
</linearGradient>
<linearGradient id="paint1_linear_601_7938" x1="79.4916" y1="83.5287" x2="120.342" y2="83.5287" gradientUnits="userSpaceOnUse">
<stop stop-color="#3D5475"/>
<stop offset="0.2549" stop-color="#364F6F"/>
<stop offset="0.6276" stop-color="#22425F"/>
<stop offset="1" stop-color="#083149"/>
</linearGradient>
<linearGradient id="paint2_linear_601_7938" x1="96.8373" y1="62.9325" x2="119.764" y2="62.9325" gradientUnits="userSpaceOnUse">
<stop stop-color="#3D5475"/>
<stop offset="0.2549" stop-color="#364F6F"/>
<stop offset="0.6276" stop-color="#22425F"/>
<stop offset="1" stop-color="#083149"/>
</linearGradient>
<linearGradient id="paint3_linear_601_7938" x1="96.4408" y1="69.6342" x2="117.769" y2="69.6342" gradientUnits="userSpaceOnUse">
<stop stop-color="#3D5475"/>
<stop offset="0.2549" stop-color="#364F6F"/>
<stop offset="0.6276" stop-color="#22425F"/>
<stop offset="1" stop-color="#083149"/>
</linearGradient>
<linearGradient id="paint4_linear_601_7938" x1="86.1012" y1="69.5958" x2="97.2714" y2="69.5958" gradientUnits="userSpaceOnUse">
<stop stop-color="#3D5475"/>
<stop offset="0.2549" stop-color="#364F6F"/>
<stop offset="0.6276" stop-color="#22425F"/>
<stop offset="1" stop-color="#083149"/>
</linearGradient>
</defs>
</svg>
