<svg width="382" height="407" viewBox="0 0 382 407" fill="none" xmlns="http://www.w3.org/2000/svg">
<g clip-path="url(#clip0_601_7334)">
<path d="M153.548 0.210468C153.578 0.210468 153.608 0.180343 153.608 0.150217C153.608 0.120091 153.578 0.0899658 153.548 0.0899658C153.518 0.0899658 153.488 0.120091 153.488 0.150217C153.488 0.180343 153.518 0.210468 153.548 0.210468Z" fill="#399EFD" fill-opacity="0.14"/>
<path d="M178.905 0.269735C178.994 0.269735 179.054 0.209794 179.054 0.119882C179.054 0.0299705 178.994 0 178.905 0C178.815 0 178.755 0.0599411 178.755 0.149853C178.755 0.239764 178.845 0.269735 178.905 0.269735Z" fill="#399EFD" fill-opacity="0.14"/>
<path d="M204.262 0.210468C204.295 0.210468 204.322 0.183493 204.322 0.150217C204.322 0.116941 204.295 0.0899658 204.262 0.0899658C204.229 0.0899658 204.202 0.116941 204.202 0.150217C204.202 0.183493 204.229 0.210468 204.262 0.210468Z" fill="#399EFD" fill-opacity="0.14"/>
<path d="M77.4769 25.6254C77.5069 25.6254 77.537 25.5953 77.537 25.5651C77.537 25.535 77.5069 25.5049 77.4769 25.5049C77.4468 25.5049 77.4167 25.535 77.4167 25.5651C77.4167 25.5953 77.4468 25.6254 77.4769 25.6254Z" fill="#399EFD" fill-opacity="0.14"/>
<path d="M102.833 26.0444C103.103 26.0444 103.312 25.8346 103.312 25.5649C103.312 25.2951 103.103 25.0853 102.833 25.0853C102.564 25.0853 102.355 25.2951 102.355 25.5649C102.355 25.8346 102.564 26.0444 102.833 26.0444Z" fill="#399EFD" fill-opacity="0.14"/>
<path d="M128.191 26.4939C128.703 26.4939 129.118 26.0779 129.118 25.5648C129.118 25.0517 128.703 24.6357 128.191 24.6357C127.679 24.6357 127.264 25.0517 127.264 25.5648C127.264 26.0779 127.679 26.4939 128.191 26.4939Z" fill="#399EFD" fill-opacity="0.14"/>
<path d="M153.548 26.8237C154.241 26.8237 154.804 26.2601 154.804 25.5649C154.804 24.8697 154.241 24.3062 153.548 24.3062C152.854 24.3062 152.292 24.8697 152.292 25.5649C152.292 26.2601 152.854 26.8237 153.548 26.8237Z" fill="#399EFD" fill-opacity="0.14"/>
<path d="M178.905 26.9735C179.681 26.9735 180.31 26.3428 180.31 25.5649C180.31 24.7869 179.681 24.1562 178.905 24.1562C178.128 24.1562 177.499 24.7869 177.499 25.5649C177.499 26.3428 178.128 26.9735 178.905 26.9735Z" fill="#399EFD" fill-opacity="0.14"/>
<path d="M204.262 26.8237C204.955 26.8237 205.517 26.2601 205.517 25.5649C205.517 24.8697 204.955 24.3062 204.262 24.3062C203.568 24.3062 203.006 24.8697 203.006 25.5649C203.006 26.2601 203.568 26.8237 204.262 26.8237Z" fill="#399EFD" fill-opacity="0.14"/>
<path d="M229.619 26.5539C230.164 26.5539 230.605 26.1111 230.605 25.5648C230.605 25.0186 230.164 24.5758 229.619 24.5758C229.074 24.5758 228.632 25.0186 228.632 25.5648C228.632 26.1111 229.074 26.5539 229.619 26.5539Z" fill="#399EFD" fill-opacity="0.14"/>
<path d="M254.976 26.0444C255.24 26.0444 255.454 25.8297 255.454 25.5649C255.454 25.3 255.24 25.0853 254.976 25.0853C254.712 25.0853 254.497 25.3 254.497 25.5649C254.497 25.8297 254.712 26.0444 254.976 26.0444Z" fill="#399EFD" fill-opacity="0.14"/>
<path d="M280.333 25.7147C280.415 25.7147 280.482 25.6477 280.482 25.5649C280.482 25.4821 280.415 25.415 280.333 25.415C280.25 25.415 280.183 25.4821 280.183 25.5649C280.183 25.6477 280.25 25.7147 280.333 25.7147Z" fill="#399EFD" fill-opacity="0.14"/>
<path d="M52.1195 51.2497C52.269 51.2497 52.3886 51.1298 52.3886 50.9799C52.3886 50.8301 52.269 50.7102 52.1195 50.7102C51.97 50.7102 51.8503 50.8301 51.8503 50.9799C51.8503 51.1298 51.97 51.2497 52.1195 51.2497Z" fill="#399EFD" fill-opacity="0.14"/>
<path d="M77.4765 52.0288C78.0446 52.0288 78.5231 51.5493 78.5231 50.9799C78.5231 50.4104 78.0446 49.9309 77.4765 49.9309C76.9084 49.9309 76.4299 50.4104 76.4299 50.9799C76.4299 51.5493 76.9084 52.0288 77.4765 52.0288Z" fill="#399EFD" fill-opacity="0.14"/>
<path d="M102.834 52.7482C103.79 52.7482 104.598 51.969 104.598 50.9799C104.598 50.0209 103.82 49.2117 102.834 49.2117C101.877 49.2117 101.069 49.9909 101.069 50.9799C101.069 51.939 101.877 52.7482 102.834 52.7482Z" fill="#399EFD" fill-opacity="0.14"/>
<path d="M128.191 53.3776C129.506 53.3776 130.583 52.2986 130.583 50.9799C130.583 49.6612 129.506 48.5823 128.191 48.5823C126.875 48.5823 125.798 49.6612 125.798 50.9799C125.798 52.2986 126.875 53.3776 128.191 53.3776Z" fill="#399EFD" fill-opacity="0.14"/>
<path d="M153.548 53.7072C155.073 53.7072 156.299 52.4784 156.299 50.9499C156.299 49.4214 155.073 48.1926 153.548 48.1926C152.023 48.1926 150.797 49.4214 150.797 50.9499C150.827 52.4784 152.053 53.7072 153.548 53.7072Z" fill="#399EFD" fill-opacity="0.14"/>
<path d="M178.905 53.857C180.489 53.857 181.775 52.5683 181.775 50.9798C181.775 49.3914 180.489 48.1027 178.905 48.1027C177.32 48.1027 176.034 49.3914 176.034 50.9798C176.034 52.5683 177.32 53.857 178.905 53.857Z" fill="#399EFD" fill-opacity="0.14"/>
<path d="M204.262 53.7372C205.781 53.7372 207.013 52.5028 207.013 50.9799C207.013 49.4571 205.781 48.2227 204.262 48.2227C202.742 48.2227 201.511 49.4571 201.511 50.9799C201.511 52.5028 202.742 53.7372 204.262 53.7372Z" fill="#399EFD" fill-opacity="0.14"/>
<path d="M229.618 53.3776C230.934 53.3776 232.011 52.2986 232.011 50.9799C232.011 49.6612 230.934 48.5823 229.618 48.5823C228.303 48.5823 227.226 49.6612 227.226 50.9799C227.226 52.2986 228.303 53.3776 229.618 53.3776Z" fill="#399EFD" fill-opacity="0.14"/>
<path d="M254.976 52.8081C255.983 52.8081 256.8 51.9896 256.8 50.9799C256.8 49.9702 255.983 49.1517 254.976 49.1517C253.968 49.1517 253.152 49.9702 253.152 50.9799C253.152 51.9896 253.968 52.8081 254.976 52.8081Z" fill="#399EFD" fill-opacity="0.14"/>
<path d="M280.333 52.0888C280.961 52.0888 281.469 51.5793 281.469 50.9499C281.469 50.3205 280.961 49.811 280.333 49.811C279.705 49.811 279.196 50.3205 279.196 50.9499C279.196 51.5793 279.735 52.0888 280.333 52.0888Z" fill="#399EFD" fill-opacity="0.14"/>
<path d="M305.719 51.2497C305.869 51.2497 305.989 51.1298 305.989 50.9799C305.989 50.8301 305.869 50.7102 305.719 50.7102C305.57 50.7102 305.45 50.8301 305.45 50.9799C305.42 51.1298 305.54 51.2497 305.719 51.2497Z" fill="#399EFD" fill-opacity="0.14"/>
<path d="M26.7625 76.6647C26.912 76.6647 27.0316 76.5448 27.0316 76.395C27.0316 76.2451 26.912 76.1252 26.7625 76.1252C26.613 76.1252 26.4934 76.2451 26.4934 76.395C26.4934 76.5448 26.613 76.6647 26.7625 76.6647Z" fill="#399EFD" fill-opacity="0.14"/>
<path d="M52.1194 77.6536C52.813 77.6536 53.3753 77.0901 53.3753 76.3949C53.3753 75.6997 52.813 75.1361 52.1194 75.1361C51.4258 75.1361 50.8635 75.6997 50.8635 76.3949C50.8635 77.0901 51.4258 77.6536 52.1194 77.6536Z" fill="#399EFD" fill-opacity="0.14"/>
<path d="M77.4765 78.6427C78.7324 78.6427 79.7192 77.6237 79.7192 76.3949C79.7192 75.1661 78.7025 74.1471 77.4765 74.1471C76.2207 74.1471 75.2339 75.1661 75.2339 76.3949C75.2339 77.6237 76.2506 78.6427 77.4765 78.6427Z" fill="#399EFD" fill-opacity="0.14"/>
<path d="M102.834 79.4819C104.535 79.4819 105.913 78.0998 105.913 76.395C105.913 74.6901 104.535 73.308 102.834 73.308C101.133 73.308 99.7537 74.6901 99.7537 76.395C99.7537 78.0998 101.133 79.4819 102.834 79.4819Z" fill="#399EFD" fill-opacity="0.14"/>
<path d="M128.191 80.1113C130.254 80.1113 131.928 78.4329 131.928 76.365C131.928 74.297 130.254 72.6187 128.191 72.6187C126.127 72.6187 124.453 74.297 124.453 76.365C124.483 78.4629 126.127 80.1113 128.191 80.1113Z" fill="#399EFD" fill-opacity="0.14"/>
<path d="M153.548 80.5608C155.85 80.5608 157.704 78.7026 157.704 76.3949C157.704 74.0872 155.85 72.229 153.548 72.229C151.245 72.229 149.391 74.0872 149.391 76.3949C149.421 78.6727 151.275 80.5608 153.548 80.5608Z" fill="#399EFD" fill-opacity="0.14"/>
<path d="M178.905 80.7706C181.316 80.7706 183.27 78.8115 183.27 76.3949C183.27 73.9782 181.316 72.0192 178.905 72.0192C176.493 72.0192 174.539 73.9782 174.539 76.3949C174.539 78.8115 176.493 80.7706 178.905 80.7706Z" fill="#399EFD" fill-opacity="0.14"/>
<path d="M204.262 80.6208C206.594 80.6208 208.478 78.7326 208.478 76.3949C208.478 74.0572 206.594 72.1691 204.262 72.1691C201.929 72.1691 200.045 74.0572 200.045 76.3949C200.045 78.7326 201.929 80.6208 204.262 80.6208Z" fill="#399EFD" fill-opacity="0.14"/>
<path d="M229.619 80.2011C231.712 80.2011 233.416 78.4928 233.416 76.3949C233.416 74.2969 231.712 72.5886 229.619 72.5886C227.525 72.5886 225.821 74.2969 225.821 76.3949C225.821 78.4928 227.525 80.2011 229.619 80.2011Z" fill="#399EFD" fill-opacity="0.14"/>
<path d="M254.976 79.5718C256.726 79.5718 258.145 78.1494 258.145 76.3949C258.145 74.6404 256.726 73.218 254.976 73.218C253.225 73.218 251.806 74.6404 251.806 76.3949C251.806 78.1494 253.225 79.5718 254.976 79.5718Z" fill="#399EFD" fill-opacity="0.14"/>
<path d="M280.333 78.7327C281.621 78.7327 282.665 77.686 282.665 76.395C282.665 75.1039 281.621 74.0573 280.333 74.0573C279.044 74.0573 278 75.1039 278 76.395C278 77.686 279.044 78.7327 280.333 78.7327Z" fill="#399EFD" fill-opacity="0.14"/>
<path d="M305.72 77.7436C306.463 77.7436 307.065 77.1398 307.065 76.3949C307.065 75.6501 306.463 75.0463 305.72 75.0463C304.976 75.0463 304.374 75.6501 304.374 76.3949C304.374 77.1398 304.976 77.7436 305.72 77.7436Z" fill="#399EFD" fill-opacity="0.14"/>
<path d="M331.077 76.6647C331.226 76.6647 331.346 76.5448 331.346 76.395C331.346 76.2451 331.226 76.1252 331.077 76.1252C330.927 76.1252 330.808 76.2451 330.808 76.395C330.778 76.5448 330.897 76.6647 331.077 76.6647Z" fill="#399EFD" fill-opacity="0.14"/>
<path d="M1.40584 101.871C1.43905 101.871 1.46597 101.844 1.46597 101.81C1.46597 101.777 1.43905 101.75 1.40584 101.75C1.37263 101.75 1.3457 101.777 1.3457 101.81C1.3457 101.844 1.37263 101.871 1.40584 101.871Z" fill="#399EFD" fill-opacity="0.14"/>
<path d="M26.7624 102.859C27.3305 102.859 27.809 102.379 27.809 101.81C27.809 101.241 27.3305 100.761 26.7624 100.761C26.1943 100.761 25.7158 101.241 25.7158 101.81C25.7158 102.379 26.1943 102.859 26.7624 102.859Z" fill="#399EFD" fill-opacity="0.14"/>
<path d="M52.1194 104.058C53.358 104.058 54.362 103.051 54.362 101.81C54.362 100.569 53.358 99.5621 52.1194 99.5621C50.8808 99.5621 49.8767 100.569 49.8767 101.81C49.8767 103.051 50.8808 104.058 52.1194 104.058Z" fill="#399EFD" fill-opacity="0.14"/>
<path d="M77.4766 105.197C79.3305 105.197 80.8555 103.668 80.8555 101.81C80.8555 99.9517 79.3305 98.4232 77.4766 98.4232C75.6227 98.4232 74.0977 99.9517 74.0977 101.81C74.0977 103.668 75.6227 105.197 77.4766 105.197Z" fill="#399EFD" fill-opacity="0.14"/>
<path d="M102.833 106.096C105.196 106.096 107.109 104.178 107.109 101.81C107.109 99.4423 105.196 97.5242 102.833 97.5242C100.471 97.5242 98.5574 99.4423 98.5574 101.81C98.5574 104.178 100.471 106.096 102.833 106.096Z" fill="#399EFD" fill-opacity="0.14"/>
<path d="M128.191 106.965C131.031 106.965 133.334 104.657 133.334 101.81C133.334 98.9628 131.031 96.655 128.191 96.655C125.35 96.655 123.047 98.9628 123.047 101.81C123.077 104.657 125.35 106.965 128.191 106.965Z" fill="#399EFD" fill-opacity="0.14"/>
<path d="M153.548 107.444C156.657 107.444 159.169 104.927 159.169 101.81C159.169 98.6931 156.657 96.1755 153.548 96.1755C150.438 96.1755 147.926 98.6931 147.926 101.81C147.926 104.927 150.438 107.444 153.548 107.444Z" fill="#399EFD" fill-opacity="0.14"/>
<path d="M178.905 107.654C182.134 107.654 184.736 105.047 184.736 101.81C184.736 98.5731 182.134 95.9657 178.905 95.9657C175.675 95.9657 173.074 98.5731 173.074 101.81C173.074 105.047 175.705 107.654 178.905 107.654Z" fill="#399EFD" fill-opacity="0.14"/>
<path d="M204.262 107.444C207.372 107.444 209.883 104.927 209.883 101.81C209.883 98.6931 207.372 96.1755 204.262 96.1755C201.152 96.1755 198.64 98.6931 198.64 101.81C198.64 104.927 201.152 107.444 204.262 107.444Z" fill="#399EFD" fill-opacity="0.14"/>
<path d="M229.619 106.965C232.459 106.965 234.762 104.657 234.762 101.81C234.762 98.9628 232.459 96.655 229.619 96.655C226.778 96.655 224.475 98.9628 224.475 101.81C224.505 104.657 226.808 106.965 229.619 106.965Z" fill="#399EFD" fill-opacity="0.14"/>
<path d="M254.976 106.186C257.387 106.186 259.341 104.227 259.341 101.81C259.341 99.3933 257.387 97.4342 254.976 97.4342C252.564 97.4342 250.61 99.3933 250.61 101.81C250.61 104.227 252.564 106.186 254.976 106.186Z" fill="#399EFD" fill-opacity="0.14"/>
<path d="M280.333 105.257C282.247 105.257 283.772 103.698 283.772 101.81C283.772 99.8918 282.217 98.3633 280.333 98.3633C278.449 98.3633 276.894 99.9218 276.894 101.81C276.894 103.698 278.449 105.257 280.333 105.257Z" fill="#399EFD" fill-opacity="0.14"/>
<path d="M305.72 104.118C307.005 104.118 308.052 103.069 308.052 101.78C308.052 100.491 307.005 99.4423 305.72 99.4423C304.434 99.4423 303.387 100.491 303.387 101.78C303.387 103.069 304.434 104.118 305.72 104.118Z" fill="#399EFD" fill-opacity="0.14"/>
<path d="M331.077 102.919C331.705 102.919 332.213 102.409 332.213 101.78C332.213 101.151 331.705 100.641 331.077 100.641C330.449 100.641 329.94 101.151 329.94 101.78C329.94 102.439 330.449 102.919 331.077 102.919Z" fill="#399EFD" fill-opacity="0.14"/>
<path d="M356.434 101.96C356.523 101.96 356.583 101.9 356.583 101.81C356.583 101.72 356.523 101.66 356.434 101.66C356.344 101.66 356.284 101.72 356.284 101.81C356.284 101.87 356.344 101.96 356.434 101.96Z" fill="#399EFD" fill-opacity="0.14"/>
<path d="M1.40544 127.705C1.67456 127.705 1.88387 127.495 1.88387 127.225C1.88387 126.955 1.67456 126.745 1.40544 126.745C1.13632 126.745 0.927002 126.955 0.927002 127.225C0.927002 127.495 1.13632 127.705 1.40544 127.705Z" fill="#399EFD" fill-opacity="0.14"/>
<path d="M26.7625 128.993C27.7369 128.993 28.5267 128.202 28.5267 127.225C28.5267 126.248 27.7369 125.457 26.7625 125.457C25.7882 125.457 24.9983 126.248 24.9983 127.225C24.9983 128.202 25.7882 128.993 26.7625 128.993Z" fill="#399EFD" fill-opacity="0.14"/>
<path d="M52.1195 130.312C53.8205 130.312 55.1994 128.93 55.1994 127.225C55.1994 125.52 53.8205 124.138 52.1195 124.138C50.4185 124.138 49.0396 125.52 49.0396 127.225C49.0396 128.93 50.4185 130.312 52.1195 130.312Z" fill="#399EFD" fill-opacity="0.14"/>
<path d="M77.4764 131.511C79.8387 131.511 81.7525 129.593 81.7525 127.225C81.7525 124.857 79.8387 122.939 77.4764 122.939C75.1142 122.939 73.2004 124.857 73.2004 127.225C73.2004 129.593 75.1142 131.511 77.4764 131.511Z" fill="#399EFD" fill-opacity="0.14"/>
<path d="M102.833 132.65C105.824 132.65 108.246 130.222 108.246 127.225C108.246 124.228 105.824 121.8 102.833 121.8C99.8432 121.8 97.4211 124.228 97.4211 127.225C97.4211 130.222 99.8432 132.65 102.833 132.65Z" fill="#399EFD" fill-opacity="0.14"/>
<path d="M128.191 133.639C131.719 133.639 134.59 130.761 134.59 127.225C134.59 123.688 131.719 120.811 128.191 120.811C124.662 120.811 121.792 123.688 121.792 127.225C121.792 130.761 124.662 133.639 128.191 133.639Z" fill="#399EFD" fill-opacity="0.14"/>
<path d="M153.548 134.268C157.435 134.268 160.575 131.121 160.575 127.225C160.575 123.329 157.435 120.182 153.548 120.182C149.66 120.182 146.521 123.329 146.521 127.225C146.521 131.121 149.66 134.268 153.548 134.268Z" fill="#399EFD" fill-opacity="0.14"/>
<path d="M178.905 134.538C182.941 134.538 186.231 131.271 186.231 127.195C186.231 123.119 182.941 119.882 178.905 119.882C174.868 119.882 171.579 123.149 171.579 127.225C171.579 131.301 174.868 134.538 178.905 134.538Z" fill="#399EFD" fill-opacity="0.14"/>
<path d="M204.262 134.358C208.192 134.358 211.378 131.164 211.378 127.225C211.378 123.285 208.192 120.092 204.262 120.092C200.331 120.092 197.145 123.285 197.145 127.225C197.145 131.164 200.331 134.358 204.262 134.358Z" fill="#399EFD" fill-opacity="0.14"/>
<path d="M229.619 133.699C233.177 133.699 236.077 130.791 236.077 127.225C236.077 123.658 233.177 120.751 229.619 120.751C226.06 120.751 223.16 123.658 223.16 127.225C223.16 130.791 226.06 133.699 229.619 133.699Z" fill="#399EFD" fill-opacity="0.14"/>
<path d="M254.976 132.71C257.996 132.71 260.448 130.252 260.448 127.225C260.448 124.198 257.996 121.74 254.976 121.74C251.956 121.74 249.504 124.198 249.504 127.225C249.504 130.252 251.956 132.71 254.976 132.71Z" fill="#399EFD" fill-opacity="0.14"/>
<path d="M280.333 131.601C282.755 131.601 284.698 129.653 284.698 127.225C284.698 124.797 282.755 122.849 280.333 122.849C277.911 122.849 275.967 124.797 275.967 127.225C275.997 129.623 277.941 131.601 280.333 131.601Z" fill="#399EFD" fill-opacity="0.14"/>
<path d="M305.72 130.402C307.454 130.402 308.889 128.993 308.889 127.225C308.889 125.487 307.484 124.048 305.72 124.048C303.985 124.048 302.55 125.457 302.55 127.225C302.55 128.963 303.955 130.402 305.72 130.402Z" fill="#399EFD" fill-opacity="0.14"/>
<path d="M331.077 129.113C332.123 129.113 332.96 128.274 332.96 127.225C332.96 126.176 332.123 125.337 331.077 125.337C330.03 125.337 329.193 126.176 329.193 127.225C329.163 128.274 330 129.113 331.077 129.113Z" fill="#399EFD" fill-opacity="0.14"/>
<path d="M356.434 127.794C356.733 127.794 357.002 127.555 357.002 127.225C357.002 126.925 356.763 126.656 356.434 126.656C356.105 126.656 355.865 126.895 355.865 127.225C355.865 127.525 356.105 127.794 356.434 127.794Z" fill="#399EFD" fill-opacity="0.14"/>
<path d="M1.40548 153.569C1.91382 153.569 2.33245 153.15 2.33245 152.64C2.33245 152.131 1.91382 151.711 1.40548 151.711C0.897146 151.711 0.478516 152.131 0.478516 152.64C0.478516 153.15 0.897146 153.569 1.40548 153.569Z" fill="#399EFD" fill-opacity="0.14"/>
<path d="M26.7625 155.038C28.0782 155.038 29.1547 153.959 29.1547 152.64C29.1547 151.321 28.0782 150.242 26.7625 150.242C25.4468 150.242 24.3704 151.321 24.3704 152.64C24.3704 153.959 25.4468 155.038 26.7625 155.038Z" fill="#399EFD" fill-opacity="0.14"/>
<path d="M52.1194 156.386C54.1826 156.386 55.8571 154.708 55.8571 152.64C55.8571 150.572 54.1826 148.894 52.1194 148.894C50.0561 148.894 48.3816 150.572 48.3816 152.64C48.3816 154.708 50.0561 156.386 52.1194 156.386Z" fill="#399EFD" fill-opacity="0.14"/>
<path d="M77.4764 157.795C80.3171 157.795 82.6196 155.487 82.6196 152.64C82.6196 149.793 80.3171 147.485 77.4764 147.485C74.6357 147.485 72.3333 149.793 72.3333 152.64C72.3333 155.487 74.6357 157.795 77.4764 157.795Z" fill="#399EFD" fill-opacity="0.14"/>
<path d="M102.833 159.054C106.362 159.054 109.232 156.177 109.232 152.64C109.232 149.103 106.362 146.226 102.833 146.226C99.3049 146.226 96.4343 149.103 96.4343 152.64C96.4343 156.177 99.3049 159.054 102.833 159.054Z" fill="#399EFD" fill-opacity="0.14"/>
<path d="M128.191 160.193C132.352 160.193 135.726 156.811 135.726 152.64C135.726 148.469 132.352 145.087 128.191 145.087C124.029 145.087 120.655 148.469 120.655 152.64C120.655 156.811 124.029 160.193 128.191 160.193Z" fill="#399EFD" fill-opacity="0.14"/>
<path d="M153.548 161.092C158.212 161.092 161.98 157.315 161.98 152.64C161.98 147.965 158.212 144.188 153.548 144.188C148.883 144.188 145.115 147.965 145.115 152.64C145.115 157.315 148.883 161.092 153.548 161.092Z" fill="#399EFD" fill-opacity="0.14"/>
<path d="M178.905 161.451C183.749 161.451 187.696 157.495 187.696 152.64C187.696 147.785 183.749 143.829 178.905 143.829C174.06 143.829 170.113 147.785 170.113 152.64C170.113 157.495 174.06 161.451 178.905 161.451Z" fill="#399EFD" fill-opacity="0.14"/>
<path d="M204.262 161.092C208.926 161.092 212.694 157.315 212.694 152.64C212.694 147.965 208.926 144.188 204.262 144.188C199.597 144.188 195.829 147.965 195.829 152.64C195.829 157.315 199.627 161.092 204.262 161.092Z" fill="#399EFD" fill-opacity="0.14"/>
<path d="M229.619 160.253C233.805 160.253 237.214 156.836 237.214 152.64C237.214 148.444 233.805 145.027 229.619 145.027C225.432 145.027 222.023 148.444 222.023 152.64C222.023 156.836 225.432 160.253 229.619 160.253Z" fill="#399EFD" fill-opacity="0.14"/>
<path d="M254.976 159.114C258.534 159.114 261.435 156.207 261.435 152.64C261.435 149.074 258.534 146.166 254.976 146.166C251.417 146.166 248.517 149.074 248.517 152.64C248.517 156.207 251.417 159.114 254.976 159.114Z" fill="#399EFD" fill-opacity="0.14"/>
<path d="M280.333 157.855C283.203 157.855 285.536 155.517 285.536 152.64C285.536 149.763 283.203 147.425 280.333 147.425C277.462 147.425 275.13 149.763 275.13 152.64C275.13 155.517 277.462 157.855 280.333 157.855Z" fill="#399EFD" fill-opacity="0.14"/>
<path d="M305.72 156.506C307.843 156.506 309.577 154.768 309.577 152.64C309.577 150.512 307.843 148.774 305.72 148.774C303.597 148.774 301.862 150.512 301.862 152.64C301.832 154.768 303.567 156.506 305.72 156.506Z" fill="#399EFD" fill-opacity="0.14"/>
<path d="M331.077 155.098C332.422 155.098 333.529 153.989 333.529 152.64C333.529 151.291 332.422 150.182 331.077 150.182C329.731 150.182 328.625 151.291 328.625 152.64C328.595 153.989 329.701 155.098 331.077 155.098Z" fill="#399EFD" fill-opacity="0.14"/>
<path d="M356.434 153.689C357.002 153.689 357.48 153.209 357.48 152.64C357.48 152.071 357.002 151.591 356.434 151.591C355.866 151.591 355.387 152.071 355.387 152.64C355.357 153.209 355.836 153.689 356.434 153.689Z" fill="#399EFD" fill-opacity="0.14"/>
<path d="M381.791 152.7C381.821 152.7 381.851 152.67 381.851 152.64C381.851 152.61 381.821 152.58 381.791 152.58C381.761 152.58 381.731 152.61 381.731 152.64C381.701 152.67 381.731 152.7 381.791 152.7Z" fill="#399EFD" fill-opacity="0.14"/>
<path d="M1.4053 179.314C2.09305 179.314 2.66119 178.744 2.66119 178.055C2.66119 177.366 2.09305 176.796 1.4053 176.796C0.717555 176.796 0.149414 177.366 0.149414 178.055C0.149414 178.744 0.717555 179.314 1.4053 179.314Z" fill="#399EFD" fill-opacity="0.14"/>
<path d="M26.7625 180.812C28.2875 180.812 29.5135 179.584 29.5135 178.055C29.5135 176.527 28.2875 175.298 26.7625 175.298C25.2375 175.298 24.0115 176.527 24.0115 178.055C24.0115 179.584 25.2375 180.812 26.7625 180.812Z" fill="#399EFD" fill-opacity="0.14"/>
<path d="M52.1195 182.221C54.422 182.221 56.2759 180.363 56.2759 178.055C56.2759 175.747 54.422 173.889 52.1195 173.889C49.8171 173.889 47.9631 175.747 47.9631 178.055C47.9631 180.363 49.8171 182.221 52.1195 182.221Z" fill="#399EFD" fill-opacity="0.14"/>
<path d="M77.4766 183.689C80.5864 183.689 83.0982 181.172 83.0982 178.055C83.0982 174.938 80.5864 172.421 77.4766 172.421C74.3668 172.421 71.855 174.938 71.855 178.055C71.855 181.172 74.3668 183.689 77.4766 183.689Z" fill="#399EFD" fill-opacity="0.14"/>
<path d="M102.833 185.098C106.721 185.098 109.86 181.951 109.86 178.055C109.86 174.159 106.721 171.012 102.833 171.012C98.9461 171.012 95.8064 174.159 95.8064 178.055C95.8064 181.951 98.9461 185.098 102.833 185.098Z" fill="#399EFD" fill-opacity="0.14"/>
<path d="M128.19 186.507C132.855 186.507 136.623 182.73 136.623 178.055C136.623 173.38 132.855 169.603 128.19 169.603C123.526 169.603 119.758 173.38 119.758 178.055C119.758 182.73 123.526 186.507 128.19 186.507Z" fill="#399EFD" fill-opacity="0.14"/>
<path d="M153.547 187.706C158.87 187.706 163.176 183.39 163.176 178.055C163.176 172.72 158.87 168.405 153.547 168.405C148.225 168.405 143.919 172.72 143.919 178.055C143.919 183.39 148.225 187.706 153.547 187.706Z" fill="#399EFD" fill-opacity="0.14"/>
<path d="M178.905 188.275C184.536 188.275 189.101 183.699 189.101 178.055C189.101 172.411 184.536 167.835 178.905 167.835C173.273 167.835 168.708 172.411 168.708 178.055C168.708 183.699 173.273 188.275 178.905 188.275Z" fill="#399EFD" fill-opacity="0.14"/>
<path d="M204.262 187.706C209.584 187.706 213.89 183.39 213.89 178.055C213.89 172.72 209.584 168.405 204.262 168.405C198.939 168.405 194.633 172.72 194.633 178.055C194.633 183.39 198.939 187.706 204.262 187.706Z" fill="#399EFD" fill-opacity="0.14"/>
<path d="M229.619 186.597C234.313 186.597 238.141 182.79 238.141 178.055C238.141 173.35 234.343 169.513 229.619 169.513C224.924 169.513 221.096 173.32 221.096 178.055C221.126 182.76 224.924 186.597 229.619 186.597Z" fill="#399EFD" fill-opacity="0.14"/>
<path d="M254.976 185.188C258.906 185.188 262.092 181.994 262.092 178.055C262.092 174.116 258.906 170.922 254.976 170.922C251.045 170.922 247.859 174.116 247.859 178.055C247.859 181.994 251.045 185.188 254.976 185.188Z" fill="#399EFD" fill-opacity="0.14"/>
<path d="M280.333 183.749C283.473 183.749 286.014 181.202 286.014 178.055C286.014 174.908 283.473 172.361 280.333 172.361C277.193 172.361 274.651 174.908 274.651 178.055C274.651 181.202 277.193 183.749 280.333 183.749Z" fill="#399EFD" fill-opacity="0.14"/>
<path d="M305.72 182.341C308.082 182.341 309.996 180.423 309.996 178.055C309.996 175.687 308.082 173.769 305.72 173.769C303.357 173.769 301.444 175.687 301.444 178.055C301.414 180.423 303.328 182.341 305.72 182.341Z" fill="#399EFD" fill-opacity="0.14"/>
<path d="M331.077 180.872C332.632 180.872 333.887 179.613 333.887 178.055C333.887 176.497 332.632 175.238 331.077 175.238C329.522 175.238 328.266 176.497 328.266 178.055C328.266 179.613 329.522 180.872 331.077 180.872Z" fill="#399EFD" fill-opacity="0.14"/>
<path d="M356.434 179.404C357.177 179.404 357.779 178.8 357.779 178.055C357.779 177.31 357.177 176.706 356.434 176.706C355.691 176.706 355.088 177.31 355.088 178.055C355.088 178.8 355.691 179.404 356.434 179.404Z" fill="#399EFD" fill-opacity="0.14"/>
<path d="M381.791 178.205C381.88 178.205 381.94 178.145 381.94 178.055C381.94 177.965 381.88 177.905 381.791 177.905C381.701 177.905 381.641 177.965 381.641 178.055C381.641 178.145 381.701 178.205 381.791 178.205Z" fill="#399EFD" fill-opacity="0.14"/>
<path d="M1.4054 204.879C2.18286 204.879 2.8108 204.249 2.8108 203.47C2.8108 202.691 2.18286 202.061 1.4054 202.061C0.627945 202.061 0 202.691 0 203.47C0 204.249 0.627945 204.879 1.4054 204.879Z" fill="#399EFD" fill-opacity="0.14"/>
<path d="M26.7625 206.347C28.3473 206.347 29.6331 205.058 29.6331 203.47C29.6331 201.882 28.3473 200.593 26.7625 200.593C25.1776 200.593 23.8918 201.882 23.8918 203.47C23.8918 205.058 25.1776 206.347 26.7625 206.347Z" fill="#399EFD" fill-opacity="0.14"/>
<path d="M52.1194 207.846C54.5305 207.846 56.4851 205.887 56.4851 203.47C56.4851 201.053 54.5305 199.094 52.1194 199.094C49.7083 199.094 47.7537 201.053 47.7537 203.47C47.7537 205.887 49.7083 207.846 52.1194 207.846Z" fill="#399EFD" fill-opacity="0.14"/>
<path d="M77.4764 209.314C80.7059 209.314 83.3074 206.707 83.3074 203.47C83.3074 200.233 80.7059 197.626 77.4764 197.626C74.247 197.626 71.6455 200.233 71.6455 203.47C71.6455 206.707 74.247 209.314 77.4764 209.314Z" fill="#399EFD" fill-opacity="0.14"/>
<path d="M102.834 210.813C106.87 210.813 110.16 207.546 110.16 203.47C110.16 199.394 106.87 196.127 102.834 196.127C98.7968 196.127 95.5076 199.394 95.5076 203.47C95.5076 207.546 98.7968 210.813 102.834 210.813Z" fill="#399EFD" fill-opacity="0.14"/>
<path d="M128.191 212.281C133.035 212.281 136.982 208.325 136.982 203.47C136.982 198.615 133.035 194.659 128.191 194.659C123.346 194.659 119.399 198.615 119.399 203.47C119.399 208.325 123.346 212.281 128.191 212.281Z" fill="#399EFD" fill-opacity="0.14"/>
<path d="M153.547 213.69C159.179 213.69 163.744 209.114 163.744 203.47C163.744 197.826 159.179 193.25 153.547 193.25C147.916 193.25 143.351 197.826 143.351 203.47C143.351 209.114 147.916 213.69 153.547 213.69Z" fill="#399EFD" fill-opacity="0.14"/>
<path d="M178.905 214.739C185.124 214.739 190.148 209.704 190.148 203.47C190.148 197.236 185.124 192.201 178.905 192.201C172.685 192.201 167.661 197.236 167.661 203.47C167.661 209.704 172.715 214.739 178.905 214.739Z" fill="#399EFD" fill-opacity="0.14"/>
<path d="M204.262 213.84C209.973 213.84 214.608 209.194 214.608 203.47C214.608 197.746 209.973 193.1 204.262 193.1C198.55 193.1 193.916 197.746 193.916 203.47C193.945 209.194 198.55 213.84 204.262 213.84Z" fill="#399EFD" fill-opacity="0.14"/>
<path d="M229.619 212.341C234.507 212.341 238.47 208.37 238.47 203.47C238.47 198.571 234.507 194.599 229.619 194.599C224.73 194.599 220.768 198.571 220.768 203.47C220.768 208.37 224.73 212.341 229.619 212.341Z" fill="#399EFD" fill-opacity="0.14"/>
<path d="M254.976 210.873C259.042 210.873 262.361 207.546 262.361 203.47C262.361 199.394 259.042 196.067 254.976 196.067C250.909 196.067 247.59 199.394 247.59 203.47C247.62 207.546 250.909 210.873 254.976 210.873Z" fill="#399EFD" fill-opacity="0.14"/>
<path d="M280.333 209.404C283.592 209.404 286.253 206.767 286.253 203.47C286.253 200.203 283.622 197.536 280.333 197.536C277.073 197.536 274.412 200.173 274.412 203.47C274.442 206.737 277.073 209.404 280.333 209.404Z" fill="#399EFD" fill-opacity="0.14"/>
<path d="M305.72 207.906C308.164 207.906 310.145 205.92 310.145 203.47C310.145 201.02 308.164 199.034 305.72 199.034C303.276 199.034 301.294 201.02 301.294 203.47C301.294 205.92 303.276 207.906 305.72 207.906Z" fill="#399EFD" fill-opacity="0.14"/>
<path d="M331.077 206.437C332.721 206.437 334.037 205.118 334.037 203.47C334.037 201.822 332.721 200.503 331.077 200.503C329.432 200.503 328.116 201.822 328.116 203.47C328.116 205.118 329.432 206.437 331.077 206.437Z" fill="#399EFD" fill-opacity="0.14"/>
<path d="M356.434 204.939C357.241 204.939 357.899 204.279 357.899 203.47C357.899 202.661 357.241 202.001 356.434 202.001C355.626 202.001 354.969 202.661 354.969 203.47C354.939 204.279 355.596 204.939 356.434 204.939Z" fill="#399EFD" fill-opacity="0.14"/>
<path d="M381.791 203.68C381.91 203.68 382 203.59 382 203.47C382 203.35 381.91 203.26 381.791 203.26C381.671 203.26 381.581 203.35 381.581 203.47C381.581 203.59 381.671 203.68 381.791 203.68Z" fill="#399EFD" fill-opacity="0.14"/>
<path d="M1.4053 230.144C2.09891 230.144 2.66119 229.58 2.66119 228.885C2.66119 228.19 2.09891 227.626 1.4053 227.626C0.711695 227.626 0.149414 228.19 0.149414 228.885C0.149414 229.58 0.711695 230.144 1.4053 230.144Z" fill="#399EFD" fill-opacity="0.14"/>
<path d="M26.7625 231.642C28.2818 231.642 29.5135 230.408 29.5135 228.885C29.5135 227.362 28.2818 226.128 26.7625 226.128C25.2431 226.128 24.0115 227.362 24.0115 228.885C24.0115 230.408 25.2431 231.642 26.7625 231.642Z" fill="#399EFD" fill-opacity="0.14"/>
<path d="M52.1195 233.111C54.4519 233.111 56.3357 231.223 56.3357 228.885C56.3357 226.547 54.4519 224.659 52.1195 224.659C49.7872 224.659 47.9033 226.547 47.9033 228.885C47.9033 231.223 49.7872 233.111 52.1195 233.111Z" fill="#399EFD" fill-opacity="0.14"/>
<path d="M77.4766 234.52C80.5864 234.52 83.0982 232.002 83.0982 228.885C83.0982 225.768 80.5864 223.251 77.4766 223.251C74.3668 223.251 71.855 225.768 71.855 228.885C71.855 232.002 74.3668 234.52 77.4766 234.52Z" fill="#399EFD" fill-opacity="0.14"/>
<path d="M102.834 236.018C106.751 236.018 109.95 232.841 109.95 228.885C109.95 224.959 106.781 221.752 102.834 221.752C98.9163 221.752 95.7168 224.929 95.7168 228.885C95.7467 232.811 98.9163 236.018 102.834 236.018Z" fill="#399EFD" fill-opacity="0.14"/>
<path d="M128.19 237.337C132.855 237.337 136.623 233.56 136.623 228.885C136.623 224.21 132.855 220.433 128.19 220.433C123.526 220.433 119.758 224.21 119.758 228.885C119.758 233.56 123.526 237.337 128.19 237.337Z" fill="#399EFD" fill-opacity="0.14"/>
<path d="M153.547 238.536C158.87 238.536 163.176 234.22 163.176 228.885C163.176 223.55 158.87 219.234 153.547 219.234C148.225 219.234 143.919 223.55 143.919 228.885C143.919 234.22 148.225 238.536 153.547 238.536Z" fill="#399EFD" fill-opacity="0.14"/>
<path d="M178.905 239.255C184.616 239.255 189.251 234.609 189.251 228.885C189.251 223.161 184.616 218.515 178.905 218.515C173.193 218.515 168.558 223.161 168.558 228.885C168.588 234.609 173.193 239.255 178.905 239.255Z" fill="#399EFD" fill-opacity="0.14"/>
<path d="M204.262 238.626C209.629 238.626 213.98 234.265 213.98 228.885C213.98 223.506 209.629 219.145 204.262 219.145C198.894 219.145 194.543 223.506 194.543 228.885C194.543 234.265 198.894 238.626 204.262 238.626Z" fill="#399EFD" fill-opacity="0.14"/>
<path d="M229.619 237.427C234.313 237.427 238.141 233.62 238.141 228.885C238.141 224.18 234.343 220.343 229.619 220.343C224.924 220.343 221.096 224.15 221.096 228.885C221.126 233.59 224.924 237.427 229.619 237.427Z" fill="#399EFD" fill-opacity="0.14"/>
<path d="M254.976 236.078C258.939 236.078 262.152 232.858 262.152 228.885C262.152 224.913 258.939 221.692 254.976 221.692C251.012 221.692 247.799 224.913 247.799 228.885C247.799 232.858 251.012 236.078 254.976 236.078Z" fill="#399EFD" fill-opacity="0.14"/>
<path d="M280.333 234.579C283.471 234.579 286.014 232.03 286.014 228.885C286.014 225.74 283.471 223.191 280.333 223.191C277.195 223.191 274.651 225.74 274.651 228.885C274.651 232.03 277.195 234.579 280.333 234.579Z" fill="#399EFD" fill-opacity="0.14"/>
<path d="M305.72 233.201C308.082 233.201 309.996 231.283 309.996 228.915C309.996 226.547 308.082 224.629 305.72 224.629C303.357 224.629 301.444 226.547 301.444 228.915C301.414 231.253 303.328 233.201 305.72 233.201Z" fill="#399EFD" fill-opacity="0.14"/>
<path d="M331.077 231.702C332.632 231.702 333.887 230.444 333.887 228.885C333.887 227.327 332.632 226.068 331.077 226.068C329.522 226.068 328.266 227.327 328.266 228.885C328.266 230.444 329.522 231.702 331.077 231.702Z" fill="#399EFD" fill-opacity="0.14"/>
<path d="M356.434 230.234C357.177 230.234 357.779 229.63 357.779 228.885C357.779 228.14 357.177 227.536 356.434 227.536C355.691 227.536 355.088 228.14 355.088 228.885C355.088 229.63 355.691 230.234 356.434 230.234Z" fill="#399EFD" fill-opacity="0.14"/>
<path d="M381.791 229.035C381.88 229.035 381.94 228.975 381.94 228.885C381.94 228.795 381.88 228.735 381.791 228.735C381.701 228.735 381.641 228.795 381.641 228.885C381.641 228.975 381.701 229.035 381.791 229.035Z" fill="#399EFD" fill-opacity="0.14"/>
<path d="M1.40547 255.289C1.95045 255.289 2.39224 254.846 2.39224 254.3C2.39224 253.754 1.95045 253.311 1.40547 253.311C0.860494 253.311 0.418701 253.754 0.418701 254.3C0.418701 254.846 0.860494 255.289 1.40547 255.289Z" fill="#399EFD" fill-opacity="0.14"/>
<path d="M26.7625 256.698C28.0782 256.698 29.1547 255.619 29.1547 254.3C29.1547 252.981 28.0782 251.902 26.7625 251.902C25.4468 251.902 24.3704 252.981 24.3704 254.3C24.3704 255.619 25.4468 256.698 26.7625 256.698Z" fill="#399EFD" fill-opacity="0.14"/>
<path d="M52.1194 258.106C54.2125 258.106 55.9169 256.398 55.9169 254.3C55.9169 252.202 54.2125 250.494 52.1194 250.494C50.0262 250.494 48.3218 252.202 48.3218 254.3C48.3218 256.398 50.0262 258.106 52.1194 258.106Z" fill="#399EFD" fill-opacity="0.14"/>
<path d="M77.4764 259.455C80.3171 259.455 82.6196 257.147 82.6196 254.3C82.6196 251.453 80.3171 249.145 77.4764 249.145C74.6357 249.145 72.3333 251.453 72.3333 254.3C72.3333 257.147 74.6357 259.455 77.4764 259.455Z" fill="#399EFD" fill-opacity="0.14"/>
<path d="M102.834 260.774C106.392 260.774 109.292 257.867 109.292 254.3C109.292 250.734 106.392 247.826 102.834 247.826C99.2753 247.826 96.3748 250.734 96.3748 254.3C96.3748 257.897 99.2753 260.774 102.834 260.774Z" fill="#399EFD" fill-opacity="0.14"/>
<path d="M128.191 261.913C132.377 261.913 135.786 258.496 135.786 254.3C135.786 250.104 132.377 246.688 128.191 246.688C124.004 246.688 120.595 250.104 120.595 254.3C120.595 258.496 124.004 261.913 128.191 261.913Z" fill="#399EFD" fill-opacity="0.14"/>
<path d="M153.547 262.842C158.242 262.842 162.07 259.035 162.07 254.3C162.07 249.595 158.272 245.758 153.547 245.758C148.853 245.758 145.025 249.565 145.025 254.3C145.055 259.005 148.853 262.842 153.547 262.842Z" fill="#399EFD" fill-opacity="0.14"/>
<path d="M178.905 263.171C183.793 263.171 187.756 259.2 187.756 254.3C187.756 249.401 183.793 245.429 178.905 245.429C174.016 245.429 170.053 249.401 170.053 254.3C170.053 259.2 174.016 263.171 178.905 263.171Z" fill="#399EFD" fill-opacity="0.14"/>
<path d="M204.262 262.842C208.968 262.842 212.784 259.017 212.784 254.3C212.784 249.583 208.968 245.758 204.262 245.758C199.555 245.758 195.74 249.583 195.74 254.3C195.74 259.017 199.555 262.842 204.262 262.842Z" fill="#399EFD" fill-opacity="0.14"/>
<path d="M229.619 261.972C233.865 261.972 237.274 258.526 237.274 254.3C237.274 250.044 233.835 246.628 229.619 246.628C225.372 246.628 221.964 250.074 221.964 254.3C221.964 258.556 225.402 261.972 229.619 261.972Z" fill="#399EFD" fill-opacity="0.14"/>
<path d="M254.976 260.864C258.592 260.864 261.524 257.925 261.524 254.3C261.524 250.675 258.592 247.737 254.976 247.737C251.359 247.737 248.427 250.675 248.427 254.3C248.427 257.925 251.359 260.864 254.976 260.864Z" fill="#399EFD" fill-opacity="0.14"/>
<path d="M280.333 259.515C283.206 259.515 285.536 257.18 285.536 254.3C285.536 251.42 283.206 249.085 280.333 249.085C277.459 249.085 275.13 251.42 275.13 254.3C275.13 257.18 277.459 259.515 280.333 259.515Z" fill="#399EFD" fill-opacity="0.14"/>
<path d="M305.72 258.166C307.85 258.166 309.577 256.435 309.577 254.3C309.577 252.165 307.85 250.434 305.72 250.434C303.589 250.434 301.862 252.165 301.862 254.3C301.862 256.435 303.589 258.166 305.72 258.166Z" fill="#399EFD" fill-opacity="0.14"/>
<path d="M331.077 256.758C332.422 256.758 333.529 255.649 333.529 254.3C333.529 252.951 332.422 251.843 331.077 251.843C329.731 251.843 328.625 252.951 328.625 254.3C328.595 255.679 329.701 256.758 331.077 256.758Z" fill="#399EFD" fill-opacity="0.14"/>
<path d="M356.434 255.349C357.002 255.349 357.48 254.87 357.48 254.3C357.48 253.731 357.002 253.251 356.434 253.251C355.866 253.251 355.387 253.731 355.387 254.3C355.357 254.899 355.836 255.349 356.434 255.349Z" fill="#399EFD" fill-opacity="0.14"/>
<path d="M381.791 254.361C381.821 254.361 381.851 254.33 381.851 254.3C381.851 254.27 381.821 254.24 381.791 254.24C381.761 254.24 381.731 254.27 381.731 254.3C381.731 254.33 381.731 254.361 381.791 254.361Z" fill="#399EFD" fill-opacity="0.14"/>
<path d="M1.40544 280.195C1.66967 280.195 1.88387 279.98 1.88387 279.715C1.88387 279.45 1.66967 279.236 1.40544 279.236C1.1412 279.236 0.927002 279.45 0.927002 279.715C0.927002 279.98 1.1412 280.195 1.40544 280.195Z" fill="#399EFD" fill-opacity="0.14"/>
<path d="M26.7625 281.543C27.7699 281.543 28.5865 280.725 28.5865 279.715C28.5865 278.705 27.7699 277.887 26.7625 277.887C25.7551 277.887 24.9385 278.705 24.9385 279.715C24.9385 280.725 25.7551 281.543 26.7625 281.543Z" fill="#399EFD" fill-opacity="0.14"/>
<path d="M52.1193 282.892C53.8699 282.892 55.289 281.47 55.289 279.715C55.289 277.961 53.8699 276.538 52.1193 276.538C50.3688 276.538 48.9497 277.961 48.9497 279.715C48.9497 281.47 50.3688 282.892 52.1193 282.892Z" fill="#399EFD" fill-opacity="0.14"/>
<path d="M77.4766 284.091C79.8986 284.091 81.8423 282.143 81.8423 279.715C81.8423 277.287 79.8986 275.339 77.4766 275.339C75.0545 275.339 73.1108 277.287 73.1108 279.715C73.1108 282.143 75.0844 284.091 77.4766 284.091Z" fill="#399EFD" fill-opacity="0.14"/>
<path d="M102.833 285.23C105.854 285.23 108.306 282.772 108.306 279.745C108.306 276.718 105.854 274.26 102.833 274.26C99.8133 274.26 97.3613 276.718 97.3613 279.745C97.3613 282.772 99.8133 285.23 102.833 285.23Z" fill="#399EFD" fill-opacity="0.14"/>
<path d="M128.191 286.219C131.749 286.219 134.649 283.312 134.649 279.745C134.649 276.179 131.749 273.271 128.191 273.271C124.632 273.271 121.732 276.179 121.732 279.745C121.732 283.312 124.632 286.219 128.191 286.219Z" fill="#399EFD" fill-opacity="0.14"/>
<path d="M153.548 286.848C157.478 286.848 160.664 283.654 160.664 279.715C160.664 275.776 157.478 272.582 153.548 272.582C149.617 272.582 146.431 275.776 146.431 279.715C146.431 283.654 149.617 286.848 153.548 286.848Z" fill="#399EFD" fill-opacity="0.14"/>
<path d="M178.905 287.118C182.971 287.118 186.29 283.791 186.29 279.715C186.29 275.639 182.971 272.312 178.905 272.312C174.838 272.312 171.519 275.639 171.519 279.715C171.519 283.791 174.838 287.118 178.905 287.118Z" fill="#399EFD" fill-opacity="0.14"/>
<path d="M204.262 286.908C208.225 286.908 211.438 283.688 211.438 279.715C211.438 275.743 208.225 272.522 204.262 272.522C200.298 272.522 197.085 275.743 197.085 279.715C197.085 283.688 200.298 286.908 204.262 286.908Z" fill="#399EFD" fill-opacity="0.14"/>
<path d="M229.619 286.279C233.235 286.279 236.167 283.34 236.167 279.715C236.167 276.09 233.235 273.152 229.619 273.152C226.002 273.152 223.07 276.09 223.07 279.715C223.07 283.34 226.002 286.279 229.619 286.279Z" fill="#399EFD" fill-opacity="0.14"/>
<path d="M254.976 285.29C258.056 285.29 260.537 282.802 260.537 279.715C260.537 276.628 258.056 274.141 254.976 274.141C251.896 274.141 249.414 276.628 249.414 279.715C249.414 282.802 251.926 285.29 254.976 285.29Z" fill="#399EFD" fill-opacity="0.14"/>
<path d="M280.333 284.151C282.777 284.151 284.758 282.165 284.758 279.715C284.758 277.265 282.777 275.279 280.333 275.279C277.889 275.279 275.907 277.265 275.907 279.715C275.907 282.165 277.889 284.151 280.333 284.151Z" fill="#399EFD" fill-opacity="0.14"/>
<path d="M305.72 282.952C307.503 282.952 308.949 281.503 308.949 279.715C308.949 277.927 307.503 276.478 305.72 276.478C303.936 276.478 302.49 277.927 302.49 279.715C302.49 281.503 303.936 282.952 305.72 282.952Z" fill="#399EFD" fill-opacity="0.14"/>
<path d="M331.077 281.603C332.117 281.603 332.961 280.758 332.961 279.715C332.961 278.672 332.117 277.827 331.077 277.827C330.036 277.827 329.193 278.672 329.193 279.715C329.193 280.758 330.036 281.603 331.077 281.603Z" fill="#399EFD" fill-opacity="0.14"/>
<path d="M356.434 280.285C356.733 280.285 357.002 280.045 357.002 279.715C357.002 279.415 356.763 279.146 356.434 279.146C356.105 279.146 355.865 279.385 355.865 279.715C355.865 280.045 356.105 280.285 356.434 280.285Z" fill="#399EFD" fill-opacity="0.14"/>
<path d="M1.40537 305.28C1.48794 305.28 1.55488 305.213 1.55488 305.13C1.55488 305.047 1.48794 304.98 1.40537 304.98C1.3228 304.98 1.25586 305.047 1.25586 305.13C1.25586 305.213 1.3228 305.28 1.40537 305.28Z" fill="#399EFD" fill-opacity="0.14"/>
<path d="M26.7625 306.269C27.3904 306.269 27.8988 305.759 27.8988 305.13C27.8988 304.501 27.3904 303.991 26.7625 303.991C26.1346 303.991 25.6262 304.501 25.6262 305.13C25.6262 305.759 26.1346 306.269 26.7625 306.269Z" fill="#399EFD" fill-opacity="0.14"/>
<path d="M52.1195 307.468C53.4053 307.468 54.4518 306.419 54.4518 305.13C54.4518 303.841 53.4053 302.792 52.1195 302.792C50.8337 302.792 49.7871 303.841 49.7871 305.13C49.817 306.419 50.8337 307.468 52.1195 307.468Z" fill="#399EFD" fill-opacity="0.14"/>
<path d="M77.4766 308.577C79.3903 308.577 80.9153 307.018 80.9153 305.13C80.9153 303.212 79.3604 301.683 77.4766 301.683C75.5629 301.683 74.0378 303.242 74.0378 305.13C74.0378 307.048 75.5928 308.577 77.4766 308.577Z" fill="#399EFD" fill-opacity="0.14"/>
<path d="M102.833 309.506C105.256 309.506 107.199 307.558 107.199 305.13C107.199 302.702 105.256 300.754 102.833 300.754C100.411 300.754 98.4678 302.702 98.4678 305.13C98.4678 307.558 100.441 309.506 102.833 309.506Z" fill="#399EFD" fill-opacity="0.14"/>
<path d="M128.191 310.345C131.061 310.345 133.393 308.007 133.393 305.13C133.393 302.253 131.061 299.915 128.191 299.915C125.32 299.915 122.988 302.253 122.988 305.13C122.988 308.007 125.32 310.345 128.191 310.345Z" fill="#399EFD" fill-opacity="0.14"/>
<path d="M153.548 310.824C156.685 310.824 159.229 308.275 159.229 305.13C159.229 301.985 156.685 299.436 153.548 299.436C150.41 299.436 147.866 301.985 147.866 305.13C147.866 308.275 150.41 310.824 153.548 310.824Z" fill="#399EFD" fill-opacity="0.14"/>
<path d="M178.905 311.064C182.164 311.064 184.825 308.427 184.825 305.13C184.825 301.863 182.194 299.196 178.905 299.196C175.645 299.196 172.984 301.833 172.984 305.13C173.014 308.397 175.645 311.064 178.905 311.064Z" fill="#399EFD" fill-opacity="0.14"/>
<path d="M204.261 310.824C207.399 310.824 209.943 308.275 209.943 305.13C209.943 301.985 207.399 299.436 204.261 299.436C201.124 299.436 198.58 301.985 198.58 305.13C198.58 308.275 201.124 310.824 204.261 310.824Z" fill="#399EFD" fill-opacity="0.14"/>
<path d="M229.618 310.345C232.492 310.345 234.821 308.01 234.821 305.13C234.821 302.25 232.492 299.915 229.618 299.915C226.745 299.915 224.416 302.25 224.416 305.13C224.416 308.01 226.745 310.345 229.618 310.345Z" fill="#399EFD" fill-opacity="0.14"/>
<path d="M254.976 309.566C257.42 309.566 259.401 307.58 259.401 305.13C259.401 302.68 257.42 300.694 254.976 300.694C252.531 300.694 250.55 302.68 250.55 305.13C250.55 307.58 252.531 309.566 254.976 309.566Z" fill="#399EFD" fill-opacity="0.14"/>
<path d="M280.333 308.577C282.232 308.577 283.772 307.034 283.772 305.13C283.772 303.227 282.232 301.683 280.333 301.683C278.434 301.683 276.894 303.227 276.894 305.13C276.894 307.034 278.434 308.577 280.333 308.577Z" fill="#399EFD" fill-opacity="0.14"/>
<path d="M305.72 307.528C307.035 307.528 308.112 306.449 308.112 305.13C308.112 303.811 307.035 302.732 305.72 302.732C304.404 302.732 303.327 303.811 303.327 305.13C303.327 306.449 304.374 307.528 305.72 307.528Z" fill="#399EFD" fill-opacity="0.14"/>
<path d="M331.077 306.329C331.737 306.329 332.273 305.792 332.273 305.13C332.273 304.468 331.737 303.931 331.077 303.931C330.416 303.931 329.881 304.468 329.881 305.13C329.881 305.792 330.416 306.329 331.077 306.329Z" fill="#399EFD" fill-opacity="0.14"/>
<path d="M356.434 305.28C356.523 305.28 356.583 305.22 356.583 305.13C356.583 305.04 356.523 304.98 356.434 304.98C356.344 304.98 356.284 305.04 356.284 305.13C356.284 305.22 356.344 305.28 356.434 305.28Z" fill="#399EFD" fill-opacity="0.14"/>
<path d="M26.7625 330.845C26.912 330.845 27.0316 330.725 27.0316 330.575C27.0316 330.425 26.912 330.305 26.7625 330.305C26.613 330.305 26.4934 330.425 26.4934 330.575C26.4934 330.695 26.613 330.845 26.7625 330.845Z" fill="#399EFD" fill-opacity="0.14"/>
<path d="M52.1195 331.894C52.8627 331.894 53.4651 331.29 53.4651 330.545C53.4651 329.8 52.8627 329.196 52.1195 329.196C51.3764 329.196 50.7739 329.8 50.7739 330.545C50.7739 331.29 51.3764 331.894 52.1195 331.894Z" fill="#399EFD" fill-opacity="0.14"/>
<path d="M77.4764 332.883C78.7622 332.883 79.8088 331.834 79.8088 330.545C79.8088 329.256 78.7622 328.207 77.4764 328.207C76.1906 328.207 75.144 329.256 75.144 330.545C75.1739 331.834 76.1906 332.883 77.4764 332.883Z" fill="#399EFD" fill-opacity="0.14"/>
<path d="M102.833 333.722C104.568 333.722 106.003 332.313 106.003 330.545C106.003 328.807 104.598 327.368 102.833 327.368C101.099 327.368 99.6638 328.777 99.6638 330.545C99.6638 332.313 101.099 333.722 102.833 333.722Z" fill="#399EFD" fill-opacity="0.14"/>
<path d="M128.191 334.441C130.314 334.441 132.048 332.703 132.048 330.575C132.048 328.447 130.314 326.709 128.191 326.709C126.068 326.709 124.333 328.447 124.333 330.575C124.333 332.703 126.068 334.441 128.191 334.441Z" fill="#399EFD" fill-opacity="0.14"/>
<path d="M153.547 334.861C155.91 334.861 157.824 332.943 157.824 330.575C157.824 328.207 155.91 326.289 153.547 326.289C151.185 326.289 149.271 328.207 149.271 330.575C149.271 332.913 151.185 334.861 153.547 334.861Z" fill="#399EFD" fill-opacity="0.14"/>
<path d="M178.905 334.981C181.349 334.981 183.33 332.995 183.33 330.545C183.33 328.095 181.349 326.109 178.905 326.109C176.46 326.109 174.479 328.095 174.479 330.545C174.479 332.995 176.46 334.981 178.905 334.981Z" fill="#399EFD" fill-opacity="0.14"/>
<path d="M204.262 334.831C206.623 334.831 208.538 332.912 208.538 330.545C208.538 328.178 206.623 326.259 204.262 326.259C201.9 326.259 199.986 328.178 199.986 330.545C199.986 332.912 201.9 334.831 204.262 334.831Z" fill="#399EFD" fill-opacity="0.14"/>
<path d="M229.619 334.411C231.749 334.411 233.476 332.68 233.476 330.545C233.476 328.41 231.749 326.679 229.619 326.679C227.488 326.679 225.761 328.41 225.761 330.545C225.761 332.68 227.488 334.411 229.619 334.411Z" fill="#399EFD" fill-opacity="0.14"/>
<path d="M254.976 333.782C256.759 333.782 258.205 332.333 258.205 330.545C258.205 328.758 256.759 327.308 254.976 327.308C253.192 327.308 251.746 328.758 251.746 330.545C251.746 332.333 253.192 333.782 254.976 333.782Z" fill="#399EFD" fill-opacity="0.14"/>
<path d="M280.333 332.943C281.654 332.943 282.725 331.869 282.725 330.545C282.725 329.221 281.654 328.147 280.333 328.147C279.011 328.147 277.94 329.221 277.94 330.545C277.94 331.869 279.011 332.943 280.333 332.943Z" fill="#399EFD" fill-opacity="0.14"/>
<path d="M305.72 331.894C306.463 331.894 307.065 331.29 307.065 330.545C307.065 329.8 306.463 329.196 305.72 329.196C304.976 329.196 304.374 329.8 304.374 330.545C304.374 331.29 304.976 331.894 305.72 331.894Z" fill="#399EFD" fill-opacity="0.14"/>
<path d="M331.077 330.905C331.275 330.905 331.435 330.744 331.435 330.545C331.435 330.347 331.275 330.186 331.077 330.186C330.878 330.186 330.718 330.347 330.718 330.545C330.718 330.744 330.878 330.905 331.077 330.905Z" fill="#399EFD" fill-opacity="0.14"/>
<path d="M52.1195 356.26C52.269 356.26 52.3886 356.14 52.3886 355.99C52.3886 355.84 52.269 355.72 52.1195 355.72C51.97 355.72 51.8503 355.84 51.8503 355.99C51.8503 356.11 51.97 356.26 52.1195 356.26Z" fill="#399EFD" fill-opacity="0.14"/>
<path d="M77.4764 357.099C78.1043 357.099 78.6127 356.59 78.6127 355.96C78.6127 355.331 78.1043 354.821 77.4764 354.821C76.8484 354.821 76.3401 355.331 76.3401 355.96C76.37 356.59 76.8484 357.099 77.4764 357.099Z" fill="#399EFD" fill-opacity="0.14"/>
<path d="M102.834 357.878C103.88 357.878 104.747 357.039 104.747 355.99C104.747 354.941 103.91 354.102 102.834 354.102C101.787 354.102 100.95 354.941 100.95 355.99C100.95 357.039 101.787 357.878 102.834 357.878Z" fill="#399EFD" fill-opacity="0.14"/>
<path d="M128.191 358.448C129.536 358.448 130.642 357.339 130.642 355.99C130.642 354.641 129.536 353.532 128.191 353.532C126.845 353.532 125.739 354.641 125.739 355.99C125.739 357.339 126.845 358.448 128.191 358.448Z" fill="#399EFD" fill-opacity="0.14"/>
<path d="M153.548 358.777C155.103 358.777 156.358 357.519 156.358 355.96C156.358 354.402 155.103 353.143 153.548 353.143C151.993 353.143 150.737 354.402 150.737 355.96C150.737 357.519 151.993 358.777 153.548 358.777Z" fill="#399EFD" fill-opacity="0.14"/>
<path d="M178.905 358.927C180.549 358.927 181.865 357.608 181.865 355.96C181.865 354.312 180.549 352.993 178.905 352.993C177.26 352.993 175.944 354.312 175.944 355.96C175.974 357.608 177.29 358.927 178.905 358.927Z" fill="#399EFD" fill-opacity="0.14"/>
<path d="M204.262 358.777C205.817 358.777 207.073 357.519 207.073 355.96C207.073 354.402 205.817 353.143 204.262 353.143C202.707 353.143 201.451 354.402 201.451 355.96C201.451 357.519 202.707 358.777 204.262 358.777Z" fill="#399EFD" fill-opacity="0.14"/>
<path d="M229.619 358.448C230.964 358.448 232.071 357.339 232.071 355.99C232.071 354.641 230.964 353.532 229.619 353.532C228.273 353.532 227.167 354.641 227.167 355.99C227.167 357.339 228.273 358.448 229.619 358.448Z" fill="#399EFD" fill-opacity="0.14"/>
<path d="M254.976 357.848C256.016 357.848 256.859 357.003 256.859 355.96C256.859 354.917 256.016 354.072 254.976 354.072C253.935 354.072 253.092 354.917 253.092 355.96C253.092 357.003 253.935 357.848 254.976 357.848Z" fill="#399EFD" fill-opacity="0.14"/>
<path d="M280.333 357.159C280.993 357.159 281.529 356.622 281.529 355.96C281.529 355.298 280.993 354.761 280.333 354.761C279.672 354.761 279.137 355.298 279.137 355.96C279.137 356.622 279.672 357.159 280.333 357.159Z" fill="#399EFD" fill-opacity="0.14"/>
<path d="M305.72 356.32C305.918 356.32 306.078 356.159 306.078 355.96C306.078 355.762 305.918 355.601 305.72 355.601C305.521 355.601 305.361 355.762 305.361 355.96C305.361 356.159 305.521 356.32 305.72 356.32Z" fill="#399EFD" fill-opacity="0.14"/>
<path d="M77.4764 381.525C77.5661 381.525 77.6259 381.465 77.6259 381.375C77.6259 381.285 77.5661 381.225 77.4764 381.225C77.3867 381.225 77.3269 381.285 77.3269 381.375C77.3269 381.465 77.4166 381.525 77.4764 381.525Z" fill="#399EFD" fill-opacity="0.14"/>
<path d="M102.834 381.945C103.133 381.945 103.402 381.705 103.402 381.375C103.402 381.076 103.162 380.806 102.834 380.806C102.505 380.806 102.265 381.046 102.265 381.375C102.265 381.705 102.534 381.945 102.834 381.945Z" fill="#399EFD" fill-opacity="0.14"/>
<path d="M128.191 382.454C128.759 382.454 129.237 381.975 129.237 381.405C129.237 380.836 128.759 380.356 128.191 380.356C127.622 380.356 127.144 380.836 127.144 381.405C127.144 381.975 127.622 382.454 128.191 382.454Z" fill="#399EFD" fill-opacity="0.14"/>
<path d="M153.547 382.724C154.291 382.724 154.893 382.12 154.893 381.375C154.893 380.63 154.291 380.026 153.547 380.026C152.804 380.026 152.202 380.63 152.202 381.375C152.202 382.12 152.804 382.724 153.547 382.724Z" fill="#399EFD" fill-opacity="0.14"/>
<path d="M178.905 382.874C179.712 382.874 180.37 382.214 180.37 381.405C180.37 380.596 179.712 379.937 178.905 379.937C178.097 379.937 177.439 380.596 177.439 381.405C177.439 382.214 178.097 382.874 178.905 382.874Z" fill="#399EFD" fill-opacity="0.14"/>
<path d="M204.262 382.724C205.005 382.724 205.607 382.12 205.607 381.375C205.607 380.63 205.005 380.026 204.262 380.026C203.518 380.026 202.916 380.63 202.916 381.375C202.916 382.12 203.518 382.724 204.262 382.724Z" fill="#399EFD" fill-opacity="0.14"/>
<path d="M229.619 382.454C230.187 382.454 230.665 381.975 230.665 381.405C230.665 380.836 230.187 380.356 229.619 380.356C229.05 380.356 228.572 380.836 228.572 381.405C228.572 381.975 229.05 382.454 229.619 382.454Z" fill="#399EFD" fill-opacity="0.14"/>
<path d="M254.976 381.945C255.289 381.945 255.544 381.69 255.544 381.375C255.544 381.061 255.289 380.806 254.976 380.806C254.662 380.806 254.407 381.061 254.407 381.375C254.407 381.69 254.662 381.945 254.976 381.945Z" fill="#399EFD" fill-opacity="0.14"/>
<path d="M280.333 381.525C280.422 381.525 280.482 381.465 280.482 381.375C280.482 381.285 280.422 381.225 280.333 381.225C280.243 381.225 280.183 381.285 280.183 381.375C280.183 381.465 280.273 381.525 280.333 381.525Z" fill="#399EFD" fill-opacity="0.14"/>
<path d="M128.191 406.881C128.221 406.881 128.251 406.851 128.251 406.821C128.251 406.79 128.221 406.76 128.191 406.76C128.161 406.76 128.131 406.79 128.131 406.821C128.131 406.851 128.161 406.881 128.191 406.881Z" fill="#399EFD" fill-opacity="0.14"/>
<path d="M153.547 406.94C153.637 406.94 153.697 406.88 153.697 406.79C153.697 406.7 153.637 406.64 153.547 406.64C153.458 406.64 153.398 406.7 153.398 406.79C153.428 406.88 153.488 406.94 153.547 406.94Z" fill="#399EFD" fill-opacity="0.14"/>
<path d="M178.905 407C179.024 407 179.114 406.91 179.114 406.79C179.114 406.67 179.024 406.58 178.905 406.58C178.785 406.58 178.695 406.67 178.695 406.79C178.695 406.91 178.785 407 178.905 407Z" fill="#399EFD" fill-opacity="0.14"/>
<path d="M204.262 406.94C204.351 406.94 204.411 406.88 204.411 406.79C204.411 406.7 204.351 406.64 204.262 406.64C204.172 406.64 204.112 406.7 204.112 406.79C204.142 406.88 204.202 406.94 204.262 406.94Z" fill="#399EFD" fill-opacity="0.14"/>
<path d="M229.619 406.851C229.652 406.851 229.679 406.824 229.679 406.79C229.679 406.757 229.652 406.73 229.619 406.73C229.586 406.73 229.559 406.757 229.559 406.79C229.559 406.824 229.586 406.851 229.619 406.851Z" fill="#399EFD" fill-opacity="0.14"/>
</g>
<defs>
<clipPath id="clip0_601_7334">
<rect width="382" height="407" fill="white"/>
</clipPath>
</defs>
</svg>
