<svg width="210" height="161" viewBox="0 0 210 161" fill="none" xmlns="http://www.w3.org/2000/svg">
<g clip-path="url(#clip0_601_2030)">
<g opacity="0.1">
<path opacity="0.1" d="M17.0953 160.833C17.0953 160.833 -1.97852 148.973 0.168273 125.152C2.11391 103.551 16.0499 99.7685 25.0196 73.805C33.9893 47.8414 24.9471 26.1268 49.4027 18.572C67.9193 12.8534 87.1283 39.5235 126.644 38.5337C166.161 37.544 185.251 24.6305 199.619 42.6127C212.239 58.4088 192.585 72.122 194.122 92.9635C194.979 104.577 203.085 110.906 205.443 128.758C206.518 136.896 204.892 152.255 197.179 160.837H29.5507" fill="#399EFD"/>
</g>
<path d="M210.003 160.667H0.445312V161H210.003V160.667Z" fill="#2E3552"/>
<path d="M111.042 25.1893C117.671 22.5148 120.899 14.9163 118.252 8.21771C115.606 1.5191 108.087 -1.74305 101.458 0.931489C94.8294 3.60603 91.6013 11.2045 94.2479 17.9031C96.8945 24.6017 104.414 27.8638 111.042 25.1893Z" fill="#399EFD"/>
<path d="M116.99 14.8486C117.966 8.85392 113.949 3.19446 108.017 2.2078C102.085 1.22115 96.4847 5.28093 95.5083 11.2756C94.532 17.2702 98.5493 22.9297 104.481 23.9164C110.413 24.903 116.014 20.8432 116.99 14.8486Z" fill="white"/>
<path d="M112.553 19.4293C116.034 15.9116 116.034 10.2083 112.553 6.69055C109.072 3.17283 103.428 3.17283 99.9469 6.69055C96.4659 10.2083 96.4659 15.9116 99.9469 19.4293C103.428 22.947 109.072 22.947 112.553 19.4293Z" fill="#399EFD"/>
<path d="M110.186 13.7035C110.541 11.5073 109.066 9.43648 106.893 9.07823C104.72 8.71998 102.671 10.21 102.316 12.4062C101.962 14.6024 103.436 16.6732 105.609 17.0315C107.783 17.3897 109.832 15.8997 110.186 13.7035Z" fill="white"/>
<path d="M107.056 15.0354C108.136 14.5863 108.65 13.3378 108.206 12.2469C107.762 11.156 106.526 10.6357 105.447 11.0848C104.367 11.534 103.852 12.7824 104.297 13.8734C104.741 14.9643 105.977 15.4845 107.056 15.0354Z" fill="#399EFD"/>
<path d="M90.2841 23.011L88.3945 24.0941L90.0104 24.6006L91.9 23.5175L90.2841 23.011Z" fill="url(#paint0_linear_601_2030)"/>
<path d="M91.5273 25.1805L89.6377 26.2602L90.04 24.6006L91.9296 23.5176L91.5273 25.1805Z" fill="url(#paint1_linear_601_2030)"/>
<path d="M90.6897 24.2107C90.5215 23.9108 92.3451 22.5478 95.1877 20.9182C98.0303 19.2919 102.176 17.6323 102.176 17.6323C102.176 17.6323 98.6371 20.375 95.7945 22.0012C93.0145 23.5942 90.8776 24.5439 90.6897 24.2107Z" fill="url(#paint2_linear_601_2030)"/>
<path d="M90.0105 24.6006C90.9998 23.9774 92.0023 23.3742 93.0081 22.7777C94.0139 22.1812 95.0263 21.6013 96.0354 21.0114C97.0544 20.4383 98.0667 19.8584 99.0923 19.2952C100.115 18.732 101.14 18.1722 102.179 17.6356C101.19 18.2588 100.187 18.862 99.1814 19.4585C98.1756 20.055 97.1632 20.6349 96.1508 21.2247C95.1549 21.7846 94.1425 22.3678 93.0938 22.941C92.0748 23.5042 91.0493 24.064 90.0105 24.6006Z" fill="#2E3552"/>
<path d="M97.2126 3.74912L95.5571 2.32947L95.6429 4.03571L97.295 5.45536L97.2126 3.74912Z" fill="url(#paint3_linear_601_2030)"/>
<path d="M95.6164 5.6487L93.9609 4.22905L95.6428 4.03577L97.2949 5.45541L95.6164 5.6487Z" fill="url(#paint4_linear_601_2030)"/>
<path d="M96.2395 4.54889C96.4605 4.28563 98.3567 5.54865 100.846 7.68478C103.336 9.82425 106.304 13.1867 106.304 13.1867C106.304 13.1867 102.538 10.774 100.048 8.63455C97.5553 6.49508 96.0186 4.80883 96.2395 4.54889Z" fill="url(#paint5_linear_601_2030)"/>
<path d="M95.613 4.03577C96.5331 4.75892 97.4367 5.5054 98.3369 6.25188C99.2372 6.99836 100.124 7.76151 101.021 8.51799C101.905 9.2878 102.792 10.0509 103.669 10.8274C104.546 11.6039 105.417 12.3837 106.274 13.1868C105.354 12.4637 104.451 11.7172 103.551 10.9707C102.65 10.2242 101.763 9.46109 100.866 8.70461C100.002 7.94813 99.1119 7.18832 98.2182 6.39518C97.341 5.61871 96.4671 4.83557 95.613 4.03577Z" fill="#2E3552"/>
<path d="M39.0051 103.824V40.1367C39.0051 36.6976 41.762 33.9116 45.1652 33.9116H154.909C158.312 33.9116 161.069 36.6976 161.069 40.1367V103.824C161.069 107.263 158.312 110.049 154.909 110.049H45.1619C41.762 110.049 39.0051 107.263 39.0051 103.824Z" fill="url(#paint6_linear_601_2030)"/>
<path d="M45.4916 108.716C42.6358 108.716 40.3208 106.377 40.3208 103.491V40.2434C40.3208 37.4841 42.5368 35.2446 45.2673 35.2446H154.797C157.527 35.2446 159.743 37.4841 159.743 40.2434V103.491C159.743 106.377 157.428 108.716 154.572 108.716H45.4916Z" fill="white"/>
<path d="M45.0103 35.2446H154.8C157.531 35.2446 159.747 37.4841 159.747 40.2434V44.2691H40.0637V40.2434C40.0637 37.4841 42.2798 35.2446 45.0103 35.2446Z" fill="#399EFD"/>
<path d="M46.7943 40.9099C47.4245 40.9099 47.9353 40.3936 47.9353 39.7568C47.9353 39.12 47.4245 38.6038 46.7943 38.6038C46.1642 38.6038 45.6533 39.12 45.6533 39.7568C45.6533 40.3936 46.1642 40.9099 46.7943 40.9099Z" fill="white"/>
<path d="M53.5909 40.9099C54.2211 40.9099 54.732 40.3936 54.732 39.7568C54.732 39.12 54.2211 38.6038 53.5909 38.6038C52.9608 38.6038 52.45 39.12 52.45 39.7568C52.45 40.3936 52.9608 40.9099 53.5909 40.9099Z" fill="white"/>
<path d="M61.5283 39.7568C61.5283 40.3933 61.0172 40.9099 60.3873 40.9099C59.7575 40.9099 59.2463 40.3933 59.2463 39.7568C59.2463 39.1203 59.7575 38.6038 60.3873 38.6038C61.0205 38.6038 61.5283 39.1203 61.5283 39.7568Z" fill="white"/>
<path d="M189.277 82.4996L184.815 89.4312H176.631C176.888 84.9389 180.575 81.3732 185.086 81.3732C186.609 81.3732 188.041 81.7831 189.277 82.4996Z" fill="url(#paint7_linear_601_2030)"/>
<g opacity="0.29">
<path opacity="0.29" d="M193.551 89.9277C193.551 91.5506 193.106 93.0636 192.328 94.3566L185.762 89.7944L190.105 83.0427C192.196 84.599 193.551 87.1051 193.551 89.9277Z" fill="#399EFD"/>
</g>
<path d="M191.764 95.1831C190.214 97.1926 187.8 98.4856 185.086 98.4856C180.578 98.4856 176.891 94.9231 176.631 90.4309H184.931L191.764 95.1831Z" fill="#399EFD"/>
<path d="M190.352 152.469C190.352 152.469 196.47 150.729 196.064 146.817C195.658 142.905 190.999 142.118 193.703 138.652C196.404 135.186 197.149 133.394 195.263 131.564C193.376 129.734 196.826 128.481 196.681 125.096C196.535 121.71 193.188 121.023 191.091 122.526C188.994 124.029 190.478 126.662 189.64 128.731C188.802 130.801 185.775 131.487 185.257 134.06C184.743 136.629 187.48 138.769 187.513 140.642C187.546 142.515 184.024 144.591 184.027 147.347C184.027 150.099 189.195 152.432 190.352 152.469Z" fill="#399EFD" fill-opacity="0.25"/>
<g opacity="0.4">
<path opacity="0.4" d="M190.913 153.612C190.544 151.286 190.349 148.9 190.26 146.527C190.177 144.148 190.23 141.765 190.415 139.392C190.596 137.016 190.985 134.663 191.513 132.337C192.06 130.018 192.865 127.765 193.858 125.596C192.809 127.738 191.942 129.974 191.328 132.291C190.738 134.61 190.283 136.969 190.036 139.355C189.785 141.742 189.67 144.141 189.689 146.54C189.716 148.943 189.844 151.336 190.161 153.739L190.913 153.612Z" fill="#399EFD" fill-opacity="0.25"/>
</g>
<path d="M189.287 158.044C189.287 158.044 185.264 155.252 186.362 152.289C187.457 149.33 188.423 149.973 188.351 145.877C188.278 141.782 189.742 139.409 194.155 138.966C198.567 138.522 200.368 136.909 202.603 136.2C204.842 135.49 206.392 135.886 206.983 137.356C207.576 138.822 206.989 141.105 204.124 141.515C201.258 141.925 199.741 142.791 199.461 145.794C199.18 148.8 197.795 149.553 195.174 150.059C192.552 150.569 195.688 157.224 189.287 158.044Z" fill="#399EFD" fill-opacity="0.25"/>
<g opacity="0.4">
<path opacity="0.4" d="M189.178 157.451C189.396 153.365 190.672 149.34 192.935 145.964C195.19 142.595 198.452 139.925 202.194 138.506C198.491 140.032 195.342 142.778 193.218 146.151C191.091 149.53 189.96 153.505 189.858 157.474L189.178 157.451Z" fill="#399EFD" fill-opacity="0.25"/>
</g>
<path d="M187.592 153.732C187.592 153.732 182.903 153.085 182.121 150.319C181.34 147.553 183.21 146.537 180.565 145.527C177.917 144.514 175.978 144.871 175.45 142.211C174.923 139.552 174.091 137.706 172.014 136.589C169.936 135.47 171.681 132.457 173.907 133.39C176.133 134.327 176.855 136.106 180.008 135.833C183.562 135.526 185.62 136.429 185.274 139.235C185.004 141.418 185.534 141.715 187.856 142.685C191.817 144.337 191.055 148.46 189.785 151.202C188.516 153.945 187.592 153.732 187.592 153.732Z" fill="#399EFD" fill-opacity="0.25"/>
<g opacity="0.4">
<path opacity="0.4" d="M186.685 152.962C186.827 151.086 186.435 149.18 185.716 147.417C184.997 145.651 183.965 144.011 182.758 142.525C181.548 141.035 180.159 139.695 178.655 138.502C177.148 137.313 175.526 136.27 173.814 135.393C175.546 136.226 177.204 137.226 178.748 138.382C180.291 139.539 181.729 140.852 182.992 142.328C184.255 143.801 185.35 145.441 186.138 147.24C186.923 149.033 187.394 151.009 187.295 153.012L186.685 152.962Z" fill="#399EFD" fill-opacity="0.25"/>
</g>
<path d="M194.125 152.146H189.033H183.942C183.942 152.146 183.108 156.615 185.446 160.833H189.033H192.621C194.959 156.618 194.125 152.146 194.125 152.146Z" fill="#399EFD"/>
<path d="M194.811 153.978C194.768 152.842 194.669 152.149 194.669 152.149H189.033H183.398C183.398 152.149 183.295 152.842 183.256 153.978H194.811Z" fill="#399EFD"/>
<path d="M65.8681 154.305C65.8846 152.669 69.0108 148.067 68.5326 146.23C67.573 142.551 64.1137 143.644 64.4501 139.525C64.6446 137.156 63.1607 134.96 58.6989 135.276C54.1877 135.596 53.205 133.84 50.8999 133.29C48.5948 132.74 47.0647 133.254 46.5733 134.773C46.082 136.293 46.8338 138.549 49.749 138.752C52.6608 138.955 53.7293 139.479 54.2305 142.485C54.7285 145.491 57.238 143.724 59.4244 145.317C61.1953 146.61 58.4417 147.827 60.2092 150.149C61.281 151.559 65.0074 151.876 65.8681 154.305Z" fill="#399EFD" fill-opacity="0.25"/>
<g opacity="0.4">
<path opacity="0.4" d="M65.2711 153.775C64.882 149.783 63.4574 145.864 61.0699 142.618C58.689 139.379 55.3187 136.843 51.4802 135.58C55.3517 136.736 58.8209 139.189 61.3304 142.415C63.8433 145.647 65.4129 149.603 65.9208 153.699L65.2711 153.775Z" fill="#399EFD" fill-opacity="0.25"/>
</g>
<path d="M69.8517 153.629C69.8517 153.629 63.2794 152.662 63.1771 148.55C63.0749 144.438 66.7551 143.098 63.4937 139.875C60.229 136.653 60.2587 134.783 61.9702 132.63C63.6817 130.474 59.9388 129.648 59.6354 126.119C59.3353 122.59 62.7089 121.42 65.0832 122.693C67.4575 123.966 66.2737 126.895 67.418 128.925C68.5623 130.954 71.794 131.254 72.6712 133.847C73.5484 136.439 72.5426 138.636 72.7569 140.582C72.9713 142.528 75.3588 144.591 75.7248 147.45C76.0942 150.309 71.0454 153.435 69.8517 153.629Z" fill="#67A9E8" fill-opacity="0.25"/>
<g opacity="0.4">
<path opacity="0.4" d="M69.4921 154.892C69.5581 152.426 69.4361 149.926 69.2019 147.45C68.9645 144.974 68.5853 142.508 68.0708 140.075C67.5564 137.639 66.8342 135.25 65.9735 132.917C65.0897 130.588 63.9487 128.368 62.623 126.255C63.9916 128.335 65.1854 130.538 66.1252 132.854C67.042 135.176 67.8202 137.563 68.3907 139.999C68.9612 142.435 69.3965 144.907 69.6933 147.397C69.9802 149.89 70.1616 152.386 70.1484 154.912L69.4921 154.892Z" fill="#399EFD" fill-opacity="0.25"/>
</g>
<path d="M78.1783 150.243C78.8345 147.227 76.4766 148.033 79.25 146.774C82.0234 145.511 82.8181 145.437 83.2105 142.548C83.6029 139.659 84.3713 137.629 86.528 136.289C88.6847 134.95 86.6137 131.834 84.2889 132.987C81.9607 134.14 81.3078 136.093 77.9111 136.013C74.0792 135.923 71.9324 137.026 72.4864 140.012C72.9184 142.335 72.1534 144.321 69.7263 145.517C65.591 147.553 69.911 151.342 71.1806 155.491C73.3636 149.789 77.522 153.259 78.1783 150.243Z" fill="#399EFD" fill-opacity="0.25"/>
<g opacity="0.4">
<path opacity="0.4" d="M71.2168 154.915C70.9793 152.775 71.3553 150.626 72.0775 148.65C72.8029 146.667 73.8714 144.841 75.1278 143.174C76.3875 141.508 77.8385 140.005 79.4181 138.662C80.9977 137.319 82.7092 136.136 84.513 135.13C82.7356 136.186 81.0636 137.413 79.5269 138.789C77.9902 140.169 76.592 141.698 75.3916 143.374C74.1946 145.051 73.1954 146.874 72.5424 148.82C71.8895 150.756 71.5927 152.825 71.8664 154.828L71.2168 154.915Z" fill="#399EFD" fill-opacity="0.25"/>
</g>
<path d="M64.0544 152.146H69.146H74.2376C74.2376 152.146 75.0719 156.614 72.7339 160.833H69.146H65.5581C63.2201 156.618 64.0544 152.146 64.0544 152.146Z" fill="#399EFD"/>
<path d="M63.3652 153.978C63.4081 152.842 63.507 152.149 63.507 152.149H69.1428H74.7785C74.7785 152.149 74.8808 152.842 74.9203 153.978H63.3652Z" fill="#399EFD"/>
<path d="M93.529 88.7047H53.9402C52.6574 88.7047 51.6187 87.6549 51.6187 86.3586V58.9387C51.6187 57.6424 52.6574 56.5927 53.9402 56.5927H93.529C94.8118 56.5927 95.8505 57.6424 95.8505 58.9387V86.3586C95.8505 87.6549 94.8118 88.7047 93.529 88.7047Z" fill="white"/>
<path d="M93.529 89.6444H53.9402C52.1463 89.6444 50.6887 88.1714 50.6887 86.3585V58.9387C50.6887 57.1258 52.1463 55.6528 53.9402 55.6528H93.529C95.3229 55.6528 96.7805 57.1258 96.7805 58.9387V86.3585C96.7805 88.1714 95.3229 89.6444 93.529 89.6444ZM53.9402 57.5324C53.1752 57.5324 52.5486 58.1622 52.5486 58.9387V86.3585C52.5486 87.1317 53.1719 87.7648 53.9402 87.7648H93.529C94.294 87.7648 94.9206 87.135 94.9206 86.3585V58.9387C94.9206 58.1655 94.2973 57.5324 93.529 57.5324H53.9402Z" fill="url(#paint8_linear_601_2030)"/>
<path d="M54.8372 85.3654C54.4612 85.3654 54.1545 85.0555 54.1545 84.6756C54.1545 84.2957 54.4612 83.9858 54.8372 83.9858C56.0045 83.9858 56.5849 83.266 57.4357 82.0929C58.2701 80.9399 59.2132 79.6335 61.1357 79.6335C62.2537 79.6335 62.966 77.8973 63.6552 76.2211C64.4763 74.2215 65.403 71.9588 67.4343 71.9588C69.4459 71.9588 70.178 73.5684 70.7683 74.8614C71.3784 76.2044 71.7774 76.9609 72.8623 76.9609C73.9341 76.9609 75.0091 73.4551 75.7973 70.8924C76.9548 67.1166 77.9572 63.8541 80.0348 63.8541C82.0101 63.8541 82.9532 65.5704 83.781 67.0867C84.6384 68.6529 85.2418 69.606 86.3334 69.606C87.4282 69.606 88.0284 68.6529 88.8858 67.0867C89.7135 65.5704 90.6566 63.8541 92.632 63.8541C93.0079 63.8541 93.3146 64.164 93.3146 64.544C93.3146 64.9239 93.0079 65.2338 92.632 65.2338C91.5371 65.2338 90.9369 66.1869 90.0795 67.7532C89.2518 69.2694 88.3087 70.9857 86.3334 70.9857C84.3581 70.9857 83.4149 69.2694 82.5872 67.7532C81.7298 66.1869 81.1263 65.2338 80.0348 65.2338C78.963 65.2338 77.888 68.7396 77.0998 71.3023C75.9424 75.078 74.9399 78.3405 72.8623 78.3405C70.8507 78.3405 70.1186 76.7309 69.5284 75.4379C68.9183 74.0949 68.5193 73.3384 67.4343 73.3384C66.3164 73.3384 65.6041 75.0747 64.9149 76.7509C64.0938 78.7504 63.1671 81.0132 61.1357 81.0132C59.9684 81.0132 59.388 81.733 58.5372 82.9061C57.7029 84.0591 56.7597 85.3654 54.8372 85.3654Z" fill="#399EFD"/>
<path d="M180.103 55.7794H178.81C178.58 55.7794 178.368 55.6328 178.299 55.4095C178.217 55.1496 178.115 54.8996 177.993 54.663C177.887 54.4531 177.93 54.1998 178.095 54.0332L179.012 53.1067C179.223 52.8934 179.223 52.5435 179.012 52.3303L178.091 51.4005C177.88 51.1872 177.534 51.1872 177.323 51.4005L176.406 52.3269C176.241 52.4935 175.991 52.5369 175.783 52.4302C175.546 52.3069 175.298 52.2036 175.044 52.1203C174.823 52.047 174.678 51.837 174.678 51.6038V50.2974C174.678 49.9942 174.434 49.7476 174.134 49.7476H172.832C172.532 49.7476 172.288 49.9942 172.288 50.2974V51.6038C172.288 51.837 172.142 52.0503 171.922 52.1203C171.664 52.2036 171.417 52.3069 171.183 52.4302C170.975 52.5369 170.724 52.4935 170.56 52.3269L169.646 51.4038C169.435 51.1905 169.089 51.1905 168.878 51.4038L167.958 52.3336C167.747 52.5469 167.747 52.8968 167.958 53.1101L168.874 54.0332C169.039 54.1998 169.082 54.4531 168.977 54.663C168.855 54.9029 168.752 55.1529 168.67 55.4095C168.597 55.6328 168.39 55.7794 168.159 55.7794H166.866C166.566 55.7794 166.322 56.026 166.322 56.3293V57.6456C166.322 57.9489 166.566 58.1955 166.866 58.1955H168.159C168.39 58.1955 168.601 58.3421 168.67 58.5654C168.752 58.8253 168.855 59.0752 168.977 59.3118C169.082 59.5218 169.039 59.7751 168.874 59.9417L167.958 60.8681C167.747 61.0814 167.747 61.4313 167.958 61.6446L168.878 62.5744C169.089 62.7877 169.435 62.7877 169.646 62.5744L170.56 61.6513C170.724 61.4846 170.975 61.4413 171.183 61.548C171.42 61.6713 171.668 61.7746 171.922 61.8579C172.142 61.9312 172.288 62.1411 172.288 62.3744V63.6808C172.288 63.984 172.532 64.2306 172.832 64.2306H174.134C174.434 64.2306 174.678 63.984 174.678 63.6808V62.3744C174.678 62.1411 174.823 61.9279 175.044 61.8579C175.302 61.7746 175.549 61.6713 175.783 61.548C175.991 61.4413 176.241 61.4846 176.406 61.6513L177.323 62.5777C177.534 62.791 177.88 62.791 178.091 62.5777L179.012 61.6479C179.223 61.4347 179.223 61.0847 179.012 60.8715L178.095 59.945C177.93 59.7784 177.887 59.5251 177.993 59.3152C178.115 59.0752 178.217 58.8253 178.299 58.5687C178.372 58.3454 178.58 58.1988 178.81 58.1988H180.103C180.403 58.1988 180.647 57.9522 180.647 57.6489V56.3326C180.647 56.026 180.403 55.7794 180.103 55.7794ZM173.481 59.7184C171.987 59.7184 170.777 58.4954 170.777 56.9858C170.777 55.4761 171.987 54.2531 173.481 54.2531C174.975 54.2531 176.185 55.4761 176.185 56.9858C176.185 58.4987 174.975 59.7184 173.481 59.7184Z" fill="#399EFD"/>
<path d="M189.327 61.7246H188.512C188.367 61.7246 188.235 61.6313 188.189 61.4913C188.136 61.328 188.074 61.1714 187.998 61.0214C187.932 60.8915 187.958 60.7315 188.064 60.6249L188.641 60.0417C188.776 59.9084 188.776 59.6884 188.641 59.5518L188.06 58.9653C187.925 58.8286 187.711 58.8286 187.576 58.9653L186.999 59.5485C186.896 59.6518 186.738 59.6818 186.606 59.6151C186.458 59.5385 186.303 59.4718 186.141 59.4218C186.003 59.3752 185.91 59.2419 185.91 59.0952V58.2721C185.91 58.0822 185.759 57.9255 185.567 57.9255H184.746C184.558 57.9255 184.403 58.0788 184.403 58.2721V59.0952C184.403 59.2419 184.311 59.3752 184.172 59.4218C184.011 59.4751 183.856 59.5385 183.707 59.6151C183.579 59.6818 183.421 59.6551 183.315 59.5485L182.738 58.9653C182.606 58.8286 182.388 58.8286 182.253 58.9653L181.673 59.5518C181.541 59.6851 181.541 59.905 181.673 60.0417L182.25 60.6249C182.352 60.7282 182.382 60.8881 182.313 61.0214C182.237 61.1714 182.171 61.328 182.121 61.4913C182.075 61.6313 181.943 61.7246 181.798 61.7246H180.984C180.796 61.7246 180.641 61.8779 180.641 62.0712V62.901C180.641 63.0909 180.792 63.2475 180.984 63.2475H181.798C181.943 63.2475 182.075 63.3409 182.121 63.4808C182.174 63.6441 182.237 63.8007 182.313 63.9507C182.378 64.0807 182.352 64.2406 182.25 64.3473L181.673 64.9305C181.538 65.0638 181.538 65.2837 181.673 65.4203L182.253 66.0069C182.385 66.1435 182.603 66.1435 182.738 66.0069L183.315 65.4237C183.417 65.3204 183.576 65.2904 183.707 65.357C183.856 65.4337 184.011 65.5003 184.172 65.5503C184.311 65.597 184.403 65.7303 184.403 65.8769V66.7C184.403 66.89 184.555 67.0466 184.746 67.0466H185.567C185.755 67.0466 185.91 66.8933 185.91 66.7V65.8769C185.91 65.7303 186.003 65.597 186.141 65.5503C186.303 65.497 186.458 65.4337 186.606 65.357C186.735 65.2904 186.893 65.317 186.999 65.4237L187.576 66.0069C187.708 66.1435 187.925 66.1402 188.06 66.0069L188.641 65.4203C188.773 65.287 188.773 65.0671 188.641 64.9305L188.064 64.3473C187.961 64.244 187.932 64.084 187.998 63.9507C188.074 63.8007 188.14 63.6441 188.189 63.4808C188.235 63.3409 188.367 63.2475 188.512 63.2475H189.327C189.515 63.2475 189.67 63.0943 189.67 62.901V62.0712C189.67 61.8812 189.515 61.7246 189.327 61.7246ZM185.158 64.204C184.219 64.204 183.457 63.4342 183.457 62.4844C183.457 61.5346 184.219 60.7648 185.158 60.7648C186.098 60.7648 186.86 61.5346 186.86 62.4844C186.86 63.4375 186.098 64.204 185.158 64.204Z" fill="#399EFD"/>
<path d="M181.429 47.0783H180.924C180.835 47.0783 180.753 47.0216 180.726 46.935C180.693 46.835 180.654 46.7383 180.608 46.645C180.568 46.5651 180.584 46.4651 180.647 46.4018L181.003 46.0419C181.086 45.9585 181.086 45.8219 181.003 45.7386L180.644 45.3754C180.561 45.292 180.426 45.292 180.344 45.3754L179.988 45.7353C179.925 45.7986 179.826 45.8152 179.747 45.7753C179.655 45.7286 179.559 45.6886 179.46 45.6553C179.374 45.6286 179.318 45.5453 179.318 45.4553V44.9455C179.318 44.8288 179.223 44.7322 179.107 44.7322H178.599C178.484 44.7322 178.388 44.8288 178.388 44.9455V45.4553C178.388 45.5453 178.332 45.6286 178.246 45.6553C178.148 45.6886 178.052 45.7286 177.96 45.7753C177.88 45.8152 177.781 45.7986 177.719 45.7353L177.363 45.3754C177.28 45.292 177.145 45.292 177.063 45.3754L176.703 45.7386C176.621 45.8219 176.621 45.9585 176.703 46.0419L177.059 46.4018C177.122 46.4651 177.138 46.5651 177.099 46.645C177.053 46.7383 177.013 46.835 176.98 46.935C176.954 47.0216 176.871 47.0783 176.782 47.0783H176.278C176.162 47.0783 176.067 47.1749 176.067 47.2915V47.8047C176.067 47.9214 176.162 48.018 176.278 48.018H176.782C176.871 48.018 176.954 48.0747 176.98 48.1613C177.013 48.2613 177.053 48.3579 177.099 48.4513C177.138 48.5312 177.122 48.6312 177.059 48.6945L176.703 49.0544C176.621 49.1378 176.621 49.2744 176.703 49.3577L177.063 49.7209C177.145 49.8043 177.28 49.8043 177.363 49.7209L177.719 49.361C177.781 49.2977 177.88 49.2777 177.96 49.321C178.052 49.3677 178.148 49.4077 178.246 49.441C178.332 49.4677 178.388 49.551 178.388 49.641V50.1508C178.388 50.2675 178.484 50.3641 178.599 50.3641H179.107C179.223 50.3641 179.318 50.2675 179.318 50.1508V49.641C179.318 49.551 179.374 49.4677 179.46 49.441C179.559 49.4077 179.655 49.3677 179.747 49.321C179.826 49.281 179.925 49.2977 179.988 49.361L180.344 49.7209C180.426 49.8043 180.561 49.8043 180.644 49.7209L181.003 49.3577C181.086 49.2744 181.086 49.1378 181.003 49.0544L180.647 48.6945C180.584 48.6312 180.565 48.5312 180.608 48.4513C180.654 48.3579 180.693 48.2613 180.726 48.1613C180.753 48.0747 180.835 48.018 180.924 48.018H181.429C181.544 48.018 181.64 47.9214 181.64 47.8047V47.2915C181.64 47.1749 181.547 47.0783 181.429 47.0783ZM178.853 48.6112C178.273 48.6112 177.801 48.1347 177.801 47.5481C177.801 46.9616 178.273 46.4851 178.853 46.4851C179.434 46.4851 179.905 46.9616 179.905 47.5481C179.905 48.1347 179.437 48.6112 178.853 48.6112Z" fill="#399EFD"/>
<path d="M106.687 136.089C106.542 134.943 105.965 133.887 105.216 133.014C104.467 132.14 103.551 131.434 102.621 130.761C101.437 129.901 100.157 129.061 98.7064 128.895C98.0171 128.815 97.2916 128.901 96.6915 129.255C96.0913 129.608 95.6428 130.254 95.6296 130.954C95.6164 131.811 96.2232 132.55 96.886 133.084C97.5489 133.617 98.3139 134.05 98.8317 134.726C99.5044 135.603 99.6759 136.766 100.223 137.726C100.748 138.642 101.618 139.349 102.617 139.669C103.511 139.952 105.061 140.068 105.744 139.285C106.495 138.429 106.829 137.209 106.687 136.089Z" fill="#399EFD" fill-opacity="0.25"/>
<path d="M106.924 136.173C106.608 135.36 106.463 134.457 106.657 133.607C106.885 132.624 107.538 131.801 107.877 130.851C108.224 129.888 108.243 128.798 108.784 127.932C109.411 126.932 110.74 126.439 111.851 126.808C112.962 127.182 113.741 128.398 113.595 129.571C113.493 130.388 113.012 131.104 112.794 131.897C112.484 133.034 112.728 134.273 112.385 135.4C112.098 136.343 111.386 137.143 110.492 137.532C110.07 137.716 109.618 137.826 109.186 137.989C108.903 138.099 108.573 138.296 108.257 138.209C107.61 138.026 107.148 136.739 106.924 136.173Z" fill="#399EFD" fill-opacity="0.25"/>
<path d="M109.091 143.411C109.529 142.598 110.403 142.045 111.317 141.998C111.97 141.965 112.606 142.171 113.256 142.225C113.978 142.288 114.717 142.165 115.422 142.325C116.128 142.485 116.83 143.071 116.774 143.801C116.735 144.331 116.293 144.764 115.798 144.947C115.304 145.131 114.759 145.114 114.235 145.081C113.707 145.051 113.17 145.007 112.662 145.144C112.052 145.311 111.541 145.717 110.98 146.007C110.387 146.314 109.43 146.58 109.028 145.894C108.606 145.181 108.711 144.111 109.091 143.411Z" fill="#399EFD" fill-opacity="0.25"/>
<g opacity="0.4">
<path opacity="0.4" d="M107.369 152.595L107.04 152.569C107.069 152.205 107.798 143.658 112.418 143.168L112.454 143.498C108.105 143.961 107.376 152.509 107.369 152.595Z" fill="#E5E5FF"/>
</g>
<g opacity="0.4">
<path opacity="0.4" d="M107.099 154.602C107.092 154.465 106.423 140.782 109.975 131.051L110.285 131.167C106.756 140.832 107.422 154.448 107.429 154.585L107.099 154.602Z" fill="#E5E5FF"/>
</g>
<g opacity="0.4">
<path opacity="0.4" d="M107.521 146.467L107.191 146.46C107.191 146.367 107.241 137.086 99.5342 131.97L99.7156 131.691C107.577 136.909 107.524 146.374 107.521 146.467Z" fill="#E5E5FF"/>
</g>
<path d="M112.233 152.249H107.201H102.169C102.169 152.249 101.344 156.668 103.653 160.837H107.201H110.749C113.058 156.668 112.233 152.249 112.233 152.249Z" fill="#399EFD"/>
<path d="M112.913 154.058C112.873 152.935 112.771 152.249 112.771 152.249H107.201H101.631C101.631 152.249 101.532 152.932 101.49 154.058H112.913Z" fill="#399EFD"/>
<path d="M132.814 21.1348H126.628V30.7624H132.814V21.1348Z" fill="#399EFD"/>
<path d="M129.721 15.0696L124.082 22.1578H135.36L129.721 15.0696Z" fill="#399EFD"/>
<g opacity="0.25">
<path opacity="0.25" d="M170.138 36.6774C166.088 36.6774 162.797 33.3482 162.797 29.2592C162.797 25.1702 166.091 21.8411 170.138 21.8411C174.187 21.8411 177.478 25.1702 177.478 29.2592C177.478 33.3482 174.187 36.6774 170.138 36.6774ZM170.138 24.697C167.651 24.697 165.626 26.7432 165.626 29.2559C165.626 31.7686 167.651 33.8148 170.138 33.8148C172.624 33.8148 174.649 31.7686 174.649 29.2559C174.649 26.7432 172.624 24.697 170.138 24.697Z" fill="#399EFD"/>
</g>
<path d="M166.464 35.6812C164.202 34.3582 162.797 31.8954 162.797 29.2561H165.626C165.626 30.879 166.49 32.392 167.882 33.2051L166.464 35.6812Z" fill="url(#paint9_linear_601_2030)"/>
<path d="M165.626 29.256H162.797C162.797 25.1637 166.091 21.8379 170.138 21.8379V24.6972C167.651 24.6972 165.626 26.7433 165.626 29.256Z" fill="#399EFD"/>
<path opacity="0.33" d="M41.8245 30.0293H37.9794C37.5606 30.0293 37.2209 29.686 37.2209 29.2628V25.3771C37.2209 24.9538 37.5606 24.6106 37.9794 24.6106H41.8245C42.2433 24.6106 42.583 24.9538 42.583 25.3771V29.2628C42.583 29.686 42.2433 30.0293 41.8245 30.0293Z" fill="#399EFD"/>
<path d="M39.2326 28.6562C39.2293 28.6562 39.226 28.6562 39.2194 28.6562C39.1205 28.6529 39.0248 28.6096 38.9589 28.5329L38.3488 27.8464C38.2136 27.6931 38.2268 27.4599 38.3752 27.3232C38.5269 27.1866 38.7577 27.1999 38.8929 27.3499L39.2458 27.7498L40.9243 26.0869C41.0694 25.9436 41.3002 25.9469 41.442 26.0935C41.5838 26.2402 41.5805 26.4734 41.4354 26.6167L39.4832 28.5496C39.4206 28.6196 39.3282 28.6562 39.2326 28.6562Z" fill="white"/>
<path d="M183.546 111.472H179.701C179.282 111.472 178.942 111.129 178.942 110.706V106.82C178.942 106.397 179.282 106.054 179.701 106.054H183.546C183.965 106.054 184.304 106.397 184.304 106.82V110.706C184.301 111.129 183.965 111.472 183.546 111.472Z" fill="#A1A1E5"/>
<path d="M180.954 110.103C180.951 110.103 180.947 110.103 180.941 110.103C180.842 110.099 180.746 110.056 180.68 109.979L180.07 109.293C179.935 109.14 179.948 108.906 180.097 108.77C180.248 108.633 180.479 108.646 180.614 108.796L180.971 109.193L182.649 107.53C182.794 107.387 183.025 107.39 183.167 107.537C183.309 107.683 183.305 107.917 183.16 108.06L181.208 109.993C181.142 110.063 181.05 110.103 180.954 110.103Z" fill="white"/>
<g opacity="0.33">
<path opacity="0.33" d="M28.1656 122.719H22.4342C21.8109 122.719 21.3064 122.21 21.3064 121.58V115.791C21.3064 115.161 21.8109 114.651 22.4342 114.651H28.1623C28.7856 114.651 29.2901 115.161 29.2901 115.791V121.58C29.2934 122.21 28.7888 122.719 28.1656 122.719Z" fill="#399EFD"/>
</g>
<path d="M24.3006 120.673C24.294 120.673 24.2874 120.673 24.2842 120.673C24.1358 120.67 23.994 120.603 23.895 120.49L22.9882 119.47C22.787 119.244 22.8068 118.897 23.0277 118.694C23.252 118.49 23.5982 118.51 23.7961 118.734L24.3237 119.327L26.8234 116.851C27.0377 116.638 27.384 116.641 27.595 116.858C27.8061 117.074 27.8028 117.424 27.5884 117.637L24.6799 120.517C24.5809 120.617 24.4424 120.673 24.3006 120.673Z" fill="white"/>
<path opacity="0.38" d="M71.4642 29.5027H69.3372V31.7888H71.4642V29.5027Z" fill="#399EFD"/>
<g opacity="0.38">
<path opacity="0.38" d="M74.5113 28.123H72.3843V31.7888H74.5113V28.123Z" fill="#399EFD"/>
</g>
<g opacity="0.38">
<path opacity="0.38" d="M77.5584 26.3701H75.4314V31.7888H77.5584V26.3701Z" fill="#399EFD"/>
</g>
<g opacity="0.38">
<path opacity="0.38" d="M80.6053 24.1473H78.4783V31.7921H80.6053V24.1473Z" fill="#399EFD"/>
</g>
<path d="M47.823 157.757H44.5187L44.1956 152.352L47.4174 152.146L47.823 157.757Z" fill="#FFC29E"/>
<path d="M30.2431 157.634L27.0212 157.538L27.5983 152.799L30.5794 153.262L30.2431 157.634Z" fill="#FFC29E"/>
<path d="M33.1385 101.471L26.675 155.618H30.6323L40.0208 116.214L44.0209 155.618H47.9352L46.9723 101.471H33.1385Z" fill="url(#paint10_linear_601_2030)"/>
<path d="M56.6907 81.5464C56.6907 81.5464 57.3469 80.2734 57.2942 79.6902C57.2447 79.1037 57.1293 78.2672 57.7163 77.3674C57.8548 77.1575 58.2373 76.601 58.2373 76.601C58.2373 76.601 58.5506 76.9375 58.389 77.3008C58.2241 77.664 58.1153 78.0506 58.1153 78.0506C58.1153 78.0506 58.4022 77.5241 59.4871 77.2075C59.995 77.0575 61.9967 76.5443 61.9967 76.5443C62.2803 76.5476 62.2407 76.9575 61.6834 77.2241C61.6834 77.2241 61.9307 77.4841 61.4756 77.744C61.4756 77.744 61.7955 77.9873 61.1623 78.3439C61.1623 78.3439 61.413 78.5471 60.76 78.9437C60.1763 79.297 59.2332 79.8102 59.0221 80.1434C58.7418 80.5933 58.2933 82.1329 58.2933 82.1329L56.6907 81.5464Z" fill="#FFC29E"/>
<path d="M35.9415 75.7346C35.9415 75.7346 31.9183 76.9243 31.0049 77.1675C30.0914 77.4108 31.0049 83.2927 32.2547 90.0477C33.5045 96.8027 33.1385 101.471 33.1385 101.471H46.9723C46.9723 101.471 47.5461 79.6569 47.2295 78.9171C46.6524 77.5774 40.8518 75.7179 40.8518 75.7179L35.9415 75.7346Z" fill="#399EFD"/>
<path d="M36.7494 70.9058C36.7494 70.9058 36.8879 74.2549 36.3108 75.5979L37.0165 76.9509L38.8764 78.094L40.0537 77.2009L40.3999 76.1811V70.9058H36.7494Z" fill="#FFAA7F"/>
<path d="M35.2788 68.433C35.1172 68.0031 35.1304 67.5099 35.3184 67.09C35.4734 66.7468 35.7306 66.4635 35.8955 66.1269C36.0406 65.8336 36.1164 65.4937 36.3472 65.2605C36.5814 65.0272 36.9408 64.9472 37.2607 65.0139C37.5839 65.0772 37.8708 65.2705 38.1016 65.5071C38.4182 65.8303 38.6424 66.2469 38.7447 66.6934C38.8667 67.2333 38.804 67.7998 38.6985 68.343C38.6029 68.8362 38.4611 69.3428 38.1247 69.7127C37.8609 70.0059 37.4849 70.1926 37.0925 70.2226C36.7067 70.2559 36.1494 70.1459 35.9317 69.7793C35.8262 69.5994 35.7734 69.3894 35.6811 69.2028C35.5492 68.9462 35.381 68.7029 35.2788 68.433Z" fill="url(#paint11_linear_601_2030)"/>
<path d="M42.3555 65.5704C42.3555 65.5704 43.1569 72.9919 41.0101 74.0616C39.6217 74.7548 37.4024 74.0116 37.066 70.7091C36.7297 67.4033 38.2037 65.7937 39.9185 65.5737C41.4256 65.3738 42.3555 65.5704 42.3555 65.5704Z" fill="#FFC29E"/>
<path d="M37.0166 69.2628C37.0166 69.2628 36.5187 68.713 36.0372 69.2628C35.5558 69.8127 36.4362 70.9657 37.1024 71.0224L37.0166 69.2628Z" fill="#FFC29E"/>
<path d="M38.1411 66.6301C38.5368 66.6834 38.9424 66.6334 39.3414 66.6868C39.8064 66.7501 40.2417 66.95 40.6836 67.1133C41.3398 67.3533 42.0422 67.5099 42.7381 67.4366C43.4339 67.3633 44.1231 67.0367 44.532 66.4635C44.9475 65.8803 45.0266 65.0672 44.7266 64.414C44.4298 63.7608 43.7669 63.2909 43.0579 63.231C42.2632 63.1643 41.5179 63.5675 40.7693 63.8441C39.9713 64.1407 39.1238 64.3007 38.273 64.314C37.9234 64.3207 37.5673 64.304 37.2276 64.3873C36.888 64.4706 36.5582 64.6806 36.4263 65.0105C36.2581 65.4337 36.5318 65.7603 36.8385 65.9969C37.2441 66.3069 37.6299 66.5601 38.1411 66.6301Z" fill="url(#paint12_linear_601_2030)"/>
<path d="M36.4493 75.1947C36.4493 75.1947 36.9109 76.8143 38.8763 78.094C38.8137 78.7005 37.1286 79.9335 36.4097 77.904C36.0535 76.9009 35.9414 75.7379 35.9414 75.7379L36.4493 75.1947Z" fill="#1C94F7"/>
<path d="M38.8765 78.0939C40.3604 77.0641 40.4 75.2479 40.4 75.2479L40.8518 75.7211C40.8518 75.7211 41.1848 77.744 40.4791 78.6771C39.9944 79.3169 38.9391 78.4838 38.8765 78.0939Z" fill="#1C94F7"/>
<path d="M32.1919 101.685C32.1919 101.685 33.5869 103.824 34.187 104.311C34.7872 104.797 35.2489 105.824 35.2489 105.824L33.4747 108.26C33.4747 108.26 32.4096 107.903 32.0732 106.613C31.7369 105.324 31.417 105.184 30.8663 103.944C30.3123 102.704 30.3123 102.704 30.3123 102.704L32.1919 101.685Z" fill="#FFC29E"/>
<path d="M30.7938 77.3842C30.7938 77.3842 28.7427 77.5108 27.7797 81.3032C26.8168 85.0956 25.6198 91.3307 25.2999 93.9867C25.1647 95.1131 31.0873 104.974 31.0873 104.974C31.0873 104.974 32.2646 103.894 33.31 102.991C33.31 102.991 30.0354 96.0795 30.0354 93.5501C30.0354 93.5501 32.9736 85.3022 33.0692 82.8095C33.1682 80.2801 33.1814 77.6441 30.7938 77.3842Z" fill="#399EFD"/>
<path d="M47.2295 78.9203C47.9979 79.037 50.3392 84.3156 51.8298 87.0383C53.3203 89.761 53.3203 89.761 53.3203 89.761L56.928 80.43C56.928 80.43 58.1317 80.2367 58.8505 81.3064C58.8505 81.3064 56.928 93.8966 56.4465 95.3062C55.9651 96.7159 54.4745 97.7357 51.8298 94.3832C49.185 91.0306 44.6144 84.5156 44.2319 83.7858C43.8461 83.0526 42.7875 78.2405 47.2295 78.9203Z" fill="#399EFD"/>
<path d="M44.5188 157.368H47.5955C47.5955 157.368 47.9319 157.368 48.941 158.437C49.9501 159.507 52.885 158.487 53.9898 160.623H44.2748C44.2781 160.623 43.3646 158.924 44.5188 157.368Z" fill="#0E2E3D"/>
<path d="M25.9066 160.623C25.5372 159.377 26.4045 158.467 26.6749 157.368C26.8431 156.688 30.2199 156.268 30.5563 157.757C30.8762 159.184 30.619 160.627 30.619 160.627H25.9066V160.623Z" fill="#0E2E3D"/>
<path d="M35.5255 104.553L32.7859 108.607L33.4204 109.045L36.16 104.991L35.5255 104.553Z" fill="#003853"/>
<path d="M46.9887 101.471H33.1384V102.475H46.9887V101.471Z" fill="#003853"/>
<path d="M40.0208 116.214L41.9466 108.95L40.6803 122.69L40.0208 116.214Z" fill="#003853"/>
<path d="M47.2593 88.2014L47.3252 82.8727L48.5487 89.9976L47.2593 88.2014Z" fill="#1C94F7"/>
<path d="M31.8755 87.9615L32.7725 84.6589L32.4427 91.1073C32.4394 91.1107 31.8953 88.2914 31.8755 87.9615Z" fill="#1C94F7"/>
<path d="M164.753 160.17L158.348 131.844H160.743L165.702 160.17C165.673 160.777 164.782 160.777 164.753 160.17Z" fill="#2E3552"/>
<path d="M148.574 160.17L142.17 131.844H144.564L149.524 160.17C149.491 160.777 148.604 160.777 148.574 160.17Z" fill="#2E3552"/>
<path d="M126.41 160.17L132.814 131.844H130.42L125.46 160.17C125.493 160.777 126.38 160.777 126.41 160.17Z" fill="#2E3552"/>
<path d="M167.189 109.416H154.163C153.323 109.416 152.574 109.946 152.287 110.742L145.919 128.425C145.444 129.741 146.411 131.134 147.796 131.134H160.822C161.662 131.134 162.411 130.604 162.698 129.808L169.066 112.125C169.537 110.809 168.574 109.416 167.189 109.416Z" fill="#2B478B"/>
<path d="M162.078 132.547H128.61C128.224 132.547 127.914 132.23 127.914 131.844C127.914 131.454 128.227 131.141 128.61 131.141H162.078C162.464 131.141 162.774 131.457 162.774 131.844C162.777 132.23 162.464 132.547 162.078 132.547Z" fill="#2B478B"/>
<path d="M162.078 132.547H148.577C148.191 132.547 147.881 132.23 147.881 131.844C147.881 131.454 148.195 131.141 148.577 131.141H162.078C162.464 131.141 162.774 131.457 162.774 131.844C162.777 132.23 162.464 132.547 162.078 132.547Z" fill="#2B478B"/>
<path d="M141.533 160.17L147.938 131.844H145.543L140.584 160.17C140.613 160.777 141.504 160.777 141.533 160.17Z" fill="#2E3552"/>
<path d="M152.201 91.1774C152.201 91.1774 150.279 91.2807 150.117 93.3868C149.956 95.493 150.331 96.586 149.435 98.6922C148.538 100.798 147.809 103.624 151.562 103.884C155.314 104.144 156.465 103.981 157.623 104.887C158.78 105.794 162.714 103.041 161.303 100.612C159.891 98.1823 159.354 96.7893 159.931 94.9098C160.508 93.0302 159.295 90.9708 157.046 90.081C155.156 89.3378 153.613 89.4511 152.201 91.1774Z" fill="url(#paint13_linear_601_2030)"/>
<path d="M151.229 103.238C151.229 103.238 151.753 104.891 150.46 109.653C149.171 114.408 148.749 115.988 147.532 116.878C146.78 117.427 138.252 117.427 138.252 117.427V114.998L145.758 114.075C145.758 114.075 146.707 109.369 147.667 106.417C148 105.394 148.557 102.744 149.741 102.221C150.925 101.698 151.229 103.238 151.229 103.238Z" fill="#1C94F7"/>
<path d="M160.861 111.372C160.508 114.058 159.545 120.64 159.545 120.64H149.573C149.573 120.64 149.873 116.614 149.385 114.432C149.296 114.032 149.181 113.688 149.032 113.449C148.257 112.199 147.565 111.032 147.558 109.746C147.558 109.436 147.598 109.113 147.687 108.783C148.132 107.1 148.808 103.371 149.642 102.335C150.477 101.295 154.635 101.428 154.635 101.428C154.635 101.428 160.07 101.445 161.699 102.365C162.134 102.611 162.299 103.161 162.335 103.824C162.441 105.877 161.128 109.34 160.861 111.372Z" fill="#399EFD"/>
<path d="M159.255 112.246C159.255 112.246 151.651 112.865 149.385 114.428C149.296 114.028 149.181 113.685 149.032 113.445C148.257 112.196 147.565 111.029 147.558 109.743C148.063 110.799 149.349 112.206 152.617 112.246C157.877 112.309 159.255 112.246 159.255 112.246Z" fill="#1C94F7"/>
<path d="M160.861 111.372C160.508 114.058 159.545 120.64 159.545 120.64L160.024 105.091L162.329 103.824C162.441 105.877 161.128 109.34 160.861 111.372Z" fill="#1C94F7"/>
<path d="M157.029 115.308C157.029 115.308 152.274 115.485 150.78 115.581C150.78 115.581 149.421 115.061 148.58 114.998C147.308 114.902 146.183 116.188 145.847 117.428H156.871L157.029 115.308Z" fill="#FFC29E"/>
<path d="M162.117 102.878C162.117 102.878 163.519 105.521 164.432 109.023C165.346 112.522 166.596 116.071 165.442 117.044C164.287 118.017 156.881 117.628 156.881 117.628L156.689 115.001L162.332 114.078C162.332 114.078 160.201 108.683 159.865 107.71C159.529 106.737 159.275 103.751 160.459 103.228C161.646 102.701 162.117 102.878 162.117 102.878Z" fill="#399EFD"/>
<path d="M134.938 157.861H133.24L133.019 155.325L135.093 155.118L134.938 157.861Z" fill="#FFC29E"/>
<path d="M134.938 157.861C134.938 157.861 135.565 158.521 135.357 159.98C135.258 160.67 133.767 160.627 131.251 160.627H128.748C128.323 160.627 128.135 160.094 128.458 159.814C128.61 159.684 128.824 159.56 129.124 159.467C131.954 158.581 133.236 157.861 133.236 157.861H134.938Z" fill="#07222D"/>
<path d="M155.064 120.637C155.047 121.513 157.036 124.479 156.64 127.368C156.383 129.265 154.77 131.134 151.014 131.134C145.883 131.134 137.705 131.077 136.369 131.134C135.307 131.177 134.803 131.201 135.426 133.224C136.9 138.012 135.654 146.164 135.268 157.198H133.025C133.025 157.198 131.037 145.747 130.212 140.209C128.93 131.591 126.981 128.208 130.694 126.422C134.618 124.532 149.59 120.637 149.59 120.637H155.064Z" fill="url(#paint14_linear_601_2030)"/>
<path d="M139.776 157.861H138.077L137.856 155.325L139.931 155.118L139.776 157.861Z" fill="#FFC29E"/>
<path d="M139.776 157.861C139.776 157.861 140.402 158.521 140.195 159.98C140.096 160.67 138.605 160.627 136.089 160.627H133.586C133.161 160.627 132.973 160.094 133.296 159.814C133.447 159.684 133.662 159.56 133.962 159.467C136.791 158.581 138.074 157.861 138.074 157.861H139.776Z" fill="#0E2E3D"/>
<path d="M159.545 120.637C159.529 121.513 161.517 124.479 161.122 127.368C160.864 129.265 159.252 131.134 155.496 131.134C150.365 131.134 142.219 131.134 140.851 131.134C139.789 131.134 139.284 131.201 139.908 133.224C141.382 138.012 140.722 146.26 139.987 157.198H137.741C137.741 157.198 135.522 145.747 134.697 140.209C133.415 131.591 131.466 128.208 135.179 126.422C139.103 124.532 152.93 120.637 152.93 120.637H159.545Z" fill="url(#paint15_linear_601_2030)"/>
<path d="M151.915 101.545C151.915 101.545 151.885 103.691 153.326 104.924C153.326 104.924 156.386 103.481 157.491 101.551C157.491 101.548 154.619 101.231 151.915 101.545Z" fill="#FFC29E"/>
<path d="M152.538 101.481C152.538 101.481 153.293 101.405 153.293 100.508C153.293 99.6153 153.382 97.9124 153.382 97.9124L156.221 98.1556C156.221 98.1556 155.981 100.965 156.439 101.481C156.897 101.998 156.897 101.998 156.897 101.998C156.897 101.998 152.993 102.668 152.538 101.481Z" fill="#FFC29E"/>
<path d="M153.293 100.152C153.293 100.152 155.159 100.445 156.155 99.6419L156.218 98.1589L153.293 98.7988V100.152Z" fill="#FFAA7F"/>
<path d="M151.641 92.2238C151.641 92.2238 149.141 99.1521 152.65 99.9319C156.162 100.708 156.884 97.0159 156.884 97.0159C156.884 97.0159 157.791 96.7993 157.933 96.0028C158.068 95.233 157.013 95.5263 157.013 95.5263C157.013 95.5263 157.946 92.677 155.826 91.7206C153.6 90.7108 152.073 91.2373 151.641 92.2238Z" fill="#FFC29E"/>
<path d="M151.977 91.3773C151.977 91.3773 152.782 95.2663 157.013 95.5262C157.013 95.5262 158.104 92.7736 157.366 91.6039C156.627 90.4375 153.227 89.7077 151.977 91.3773Z" fill="#0E2E3D"/>
<path d="M148.112 116.651H131.4L127.396 105.534C127.225 105.061 127.571 104.561 128.069 104.561H143.258C143.558 104.561 143.829 104.751 143.931 105.037L148.112 116.651Z" fill="url(#paint16_linear_601_2030)"/>
<path d="M158.045 117.701H141.434C141.147 117.701 140.913 117.464 140.913 117.174C140.913 116.884 141.147 116.648 141.434 116.648H158.045C158.332 116.648 158.566 116.884 158.566 117.174C158.566 117.467 158.332 117.701 158.045 117.701Z" fill="url(#paint17_linear_601_2030)"/>
<path d="M148.059 117.701H131.449C131.162 117.701 130.928 117.464 130.928 117.174C130.928 116.884 131.162 116.648 131.449 116.648H148.059C148.346 116.648 148.58 116.884 148.58 117.174C148.58 117.467 148.346 117.701 148.059 117.701Z" fill="#0E2E3D"/>
<path d="M187.523 159.96L178.19 118.684H181.679L188.908 159.96C188.862 160.847 187.569 160.847 187.523 159.96Z" fill="#2E3552"/>
<path d="M93.3178 159.96L83.9854 118.684H87.4743L94.6995 159.96C94.6567 160.847 93.3607 160.847 93.3178 159.96Z" fill="#2E3552"/>
<path d="M56.4168 159.96L65.7492 118.684H62.2603L55.0317 159.96C55.0779 160.847 56.3706 160.847 56.4168 159.96Z" fill="#2E3552"/>
<path d="M146.051 159.96L155.384 118.684H151.895L144.669 159.96C144.712 160.847 146.008 160.847 146.051 159.96Z" fill="#2E3552"/>
<path d="M55.8726 119.667H188.994C189.459 119.667 189.835 119.287 189.835 118.817V118.551C189.835 118.081 189.459 117.701 188.994 117.701H55.8726C55.4077 117.701 55.0317 118.081 55.0317 118.551V118.817C55.0317 119.287 55.411 119.667 55.8726 119.667Z" fill="#CBCBFF"/>
<path d="M159.245 119.667H188.862C189.399 119.667 189.835 119.227 189.835 118.684C189.835 118.141 189.399 117.701 188.862 117.701H159.245C158.708 117.701 158.272 118.141 158.272 118.684C158.272 119.227 158.708 119.667 159.245 119.667Z" fill="#7EB9C5"/>
<path d="M84.1865 116.651H100.899L104.903 105.534C105.074 105.061 104.728 104.561 104.23 104.561H89.0407C88.7406 104.561 88.4702 104.751 88.368 105.037L84.1865 116.651Z" fill="url(#paint18_linear_601_2030)"/>
<path d="M74.2539 117.701H90.8644C91.1513 117.701 91.3854 117.464 91.3854 117.174C91.3854 116.884 91.1513 116.648 90.8644 116.648H74.2539C73.967 116.648 73.7329 116.884 73.7329 117.174C73.7329 117.467 73.967 117.701 74.2539 117.701Z" fill="url(#paint19_linear_601_2030)"/>
<path d="M84.2393 117.701H100.85C101.137 117.701 101.371 117.464 101.371 117.174C101.371 116.884 101.137 116.648 100.85 116.648H84.2393C83.9524 116.648 83.7183 116.884 83.7183 117.174C83.7216 117.467 83.9524 117.701 84.2393 117.701Z" fill="url(#paint20_linear_601_2030)"/>
<path d="M120.158 70.1426H110.182C107.818 70.1426 105.905 68.2064 105.905 65.8203V55.7395C105.905 53.3501 107.821 51.4172 110.182 51.4172H120.158C122.522 51.4172 124.435 53.3534 124.435 55.7395V65.8203C124.438 68.2097 122.522 70.1426 120.158 70.1426Z" fill="white"/>
<path d="M120.158 70.1426C120.158 70.1226 120.392 70.1392 120.831 70.0626C121.263 69.9859 121.912 69.8093 122.595 69.3194C123.271 68.8362 123.977 67.9964 124.254 66.8234C124.405 66.2435 124.366 65.5937 124.369 64.9039C124.366 64.2174 124.366 63.4875 124.362 62.7244C124.359 61.1981 124.353 59.5252 124.349 57.729C124.349 57.2791 124.346 56.8225 124.346 56.3593C124.339 55.8928 124.366 55.4262 124.27 54.9663C124.099 54.0499 123.62 53.1534 122.869 52.5203C122.127 51.8804 121.137 51.5039 120.112 51.5105C119.066 51.5105 117.998 51.5138 116.913 51.5138C114.74 51.5138 112.487 51.5138 110.186 51.5172C109.058 51.5105 107.96 51.9937 107.198 52.7902C106.43 53.58 106.008 54.6697 106.011 55.7428C106.008 57.9389 106.008 60.0584 106.004 62.0779C106.004 63.0876 106.001 64.0707 106.001 65.0272C106.004 65.507 105.981 65.9769 106.047 66.4235C106.106 66.8734 106.238 67.3066 106.436 67.6965C106.819 68.4896 107.442 69.1128 108.144 69.516C108.853 69.9159 109.635 70.0826 110.384 70.0592C113.398 70.0726 115.838 70.0859 117.54 70.0926C118.377 70.1026 119.03 70.1092 119.485 70.1126C119.7 70.1159 119.868 70.1192 119.99 70.1226C120.099 70.1359 120.158 70.1392 120.158 70.1426C120.158 70.1459 120.099 70.1492 119.986 70.1525C119.861 70.1559 119.696 70.1592 119.482 70.1625C119.027 70.1659 118.374 70.1725 117.536 70.1825C115.835 70.1892 113.394 70.2025 110.38 70.2159C109.618 70.2425 108.797 70.0759 108.062 69.666C107.33 69.2528 106.68 68.6063 106.278 67.7798C106.07 67.3732 105.928 66.92 105.866 66.4535C105.796 65.9803 105.816 65.5037 105.813 65.0305C105.813 64.0741 105.81 63.091 105.81 62.0812C105.806 60.0617 105.806 57.9422 105.803 55.7461C105.796 54.6197 106.242 53.4734 107.05 52.6436C107.848 51.8038 109.005 51.2972 110.189 51.3039C112.494 51.3039 114.743 51.3039 116.916 51.3072C118.004 51.3072 119.07 51.3106 120.115 51.3106C121.187 51.3039 122.226 51.7005 123 52.3736C123.785 53.0401 124.283 53.9799 124.458 54.9363C124.557 55.4195 124.524 55.9028 124.531 56.3626C124.531 56.8259 124.527 57.2824 124.527 57.7323C124.524 59.5252 124.517 61.1981 124.514 62.7277C124.511 63.4909 124.508 64.2174 124.508 64.9072C124.501 65.5904 124.534 66.2535 124.372 66.8534C124.076 68.0564 123.343 68.9095 122.644 69.3894C121.939 69.8826 121.276 70.0426 120.837 70.1092C120.616 70.1459 120.445 70.1459 120.333 70.1492C120.217 70.1492 120.158 70.1492 120.158 70.1426Z" fill="#1A2E35"/>
<path d="M117.272 55.2896C117.338 55.3529 117.328 55.4162 117.289 55.4928C117.144 55.7528 117.008 56.0194 116.863 56.2793C116.82 56.356 116.834 56.3859 116.909 56.4293C117.599 56.8192 118.083 57.3857 118.337 58.1488C118.42 58.3921 118.456 58.6487 118.463 58.9053C118.466 58.9786 118.443 58.9953 118.374 58.9953C116.273 58.992 114.172 58.992 112.072 58.9953C111.986 58.9953 111.973 58.9653 111.976 58.8887C112.016 57.9689 112.431 57.2524 113.134 56.6892C113.262 56.5859 113.397 56.4959 113.542 56.4226C113.608 56.3893 113.625 56.3626 113.585 56.2893C113.437 56.026 113.298 55.7594 113.153 55.4928C113.11 55.4162 113.104 55.3529 113.17 55.2896C113.199 55.2896 113.229 55.2896 113.262 55.2896C113.292 55.3362 113.325 55.3829 113.354 55.4328C113.493 55.6828 113.631 55.9327 113.76 56.1893C113.8 56.266 113.833 56.2826 113.912 56.2493C114.146 56.146 114.39 56.0794 114.641 56.0394C115.221 55.9461 115.788 55.9894 116.345 56.1727C116.441 56.206 116.553 56.2893 116.626 56.2626C116.698 56.2326 116.731 56.096 116.784 56.0094C116.919 55.7728 117.031 55.5195 117.186 55.2929C117.209 55.2895 117.242 55.2896 117.272 55.2896ZM113.737 57.8023C113.882 57.8056 114.007 57.6823 114.011 57.5357C114.017 57.389 113.885 57.2524 113.74 57.2524C113.602 57.2524 113.476 57.379 113.473 57.5257C113.473 57.6756 113.592 57.8023 113.737 57.8023ZM116.702 57.8023C116.847 57.8023 116.965 57.6756 116.965 57.529C116.965 57.3824 116.84 57.2557 116.702 57.2524C116.557 57.2524 116.425 57.3857 116.428 57.5323C116.431 57.679 116.557 57.8056 116.702 57.8023Z" fill="#399EFD"/>
<path d="M115.221 59.2486C116.253 59.2486 117.289 59.2486 118.321 59.2452C118.413 59.2452 118.44 59.2652 118.44 59.3619C118.436 60.8782 118.433 62.3945 118.44 63.9107C118.443 64.354 118.166 64.6572 117.843 64.7272C117.655 64.7672 117.463 64.7505 117.275 64.7439C117.18 64.7405 117.147 64.7605 117.147 64.8672C117.153 65.3437 117.15 65.8203 117.15 66.2968C117.15 66.6634 116.969 66.9433 116.672 67.0433C116.174 67.2133 115.709 66.8667 115.702 66.3201C115.699 65.8336 115.699 65.3437 115.702 64.8572C115.702 64.7639 115.676 64.7439 115.59 64.7439C115.343 64.7505 115.096 64.7505 114.848 64.7439C114.749 64.7405 114.733 64.7739 114.733 64.8672C114.736 65.3504 114.736 65.8336 114.733 66.3201C114.73 66.7434 114.456 67.0533 114.067 67.0866C113.664 67.1166 113.312 66.8134 113.302 66.4101C113.289 65.8969 113.289 65.3804 113.289 64.8672C113.289 64.7705 113.262 64.7472 113.17 64.7472C112.962 64.7472 112.751 64.7739 112.547 64.7172C112.24 64.6306 112.019 64.3473 112.002 64.0274C111.999 63.9807 111.999 63.9341 111.999 63.8908C111.999 62.3845 111.999 60.8815 111.996 59.3752C111.996 59.2752 112.019 59.2519 112.118 59.2519C113.157 59.2486 114.189 59.2486 115.221 59.2486Z" fill="#399EFD"/>
<path d="M118.73 61.3547C118.73 60.8215 118.72 60.2883 118.733 59.7551C118.743 59.3986 119.063 59.1186 119.426 59.112C119.798 59.1086 120.112 59.3786 120.148 59.7385C120.154 59.8185 120.161 59.8984 120.161 59.9784C120.161 60.9215 120.161 61.8679 120.161 62.811C120.161 63.081 120.082 63.3109 119.861 63.4709C119.64 63.6308 119.396 63.6575 119.149 63.5475C118.905 63.4376 118.74 63.2409 118.733 62.9643C118.72 62.4311 118.73 61.8913 118.73 61.3547Z" fill="#399EFD"/>
<path d="M111.709 61.368C111.709 61.9012 111.719 62.4344 111.706 62.9676C111.696 63.3242 111.376 63.6041 111.013 63.6108C110.644 63.6174 110.327 63.3442 110.291 62.9843C110.284 62.9043 110.278 62.8243 110.278 62.7443C110.278 61.7979 110.278 60.8481 110.278 59.9017C110.278 59.5884 110.397 59.3418 110.674 59.1919C111.119 58.9553 111.686 59.2619 111.706 59.7684C111.726 60.3016 111.712 60.8348 111.709 61.368C111.712 61.368 111.709 61.368 111.709 61.368Z" fill="#399EFD"/>
<path d="M147.4 70.3992H137.847C134.925 70.3992 132.554 68.0065 132.554 65.0506V55.3963C132.554 52.4437 134.921 50.0476 137.847 50.0476H147.4C150.322 50.0476 152.693 52.4403 152.693 55.3963V65.0506C152.693 68.0032 150.322 70.3992 147.4 70.3992Z" fill="white"/>
<path d="M147.4 70.3992C147.4 70.3825 147.651 70.3859 148.119 70.3159C148.584 70.2492 149.28 70.0859 150.048 69.6127C150.806 69.1528 151.661 68.3697 152.165 67.1866C152.419 66.6001 152.581 65.9236 152.597 65.2005C152.61 64.4707 152.594 63.6875 152.594 62.8744C152.587 61.2381 152.584 59.4519 152.577 57.5324C152.577 57.0525 152.574 56.5626 152.574 56.0661C152.571 55.5662 152.591 55.0663 152.502 54.5764C152.429 54.0832 152.281 53.59 152.053 53.1301C151.835 52.6669 151.545 52.227 151.182 51.8471C150.477 51.0673 149.504 50.5141 148.435 50.2808C147.898 50.1742 147.347 50.1742 146.773 50.1775C146.203 50.1775 145.626 50.1775 145.045 50.1775C142.721 50.1775 140.313 50.1809 137.847 50.1809C136.643 50.1875 135.466 50.6208 134.559 51.3739C133.659 52.1337 133.035 53.1868 132.798 54.3065C132.679 54.8697 132.679 55.4362 132.682 56.0194C132.682 56.5959 132.682 57.1691 132.679 57.7323C132.679 58.8621 132.676 59.9684 132.676 61.0482C132.673 62.1279 132.673 63.181 132.669 64.2041C132.669 64.7173 132.656 65.2205 132.712 65.7003C132.762 66.1836 132.903 66.6435 133.072 67.0833C133.804 68.8296 135.393 69.9693 136.956 70.2192C137.734 70.3525 138.516 70.2925 139.241 70.3125C139.97 70.3159 140.656 70.3192 141.299 70.3225C142.579 70.3325 143.683 70.3392 144.594 70.3459C145.484 70.3559 146.183 70.3659 146.674 70.3725C146.902 70.3792 147.08 70.3825 147.215 70.3859C147.337 70.3892 147.4 70.3925 147.4 70.3992C147.4 70.4025 147.337 70.4092 147.215 70.4125C147.08 70.4158 146.902 70.4192 146.674 70.4258C146.183 70.4325 145.484 70.4392 144.594 70.4525C143.683 70.4592 142.579 70.4658 141.299 70.4758C140.656 70.4792 139.97 70.4825 139.241 70.4858C138.516 70.4725 137.744 70.5425 136.923 70.4092C135.301 70.1626 133.639 68.9929 132.867 67.1733C132.692 66.7168 132.541 66.2369 132.488 65.7337C132.428 65.2271 132.438 64.7173 132.438 64.2107C132.435 63.1876 132.435 62.1346 132.432 61.0548C132.432 59.9751 132.428 58.8687 132.428 57.739C132.428 57.1725 132.428 56.6026 132.425 56.0261C132.422 55.4562 132.422 54.8497 132.544 54.2599C132.791 53.0802 133.444 51.9738 134.394 51.174C135.344 50.3808 136.584 49.9243 137.85 49.9176C140.317 49.9176 142.724 49.9209 145.049 49.9209C145.629 49.9209 146.206 49.9209 146.777 49.9209C147.341 49.9176 147.928 49.9209 148.492 50.0342C149.613 50.2775 150.632 50.864 151.367 51.6805C151.743 52.0804 152.046 52.5403 152.274 53.0268C152.511 53.51 152.663 54.0233 152.739 54.5398C152.828 55.0597 152.805 55.5762 152.808 56.0661C152.808 56.5626 152.805 57.0492 152.805 57.5324C152.798 59.4519 152.795 61.2415 152.788 62.8744C152.782 63.6908 152.788 64.4673 152.772 65.2071C152.749 65.9536 152.574 66.6501 152.307 67.25C151.773 68.4597 150.889 69.2495 150.107 69.706C149.316 70.1726 148.604 70.3225 148.132 70.3725C147.651 70.4225 147.4 70.3992 147.4 70.3992Z" fill="#1A2E35"/>
<path d="M144.683 54.6498C144.096 54.6898 143.413 55.0697 143.014 55.5629C142.651 56.0094 142.351 56.6759 142.467 57.3224C143.106 57.3424 143.769 56.9559 144.152 56.4527C144.511 55.9861 144.782 55.3229 144.683 54.6498Z" fill="url(#paint21_linear_601_2030)"/>
<path d="M147.001 58.3755C146.437 57.6624 145.649 57.2491 144.9 57.2491C143.914 57.2491 143.499 57.7257 142.813 57.7257C142.107 57.7257 141.57 57.2491 140.719 57.2491C139.881 57.2491 138.991 57.7657 138.424 58.6521C137.629 59.8985 137.764 62.2379 139.054 64.2341C139.515 64.9472 140.129 65.7504 140.937 65.757C141.652 65.7637 141.857 65.2938 142.826 65.2872C143.796 65.2805 143.98 65.7637 144.696 65.7537C145.501 65.747 146.15 64.8573 146.612 64.1441C146.942 63.6309 147.064 63.3743 147.321 62.7978C145.454 62.0813 145.154 59.4053 147.001 58.3755Z" fill="url(#paint22_linear_601_2030)"/>
<path d="M122.024 94.2932H109.43C107.633 94.2932 106.176 92.8203 106.176 91.0041V78.2772C106.176 76.461 107.633 74.988 109.43 74.988H122.024C123.821 74.988 125.279 76.461 125.279 78.2772V91.0041C125.279 92.8203 123.821 94.2932 122.024 94.2932Z" fill="white"/>
<path opacity="0.31" d="M122.024 94.2932C122.024 94.2766 122.275 94.2966 122.733 94.1966C123.182 94.0899 123.868 93.8267 124.455 93.1402C124.745 92.8036 124.999 92.3604 125.131 91.8305C125.282 91.304 125.226 90.7008 125.233 90.0576C125.23 88.7713 125.226 87.305 125.22 85.6887C125.216 84.0691 125.213 82.2962 125.21 80.3933C125.21 79.9168 125.21 79.4336 125.207 78.9404C125.203 78.4472 125.233 77.9473 125.098 77.4707C124.86 76.5076 124.128 75.6478 123.155 75.2813C122.915 75.1813 122.657 75.128 122.4 75.0913C122.143 75.0613 121.876 75.0647 121.602 75.068C121.061 75.068 120.511 75.068 119.957 75.068C118.849 75.068 117.714 75.068 116.563 75.0713C114.258 75.0713 111.871 75.0713 109.427 75.0747C108.83 75.0813 108.24 75.2446 107.742 75.5645C107.495 75.7212 107.264 75.9111 107.069 76.1344C106.871 76.351 106.707 76.5976 106.581 76.8609C106.446 77.1208 106.364 77.4041 106.307 77.6873C106.251 77.9739 106.251 78.2605 106.251 78.5605C106.251 79.1536 106.251 79.7402 106.251 80.3234C106.248 82.6528 106.248 84.8989 106.248 87.0417C106.248 88.1114 106.245 89.1545 106.245 90.1709C106.255 90.6774 106.212 91.1807 106.307 91.6505C106.403 92.1238 106.604 92.5636 106.881 92.9336C107.432 93.6867 108.289 94.1433 109.143 94.2132C110.007 94.2432 110.855 94.2232 111.653 94.2332C114.852 94.2432 117.444 94.2532 119.241 94.2599C120.131 94.2666 120.827 94.2732 121.305 94.2766C121.536 94.2799 121.714 94.2832 121.843 94.2832C121.962 94.2866 122.024 94.2932 122.024 94.2932C122.024 94.2932 121.962 94.2999 121.843 94.3032C121.714 94.3066 121.536 94.3065 121.305 94.3099C120.827 94.3132 120.135 94.3199 119.241 94.3265C117.444 94.3332 114.852 94.3432 111.653 94.3532C110.848 94.3499 110.017 94.3732 109.134 94.3432C108.243 94.2732 107.35 93.8 106.776 93.0169C106.486 92.6303 106.275 92.1704 106.172 91.6772C106.07 91.1773 106.113 90.6708 106.103 90.1676C106.103 89.1545 106.1 88.1081 106.1 87.0384C106.1 84.8989 106.096 82.6494 106.096 80.32C106.096 79.7368 106.096 79.1503 106.096 78.5571C106.096 78.2639 106.096 77.9539 106.156 77.654C106.215 77.3541 106.301 77.0575 106.443 76.7842C106.575 76.5076 106.749 76.2477 106.957 76.0178C107.158 75.7845 107.402 75.5845 107.663 75.4179C108.184 75.0813 108.807 74.908 109.434 74.9014C111.877 74.9014 114.265 74.9014 116.57 74.9047C117.721 74.9047 118.855 74.9047 119.963 74.908C120.517 74.908 121.065 74.908 121.609 74.908C121.879 74.908 122.15 74.9047 122.427 74.9347C122.697 74.9714 122.967 75.0313 123.218 75.1346C124.234 75.5212 125.002 76.4243 125.246 77.4307C125.385 77.9373 125.352 78.4505 125.355 78.937C125.355 79.4302 125.355 79.9135 125.352 80.39C125.348 82.2929 125.345 84.0658 125.342 85.6854C125.338 87.305 125.332 88.7679 125.329 90.0543C125.319 90.6908 125.368 91.304 125.21 91.8472C125.071 92.387 124.808 92.8369 124.507 93.1768C123.901 93.87 123.202 94.1233 122.746 94.2232C122.512 94.2699 122.334 94.2899 122.212 94.2865C122.087 94.2965 122.024 94.2932 122.024 94.2932Z" fill="url(#paint23_linear_601_2030)"/>
<path d="M122.951 85.4021C123.432 87.0983 122.337 88.7613 120.616 88.7613H111.564C110.1 88.7613 108.949 87.3316 109.371 85.8886C109.394 85.812 109.42 85.7353 109.447 85.6653C109.856 84.6589 111 84.0291 112.045 84.239C112.296 82.3828 113.876 80.8066 115.689 80.6066C117.503 80.4067 119.373 81.5964 120.003 83.3559C119.999 83.3526 122.334 83.226 122.951 85.4021Z" fill="#399EFD"/>
<path d="M115.294 90.3841V86.8717H113.932C113.773 86.8717 113.678 86.6884 113.77 86.5584L116.012 83.3625C116.092 83.2526 116.253 83.2492 116.332 83.3625L118.571 86.5318C118.664 86.6617 118.571 86.845 118.41 86.845H117.084V90.3841H115.294Z" fill="white"/>
<path d="M148.703 91.9305H137.573C135.983 91.9305 134.697 90.6276 134.697 89.0246V77.7774C134.697 76.1711 135.987 74.8715 137.573 74.8715H148.703C150.292 74.8715 151.578 76.1745 151.578 77.7774V89.0246C151.578 90.6276 150.292 91.9305 148.703 91.9305Z" fill="white"/>
<path d="M148.703 91.9305C148.703 91.9172 148.924 91.9339 149.329 91.8439C149.725 91.7473 150.332 91.5173 150.849 90.9108C151.107 90.6142 151.331 90.221 151.446 89.7544C151.578 89.2912 151.532 88.758 151.535 88.1881C151.532 87.0518 151.529 85.7554 151.525 84.3258C151.522 82.8961 151.519 81.3265 151.515 79.6469C151.515 79.227 151.516 78.7971 151.512 78.3639C151.509 77.9274 151.535 77.4875 151.417 77.0642C151.209 76.2144 150.559 75.4546 149.702 75.1281C149.491 75.0414 149.263 74.9914 149.036 74.9614C148.808 74.9348 148.571 74.9381 148.33 74.9414C147.852 74.9414 147.367 74.9414 146.876 74.9414C145.896 74.9414 144.897 74.9414 143.878 74.9448C141.84 74.9448 139.733 74.9448 137.573 74.9448C137.045 74.9514 136.524 75.0947 136.086 75.378C135.865 75.518 135.664 75.6846 135.492 75.8812C135.317 76.0711 135.172 76.2911 135.06 76.5244C134.941 76.7543 134.869 77.0043 134.816 77.2575C134.767 77.5108 134.767 77.7641 134.767 78.0307C134.767 78.5539 134.767 79.0737 134.767 79.5869C134.767 81.6464 134.763 83.6326 134.763 85.5221C134.763 86.4686 134.76 87.3917 134.76 88.2848C134.767 88.7347 134.73 89.1779 134.816 89.5945C134.902 90.011 135.08 90.4009 135.324 90.7308C135.809 91.3973 136.567 91.8006 137.322 91.8639C138.084 91.8906 138.833 91.8739 139.538 91.8806C142.364 91.8905 144.656 91.8972 146.243 91.9039C147.031 91.9105 147.644 91.9139 148.066 91.9172C148.271 91.9205 148.429 91.9239 148.541 91.9239C148.647 91.9239 148.703 91.9305 148.703 91.9305C148.703 91.9305 148.647 91.9372 148.541 91.9372C148.429 91.9405 148.271 91.9405 148.066 91.9439C147.644 91.9472 147.031 91.9505 146.243 91.9572C144.653 91.9639 142.364 91.9705 139.538 91.9805C138.829 91.9772 138.094 91.9972 137.312 91.9705C136.528 91.9105 135.736 91.4906 135.228 90.7975C134.974 90.4542 134.786 90.051 134.697 89.6145C134.608 89.1746 134.645 88.728 134.638 88.2814C134.638 87.385 134.635 86.4619 134.635 85.5188C134.635 83.6259 134.631 81.6398 134.631 79.5836C134.631 79.0704 134.631 78.5505 134.631 78.0273C134.631 77.7674 134.631 77.4941 134.684 77.2275C134.737 76.9643 134.813 76.701 134.938 76.4577C135.057 76.2144 135.208 75.9845 135.393 75.7812C135.571 75.5746 135.786 75.398 136.016 75.2514C136.478 74.9514 137.029 74.8015 137.583 74.7948C139.743 74.7948 141.85 74.7948 143.888 74.7948C144.907 74.7948 145.906 74.7948 146.886 74.7981C147.377 74.7981 147.862 74.7981 148.34 74.7981C148.577 74.7981 148.818 74.7948 149.062 74.8215C149.303 74.8548 149.54 74.9048 149.761 74.9981C150.661 75.3413 151.337 76.1378 151.552 77.0276C151.674 77.4741 151.644 77.9307 151.647 78.3606C151.647 78.7938 151.647 79.2237 151.644 79.6436C151.641 81.3265 151.638 82.8928 151.634 84.3224C151.631 85.7521 151.628 87.0451 151.624 88.1848C151.614 88.748 151.661 89.2879 151.519 89.7677C151.397 90.2443 151.163 90.6442 150.896 90.9441C150.361 91.5573 149.741 91.7806 149.339 91.8706C149.135 91.9105 148.973 91.9272 148.867 91.9272C148.759 91.9339 148.703 91.9305 148.703 91.9305Z" fill="#1A2E35"/>
<path d="M143.354 88.5813C140.524 88.5813 138.219 86.2552 138.219 83.3926C138.219 80.5333 140.521 78.2039 143.354 78.2039C146.183 78.2039 148.488 80.5299 148.488 83.3926C148.488 86.2552 146.186 88.5813 143.354 88.5813ZM143.354 78.4871C140.676 78.4871 138.496 80.6899 138.496 83.3959C138.496 86.1019 140.676 88.3047 143.354 88.3047C146.031 88.3047 148.211 86.1019 148.211 83.3959C148.211 80.6866 146.031 78.4871 143.354 78.4871Z" fill="url(#paint24_linear_601_2030)"/>
<path d="M143.199 88.5646C143.172 88.5479 142.523 88.178 141.883 87.3415C141.296 86.5717 140.61 85.242 140.683 83.2892C140.755 81.3397 141.487 80.0667 142.091 79.3435C142.747 78.557 143.38 78.2338 143.41 78.2205L143.532 78.4704C143.509 78.4837 141.091 79.7334 140.963 83.2959C140.834 86.8583 143.314 88.3013 143.337 88.3179L143.199 88.5646Z" fill="url(#paint25_linear_601_2030)"/>
<path d="M143.426 88.5612L143.281 88.3246C143.304 88.308 145.708 86.7617 145.576 83.1926C145.448 79.6301 143.133 78.4837 143.11 78.4737L143.228 78.2205C143.331 78.2671 145.718 79.4435 145.853 83.1826C145.992 86.9183 143.453 88.5446 143.426 88.5612Z" fill="url(#paint26_linear_601_2030)"/>
<path d="M143.423 81.7496C141.342 81.7496 140.003 81.0365 139.245 80.4366L139.416 80.2167C140.142 80.7865 141.421 81.4697 143.423 81.4697C145.359 81.4697 146.586 80.7932 147.275 80.2233L147.45 80.44C146.724 81.0365 145.441 81.7496 143.423 81.7496Z" fill="url(#paint27_linear_601_2030)"/>
<path d="M147.288 86.4185C146.562 85.8653 145.28 85.2022 143.278 85.2022C141.342 85.2022 140.115 85.8587 139.426 86.4119L139.255 86.1919C139.977 85.6121 141.263 84.9222 143.278 84.9222C145.355 84.9222 146.698 85.6154 147.453 86.1953L147.288 86.4185Z" fill="url(#paint28_linear_601_2030)"/>
<path d="M148.356 83.2693H138.483V83.5492H148.356V83.2693Z" fill="url(#paint29_linear_601_2030)"/>
</g>
<defs>
<linearGradient id="paint0_linear_601_2030" x1="88.3947" y1="23.8058" x2="91.8987" y2="23.8058" gradientUnits="userSpaceOnUse">
<stop stop-color="#3D5475"/>
<stop offset="0.2549" stop-color="#364F6F"/>
<stop offset="0.6276" stop-color="#22425F"/>
<stop offset="1" stop-color="#083149"/>
</linearGradient>
<linearGradient id="paint1_linear_601_2030" x1="89.6392" y1="24.8895" x2="91.9281" y2="24.8895" gradientUnits="userSpaceOnUse">
<stop stop-color="#3D5475"/>
<stop offset="0.2549" stop-color="#364F6F"/>
<stop offset="0.6276" stop-color="#22425F"/>
<stop offset="1" stop-color="#083149"/>
</linearGradient>
<linearGradient id="paint2_linear_601_2030" x1="90.6805" y1="20.9542" x2="102.18" y2="20.9542" gradientUnits="userSpaceOnUse">
<stop stop-color="#3D5475"/>
<stop offset="0.2549" stop-color="#364F6F"/>
<stop offset="0.6276" stop-color="#22425F"/>
<stop offset="1" stop-color="#083149"/>
</linearGradient>
<linearGradient id="paint3_linear_601_2030" x1="95.5571" y1="3.89268" x2="97.2965" y2="3.89268" gradientUnits="userSpaceOnUse">
<stop stop-color="#3D5475"/>
<stop offset="0.2549" stop-color="#364F6F"/>
<stop offset="0.6276" stop-color="#22425F"/>
<stop offset="1" stop-color="#083149"/>
</linearGradient>
<linearGradient id="paint4_linear_601_2030" x1="93.9612" y1="4.84203" x2="97.2964" y2="4.84203" gradientUnits="userSpaceOnUse">
<stop stop-color="#3D5475"/>
<stop offset="0.2549" stop-color="#364F6F"/>
<stop offset="0.6276" stop-color="#22425F"/>
<stop offset="1" stop-color="#083149"/>
</linearGradient>
<linearGradient id="paint5_linear_601_2030" x1="96.2176" y1="8.85039" x2="106.302" y2="8.85039" gradientUnits="userSpaceOnUse">
<stop stop-color="#3D5475"/>
<stop offset="0.2549" stop-color="#364F6F"/>
<stop offset="0.6276" stop-color="#22425F"/>
<stop offset="1" stop-color="#083149"/>
</linearGradient>
<linearGradient id="paint6_linear_601_2030" x1="39.0036" y1="71.981" x2="161.066" y2="71.981" gradientUnits="userSpaceOnUse">
<stop stop-color="#3D5475"/>
<stop offset="0.2549" stop-color="#364F6F"/>
<stop offset="0.6276" stop-color="#22425F"/>
<stop offset="1" stop-color="#083149"/>
</linearGradient>
<linearGradient id="paint7_linear_601_2030" x1="176.63" y1="85.4017" x2="189.277" y2="85.4017" gradientUnits="userSpaceOnUse">
<stop stop-color="#3D5475"/>
<stop offset="0.2549" stop-color="#364F6F"/>
<stop offset="0.6276" stop-color="#22425F"/>
<stop offset="1" stop-color="#083149"/>
</linearGradient>
<linearGradient id="paint8_linear_601_2030" x1="50.6876" y1="72.6485" x2="96.7815" y2="72.6485" gradientUnits="userSpaceOnUse">
<stop stop-color="#3D5475"/>
<stop offset="0.2549" stop-color="#364F6F"/>
<stop offset="0.6276" stop-color="#22425F"/>
<stop offset="1" stop-color="#083149"/>
</linearGradient>
<linearGradient id="paint9_linear_601_2030" x1="162.796" y1="32.4688" x2="167.882" y2="32.4688" gradientUnits="userSpaceOnUse">
<stop stop-color="#3D5475"/>
<stop offset="0.2549" stop-color="#364F6F"/>
<stop offset="0.6276" stop-color="#22425F"/>
<stop offset="1" stop-color="#083149"/>
</linearGradient>
<linearGradient id="paint10_linear_601_2030" x1="26.6754" y1="128.546" x2="47.9344" y2="128.546" gradientUnits="userSpaceOnUse">
<stop stop-color="#3D5475"/>
<stop offset="0.2549" stop-color="#364F6F"/>
<stop offset="0.6276" stop-color="#22425F"/>
<stop offset="1" stop-color="#083149"/>
</linearGradient>
<linearGradient id="paint11_linear_601_2030" x1="35.1661" y1="67.6101" x2="38.81" y2="67.6101" gradientUnits="userSpaceOnUse">
<stop stop-color="#3D5475"/>
<stop offset="0.2549" stop-color="#364F6F"/>
<stop offset="0.6276" stop-color="#22425F"/>
<stop offset="1" stop-color="#083149"/>
</linearGradient>
<linearGradient id="paint12_linear_601_2030" x1="36.3787" y1="65.3384" x2="44.9052" y2="65.3384" gradientUnits="userSpaceOnUse">
<stop stop-color="#3D5475"/>
<stop offset="0.2549" stop-color="#364F6F"/>
<stop offset="0.6276" stop-color="#22425F"/>
<stop offset="1" stop-color="#083149"/>
</linearGradient>
<linearGradient id="paint13_linear_601_2030" x1="148.713" y1="97.3564" x2="161.602" y2="97.3564" gradientUnits="userSpaceOnUse">
<stop stop-color="#3D5475"/>
<stop offset="0.2549" stop-color="#364F6F"/>
<stop offset="0.6276" stop-color="#22425F"/>
<stop offset="1" stop-color="#083149"/>
</linearGradient>
<linearGradient id="paint14_linear_601_2030" x1="128.54" y1="138.919" x2="156.692" y2="138.919" gradientUnits="userSpaceOnUse">
<stop stop-color="#3D5475"/>
<stop offset="0.2549" stop-color="#364F6F"/>
<stop offset="0.6276" stop-color="#22425F"/>
<stop offset="1" stop-color="#083149"/>
</linearGradient>
<linearGradient id="paint15_linear_601_2030" x1="133.023" y1="138.919" x2="161.175" y2="138.919" gradientUnits="userSpaceOnUse">
<stop stop-color="#3D5475"/>
<stop offset="0.2549" stop-color="#364F6F"/>
<stop offset="0.6276" stop-color="#22425F"/>
<stop offset="1" stop-color="#083149"/>
</linearGradient>
<linearGradient id="paint16_linear_601_2030" x1="127.349" y1="110.607" x2="148.112" y2="110.607" gradientUnits="userSpaceOnUse">
<stop stop-color="#3D5475"/>
<stop offset="0.2549" stop-color="#364F6F"/>
<stop offset="0.6276" stop-color="#22425F"/>
<stop offset="1" stop-color="#083149"/>
</linearGradient>
<linearGradient id="paint17_linear_601_2030" x1="140.916" y1="117.176" x2="158.565" y2="117.176" gradientUnits="userSpaceOnUse">
<stop stop-color="#3D5475"/>
<stop offset="0.2549" stop-color="#364F6F"/>
<stop offset="0.6276" stop-color="#22425F"/>
<stop offset="1" stop-color="#083149"/>
</linearGradient>
<linearGradient id="paint18_linear_601_2030" x1="84.1881" y1="110.607" x2="104.951" y2="110.607" gradientUnits="userSpaceOnUse">
<stop stop-color="#3D5475"/>
<stop offset="0.2549" stop-color="#364F6F"/>
<stop offset="0.6276" stop-color="#22425F"/>
<stop offset="1" stop-color="#083149"/>
</linearGradient>
<linearGradient id="paint19_linear_601_2030" x1="73.7345" y1="117.176" x2="91.384" y2="117.176" gradientUnits="userSpaceOnUse">
<stop stop-color="#3D5475"/>
<stop offset="0.2549" stop-color="#364F6F"/>
<stop offset="0.6276" stop-color="#22425F"/>
<stop offset="1" stop-color="#083149"/>
</linearGradient>
<linearGradient id="paint20_linear_601_2030" x1="83.7205" y1="117.176" x2="101.37" y2="117.176" gradientUnits="userSpaceOnUse">
<stop stop-color="#3D5475"/>
<stop offset="0.2549" stop-color="#364F6F"/>
<stop offset="0.6276" stop-color="#22425F"/>
<stop offset="1" stop-color="#083149"/>
</linearGradient>
<linearGradient id="paint21_linear_601_2030" x1="142.442" y1="55.9861" x2="144.704" y2="55.9861" gradientUnits="userSpaceOnUse">
<stop stop-color="#3D5475"/>
<stop offset="0.2549" stop-color="#364F6F"/>
<stop offset="0.6276" stop-color="#22425F"/>
<stop offset="1" stop-color="#083149"/>
</linearGradient>
<linearGradient id="paint22_linear_601_2030" x1="137.93" y1="61.5028" x2="147.318" y2="61.5028" gradientUnits="userSpaceOnUse">
<stop stop-color="#3D5475"/>
<stop offset="0.2549" stop-color="#364F6F"/>
<stop offset="0.6276" stop-color="#22425F"/>
<stop offset="1" stop-color="#083149"/>
</linearGradient>
<linearGradient id="paint23_linear_601_2030" x1="106.094" y1="84.6301" x2="125.351" y2="84.6301" gradientUnits="userSpaceOnUse">
<stop stop-color="#3D5475"/>
<stop offset="0.2549" stop-color="#364F6F"/>
<stop offset="0.6276" stop-color="#22425F"/>
<stop offset="1" stop-color="#083149"/>
</linearGradient>
<linearGradient id="paint24_linear_601_2030" x1="138.221" y1="83.3943" x2="148.488" y2="83.3943" gradientUnits="userSpaceOnUse">
<stop stop-color="#3D5475"/>
<stop offset="0.2549" stop-color="#364F6F"/>
<stop offset="0.6276" stop-color="#22425F"/>
<stop offset="1" stop-color="#083149"/>
</linearGradient>
<linearGradient id="paint25_linear_601_2030" x1="140.677" y1="83.3926" x2="143.529" y2="83.3926" gradientUnits="userSpaceOnUse">
<stop stop-color="#3D5475"/>
<stop offset="0.2549" stop-color="#364F6F"/>
<stop offset="0.6276" stop-color="#22425F"/>
<stop offset="1" stop-color="#083149"/>
</linearGradient>
<linearGradient id="paint26_linear_601_2030" x1="143.113" y1="83.3904" x2="145.86" y2="83.3904" gradientUnits="userSpaceOnUse">
<stop stop-color="#3D5475"/>
<stop offset="0.2549" stop-color="#364F6F"/>
<stop offset="0.6276" stop-color="#22425F"/>
<stop offset="1" stop-color="#083149"/>
</linearGradient>
<linearGradient id="paint27_linear_601_2030" x1="139.245" y1="80.9831" x2="147.449" y2="80.9831" gradientUnits="userSpaceOnUse">
<stop stop-color="#3D5475"/>
<stop offset="0.2549" stop-color="#364F6F"/>
<stop offset="0.6276" stop-color="#22425F"/>
<stop offset="1" stop-color="#083149"/>
</linearGradient>
<linearGradient id="paint28_linear_601_2030" x1="139.253" y1="85.6701" x2="147.454" y2="85.6701" gradientUnits="userSpaceOnUse">
<stop stop-color="#3D5475"/>
<stop offset="0.2549" stop-color="#364F6F"/>
<stop offset="0.6276" stop-color="#22425F"/>
<stop offset="1" stop-color="#083149"/>
</linearGradient>
<linearGradient id="paint29_linear_601_2030" x1="138.484" y1="83.4095" x2="148.357" y2="83.4095" gradientUnits="userSpaceOnUse">
<stop stop-color="#3D5475"/>
<stop offset="0.2549" stop-color="#364F6F"/>
<stop offset="0.6276" stop-color="#22425F"/>
<stop offset="1" stop-color="#083149"/>
</linearGradient>
<clipPath id="clip0_601_2030">
<rect width="210" height="161" fill="white"/>
</clipPath>
</defs>
</svg>
