<svg width="659" height="436" viewBox="0 0 659 436" fill="none" xmlns="http://www.w3.org/2000/svg">
<g clip-path="url(#clip0_601_834)">
<path d="M634.375 316.257C638.307 309.724 641.228 302.753 643.151 295.574L658.684 292.6L658.842 275.404L659 258.207L643.529 254.941C641.739 247.726 638.952 240.693 635.142 234.1L644.016 221.01L631.989 208.737L619.963 196.464L606.731 205.093C600.206 201.157 593.244 198.232 586.074 196.306L583.104 180.755L565.928 180.596L548.753 180.438L545.491 195.928C538.285 197.72 531.261 200.511 524.676 204.325L511.602 195.441L499.344 207.482L487.087 219.523L495.705 232.771C491.773 239.304 488.852 246.275 486.928 253.454L471.396 256.428L471.238 273.624L471.08 290.821L486.551 294.087C488.34 301.302 491.128 308.335 494.938 314.928L486.064 328.018L498.091 340.291L510.117 352.564L523.349 343.935C529.873 347.871 536.836 350.796 544.006 352.722L546.976 368.273L564.151 368.432L581.327 368.59L584.589 353.1C591.795 351.308 598.819 348.517 605.404 344.702L618.478 353.587L630.735 341.546L642.993 329.505L634.375 316.257ZM534.974 304.057C518.687 287.433 518.93 260.742 535.534 244.435C552.137 228.128 578.795 228.372 595.082 244.996C611.369 261.619 611.125 288.31 594.522 304.617C577.931 320.924 551.273 320.669 534.974 304.057Z" fill="url(#paint0_linear_601_834)"/>
<path d="M226.508 177.415C228.93 172.26 230.561 166.861 231.45 161.376L242.758 157.976L241.565 145.191L240.372 132.406L228.638 131.163C226.763 125.935 224.146 120.938 220.823 116.319L226.41 105.91L216.538 97.7082L206.666 89.5059L197.488 96.9282C192.339 94.5029 186.947 92.8697 181.469 91.98L178.073 80.6577L165.304 81.8521L152.535 83.0465L151.293 94.7954C146.071 96.6722 141.08 99.2926 136.467 102.62L126.084 97.0257L117.892 106.91L109.699 116.794L117.112 125.983C114.69 131.139 113.059 136.538 112.17 142.022L100.862 145.423L102.055 158.208L103.248 170.992L114.982 172.236C116.857 177.464 119.474 182.461 122.797 187.08L117.21 197.476L127.082 205.678L136.954 213.881L146.132 206.458C151.281 208.884 156.673 210.517 162.151 211.407L165.547 222.729L178.316 221.534L191.085 220.34L192.327 208.579C197.549 206.702 202.54 204.082 207.153 200.755L217.536 206.349L225.729 196.465L233.921 186.58L226.508 177.415ZM151.744 175.941C138.378 164.838 136.528 144.996 147.617 131.602C158.706 118.22 178.523 116.367 191.901 127.458C205.266 138.561 207.117 158.403 196.04 171.797C184.938 185.191 165.109 187.043 151.744 175.941Z" fill="url(#paint1_linear_601_834)"/>
<path d="M605.453 436H604.381V359.376C604.381 342.326 590.529 328.456 573.5 328.456H494.767C477.141 328.456 462.814 314.099 462.814 296.464V153.259C462.814 136.209 448.962 122.339 431.932 122.339H231.17V121.267H431.932C449.558 121.267 463.885 135.624 463.885 153.259V296.476C463.885 313.527 477.738 327.396 494.767 327.396H573.5C591.126 327.396 605.453 341.753 605.453 359.389V436Z" fill="url(#paint2_linear_601_834)"/>
<path d="M282.635 72.7357C282.635 72.7357 294.784 121.182 265.618 134.417C236.44 147.665 242.028 123.412 242.028 123.412C242.028 123.412 230.062 120.085 262.624 101.596C277.973 92.894 282.635 72.7357 282.635 72.7357Z" fill="#DBD8E3"/>
<path d="M359.031 76.9648C359.031 76.9648 365.007 119.195 309.805 137.44C254.59 155.697 246.726 178.841 246.726 178.841C246.726 178.841 245.071 85.2524 359.031 76.9648Z" fill="#7AAACE"/>
<path d="M246.483 161.644C230.111 155.392 269.027 121.84 298.935 122.754C328.843 123.656 349.11 134.746 369.134 130.054C369.134 130.054 327.102 192.455 246.483 161.644Z" fill="#DBD8E3"/>
<path d="M301.479 189.676C302.416 176.94 303.073 165.033 303.451 153.93C300.383 152.297 296.695 150.395 293.737 148.994C284.595 144.643 271.875 138.768 263.695 135.015C258.911 132.809 254.225 131.212 254.225 131.212C254.225 131.212 221.578 128.08 218.924 128.25C218.084 128.299 214.006 129.725 208.651 131.76C197.074 136.16 174.75 145.118 171.195 147.665C165.986 151.407 147.337 242.936 146.838 249.152C146.351 255.184 172.206 263.448 196.137 269.785C196.125 279.06 195.93 292.064 195.723 303.935C195.687 305.958 195.65 307.957 195.614 309.883H300.347C300.201 307.847 300.079 305.836 299.982 303.935C299.969 303.679 299.957 303.435 299.945 303.179C299.543 295.148 297.985 280.742 298.387 266.726C298.387 266.726 298.131 251.943 299.604 245.581C299.787 217.5 301.479 189.676 301.479 189.676ZM168.676 243.497C168.846 231.577 184.695 209.42 184.695 209.42C184.695 209.42 185.425 209.103 185.437 209.14C185.45 209.152 186.253 209.03 186.253 209.042C186.265 209.042 188.712 206.702 188.736 206.702C189.32 208.823 194.567 238.756 195.857 256.184C180.97 253.247 168.591 249.176 168.676 243.497Z" fill="#DBD8E3"/>
<path d="M303.426 303.923C302.733 298.962 302.087 294.002 301.503 289.139C301.503 289.115 301.491 289.09 301.491 289.066C301.296 287.445 301.114 285.848 300.931 284.264C300.919 284.191 300.919 284.106 300.907 284.008C300.14 277.317 299.507 270.906 299.044 265.02C298.703 260.523 299.008 256.123 299.628 251.821C301.454 221.778 302.355 190.09 302.355 190.09C303.317 177.123 303.865 165.008 304.23 153.71C304.23 153.71 263.232 134.308 259.52 133.198C259.52 133.198 267.298 151.48 273.129 192.345C275.369 208.043 279.519 234.453 282.538 261.424C284.169 275.976 287.225 290.797 289.55 303.911C289.903 305.934 290.243 307.92 290.56 309.858H304.278C303.974 307.896 303.694 305.909 303.426 303.923Z" fill="#399EFD"/>
<path d="M235.162 255.66C236.781 240.462 238.23 225.3 237.536 217.001C231.876 150.212 215.881 132.528 213.556 129.944C211.767 130.627 204.938 133.199 202.942 133.991C191.998 138.305 169.698 146.227 166.692 148.384C161.482 152.126 140.934 248.079 140.314 254.283C139.9 258.475 166.716 267.238 194.08 275.062C193.824 282.57 194.542 293.161 192.047 304.227C191.609 306.19 190.964 307.433 190.866 310.029L229.003 309.883C229.234 307.908 229.478 305.934 229.721 303.935C230.452 297.963 231.206 291.857 231.961 285.361C243.403 288.323 251.169 290.236 251.169 290.236C251.169 290.236 261.918 272.052 265.034 264.691C265.557 263.411 251.729 260.084 235.162 255.66ZM185.851 232.674C185.486 218.999 185.559 209.457 185.559 209.457C186.91 214.137 188.785 227.531 190.428 240.84C184.877 238.049 185.912 235.428 185.851 232.674Z" fill="#399EFD"/>
<path d="M217.232 129.298C217.232 129.298 221.383 121.437 220.239 99.1341C219.922 92.955 252.654 113.784 252.654 113.784C252.654 113.784 252.545 115.916 252.472 118.793C252.435 119.987 252.411 121.303 252.411 122.644C252.411 123.022 252.411 123.387 252.411 123.765C252.411 124.375 252.423 124.984 252.435 125.581C252.447 126.325 252.484 127.068 252.521 127.775C252.557 128.579 252.618 129.335 252.691 130.03C252.825 131.383 253.616 133.759 253.908 134.405C255.393 137.866 229.49 138.074 217.232 129.298Z" fill="#EEA987"/>
<path d="M244.669 143.485L250.707 151.602C250.707 151.602 247.177 156.343 240.896 152.845L244.669 143.485Z" fill="url(#paint3_linear_601_834)"/>
<path d="M249.088 151.919C249.088 151.919 271.193 205.971 266.47 274.624L259.495 287.287L251.632 276.501C251.632 276.501 250.366 185.313 244.085 151.699L249.088 151.919Z" fill="url(#paint4_linear_601_834)"/>
<path d="M251.133 135.916L244.669 143.485C244.669 143.485 234.298 141.474 231.255 136.05C228.224 130.627 251.133 135.916 251.133 135.916Z" fill="#EEA987"/>
<path d="M252.618 129.286C252.618 129.286 251.863 135.051 244.681 143.473L252.533 154.027L256.781 132.126L252.618 129.286Z" fill="#D0CED8"/>
<path d="M219.204 122.352C219.204 122.352 234.189 139.329 244.681 143.473L239.812 155.551L215.893 129.128L219.204 122.352Z" fill="#D0CED8"/>
<path d="M373.297 275.94C373.297 275.94 353.395 256.623 340.346 253.405C334.308 251.918 326.372 243.582 318.812 233.783C316.329 230.553 313.883 227.165 311.558 223.813C311.558 223.801 311.558 223.801 311.558 223.801C302.294 210.407 295.039 197.573 295.039 197.573C295.039 197.573 267.651 165.447 289.635 151.126C289.635 151.126 299.056 150.919 304.217 153.735C309.525 156.623 320.857 180.291 322.781 184.484C324.704 188.664 345.507 227.604 346.907 228.481C348.307 229.359 350.619 232.552 358.945 237.049C369.134 242.546 385.153 258.633 385.153 258.633L373.297 275.94Z" fill="#399EFD"/>
<path d="M277.791 298.304C277.791 298.304 275.016 298.195 273.823 297.549C273.823 297.549 271.741 296.208 270.207 295.355C269.72 295.087 269.282 294.855 268.99 294.745C267.761 294.258 264.924 293.551 262.307 291.552C259.69 289.554 251.157 281.571 251.157 281.571L256.671 273.088L259.215 264.691C259.215 264.691 279.106 266.665 281.759 268.25C282.015 268.408 282.27 268.566 282.489 268.737C284.608 270.297 285.533 272.345 286.543 273.283C286.908 273.637 290.377 277.342 290.183 278.853C289.915 280.937 288.88 282.29 287.59 282.923C287.59 282.923 286.884 286.994 284.79 288.81C284.79 288.81 284.267 292.588 281.004 294.1C281.017 294.075 280.055 297.853 277.791 298.304Z" fill="#EFAA88"/>
<path d="M246.13 41.5842C246.13 41.5842 282.076 32.9066 274.504 78.4761C266.933 124.046 258.315 127.738 236.416 118.659C214.518 109.579 216.039 80.4261 214.737 66.1666C213.434 51.9071 234.627 42.2545 246.13 41.5842Z" fill="#EEA886"/>
<path d="M227.25 73.1379C226.715 69.1404 218.778 67.7876 218.23 73.8082C217.683 79.8289 222.065 90.3103 225.059 89.2378C228.041 88.1531 227.981 78.6589 227.25 73.1379Z" fill="#EEA886"/>
<path d="M216.83 89.4571C216.83 89.4571 217.549 75.1245 222.771 74.6004C227.993 74.0764 228.881 79.8289 228.881 79.8289L234.164 80.743C234.164 80.743 232.314 68.2141 237.499 65.9472C242.685 63.6803 271.388 72.3579 275.527 68.6163C279.653 64.8747 277.316 39.4391 269.696 36.0753C262.076 32.6994 241.054 25.204 225.887 35.8072C225.887 35.8072 213.921 34.625 212.29 44.2898C210.647 53.979 213.483 82.3274 216.83 89.4571Z" fill="url(#paint5_linear_601_834)"/>
<path d="M266.008 264.679L251.169 290.224C251.169 290.224 211.852 280.084 202.674 277.488L223.647 252.503C223.647 252.491 254.566 259.572 266.008 264.679Z" fill="#4EACF9"/>
<path d="M252.52 127.763C233.239 125.801 225.765 110.932 225.765 110.932C237.889 122.961 252.411 122.632 252.411 122.632C252.411 123.01 252.411 123.375 252.411 123.753C252.411 124.363 252.423 124.972 252.435 125.569C252.447 126.325 252.484 127.056 252.52 127.763Z" fill="#A77860"/>
<path d="M518.747 354.221C517.688 352.819 516.021 351.905 514.134 351.881C511.529 351.844 509.289 353.526 508.498 355.866C508.303 356.439 508.194 357.036 508.194 357.67C508.181 358.401 508.315 359.108 508.547 359.766C508.924 360.814 509.594 361.716 510.458 362.387C511.322 363.057 512.369 363.484 513.513 363.593C513.659 363.605 513.817 363.618 513.976 363.618C514.073 363.618 514.17 363.618 514.268 363.618C514.304 363.618 514.341 363.618 514.365 363.618C514.949 363.581 515.522 363.471 516.045 363.276C518.273 362.472 519.879 360.339 519.904 357.829C519.94 356.476 519.502 355.22 518.747 354.221ZM515.558 361.887C515.156 362.033 514.73 362.119 514.292 362.143C514.195 362.143 514.097 362.143 514 362.143C513.586 362.143 513.184 362.07 512.795 361.96C512.271 361.802 511.785 361.558 511.359 361.229C511.2 361.107 511.054 360.973 510.92 360.839C510.129 360.034 509.642 358.913 509.654 357.694C509.654 357.378 509.703 357.061 509.764 356.768C509.8 356.622 509.837 356.476 509.886 356.342C510.482 354.587 512.15 353.331 514.11 353.356C515.509 353.368 516.763 354.05 517.554 355.086C518.126 355.842 518.467 356.793 518.455 357.816C518.431 359.693 517.238 361.278 515.558 361.887Z" fill="#4DA8F2"/>
<path d="M293.907 243.692C316.256 266.726 345.775 295.72 345.775 295.72L357.314 273.783C357.314 273.783 331.095 243.009 313.31 222.461C307.869 225.142 297.863 231.528 293.907 243.692Z" fill="#EEA886"/>
<path d="M280.104 274.66C280.104 274.66 286.117 277.573 287.687 278.865C289.257 280.157 295.624 284.934 297.17 286.056C298.716 287.177 294.845 290.37 283.463 285.434C272.082 280.498 280.104 274.66 280.104 274.66Z" fill="#EEA886"/>
<path d="M280.627 208.737L270.146 306.348H408.147L418.64 208.737H280.627Z" fill="url(#paint6_linear_601_834)"/>
<path d="M416.035 301.839H276.939L287.541 203.156H426.625L416.035 301.839ZM278.144 300.754H415.073L425.444 204.228H288.503L278.144 300.754Z" fill="url(#paint7_linear_601_834)"/>
<path d="M259.167 297.561H282.209V306.348H259.167V297.561Z" fill="url(#paint8_linear_601_834)"/>
<path d="M43.1883 306.141H37.4185V312.088H43.1883V306.141Z" fill="#96CBFF"/>
<path d="M48.958 306.141H43.1882V312.088H48.958V306.141Z" fill="#95CAFF"/>
<path d="M54.7278 306.141H48.958V312.088H54.7278V306.141Z" fill="#94C9FF"/>
<path d="M60.4976 306.141H54.7278V312.088H60.4976V306.141Z" fill="#93C9FF"/>
<path d="M66.2676 306.141H60.4978V312.088H66.2676V306.141Z" fill="#92C8FF"/>
<path d="M72.0374 306.141H66.2676V312.088H72.0374V306.141Z" fill="#91C7FF"/>
<path d="M77.8072 306.141H72.0374V312.088H77.8072V306.141Z" fill="#90C6FF"/>
<path d="M83.5769 306.141H77.8071V312.088H83.5769V306.141Z" fill="#8FC6FF"/>
<path d="M89.3467 306.141H83.5769V312.088H89.3467V306.141Z" fill="#8EC5FF"/>
<path d="M95.1165 306.141H89.3467V312.088H95.1165V306.141Z" fill="#8DC4FF"/>
<path d="M100.886 306.141H95.1165V312.088H100.886V306.141Z" fill="#8CC3FF"/>
<path d="M106.656 306.141H100.886V312.088H106.656V306.141Z" fill="#8BC2FF"/>
<path d="M112.426 306.141H106.656V312.088H112.426V306.141Z" fill="#8AC2FF"/>
<path d="M118.196 306.141H112.426V312.088H118.196V306.141Z" fill="#89C1FF"/>
<path d="M123.966 306.141H118.196V312.088H123.966V306.141Z" fill="#88C0FF"/>
<path d="M129.735 306.141H123.966V312.088H129.735V306.141Z" fill="#87BFFF"/>
<path d="M135.505 306.141H129.735V312.088H135.505V306.141Z" fill="#86BFFF"/>
<path d="M141.275 306.141H135.505V312.088H141.275V306.141Z" fill="#85BEFF"/>
<path d="M147.045 306.141H141.275V312.088H147.045V306.141Z" fill="#84BDFF"/>
<path d="M152.815 306.141H147.045V312.088H152.815V306.141Z" fill="#83BCFF"/>
<path d="M158.597 306.141H152.827V312.088H158.597V306.141Z" fill="#82BBFF"/>
<path d="M164.366 306.141H158.597V312.088H164.366V306.141Z" fill="#81BBFF"/>
<path d="M170.136 306.141H164.366V312.088H170.136V306.141Z" fill="#80BAFF"/>
<path d="M175.906 306.141H170.136V312.088H175.906V306.141Z" fill="#7FB9FF"/>
<path d="M181.676 306.141H175.906V312.088H181.676V306.141Z" fill="#7EB8FF"/>
<path d="M187.446 306.141H181.676V312.088H187.446V306.141Z" fill="#7DB7FF"/>
<path d="M193.216 306.141H187.446V312.088H193.216V306.141Z" fill="#7CB7FF"/>
<path d="M198.985 306.141H193.216V312.088H198.985V306.141Z" fill="#7BB6FF"/>
<path d="M204.755 306.141H198.985V312.088H204.755V306.141Z" fill="#7AB5FF"/>
<path d="M210.525 306.141H204.755V312.088H210.525V306.141Z" fill="#79B4FF"/>
<path d="M216.295 306.141H210.525V312.088H216.295V306.141Z" fill="#78B4FF"/>
<path d="M222.064 306.141H216.295V312.088H222.064V306.141Z" fill="#77B3FF"/>
<path d="M227.834 306.141H222.064V312.088H227.834V306.141Z" fill="#76B2FF"/>
<path d="M233.604 306.141H227.834V312.088H233.604V306.141Z" fill="#74B1FF"/>
<path d="M239.374 306.141H233.604V312.088H239.374V306.141Z" fill="#73B0FF"/>
<path d="M245.144 306.141H239.374V312.088H245.144V306.141Z" fill="#72B0FF"/>
<path d="M250.914 306.141H245.144V312.088H250.914V306.141Z" fill="#71AFFF"/>
<path d="M256.683 306.141H250.914V312.088H256.683V306.141Z" fill="#70AEFF"/>
<path d="M262.453 306.141H256.683V312.088H262.453V306.141Z" fill="#6FADFF"/>
<path d="M268.223 306.141H262.453V312.088H268.223V306.141Z" fill="#6EADFF"/>
<path d="M273.993 306.141H268.223V312.088H273.993V306.141Z" fill="#6DACFF"/>
<path d="M279.763 306.141H273.993V312.088H279.763V306.141Z" fill="#6CABFF"/>
<path d="M285.533 306.141H279.763V312.088H285.533V306.141Z" fill="#6BAAFF"/>
<path d="M291.302 306.141H285.532V312.088H291.302V306.141Z" fill="#6AA9FF"/>
<path d="M297.072 306.141H291.302V312.088H297.072V306.141Z" fill="#69A9FF"/>
<path d="M302.842 306.141H297.072V312.088H302.842V306.141Z" fill="#68A8FF"/>
<path d="M308.612 306.141H302.842V312.088H308.612V306.141Z" fill="#67A7FF"/>
<path d="M314.382 306.141H308.612V312.088H314.382V306.141Z" fill="#66A6FF"/>
<path d="M320.151 306.141H314.382V312.088H320.151V306.141Z" fill="#65A6FF"/>
<path d="M325.921 306.141H320.151V312.088H325.921V306.141Z" fill="#64A5FF"/>
<path d="M331.691 306.141H325.921V312.088H331.691V306.141Z" fill="#63A4FF"/>
<path d="M337.473 306.141H331.703V312.088H337.473V306.141Z" fill="#62A3FF"/>
<path d="M343.243 306.141H337.473V312.088H343.243V306.141Z" fill="#61A2FF"/>
<path d="M349.012 306.141H343.243V312.088H349.012V306.141Z" fill="#60A2FF"/>
<path d="M354.782 306.141H349.013V312.088H354.782V306.141Z" fill="#5FA1FF"/>
<path d="M360.552 306.141H354.782V312.088H360.552V306.141Z" fill="#5EA0FF"/>
<path d="M366.322 306.141H360.552V312.088H366.322V306.141Z" fill="#5D9FFF"/>
<path d="M372.092 306.141H366.322V312.088H372.092V306.141Z" fill="#5C9EFF"/>
<path d="M377.862 306.141H372.092V312.088H377.862V306.141Z" fill="#5B9EFF"/>
<path d="M383.631 306.141H377.862V312.088H383.631V306.141Z" fill="#5A9DFF"/>
<path d="M389.401 306.141H383.631V312.088H389.401V306.141Z" fill="#599CFF"/>
<path d="M395.171 306.141H389.401V312.088H395.171V306.141Z" fill="#589BFF"/>
<path d="M400.941 306.141H395.171V312.088H400.941V306.141Z" fill="#579BFF"/>
<path d="M406.711 306.141H400.941V312.088H406.711V306.141Z" fill="#569AFF"/>
<path d="M412.48 306.141H406.711V312.088H412.48V306.141Z" fill="#5599FF"/>
<path d="M643.176 436H318.216L316.719 433.038H641.678L643.176 436Z" fill="#85BEFF"/>
<path d="M336.731 255.977C335.623 261.412 338.155 266.519 342.391 267.384C346.627 268.25 350.948 264.545 352.068 259.109C353.176 253.673 350.644 248.567 346.408 247.701C342.172 246.836 337.838 250.541 336.731 255.977Z" fill="url(#paint9_linear_601_834)"/>
<path d="M599.939 217.293C599.939 217.293 603.128 222.692 604.467 223.582C606.293 224.776 605.148 225.995 604.284 225.995C603.42 225.995 598.989 226.312 598.015 225.203C597.041 224.094 596.555 220.779 595.654 219.901C594.741 219.036 593.816 215.587 596.092 214.746C598.101 213.99 599.939 217.293 599.939 217.293Z" fill="url(#paint10_linear_601_834)"/>
<path d="M598.551 214.904C598.551 214.904 602.203 221.23 602.823 222.168C603.456 223.107 601.643 223.107 600.523 222.656C599.403 222.217 596.579 217.671 596.165 216.842C595.678 215.855 596.08 214.722 596.08 214.722L598.551 214.904Z" fill="#EEA886"/>
<path d="M594.863 218.317L595.702 224.801L596.153 224.825L596.007 220.157L594.863 218.317Z" fill="url(#paint11_linear_601_834)"/>
<path d="M568.363 217.293C568.363 217.293 571.552 222.692 572.891 223.582C574.717 224.776 573.573 225.995 572.708 225.995C571.844 225.995 567.413 226.312 566.44 225.203C565.466 224.094 564.979 220.779 564.078 219.901C563.165 219.036 562.204 215.489 564.516 214.746C566.549 214.076 568.363 217.293 568.363 217.293Z" fill="url(#paint12_linear_601_834)"/>
<path d="M567.182 214.929C567.182 214.929 570.639 221.242 571.26 222.18C571.893 223.119 570.079 223.119 568.959 222.668C567.839 222.229 565.015 217.683 564.602 216.854C564.115 215.867 564.516 214.734 564.516 214.734L567.182 214.929Z" fill="#EEA886"/>
<path d="M563.287 218.317L564.139 224.801L564.577 224.825L564.443 220.157L563.287 218.317Z" fill="url(#paint13_linear_601_834)"/>
<path d="M554.243 168.116L583.055 181.254C583.055 181.254 586.269 182.303 586.634 185.873C587.754 197.037 596.092 214.734 596.092 214.734C598.77 216.038 598.563 214.904 598.563 214.904C596.883 209.493 594.826 187.165 594.096 178.183C593.937 176.282 593.84 174.978 593.828 174.563C593.816 174.283 593.499 173.905 592.964 173.479C589.008 170.273 572.745 163.619 572.745 163.619C560.524 163.314 554.243 168.116 554.243 168.116Z" fill="#EEA886"/>
<path d="M548.814 173.759C549.702 181.559 560.816 180.657 560.816 180.657H574.291C574.291 180.657 570.749 188.543 569.385 195.185C567.937 202.241 564.516 214.734 564.516 214.734C564.516 214.734 564.735 215.16 567.182 214.917C567.182 214.917 577.76 193.82 581.801 188.506C582.666 187.36 585.173 181.169 585.599 177.476C585.745 176.233 585.66 175.27 585.197 174.88C584.735 174.49 583.651 173.747 582.227 172.845C578.003 170.176 570.676 166.081 566.598 165.155C561.132 163.924 552.477 161.62 552.477 161.62C552.477 161.62 547.913 165.959 548.814 173.759Z" fill="#EEA886"/>
<path d="M557.98 113.711C557.98 113.711 555.959 109.884 556.945 105.801C557.931 101.718 561.717 97.6473 567.243 99.5242C572.781 101.389 577.261 105.703 573.938 110.676C570.615 115.661 576.945 117.903 575.326 120.28C573.707 122.644 574.327 125.13 575.009 125.679C575.691 126.227 577.894 128.202 577.65 130.517C577.407 132.845 566.902 123.741 566.902 123.741C566.902 123.741 561.193 112.224 557.98 113.711Z" fill="url(#paint14_linear_601_834)"/>
<path d="M574.863 162.693C574.863 162.693 574.023 166.751 552.514 161.632C552.514 161.632 559.72 159.231 574.863 162.693Z" fill="#EB4747"/>
<path d="M552.271 162.766C551.942 163.399 551.601 164.045 551.272 164.679C559.136 164.911 566.999 165.142 574.863 165.362C573.621 161.193 574.023 155.538 574.242 151.261C574.51 146.02 577.395 142.388 577.091 137.086C578.649 137.342 578.916 137.391 580.475 137.623C578.089 130.822 577.273 127.458 569.872 124.838C567.462 123.985 565.88 123.814 563.275 124.033C554.705 124.74 552.112 124.838 547.901 132.626C554.498 133.674 553.403 136.05 555.411 142.607C556.385 145.813 557.407 149.384 556.884 152.76C556.348 156.087 552.271 159.731 552.271 162.766Z" fill="#DBD8E3"/>
<path d="M565.953 126.495C562.447 125.837 563.19 123.875 563.19 123.875C563.19 123.875 563.348 122.766 563.421 121.377C563.433 121.023 563.445 120.645 563.445 120.268C563.445 119.683 563.421 119.098 563.348 118.537C563.056 116.185 569.714 117.586 569.714 117.586C569.714 117.586 569.325 122.364 570.25 123.79C571.163 125.216 569.458 127.154 565.953 126.495Z" fill="#EEA886"/>
<path d="M559.258 123.863C559.258 123.863 566.33 132.041 568.947 133.942C568.947 133.942 571.954 131.224 570.104 124.046C570.104 124.033 566.683 122.327 559.258 123.863Z" fill="#EEA886"/>
<path d="M559.453 104.168C559.453 104.168 555.776 111.261 559.428 117.976C563.08 124.692 570.238 115.051 570.7 113.918C571.163 112.784 573.622 106.386 568.728 104.448C563.835 102.498 560.487 102.242 559.453 104.168Z" fill="#EEA886"/>
<path d="M560.67 106.678C560.67 106.678 558.138 110.005 557.846 112.467C557.846 112.467 556.835 107.824 559.684 103.351C562.532 98.8904 569.775 103.144 570.749 104.923C571.722 106.703 574.559 108.275 569.787 115.953C569.775 115.953 561.193 109.981 560.67 106.678Z" fill="url(#paint15_linear_601_834)"/>
<path d="M566.549 118.683C566.549 118.683 565.916 120.085 563.421 121.377C563.433 121.023 563.445 120.645 563.445 120.268C563.433 120.255 565.125 120.06 566.549 118.683Z" fill="#A77860"/>
<path d="M529.398 156.392C529.398 156.392 527.645 157.172 526.818 156.818C525.99 156.465 524.712 156.392 524.298 156.392C523.762 156.392 522.07 155.782 522.095 156.453C522.119 157.111 524.846 157.574 525.394 157.781C525.953 157.988 523.726 159.207 523.519 159.755C523.312 160.304 525.82 163.863 527.232 162.851C528.644 161.839 529.41 159.804 529.703 159.682C529.995 159.548 530.762 158.988 530.762 158.988L529.398 156.392Z" fill="#EEA886"/>
<path d="M523.799 159.438C523.799 159.438 519.697 162.839 519.636 163.302C519.575 163.765 519.782 163.972 520.184 163.68C520.585 163.375 524.249 160.511 524.249 160.511C524.249 160.511 520.147 165.362 520.001 165.727C519.916 165.934 520.318 166.373 520.549 166.239C520.78 166.093 525.15 161.523 525.15 161.523C525.15 161.523 521.328 166.069 521.304 166.398C521.291 166.69 521.742 167.019 522.058 166.702C522.363 166.385 526.173 162.376 526.173 162.376C526.173 162.376 523.616 165.861 523.775 166.166C523.872 166.349 524.188 166.751 524.821 165.825C525.454 164.899 527.183 162.9 527.183 162.9L523.799 159.438Z" fill="#EEA886"/>
<path d="M572.879 180.657H560.816C560.816 180.657 549.702 181.547 548.814 173.759C547.925 165.959 552.465 161.632 552.465 161.632C552.465 161.632 558.332 163.192 563.469 164.435C566.038 163.887 569.13 163.533 572.745 163.631C572.745 163.631 594.473 170.822 593.828 174.612C593.816 174.6 584.723 169.737 572.879 180.657Z" fill="url(#paint16_linear_601_834)"/>
<path d="M565.028 167.165L588.034 166.824L576.421 172.723L565.028 167.165Z" fill="#5E5853"/>
<path d="M572.173 164.216C572.173 164.216 567 166.227 560.658 164.411L560.365 162.034L573.427 162.766L572.173 164.216Z" fill="#5F8CC9"/>
<path d="M576.421 172.723L565.028 168.311V167.165L577.322 171.602L576.421 172.723Z" fill="#91887F"/>
<path d="M572.1 165.313C572.039 166.166 572.903 166.775 573.682 166.446L575.021 165.874C575.423 165.703 575.654 165.276 575.581 164.85C575.021 161.364 573.828 147.799 575.581 145.484C576.226 144.618 576.628 143.875 576.859 143.217C578.016 146.191 579.44 150.017 580.012 152.077L590.882 166.556L594.522 167.482C589.969 156.513 586.317 150.7 586.317 150.7C585.611 148.787 583.566 142.997 581.765 137.842C580.621 134.588 579.574 131.59 579.014 129.969C578.734 129.152 578.162 128.458 577.419 128.019C575.739 127.007 572.928 125.423 570.383 124.192C570.371 124.192 570.359 124.18 570.347 124.18C570.262 124.143 570.189 124.107 570.104 124.058C574.936 131.383 573.049 152.077 572.1 165.313C572.1 165.301 572.1 165.301 572.1 165.313Z" fill="#399EFD"/>
<path d="M554.145 124.667C552.599 124.911 548.753 128.64 546.72 132.406C544.395 136.709 542.021 141.608 540.244 143.217C536.982 146.178 527.84 156.648 527.402 156.404C527.232 156.306 529.91 159.536 530.25 159.682C530.421 159.755 545.271 146.861 546.708 144.899C548.059 143.034 551.674 135.222 552.758 135.392C552.843 135.575 554.157 138.427 555.399 142.607C555.423 142.681 555.436 142.741 555.46 142.815C556.324 145.727 556.239 148.884 555.776 152.443C555.423 155.124 553.427 159.512 552.222 161.644C552.076 161.9 552.112 162.388 552.271 162.766C552.368 162.985 552.502 163.168 552.672 163.229L557.03 164.85L558.053 165.228C558.795 165.508 559.562 165.362 560.146 164.935C560.621 164.594 560.962 164.058 561.047 163.412C562.021 155.941 563.238 148.311 564.224 145.435C568.521 132.821 562.544 123.339 562.544 123.339C562.544 123.339 555.496 124.155 554.145 124.667Z" fill="#399EFD"/>
<path d="M576.421 172.723L583.262 154.027L605.319 154.381L598.794 171.614L576.421 172.723Z" fill="#6E6760"/>
<path d="M590.322 162.303C589.653 163.655 589.847 165.118 590.773 165.581C591.698 166.044 592.988 165.325 593.67 163.984C594.339 162.632 594.144 161.169 593.219 160.706C592.282 160.231 590.992 160.95 590.322 162.303Z" fill="#807066"/>
<path d="M567.072 111.224C567.072 111.224 568.484 113.43 567.182 115.319C565.88 117.221 567.511 119.085 567.791 121.096C568.071 123.107 562.337 128.445 568.716 131.139C575.094 133.832 577.115 129.384 575.496 126.934C573.865 124.484 572.721 122.51 572.574 119.012C572.428 115.539 571.284 110.103 567.072 111.224Z" fill="url(#paint17_linear_601_834)"/>
<path d="M535.911 102.083H549.203V111.736V113.771L547.182 111.736H535.911V102.083Z" fill="url(#paint18_linear_601_834)"/>
<path d="M461.244 250.2C461.244 250.2 432.261 277.817 446.357 299.328C460.465 320.827 467.063 301.997 467.063 301.997C467.063 301.997 476.594 304.886 462.449 278.365C455.779 265.861 461.244 250.2 461.244 250.2Z" fill="#BBD070"/>
<path d="M407.648 220.255C407.648 220.255 385.506 246.312 415.11 282.387C444.714 318.475 440.125 337.536 440.125 337.536C440.125 337.536 481.341 274.819 407.648 220.255Z" fill="#7AAACE"/>
<path d="M446.807 326.653C460.587 329.444 449.437 289.334 428.78 277.11C408.123 264.886 389.633 263.691 378.069 251.918C378.057 251.918 378.957 312.917 446.807 326.653Z" fill="#DBD8E3"/>
<path d="M356.767 344.252C356.767 344.252 357.4 342.679 357.497 342.448C357.607 342.216 358.215 341.826 358.946 341.448C359.688 341.071 360.844 340.888 360.978 340.949C361.1 341.022 361.258 341.034 361.429 341.363C361.587 341.692 361.538 342.058 361.538 342.058C361.538 342.058 361.928 342.375 361.843 342.826C361.843 342.826 362.196 343.143 362.013 343.63C362.013 343.63 362.354 343.947 362.183 344.288C362.183 344.288 361.575 344.678 361.392 344.885C361.21 345.093 359.883 345.812 358.519 346.299C358.507 346.299 357.059 346.324 356.767 344.252Z" fill="#EEA886"/>
<path d="M359.006 343.398C359.006 343.398 359.019 344.252 358.909 344.483C358.799 344.727 360.625 345.263 360.625 345.263C360.625 345.263 360.041 343.398 359.006 343.398Z" fill="#CF8C6C"/>
<path d="M324.777 426.323L325.58 423.825L328.977 424.373L328.465 426.628L324.777 426.323Z" fill="#3B3F66"/>
<path d="M352.555 426.031L352.75 427.408L356.462 426.786L356.255 424.739L352.555 426.031Z" fill="#555C94"/>
<path d="M344.521 387.554C344.521 387.554 343.973 390.54 343.34 393.843C343.231 394.416 343.121 395.001 342.999 395.586C342.379 398.779 341.758 401.838 341.526 402.472C341.003 403.91 329.646 424.751 329.646 424.751C329.646 424.751 324.996 424.397 324.826 423.8C324.826 423.8 334.345 401.168 334.296 400.351C334.247 399.523 335.465 376.329 335.465 376.329C335.465 376.329 344.277 386.214 344.521 387.554Z" fill="url(#paint19_linear_601_834)"/>
<path d="M349.719 375.013C349.719 375.013 354.162 397.804 354.539 399.547C354.916 401.29 356.608 424.641 356.608 424.641C356.608 424.641 355.61 426.701 351.922 425.933C351.922 425.933 346.895 400.851 346.469 400.01C344.825 396.744 336.743 380.949 335.964 378.694C335.185 376.439 335.416 373.807 335.416 373.807C335.416 373.807 341.405 370.418 349.719 375.013Z" fill="url(#paint20_linear_601_834)"/>
<path d="M347.844 345.495C347.844 345.495 349.792 350.358 350.279 350.224C350.766 350.077 356.365 343.496 356.365 343.496C356.365 343.496 358.933 346.701 358.58 347.067C358.106 347.579 351.484 358.596 350.571 358.389C349.658 358.194 345.592 351.454 345.592 351.454C345.592 351.454 345.385 346.372 347.844 345.495Z" fill="#4EACF9"/>
<path d="M339.506 336.208C339.506 336.208 344.557 340.071 345.957 341.607C347.357 343.143 351.204 349.504 350.924 351.418C349.865 358.755 349.353 365.007 349.317 370.016C349.293 374.379 350.68 375.489 349.816 375.549C348.818 375.623 336.097 380.242 334.223 380.802C334.223 380.802 335.452 365.446 336.085 363.667C336.706 361.911 334.089 343.338 339.506 336.208Z" fill="#399EFD"/>
<path d="M372.068 328.871L373.2 334.587L374.332 340.315C374.332 340.315 367.844 338.28 360.479 339.742L359.98 337.219L359.481 334.684C366.846 333.21 372.068 328.871 372.068 328.871Z" fill="#D9D0C4"/>
<path d="M352.75 427.408C352.75 427.408 355.549 426.859 355.647 426.786C355.744 426.701 356.341 425.592 356.779 425.787C357.217 425.982 357.217 427.322 357.643 427.554C358.069 427.786 361.404 430.04 361.818 430.455C362.232 430.869 364.764 430.625 365.056 431.344C365.348 432.063 365.373 433.745 361.599 433.355C357.826 432.953 353.516 433.575 352.701 433.124C351.873 432.661 352.494 428.492 352.75 427.408Z" fill="#121212"/>
<path d="M324.741 426.262C324.741 426.262 327.589 426.177 327.698 426.104C327.808 426.031 328.575 425.043 328.977 425.299C329.378 425.555 329.159 426.896 329.549 427.188C329.926 427.481 332.872 430.248 333.213 430.723C333.553 431.198 336.085 431.357 336.256 432.112C336.426 432.868 336.183 434.538 332.519 433.538C328.855 432.539 324.497 432.453 323.767 431.881C323.036 431.308 324.302 427.298 324.741 426.262Z" fill="#121212"/>
<path d="M346.883 376.073C346.883 376.073 347.223 377.463 347.771 377.768C348.319 378.072 345.215 381.034 345.215 381.034C345.215 381.034 343.961 378.279 343.998 378.011C344.022 377.719 346.883 376.073 346.883 376.073Z" fill="#EEA987"/>
<path d="M337.266 342.204C337.266 342.204 333.639 359.486 333.347 361.253C333.067 362.923 343.985 378.913 343.985 378.913L347.613 376.756C347.613 376.756 338.8 360.717 338.812 359.986C338.824 359.255 343.036 345.324 343.036 345.324C343.036 345.324 344.801 342.289 341.673 340.815C338.544 339.352 337.266 342.204 337.266 342.204Z" fill="#4EACF9"/>
<path d="M349.001 377.256C349.001 377.256 350.181 383.13 350.108 384.934C350.035 386.738 343.34 382.106 343.669 380.315L349.001 377.256Z" fill="#3C5780"/>
<path d="M339.506 336.208C339.506 336.208 348.708 346.275 348.148 345.166C346.128 341.18 344.716 340.51 344.74 339.767C344.764 339.194 344.984 337.536 345.02 336.988C345.093 335.927 345.166 335.074 345.166 335.074C345.166 335.074 340.589 328.639 340.796 330.833C341.003 333.027 339.506 336.208 339.506 336.208Z" fill="#EEA886"/>
<path d="M348.282 324.349C348.282 324.349 349.548 327.323 349.56 328.018C349.573 328.712 349.402 329.249 349.512 330.053C349.621 330.882 350.315 332.625 350.23 333.112C350.132 333.697 348.903 333.392 348.733 334.355C348.562 335.318 347.674 337.122 347.223 337.158C346.079 337.256 341.721 335.464 341.441 334.55C341.161 333.636 339.579 328.542 339.092 327.567C338.605 326.592 346.785 321.278 347.528 322.814C348.282 324.349 348.282 324.349 348.282 324.349Z" fill="#EEA886"/>
<path d="M337.157 326.555C336.584 324.032 339.482 323.715 339.482 323.715C339.482 323.715 341.368 321.509 345.884 321.778C350.4 322.034 349.707 327.945 349.707 327.945C349.707 327.945 346.578 327.481 345.227 327.823C345.227 327.823 345.057 330.346 345.203 330.967L343.499 330.821C343.499 330.821 343.693 328.59 342.866 328.481C342.05 328.371 341.77 333.21 340.248 334.282C340.248 334.282 340.236 333.941 340.041 333.612C339.737 333.076 339.262 332.186 338.861 331.138C338.203 329.663 337.449 327.847 337.157 326.555Z" fill="#16202E"/>
<path d="M344.01 329.017C344.01 329.017 343.377 327.311 341.88 328.42C340.784 329.224 341.916 332.113 342.975 332.088C344.022 332.076 344.46 330.504 344.01 329.017Z" fill="#EEA886"/>
<path d="M341.198 333.746C341.198 333.746 341.417 334.648 341.66 334.867C341.904 335.074 343.048 336.013 345.044 336.634L344.862 338.426C344.874 338.426 341.003 336.927 341.198 333.746Z" fill="#C48A6F"/>
<path d="M357.631 339.438H357.558V346.287H357.631V339.438Z" fill="#96CBFF"/>
<path d="M357.704 339.438H357.631V346.287H357.704V339.438Z" fill="#95CAFF"/>
<path d="M357.777 339.438H357.704V346.287H357.777V339.438Z" fill="#94C9FF"/>
<path d="M357.85 339.438H357.777V346.287H357.85V339.438Z" fill="#93C9FF"/>
<path d="M357.923 339.438H357.85V346.287H357.923V339.438Z" fill="#92C8FF"/>
<path d="M357.984 339.438H357.911V346.287H357.984V339.438Z" fill="#91C7FF"/>
<path d="M358.057 339.438H357.984V346.287H358.057V339.438Z" fill="#90C6FF"/>
<path d="M358.13 339.438H358.057V346.287H358.13V339.438Z" fill="#8FC6FF"/>
<path d="M358.203 339.438H358.13V346.287H358.203V339.438Z" fill="#8EC5FF"/>
<path d="M358.276 339.438H358.203V346.287H358.276V339.438Z" fill="#8DC4FF"/>
<path d="M358.337 339.438H358.264V346.287H358.337V339.438Z" fill="#8CC3FF"/>
<path d="M358.41 339.438H358.337V346.287H358.41V339.438Z" fill="#8BC2FF"/>
<path d="M358.483 339.438H358.41V346.287H358.483V339.438Z" fill="#8AC2FF"/>
<path d="M358.556 339.438H358.483V346.287H358.556V339.438Z" fill="#89C1FF"/>
<path d="M358.629 339.438H358.556V346.287H358.629V339.438Z" fill="#88C0FF"/>
<path d="M358.69 339.438H358.617V346.287H358.69V339.438Z" fill="#87BFFF"/>
<path d="M358.763 339.438H358.69V346.287H358.763V339.438Z" fill="#86BFFF"/>
<path d="M358.836 339.438H358.763V346.287H358.836V339.438Z" fill="#85BEFF"/>
<path d="M358.909 339.438H358.836V346.287H358.909V339.438Z" fill="#84BDFF"/>
<path d="M358.982 339.438H358.909V346.287H358.982V339.438Z" fill="#83BCFF"/>
<path d="M359.055 339.438H358.982V346.287H359.055V339.438Z" fill="#82BBFF"/>
<path d="M359.116 339.438H359.043V346.287H359.116V339.438Z" fill="#81BBFF"/>
<path d="M359.189 339.438H359.116V346.287H359.189V339.438Z" fill="#80BAFF"/>
<path d="M359.262 339.438H359.189V346.287H359.262V339.438Z" fill="#7FB9FF"/>
<path d="M359.335 339.438H359.262V346.287H359.335V339.438Z" fill="#7EB8FF"/>
<path d="M359.408 339.438H359.335V346.287H359.408V339.438Z" fill="#7DB7FF"/>
<path d="M359.469 339.438H359.396V346.287H359.469V339.438Z" fill="#7CB7FF"/>
<path d="M359.542 339.438H359.469V346.287H359.542V339.438Z" fill="#7BB6FF"/>
<path d="M359.615 339.438H359.542V346.287H359.615V339.438Z" fill="#7AB5FF"/>
<path d="M359.688 339.438H359.615V346.287H359.688V339.438Z" fill="#79B4FF"/>
<path d="M359.761 339.438H359.688V346.287H359.761V339.438Z" fill="#78B4FF"/>
<path d="M359.822 339.438H359.749V346.287H359.822V339.438Z" fill="#77B3FF"/>
<path d="M359.895 339.438H359.822V346.287H359.895V339.438Z" fill="#76B2FF"/>
<path d="M359.968 339.438H359.895V346.287H359.968V339.438Z" fill="#74B1FF"/>
<path d="M360.041 339.438H359.968V346.287H360.041V339.438Z" fill="#73B0FF"/>
<path d="M360.114 339.438H360.041V346.287H360.114V339.438Z" fill="#72B0FF"/>
<path d="M360.175 339.438H360.102V346.287H360.175V339.438Z" fill="#71AFFF"/>
<path d="M360.248 339.438H360.175V346.287H360.248V339.438Z" fill="#70AEFF"/>
<path d="M360.321 339.438H360.248V346.287H360.321V339.438Z" fill="#6FADFF"/>
<path d="M360.394 339.438H360.321V346.287H360.394V339.438Z" fill="#6EADFF"/>
<path d="M360.467 339.438H360.394V346.287H360.467V339.438Z" fill="#6DACFF"/>
<path d="M360.528 339.438H360.455V346.287H360.528V339.438Z" fill="#6CABFF"/>
<path d="M360.601 339.438H360.528V346.287H360.601V339.438Z" fill="#6BAAFF"/>
<path d="M360.674 339.438H360.601V346.287H360.674V339.438Z" fill="#6AA9FF"/>
<path d="M360.747 339.438H360.674V346.287H360.747V339.438Z" fill="#69A9FF"/>
<path d="M360.82 339.438H360.747V346.287H360.82V339.438Z" fill="#68A8FF"/>
<path d="M360.881 339.438H360.808V346.287H360.881V339.438Z" fill="#67A7FF"/>
<path d="M360.954 339.438H360.881V346.287H360.954V339.438Z" fill="#66A6FF"/>
<path d="M361.027 339.438H360.954V346.287H361.027V339.438Z" fill="#65A6FF"/>
<path d="M361.1 339.438H361.027V346.287H361.1V339.438Z" fill="#64A5FF"/>
<path d="M361.173 339.438H361.1V346.287H361.173V339.438Z" fill="#63A4FF"/>
<path d="M361.246 339.438H361.173V346.287H361.246V339.438Z" fill="#62A3FF"/>
<path d="M361.307 339.438H361.234V346.287H361.307V339.438Z" fill="#61A2FF"/>
<path d="M361.38 339.438H361.307V346.287H361.38V339.438Z" fill="#60A2FF"/>
<path d="M361.453 339.438H361.38V346.287H361.453V339.438Z" fill="#5FA1FF"/>
<path d="M361.526 339.438H361.453V346.287H361.526V339.438Z" fill="#5EA0FF"/>
<path d="M361.599 339.438H361.526V346.287H361.599V339.438Z" fill="#5D9FFF"/>
<path d="M361.66 339.438H361.587V346.287H361.66V339.438Z" fill="#5C9EFF"/>
<path d="M361.733 339.438H361.66V346.287H361.733V339.438Z" fill="#5B9EFF"/>
<path d="M361.806 339.438H361.733V346.287H361.806V339.438Z" fill="#5A9DFF"/>
<path d="M361.879 339.438H361.806V346.287H361.879V339.438Z" fill="#599CFF"/>
<path d="M361.952 339.438H361.879V346.287H361.952V339.438Z" fill="#589BFF"/>
<path d="M362.013 339.438H361.94V346.287H362.013V339.438Z" fill="#579BFF"/>
<path d="M362.086 339.438H362.013V346.287H362.086V339.438Z" fill="#569AFF"/>
<path d="M362.159 339.438H362.086V346.287H362.159V339.438Z" fill="#5599FF"/>
<path d="M360.784 341.034C360.784 341.034 358.946 342.046 359.067 342.363C359.189 342.679 359.432 342.716 359.432 342.716L358.86 343.472C358.86 343.472 358.763 344.191 359.578 344.081C359.578 344.081 359.42 344.739 360.187 344.544C360.187 344.544 360.285 345.032 360.65 344.995C361.027 344.971 362.183 344.264 362.183 344.264C362.183 344.264 362.366 344.008 362.013 343.606C362.013 343.606 362.22 343.143 361.843 342.801C361.843 342.801 361.952 342.411 361.538 342.034C361.538 342.034 361.709 341.132 360.978 340.924C360.978 340.949 360.857 340.998 360.784 341.034Z" fill="#DB9C7C"/>
<path d="M354.49 334.246H354.381V340.79H354.49V334.246Z" fill="#96CBFF"/>
<path d="M354.6 334.246H354.49V340.79H354.6V334.246Z" fill="#95CAFF"/>
<path d="M354.734 334.246H354.612V340.79H354.734V334.246Z" fill="#94C9FF"/>
<path d="M354.831 334.246H354.722V340.79H354.831V334.246Z" fill="#93C9FF"/>
<path d="M354.953 334.246H354.844V340.79H354.953V334.246Z" fill="#92C8FF"/>
<path d="M355.062 334.246H354.953V340.79H355.062V334.246Z" fill="#91C7FF"/>
<path d="M355.184 334.246H355.075V340.79H355.184V334.246Z" fill="#90C6FF"/>
<path d="M355.294 334.246H355.184V340.79H355.294V334.246Z" fill="#8FC6FF"/>
<path d="M355.415 334.246H355.306V340.79H355.415V334.246Z" fill="#8EC5FF"/>
<path d="M355.525 334.246H355.416V340.79H355.525V334.246Z" fill="#8DC4FF"/>
<path d="M355.659 334.246H355.537V340.79H355.659V334.246Z" fill="#8CC3FF"/>
<path d="M355.756 334.246H355.647V340.79H355.756V334.246Z" fill="#8BC2FF"/>
<path d="M355.878 334.246H355.769V340.79H355.878V334.246Z" fill="#8AC2FF"/>
<path d="M355.988 334.246H355.878V340.79H355.988V334.246Z" fill="#89C1FF"/>
<path d="M356.109 334.246H356V340.79H356.109V334.246Z" fill="#88C0FF"/>
<path d="M356.219 334.246H356.109V340.79H356.219V334.246Z" fill="#87BFFF"/>
<path d="M356.341 334.246H356.231V340.79H356.341V334.246Z" fill="#86BFFF"/>
<path d="M356.45 334.246H356.341V340.79H356.45V334.246Z" fill="#85BEFF"/>
<path d="M356.584 334.246H356.462V340.79H356.584V334.246Z" fill="#84BDFF"/>
<path d="M356.682 334.246H356.572V340.79H356.682V334.246Z" fill="#83BCFF"/>
<path d="M356.803 334.246H356.694V340.79H356.803V334.246Z" fill="#82BBFF"/>
<path d="M356.913 334.246H356.803V340.79H356.913V334.246Z" fill="#81BBFF"/>
<path d="M357.035 334.246H356.925V340.79H357.035V334.246Z" fill="#80BAFF"/>
<path d="M357.144 334.246H357.034V340.79H357.144V334.246Z" fill="#7FB9FF"/>
<path d="M357.266 334.246H357.156V340.79H357.266V334.246Z" fill="#7EB8FF"/>
<path d="M357.375 334.246H357.266V340.79H357.375V334.246Z" fill="#7DB7FF"/>
<path d="M357.497 334.246H357.387V340.79H357.497V334.246Z" fill="#7CB7FF"/>
<path d="M357.607 334.246H357.497V340.79H357.607V334.246Z" fill="#7BB6FF"/>
<path d="M357.728 334.246H357.619V340.79H357.728V334.246Z" fill="#7AB5FF"/>
<path d="M357.85 334.246H357.728V340.79H357.85V334.246Z" fill="#79B4FF"/>
<path d="M357.96 334.246H357.85V340.79H357.96V334.246Z" fill="#78B4FF"/>
<path d="M358.069 334.246H357.96V340.79H358.069V334.246Z" fill="#77B3FF"/>
<path d="M358.179 334.246H358.069V340.79H358.179V334.246Z" fill="#76B2FF"/>
<path d="M358.3 334.246H358.191V340.79H358.3V334.246Z" fill="#74B1FF"/>
<path d="M358.41 334.246H358.301V340.79H358.41V334.246Z" fill="#73B0FF"/>
<path d="M358.532 334.246H358.422V340.79H358.532V334.246Z" fill="#72B0FF"/>
<path d="M358.641 334.246H358.532V340.79H358.641V334.246Z" fill="#71AFFF"/>
<path d="M358.775 334.246H358.654V340.79H358.775V334.246Z" fill="#70AEFF"/>
<path d="M358.872 334.246H358.763V340.79H358.872V334.246Z" fill="#6FADFF"/>
<path d="M358.994 334.246H358.885V340.79H358.994V334.246Z" fill="#6EADFF"/>
<path d="M359.104 334.246H358.994V340.79H359.104V334.246Z" fill="#6DACFF"/>
<path d="M359.226 334.246H359.116V340.79H359.226V334.246Z" fill="#6CABFF"/>
<path d="M359.335 334.246H359.226V340.79H359.335V334.246Z" fill="#6BAAFF"/>
<path d="M359.457 334.246H359.347V340.79H359.457V334.246Z" fill="#6AA9FF"/>
<path d="M359.566 334.246H359.457V340.79H359.566V334.246Z" fill="#69A9FF"/>
<path d="M359.688 334.246H359.579V340.79H359.688V334.246Z" fill="#68A8FF"/>
<path d="M359.81 334.246H359.688V340.79H359.81V334.246Z" fill="#67A7FF"/>
<path d="M359.919 334.246H359.81V340.79H359.919V334.246Z" fill="#66A6FF"/>
<path d="M360.029 334.246H359.919V340.79H360.029V334.246Z" fill="#65A6FF"/>
<path d="M360.151 334.246H360.041V340.79H360.151V334.246Z" fill="#64A5FF"/>
<path d="M360.26 334.246H360.151V340.79H360.26V334.246Z" fill="#63A4FF"/>
<path d="M360.382 334.246H360.272V340.79H360.382V334.246Z" fill="#62A3FF"/>
<path d="M360.491 334.246H360.382V340.79H360.491V334.246Z" fill="#61A2FF"/>
<path d="M360.613 334.246H360.504V340.79H360.613V334.246Z" fill="#60A2FF"/>
<path d="M360.735 334.246H360.613V340.79H360.735V334.246Z" fill="#5FA1FF"/>
<path d="M360.844 334.246H360.735V340.79H360.844V334.246Z" fill="#5EA0FF"/>
<path d="M360.954 334.246H360.844V340.79H360.954V334.246Z" fill="#5D9FFF"/>
<path d="M361.076 334.246H360.966V340.79H361.076V334.246Z" fill="#5C9EFF"/>
<path d="M361.185 334.246H361.076V340.79H361.185V334.246Z" fill="#5B9EFF"/>
<path d="M361.307 334.246H361.198V340.79H361.307V334.246Z" fill="#5A9DFF"/>
<path d="M361.417 334.246H361.307V340.79H361.417V334.246Z" fill="#599CFF"/>
<path d="M361.526 334.246H361.417V340.79H361.526V334.246Z" fill="#589BFF"/>
<path d="M361.648 334.246H361.538V340.79H361.648V334.246Z" fill="#579BFF"/>
<path d="M361.77 334.246H361.648V340.79H361.77V334.246Z" fill="#569AFF"/>
<path d="M361.879 334.246H361.77V340.79H361.879V334.246Z" fill="#5599FF"/>
<path d="M357.558 342.411C357.558 342.411 358.994 342.375 359.798 342.692C359.98 342.765 360.139 342.874 360.139 343.069C360.139 343.264 359.859 343.508 359.238 343.557C358.617 343.606 357.826 343.959 357.826 343.959C357.826 343.959 357.168 343.825 357.558 342.411Z" fill="#EEA886"/>
<path d="M343.34 393.843C343.231 394.416 343.121 395.001 342.999 395.586L339.311 385.811C339.81 386.799 343.34 393.843 343.34 393.843Z" fill="#293B57"/>
<path d="M140.314 277.354H82.1042C77.8073 277.354 74.3137 273.868 74.3137 269.554V177.476C74.3137 173.174 77.7951 169.676 82.1042 169.676H140.314C144.61 169.676 148.104 173.162 148.104 177.476V269.554C148.104 273.868 144.623 277.354 140.314 277.354Z" fill="#EEF7FF"/>
<path d="M140.265 239.219H136.443V268.347H140.265V239.219Z" fill="url(#paint21_linear_601_834)"/>
<path d="M132.706 242.485H128.884V268.347H132.706V242.485Z" fill="url(#paint22_linear_601_834)"/>
<path d="M124.501 246.726H120.679V268.347H124.501V246.726Z" fill="url(#paint23_linear_601_834)"/>
<path d="M116.078 252.089H112.256V268.359H116.078V252.089Z" fill="url(#paint24_linear_601_834)"/>
<path d="M89.4442 248.628L88.6165 248.335L95.8226 228.091L111.452 223.948L117.076 201.717L129.139 196.391L131.841 179.109L132.706 179.243L129.93 197.001L117.819 202.351L112.183 224.667L96.4921 228.823L89.4442 248.628Z" fill="#4EACF9"/>
<path d="M113.631 222.814C114.447 223.814 114.301 225.3 113.303 226.117C112.304 226.934 110.819 226.787 110.004 225.788C109.188 224.789 109.334 223.302 110.332 222.485C111.331 221.669 112.816 221.815 113.631 222.814Z" fill="url(#paint25_linear_601_834)"/>
<path d="M113.582 226.47C112.389 227.445 110.637 227.263 109.663 226.08C108.689 224.886 108.872 223.131 110.052 222.156C111.245 221.181 112.998 221.364 113.972 222.546C114.946 223.728 114.775 225.495 113.582 226.47ZM110.612 222.826C109.797 223.497 109.675 224.691 110.344 225.508C111.014 226.324 112.219 226.446 113.022 225.776C113.838 225.105 113.96 223.899 113.29 223.094C112.633 222.278 111.428 222.156 110.612 222.826Z" fill="#4EACF9"/>
<path d="M119.328 200.681C120.144 201.681 119.997 203.168 118.999 203.984C118.001 204.801 116.516 204.655 115.701 203.655C114.885 202.656 115.031 201.169 116.029 200.352C117.027 199.524 118.512 199.682 119.328 200.681Z" fill="url(#paint26_linear_601_834)"/>
<path d="M119.279 204.326C118.086 205.301 116.333 205.118 115.36 203.936C114.386 202.741 114.568 200.986 115.749 200.011C116.942 199.036 118.695 199.219 119.669 200.401C120.642 201.595 120.46 203.351 119.279 204.326ZM116.309 200.694C115.493 201.364 115.372 202.57 116.041 203.375C116.711 204.191 117.916 204.313 118.719 203.643C119.535 202.973 119.656 201.778 118.987 200.962C118.318 200.145 117.112 200.023 116.309 200.694Z" fill="#4EACF9"/>
<path d="M131.208 195.197C132.024 196.196 131.878 197.683 130.88 198.5C129.882 199.316 128.396 199.17 127.581 198.171C126.765 197.171 126.911 195.684 127.91 194.868C128.908 194.051 130.393 194.198 131.208 195.197Z" fill="url(#paint27_linear_601_834)"/>
<path d="M131.16 198.841C129.967 199.816 128.214 199.633 127.24 198.451C126.266 197.257 126.449 195.502 127.63 194.527C128.823 193.552 130.575 193.735 131.549 194.917C132.523 196.111 132.341 197.866 131.16 198.841ZM128.19 195.209C127.374 195.88 127.252 197.086 127.922 197.891C128.591 198.707 129.784 198.829 130.6 198.159C131.415 197.488 131.537 196.282 130.868 195.477C130.198 194.661 128.993 194.539 128.19 195.209Z" fill="#4EACF9"/>
<path d="M98.0623 227.165C98.8779 228.165 98.7318 229.651 97.7337 230.468C96.7234 231.285 95.2505 231.138 94.4349 230.139C93.6193 229.14 93.7654 227.653 94.7636 226.836C95.7617 226.007 97.2468 226.166 98.0623 227.165Z" fill="url(#paint28_linear_601_834)"/>
<path d="M98.0138 230.809C96.8208 231.784 95.068 231.601 94.0942 230.419C93.1204 229.225 93.303 227.47 94.4837 226.495C95.6766 225.52 97.4295 225.703 98.4033 226.885C99.3771 228.079 99.1945 229.834 98.0138 230.809ZM95.0436 227.177C94.2281 227.848 94.1064 229.042 94.7759 229.859C95.4453 230.675 96.6504 230.797 97.4538 230.127C98.2694 229.456 98.3911 228.25 97.7216 227.445C97.0521 226.629 95.847 226.507 95.0436 227.177Z" fill="#4EACF9"/>
<path d="M103.954 205.118H83.8327C82.9075 205.118 82.1528 204.362 82.1528 203.436V201.937C82.1528 201.011 82.9075 200.255 83.8327 200.255H103.954C104.879 200.255 105.634 201.011 105.634 201.937V203.436C105.646 204.362 104.891 205.118 103.954 205.118Z" fill="#399EFD"/>
<path d="M103.954 196.599H83.8327C82.9075 196.599 82.1528 195.843 82.1528 194.917V193.418C82.1528 192.491 82.9075 191.736 83.8327 191.736H103.954C104.879 191.736 105.634 192.491 105.634 193.418V194.917C105.646 195.843 104.891 196.599 103.954 196.599Z" fill="#399EFD"/>
<path d="M65.2936 209.042C65.2936 209.042 64.6119 215.77 65.8535 217.452C65.8535 217.452 62.5669 216.732 61.8122 215.599C61.0575 214.466 65.2936 209.042 65.2936 209.042Z" fill="#16202E"/>
<path d="M85.8044 230.517C85.8044 230.517 86.9973 229.712 87.1799 229.603C87.3625 229.481 87.9833 229.505 88.6772 229.59C89.3832 229.676 90.2839 230.102 90.3448 230.212C90.3935 230.322 90.503 230.407 90.4665 230.712C90.4178 231.016 90.2109 231.26 90.2109 231.26C90.2109 231.26 90.3326 231.662 90.0648 231.943C90.0648 231.943 90.1622 232.333 89.797 232.589C89.797 232.589 89.8822 232.966 89.6023 233.137C89.6023 233.137 88.9936 233.113 88.7624 233.174C88.5311 233.235 87.2651 233.113 86.06 232.796C86.06 232.796 84.7089 232.503 85.8044 230.517Z" fill="#EEA886"/>
<path d="M87.8373 231.065C87.8373 231.065 87.4843 231.687 87.2896 231.821C87.0948 231.943 88.2025 233.137 88.2025 233.137C88.2025 233.137 88.592 231.528 87.8373 231.065Z" fill="#CF8C6C"/>
<path d="M85.0986 230.626C85.0986 230.626 85.8533 230.541 86.3158 230.334C86.7784 230.115 86.2306 232.674 86.2306 232.674C86.2306 232.674 85.1107 231.894 84.3804 231.882C83.6379 231.845 85.0986 230.626 85.0986 230.626Z" fill="#EEA886"/>
<path d="M54.034 298.597C54.034 298.597 56.3833 302.034 57.1989 302.753C57.1989 302.753 58.83 303.606 58.8787 304.276C58.9761 305.556 59.037 306.311 56.8946 306.372C54.74 306.433 53.4011 306.372 52.9994 305.056C52.6098 303.752 51.9282 302.728 51.9282 302.728L51.7699 306.129H51.283C51.283 306.129 51.0639 302.728 51.0396 302.241C51.0152 301.753 50.6866 299.889 51.7091 299.06C52.7316 298.243 54.034 298.597 54.034 298.597Z" fill="#121212"/>
<path d="M57.5033 302.936C57.5033 302.936 56.3347 303.265 54.9592 302.911C53.5715 302.558 52.2447 299.243 51.843 298.975L51.49 297.634H54.1923C54.1923 297.634 54.2167 298.621 54.6549 299.474C55.0809 300.315 57.5033 302.936 57.5033 302.936Z" fill="#162D40"/>
<path d="M69.2498 297.317C69.2498 297.317 69.6028 298.146 70.2601 299.011C70.747 299.645 72.2564 302.253 72.9259 302.436C73.5954 302.619 75.6526 302.984 75.8352 304.13C76.0178 305.288 76.103 306.104 74.0823 306.19C72.0495 306.275 70.7227 306.397 69.7489 304.971C68.7751 303.545 67.2291 302.509 67.2291 302.509V306.226H66.4379C66.4379 306.226 66.0727 302.351 65.8658 302.082C65.6589 301.814 65.1111 298.84 66.9857 297.293C68.8724 295.769 69.2498 297.317 69.2498 297.317Z" fill="#121212"/>
<path d="M72.9258 302.436C72.9258 302.436 71.1121 302.887 70.4061 302.436C69.7123 301.985 67.3386 297.975 66.5596 297.731C66.5596 297.731 67.3143 296.184 69.2497 297.305C69.2497 297.317 72.4146 301.778 72.9258 302.436Z" fill="#162D40"/>
<path d="M52.9995 241.595C52.9995 241.595 50.431 244.935 49.7372 248.896C49.0434 252.857 50.1511 266.141 50.1146 268.103C50.0902 270.065 48.3861 276.147 48.7512 279.84C49.1164 283.521 51.0153 298.914 51.0153 298.914L55.4583 298.828C55.4583 298.828 54.5697 282.229 54.801 280.681C55.0323 279.133 55.7505 272.552 55.8479 271.918C55.9452 271.284 60.9117 254.429 60.9117 251.577C60.9117 248.713 59.1831 236.94 52.9995 241.595Z" fill="url(#paint29_linear_601_834)"/>
<path d="M65.878 242.899C65.878 242.899 70.0897 258.999 70.5888 261.23C71.0879 263.46 72.086 266.373 72.0495 266.787C72.0008 267.189 71.5139 274.063 71.5139 274.063L70.321 297.451H65.878C65.878 297.451 64.4538 282.57 64.2225 279.572C63.9912 276.574 65.8537 271.93 65.4033 270.651C64.9529 269.383 58.0875 254.673 58.0875 254.673C58.0875 254.673 52.8898 238.232 65.878 242.899Z" fill="url(#paint30_linear_601_834)"/>
<path d="M64.5755 218.817C64.5755 218.817 66.2554 218.975 67.5335 220.34C68.8116 221.705 70.0045 223.887 70.3332 224.606C70.6618 225.337 75.3361 232.077 75.5796 232.235C75.823 232.381 77.868 231.845 79.4991 231.711C82.1649 231.492 86.1576 230.127 86.1576 230.127L86.754 233.149C86.754 233.149 76.9307 236.318 74.6666 235.77C71.8913 235.087 65.5128 226.885 65.5128 226.885C65.5128 226.885 60.7534 221.303 64.5755 218.817Z" fill="#399EFD"/>
<path d="M61.642 217.634C61.642 217.634 63.8209 218.67 64.5756 218.817C65.3303 218.963 68.276 222.79 68.7873 224.191C69.2985 225.581 68.7873 227.677 67.7283 230.139C66.6692 232.601 67.6674 233.417 67.1805 235.879C66.6936 238.341 66.6936 245.032 66.791 246.397C66.8762 247.762 52.7681 250.334 49.9441 247.848C49.9441 247.848 51.8552 241.547 54.1071 239.182C54.594 238.67 54.5453 235.258 54.2045 234.417C53.8758 233.564 50.1145 227.226 50.1145 227.226C50.1145 227.226 49.8345 220.791 51.4778 219.524C52.902 218.414 56.7851 218.024 57.4789 217.781C58.1849 217.525 60.2178 217.415 61.642 217.634Z" fill="#399EFD"/>
<path d="M62.3357 222.497L63.6625 220.937L62.5061 216.842C62.5061 216.854 62.1166 219.133 62.3357 222.497Z" fill="#D1C0BA"/>
<path d="M54.0219 218.817C54.0219 218.817 51.2709 218.024 49.7006 221.059C48.1303 224.094 48.5198 225.727 48.1547 227.092C47.7895 228.457 46.3409 237.586 46.2436 237.988C46.1462 238.378 44.7585 243.021 44.9411 244.447C45.1237 245.873 46.4262 256.671 46.3653 257.037C46.3044 257.403 48.885 256.684 48.885 256.684C48.885 256.684 48.7755 245.654 48.8728 244.74C48.9581 243.826 49.0554 239.048 49.7371 237.817C50.4188 236.586 52.0986 229.079 52.4638 228.311C52.8168 227.555 56.3468 219.804 54.0219 218.817Z" fill="#EEA886"/>
<path d="M62.6765 215.112C62.6765 215.112 62.2383 219.121 62.3357 220.425C62.3357 220.425 60.0716 222.704 57.491 217.769C57.491 217.769 58.5743 215.733 57.7588 212.967C56.9432 210.2 62.6765 215.112 62.6765 215.112Z" fill="#EEA886"/>
<path d="M62.3359 220.425V222.497L59.9014 220.34L62.3359 220.425Z" fill="#EEA886"/>
<path d="M62.3358 222.497L61.2524 221.157L57.6006 217.513L56.2373 218.122L62.3358 222.497Z" fill="#D1C0BA"/>
<path d="M63.6625 220.949L65.3301 221.4L62.5061 216.854L63.6625 220.949Z" fill="#1C94F7"/>
<path d="M61.2525 221.157L59.7187 223.606L56.1765 218.037L57.6981 217.257L61.2525 221.157Z" fill="#1C94F7"/>
<path d="M69.0185 231.041C69.0185 231.041 69.5663 227.409 68.982 225.203C68.982 225.203 68.6655 226.982 67.8743 229.761L69.0185 231.041Z" fill="#1C94F7"/>
<path d="M52.0742 230.553C52.0742 230.553 53.5836 225.556 53.6688 225.288C53.6688 225.288 53.5714 229.883 52.9872 232.15C52.9993 232.15 52.4394 231.175 52.0742 230.553Z" fill="#1C94F7"/>
<path d="M108.263 205.508L84.5264 235.453L85.3541 236.099L108.263 205.508Z" fill="#54281A"/>
<path d="M90.1744 230.175C90.1744 230.175 88.3972 230.005 88.3363 230.297C88.2755 230.578 88.4215 230.724 88.4215 230.724L87.6425 230.98C87.6425 230.98 87.2408 231.443 87.8494 231.748C87.8494 231.748 87.4234 232.138 88.0564 232.369C88.0564 232.369 87.8859 232.747 88.1659 232.905C88.4459 233.064 89.5901 233.125 89.5901 233.125C89.5901 233.125 89.8336 233.027 89.7849 232.576C89.7849 232.576 90.15 232.345 90.0527 231.93C90.0527 231.93 90.3205 231.699 90.1987 231.248C90.1987 231.248 90.7465 230.687 90.3326 230.2C90.357 230.2 90.2474 230.175 90.1744 230.175Z" fill="#DB9C7C"/>
<path d="M87.2408 229.59C87.2408 229.59 88.2755 230.249 88.6893 230.858C88.7867 230.992 88.8476 231.15 88.7502 231.285C88.6528 231.419 88.3363 231.467 87.8738 231.199C87.4112 230.931 86.693 230.809 86.693 230.809C86.693 230.809 86.2913 230.407 87.2408 229.59Z" fill="#EEA886"/>
<path d="M60.8386 201.474C60.8386 201.474 64.8556 201.364 65.5981 206.129C66.3406 210.895 64.6243 215.075 63.9548 215.745C63.2853 216.416 59.2684 215.904 58.3189 213.43C57.3694 210.956 55.9818 209.152 56.1887 207.031C56.4078 204.898 55.8966 201.388 60.8386 201.474Z" fill="#EEA886"/>
<path d="M65.7685 207.933C65.7685 207.933 66.8397 201.998 61.5081 200.925C56.1765 199.865 54.3019 203.509 53.8028 205.691C53.2916 207.86 53.9002 213.99 53.9002 213.99C53.9002 213.99 57.4546 217.11 59.5727 217.915C59.5727 217.915 57.7955 211.394 58.4649 206.726C58.4649 206.726 62.7984 207.409 65.6711 206.702C65.6711 206.702 65.7563 207.677 65.7685 207.933Z" fill="url(#paint31_linear_601_834)"/>
<path d="M62.5913 216.001C62.5913 216.001 61.1914 215.989 59.3047 214.758C59.3047 214.758 60.6437 216.44 62.4939 217.049C62.4939 217.049 62.6035 216.221 62.5913 216.001Z" fill="#A77860"/>
<path d="M56.5294 258.158L41.0216 260.693L39.147 249.2L54.6549 246.665L56.5294 258.158Z" fill="url(#paint32_linear_601_834)"/>
<path d="M45.8297 260.486C45.8297 260.486 45.5862 260.084 45.5619 259.865C45.5619 259.865 45.5497 259.45 45.5254 259.158C45.5132 259.06 45.5132 258.987 45.501 258.938C45.4523 258.719 45.2941 258.268 45.3184 257.72C45.355 257.171 46.0975 254.843 46.0975 254.843L47.473 254.892L48.7633 254.758C48.7633 254.758 50.3214 257.744 50.3579 258.256C50.3579 258.305 50.3579 258.353 50.3579 258.402C50.3457 258.841 50.1388 259.158 50.1023 259.389C50.0901 259.475 49.8953 260.303 49.6762 260.413C49.3598 260.571 49.0798 260.547 48.8728 260.425C48.8728 260.425 48.2399 260.705 47.8017 260.584C47.8017 260.584 47.2295 260.864 46.7183 260.547C46.7183 260.535 46.0975 260.754 45.8297 260.486Z" fill="#EEA886"/>
<path d="M54.022 218.817C54.022 218.817 51.271 218.024 49.7007 221.059C48.1304 224.094 48.1304 225.386 47.9235 226.873C47.7287 228.274 45.8055 236.586 45.7081 236.976C45.6229 237.366 44.9899 242.558 44.9412 244.459C44.9047 245.897 45.2455 255.319 45.1847 255.684C45.1238 256.05 49.5425 255.05 49.5425 255.05C49.5425 255.05 49.0556 246.361 49.1408 245.447C49.226 244.532 49.4207 239.999 49.8711 238.67C50.3945 237.11 52.4517 229.213 52.8169 228.433C53.1699 227.653 56.3469 219.804 54.022 218.817Z" fill="#399EFD"/>
<path d="M196.149 300.498L196.429 297.829C196.429 297.829 192.668 297.805 192.229 298.121C192.229 298.121 192.546 300.364 192.583 300.693C192.631 301.034 196.149 300.498 196.149 300.498Z" fill="#5C544D"/>
<path d="M189.758 306.08C194.226 306.043 196.38 306.348 196.867 305.617C197.342 304.886 196.173 300.254 196.173 300.254C196.173 300.254 195.114 300.644 192.558 300.401C192.558 300.401 191.45 301.753 190.367 302.338C189.296 302.923 187.604 303.155 186.959 303.764C186.508 304.215 185.291 306.117 189.758 306.08Z" fill="#121212"/>
<path d="M170.976 300.498L171.256 297.829C171.256 297.829 167.495 297.805 167.057 298.121C167.057 298.121 167.373 300.364 167.41 300.693C167.471 301.034 170.976 300.498 170.976 300.498Z" fill="#5C544D"/>
<path d="M164.598 306.08C169.065 305.958 171.22 306.348 171.706 305.617C172.181 304.886 171.013 300.254 171.013 300.254C171.013 300.254 170.014 300.669 167.397 300.401C167.397 300.401 166.278 301.753 165.206 302.338C164.135 302.923 160.167 303.411 159.534 304.02C159.071 304.471 158.304 306.238 164.598 306.08Z" fill="#121212"/>
<path d="M190.988 240.291C190.988 240.291 192.863 245.849 192.607 250.638C192.364 255.428 193.569 260.669 194.068 265.678C194.615 271.26 196.88 284.459 196.965 287.445C197.05 290.431 196.612 299.962 196.612 299.962L192.084 300.071C192.084 300.071 188.286 276.976 187.3 274.624C186.314 272.271 181.433 255.465 181.262 253.588C181.104 251.699 190.988 240.291 190.988 240.291Z" fill="url(#paint33_linear_601_834)"/>
<path d="M171.95 241.278C171.95 241.278 169.467 254.404 169.138 257.342C168.81 260.279 168.59 271.528 168.432 273.368C168.274 275.197 167.337 297.354 166.46 300.072H172.242C172.242 300.072 176.685 283.972 176.685 276.354C176.685 268.737 180.118 259.791 182.333 254.77C184.549 249.749 189.625 249.627 190.988 240.303C190.988 240.291 173.8 238.317 171.95 241.278Z" fill="url(#paint34_linear_601_834)"/>
<path d="M183.721 196.404C183.721 196.404 179.156 194.697 177.05 198.171C174.944 201.644 175.151 208.603 177.452 209.469C179.753 210.322 183.21 209.883 184.378 207.701C185.559 205.52 186.618 202.375 186.569 200.279C186.521 198.171 184.914 197.013 183.721 196.404Z" fill="#EEA886"/>
<path d="M178.219 209.249C178.219 209.249 178.401 210.444 178.097 211.041C177.793 211.626 183.83 211.65 183.83 211.65C183.83 211.65 184.317 208.445 185.255 205.727C186.18 203.021 178.219 209.249 178.219 209.249Z" fill="#EEA886"/>
<path d="M185.255 205.727C185.255 205.727 184.841 206.41 183.137 206.154C181.432 205.886 179.351 203.619 178.645 203.375C177.939 203.131 177.927 202.705 177.927 202.705L177.476 203.35L176.722 203.399C176.722 203.399 177.415 201.376 176.369 200.547C175.334 199.719 177.452 193.978 182.905 195.892C182.905 195.892 186.813 196.659 187.056 199.048C187.312 201.571 186.192 204.533 185.255 205.727Z" fill="url(#paint35_linear_601_834)"/>
<path d="M177.732 210.968C177.732 210.968 177.756 209.846 178.255 209.737C178.767 209.627 183.891 209.14 184.512 209.383V210.7C184.524 210.687 183.319 211.431 177.732 210.968Z" fill="#E2D2CA"/>
<path d="M178.036 201.827C178.134 201.425 179.144 200.279 179.534 201.51C179.923 202.741 178.949 204.386 178.402 204.24C177.866 204.106 177.793 202.851 178.036 201.827Z" fill="#EEA886"/>
<path d="M177.732 210.968C177.732 210.968 174.92 211.979 171.67 213.356C171.67 213.356 167.933 214.758 167.519 218.89C167.3 221.083 164.975 232.735 164.525 233.722C164.087 234.709 158.913 250.541 158.731 250.87C158.548 251.199 162.955 253.027 163.247 252.881C163.539 252.735 168.262 238.439 168.736 237.378C168.736 237.378 171.451 228.798 171.524 227.531C171.524 227.531 171.597 231.175 171.743 232.199C171.889 233.222 169.321 253.076 169.406 253.624C169.479 254.173 181.055 254.868 185.681 254.356C190.319 253.844 194.055 252.783 194.055 252.783C194.055 252.783 190.416 237.11 190.525 235.38C190.769 231.589 192.035 224.459 192.035 224.459L195.808 231.589L190.976 244.045L192.084 247.823C192.084 247.823 201.067 234.234 201.359 232.991C201.651 231.748 200.921 230.163 200.446 229.139C199.971 228.116 196.855 220.34 196.125 219.243C195.394 218.146 194.165 213.759 191.183 212.54C188.687 211.516 184.512 210.687 184.512 210.687L177.732 210.968Z" fill="#1B85CC"/>
<path d="M171.56 258.061L150.392 252.625L154.178 237.854L175.346 243.277L171.56 258.061Z" fill="url(#paint36_linear_601_834)"/>
<path d="M156.905 254.124C156.905 254.124 156.296 255.099 156.077 255.379C155.858 255.66 156.625 255.83 156.941 255.55C157.282 255.27 156.905 254.124 156.905 254.124Z" fill="#C98462"/>
<path d="M161.311 257.463C161.311 257.463 161.664 257.086 161.749 256.854C161.749 256.854 161.859 256.403 161.956 256.098C161.993 256.001 162.017 255.916 162.041 255.855C162.139 255.635 162.431 255.172 162.528 254.563C162.626 253.953 162.881 251.248 162.881 251.248L161.238 250.833L159.923 250.553C159.923 250.553 157.075 253.393 156.929 253.953C156.917 254.002 156.905 254.063 156.892 254.112C156.807 254.587 156.953 254.989 156.929 255.245C156.929 255.343 156.941 256.281 157.16 256.464C157.465 256.708 157.769 256.757 158.025 256.671C158.025 256.671 158.645 257.122 159.157 257.098C159.157 257.098 159.717 257.537 160.337 257.317C160.337 257.305 160.946 257.695 161.311 257.463Z" fill="#DE9D7D"/>
<path d="M167.714 240.316C167.714 240.316 163.953 251.711 163.271 252.905C163.271 252.905 160.52 252.32 158.755 250.894L162.881 238.609L167.714 240.316Z" fill="#63A4FF"/>
<path d="M506.575 258.073C506.575 258.073 520.524 217.135 493.915 204.435C467.306 191.748 444.714 210.09 440.453 220.023C436.181 229.956 437.313 248.006 440.952 260.596C444.592 273.186 444.056 292.345 436.156 298.755C428.244 305.166 418.445 315.806 418.932 337.475C419.236 350.918 471.761 303.094 471.761 303.094L506.575 258.073Z" fill="url(#paint37_linear_601_834)"/>
<path d="M469.193 306.775C469.193 306.775 447.318 311.625 438.639 316.708C429.96 321.79 410.679 345.154 410.679 355.196C410.679 365.239 494.986 374.623 494.986 374.623L510.969 433.026C510.969 433.026 553.585 422.618 558.649 413.977C563.725 405.348 542.472 343.459 538.832 330.931C535.119 318.158 519.843 309.249 502.095 306.75C484.323 304.288 469.193 306.775 469.193 306.775Z" fill="#399EFD"/>
<path d="M500.561 306.58C500.561 306.58 500.075 333.197 478.992 333.99C457.909 334.782 462.303 308.457 462.303 308.457C462.303 308.457 477.726 302.192 500.561 306.58Z" fill="#EEA886"/>
<path d="M509.484 226.263C509.484 226.263 516.946 269.066 495.705 299.986C473.709 332.015 509.484 226.263 509.484 226.263Z" fill="#252E3B"/>
<path d="M496.046 287.762C496.046 287.762 494.585 300.498 497.031 308.408C499.478 316.33 464.798 316.549 464.823 310.029C464.847 302.631 468.377 296.452 465.054 283.777C461.719 271.101 496.046 287.762 496.046 287.762Z" fill="#EEA886"/>
<path d="M469.144 289.383C469.144 289.383 480.099 300.803 494.098 290.577C494.098 290.577 492.941 297.878 482.875 298.816C472.796 299.755 469.144 289.383 469.144 289.383Z" fill="#A77860"/>
<path d="M482.85 211.419C482.85 211.419 510.519 219.621 506.575 258.073C502.619 296.525 484.554 294.551 482.85 294.831C481.158 295.111 459.698 296.525 452.918 249.871C446.138 203.229 482.85 211.419 482.85 211.419Z" fill="#EEA886"/>
<path d="M475.705 228.567C475.705 228.567 490.738 252.515 506.575 258.073C506.575 258.073 515.217 217.89 479.527 209.469C443.837 201.047 449.424 250.054 452.09 263.131C452.09 263.131 459.515 243.899 475.705 228.567Z" fill="url(#paint38_linear_601_834)"/>
<path d="M455.535 224.959C455.535 224.959 463.447 209.615 476.813 208.92C490.178 208.238 498.127 219.84 498.127 219.84C498.127 219.84 492.905 206.763 476.825 206.763C460.757 206.775 455.535 224.959 455.535 224.959Z" fill="#88C0FF"/>
<path d="M509.959 345.677L519.344 433.038H395.816L386.431 345.677H509.959Z" fill="url(#paint39_linear_601_834)"/>
<path d="M516.374 430.04H391.763L382.268 341.607H506.867L516.374 430.04ZM392.725 428.956H515.157L505.893 342.679H383.461L392.725 428.956Z" fill="#5FA0FF"/>
<path d="M460.55 387.944C461.658 393.38 459.126 398.487 454.89 399.352C450.654 400.217 446.333 396.512 445.213 391.076C444.105 385.641 446.637 380.534 450.873 379.669C455.109 378.804 459.443 382.509 460.55 387.944Z" fill="url(#paint40_linear_601_834)"/>
<path d="M507.658 424.251H530.713V433.038H507.658V424.251Z" fill="url(#paint41_linear_601_834)"/>
<path d="M435.998 170.736C425.517 170.736 416.997 162.205 416.997 151.712C416.997 141.218 425.517 132.687 435.998 132.687C446.479 132.687 454.999 141.218 454.999 151.712C454.999 162.205 446.479 170.736 435.998 170.736ZM435.998 133.759C426.114 133.759 418.068 141.815 418.068 151.712C418.068 161.608 426.114 169.664 435.998 169.664C445.882 169.664 453.928 161.608 453.928 151.712C453.916 141.815 445.882 133.759 435.998 133.759Z" fill="#64A4FF"/>
<path d="M100.874 364.178L100.862 362.557C104.088 362.533 107.326 362.436 110.515 362.289L110.588 363.91C107.374 364.057 104.112 364.142 100.874 364.178ZM91.1484 364.069C87.9592 363.983 84.6847 363.825 81.4347 363.618L81.532 362.009C84.77 362.216 88.0079 362.362 91.1849 362.448L91.1484 364.069ZM120.277 363.252L120.131 361.643C123.321 361.363 126.546 361.022 129.736 360.607L129.942 362.216C126.741 362.631 123.491 362.972 120.277 363.252ZM71.7453 362.85C68.4343 362.521 65.1842 362.094 62.0924 361.595L62.348 359.998C65.4034 360.498 68.6169 360.912 71.9035 361.241L71.7453 362.85ZM139.559 360.802L139.291 359.206C142.407 358.682 145.596 358.085 148.786 357.426L149.114 359.011C145.901 359.669 142.687 360.266 139.559 360.802ZM52.5369 359.669C49.2868 358.877 46.1341 357.963 43.164 356.939L43.6874 355.416C46.5967 356.415 49.7007 357.317 52.9143 358.097L52.5369 359.669ZM158.597 356.89L158.219 355.318C161.189 354.611 164.245 353.831 167.592 352.941L168.006 354.501C164.647 355.391 161.567 356.171 158.597 356.89ZM34.1198 353.258C31.0888 351.808 28.2282 350.199 25.5868 348.444L26.4754 347.091C29.0438 348.798 31.8435 350.37 34.8136 351.784L34.1198 353.258ZM177.355 351.918L176.916 350.358C178.268 349.98 179.607 349.602 180.933 349.224C182.723 348.712 184.5 348.213 186.241 347.725L186.679 349.285C184.938 349.773 183.161 350.272 181.372 350.784C180.057 351.162 178.718 351.54 177.355 351.918ZM261.577 350.565C258.595 349.151 255.612 347.908 252.703 346.872L253.251 345.349C256.209 346.409 259.24 347.676 262.271 349.102L261.577 350.565ZM196.027 346.762L195.626 345.19C199.107 344.3 202.199 343.581 205.096 342.972L205.425 344.556C202.552 345.166 199.472 345.885 196.027 346.762ZM243.501 344.154C240.384 343.435 237.195 342.899 234.042 342.582L234.201 340.973C237.414 341.302 240.664 341.838 243.854 342.57L243.501 344.154ZM214.907 342.96L214.7 341.351C218.084 340.912 221.273 340.668 224.438 340.595L224.475 342.216C221.371 342.302 218.242 342.533 214.907 342.96ZM17.8815 342.399C15.4592 340.144 13.256 337.695 11.3205 335.087L12.6108 334.124C14.4854 336.647 16.6278 339.023 18.9771 341.217L17.8815 342.399ZM6.19585 326.701C4.78383 323.813 3.59092 320.73 2.6658 317.536L4.21172 317.085C5.11249 320.193 6.26889 323.191 7.64439 325.995L6.19585 326.701ZM0.65732 307.92C0.243452 304.788 0.0121726 301.485 0 298.134L1.61896 298.122C1.63113 301.412 1.85023 304.63 2.2641 307.701L0.65732 307.92ZM2.09369 288.53L0.486904 288.359C0.815564 285.19 1.30247 281.936 1.93544 278.682L3.51788 278.999C2.89708 282.204 2.41017 285.41 2.09369 288.53ZM5.79416 269.639L4.23606 269.188C5.87936 263.509 7.35225 260.047 7.41311 259.901L8.89817 260.535C8.88599 260.571 7.40094 264.057 5.79416 269.639Z" fill="#C2BEBC"/>
<path d="M519.088 73.3329C519.064 73.3085 516.361 70.9076 511.529 67.3122L512.491 66.0203C517.384 69.6645 520.135 72.102 520.159 72.1264L519.088 73.3329ZM503.629 61.7425C500.975 59.9631 498.224 58.2203 495.461 56.5628L496.289 55.1734C499.076 56.8431 501.84 58.6103 504.517 60.3897L503.629 61.7425ZM487.074 51.773C484.238 50.2374 481.341 48.7627 478.468 47.3855L479.162 45.923C482.059 47.3124 484.98 48.7992 487.841 50.3471L487.074 51.773ZM469.655 43.4245C466.673 42.1692 463.642 40.9992 460.66 39.9267L461.207 38.4032C464.226 39.4757 467.282 40.6701 470.288 41.9254L469.655 43.4245ZM346.895 41.4501L346.858 39.8292C349.986 39.756 353.2 39.4635 356.389 38.9395L356.645 40.536C353.383 41.0723 350.108 41.377 346.895 41.4501ZM337.12 40.9504C333.967 40.5604 330.729 39.9145 327.516 39.0613L327.93 37.5013C331.082 38.3423 334.235 38.9638 337.315 39.3538L337.12 40.9504ZM366.188 38.3301L365.738 36.7822C366.772 36.4776 367.831 36.1485 368.878 35.795C370.899 35.1125 372.956 34.4788 375.001 33.906L375.439 35.466C373.419 36.0388 371.386 36.6604 369.39 37.3307C368.318 37.6841 367.247 38.0254 366.188 38.3301ZM451.481 36.9407C448.377 36.0266 445.237 35.1979 442.157 34.4788L442.522 32.9066C445.639 33.6257 448.816 34.4666 451.944 35.3929L451.481 36.9407ZM318.24 35.9901C315.392 34.881 312.483 33.5891 309.318 32.0656L310.024 30.6153C313.14 32.1266 316.025 33.3941 318.825 34.491L318.24 35.9901ZM384.788 33.1991L384.471 31.6147C387.636 30.9809 390.874 30.4569 394.1 30.0547L394.295 31.6634C391.118 32.0534 387.916 32.5653 384.788 33.1991ZM432.687 32.6019C429.498 32.0778 426.284 31.6513 423.132 31.3466L423.29 29.7378C426.479 30.0425 429.729 30.4691 432.955 31.0053L432.687 32.6019ZM148.773 31.0662L147.897 29.7134C150.66 27.9218 153.436 26.179 156.138 24.5459L156.978 25.9353C154.288 27.544 151.537 29.2747 148.773 31.0662ZM403.887 30.8469L403.814 29.2259C407.027 29.0797 410.302 29.0431 413.564 29.1284L413.527 30.7494C410.302 30.6641 407.064 30.7006 403.887 30.8469ZM300.675 27.5928C297.936 26.1059 295.222 24.5702 292.203 22.864L292.994 21.4502C296.001 23.1443 298.715 24.6799 301.442 26.1668L300.675 27.5928ZM165.34 21.0846L164.561 19.6708C167.458 18.0742 170.355 16.5508 173.167 15.1492L173.885 16.5995C171.086 17.9889 168.213 19.5002 165.34 21.0846ZM283.755 18.1352C280.59 16.4045 277.791 14.9298 275.21 13.6258L275.928 12.1754C278.533 13.4795 281.357 14.9664 284.534 16.7092L283.755 18.1352ZM182.625 12.5167L181.98 11.0298C185.023 9.70135 188.067 8.48258 191.024 7.41007L191.584 8.93353C188.651 9.99385 185.644 11.2004 182.625 12.5167ZM266.47 9.56728C263.378 8.25102 260.433 7.15413 257.462 6.17912L257.962 4.64348C260.968 5.63068 263.95 6.75194 267.091 8.08039L266.47 9.56728ZM200.726 5.92318L200.276 4.36317C203.465 3.4491 206.642 2.6569 209.746 2.03533L210.062 3.61972C207.019 4.24129 203.879 5.0213 200.726 5.92318ZM248.199 3.65629C245.059 2.97378 241.882 2.44971 238.729 2.10846L238.899 0.499693C242.101 0.840946 245.351 1.36501 248.54 2.0719L248.199 3.65629ZM219.569 2.15721L219.399 0.548443C222.673 0.195002 225.948 0.0121876 229.149 0V1.62095C226.009 1.62095 222.795 1.80377 219.569 2.15721Z" fill="#C2BEBC"/>
<path d="M317.79 368.322L277.182 356.5L289.355 352.819L317.79 368.322Z" fill="#D6D6D6"/>
<path d="M317.79 368.322L302.623 353.051L293.274 354.952L317.79 368.322Z" fill="#E8E8E8"/>
<path d="M286.531 359.218L286.859 363.922L317.79 368.322L286.531 359.218Z" fill="#C2C2C2"/>
<path d="M113.412 57.9521L149.212 37.9157L136.905 37.0991L113.412 57.9521Z" fill="#D6D6D6"/>
<path d="M113.412 57.9521L124.428 40.2191L133.667 39.9753L113.412 57.9521Z" fill="#E8E8E8"/>
<path d="M140.983 42.5226L141.689 47.0442L113.412 57.9521L140.983 42.5226Z" fill="#C2C2C2"/>
</g>
<defs>
<linearGradient id="paint0_linear_601_834" x1="471.062" y1="274.517" x2="658.998" y2="274.517" gradientUnits="userSpaceOnUse">
<stop stop-color="#96CBFF"/>
<stop offset="1" stop-color="#5599FF"/>
</linearGradient>
<linearGradient id="paint1_linear_601_834" x1="102.015" y1="158.888" x2="241.619" y2="144.563" gradientUnits="userSpaceOnUse">
<stop stop-color="#3D5475"/>
<stop offset="0.2549" stop-color="#364F6F"/>
<stop offset="0.6276" stop-color="#22425F"/>
<stop offset="1" stop-color="#083149"/>
</linearGradient>
<linearGradient id="paint2_linear_601_834" x1="231.173" y1="278.634" x2="605.456" y2="278.634" gradientUnits="userSpaceOnUse">
<stop stop-color="#3D5475"/>
<stop offset="0.2549" stop-color="#364F6F"/>
<stop offset="0.6276" stop-color="#22425F"/>
<stop offset="1" stop-color="#083149"/>
</linearGradient>
<linearGradient id="paint3_linear_601_834" x1="240.895" y1="148.801" x2="250.707" y2="148.801" gradientUnits="userSpaceOnUse">
<stop stop-color="#3D5475"/>
<stop offset="0.2549" stop-color="#364F6F"/>
<stop offset="0.6276" stop-color="#22425F"/>
<stop offset="1" stop-color="#083149"/>
</linearGradient>
<linearGradient id="paint4_linear_601_834" x1="244.106" y1="219.504" x2="267.14" y2="219.504" gradientUnits="userSpaceOnUse">
<stop stop-color="#3D5475"/>
<stop offset="0.2549" stop-color="#364F6F"/>
<stop offset="0.6276" stop-color="#22425F"/>
<stop offset="1" stop-color="#083149"/>
</linearGradient>
<linearGradient id="paint5_linear_601_834" x1="211.808" y1="59.9025" x2="277.54" y2="59.9025" gradientUnits="userSpaceOnUse">
<stop stop-color="#3D5475"/>
<stop offset="0.2549" stop-color="#364F6F"/>
<stop offset="0.6276" stop-color="#22425F"/>
<stop offset="1" stop-color="#083149"/>
</linearGradient>
<linearGradient id="paint6_linear_601_834" x1="270.145" y1="257.541" x2="418.636" y2="257.541" gradientUnits="userSpaceOnUse">
<stop stop-color="#3D5475"/>
<stop offset="0.2549" stop-color="#364F6F"/>
<stop offset="0.6276" stop-color="#22425F"/>
<stop offset="1" stop-color="#083149"/>
</linearGradient>
<linearGradient id="paint7_linear_601_834" x1="276.941" y1="252.497" x2="426.631" y2="252.497" gradientUnits="userSpaceOnUse">
<stop stop-color="#3D5475"/>
<stop offset="0.2549" stop-color="#364F6F"/>
<stop offset="0.6276" stop-color="#22425F"/>
<stop offset="1" stop-color="#083149"/>
</linearGradient>
<linearGradient id="paint8_linear_601_834" x1="259.162" y1="301.952" x2="282.212" y2="301.952" gradientUnits="userSpaceOnUse">
<stop stop-color="#3D5475"/>
<stop offset="0.2549" stop-color="#364F6F"/>
<stop offset="0.6276" stop-color="#22425F"/>
<stop offset="1" stop-color="#083149"/>
</linearGradient>
<linearGradient id="paint9_linear_601_834" x1="336.466" y1="257.541" x2="352.315" y2="257.541" gradientUnits="userSpaceOnUse">
<stop stop-color="#96CBFF"/>
<stop offset="1" stop-color="#5599FF"/>
</linearGradient>
<linearGradient id="paint10_linear_601_834" x1="594.66" y1="220.327" x2="605.433" y2="220.327" gradientUnits="userSpaceOnUse">
<stop stop-color="#3D5475"/>
<stop offset="0.2549" stop-color="#364F6F"/>
<stop offset="0.6276" stop-color="#22425F"/>
<stop offset="1" stop-color="#083149"/>
</linearGradient>
<linearGradient id="paint11_linear_601_834" x1="594.861" y1="221.568" x2="596.148" y2="221.568" gradientUnits="userSpaceOnUse">
<stop stop-color="#3D5475"/>
<stop offset="0.2549" stop-color="#364F6F"/>
<stop offset="0.6276" stop-color="#22425F"/>
<stop offset="1" stop-color="#083149"/>
</linearGradient>
<linearGradient id="paint12_linear_601_834" x1="563.079" y1="220.337" x2="573.865" y2="220.337" gradientUnits="userSpaceOnUse">
<stop stop-color="#3D5475"/>
<stop offset="0.2549" stop-color="#364F6F"/>
<stop offset="0.6276" stop-color="#22425F"/>
<stop offset="1" stop-color="#083149"/>
</linearGradient>
<linearGradient id="paint13_linear_601_834" x1="563.293" y1="221.568" x2="564.58" y2="221.568" gradientUnits="userSpaceOnUse">
<stop stop-color="#3D5475"/>
<stop offset="0.2549" stop-color="#364F6F"/>
<stop offset="0.6276" stop-color="#22425F"/>
<stop offset="1" stop-color="#083149"/>
</linearGradient>
<linearGradient id="paint14_linear_601_834" x1="556.675" y1="114.966" x2="577.679" y2="114.966" gradientUnits="userSpaceOnUse">
<stop stop-color="#3D5475"/>
<stop offset="0.2549" stop-color="#364F6F"/>
<stop offset="0.6276" stop-color="#22425F"/>
<stop offset="1" stop-color="#083149"/>
</linearGradient>
<linearGradient id="paint15_linear_601_834" x1="557.667" y1="108.664" x2="572.466" y2="108.664" gradientUnits="userSpaceOnUse">
<stop stop-color="#3D5475"/>
<stop offset="0.2549" stop-color="#364F6F"/>
<stop offset="0.6276" stop-color="#22425F"/>
<stop offset="1" stop-color="#083149"/>
</linearGradient>
<linearGradient id="paint16_linear_601_834" x1="548.695" y1="171.162" x2="593.829" y2="171.162" gradientUnits="userSpaceOnUse">
<stop stop-color="#3D5475"/>
<stop offset="0.2549" stop-color="#364F6F"/>
<stop offset="0.6276" stop-color="#22425F"/>
<stop offset="1" stop-color="#083149"/>
</linearGradient>
<linearGradient id="paint17_linear_601_834" x1="565.69" y1="121.528" x2="576.026" y2="121.528" gradientUnits="userSpaceOnUse">
<stop stop-color="#3D5475"/>
<stop offset="0.2549" stop-color="#364F6F"/>
<stop offset="0.6276" stop-color="#22425F"/>
<stop offset="1" stop-color="#083149"/>
</linearGradient>
<linearGradient id="paint18_linear_601_834" x1="535.908" y1="107.932" x2="549.209" y2="107.932" gradientUnits="userSpaceOnUse">
<stop stop-color="#96CBFF"/>
<stop offset="1" stop-color="#5599FF"/>
</linearGradient>
<linearGradient id="paint19_linear_601_834" x1="324.826" y1="400.553" x2="344.525" y2="400.553" gradientUnits="userSpaceOnUse">
<stop stop-color="#3D5475"/>
<stop offset="0.2549" stop-color="#364F6F"/>
<stop offset="0.6276" stop-color="#22425F"/>
<stop offset="1" stop-color="#083149"/>
</linearGradient>
<linearGradient id="paint20_linear_601_834" x1="335.372" y1="399.346" x2="356.604" y2="399.346" gradientUnits="userSpaceOnUse">
<stop stop-color="#3D5475"/>
<stop offset="0.2549" stop-color="#364F6F"/>
<stop offset="0.6276" stop-color="#22425F"/>
<stop offset="1" stop-color="#083149"/>
</linearGradient>
<linearGradient id="paint21_linear_601_834" x1="136.441" y1="253.784" x2="140.265" y2="253.784" gradientUnits="userSpaceOnUse">
<stop stop-color="#3D5475"/>
<stop offset="0.2549" stop-color="#364F6F"/>
<stop offset="0.6276" stop-color="#22425F"/>
<stop offset="1" stop-color="#083149"/>
</linearGradient>
<linearGradient id="paint22_linear_601_834" x1="128.888" y1="255.416" x2="132.711" y2="255.416" gradientUnits="userSpaceOnUse">
<stop stop-color="#3D5475"/>
<stop offset="0.2549" stop-color="#364F6F"/>
<stop offset="0.6276" stop-color="#22425F"/>
<stop offset="1" stop-color="#083149"/>
</linearGradient>
<linearGradient id="paint23_linear_601_834" x1="120.681" y1="257.539" x2="124.504" y2="257.539" gradientUnits="userSpaceOnUse">
<stop stop-color="#3D5475"/>
<stop offset="0.2549" stop-color="#364F6F"/>
<stop offset="0.6276" stop-color="#22425F"/>
<stop offset="1" stop-color="#083149"/>
</linearGradient>
<linearGradient id="paint24_linear_601_834" x1="112.253" y1="260.217" x2="116.076" y2="260.217" gradientUnits="userSpaceOnUse">
<stop stop-color="#3D5475"/>
<stop offset="0.2549" stop-color="#364F6F"/>
<stop offset="0.6276" stop-color="#22425F"/>
<stop offset="1" stop-color="#083149"/>
</linearGradient>
<linearGradient id="paint25_linear_601_834" x1="109.472" y1="224.304" x2="114.165" y2="224.304" gradientUnits="userSpaceOnUse">
<stop stop-color="#3D5475"/>
<stop offset="0.2549" stop-color="#364F6F"/>
<stop offset="0.6276" stop-color="#22425F"/>
<stop offset="1" stop-color="#083149"/>
</linearGradient>
<linearGradient id="paint26_linear_601_834" x1="115.166" y1="202.169" x2="119.858" y2="202.169" gradientUnits="userSpaceOnUse">
<stop stop-color="#3D5475"/>
<stop offset="0.2549" stop-color="#364F6F"/>
<stop offset="0.6276" stop-color="#22425F"/>
<stop offset="1" stop-color="#083149"/>
</linearGradient>
<linearGradient id="paint27_linear_601_834" x1="127.045" y1="196.686" x2="131.737" y2="196.686" gradientUnits="userSpaceOnUse">
<stop stop-color="#3D5475"/>
<stop offset="0.2549" stop-color="#364F6F"/>
<stop offset="0.6276" stop-color="#22425F"/>
<stop offset="1" stop-color="#083149"/>
</linearGradient>
<linearGradient id="paint28_linear_601_834" x1="93.898" y1="228.652" x2="98.5916" y2="228.652" gradientUnits="userSpaceOnUse">
<stop stop-color="#3D5475"/>
<stop offset="0.2549" stop-color="#364F6F"/>
<stop offset="0.6276" stop-color="#22425F"/>
<stop offset="1" stop-color="#083149"/>
</linearGradient>
<linearGradient id="paint29_linear_601_834" x1="48.7096" y1="269.711" x2="60.9093" y2="269.711" gradientUnits="userSpaceOnUse">
<stop stop-color="#3D5475"/>
<stop offset="0.2549" stop-color="#364F6F"/>
<stop offset="0.6276" stop-color="#22425F"/>
<stop offset="1" stop-color="#083149"/>
</linearGradient>
<linearGradient id="paint30_linear_601_834" x1="57.0639" y1="269.759" x2="72.0467" y2="269.759" gradientUnits="userSpaceOnUse">
<stop stop-color="#3D5475"/>
<stop offset="0.2549" stop-color="#364F6F"/>
<stop offset="0.6276" stop-color="#22425F"/>
<stop offset="1" stop-color="#083149"/>
</linearGradient>
<linearGradient id="paint31_linear_601_834" x1="53.5952" y1="209.324" x2="65.8541" y2="209.324" gradientUnits="userSpaceOnUse">
<stop stop-color="#3D5475"/>
<stop offset="0.2549" stop-color="#364F6F"/>
<stop offset="0.6276" stop-color="#22425F"/>
<stop offset="1" stop-color="#083149"/>
</linearGradient>
<linearGradient id="paint32_linear_601_834" x1="39.146" y1="253.677" x2="56.5311" y2="253.677" gradientUnits="userSpaceOnUse">
<stop stop-color="#3D5475"/>
<stop offset="0.2549" stop-color="#364F6F"/>
<stop offset="0.6276" stop-color="#22425F"/>
<stop offset="1" stop-color="#083149"/>
</linearGradient>
<linearGradient id="paint33_linear_601_834" x1="181.269" y1="270.174" x2="196.979" y2="270.174" gradientUnits="userSpaceOnUse">
<stop stop-color="#3D5475"/>
<stop offset="0.2549" stop-color="#364F6F"/>
<stop offset="0.6276" stop-color="#22425F"/>
<stop offset="1" stop-color="#083149"/>
</linearGradient>
<linearGradient id="paint34_linear_601_834" x1="166.459" y1="269.853" x2="190.987" y2="269.853" gradientUnits="userSpaceOnUse">
<stop stop-color="#3D5475"/>
<stop offset="0.2549" stop-color="#364F6F"/>
<stop offset="0.6276" stop-color="#22425F"/>
<stop offset="1" stop-color="#083149"/>
</linearGradient>
<linearGradient id="paint35_linear_601_834" x1="176.121" y1="200.854" x2="187.101" y2="200.854" gradientUnits="userSpaceOnUse">
<stop stop-color="#3D5475"/>
<stop offset="0.2549" stop-color="#364F6F"/>
<stop offset="0.6276" stop-color="#22425F"/>
<stop offset="1" stop-color="#083149"/>
</linearGradient>
<linearGradient id="paint36_linear_601_834" x1="150.396" y1="247.956" x2="175.346" y2="247.956" gradientUnits="userSpaceOnUse">
<stop stop-color="#3D5475"/>
<stop offset="0.2549" stop-color="#364F6F"/>
<stop offset="0.6276" stop-color="#22425F"/>
<stop offset="1" stop-color="#083149"/>
</linearGradient>
<linearGradient id="paint37_linear_601_834" x1="418.902" y1="269.988" x2="510.225" y2="269.988" gradientUnits="userSpaceOnUse">
<stop stop-color="#3D5475"/>
<stop offset="0.2549" stop-color="#364F6F"/>
<stop offset="0.6276" stop-color="#22425F"/>
<stop offset="1" stop-color="#083149"/>
</linearGradient>
<linearGradient id="paint38_linear_601_834" x1="450.077" y1="235.814" x2="507.494" y2="235.814" gradientUnits="userSpaceOnUse">
<stop stop-color="#3D5475"/>
<stop offset="0.2549" stop-color="#364F6F"/>
<stop offset="0.6276" stop-color="#22425F"/>
<stop offset="1" stop-color="#083149"/>
</linearGradient>
<linearGradient id="paint39_linear_601_834" x1="386.433" y1="389.353" x2="519.341" y2="389.353" gradientUnits="userSpaceOnUse">
<stop stop-color="#3D5475"/>
<stop offset="0.2549" stop-color="#364F6F"/>
<stop offset="0.6276" stop-color="#22425F"/>
<stop offset="1" stop-color="#083149"/>
</linearGradient>
<linearGradient id="paint40_linear_601_834" x1="444.963" y1="389.509" x2="460.812" y2="389.509" gradientUnits="userSpaceOnUse">
<stop stop-color="#96CBFF"/>
<stop offset="1" stop-color="#5599FF"/>
</linearGradient>
<linearGradient id="paint41_linear_601_834" x1="507.664" y1="428.642" x2="530.713" y2="428.642" gradientUnits="userSpaceOnUse">
<stop stop-color="#3D5475"/>
<stop offset="0.2549" stop-color="#364F6F"/>
<stop offset="0.6276" stop-color="#22425F"/>
<stop offset="1" stop-color="#083149"/>
</linearGradient>
<clipPath id="clip0_601_834">
<rect width="659" height="436" fill="white"/>
</clipPath>
</defs>
</svg>
