<svg width="110" height="113" viewBox="0 0 110 113" fill="none" xmlns="http://www.w3.org/2000/svg">
<path d="M109.361 25.4833C109.401 25.6335 109.423 25.7883 109.423 25.9439V50.1229C109.423 50.7545 109.085 51.338 108.537 51.6522L88.2427 63.3363V86.4949C88.2427 87.1252 87.9078 87.707 87.3613 88.0243L44.9995 112.41C44.9026 112.466 44.7968 112.501 44.691 112.538C44.6514 112.551 44.6139 112.576 44.572 112.587C44.2759 112.665 43.9646 112.665 43.6685 112.587C43.62 112.574 43.576 112.547 43.5297 112.529C43.4327 112.494 43.3313 112.463 43.2388 112.41L0.885887 88.0243C0.338257 87.7097 0 87.1265 0 86.4949V13.9579C0 13.7993 0.022037 13.645 0.0617036 13.4952C0.0749258 13.4445 0.105778 13.3982 0.123407 13.3475C0.156463 13.255 0.187314 13.1602 0.235796 13.0743C0.268851 13.017 0.317333 12.9707 0.356999 12.9178C0.407684 12.8473 0.453962 12.7746 0.513462 12.7129C0.564147 12.6622 0.630258 12.6247 0.687554 12.5806C0.751462 12.5277 0.808758 12.4705 0.88148 12.4286H0.883684L22.0612 0.235512C22.6069 -0.078504 23.2785 -0.078504 23.8242 0.235512L45.0018 12.4286H45.0062C45.0767 12.4727 45.1362 12.5277 45.2001 12.5784C45.2574 12.6225 45.3213 12.6622 45.372 12.7107C45.4337 12.7746 45.4777 12.8473 45.5306 12.9178C45.5681 12.9707 45.6188 13.017 45.6496 13.0743C45.7003 13.1624 45.729 13.255 45.7642 13.3475C45.7819 13.3982 45.8127 13.4445 45.8259 13.4974C45.8665 13.6476 45.8872 13.8024 45.8876 13.9579V59.2638L63.5349 49.1026V25.9417C63.5349 25.7874 63.5569 25.6309 63.5966 25.4833C63.612 25.4304 63.6406 25.3841 63.6583 25.3334C63.6935 25.2409 63.7244 25.1461 63.7729 25.0602C63.8059 25.0029 63.8544 24.9566 63.8919 24.9037C63.9447 24.8332 63.9888 24.7605 64.0505 24.6988C64.1012 24.6481 64.1651 24.6106 64.2224 24.5666C64.2885 24.5137 64.3458 24.4564 64.4163 24.4145H64.4185L85.5983 12.2214C86.1439 11.907 86.8157 11.907 87.3613 12.2214L108.539 24.4145C108.614 24.4586 108.671 24.5137 108.737 24.5644C108.792 24.6084 108.856 24.6481 108.907 24.6966C108.969 24.7605 109.013 24.8332 109.065 24.9037C109.105 24.9566 109.154 25.0029 109.185 25.0602C109.235 25.1461 109.264 25.2409 109.299 25.3334C109.319 25.3841 109.348 25.4304 109.361 25.4833ZM105.892 49.1026V28.996L98.4811 33.2624L88.2427 39.1573V59.2638L105.894 49.1026H105.892ZM84.7146 85.4746V65.3548L74.6437 71.1065L45.8854 87.5196V107.829L84.7146 85.4746ZM3.53033 17.0101V85.4746L42.3551 107.827V87.5219L22.0723 76.0428L22.0656 76.0384L22.0568 76.034C21.9885 75.9943 21.9312 75.937 21.8673 75.8885C21.8122 75.8444 21.7483 75.8092 21.6998 75.7607L21.6954 75.7541C21.6381 75.699 21.5985 75.6307 21.55 75.569C21.5059 75.5095 21.453 75.4588 21.4178 75.3971L21.4156 75.3905C21.3759 75.3244 21.3516 75.245 21.323 75.1701C21.2943 75.104 21.2569 75.0423 21.2393 74.9718V74.9696C21.2172 74.8858 21.2128 74.7977 21.204 74.7117C21.1952 74.6456 21.1776 74.5795 21.1776 74.5134V74.509V27.1713L10.9414 21.2742L3.53033 17.0123V17.0101ZM22.9449 3.8011L5.2999 13.9579L22.9405 24.1148L40.5833 13.9557L22.9405 3.8011H22.9449ZM32.1211 67.1883L42.3573 61.2956V17.0101L34.9463 21.2764L24.7079 27.1713V71.4569L32.1211 67.1883ZM86.4798 15.787L68.837 25.9439L86.4798 36.1007L104.12 25.9417L86.4798 15.787ZM84.7146 39.1573L74.4762 33.2624L67.0652 28.996V49.1026L77.3014 54.9952L84.7146 59.2638V39.1573ZM44.1181 84.4675L69.9961 69.6939L82.9318 62.3115L65.3022 52.1613L45.004 63.8475L26.5039 74.498L44.1181 84.4675Z" fill="#FF2D20"/>
</svg>
