<svg width="100" height="67" viewBox="0 0 100 67" fill="none" xmlns="http://www.w3.org/2000/svg">
<path d="M24.174 61.184H20.2942C20.157 54.9168 19.7791 49.0248 19.1614 43.5037H19.1269L13.2198 61.184H10.2659L4.39411 43.5037H4.36038C3.92479 48.8045 3.65039 54.6979 3.53643 61.184H0C0.227915 53.2967 0.800702 45.9022 1.71611 39H6.52482L12.1215 55.3006H12.156L17.7871 39H22.3882C23.3958 47.0847 23.9911 54.4798 24.174 61.184ZM41 44.8167C39.4203 53.0204 37.3361 58.9813 34.7496 62.7022C32.7343 65.5665 30.5264 67 28.122 67C27.481 67 26.6901 66.8149 25.7529 66.4475V64.4694C26.211 64.5326 26.7485 64.5684 27.3663 64.5684C28.4894 64.5684 29.3921 64.2728 30.0803 63.6802C30.9035 62.9584 31.3151 62.1469 31.3151 61.2493C31.3151 60.6337 30.9942 59.3752 30.354 57.4696L26.0963 44.816H29.9079L32.9637 54.2796C33.6505 56.4285 33.9369 57.9288 33.8222 58.7833C35.4933 54.5121 36.6606 49.8549 37.3256 44.8152H41V44.8167Z" fill="#5D87A1"/>
<path d="M92 61.9172H81.2491V39.336H84.8657V59.1376H92V61.9172ZM78.4349 62.4628L74.2779 60.4142C74.6465 60.1119 74.999 59.7847 75.3164 59.4056C77.0834 57.3329 77.9647 54.2677 77.9647 50.2078C77.9647 42.7371 75.029 39 69.1555 39C66.2755 39 64.0288 39.948 62.422 41.8447C60.6565 43.9188 59.7752 46.9731 59.7752 51.0111C59.7752 54.9805 60.5563 57.8924 62.1192 59.7394C63.549 61.4126 65.7043 62.2503 68.5865 62.2503C69.6616 62.2503 70.6482 62.1188 71.5471 61.8537L76.959 65L78.4349 62.4628ZM64.9685 57.3987C64.0529 55.9278 63.5951 53.5658 63.5951 50.3093C63.5951 44.6236 65.3247 41.7775 68.7877 41.7775C70.5978 41.7775 71.9244 42.4581 72.7728 43.8166C73.687 45.2897 74.147 47.6304 74.147 50.8417C74.147 56.5741 72.4159 59.4407 68.9551 59.4407C67.1443 59.4414 65.8176 58.7629 64.9685 57.3987ZM58.1992 55.6583C58.1992 57.5732 57.4956 59.1442 56.09 60.3748C54.6828 61.6003 52.796 62.2145 50.4315 62.2145C48.2199 62.2145 46.0756 61.509 44 60.1053L44.972 58.1662C46.7579 59.0594 48.3749 59.5035 49.8267 59.5035C51.1892 59.5035 52.254 59.2019 53.0263 58.6037C53.7979 58.0034 54.2579 57.1613 54.2579 56.0965C54.2579 54.7548 53.3211 53.6082 51.6024 52.6478C50.0175 51.7787 46.8479 49.9616 46.8479 49.9616C45.1299 48.7113 44.2699 47.3689 44.2699 45.1575C44.2699 43.3272 44.9113 41.8498 46.1948 40.7258C47.4798 39.5974 49.1377 39.0351 51.1702 39.0351C53.2691 39.0351 55.1772 39.5967 56.8959 40.7083L56.0241 42.648C54.5541 42.0243 53.1031 41.7125 51.6719 41.7125C50.5127 41.7125 49.6175 41.9907 48.9951 42.5494C48.3676 43.106 47.9807 43.818 47.9807 44.6915C47.9807 46.0266 48.9373 47.1878 50.7028 48.1672C52.3089 49.0377 55.5575 50.8862 55.5575 50.8862C57.3194 52.1344 58.1992 53.4643 58.1992 55.6583Z" fill="#F8981D"/>
<path d="M96.7627 30.9374C94.5309 30.881 92.8029 31.1043 91.3526 31.7141C90.9339 31.8803 90.268 31.8803 90.2098 32.4062C90.436 32.6288 90.4621 32.9879 90.6584 33.295C90.9928 33.8492 91.5758 34.5948 92.108 34.9835C92.6925 35.4286 93.2791 35.8693 93.8942 36.2573C94.9788 36.9242 96.2081 37.3122 97.2651 37.9769C97.8809 38.3634 98.493 38.8635 99.1095 39.2796C99.4126 39.5015 99.6066 39.8613 100 40V39.9154C99.8029 39.6662 99.747 39.3056 99.5536 39.0282L98.7161 38.2255C97.907 37.1453 96.9016 36.2024 95.817 35.4279C94.9243 34.8166 92.9716 33.9857 92.6096 32.9634L92.5529 32.907C93.1664 32.8499 93.8942 32.6288 94.4772 32.4589C95.4259 32.2104 96.291 32.2668 97.2643 32.0183C97.7122 31.907 98.1563 31.7675 98.6057 31.6303V31.3802C98.1011 30.881 97.7413 30.2177 97.2106 29.7459C95.7909 28.527 94.2264 27.3349 92.6096 26.337C91.7437 25.7814 90.6301 25.4238 89.7082 24.9512C89.3761 24.7843 88.8162 24.702 88.6207 24.4245C88.1206 23.8147 87.8392 23.012 87.4764 22.2902C86.6703 20.7671 85.8872 19.0771 85.1916 17.4665C84.6885 16.3864 84.3824 15.3077 83.7689 14.3084C80.8951 9.59755 77.7743 6.74433 72.9777 3.94378C71.9469 3.36068 70.7205 3.11215 69.4106 2.8065L67.3183 2.69671C66.8719 2.50234 66.4248 1.97487 66.0352 1.7256C64.4438 0.728532 60.3467 -1.43253 59.1763 1.42069C58.4224 3.22417 60.2914 4.99724 60.9334 5.91196C61.4073 6.547 62.0216 7.26957 62.3531 7.99067C62.5494 8.46175 62.6046 8.96177 62.8009 9.45956C63.2473 10.6792 63.6645 12.0361 64.2512 13.1741C64.5573 13.7542 64.8909 14.364 65.2821 14.8893C65.506 15.1964 65.8956 15.3322 65.9807 15.8329C65.5918 16.3849 65.5612 17.218 65.338 17.9109C64.3348 21.0423 64.7267 24.9216 66.1487 27.2228C66.5935 27.9157 67.655 29.441 69.0747 28.8564C70.3317 28.3579 70.0532 26.7784 70.4145 25.3934C70.4974 25.0588 70.4429 24.8392 70.6101 24.6196V24.6738C70.999 25.449 71.3916 26.1961 71.7521 26.9736C72.6172 28.3304 74.1235 29.7444 75.3783 30.6844C76.0463 31.1859 76.5755 32.0435 77.4123 32.3499V32.2668H77.3571C77.1876 32.0183 76.9398 31.907 76.7174 31.7141C76.2143 31.2148 75.6574 30.605 75.267 30.0516C74.0981 28.4988 73.0636 26.7799 72.1455 25.0061C71.6961 24.1456 71.3087 23.2049 70.9467 22.3458C70.778 22.0142 70.778 21.5142 70.4981 21.3472C70.0786 21.9563 69.4673 22.4838 69.1613 23.2301C68.6305 24.4238 68.5753 25.8919 68.3782 27.4187L68.2685 27.4721C67.3803 27.2503 67.0712 26.337 66.7339 25.5618C65.8986 23.5929 65.7583 20.4325 66.4831 18.1609C66.6771 17.58 67.5169 15.7506 67.1817 15.1972C67.0138 14.6667 66.4554 14.3648 66.1494 13.9471C65.7896 13.4219 65.3955 12.7572 65.1447 12.1741C64.4759 10.6228 64.1393 8.90391 63.419 7.35341C63.0823 6.63083 62.4979 5.88302 62.0246 5.21757C61.4932 4.46977 60.9087 3.94304 60.4885 3.05651C60.3496 2.75161 60.1548 2.25307 60.378 1.92145C60.4325 1.69889 60.546 1.61581 60.7684 1.56017C61.1297 1.25674 62.162 1.64251 62.524 1.80943C63.5578 2.22488 64.4222 2.61287 65.285 3.1945C65.6754 3.4727 66.0942 3.99942 66.595 4.13815H67.1817C68.0722 4.33104 69.0762 4.19157 69.9144 4.44232C71.3916 4.91415 72.7299 5.60631 73.9302 6.35337C77.5825 8.65538 80.5943 11.9263 82.6276 15.8329C82.9612 16.4695 83.1031 17.0526 83.4076 17.7165C83.995 19.0756 84.7213 20.4614 85.3043 21.7916C85.8902 23.0936 86.4486 24.423 87.2853 25.5047C87.7026 26.0863 89.379 26.3912 90.1307 26.6961C90.6868 26.9446 91.5527 27.1657 92.0543 27.4706C93.003 28.0515 93.948 28.7184 94.8399 29.3572C95.2841 29.6895 96.6799 30.3824 96.7627 30.9374ZM68.3193 6.85339C67.9343 6.84941 67.5505 6.89631 67.178 6.99286V7.0485H67.2317C67.4564 7.49139 67.8468 7.79852 68.1252 8.18504C68.3499 8.62942 68.5447 9.07008 68.7649 9.51372L68.8186 9.45882C69.212 9.18211 69.4076 8.73847 69.4076 8.07301C69.2381 7.87716 69.212 7.68576 69.0709 7.49139C68.9067 7.21393 68.5447 7.07595 68.3193 6.85339Z" fill="#5D87A1"/>
</svg>
