<svg width="73" height="40" viewBox="0 0 73 40" fill="none" xmlns="http://www.w3.org/2000/svg">
<path d="M36.5 39.2421C56.6584 39.2421 73 30.6452 73 20.0405C73 9.43572 56.6584 0.838867 36.5 0.838867C16.3416 0.838867 0 9.43572 0 20.0405C0 30.6452 16.3416 39.2421 36.5 39.2421Z" fill="url(#paint0_radial_601_7837)"/>
<path d="M36.4999 37.8159C55.8707 37.8159 71.5738 29.8575 71.5738 20.0404C71.5738 10.2233 55.8707 2.26489 36.4999 2.26489C17.1291 2.26489 1.42603 10.2233 1.42603 20.0404C1.42603 29.8575 17.1291 37.8159 36.4999 37.8159Z" fill="#6280B6"/>
<path d="M43.6043 25.7762L45.3433 16.8233C45.591 16.0571 45.6318 15.239 45.4615 14.4519C45.2911 13.6649 44.9158 12.9368 44.3734 12.3416C42.8595 11.2666 41.0058 10.78 39.1591 10.9729H36.1531L37.016 6.54071C37.0318 6.45818 37.0291 6.37321 37.0082 6.29183C36.9873 6.21046 36.9487 6.13471 36.8952 6.06996C36.8417 6.00522 36.7745 5.95309 36.6985 5.91729C36.6225 5.88149 36.5395 5.8629 36.4555 5.86285H32.2841C32.1516 5.86281 32.0233 5.90883 31.921 5.99301C31.8188 6.0772 31.7489 6.19432 31.7235 6.32432L29.8751 15.83C29.7328 14.8136 29.3011 13.8597 28.6315 13.082C27.8859 12.3354 26.9865 11.7603 25.9959 11.3969C25.0052 11.0336 23.9473 10.8906 22.8958 10.9781H14.8605C14.7281 10.978 14.5997 11.024 14.4975 11.1082C14.3952 11.1924 14.3254 11.3095 14.3 11.4395L10.5614 30.6802C10.5456 30.7628 10.5483 30.8477 10.5692 30.9291C10.5901 31.0105 10.6287 31.0862 10.6822 31.151C10.7358 31.2157 10.8029 31.2679 10.8789 31.3037C10.9549 31.3395 11.0379 31.3581 11.1219 31.3581H15.3012C15.4336 31.3581 15.562 31.3121 15.6642 31.2279C15.7665 31.1438 15.8363 31.0266 15.8617 30.8966L16.7664 26.2429H19.8949C21.2763 26.2798 22.6551 26.1039 23.9829 25.7215C25.1025 25.351 26.1264 24.7376 26.9812 23.9251C27.6816 23.2871 28.2796 22.5449 28.754 21.7247L28.0058 25.5702C27.99 25.6528 27.9927 25.7377 28.0136 25.8191C28.0345 25.9005 28.0731 25.9763 28.1266 26.041C28.1802 26.1057 28.2473 26.1579 28.3233 26.1937C28.3993 26.2295 28.4823 26.2481 28.5663 26.2481H32.7377C32.8702 26.2481 32.9985 26.2021 33.1008 26.1179C33.203 26.0338 33.2729 25.9166 33.2983 25.7866L35.3501 15.2251H38.2023C39.4172 15.2251 39.7666 15.4676 39.8709 15.5719C39.9751 15.6761 40.1316 16.002 39.936 17.0553L38.2805 25.5676C38.2648 25.6502 38.2675 25.7351 38.2883 25.8165C38.3092 25.8979 38.3478 25.9736 38.4014 26.0384C38.4549 26.1031 38.5221 26.1553 38.5981 26.1911C38.6741 26.2269 38.757 26.2454 38.841 26.2455H43.0646C43.1946 26.2404 43.3189 26.1912 43.417 26.1058C43.5152 26.0205 43.5812 25.9042 43.6043 25.7762ZM24.3245 18.3876C24.197 19.4821 23.6774 20.4935 22.8619 21.2346C21.8375 21.8718 20.6363 22.165 19.4335 22.0715H17.5772L18.9199 15.1599H21.321C23.0861 15.1599 23.7952 15.538 24.082 15.8534C24.3008 16.2341 24.4356 16.6572 24.4774 17.0943C24.5192 17.5313 24.4671 17.9723 24.3245 18.3876Z" fill="white"/>
<path d="M61.3876 13.0846C60.642 12.338 59.7426 11.7629 58.752 11.3995C57.7614 11.0361 56.7034 10.8932 55.6519 10.9807H47.5932C47.4608 10.9806 47.3324 11.0266 47.2301 11.1108C47.1279 11.195 47.0581 11.3121 47.0327 11.4421L43.294 30.6828C43.2783 30.7654 43.281 30.8503 43.3019 30.9317C43.3228 31.0131 43.3614 31.0888 43.4149 31.1536C43.4684 31.2183 43.5356 31.2705 43.6116 31.3063C43.6876 31.3421 43.7706 31.3606 43.8546 31.3607H48.0469C48.1793 31.3607 48.3077 31.3147 48.4099 31.2305C48.5122 31.1463 48.582 31.0292 48.6074 30.8992L49.5121 26.2455H52.6406C54.022 26.2824 55.4008 26.1065 56.7286 25.7241C57.8482 25.3536 58.8721 24.7402 59.7269 23.9277C61.1907 22.6085 62.177 20.8421 62.5321 18.9038C62.8126 17.9122 62.8552 16.8684 62.6563 15.8572C62.4574 14.8461 62.0227 13.8961 61.3876 13.0846ZM57.0415 18.3875C56.914 19.4821 56.3944 20.4935 55.5789 21.2345C54.552 21.8725 53.3478 22.1648 52.1427 22.0688H50.2916L51.6343 15.1573H54.0355C55.8005 15.1573 56.5096 15.5353 56.7964 15.8508C57.016 16.2316 57.1515 16.6551 57.1937 17.0926C57.236 17.5302 57.1841 17.9717 57.0415 18.3875Z" fill="white"/>
<path d="M21.3213 14.5863C21.8838 14.5155 22.4548 14.5569 23.0012 14.7082C23.5476 14.8594 24.0586 15.1175 24.5046 15.4675C24.7924 15.9107 24.976 16.4133 25.0415 16.9376C25.1069 17.4618 25.0526 17.9942 24.8827 18.4944C24.7336 19.7263 24.1381 20.8607 23.2089 21.683C22.0882 22.4048 20.7634 22.7433 19.4337 22.6476H16.884L18.4482 14.5942L21.3213 14.5863ZM11.1091 30.7923H15.3014L16.2947 25.6771H19.8848C21.2062 25.7132 22.5253 25.5452 23.7955 25.1792C24.838 24.8349 25.7908 24.2632 26.5851 23.5054C27.96 22.2686 28.886 20.6109 29.2183 18.7917C29.4814 17.887 29.5277 16.9331 29.3533 16.0072C29.1789 15.0814 28.7888 14.2096 28.2146 13.4627C27.5222 12.7778 26.6889 12.2523 25.7725 11.9227C24.8562 11.5931 23.879 11.4673 22.9091 11.5542H14.8608L11.1091 30.7923Z" fill="#000004"/>
<path d="M32.2946 6.4364H36.4661L35.4571 11.5516H39.1619C40.8634 11.3735 42.5729 11.806 43.9851 12.7718C44.4525 13.303 44.772 13.9479 44.9116 14.6416C45.0511 15.3353 45.0058 16.0535 44.7803 16.7242L43.0413 25.6771H38.8203L40.4759 17.1648C40.5912 16.8399 40.6323 16.4933 40.5962 16.1504C40.5601 15.8076 40.4477 15.4771 40.2673 15.1834C39.6636 14.7509 38.9178 14.5644 38.1816 14.6619H34.8575L32.7144 25.6849H28.543L32.2946 6.4364Z" fill="#000004"/>
<path d="M54.0381 14.5863C54.6006 14.5155 55.1716 14.5569 55.718 14.7082C56.2644 14.8594 56.7754 15.1175 57.2214 15.4675C57.5092 15.9107 57.6928 16.4133 57.7583 16.9376C57.8237 17.4618 57.7694 17.9942 57.5995 18.4944C57.4504 19.7263 56.8549 20.8607 55.9257 21.683C54.8028 22.4065 53.475 22.7451 52.1427 22.6476H49.5929L51.1572 14.5942L54.0381 14.5863ZM43.8259 30.7923H48.0182L49.0115 25.6771H52.6016C53.923 25.7132 55.2421 25.5452 56.5123 25.1792C57.5548 24.8349 58.5076 24.2632 59.3019 23.5054C60.6768 22.2686 61.6028 20.6109 61.9351 18.7917C62.1982 17.887 62.2445 16.9331 62.0701 16.0072C61.8957 15.0814 61.5056 14.2096 60.9314 13.4627C60.239 12.7778 59.4057 12.2523 58.4893 11.9227C57.573 11.5931 56.5958 11.4673 55.6259 11.5542H47.5646L43.8259 30.7923Z" fill="#000004"/>
<defs>
<radialGradient id="paint0_radial_601_7837" cx="0" cy="0" r="1" gradientUnits="userSpaceOnUse" gradientTransform="translate(21.9156 7.59137) scale(47.9297)">
<stop stop-color="white"/>
<stop offset="0.5" stop-color="#4C6B96"/>
<stop offset="1" stop-color="#231F20"/>
</radialGradient>
</defs>
</svg>
