<svg width="69" height="59" viewBox="0 0 69 59" fill="none" xmlns="http://www.w3.org/2000/svg">
<path d="M42.9314 0.00245938C42.9314 0.00245938 58.2513 8.74375 62.2606 22.6304C65.8731 35.1742 62.9801 41.1608 62.9801 41.1608C64.8276 43.17 66.2834 45.5055 67.2728 48.0476C68.2665 49.6809 68.8504 51.5295 68.9749 53.4364C69.0993 55.3432 68.7605 57.2519 67.9874 59C67.9874 59 67.741 53.8841 60.1019 52.824C53.1011 51.8402 50.5556 58.6434 37.1848 58.3138C29.7764 58.1729 22.515 56.2253 16.0337 52.6409C9.55231 49.0565 4.04779 43.9441 0 37.7494C6.53261 41.3059 15.0908 46.8276 25.7485 45.9791C36.4062 45.1305 38.6313 41.8618 38.6313 41.8618C26.6516 32.3998 16.0477 21.3217 7.12401 8.94543C15.5023 15.9429 36.2558 29.8689 35.7729 29.5148C28.1816 22.1111 21.2362 14.0754 15.0119 5.49466C15.0119 5.49466 46.1496 31.0471 48.6557 30.8847C49.6858 28.767 55.0109 17.8048 42.9289 0L42.9314 0.00245938Z" fill="url(#paint0_linear_601_7833)"/>
<defs>
<linearGradient id="paint0_linear_601_7833" x1="35.5831" y1="23.6143" x2="34.2853" y2="59.0298" gradientUnits="userSpaceOnUse">
<stop stop-color="#F88535"/>
<stop offset="1" stop-color="#FD2221"/>
</linearGradient>
</defs>
</svg>
