<svg width="59" height="66" viewBox="0 0 59 66" fill="none" xmlns="http://www.w3.org/2000/svg">
<path d="M5.28516 59.2969L0 0H58.1367L52.8516 59.2969L29.0039 66" fill="#E34F26"/>
<path d="M29.1328 60.8438L48.3398 55.5586L52.8516 4.76953H29.1328" fill="#EF652A"/>
<path d="M29.1328 26.8125H19.4648L18.8203 19.3359H29.1328V12.1172H10.8281L12.7617 34.1602H29.1328V26.8125ZM29.0039 45.7617L20.8828 43.5703L20.3672 37.7695H13.1484L14.0508 49.2422L29.0039 53.3672V45.7617Z" fill="#EBEBEB"/>
<path d="M29.0039 26.8125V34.1602H38.0273L37.125 43.5703L29.0039 45.7617V53.3672L43.957 49.2422L46.0195 26.8125H29.0039ZM29.0039 12.1172V19.3359H46.6641L47.3086 12.1172H29.0039Z" fill="white"/>
</svg>
