<svg width="67" height="91" viewBox="0 0 67 91" fill="none" xmlns="http://www.w3.org/2000/svg">
<path d="M33.0525 17.3011C28.8781 20.237 24.147 23.5647 21.6119 29.07C17.2088 38.675 30.6217 49.152 31.195 49.5933C31.3282 49.6958 31.4878 49.747 31.6467 49.747C31.8156 49.747 31.9846 49.6893 32.1219 49.5743C32.3882 49.3516 32.4637 48.9733 32.3038 48.6652C32.2553 48.5717 27.4407 39.2199 27.6196 32.511C27.683 30.1743 30.9531 27.5235 34.415 24.7171C37.5858 22.1466 41.1801 19.2332 43.283 15.8251C47.8996 8.32321 42.7685 0.946598 42.7161 0.872842C42.5123 0.586642 42.1361 0.483067 41.8144 0.624049C41.4931 0.765914 41.3151 1.11334 41.3885 1.45689C41.3989 1.50576 42.3967 6.38386 39.6201 11.4097C38.4764 13.4865 35.963 15.2541 33.0525 17.3011Z" fill="#DB380E"/>
<path d="M50.6395 20.6092C50.934 20.3874 51.0204 19.9828 50.8424 19.6599C50.664 19.337 50.2758 19.1946 49.9311 19.3255C49.2219 19.5951 32.5657 26.0155 32.5657 33.7731C32.5657 39.1207 34.85 41.9457 36.518 44.0087C37.1722 44.8179 37.737 45.5167 37.9232 46.1132C38.4472 47.8324 37.2057 50.9396 36.6836 51.992C36.5331 52.2944 36.6069 52.6611 36.8629 52.882C37.0012 53.0014 37.174 53.0621 37.3469 53.0621C37.4941 53.0621 37.6419 53.0184 37.7697 52.9294C38.0561 52.7304 44.7689 47.9843 43.565 42.2661C43.1164 40.0926 42.0484 38.5046 41.106 37.1032C39.646 34.932 38.5916 33.3638 40.1913 30.4672C42.0655 27.0885 50.5536 20.6734 50.6395 20.6092Z" fill="#DB380E"/>
<path d="M7.283 53.1847C6.99751 54.0396 7.13231 54.8876 7.67242 55.6379C9.47802 58.1447 15.8738 59.5249 25.6822 59.5249C25.6827 59.5249 25.6831 59.5249 25.6834 59.5249C27.0124 59.5249 28.4156 59.4988 29.8527 59.4472C45.5346 58.886 51.3511 54.0004 51.591 53.7928C51.8525 53.5664 51.9224 53.1895 51.7599 52.8846C51.5972 52.5799 51.2466 52.4267 50.9115 52.519C45.3885 54.0269 35.0756 54.5623 27.9224 54.5623C19.9181 54.5623 15.8418 53.9856 14.8438 53.5599C15.3559 52.8567 18.5143 51.6011 22.4281 50.8313C22.8022 50.7578 23.0593 50.4124 23.0222 50.033C22.9852 49.6536 22.6665 49.3643 22.2852 49.3643C19.991 49.3643 8.48567 49.5485 7.283 53.1847Z" fill="#73A1FB"/>
<path d="M59.758 48.1528C56.5235 48.1528 53.4563 49.774 53.3272 49.8427C53.0281 50.0029 52.8763 50.3459 52.9584 50.6755C53.0408 51.0046 53.3367 51.2359 53.676 51.2363C53.7446 51.2363 60.5755 51.2922 61.1941 55.1951C61.7422 58.5621 54.731 64.0175 51.9831 65.8356C51.6864 66.032 51.5711 66.4114 51.7089 66.7396C51.8263 67.0189 52.0982 67.1936 52.3914 67.1936C52.4426 67.1936 52.4945 67.1883 52.546 67.1774C53.1982 67.0378 68.498 63.6662 66.8804 54.7582C65.8935 49.2989 62.4623 48.1528 59.758 48.1528Z" fill="#73A1FB"/>
<path d="M49.2654 64.7457C49.3186 64.4604 49.1999 64.1701 48.9624 64.0034L45.2938 61.4337C45.1149 61.3085 44.8889 61.2691 44.6789 61.3247C44.6406 61.3344 40.8043 62.343 35.2345 62.9614C33.024 63.2093 30.548 63.3403 28.0739 63.3403C22.5055 63.3403 18.8647 62.686 18.3344 62.206C18.2642 62.0712 18.2864 62.01 18.299 61.976C18.3953 61.7081 18.9116 61.3898 19.2444 61.2638C19.6119 61.1278 19.8101 60.7286 19.6957 60.3539C19.5818 59.9786 19.1952 59.7578 18.8137 59.8494C15.1337 60.7375 13.3342 61.9793 13.4652 63.5404C13.6977 66.3081 20.1085 67.7287 25.5281 68.1042C26.3074 68.1575 27.1503 68.1845 28.0328 68.1845C28.0333 68.1845 28.0336 68.1845 28.0342 68.1845C37.0461 68.1845 48.5993 65.3569 48.7147 65.3281C48.9968 65.2593 49.2119 65.0315 49.2654 64.7457Z" fill="#73A1FB"/>
<path d="M21.6076 70.6856C21.8855 70.5049 22.0087 70.1613 21.9101 69.845C21.8118 69.5286 21.5159 69.3207 21.1834 69.3251C20.6903 69.3382 16.3577 69.5337 16.0544 72.2921C15.9627 73.1165 16.1988 73.8698 16.7565 74.5306C18.3121 76.3741 22.5112 77.4698 29.5916 77.8803C30.4292 77.9305 31.28 77.9558 32.1208 77.9558C41.1223 77.9558 47.1847 75.1374 47.4387 75.0174C47.6848 74.9009 47.8471 74.659 47.8616 74.3873C47.8761 74.1155 47.7404 73.8578 47.5082 73.7157L42.872 70.8855C42.7111 70.7874 42.5186 70.7549 42.335 70.7925C42.3058 70.7987 39.3621 71.4092 34.9196 72.0123C34.079 72.1266 33.0263 72.1847 31.7912 72.1847C27.3535 72.1847 22.4175 71.4596 21.4709 70.9848C21.4571 70.8962 21.4746 70.7837 21.6076 70.6856Z" fill="#73A1FB"/>
<path d="M27.9258 86.4654C48.5445 86.4479 59.6109 82.7811 61.7427 80.4737C62.4974 79.6574 62.5789 78.8846 62.5148 78.3798C62.3564 77.1376 61.2248 76.3771 61.0965 76.2945C60.7871 76.0955 60.3717 76.1475 60.1303 76.426C59.8895 76.7044 59.8838 77.1113 60.1256 77.3896C60.2556 77.5568 60.3308 77.8368 59.9505 78.2174C59.0983 79.0134 50.5026 81.4295 36.1906 82.1554C34.2301 82.2572 32.1738 82.3091 30.0792 82.3095C17.2649 82.3095 7.88687 80.5542 6.65578 79.5315C7.13025 78.8497 10.4475 77.7604 13.9752 77.1443C14.3728 77.0749 14.6413 76.7003 14.5797 76.3016C14.5182 75.903 14.1506 75.6286 13.7488 75.6806C13.6493 75.6942 13.3116 75.7143 12.9206 75.7383C7.09991 76.0937 0.373505 76.8858 0.0225487 79.8849C-0.0840263 80.7987 0.187529 81.6284 0.829979 82.3504C2.40196 84.1167 6.92028 86.465 27.9251 86.465C27.9254 86.4654 27.9254 86.4654 27.9258 86.4654Z" fill="#73A1FB"/>
<path d="M65.7923 81.1241C65.5009 80.9893 65.1564 81.0574 64.939 81.2921C64.9089 81.3247 61.8088 84.5663 52.4881 86.4698C48.9198 87.1848 42.2218 87.5474 32.5801 87.5474C22.9204 87.5474 13.7287 87.1673 13.6371 87.1634C13.2532 87.1447 12.9248 87.4239 12.8726 87.8018C12.8202 88.1794 13.0637 88.5355 13.4344 88.6237C13.53 88.6463 23.1629 90.9031 36.3337 90.9031C42.6507 90.9031 48.7979 90.3901 54.6046 89.3777C65.4317 87.4796 66.1897 82.111 66.2167 81.8834C66.2545 81.5652 66.0833 81.2589 65.7923 81.1241Z" fill="#73A1FB"/>
</svg>
