<svg width="194" height="129" viewBox="0 0 194 129" fill="none" xmlns="http://www.w3.org/2000/svg">
<g clip-path="url(#clip0_601_2444)">
<path d="M171.512 123.285C175.59 120.136 179.202 116.52 181.882 112.088C187.359 103.107 187.941 90.6265 180.95 82.8119C173.144 74.1808 159.744 74.4141 148.209 75.5804C136.674 76.7468 123.508 77.6799 115.002 69.7486C108.011 63.3336 106.613 52.9529 105.914 43.5054C105.214 34.0578 104.632 23.9105 98.6895 16.4457C90.7664 6.41498 74.8036 5.24861 64.0841 12.1302C53.3646 19.0117 47.7718 32.1916 47.6553 45.0217C47.6553 50.5036 47.8883 57.0352 43.4607 60.1844C39.8487 62.6338 34.955 61.4674 31.1099 59.368C27.2649 57.3851 23.6529 54.5859 19.3418 54.0027C13.6325 53.1862 7.92316 56.6853 4.66069 61.5841C1.39823 66.4828 0.233066 72.198 3.33544e-05 78.0298C-0.466033 94.4756 5.82586 110.921 16.5454 123.285H171.512Z" fill="#F3FAFF"/>
<path d="M1.28174 123.052H182.698" stroke="#399EFD" stroke-miterlimit="10"/>
<path d="M139.587 121.185H86.4552C84.4744 121.185 82.9597 122.818 82.9597 124.685H139.703V121.185H139.587Z" fill="url(#paint0_linear_601_2444)"/>
<path d="M156.831 97.2749H120.012C118.964 97.2749 118.031 97.8581 117.682 98.7912L107.545 122.585C107.079 123.518 107.894 124.684 108.943 124.684H146.927C147.976 124.684 148.908 124.101 149.258 123.168L158.929 100.541C159.511 99.0244 158.463 97.2749 156.831 97.2749Z" fill="url(#paint1_linear_601_2444)"/>
<path d="M137.723 111.505C137.14 113.837 134.81 115.587 132.596 115.587C130.266 115.587 128.867 113.721 129.45 111.505C130.033 109.172 132.363 107.422 134.577 107.422C136.79 107.422 138.305 109.288 137.723 111.505Z" fill="#399EFD"/>
<path d="M82.7268 126.551H147.393" stroke="#399EFD" stroke-miterlimit="10"/>
<path d="M110.341 128.417H144.597" stroke="#399EFD" stroke-miterlimit="10"/>
<path d="M171.046 39.5398H86.8047C82.9596 39.5398 79.9302 42.5723 79.9302 46.4213V82.3454C79.9302 86.1944 82.9596 89.227 86.8047 89.227H119.196L125.022 95.0588L130.848 89.227H171.046C174.891 89.227 177.921 86.1944 177.921 82.3454V46.4213C177.921 42.5723 174.891 39.5398 171.046 39.5398Z" stroke="#399EFD" stroke-miterlimit="10"/>
<path d="M98.4439 60.5654C102.121 59.0153 103.846 54.775 102.298 51.0943C100.75 47.4136 96.5135 45.6863 92.8366 47.2363C89.1597 48.7863 87.4342 53.0267 88.9826 56.7074C90.531 60.3881 94.767 62.1154 98.4439 60.5654Z" fill="#CAE7FF"/>
<path d="M110.691 47.3544L111.972 51.32H116.167L112.788 53.7694L114.186 57.735L110.691 55.2857L107.428 57.8517L108.593 53.886L105.214 51.4366L109.409 51.32L110.691 47.3544Z" fill="#FAAF3B"/>
<path d="M123.974 47.3544L125.372 51.32H129.45L126.187 53.7694L127.469 57.735L124.09 55.2857L120.711 57.8517L121.993 53.886L118.497 51.4366L122.692 51.32L123.974 47.3544Z" fill="#FAAF3B"/>
<path d="M137.256 47.3544L138.654 51.32H142.849L139.47 53.7694L140.752 57.735L137.373 55.2857L133.994 57.8517L135.275 53.886L131.896 51.4366L136.091 51.32L137.256 47.3544Z" fill="#FAAF3B"/>
<path d="M150.656 47.3544L151.937 51.32H156.132L152.753 53.7694L154.035 57.735L150.656 55.2857L147.277 57.8517L148.558 53.886L145.179 51.4366L149.374 51.32L150.656 47.3544Z" fill="#E8ECFF"/>
<path d="M163.939 47.3544L165.22 51.32H169.415L166.036 53.7694L167.318 57.735L163.939 55.2857L160.56 57.8517L161.841 53.886L158.462 51.4366L162.657 51.32L163.939 47.3544Z" fill="#E8ECFF"/>
<path d="M94.4948 64.3833H88.0864V66.1328H94.4948V64.3833Z" fill="#399EFD"/>
<path d="M105.564 64.3833H96.0095V66.1328H105.564V64.3833Z" fill="#399EFD"/>
<path d="M101.835 69.3987H88.0864V71.1482H101.835V69.3987Z" fill="#CAE7FF"/>
<path d="M139.47 69.3987H107.428V71.1482H139.47V69.3987Z" fill="#CAE7FF"/>
<path d="M169.764 69.3987H145.063V71.1482H169.764V69.3987Z" fill="#CAE7FF"/>
<path d="M118.73 74.8806H88.0864V76.6302H118.73V74.8806Z" fill="#CAE7FF"/>
<path d="M169.881 74.8806H154.501V76.6302H169.881V74.8806Z" fill="#CAE7FF"/>
<path d="M150.889 74.8806H123.974V76.6302H150.889V74.8806Z" fill="#CAE7FF"/>
<path d="M127.236 80.2458H88.0864V81.9954H127.236V80.2458Z" fill="#CAE7FF"/>
<path d="M188.058 12.2468H133.062C130.615 12.2468 128.518 14.2296 128.518 16.7957V27.7595C128.518 30.2089 130.498 32.3083 133.062 32.3083H188.058C190.504 32.3083 192.602 30.3255 192.602 27.7595V16.7957C192.485 14.2296 190.504 12.2468 188.058 12.2468Z" fill="#F3FAFF" stroke="#399EFD" stroke-miterlimit="10"/>
<path d="M149.724 18.7784L150.539 21.3444H153.219L151.005 22.9774L151.937 25.5434L149.724 24.0271L147.51 25.66L148.325 22.9774L146.112 21.4611H148.791L149.724 18.7784Z" fill="#FAAF3B"/>
<path d="M158.346 18.7784L159.161 21.3444H161.958L159.744 22.9774L160.56 25.5434L158.346 24.0271L156.249 25.66L157.064 22.9774L154.85 21.4611H157.53L158.346 18.7784Z" fill="#FAAF3B"/>
<path d="M167.085 18.7784L167.9 21.3444H170.58L168.483 22.9774L169.298 25.5434L167.085 24.0271L164.871 25.66L165.686 22.9774L163.473 21.4611H166.269L167.085 18.7784Z" fill="#FAAF3B"/>
<path d="M175.707 18.7784L176.639 21.3444H179.319L177.105 22.9774L177.92 25.5434L175.707 24.0271L173.609 25.66L174.425 22.9774L172.211 21.4611H174.891L175.707 18.7784Z" fill="#FAAF3B"/>
<path d="M184.446 18.7784L185.261 21.3444H187.941L185.844 22.9774L186.659 25.5434L184.446 24.0271L182.232 25.66L183.047 22.9774L180.833 21.4611H183.63L184.446 18.7784Z" fill="#D3E7F4"/>
<path d="M142.368 21.9859C142.717 19.8238 141.249 17.7878 139.089 17.4385C136.929 17.0892 134.895 18.5587 134.546 20.7209C134.197 22.883 135.665 24.9189 137.825 25.2683C139.985 25.6176 142.019 24.148 142.368 21.9859Z" fill="#CAE7FF"/>
<path d="M137.14 26.1266H133.644V27.0597H137.14V26.1266Z" fill="#CAE7FF"/>
<path d="M143.432 26.1266H138.072V27.0597H143.432V26.1266Z" fill="#CAE7FF"/>
<path d="M46.6065 30.5587H8.85517C7.10743 30.5587 5.70923 31.9584 5.70923 33.7079V41.2893C5.82575 42.9222 7.22394 44.3218 8.85517 44.3218H46.6065C48.3543 44.3218 49.7525 42.9222 49.7525 41.1726V33.5913C49.7525 31.9584 48.3543 30.5587 46.6065 30.5587Z" stroke="#399EFD" stroke-miterlimit="10"/>
<path d="M20.2738 35.1075L20.8563 36.8571H22.7206L21.3224 37.9068L21.905 39.6564L20.3903 38.6066L18.8756 39.773L19.3416 37.9068L17.8269 36.8571H19.6912L20.2738 35.1075Z" fill="#FAAF3B"/>
<path d="M26.2161 35.1075L26.9152 36.8571H28.7794L27.2647 37.9068L27.8473 39.6564L26.3326 38.6066L24.8179 39.773L25.4005 37.9068L23.8857 36.8571H25.75L26.2161 35.1075Z" fill="#FAAF3B"/>
<path d="M32.275 35.1075L32.8576 36.8571H34.7218L33.2071 37.9068L33.7897 39.6564L32.275 38.6066L30.7603 39.773L31.3428 37.9068L29.8281 36.8571H31.6924L32.275 35.1075Z" fill="#FAAF3B"/>
<path d="M38.2174 35.1075L38.7999 36.8571H40.6642L39.1495 37.9068L39.7321 39.6564L38.2174 38.6066L36.7026 39.773L37.2852 37.9068L35.7705 36.8571H37.6348L38.2174 35.1075Z" fill="#FAAF3B"/>
<path d="M44.1597 35.1075L44.7423 36.8571H46.6066L45.0919 37.9068L45.6745 39.6564L44.1597 38.6066L42.645 39.773L43.2276 37.9068L41.7129 36.8571H43.5772L44.1597 35.1075Z" fill="#E8ECFF"/>
<path d="M15.3177 37.2542C15.5681 35.7286 14.5356 34.2887 13.0115 34.0381C11.4875 33.7875 10.0491 34.8211 9.79875 36.3467C9.54841 37.8723 10.5809 39.3122 12.1049 39.5628C13.629 39.8134 15.0674 38.7798 15.3177 37.2542Z" fill="#DAE0FF"/>
<path d="M11.7681 40.1229H9.32129V40.8227H11.7681V40.1229Z" fill="#BBABF8"/>
<path d="M15.9628 40.1229H12.3508V40.8227H15.9628V40.1229Z" fill="#BBABF8"/>
<path d="M174.309 112.204C178.942 112.204 182.698 108.445 182.698 103.807C182.698 99.1685 178.942 95.4087 174.309 95.4087C169.676 95.4087 165.92 99.1685 165.92 103.807C165.92 108.445 169.676 112.204 174.309 112.204Z" fill="#FF7AA9"/>
<path d="M176.756 100.657C175.358 100.657 174.192 101.824 174.192 103.223C174.192 101.824 173.027 100.657 171.629 100.657C170.231 100.657 169.066 101.824 169.066 103.223C169.066 106.373 174.076 109.055 174.076 109.055C174.076 109.055 179.086 106.373 179.086 103.223C179.319 101.707 178.154 100.657 176.756 100.657Z" fill="white"/>
<path d="M25.4818 71.2938C26.2301 66.7166 23.1299 62.3988 18.5574 61.6498C13.9848 60.9007 9.67148 64.0041 8.92321 68.5813C8.17495 73.1586 11.2751 77.4764 15.8477 78.2254C20.4202 78.9744 24.7335 75.8711 25.4818 71.2938Z" fill="#FF7AA9"/>
<path d="M19.6913 66.8326C18.2931 66.8326 17.1279 67.999 17.1279 69.3986C17.1279 67.999 15.9628 66.8326 14.5646 66.8326C13.1664 66.8326 12.0012 67.999 12.0012 69.3986C12.0012 72.5478 17.0114 75.2305 17.0114 75.2305C17.0114 75.2305 22.0216 72.5478 22.0216 69.3986C22.2547 67.999 21.0895 66.8326 19.6913 66.8326Z" fill="white"/>
<path d="M62.9191 10.9639L65.0164 17.2622H71.5413L66.2981 21.1112L68.2789 27.4096L62.9191 23.5606L57.6759 27.4096L59.6566 21.1112L54.2969 17.2622H60.9383L62.9191 10.9639Z" stroke="#399EFD" stroke-miterlimit="10"/>
<path d="M73.056 26.01L74.5707 30.7921H79.5809L75.5028 33.708L77.0176 38.6068L73.056 35.5742L68.9779 38.6068L70.4926 33.708L66.4146 30.7921H71.4248L73.056 26.01Z" stroke="#399EFD" stroke-miterlimit="10"/>
<path d="M66.4146 40.5896L67.3468 43.2722H70.2597L67.9293 45.0218L68.745 47.8211L66.4146 46.0715L64.0843 47.8211L65.0164 45.0218L62.5696 43.2722H65.4825L66.4146 40.5896Z" stroke="#399EFD" stroke-miterlimit="10"/>
<path d="M183.164 76.6302C189.149 76.6302 194 71.7737 194 65.783C194 59.7923 189.149 54.9358 183.164 54.9358C177.18 54.9358 172.328 59.7923 172.328 65.783C172.328 71.7737 177.18 76.6302 183.164 76.6302Z" fill="#CAE7FF"/>
<path d="M177.688 60.4177V64.2667L185.262 66.0163L177.688 67.7658V71.4982L191.786 66.0163L177.688 60.4177Z" fill="white"/>
<path d="M119.08 15.9792C119.08 24.7269 111.972 31.8418 103.234 31.8418C94.3784 31.8418 88.3196 25.0769 87.504 17.962C86.9214 13.2966 88.2031 9.09765 91.349 5.48192C94.3785 1.86618 98.4565 0 103.234 0C111.856 0 119.08 6.99819 119.08 15.9792Z" fill="url(#paint2_linear_601_2444)"/>
<path d="M105.447 21.9277C104.049 21.9277 102.651 21.9277 101.253 21.9277C100.787 21.9277 100.554 21.811 100.554 21.2278C100.554 19.0117 100.437 16.9123 100.67 14.6962C100.787 13.2966 101.369 12.0135 102.185 10.9638C102.768 10.264 103.35 9.44754 104.049 8.86436C104.282 8.63109 104.399 8.39782 104.399 8.04791C104.399 7.698 104.399 7.34809 104.399 6.88154C104.399 6.41499 104.515 6.06508 104.981 5.83181C105.447 5.59854 105.914 5.71517 106.263 6.06508C106.613 6.41499 106.729 6.88154 106.846 7.34809C107.079 8.51445 106.962 9.68082 106.38 10.7305C106.263 11.0805 106.03 11.4304 105.914 11.7803C105.797 12.0135 105.914 12.1302 106.147 12.1302C106.263 12.1302 106.38 12.1302 106.496 12.1302C107.778 12.1302 109.059 12.1302 110.225 12.1302C110.924 12.1302 111.39 12.4801 111.506 13.0633C111.739 13.7631 111.39 14.4629 110.924 14.8128C110.691 14.9295 110.691 15.0461 110.924 15.1627C111.39 15.5126 111.739 15.8626 111.623 16.4457C111.506 16.9123 111.273 17.2622 110.924 17.3788C110.807 17.3788 110.691 17.3788 110.691 17.4955C110.691 17.6121 110.807 17.6121 110.924 17.7287C111.506 18.1953 111.623 19.3616 110.691 19.7116C110.574 19.8282 110.458 19.8282 110.574 19.9448C110.924 20.2947 110.924 20.7613 110.807 21.2278C110.574 21.6944 110.225 21.811 109.759 21.811C108.244 21.811 106.846 21.811 105.447 21.9277C105.447 21.811 105.447 21.811 105.447 21.9277Z" fill="#FDFDFE"/>
<path d="M98.8061 23.094C97.6409 23.094 96.4758 23.094 95.3106 23.094C94.9611 23.094 94.8445 22.8607 94.728 22.6274C94.728 22.5108 94.728 22.2775 94.728 22.1609C94.728 19.7115 94.728 17.2622 94.728 14.9294C94.728 14.3463 94.8445 14.2296 95.4271 14.2296C96.4758 14.2296 97.5244 14.2296 98.5731 14.2296C99.0391 14.2296 99.1556 14.4629 99.1556 14.8128C99.1556 17.3788 99.1556 19.9448 99.1556 22.3942C99.0391 22.3942 99.1556 22.3942 99.1556 22.5108C99.1556 22.7441 99.1557 23.094 98.8061 23.2106C98.8061 23.094 98.8061 23.094 98.6896 23.094C98.8061 22.9774 98.8061 23.094 98.8061 23.094Z" fill="#FDFDFE"/>
<path d="M61.9867 62.0507C62.4527 64.2668 62.3362 66.5995 62.4527 68.8156C62.5693 71.0317 63.1518 73.4811 64.6666 75.114C65.9482 76.5136 67.8125 77.4467 68.7446 79.1963C69.4437 80.4793 69.4437 82.1122 68.8611 83.5118C68.3951 84.9115 67.3464 86.0778 66.2978 87.0109C62.4527 90.2767 56.6269 90.7433 52.0828 88.6438C47.5386 86.5444 44.1596 81.9956 43.111 77.0968C42.0623 72.1981 42.9945 66.9494 45.4413 62.5173C46.8395 60.0679 48.7038 57.7352 51.2672 56.4522C53.3645 55.4024 56.5104 54.9359 58.6077 56.2189C60.472 57.2686 61.6371 60.0679 61.9867 62.0507Z" fill="url(#paint3_linear_601_2444)"/>
<path d="M98.4564 112.671C98.4564 112.671 97.6408 114.421 95.5435 113.371L94.1453 115.937L97.5242 117.803L99.9711 113.138L99.039 108.472C99.039 108.472 98.1068 108.822 98.1068 109.872C98.2233 110.921 98.4564 112.671 98.4564 112.671Z" fill="#915046"/>
<path d="M101.602 118.736C101.602 117.686 101.02 116.637 100.088 116.17L96.4757 114.304L95.7766 115.703L101.602 118.736Z" fill="#994F39"/>
<path d="M102.535 120.369C102.535 119.319 101.952 118.27 101.02 117.803L96.9418 115.587L96.2427 116.987L102.535 120.369Z" fill="#AB6955"/>
<path d="M97.7572 104.156L98.9224 107.656H102.651L99.6215 109.872L100.903 113.487L97.7572 111.271L94.7278 113.487L95.893 109.988L92.8635 107.772H96.5921L97.7572 104.156Z" fill="#FAAF3B"/>
<path d="M95.427 113.371L95.5435 112.088L96.9417 110.921C97.4077 110.572 97.6408 110.105 97.6408 109.522V109.405L93.2131 111.038L91.2324 113.371L89.9507 115.704L96.5921 119.203L97.0582 118.386C97.9903 116.637 97.2912 114.654 95.66 113.721L95.427 113.371Z" fill="#B57A68"/>
<path d="M101.486 121.652C101.486 120.602 100.903 119.553 99.971 119.086L95.893 116.87L95.1938 118.27L101.486 121.652Z" fill="#B57A68"/>
<path d="M95.4271 113.254C94.961 113.954 94.4949 114.421 93.9124 114.887" stroke="#A15545" stroke-width="1.8647" stroke-miterlimit="10" stroke-linecap="round" stroke-linejoin="round"/>
<path d="M71.5412 113.254L91.815 113.604V116.403L67.5796 120.019L71.5412 113.254Z" fill="#B57A68"/>
<path d="M52.6655 87.1276H58.6079C61.4043 87.1276 63.9676 88.8771 64.7832 91.5598L73.4055 116.87C73.4055 116.87 72.8229 121.535 69.0944 122.002C67.6962 122.119 66.4145 121.419 65.7154 120.136L52.6655 95.0589V87.1276Z" fill="#399EFD"/>
<path d="M67.8125 112.788L87.3873 113.487L80.9789 121.652L68.6281 122.352C66.9969 122.468 65.7152 120.952 66.1813 119.319L66.9969 116.17L67.8125 112.788Z" fill="#399EFD"/>
<path d="M71.541 113.254C69.9098 114.187 68.1621 115.704 67.3464 117.336L71.541 113.254Z" fill="#399EFD"/>
<path d="M71.5411 113.254C69.4438 113.371 66.8804 113.604 65.3657 115.004L71.5411 113.254Z" fill="#399EFD"/>
<path d="M37.4017 123.635L32.6245 90.9765L35.0714 87.0109H57.559L63.8509 103.807C63.8509 103.807 58.8407 117.336 58.8407 123.285" fill="#399EFD"/>
<path d="M32.6245 91.0931L35.0714 87.0109H38.3338L39.266 95.0588L36.2365 115.703L32.6245 91.0931Z" fill="#399EFD"/>
<path d="M56.5104 87.2441V106.256L40.5476 87.2441H56.5104Z" fill="white"/>
<path d="M46.723 91.793C45.5579 91.5597 44.5092 91.0931 43.4606 90.6266L40.4312 87.0109H56.5104V89.8101C54.2966 92.4928 49.9855 92.6094 46.723 91.793Z" fill="#B57A68"/>
<path d="M40.4312 87.0109V99.0244H47.3056L43.4606 106.956L57.093 106.839L40.4312 87.0109Z" fill="#89C3F4"/>
<path d="M56.5105 87.0109H57.5591L65.5988 99.0244H59.3069L66.0649 106.956H57.0931H56.627L56.5105 87.0109Z" fill="#89C3F4"/>
<path d="M56.627 106.956C55.1123 114.187 53.9471 121.652 52.4324 128.883L56.627 106.956Z" fill="#399EFD"/>
<path d="M39.2661 87.0109H33.3237C30.5273 87.0109 27.964 88.7604 27.1483 91.4431L18.5261 116.753C18.5261 116.753 18.6426 118.619 19.4583 120.252C20.8565 122.818 24.2354 123.401 25.6336 120.835L39.3826 94.9422V87.0109H39.2661Z" fill="#399EFD"/>
<path d="M47.5389 114.304L49.1702 115.703L53.1317 116.637V116.52C53.0152 115.937 52.7822 115.47 52.1996 115.237L51.2675 114.304L51.5005 113.254L53.1317 111.854L51.151 110.105L46.8398 112.904L47.5389 114.304Z" fill="#915046"/>
<path d="M51.384 111.505L54.1804 114.071L57.4428 112.321L55.8116 115.703L58.4915 118.269L54.763 117.803L53.1317 121.185L52.4326 117.453L48.7041 116.986L52.0831 115.237L51.384 111.505Z" fill="#FAAF3B"/>
<path d="M53.8308 112.904C53.8308 112.904 53.0152 111.621 51.5005 112.671L50.1023 110.688L52.8987 108.705L55.3455 112.204L54.763 115.353C54.763 115.353 53.9473 115.12 53.9473 114.42C53.8308 113.604 53.8308 112.904 53.8308 112.904Z" fill="#915046"/>
<path d="M47.7719 114.537L46.1406 112.321L52.1995 107.656L52.7821 108.472C53.9472 109.988 53.8307 111.388 52.8986 112.204L51.6169 113.254L47.7719 114.537Z" fill="#B57A68"/>
<path d="M56.6271 109.755C56.8601 109.755 56.9766 109.872 56.8601 110.105C56.6271 110.805 56.0445 111.271 55.2289 111.505L51.5004 112.438L51.2673 111.038L56.6271 109.755Z" fill="#B57A68"/>
<path d="M56.161 104.506C56.2775 104.39 56.627 104.506 56.627 104.74C56.627 105.673 56.2775 106.489 55.5784 107.072L51.9664 109.988L50.9177 108.705L56.161 104.506Z" fill="#B57A68"/>
<path d="M56.8601 107.072C57.0931 106.956 57.3261 107.189 57.2096 107.422C57.0931 108.355 56.5105 109.055 55.6949 109.522L52.0829 111.388L51.3838 109.988L56.8601 107.072Z" fill="#B57A68"/>
<path d="M24.818 111.621L44.8588 111.505L38.6835 120.136L23.1868 122.468C21.206 122.818 19.4582 121.069 19.8078 118.969C20.2738 115.937 21.672 111.854 24.818 111.621Z" fill="#399EFD"/>
<path d="M44.3928 71.0317L45.0919 88.6439C45.0919 89.3437 45.6745 89.9269 46.3736 89.9269H54.9958C56.0445 89.9269 56.6271 88.6439 55.8114 87.8274C54.1802 86.1945 52.4325 83.3952 52.4325 78.7297V71.265L44.3928 71.0317Z" fill="#B57A68"/>
<path d="M48.3544 71.265L52.549 71.4983V78.963C52.549 80.9458 52.8985 82.6954 53.3646 84.095C48.5874 82.3455 46.9562 75.9305 48.3544 71.265Z" fill="#915046"/>
<path d="M46.4902 77.68C45.9076 77.3301 45.325 76.7469 44.7424 76.2804C41.9461 73.5977 40.3148 69.8654 39.9653 66.0164C39.6157 62.4006 40.3148 58.9015 43.3442 56.4522C46.4902 53.8862 51.5004 53.6529 55.1124 55.4024C58.4914 57.0354 60.4722 60.3012 61.1713 63.9169C61.5208 65.7831 61.6373 67.6493 61.6373 69.3988C61.6373 72.8979 61.1713 79.5462 57.2097 80.3627C52.7821 81.4124 49.6361 79.7795 46.4902 77.68Z" fill="#B57A68"/>
<path d="M59.7729 62.5172C60.938 64.1501 61.2876 66.2496 61.5206 68.1158C62.2197 65.5498 62.2197 62.8671 61.5206 60.3011C61.171 59.1348 60.705 57.9684 59.8894 57.0353C59.0738 56.1022 57.9086 55.519 56.6269 55.519C54.7626 55.519 52.4323 58.2017 54.4131 59.8346C54.9957 60.3011 56.0443 60.1845 56.7434 60.4178C58.0251 60.7677 59.0738 61.4675 59.7729 62.5172Z" fill="#452828"/>
<path d="M55.2288 64.0335C53.9471 65.1999 52.3159 66.0163 50.5682 66.3662C48.8204 66.7161 46.7231 66.5995 45.3249 67.9991C41.3634 72.3147 44.7423 77.4467 46.7231 81.6456C47.7718 83.8617 48.8204 86.3111 48.2378 88.7604C47.5387 91.9096 44.5093 93.4259 41.4799 93.4259C36.5862 93.4259 32.8576 89.8102 31.9255 85.1447C31.4594 82.6953 31.809 80.3626 32.7411 78.0299C33.5567 75.9304 34.9549 74.0642 35.654 71.9648C36.7027 68.4657 35.188 64.8499 36.3531 61.3509C38.567 54.3527 49.2865 47.5877 55.8114 53.1863C59.5399 56.5688 58.3748 61.2342 55.2288 64.0335Z" fill="url(#paint4_linear_601_2444)"/>
<path d="M45.6745 65.5498C44.7424 66.3662 44.2763 67.5326 44.1598 68.699C44.0433 70.0986 44.3928 71.4982 45.0919 72.6646L46.024 72.548C46.1406 71.0317 46.4901 69.3988 46.9562 67.9992C47.1892 67.2993 47.4222 66.5995 47.7718 66.0163C47.4222 64.7333 46.4901 64.7333 45.6745 65.5498Z" fill="#452828"/>
<path d="M57.4426 69.0488C57.6757 70.2152 58.1417 71.2649 58.8408 72.3146C59.0739 72.6646 59.3069 73.0145 59.1904 73.481C59.0739 73.8309 58.7243 74.0642 58.3748 74.2975" stroke="#915046" stroke-width="1.2164" stroke-miterlimit="10" stroke-linecap="round"/>
<path d="M57.4306 77.2759C57.9135 77.0971 58.1601 76.5603 57.9815 76.077C57.8029 75.5937 57.2667 75.3468 56.7839 75.5256C56.3011 75.7043 56.0544 76.2411 56.233 76.7244C56.4116 77.2077 56.9478 77.4546 57.4306 77.2759Z" fill="#FF7A7A"/>
<path d="M58.6078 75.8137C57.5592 76.3969 56.2775 76.5135 55.1123 76.047" stroke="#915046" stroke-width="1.2164" stroke-miterlimit="10" stroke-linecap="round"/>
<path d="M60.9381 65.8997C60.0059 65.4331 59.1903 65.5498 58.4912 66.2496" stroke="#452828" stroke-width="1.8231" stroke-miterlimit="10" stroke-linecap="round"/>
<path d="M54.0637 66.7161C52.782 66.3662 51.5003 66.4829 50.4517 67.2993" stroke="#452828" stroke-width="1.8231" stroke-miterlimit="10" stroke-linecap="round"/>
<path d="M53.8306 69.5154C53.9471 69.9819 53.5976 70.4485 53.1315 70.5651C52.6655 70.6818 52.1994 70.3319 52.0829 69.8653C51.9664 69.3988 52.3159 68.9322 52.782 68.8156C53.248 68.6989 53.7141 69.0488 53.8306 69.5154Z" fill="#452828"/>
<path d="M60.5235 68.997C60.6072 68.4885 60.2633 68.0084 59.7553 67.9246C59.2474 67.8408 58.7677 68.1851 58.684 68.6936C58.6003 69.2021 58.9442 69.6822 59.4522 69.766C59.9602 69.8498 60.4398 69.5055 60.5235 68.997Z" fill="#452828"/>
<path d="M44.8589 70.5651C44.2763 70.0986 43.3442 69.7487 42.6451 70.0986C42.0625 70.3318 41.5964 70.915 41.4799 71.4982C41.3634 72.0814 41.4799 72.7812 41.5964 73.3644C42.2955 75.2306 44.1598 76.6302 46.1406 76.7469C46.6066 76.7469 46.3736 73.3644 46.2571 73.1311C46.2571 72.198 45.558 71.1483 44.8589 70.5651Z" fill="#B57A68"/>
<path d="M45.6744 75.9304C45.7909 76.397 45.4413 76.8635 44.9753 76.9802C44.5092 77.0968 44.0432 76.7469 43.9266 76.2803C43.8101 75.8138 44.1597 75.3473 44.6257 75.2306C45.0918 75.114 45.5579 75.4639 45.6744 75.9304Z" fill="white"/>
<path d="M42.7615 71.3816C43.111 71.0317 43.5771 71.0317 44.0432 71.265C44.5092 71.4983 44.7423 71.8482 44.9753 72.1981C45.2083 72.6646 45.2083 73.0145 45.3248 73.4811C45.0918 73.2478 44.7423 73.2478 44.5092 73.4811C44.2762 73.7144 44.1597 74.0643 44.2762 74.2975C44.3927 74.5308 44.7423 74.7641 45.0918 74.6475" stroke="#915046" stroke-width="1.2164" stroke-miterlimit="10" stroke-linecap="round"/>
</g>
<defs>
<linearGradient id="paint0_linear_601_2444" x1="82.8713" y1="122.935" x2="139.585" y2="122.935" gradientUnits="userSpaceOnUse">
<stop stop-color="#3D5475"/>
<stop offset="0.2549" stop-color="#364F6F"/>
<stop offset="0.6276" stop-color="#22425F"/>
<stop offset="1" stop-color="#083149"/>
</linearGradient>
<linearGradient id="paint1_linear_601_2444" x1="107.415" y1="111.009" x2="159.104" y2="111.009" gradientUnits="userSpaceOnUse">
<stop stop-color="#3D5475"/>
<stop offset="0.2549" stop-color="#364F6F"/>
<stop offset="0.6276" stop-color="#22425F"/>
<stop offset="1" stop-color="#083149"/>
</linearGradient>
<linearGradient id="paint2_linear_601_2444" x1="87.3273" y1="15.9048" x2="119.041" y2="15.9048" gradientUnits="userSpaceOnUse">
<stop stop-color="#3D5475"/>
<stop offset="0.2549" stop-color="#364F6F"/>
<stop offset="0.6276" stop-color="#22425F"/>
<stop offset="1" stop-color="#083149"/>
</linearGradient>
<linearGradient id="paint3_linear_601_2444" x1="42.6351" y1="72.6637" x2="69.2316" y2="72.6637" gradientUnits="userSpaceOnUse">
<stop stop-color="#3D5475"/>
<stop offset="0.2549" stop-color="#364F6F"/>
<stop offset="0.6276" stop-color="#22425F"/>
<stop offset="1" stop-color="#083149"/>
</linearGradient>
<linearGradient id="paint4_linear_601_2444" x1="31.7922" y1="72.3297" x2="58.1217" y2="72.3297" gradientUnits="userSpaceOnUse">
<stop stop-color="#3D5475"/>
<stop offset="0.2549" stop-color="#364F6F"/>
<stop offset="0.6276" stop-color="#22425F"/>
<stop offset="1" stop-color="#083149"/>
</linearGradient>
<clipPath id="clip0_601_2444">
<rect width="194" height="129" fill="white"/>
</clipPath>
</defs>
</svg>
